%TF.GenerationSoftware,KiCad,Pcbnew,8.0.3*%
%TF.CreationDate,2024-07-24T13:04:13+02:00*%
%TF.ProjectId,numerical,6e756d65-7269-4636-916c-2e6b69636164,rev?*%
%TF.SameCoordinates,Original*%
%TF.FileFunction,Soldermask,Top*%
%TF.FilePolarity,Negative*%
%FSLAX46Y46*%
G04 Gerber Fmt 4.6, Leading zero omitted, Abs format (unit mm)*
G04 Created by KiCad (PCBNEW 8.0.3) date 2024-07-24 13:04:13*
%MOMM*%
%LPD*%
G01*
G04 APERTURE LIST*
%ADD10C,1.701800*%
%ADD11C,3.000000*%
%ADD12C,3.987800*%
%ADD13C,3.048000*%
%ADD14C,2.200000*%
%ADD15C,1.600000*%
%ADD16O,1.600000X1.600000*%
%ADD17O,1.700000X1.700000*%
%ADD18R,1.700000X1.700000*%
G04 APERTURE END LIST*
D10*
%TO.C,S7*%
X81720000Y-127075000D03*
D11*
X82990000Y-124535000D03*
D12*
X86800000Y-127075000D03*
D11*
X89340000Y-121995000D03*
D10*
X91880000Y-127075000D03*
%TD*%
D12*
%TO.C,S10*%
X135695000Y-124662000D03*
X135695000Y-148538000D03*
D10*
X138870000Y-136600000D03*
D11*
X140140000Y-134060000D03*
D12*
X143950000Y-136600000D03*
D11*
X146490000Y-131520000D03*
D10*
X149030000Y-136600000D03*
D13*
X150935000Y-124662000D03*
X150935000Y-148538000D03*
%TD*%
D10*
%TO.C,S23*%
X119820000Y-184225000D03*
D11*
X121090000Y-181685000D03*
D12*
X124900000Y-184225000D03*
D11*
X127440000Y-179145000D03*
D10*
X129980000Y-184225000D03*
%TD*%
%TO.C,S14*%
X119820000Y-146125000D03*
D11*
X121090000Y-143585000D03*
D12*
X124900000Y-146125000D03*
D11*
X127440000Y-141045000D03*
D10*
X129980000Y-146125000D03*
%TD*%
%TO.C,S3*%
X100770000Y-108025000D03*
D11*
X102040000Y-105485000D03*
D12*
X105850000Y-108025000D03*
D11*
X108390000Y-102945000D03*
D10*
X110930000Y-108025000D03*
%TD*%
D13*
%TO.C,S22*%
X84387000Y-177240000D03*
D12*
X84387000Y-192480000D03*
D10*
X91245000Y-184225000D03*
D11*
X92515000Y-181685000D03*
D12*
X96325000Y-184225000D03*
D11*
X98865000Y-179145000D03*
D10*
X101405000Y-184225000D03*
D13*
X108263000Y-177240000D03*
D12*
X108263000Y-192480000D03*
%TD*%
D10*
%TO.C,S2*%
X81720000Y-108025000D03*
D11*
X82990000Y-105485000D03*
D12*
X86800000Y-108025000D03*
D11*
X89340000Y-102945000D03*
D10*
X91880000Y-108025000D03*
%TD*%
D14*
%TO.C,REF\u002A\u002A*%
X156015000Y-199585000D03*
%TD*%
D10*
%TO.C,S5*%
X138870000Y-108025000D03*
D11*
X140140000Y-105485000D03*
D12*
X143950000Y-108025000D03*
D11*
X146490000Y-102945000D03*
D10*
X149030000Y-108025000D03*
%TD*%
%TO.C,S8*%
X100770000Y-127075000D03*
D11*
X102040000Y-124535000D03*
D12*
X105850000Y-127075000D03*
D11*
X108390000Y-121995000D03*
D10*
X110930000Y-127075000D03*
%TD*%
%TO.C,S1*%
X138870000Y-69925000D03*
D11*
X140140000Y-67385000D03*
D12*
X143950000Y-69925000D03*
D11*
X146490000Y-64845000D03*
D10*
X149030000Y-69925000D03*
%TD*%
%TO.C,S18*%
X100770000Y-165175000D03*
D11*
X102040000Y-162635000D03*
D12*
X105850000Y-165175000D03*
D11*
X108390000Y-160095000D03*
D10*
X110930000Y-165175000D03*
%TD*%
D14*
%TO.C,REF\u002A\u002A*%
X75015000Y-68585000D03*
%TD*%
D10*
%TO.C,S19*%
X119820000Y-165175000D03*
D11*
X121090000Y-162635000D03*
D12*
X124900000Y-165175000D03*
D11*
X127440000Y-160095000D03*
D10*
X129980000Y-165175000D03*
%TD*%
D14*
%TO.C,REF\u002A\u002A*%
X75015000Y-199585000D03*
%TD*%
%TO.C,REF\u002A\u002A*%
X144015000Y-123585000D03*
%TD*%
D12*
%TO.C,S24*%
X135695000Y-162762000D03*
X135695000Y-186638000D03*
D10*
X138870000Y-174700000D03*
D11*
X140140000Y-172160000D03*
D12*
X143950000Y-174700000D03*
D11*
X146490000Y-169620000D03*
D10*
X149030000Y-174700000D03*
D13*
X150935000Y-162762000D03*
X150935000Y-186638000D03*
%TD*%
D10*
%TO.C,S17*%
X81720000Y-165175000D03*
D11*
X82990000Y-162635000D03*
D12*
X86800000Y-165175000D03*
D11*
X89340000Y-160095000D03*
D10*
X91880000Y-165175000D03*
%TD*%
%TO.C,S12*%
X81720000Y-146125000D03*
D11*
X82990000Y-143585000D03*
D12*
X86800000Y-146125000D03*
D11*
X89340000Y-141045000D03*
D10*
X91880000Y-146125000D03*
%TD*%
%TO.C,S9*%
X119820000Y-127075000D03*
D11*
X121090000Y-124535000D03*
D12*
X124900000Y-127075000D03*
D11*
X127440000Y-121995000D03*
D10*
X129980000Y-127075000D03*
%TD*%
%TO.C,S13*%
X100770000Y-146125000D03*
D11*
X102040000Y-143585000D03*
D12*
X105850000Y-146125000D03*
D11*
X108390000Y-141045000D03*
D10*
X110930000Y-146125000D03*
%TD*%
D14*
%TO.C,REF\u002A\u002A*%
X156015000Y-39585000D03*
%TD*%
D10*
%TO.C,S4*%
X119820000Y-108025000D03*
D11*
X121090000Y-105485000D03*
D12*
X124900000Y-108025000D03*
D11*
X127440000Y-102945000D03*
D10*
X129980000Y-108025000D03*
%TD*%
D15*
%TO.C,R2*%
X81525000Y-61475000D03*
D16*
X81525000Y-51315000D03*
%TD*%
D17*
%TO.C,U1*%
X107995000Y-43485000D03*
X107995000Y-46025000D03*
D18*
X107995000Y-48565000D03*
D17*
X107995000Y-51105000D03*
X107995000Y-53645000D03*
X107995000Y-56185000D03*
X107995000Y-58725000D03*
D18*
X107995000Y-61265000D03*
D17*
X107995000Y-63805000D03*
X107995000Y-66345000D03*
X107995000Y-68885000D03*
X107995000Y-71425000D03*
D18*
X107995000Y-73965000D03*
D17*
X107995000Y-76505000D03*
X107995000Y-79045000D03*
X107995000Y-81585000D03*
X107995000Y-84125000D03*
D18*
X107995000Y-86665000D03*
D17*
X107995000Y-89205000D03*
X107995000Y-91745000D03*
X90215000Y-91745000D03*
X90215000Y-89205000D03*
D18*
X90215000Y-86665000D03*
D17*
X90215000Y-84125000D03*
X90215000Y-81585000D03*
X90215000Y-79045000D03*
X90215000Y-76505000D03*
D18*
X90215000Y-73965000D03*
D17*
X90215000Y-71425000D03*
X90215000Y-68885000D03*
X90215000Y-66345000D03*
X90215000Y-63805000D03*
D18*
X90215000Y-61265000D03*
D17*
X90215000Y-58725000D03*
X90215000Y-56185000D03*
X90215000Y-53645000D03*
X90215000Y-51105000D03*
D18*
X90215000Y-48565000D03*
D17*
X90215000Y-46025000D03*
X90215000Y-43485000D03*
X101645000Y-91515000D03*
D18*
X99105000Y-91515000D03*
D17*
X96565000Y-91515000D03*
%TD*%
D15*
%TO.C,J1*%
X78215000Y-37735000D03*
X78215000Y-44735000D03*
%TD*%
%TO.C,R1*%
X74985000Y-61575000D03*
D16*
X74985000Y-51415000D03*
%TD*%
M02*
