%TF.GenerationSoftware,KiCad,Pcbnew,8.0.3*%
%TF.CreationDate,2024-07-24T13:05:15+02:00*%
%TF.ProjectId,numerical,6e756d65-7269-4636-916c-2e6b69636164,rev?*%
%TF.SameCoordinates,Original*%
%TF.FileFunction,Drillmap*%
%TF.FilePolarity,Positive*%
%FSLAX45Y45*%
G04 Gerber Fmt 4.5, Leading zero omitted, Abs format (unit mm)*
G04 Created by KiCad (PCBNEW 8.0.3) date 2024-07-24 13:05:15*
%MOMM*%
%LPD*%
G01*
G04 APERTURE LIST*
%ADD10C,0.050000*%
%ADD11C,0.200000*%
%ADD12C,0.160000*%
%ADD13C,0.170180*%
%ADD14C,0.220000*%
%ADD15C,0.300000*%
%ADD16C,0.304800*%
%ADD17C,0.398780*%
G04 APERTURE END LIST*
D10*
X7101500Y-3558500D02*
X15961500Y-3558500D01*
X15961500Y-20348500D01*
X7101500Y-20348500D01*
X7101500Y-3558500D01*
D11*
D12*
X7741500Y-3693500D02*
X7901500Y-3853500D01*
X7901500Y-3693500D02*
X7741500Y-3853500D01*
X7741500Y-4393500D02*
X7901500Y-4553500D01*
X7901500Y-4393500D02*
X7741500Y-4553500D01*
D13*
X8257090Y-10802500D02*
G75*
G02*
X8086910Y-10802500I-85090J0D01*
G01*
X8086910Y-10802500D02*
G75*
G02*
X8257090Y-10802500I85090J0D01*
G01*
X8257090Y-12707500D02*
G75*
G02*
X8086910Y-12707500I-85090J0D01*
G01*
X8086910Y-12707500D02*
G75*
G02*
X8257090Y-12707500I85090J0D01*
G01*
X8257090Y-14612500D02*
G75*
G02*
X8086910Y-14612500I-85090J0D01*
G01*
X8086910Y-14612500D02*
G75*
G02*
X8257090Y-14612500I85090J0D01*
G01*
X8257090Y-16517500D02*
G75*
G02*
X8086910Y-16517500I-85090J0D01*
G01*
X8086910Y-16517500D02*
G75*
G02*
X8257090Y-16517500I85090J0D01*
G01*
X9209590Y-18422500D02*
G75*
G02*
X9039410Y-18422500I-85090J0D01*
G01*
X9039410Y-18422500D02*
G75*
G02*
X9209590Y-18422500I85090J0D01*
G01*
X9273090Y-10802500D02*
G75*
G02*
X9102910Y-10802500I-85090J0D01*
G01*
X9102910Y-10802500D02*
G75*
G02*
X9273090Y-10802500I85090J0D01*
G01*
X9273090Y-12707500D02*
G75*
G02*
X9102910Y-12707500I-85090J0D01*
G01*
X9102910Y-12707500D02*
G75*
G02*
X9273090Y-12707500I85090J0D01*
G01*
X9273090Y-14612500D02*
G75*
G02*
X9102910Y-14612500I-85090J0D01*
G01*
X9102910Y-14612500D02*
G75*
G02*
X9273090Y-14612500I85090J0D01*
G01*
X9273090Y-16517500D02*
G75*
G02*
X9102910Y-16517500I-85090J0D01*
G01*
X9102910Y-16517500D02*
G75*
G02*
X9273090Y-16517500I85090J0D01*
G01*
X10162090Y-10802500D02*
G75*
G02*
X9991910Y-10802500I-85090J0D01*
G01*
X9991910Y-10802500D02*
G75*
G02*
X10162090Y-10802500I85090J0D01*
G01*
X10162090Y-12707500D02*
G75*
G02*
X9991910Y-12707500I-85090J0D01*
G01*
X9991910Y-12707500D02*
G75*
G02*
X10162090Y-12707500I85090J0D01*
G01*
X10162090Y-14612500D02*
G75*
G02*
X9991910Y-14612500I-85090J0D01*
G01*
X9991910Y-14612500D02*
G75*
G02*
X10162090Y-14612500I85090J0D01*
G01*
X10162090Y-16517500D02*
G75*
G02*
X9991910Y-16517500I-85090J0D01*
G01*
X9991910Y-16517500D02*
G75*
G02*
X10162090Y-16517500I85090J0D01*
G01*
X10225590Y-18422500D02*
G75*
G02*
X10055410Y-18422500I-85090J0D01*
G01*
X10055410Y-18422500D02*
G75*
G02*
X10225590Y-18422500I85090J0D01*
G01*
X11178090Y-10802500D02*
G75*
G02*
X11007910Y-10802500I-85090J0D01*
G01*
X11007910Y-10802500D02*
G75*
G02*
X11178090Y-10802500I85090J0D01*
G01*
X11178090Y-12707500D02*
G75*
G02*
X11007910Y-12707500I-85090J0D01*
G01*
X11007910Y-12707500D02*
G75*
G02*
X11178090Y-12707500I85090J0D01*
G01*
X11178090Y-14612500D02*
G75*
G02*
X11007910Y-14612500I-85090J0D01*
G01*
X11007910Y-14612500D02*
G75*
G02*
X11178090Y-14612500I85090J0D01*
G01*
X11178090Y-16517500D02*
G75*
G02*
X11007910Y-16517500I-85090J0D01*
G01*
X11007910Y-16517500D02*
G75*
G02*
X11178090Y-16517500I85090J0D01*
G01*
X12067090Y-10802500D02*
G75*
G02*
X11896910Y-10802500I-85090J0D01*
G01*
X11896910Y-10802500D02*
G75*
G02*
X12067090Y-10802500I85090J0D01*
G01*
X12067090Y-12707500D02*
G75*
G02*
X11896910Y-12707500I-85090J0D01*
G01*
X11896910Y-12707500D02*
G75*
G02*
X12067090Y-12707500I85090J0D01*
G01*
X12067090Y-14612500D02*
G75*
G02*
X11896910Y-14612500I-85090J0D01*
G01*
X11896910Y-14612500D02*
G75*
G02*
X12067090Y-14612500I85090J0D01*
G01*
X12067090Y-16517500D02*
G75*
G02*
X11896910Y-16517500I-85090J0D01*
G01*
X11896910Y-16517500D02*
G75*
G02*
X12067090Y-16517500I85090J0D01*
G01*
X12067090Y-18422500D02*
G75*
G02*
X11896910Y-18422500I-85090J0D01*
G01*
X11896910Y-18422500D02*
G75*
G02*
X12067090Y-18422500I85090J0D01*
G01*
X13083090Y-10802500D02*
G75*
G02*
X12912910Y-10802500I-85090J0D01*
G01*
X12912910Y-10802500D02*
G75*
G02*
X13083090Y-10802500I85090J0D01*
G01*
X13083090Y-12707500D02*
G75*
G02*
X12912910Y-12707500I-85090J0D01*
G01*
X12912910Y-12707500D02*
G75*
G02*
X13083090Y-12707500I85090J0D01*
G01*
X13083090Y-14612500D02*
G75*
G02*
X12912910Y-14612500I-85090J0D01*
G01*
X12912910Y-14612500D02*
G75*
G02*
X13083090Y-14612500I85090J0D01*
G01*
X13083090Y-16517500D02*
G75*
G02*
X12912910Y-16517500I-85090J0D01*
G01*
X12912910Y-16517500D02*
G75*
G02*
X13083090Y-16517500I85090J0D01*
G01*
X13083090Y-18422500D02*
G75*
G02*
X12912910Y-18422500I-85090J0D01*
G01*
X12912910Y-18422500D02*
G75*
G02*
X13083090Y-18422500I85090J0D01*
G01*
X13972090Y-6992500D02*
G75*
G02*
X13801910Y-6992500I-85090J0D01*
G01*
X13801910Y-6992500D02*
G75*
G02*
X13972090Y-6992500I85090J0D01*
G01*
X13972090Y-10802500D02*
G75*
G02*
X13801910Y-10802500I-85090J0D01*
G01*
X13801910Y-10802500D02*
G75*
G02*
X13972090Y-10802500I85090J0D01*
G01*
X13972090Y-13660000D02*
G75*
G02*
X13801910Y-13660000I-85090J0D01*
G01*
X13801910Y-13660000D02*
G75*
G02*
X13972090Y-13660000I85090J0D01*
G01*
X13972090Y-17470000D02*
G75*
G02*
X13801910Y-17470000I-85090J0D01*
G01*
X13801910Y-17470000D02*
G75*
G02*
X13972090Y-17470000I85090J0D01*
G01*
X14988090Y-6992500D02*
G75*
G02*
X14817910Y-6992500I-85090J0D01*
G01*
X14817910Y-6992500D02*
G75*
G02*
X14988090Y-6992500I85090J0D01*
G01*
X14988090Y-10802500D02*
G75*
G02*
X14817910Y-10802500I-85090J0D01*
G01*
X14817910Y-10802500D02*
G75*
G02*
X14988090Y-10802500I85090J0D01*
G01*
X14988090Y-13660000D02*
G75*
G02*
X14817910Y-13660000I-85090J0D01*
G01*
X14817910Y-13660000D02*
G75*
G02*
X14988090Y-13660000I85090J0D01*
G01*
X14988090Y-17470000D02*
G75*
G02*
X14817910Y-17470000I-85090J0D01*
G01*
X14817910Y-17470000D02*
G75*
G02*
X14988090Y-17470000I85090J0D01*
G01*
D14*
X7501500Y-6748500D02*
X7501500Y-6968500D01*
X7391500Y-6858500D02*
X7611500Y-6858500D01*
X7501500Y-19848500D02*
X7501500Y-20068500D01*
X7391500Y-19958500D02*
X7611500Y-19958500D01*
X14401500Y-12248500D02*
X14401500Y-12468500D01*
X14291500Y-12358500D02*
X14511500Y-12358500D01*
X15601500Y-3848500D02*
X15601500Y-4068500D01*
X15491500Y-3958500D02*
X15711500Y-3958500D01*
X15601500Y-19848500D02*
X15601500Y-20068500D01*
X15491500Y-19958500D02*
X15711500Y-19958500D01*
D15*
X8405067Y-10654567D02*
X8405067Y-10442433D01*
X8192933Y-10442433D01*
X8192933Y-10654567D01*
X8405067Y-10654567D01*
X8405067Y-12559567D02*
X8405067Y-12347433D01*
X8192933Y-12347433D01*
X8192933Y-12559567D01*
X8405067Y-12559567D01*
X8405067Y-14464567D02*
X8405067Y-14252433D01*
X8192933Y-14252433D01*
X8192933Y-14464567D01*
X8405067Y-14464567D01*
X8405067Y-16369567D02*
X8405067Y-16157433D01*
X8192933Y-16157433D01*
X8192933Y-16369567D01*
X8405067Y-16369567D01*
X9040067Y-10400567D02*
X9040067Y-10188433D01*
X8827933Y-10188433D01*
X8827933Y-10400567D01*
X9040067Y-10400567D01*
X9040067Y-12305567D02*
X9040067Y-12093433D01*
X8827933Y-12093433D01*
X8827933Y-12305567D01*
X9040067Y-12305567D01*
X9040067Y-14210567D02*
X9040067Y-13998433D01*
X8827933Y-13998433D01*
X8827933Y-14210567D01*
X9040067Y-14210567D01*
X9040067Y-16115567D02*
X9040067Y-15903433D01*
X8827933Y-15903433D01*
X8827933Y-16115567D01*
X9040067Y-16115567D01*
X9357567Y-18274567D02*
X9357567Y-18062433D01*
X9145433Y-18062433D01*
X9145433Y-18274567D01*
X9357567Y-18274567D01*
X9992567Y-18020567D02*
X9992567Y-17808433D01*
X9780433Y-17808433D01*
X9780433Y-18020567D01*
X9992567Y-18020567D01*
X10310067Y-10654567D02*
X10310067Y-10442433D01*
X10097933Y-10442433D01*
X10097933Y-10654567D01*
X10310067Y-10654567D01*
X10310067Y-12559567D02*
X10310067Y-12347433D01*
X10097933Y-12347433D01*
X10097933Y-12559567D01*
X10310067Y-12559567D01*
X10310067Y-14464567D02*
X10310067Y-14252433D01*
X10097933Y-14252433D01*
X10097933Y-14464567D01*
X10310067Y-14464567D01*
X10310067Y-16369567D02*
X10310067Y-16157433D01*
X10097933Y-16157433D01*
X10097933Y-16369567D01*
X10310067Y-16369567D01*
X10945067Y-10400567D02*
X10945067Y-10188433D01*
X10732933Y-10188433D01*
X10732933Y-10400567D01*
X10945067Y-10400567D01*
X10945067Y-12305567D02*
X10945067Y-12093433D01*
X10732933Y-12093433D01*
X10732933Y-12305567D01*
X10945067Y-12305567D01*
X10945067Y-14210567D02*
X10945067Y-13998433D01*
X10732933Y-13998433D01*
X10732933Y-14210567D01*
X10945067Y-14210567D01*
X10945067Y-16115567D02*
X10945067Y-15903433D01*
X10732933Y-15903433D01*
X10732933Y-16115567D01*
X10945067Y-16115567D01*
X12215067Y-10654567D02*
X12215067Y-10442433D01*
X12002933Y-10442433D01*
X12002933Y-10654567D01*
X12215067Y-10654567D01*
X12215067Y-12559567D02*
X12215067Y-12347433D01*
X12002933Y-12347433D01*
X12002933Y-12559567D01*
X12215067Y-12559567D01*
X12215067Y-14464567D02*
X12215067Y-14252433D01*
X12002933Y-14252433D01*
X12002933Y-14464567D01*
X12215067Y-14464567D01*
X12215067Y-16369567D02*
X12215067Y-16157433D01*
X12002933Y-16157433D01*
X12002933Y-16369567D01*
X12215067Y-16369567D01*
X12215067Y-18274567D02*
X12215067Y-18062433D01*
X12002933Y-18062433D01*
X12002933Y-18274567D01*
X12215067Y-18274567D01*
X12850067Y-10400567D02*
X12850067Y-10188433D01*
X12637933Y-10188433D01*
X12637933Y-10400567D01*
X12850067Y-10400567D01*
X12850067Y-12305567D02*
X12850067Y-12093433D01*
X12637933Y-12093433D01*
X12637933Y-12305567D01*
X12850067Y-12305567D01*
X12850067Y-14210567D02*
X12850067Y-13998433D01*
X12637933Y-13998433D01*
X12637933Y-14210567D01*
X12850067Y-14210567D01*
X12850067Y-16115567D02*
X12850067Y-15903433D01*
X12637933Y-15903433D01*
X12637933Y-16115567D01*
X12850067Y-16115567D01*
X12850067Y-18020567D02*
X12850067Y-17808433D01*
X12637933Y-17808433D01*
X12637933Y-18020567D01*
X12850067Y-18020567D01*
X14120067Y-6844567D02*
X14120067Y-6632433D01*
X13907933Y-6632433D01*
X13907933Y-6844567D01*
X14120067Y-6844567D01*
X14120067Y-10654567D02*
X14120067Y-10442433D01*
X13907933Y-10442433D01*
X13907933Y-10654567D01*
X14120067Y-10654567D01*
X14120067Y-13512067D02*
X14120067Y-13299933D01*
X13907933Y-13299933D01*
X13907933Y-13512067D01*
X14120067Y-13512067D01*
X14120067Y-17322067D02*
X14120067Y-17109933D01*
X13907933Y-17109933D01*
X13907933Y-17322067D01*
X14120067Y-17322067D01*
X14755067Y-6590567D02*
X14755067Y-6378433D01*
X14542933Y-6378433D01*
X14542933Y-6590567D01*
X14755067Y-6590567D01*
X14755067Y-10400567D02*
X14755067Y-10188433D01*
X14542933Y-10188433D01*
X14542933Y-10400567D01*
X14755067Y-10400567D01*
X14755067Y-13258067D02*
X14755067Y-13045933D01*
X14542933Y-13045933D01*
X14542933Y-13258067D01*
X14755067Y-13258067D01*
X14755067Y-17068067D02*
X14755067Y-16855933D01*
X14542933Y-16855933D01*
X14542933Y-17068067D01*
X14755067Y-17068067D01*
D16*
X8438700Y-17876400D02*
X8591100Y-17724000D01*
X8438700Y-17571600D01*
X8286300Y-17724000D01*
X8438700Y-17876400D01*
X10826300Y-17876400D02*
X10978700Y-17724000D01*
X10826300Y-17571600D01*
X10673900Y-17724000D01*
X10826300Y-17876400D01*
X15093500Y-12618600D02*
X15245900Y-12466200D01*
X15093500Y-12313800D01*
X14941100Y-12466200D01*
X15093500Y-12618600D01*
X15093500Y-15006200D02*
X15245900Y-14853800D01*
X15093500Y-14701400D01*
X14941100Y-14853800D01*
X15093500Y-15006200D01*
X15093500Y-16428600D02*
X15245900Y-16276200D01*
X15093500Y-16123800D01*
X14941100Y-16276200D01*
X15093500Y-16428600D01*
X15093500Y-18816200D02*
X15245900Y-18663800D01*
X15093500Y-18511400D01*
X14941100Y-18663800D01*
X15093500Y-18816200D01*
D17*
X8239310Y-19048610D02*
X8638090Y-19447390D01*
X8638090Y-19048610D02*
X8239310Y-19447390D01*
X8638090Y-19248000D02*
G75*
G02*
X8239310Y-19248000I-199390J0D01*
G01*
X8239310Y-19248000D02*
G75*
G02*
X8638090Y-19248000I199390J0D01*
G01*
X8480610Y-10603110D02*
X8879390Y-11001890D01*
X8879390Y-10603110D02*
X8480610Y-11001890D01*
X8879390Y-10802500D02*
G75*
G02*
X8480610Y-10802500I-199390J0D01*
G01*
X8480610Y-10802500D02*
G75*
G02*
X8879390Y-10802500I199390J0D01*
G01*
X8480610Y-12508110D02*
X8879390Y-12906890D01*
X8879390Y-12508110D02*
X8480610Y-12906890D01*
X8879390Y-12707500D02*
G75*
G02*
X8480610Y-12707500I-199390J0D01*
G01*
X8480610Y-12707500D02*
G75*
G02*
X8879390Y-12707500I199390J0D01*
G01*
X8480610Y-14413110D02*
X8879390Y-14811890D01*
X8879390Y-14413110D02*
X8480610Y-14811890D01*
X8879390Y-14612500D02*
G75*
G02*
X8480610Y-14612500I-199390J0D01*
G01*
X8480610Y-14612500D02*
G75*
G02*
X8879390Y-14612500I199390J0D01*
G01*
X8480610Y-16318110D02*
X8879390Y-16716890D01*
X8879390Y-16318110D02*
X8480610Y-16716890D01*
X8879390Y-16517500D02*
G75*
G02*
X8480610Y-16517500I-199390J0D01*
G01*
X8480610Y-16517500D02*
G75*
G02*
X8879390Y-16517500I199390J0D01*
G01*
X9433110Y-18223110D02*
X9831890Y-18621890D01*
X9831890Y-18223110D02*
X9433110Y-18621890D01*
X9831890Y-18422500D02*
G75*
G02*
X9433110Y-18422500I-199390J0D01*
G01*
X9433110Y-18422500D02*
G75*
G02*
X9831890Y-18422500I199390J0D01*
G01*
X10385610Y-10603110D02*
X10784390Y-11001890D01*
X10784390Y-10603110D02*
X10385610Y-11001890D01*
X10784390Y-10802500D02*
G75*
G02*
X10385610Y-10802500I-199390J0D01*
G01*
X10385610Y-10802500D02*
G75*
G02*
X10784390Y-10802500I199390J0D01*
G01*
X10385610Y-12508110D02*
X10784390Y-12906890D01*
X10784390Y-12508110D02*
X10385610Y-12906890D01*
X10784390Y-12707500D02*
G75*
G02*
X10385610Y-12707500I-199390J0D01*
G01*
X10385610Y-12707500D02*
G75*
G02*
X10784390Y-12707500I199390J0D01*
G01*
X10385610Y-14413110D02*
X10784390Y-14811890D01*
X10784390Y-14413110D02*
X10385610Y-14811890D01*
X10784390Y-14612500D02*
G75*
G02*
X10385610Y-14612500I-199390J0D01*
G01*
X10385610Y-14612500D02*
G75*
G02*
X10784390Y-14612500I199390J0D01*
G01*
X10385610Y-16318110D02*
X10784390Y-16716890D01*
X10784390Y-16318110D02*
X10385610Y-16716890D01*
X10784390Y-16517500D02*
G75*
G02*
X10385610Y-16517500I-199390J0D01*
G01*
X10385610Y-16517500D02*
G75*
G02*
X10784390Y-16517500I199390J0D01*
G01*
X10626910Y-19048610D02*
X11025690Y-19447390D01*
X11025690Y-19048610D02*
X10626910Y-19447390D01*
X11025690Y-19248000D02*
G75*
G02*
X10626910Y-19248000I-199390J0D01*
G01*
X10626910Y-19248000D02*
G75*
G02*
X11025690Y-19248000I199390J0D01*
G01*
X12290610Y-10603110D02*
X12689390Y-11001890D01*
X12689390Y-10603110D02*
X12290610Y-11001890D01*
X12689390Y-10802500D02*
G75*
G02*
X12290610Y-10802500I-199390J0D01*
G01*
X12290610Y-10802500D02*
G75*
G02*
X12689390Y-10802500I199390J0D01*
G01*
X12290610Y-12508110D02*
X12689390Y-12906890D01*
X12689390Y-12508110D02*
X12290610Y-12906890D01*
X12689390Y-12707500D02*
G75*
G02*
X12290610Y-12707500I-199390J0D01*
G01*
X12290610Y-12707500D02*
G75*
G02*
X12689390Y-12707500I199390J0D01*
G01*
X12290610Y-14413110D02*
X12689390Y-14811890D01*
X12689390Y-14413110D02*
X12290610Y-14811890D01*
X12689390Y-14612500D02*
G75*
G02*
X12290610Y-14612500I-199390J0D01*
G01*
X12290610Y-14612500D02*
G75*
G02*
X12689390Y-14612500I199390J0D01*
G01*
X12290610Y-16318110D02*
X12689390Y-16716890D01*
X12689390Y-16318110D02*
X12290610Y-16716890D01*
X12689390Y-16517500D02*
G75*
G02*
X12290610Y-16517500I-199390J0D01*
G01*
X12290610Y-16517500D02*
G75*
G02*
X12689390Y-16517500I199390J0D01*
G01*
X12290610Y-18223110D02*
X12689390Y-18621890D01*
X12689390Y-18223110D02*
X12290610Y-18621890D01*
X12689390Y-18422500D02*
G75*
G02*
X12290610Y-18422500I-199390J0D01*
G01*
X12290610Y-18422500D02*
G75*
G02*
X12689390Y-18422500I199390J0D01*
G01*
X13370110Y-12266810D02*
X13768890Y-12665590D01*
X13768890Y-12266810D02*
X13370110Y-12665590D01*
X13768890Y-12466200D02*
G75*
G02*
X13370110Y-12466200I-199390J0D01*
G01*
X13370110Y-12466200D02*
G75*
G02*
X13768890Y-12466200I199390J0D01*
G01*
X13370110Y-14654410D02*
X13768890Y-15053190D01*
X13768890Y-14654410D02*
X13370110Y-15053190D01*
X13768890Y-14853800D02*
G75*
G02*
X13370110Y-14853800I-199390J0D01*
G01*
X13370110Y-14853800D02*
G75*
G02*
X13768890Y-14853800I199390J0D01*
G01*
X13370110Y-16076810D02*
X13768890Y-16475590D01*
X13768890Y-16076810D02*
X13370110Y-16475590D01*
X13768890Y-16276200D02*
G75*
G02*
X13370110Y-16276200I-199390J0D01*
G01*
X13370110Y-16276200D02*
G75*
G02*
X13768890Y-16276200I199390J0D01*
G01*
X13370110Y-18464410D02*
X13768890Y-18863190D01*
X13768890Y-18464410D02*
X13370110Y-18863190D01*
X13768890Y-18663800D02*
G75*
G02*
X13370110Y-18663800I-199390J0D01*
G01*
X13370110Y-18663800D02*
G75*
G02*
X13768890Y-18663800I199390J0D01*
G01*
X14195610Y-6793110D02*
X14594390Y-7191890D01*
X14594390Y-6793110D02*
X14195610Y-7191890D01*
X14594390Y-6992500D02*
G75*
G02*
X14195610Y-6992500I-199390J0D01*
G01*
X14195610Y-6992500D02*
G75*
G02*
X14594390Y-6992500I199390J0D01*
G01*
X14195610Y-10603110D02*
X14594390Y-11001890D01*
X14594390Y-10603110D02*
X14195610Y-11001890D01*
X14594390Y-10802500D02*
G75*
G02*
X14195610Y-10802500I-199390J0D01*
G01*
X14195610Y-10802500D02*
G75*
G02*
X14594390Y-10802500I199390J0D01*
G01*
X14195610Y-13460610D02*
X14594390Y-13859390D01*
X14594390Y-13460610D02*
X14195610Y-13859390D01*
X14594390Y-13660000D02*
G75*
G02*
X14195610Y-13660000I-199390J0D01*
G01*
X14195610Y-13660000D02*
G75*
G02*
X14594390Y-13660000I199390J0D01*
G01*
X14195610Y-17270610D02*
X14594390Y-17669390D01*
X14594390Y-17270610D02*
X14195610Y-17669390D01*
X14594390Y-17470000D02*
G75*
G02*
X14195610Y-17470000I-199390J0D01*
G01*
X14195610Y-17470000D02*
G75*
G02*
X14594390Y-17470000I199390J0D01*
G01*
D11*
X7359777Y-20662484D02*
X7359777Y-20462484D01*
X7359777Y-20462484D02*
X7407396Y-20462484D01*
X7407396Y-20462484D02*
X7435967Y-20472008D01*
X7435967Y-20472008D02*
X7455015Y-20491055D01*
X7455015Y-20491055D02*
X7464539Y-20510103D01*
X7464539Y-20510103D02*
X7474062Y-20548198D01*
X7474062Y-20548198D02*
X7474062Y-20576770D01*
X7474062Y-20576770D02*
X7464539Y-20614865D01*
X7464539Y-20614865D02*
X7455015Y-20633912D01*
X7455015Y-20633912D02*
X7435967Y-20652960D01*
X7435967Y-20652960D02*
X7407396Y-20662484D01*
X7407396Y-20662484D02*
X7359777Y-20662484D01*
X7559777Y-20662484D02*
X7559777Y-20529150D01*
X7559777Y-20567246D02*
X7569301Y-20548198D01*
X7569301Y-20548198D02*
X7578824Y-20538674D01*
X7578824Y-20538674D02*
X7597872Y-20529150D01*
X7597872Y-20529150D02*
X7616920Y-20529150D01*
X7683586Y-20662484D02*
X7683586Y-20529150D01*
X7683586Y-20462484D02*
X7674062Y-20472008D01*
X7674062Y-20472008D02*
X7683586Y-20481531D01*
X7683586Y-20481531D02*
X7693110Y-20472008D01*
X7693110Y-20472008D02*
X7683586Y-20462484D01*
X7683586Y-20462484D02*
X7683586Y-20481531D01*
X7807396Y-20662484D02*
X7788348Y-20652960D01*
X7788348Y-20652960D02*
X7778824Y-20633912D01*
X7778824Y-20633912D02*
X7778824Y-20462484D01*
X7912158Y-20662484D02*
X7893110Y-20652960D01*
X7893110Y-20652960D02*
X7883586Y-20633912D01*
X7883586Y-20633912D02*
X7883586Y-20462484D01*
X8140729Y-20662484D02*
X8140729Y-20462484D01*
X8140729Y-20462484D02*
X8207396Y-20605341D01*
X8207396Y-20605341D02*
X8274062Y-20462484D01*
X8274062Y-20462484D02*
X8274062Y-20662484D01*
X8455015Y-20662484D02*
X8455015Y-20557722D01*
X8455015Y-20557722D02*
X8445491Y-20538674D01*
X8445491Y-20538674D02*
X8426444Y-20529150D01*
X8426444Y-20529150D02*
X8388348Y-20529150D01*
X8388348Y-20529150D02*
X8369301Y-20538674D01*
X8455015Y-20652960D02*
X8435967Y-20662484D01*
X8435967Y-20662484D02*
X8388348Y-20662484D01*
X8388348Y-20662484D02*
X8369301Y-20652960D01*
X8369301Y-20652960D02*
X8359777Y-20633912D01*
X8359777Y-20633912D02*
X8359777Y-20614865D01*
X8359777Y-20614865D02*
X8369301Y-20595817D01*
X8369301Y-20595817D02*
X8388348Y-20586293D01*
X8388348Y-20586293D02*
X8435967Y-20586293D01*
X8435967Y-20586293D02*
X8455015Y-20576770D01*
X8550253Y-20529150D02*
X8550253Y-20729150D01*
X8550253Y-20538674D02*
X8569301Y-20529150D01*
X8569301Y-20529150D02*
X8607396Y-20529150D01*
X8607396Y-20529150D02*
X8626444Y-20538674D01*
X8626444Y-20538674D02*
X8635967Y-20548198D01*
X8635967Y-20548198D02*
X8645491Y-20567246D01*
X8645491Y-20567246D02*
X8645491Y-20624389D01*
X8645491Y-20624389D02*
X8635967Y-20643436D01*
X8635967Y-20643436D02*
X8626444Y-20652960D01*
X8626444Y-20652960D02*
X8607396Y-20662484D01*
X8607396Y-20662484D02*
X8569301Y-20662484D01*
X8569301Y-20662484D02*
X8550253Y-20652960D01*
X8731205Y-20643436D02*
X8740729Y-20652960D01*
X8740729Y-20652960D02*
X8731205Y-20662484D01*
X8731205Y-20662484D02*
X8721682Y-20652960D01*
X8721682Y-20652960D02*
X8731205Y-20643436D01*
X8731205Y-20643436D02*
X8731205Y-20662484D01*
X8731205Y-20538674D02*
X8740729Y-20548198D01*
X8740729Y-20548198D02*
X8731205Y-20557722D01*
X8731205Y-20557722D02*
X8721682Y-20548198D01*
X8721682Y-20548198D02*
X8731205Y-20538674D01*
X8731205Y-20538674D02*
X8731205Y-20557722D01*
D12*
X6939000Y-20911000D02*
X7099000Y-21071000D01*
X7099000Y-20911000D02*
X6939000Y-21071000D01*
D11*
X7464539Y-21082484D02*
X7350253Y-21082484D01*
X7407396Y-21082484D02*
X7407396Y-20882484D01*
X7407396Y-20882484D02*
X7388348Y-20911055D01*
X7388348Y-20911055D02*
X7369301Y-20930103D01*
X7369301Y-20930103D02*
X7350253Y-20939627D01*
X7550253Y-21063436D02*
X7559777Y-21072960D01*
X7559777Y-21072960D02*
X7550253Y-21082484D01*
X7550253Y-21082484D02*
X7540729Y-21072960D01*
X7540729Y-21072960D02*
X7550253Y-21063436D01*
X7550253Y-21063436D02*
X7550253Y-21082484D01*
X7731205Y-20882484D02*
X7693110Y-20882484D01*
X7693110Y-20882484D02*
X7674062Y-20892008D01*
X7674062Y-20892008D02*
X7664539Y-20901531D01*
X7664539Y-20901531D02*
X7645491Y-20930103D01*
X7645491Y-20930103D02*
X7635967Y-20968198D01*
X7635967Y-20968198D02*
X7635967Y-21044389D01*
X7635967Y-21044389D02*
X7645491Y-21063436D01*
X7645491Y-21063436D02*
X7655015Y-21072960D01*
X7655015Y-21072960D02*
X7674062Y-21082484D01*
X7674062Y-21082484D02*
X7712158Y-21082484D01*
X7712158Y-21082484D02*
X7731205Y-21072960D01*
X7731205Y-21072960D02*
X7740729Y-21063436D01*
X7740729Y-21063436D02*
X7750253Y-21044389D01*
X7750253Y-21044389D02*
X7750253Y-20996770D01*
X7750253Y-20996770D02*
X7740729Y-20977722D01*
X7740729Y-20977722D02*
X7731205Y-20968198D01*
X7731205Y-20968198D02*
X7712158Y-20958674D01*
X7712158Y-20958674D02*
X7674062Y-20958674D01*
X7674062Y-20958674D02*
X7655015Y-20968198D01*
X7655015Y-20968198D02*
X7645491Y-20977722D01*
X7645491Y-20977722D02*
X7635967Y-20996770D01*
X7874062Y-20882484D02*
X7893110Y-20882484D01*
X7893110Y-20882484D02*
X7912158Y-20892008D01*
X7912158Y-20892008D02*
X7921682Y-20901531D01*
X7921682Y-20901531D02*
X7931205Y-20920579D01*
X7931205Y-20920579D02*
X7940729Y-20958674D01*
X7940729Y-20958674D02*
X7940729Y-21006293D01*
X7940729Y-21006293D02*
X7931205Y-21044389D01*
X7931205Y-21044389D02*
X7921682Y-21063436D01*
X7921682Y-21063436D02*
X7912158Y-21072960D01*
X7912158Y-21072960D02*
X7893110Y-21082484D01*
X7893110Y-21082484D02*
X7874062Y-21082484D01*
X7874062Y-21082484D02*
X7855015Y-21072960D01*
X7855015Y-21072960D02*
X7845491Y-21063436D01*
X7845491Y-21063436D02*
X7835967Y-21044389D01*
X7835967Y-21044389D02*
X7826443Y-21006293D01*
X7826443Y-21006293D02*
X7826443Y-20958674D01*
X7826443Y-20958674D02*
X7835967Y-20920579D01*
X7835967Y-20920579D02*
X7845491Y-20901531D01*
X7845491Y-20901531D02*
X7855015Y-20892008D01*
X7855015Y-20892008D02*
X7874062Y-20882484D01*
X8064539Y-20882484D02*
X8083586Y-20882484D01*
X8083586Y-20882484D02*
X8102634Y-20892008D01*
X8102634Y-20892008D02*
X8112158Y-20901531D01*
X8112158Y-20901531D02*
X8121682Y-20920579D01*
X8121682Y-20920579D02*
X8131205Y-20958674D01*
X8131205Y-20958674D02*
X8131205Y-21006293D01*
X8131205Y-21006293D02*
X8121682Y-21044389D01*
X8121682Y-21044389D02*
X8112158Y-21063436D01*
X8112158Y-21063436D02*
X8102634Y-21072960D01*
X8102634Y-21072960D02*
X8083586Y-21082484D01*
X8083586Y-21082484D02*
X8064539Y-21082484D01*
X8064539Y-21082484D02*
X8045491Y-21072960D01*
X8045491Y-21072960D02*
X8035967Y-21063436D01*
X8035967Y-21063436D02*
X8026443Y-21044389D01*
X8026443Y-21044389D02*
X8016920Y-21006293D01*
X8016920Y-21006293D02*
X8016920Y-20958674D01*
X8016920Y-20958674D02*
X8026443Y-20920579D01*
X8026443Y-20920579D02*
X8035967Y-20901531D01*
X8035967Y-20901531D02*
X8045491Y-20892008D01*
X8045491Y-20892008D02*
X8064539Y-20882484D01*
X8216920Y-21082484D02*
X8216920Y-20949150D01*
X8216920Y-20968198D02*
X8226443Y-20958674D01*
X8226443Y-20958674D02*
X8245491Y-20949150D01*
X8245491Y-20949150D02*
X8274063Y-20949150D01*
X8274063Y-20949150D02*
X8293110Y-20958674D01*
X8293110Y-20958674D02*
X8302634Y-20977722D01*
X8302634Y-20977722D02*
X8302634Y-21082484D01*
X8302634Y-20977722D02*
X8312158Y-20958674D01*
X8312158Y-20958674D02*
X8331205Y-20949150D01*
X8331205Y-20949150D02*
X8359777Y-20949150D01*
X8359777Y-20949150D02*
X8378824Y-20958674D01*
X8378824Y-20958674D02*
X8388348Y-20977722D01*
X8388348Y-20977722D02*
X8388348Y-21082484D01*
X8483586Y-21082484D02*
X8483586Y-20949150D01*
X8483586Y-20968198D02*
X8493110Y-20958674D01*
X8493110Y-20958674D02*
X8512158Y-20949150D01*
X8512158Y-20949150D02*
X8540729Y-20949150D01*
X8540729Y-20949150D02*
X8559777Y-20958674D01*
X8559777Y-20958674D02*
X8569301Y-20977722D01*
X8569301Y-20977722D02*
X8569301Y-21082484D01*
X8569301Y-20977722D02*
X8578825Y-20958674D01*
X8578825Y-20958674D02*
X8597872Y-20949150D01*
X8597872Y-20949150D02*
X8626444Y-20949150D01*
X8626444Y-20949150D02*
X8645491Y-20958674D01*
X8645491Y-20958674D02*
X8655015Y-20977722D01*
X8655015Y-20977722D02*
X8655015Y-21082484D01*
X9045491Y-20872960D02*
X8874063Y-21130103D01*
X9302634Y-20882484D02*
X9321682Y-20882484D01*
X9321682Y-20882484D02*
X9340729Y-20892008D01*
X9340729Y-20892008D02*
X9350253Y-20901531D01*
X9350253Y-20901531D02*
X9359777Y-20920579D01*
X9359777Y-20920579D02*
X9369301Y-20958674D01*
X9369301Y-20958674D02*
X9369301Y-21006293D01*
X9369301Y-21006293D02*
X9359777Y-21044389D01*
X9359777Y-21044389D02*
X9350253Y-21063436D01*
X9350253Y-21063436D02*
X9340729Y-21072960D01*
X9340729Y-21072960D02*
X9321682Y-21082484D01*
X9321682Y-21082484D02*
X9302634Y-21082484D01*
X9302634Y-21082484D02*
X9283587Y-21072960D01*
X9283587Y-21072960D02*
X9274063Y-21063436D01*
X9274063Y-21063436D02*
X9264539Y-21044389D01*
X9264539Y-21044389D02*
X9255015Y-21006293D01*
X9255015Y-21006293D02*
X9255015Y-20958674D01*
X9255015Y-20958674D02*
X9264539Y-20920579D01*
X9264539Y-20920579D02*
X9274063Y-20901531D01*
X9274063Y-20901531D02*
X9283587Y-20892008D01*
X9283587Y-20892008D02*
X9302634Y-20882484D01*
X9455015Y-21063436D02*
X9464539Y-21072960D01*
X9464539Y-21072960D02*
X9455015Y-21082484D01*
X9455015Y-21082484D02*
X9445491Y-21072960D01*
X9445491Y-21072960D02*
X9455015Y-21063436D01*
X9455015Y-21063436D02*
X9455015Y-21082484D01*
X9588348Y-20882484D02*
X9607396Y-20882484D01*
X9607396Y-20882484D02*
X9626444Y-20892008D01*
X9626444Y-20892008D02*
X9635968Y-20901531D01*
X9635968Y-20901531D02*
X9645491Y-20920579D01*
X9645491Y-20920579D02*
X9655015Y-20958674D01*
X9655015Y-20958674D02*
X9655015Y-21006293D01*
X9655015Y-21006293D02*
X9645491Y-21044389D01*
X9645491Y-21044389D02*
X9635968Y-21063436D01*
X9635968Y-21063436D02*
X9626444Y-21072960D01*
X9626444Y-21072960D02*
X9607396Y-21082484D01*
X9607396Y-21082484D02*
X9588348Y-21082484D01*
X9588348Y-21082484D02*
X9569301Y-21072960D01*
X9569301Y-21072960D02*
X9559777Y-21063436D01*
X9559777Y-21063436D02*
X9550253Y-21044389D01*
X9550253Y-21044389D02*
X9540729Y-21006293D01*
X9540729Y-21006293D02*
X9540729Y-20958674D01*
X9540729Y-20958674D02*
X9550253Y-20920579D01*
X9550253Y-20920579D02*
X9559777Y-20901531D01*
X9559777Y-20901531D02*
X9569301Y-20892008D01*
X9569301Y-20892008D02*
X9588348Y-20882484D01*
X9826444Y-20882484D02*
X9788348Y-20882484D01*
X9788348Y-20882484D02*
X9769301Y-20892008D01*
X9769301Y-20892008D02*
X9759777Y-20901531D01*
X9759777Y-20901531D02*
X9740729Y-20930103D01*
X9740729Y-20930103D02*
X9731206Y-20968198D01*
X9731206Y-20968198D02*
X9731206Y-21044389D01*
X9731206Y-21044389D02*
X9740729Y-21063436D01*
X9740729Y-21063436D02*
X9750253Y-21072960D01*
X9750253Y-21072960D02*
X9769301Y-21082484D01*
X9769301Y-21082484D02*
X9807396Y-21082484D01*
X9807396Y-21082484D02*
X9826444Y-21072960D01*
X9826444Y-21072960D02*
X9835968Y-21063436D01*
X9835968Y-21063436D02*
X9845491Y-21044389D01*
X9845491Y-21044389D02*
X9845491Y-20996770D01*
X9845491Y-20996770D02*
X9835968Y-20977722D01*
X9835968Y-20977722D02*
X9826444Y-20968198D01*
X9826444Y-20968198D02*
X9807396Y-20958674D01*
X9807396Y-20958674D02*
X9769301Y-20958674D01*
X9769301Y-20958674D02*
X9750253Y-20968198D01*
X9750253Y-20968198D02*
X9740729Y-20977722D01*
X9740729Y-20977722D02*
X9731206Y-20996770D01*
X9912158Y-20882484D02*
X10035968Y-20882484D01*
X10035968Y-20882484D02*
X9969301Y-20958674D01*
X9969301Y-20958674D02*
X9997872Y-20958674D01*
X9997872Y-20958674D02*
X10016920Y-20968198D01*
X10016920Y-20968198D02*
X10026444Y-20977722D01*
X10026444Y-20977722D02*
X10035968Y-20996770D01*
X10035968Y-20996770D02*
X10035968Y-21044389D01*
X10035968Y-21044389D02*
X10026444Y-21063436D01*
X10026444Y-21063436D02*
X10016920Y-21072960D01*
X10016920Y-21072960D02*
X9997872Y-21082484D01*
X9997872Y-21082484D02*
X9940729Y-21082484D01*
X9940729Y-21082484D02*
X9921682Y-21072960D01*
X9921682Y-21072960D02*
X9912158Y-21063436D01*
X10159777Y-20882484D02*
X10178825Y-20882484D01*
X10178825Y-20882484D02*
X10197872Y-20892008D01*
X10197872Y-20892008D02*
X10207396Y-20901531D01*
X10207396Y-20901531D02*
X10216920Y-20920579D01*
X10216920Y-20920579D02*
X10226444Y-20958674D01*
X10226444Y-20958674D02*
X10226444Y-21006293D01*
X10226444Y-21006293D02*
X10216920Y-21044389D01*
X10216920Y-21044389D02*
X10207396Y-21063436D01*
X10207396Y-21063436D02*
X10197872Y-21072960D01*
X10197872Y-21072960D02*
X10178825Y-21082484D01*
X10178825Y-21082484D02*
X10159777Y-21082484D01*
X10159777Y-21082484D02*
X10140729Y-21072960D01*
X10140729Y-21072960D02*
X10131206Y-21063436D01*
X10131206Y-21063436D02*
X10121682Y-21044389D01*
X10121682Y-21044389D02*
X10112158Y-21006293D01*
X10112158Y-21006293D02*
X10112158Y-20958674D01*
X10112158Y-20958674D02*
X10121682Y-20920579D01*
X10121682Y-20920579D02*
X10131206Y-20901531D01*
X10131206Y-20901531D02*
X10140729Y-20892008D01*
X10140729Y-20892008D02*
X10159777Y-20882484D01*
X10302634Y-20882484D02*
X10302634Y-20920579D01*
X10378825Y-20882484D02*
X10378825Y-20920579D01*
X10674063Y-21158674D02*
X10664539Y-21149150D01*
X10664539Y-21149150D02*
X10645491Y-21120579D01*
X10645491Y-21120579D02*
X10635968Y-21101531D01*
X10635968Y-21101531D02*
X10626444Y-21072960D01*
X10626444Y-21072960D02*
X10616920Y-21025341D01*
X10616920Y-21025341D02*
X10616920Y-20987246D01*
X10616920Y-20987246D02*
X10626444Y-20939627D01*
X10626444Y-20939627D02*
X10635968Y-20911055D01*
X10635968Y-20911055D02*
X10645491Y-20892008D01*
X10645491Y-20892008D02*
X10664539Y-20863436D01*
X10664539Y-20863436D02*
X10674063Y-20853912D01*
X10740730Y-20901531D02*
X10750253Y-20892008D01*
X10750253Y-20892008D02*
X10769301Y-20882484D01*
X10769301Y-20882484D02*
X10816920Y-20882484D01*
X10816920Y-20882484D02*
X10835968Y-20892008D01*
X10835968Y-20892008D02*
X10845491Y-20901531D01*
X10845491Y-20901531D02*
X10855015Y-20920579D01*
X10855015Y-20920579D02*
X10855015Y-20939627D01*
X10855015Y-20939627D02*
X10845491Y-20968198D01*
X10845491Y-20968198D02*
X10731206Y-21082484D01*
X10731206Y-21082484D02*
X10855015Y-21082484D01*
X11093111Y-21082484D02*
X11093111Y-20882484D01*
X11178825Y-21082484D02*
X11178825Y-20977722D01*
X11178825Y-20977722D02*
X11169301Y-20958674D01*
X11169301Y-20958674D02*
X11150253Y-20949150D01*
X11150253Y-20949150D02*
X11121682Y-20949150D01*
X11121682Y-20949150D02*
X11102634Y-20958674D01*
X11102634Y-20958674D02*
X11093111Y-20968198D01*
X11302634Y-21082484D02*
X11283587Y-21072960D01*
X11283587Y-21072960D02*
X11274063Y-21063436D01*
X11274063Y-21063436D02*
X11264539Y-21044389D01*
X11264539Y-21044389D02*
X11264539Y-20987246D01*
X11264539Y-20987246D02*
X11274063Y-20968198D01*
X11274063Y-20968198D02*
X11283587Y-20958674D01*
X11283587Y-20958674D02*
X11302634Y-20949150D01*
X11302634Y-20949150D02*
X11331206Y-20949150D01*
X11331206Y-20949150D02*
X11350253Y-20958674D01*
X11350253Y-20958674D02*
X11359777Y-20968198D01*
X11359777Y-20968198D02*
X11369301Y-20987246D01*
X11369301Y-20987246D02*
X11369301Y-21044389D01*
X11369301Y-21044389D02*
X11359777Y-21063436D01*
X11359777Y-21063436D02*
X11350253Y-21072960D01*
X11350253Y-21072960D02*
X11331206Y-21082484D01*
X11331206Y-21082484D02*
X11302634Y-21082484D01*
X11483587Y-21082484D02*
X11464539Y-21072960D01*
X11464539Y-21072960D02*
X11455015Y-21053912D01*
X11455015Y-21053912D02*
X11455015Y-20882484D01*
X11635968Y-21072960D02*
X11616920Y-21082484D01*
X11616920Y-21082484D02*
X11578825Y-21082484D01*
X11578825Y-21082484D02*
X11559777Y-21072960D01*
X11559777Y-21072960D02*
X11550253Y-21053912D01*
X11550253Y-21053912D02*
X11550253Y-20977722D01*
X11550253Y-20977722D02*
X11559777Y-20958674D01*
X11559777Y-20958674D02*
X11578825Y-20949150D01*
X11578825Y-20949150D02*
X11616920Y-20949150D01*
X11616920Y-20949150D02*
X11635968Y-20958674D01*
X11635968Y-20958674D02*
X11645491Y-20977722D01*
X11645491Y-20977722D02*
X11645491Y-20996770D01*
X11645491Y-20996770D02*
X11550253Y-21015817D01*
X11721682Y-21072960D02*
X11740730Y-21082484D01*
X11740730Y-21082484D02*
X11778825Y-21082484D01*
X11778825Y-21082484D02*
X11797872Y-21072960D01*
X11797872Y-21072960D02*
X11807396Y-21053912D01*
X11807396Y-21053912D02*
X11807396Y-21044389D01*
X11807396Y-21044389D02*
X11797872Y-21025341D01*
X11797872Y-21025341D02*
X11778825Y-21015817D01*
X11778825Y-21015817D02*
X11750253Y-21015817D01*
X11750253Y-21015817D02*
X11731206Y-21006293D01*
X11731206Y-21006293D02*
X11721682Y-20987246D01*
X11721682Y-20987246D02*
X11721682Y-20977722D01*
X11721682Y-20977722D02*
X11731206Y-20958674D01*
X11731206Y-20958674D02*
X11750253Y-20949150D01*
X11750253Y-20949150D02*
X11778825Y-20949150D01*
X11778825Y-20949150D02*
X11797872Y-20958674D01*
X11874063Y-21158674D02*
X11883587Y-21149150D01*
X11883587Y-21149150D02*
X11902634Y-21120579D01*
X11902634Y-21120579D02*
X11912158Y-21101531D01*
X11912158Y-21101531D02*
X11921682Y-21072960D01*
X11921682Y-21072960D02*
X11931206Y-21025341D01*
X11931206Y-21025341D02*
X11931206Y-20987246D01*
X11931206Y-20987246D02*
X11921682Y-20939627D01*
X11921682Y-20939627D02*
X11912158Y-20911055D01*
X11912158Y-20911055D02*
X11902634Y-20892008D01*
X11902634Y-20892008D02*
X11883587Y-20863436D01*
X11883587Y-20863436D02*
X11874063Y-20853912D01*
X12235968Y-21158674D02*
X12226444Y-21149150D01*
X12226444Y-21149150D02*
X12207396Y-21120579D01*
X12207396Y-21120579D02*
X12197872Y-21101531D01*
X12197872Y-21101531D02*
X12188349Y-21072960D01*
X12188349Y-21072960D02*
X12178825Y-21025341D01*
X12178825Y-21025341D02*
X12178825Y-20987246D01*
X12178825Y-20987246D02*
X12188349Y-20939627D01*
X12188349Y-20939627D02*
X12197872Y-20911055D01*
X12197872Y-20911055D02*
X12207396Y-20892008D01*
X12207396Y-20892008D02*
X12226444Y-20863436D01*
X12226444Y-20863436D02*
X12235968Y-20853912D01*
X12312158Y-20949150D02*
X12312158Y-21082484D01*
X12312158Y-20968198D02*
X12321682Y-20958674D01*
X12321682Y-20958674D02*
X12340730Y-20949150D01*
X12340730Y-20949150D02*
X12369301Y-20949150D01*
X12369301Y-20949150D02*
X12388349Y-20958674D01*
X12388349Y-20958674D02*
X12397872Y-20977722D01*
X12397872Y-20977722D02*
X12397872Y-21082484D01*
X12521682Y-21082484D02*
X12502634Y-21072960D01*
X12502634Y-21072960D02*
X12493111Y-21063436D01*
X12493111Y-21063436D02*
X12483587Y-21044389D01*
X12483587Y-21044389D02*
X12483587Y-20987246D01*
X12483587Y-20987246D02*
X12493111Y-20968198D01*
X12493111Y-20968198D02*
X12502634Y-20958674D01*
X12502634Y-20958674D02*
X12521682Y-20949150D01*
X12521682Y-20949150D02*
X12550253Y-20949150D01*
X12550253Y-20949150D02*
X12569301Y-20958674D01*
X12569301Y-20958674D02*
X12578825Y-20968198D01*
X12578825Y-20968198D02*
X12588349Y-20987246D01*
X12588349Y-20987246D02*
X12588349Y-21044389D01*
X12588349Y-21044389D02*
X12578825Y-21063436D01*
X12578825Y-21063436D02*
X12569301Y-21072960D01*
X12569301Y-21072960D02*
X12550253Y-21082484D01*
X12550253Y-21082484D02*
X12521682Y-21082484D01*
X12645492Y-20949150D02*
X12721682Y-20949150D01*
X12674063Y-20882484D02*
X12674063Y-21053912D01*
X12674063Y-21053912D02*
X12683587Y-21072960D01*
X12683587Y-21072960D02*
X12702634Y-21082484D01*
X12702634Y-21082484D02*
X12721682Y-21082484D01*
X12940730Y-20949150D02*
X12940730Y-21149150D01*
X12940730Y-20958674D02*
X12959777Y-20949150D01*
X12959777Y-20949150D02*
X12997873Y-20949150D01*
X12997873Y-20949150D02*
X13016920Y-20958674D01*
X13016920Y-20958674D02*
X13026444Y-20968198D01*
X13026444Y-20968198D02*
X13035968Y-20987246D01*
X13035968Y-20987246D02*
X13035968Y-21044389D01*
X13035968Y-21044389D02*
X13026444Y-21063436D01*
X13026444Y-21063436D02*
X13016920Y-21072960D01*
X13016920Y-21072960D02*
X12997873Y-21082484D01*
X12997873Y-21082484D02*
X12959777Y-21082484D01*
X12959777Y-21082484D02*
X12940730Y-21072960D01*
X13150253Y-21082484D02*
X13131206Y-21072960D01*
X13131206Y-21072960D02*
X13121682Y-21053912D01*
X13121682Y-21053912D02*
X13121682Y-20882484D01*
X13312158Y-21082484D02*
X13312158Y-20977722D01*
X13312158Y-20977722D02*
X13302634Y-20958674D01*
X13302634Y-20958674D02*
X13283587Y-20949150D01*
X13283587Y-20949150D02*
X13245492Y-20949150D01*
X13245492Y-20949150D02*
X13226444Y-20958674D01*
X13312158Y-21072960D02*
X13293111Y-21082484D01*
X13293111Y-21082484D02*
X13245492Y-21082484D01*
X13245492Y-21082484D02*
X13226444Y-21072960D01*
X13226444Y-21072960D02*
X13216920Y-21053912D01*
X13216920Y-21053912D02*
X13216920Y-21034865D01*
X13216920Y-21034865D02*
X13226444Y-21015817D01*
X13226444Y-21015817D02*
X13245492Y-21006293D01*
X13245492Y-21006293D02*
X13293111Y-21006293D01*
X13293111Y-21006293D02*
X13312158Y-20996770D01*
X13378825Y-20949150D02*
X13455015Y-20949150D01*
X13407396Y-20882484D02*
X13407396Y-21053912D01*
X13407396Y-21053912D02*
X13416920Y-21072960D01*
X13416920Y-21072960D02*
X13435968Y-21082484D01*
X13435968Y-21082484D02*
X13455015Y-21082484D01*
X13597873Y-21072960D02*
X13578825Y-21082484D01*
X13578825Y-21082484D02*
X13540730Y-21082484D01*
X13540730Y-21082484D02*
X13521682Y-21072960D01*
X13521682Y-21072960D02*
X13512158Y-21053912D01*
X13512158Y-21053912D02*
X13512158Y-20977722D01*
X13512158Y-20977722D02*
X13521682Y-20958674D01*
X13521682Y-20958674D02*
X13540730Y-20949150D01*
X13540730Y-20949150D02*
X13578825Y-20949150D01*
X13578825Y-20949150D02*
X13597873Y-20958674D01*
X13597873Y-20958674D02*
X13607396Y-20977722D01*
X13607396Y-20977722D02*
X13607396Y-20996770D01*
X13607396Y-20996770D02*
X13512158Y-21015817D01*
X13778825Y-21082484D02*
X13778825Y-20882484D01*
X13778825Y-21072960D02*
X13759777Y-21082484D01*
X13759777Y-21082484D02*
X13721682Y-21082484D01*
X13721682Y-21082484D02*
X13702634Y-21072960D01*
X13702634Y-21072960D02*
X13693111Y-21063436D01*
X13693111Y-21063436D02*
X13683587Y-21044389D01*
X13683587Y-21044389D02*
X13683587Y-20987246D01*
X13683587Y-20987246D02*
X13693111Y-20968198D01*
X13693111Y-20968198D02*
X13702634Y-20958674D01*
X13702634Y-20958674D02*
X13721682Y-20949150D01*
X13721682Y-20949150D02*
X13759777Y-20949150D01*
X13759777Y-20949150D02*
X13778825Y-20958674D01*
X13855015Y-21158674D02*
X13864539Y-21149150D01*
X13864539Y-21149150D02*
X13883587Y-21120579D01*
X13883587Y-21120579D02*
X13893111Y-21101531D01*
X13893111Y-21101531D02*
X13902634Y-21072960D01*
X13902634Y-21072960D02*
X13912158Y-21025341D01*
X13912158Y-21025341D02*
X13912158Y-20987246D01*
X13912158Y-20987246D02*
X13902634Y-20939627D01*
X13902634Y-20939627D02*
X13893111Y-20911055D01*
X13893111Y-20911055D02*
X13883587Y-20892008D01*
X13883587Y-20892008D02*
X13864539Y-20863436D01*
X13864539Y-20863436D02*
X13855015Y-20853912D01*
D13*
X7099000Y-21271000D02*
G75*
G02*
X6928820Y-21271000I-85090J0D01*
G01*
X6928820Y-21271000D02*
G75*
G02*
X7099000Y-21271000I85090J0D01*
G01*
D11*
X7464539Y-21362484D02*
X7350253Y-21362484D01*
X7407396Y-21362484D02*
X7407396Y-21162484D01*
X7407396Y-21162484D02*
X7388348Y-21191055D01*
X7388348Y-21191055D02*
X7369301Y-21210103D01*
X7369301Y-21210103D02*
X7350253Y-21219627D01*
X7550253Y-21343436D02*
X7559777Y-21352960D01*
X7559777Y-21352960D02*
X7550253Y-21362484D01*
X7550253Y-21362484D02*
X7540729Y-21352960D01*
X7540729Y-21352960D02*
X7550253Y-21343436D01*
X7550253Y-21343436D02*
X7550253Y-21362484D01*
X7626443Y-21162484D02*
X7759777Y-21162484D01*
X7759777Y-21162484D02*
X7674062Y-21362484D01*
X7874062Y-21162484D02*
X7893110Y-21162484D01*
X7893110Y-21162484D02*
X7912158Y-21172008D01*
X7912158Y-21172008D02*
X7921682Y-21181531D01*
X7921682Y-21181531D02*
X7931205Y-21200579D01*
X7931205Y-21200579D02*
X7940729Y-21238674D01*
X7940729Y-21238674D02*
X7940729Y-21286293D01*
X7940729Y-21286293D02*
X7931205Y-21324389D01*
X7931205Y-21324389D02*
X7921682Y-21343436D01*
X7921682Y-21343436D02*
X7912158Y-21352960D01*
X7912158Y-21352960D02*
X7893110Y-21362484D01*
X7893110Y-21362484D02*
X7874062Y-21362484D01*
X7874062Y-21362484D02*
X7855015Y-21352960D01*
X7855015Y-21352960D02*
X7845491Y-21343436D01*
X7845491Y-21343436D02*
X7835967Y-21324389D01*
X7835967Y-21324389D02*
X7826443Y-21286293D01*
X7826443Y-21286293D02*
X7826443Y-21238674D01*
X7826443Y-21238674D02*
X7835967Y-21200579D01*
X7835967Y-21200579D02*
X7845491Y-21181531D01*
X7845491Y-21181531D02*
X7855015Y-21172008D01*
X7855015Y-21172008D02*
X7874062Y-21162484D01*
X8016920Y-21181531D02*
X8026443Y-21172008D01*
X8026443Y-21172008D02*
X8045491Y-21162484D01*
X8045491Y-21162484D02*
X8093110Y-21162484D01*
X8093110Y-21162484D02*
X8112158Y-21172008D01*
X8112158Y-21172008D02*
X8121682Y-21181531D01*
X8121682Y-21181531D02*
X8131205Y-21200579D01*
X8131205Y-21200579D02*
X8131205Y-21219627D01*
X8131205Y-21219627D02*
X8121682Y-21248198D01*
X8121682Y-21248198D02*
X8007396Y-21362484D01*
X8007396Y-21362484D02*
X8131205Y-21362484D01*
X8216920Y-21362484D02*
X8216920Y-21229150D01*
X8216920Y-21248198D02*
X8226443Y-21238674D01*
X8226443Y-21238674D02*
X8245491Y-21229150D01*
X8245491Y-21229150D02*
X8274063Y-21229150D01*
X8274063Y-21229150D02*
X8293110Y-21238674D01*
X8293110Y-21238674D02*
X8302634Y-21257722D01*
X8302634Y-21257722D02*
X8302634Y-21362484D01*
X8302634Y-21257722D02*
X8312158Y-21238674D01*
X8312158Y-21238674D02*
X8331205Y-21229150D01*
X8331205Y-21229150D02*
X8359777Y-21229150D01*
X8359777Y-21229150D02*
X8378824Y-21238674D01*
X8378824Y-21238674D02*
X8388348Y-21257722D01*
X8388348Y-21257722D02*
X8388348Y-21362484D01*
X8483586Y-21362484D02*
X8483586Y-21229150D01*
X8483586Y-21248198D02*
X8493110Y-21238674D01*
X8493110Y-21238674D02*
X8512158Y-21229150D01*
X8512158Y-21229150D02*
X8540729Y-21229150D01*
X8540729Y-21229150D02*
X8559777Y-21238674D01*
X8559777Y-21238674D02*
X8569301Y-21257722D01*
X8569301Y-21257722D02*
X8569301Y-21362484D01*
X8569301Y-21257722D02*
X8578825Y-21238674D01*
X8578825Y-21238674D02*
X8597872Y-21229150D01*
X8597872Y-21229150D02*
X8626444Y-21229150D01*
X8626444Y-21229150D02*
X8645491Y-21238674D01*
X8645491Y-21238674D02*
X8655015Y-21257722D01*
X8655015Y-21257722D02*
X8655015Y-21362484D01*
X9045491Y-21152960D02*
X8874063Y-21410103D01*
X9302634Y-21162484D02*
X9321682Y-21162484D01*
X9321682Y-21162484D02*
X9340729Y-21172008D01*
X9340729Y-21172008D02*
X9350253Y-21181531D01*
X9350253Y-21181531D02*
X9359777Y-21200579D01*
X9359777Y-21200579D02*
X9369301Y-21238674D01*
X9369301Y-21238674D02*
X9369301Y-21286293D01*
X9369301Y-21286293D02*
X9359777Y-21324389D01*
X9359777Y-21324389D02*
X9350253Y-21343436D01*
X9350253Y-21343436D02*
X9340729Y-21352960D01*
X9340729Y-21352960D02*
X9321682Y-21362484D01*
X9321682Y-21362484D02*
X9302634Y-21362484D01*
X9302634Y-21362484D02*
X9283587Y-21352960D01*
X9283587Y-21352960D02*
X9274063Y-21343436D01*
X9274063Y-21343436D02*
X9264539Y-21324389D01*
X9264539Y-21324389D02*
X9255015Y-21286293D01*
X9255015Y-21286293D02*
X9255015Y-21238674D01*
X9255015Y-21238674D02*
X9264539Y-21200579D01*
X9264539Y-21200579D02*
X9274063Y-21181531D01*
X9274063Y-21181531D02*
X9283587Y-21172008D01*
X9283587Y-21172008D02*
X9302634Y-21162484D01*
X9455015Y-21343436D02*
X9464539Y-21352960D01*
X9464539Y-21352960D02*
X9455015Y-21362484D01*
X9455015Y-21362484D02*
X9445491Y-21352960D01*
X9445491Y-21352960D02*
X9455015Y-21343436D01*
X9455015Y-21343436D02*
X9455015Y-21362484D01*
X9588348Y-21162484D02*
X9607396Y-21162484D01*
X9607396Y-21162484D02*
X9626444Y-21172008D01*
X9626444Y-21172008D02*
X9635968Y-21181531D01*
X9635968Y-21181531D02*
X9645491Y-21200579D01*
X9645491Y-21200579D02*
X9655015Y-21238674D01*
X9655015Y-21238674D02*
X9655015Y-21286293D01*
X9655015Y-21286293D02*
X9645491Y-21324389D01*
X9645491Y-21324389D02*
X9635968Y-21343436D01*
X9635968Y-21343436D02*
X9626444Y-21352960D01*
X9626444Y-21352960D02*
X9607396Y-21362484D01*
X9607396Y-21362484D02*
X9588348Y-21362484D01*
X9588348Y-21362484D02*
X9569301Y-21352960D01*
X9569301Y-21352960D02*
X9559777Y-21343436D01*
X9559777Y-21343436D02*
X9550253Y-21324389D01*
X9550253Y-21324389D02*
X9540729Y-21286293D01*
X9540729Y-21286293D02*
X9540729Y-21238674D01*
X9540729Y-21238674D02*
X9550253Y-21200579D01*
X9550253Y-21200579D02*
X9559777Y-21181531D01*
X9559777Y-21181531D02*
X9569301Y-21172008D01*
X9569301Y-21172008D02*
X9588348Y-21162484D01*
X9826444Y-21162484D02*
X9788348Y-21162484D01*
X9788348Y-21162484D02*
X9769301Y-21172008D01*
X9769301Y-21172008D02*
X9759777Y-21181531D01*
X9759777Y-21181531D02*
X9740729Y-21210103D01*
X9740729Y-21210103D02*
X9731206Y-21248198D01*
X9731206Y-21248198D02*
X9731206Y-21324389D01*
X9731206Y-21324389D02*
X9740729Y-21343436D01*
X9740729Y-21343436D02*
X9750253Y-21352960D01*
X9750253Y-21352960D02*
X9769301Y-21362484D01*
X9769301Y-21362484D02*
X9807396Y-21362484D01*
X9807396Y-21362484D02*
X9826444Y-21352960D01*
X9826444Y-21352960D02*
X9835968Y-21343436D01*
X9835968Y-21343436D02*
X9845491Y-21324389D01*
X9845491Y-21324389D02*
X9845491Y-21276770D01*
X9845491Y-21276770D02*
X9835968Y-21257722D01*
X9835968Y-21257722D02*
X9826444Y-21248198D01*
X9826444Y-21248198D02*
X9807396Y-21238674D01*
X9807396Y-21238674D02*
X9769301Y-21238674D01*
X9769301Y-21238674D02*
X9750253Y-21248198D01*
X9750253Y-21248198D02*
X9740729Y-21257722D01*
X9740729Y-21257722D02*
X9731206Y-21276770D01*
X9912158Y-21162484D02*
X10045491Y-21162484D01*
X10045491Y-21162484D02*
X9959777Y-21362484D01*
X10159777Y-21162484D02*
X10178825Y-21162484D01*
X10178825Y-21162484D02*
X10197872Y-21172008D01*
X10197872Y-21172008D02*
X10207396Y-21181531D01*
X10207396Y-21181531D02*
X10216920Y-21200579D01*
X10216920Y-21200579D02*
X10226444Y-21238674D01*
X10226444Y-21238674D02*
X10226444Y-21286293D01*
X10226444Y-21286293D02*
X10216920Y-21324389D01*
X10216920Y-21324389D02*
X10207396Y-21343436D01*
X10207396Y-21343436D02*
X10197872Y-21352960D01*
X10197872Y-21352960D02*
X10178825Y-21362484D01*
X10178825Y-21362484D02*
X10159777Y-21362484D01*
X10159777Y-21362484D02*
X10140729Y-21352960D01*
X10140729Y-21352960D02*
X10131206Y-21343436D01*
X10131206Y-21343436D02*
X10121682Y-21324389D01*
X10121682Y-21324389D02*
X10112158Y-21286293D01*
X10112158Y-21286293D02*
X10112158Y-21238674D01*
X10112158Y-21238674D02*
X10121682Y-21200579D01*
X10121682Y-21200579D02*
X10131206Y-21181531D01*
X10131206Y-21181531D02*
X10140729Y-21172008D01*
X10140729Y-21172008D02*
X10159777Y-21162484D01*
X10302634Y-21162484D02*
X10302634Y-21200579D01*
X10378825Y-21162484D02*
X10378825Y-21200579D01*
X10674063Y-21438674D02*
X10664539Y-21429150D01*
X10664539Y-21429150D02*
X10645491Y-21400579D01*
X10645491Y-21400579D02*
X10635968Y-21381531D01*
X10635968Y-21381531D02*
X10626444Y-21352960D01*
X10626444Y-21352960D02*
X10616920Y-21305341D01*
X10616920Y-21305341D02*
X10616920Y-21267246D01*
X10616920Y-21267246D02*
X10626444Y-21219627D01*
X10626444Y-21219627D02*
X10635968Y-21191055D01*
X10635968Y-21191055D02*
X10645491Y-21172008D01*
X10645491Y-21172008D02*
X10664539Y-21143436D01*
X10664539Y-21143436D02*
X10674063Y-21133912D01*
X10731206Y-21162484D02*
X10855015Y-21162484D01*
X10855015Y-21162484D02*
X10788349Y-21238674D01*
X10788349Y-21238674D02*
X10816920Y-21238674D01*
X10816920Y-21238674D02*
X10835968Y-21248198D01*
X10835968Y-21248198D02*
X10845491Y-21257722D01*
X10845491Y-21257722D02*
X10855015Y-21276770D01*
X10855015Y-21276770D02*
X10855015Y-21324389D01*
X10855015Y-21324389D02*
X10845491Y-21343436D01*
X10845491Y-21343436D02*
X10835968Y-21352960D01*
X10835968Y-21352960D02*
X10816920Y-21362484D01*
X10816920Y-21362484D02*
X10759777Y-21362484D01*
X10759777Y-21362484D02*
X10740730Y-21352960D01*
X10740730Y-21352960D02*
X10731206Y-21343436D01*
X11026444Y-21162484D02*
X10988349Y-21162484D01*
X10988349Y-21162484D02*
X10969301Y-21172008D01*
X10969301Y-21172008D02*
X10959777Y-21181531D01*
X10959777Y-21181531D02*
X10940730Y-21210103D01*
X10940730Y-21210103D02*
X10931206Y-21248198D01*
X10931206Y-21248198D02*
X10931206Y-21324389D01*
X10931206Y-21324389D02*
X10940730Y-21343436D01*
X10940730Y-21343436D02*
X10950253Y-21352960D01*
X10950253Y-21352960D02*
X10969301Y-21362484D01*
X10969301Y-21362484D02*
X11007396Y-21362484D01*
X11007396Y-21362484D02*
X11026444Y-21352960D01*
X11026444Y-21352960D02*
X11035968Y-21343436D01*
X11035968Y-21343436D02*
X11045491Y-21324389D01*
X11045491Y-21324389D02*
X11045491Y-21276770D01*
X11045491Y-21276770D02*
X11035968Y-21257722D01*
X11035968Y-21257722D02*
X11026444Y-21248198D01*
X11026444Y-21248198D02*
X11007396Y-21238674D01*
X11007396Y-21238674D02*
X10969301Y-21238674D01*
X10969301Y-21238674D02*
X10950253Y-21248198D01*
X10950253Y-21248198D02*
X10940730Y-21257722D01*
X10940730Y-21257722D02*
X10931206Y-21276770D01*
X11283587Y-21362484D02*
X11283587Y-21162484D01*
X11369301Y-21362484D02*
X11369301Y-21257722D01*
X11369301Y-21257722D02*
X11359777Y-21238674D01*
X11359777Y-21238674D02*
X11340730Y-21229150D01*
X11340730Y-21229150D02*
X11312158Y-21229150D01*
X11312158Y-21229150D02*
X11293110Y-21238674D01*
X11293110Y-21238674D02*
X11283587Y-21248198D01*
X11493110Y-21362484D02*
X11474063Y-21352960D01*
X11474063Y-21352960D02*
X11464539Y-21343436D01*
X11464539Y-21343436D02*
X11455015Y-21324389D01*
X11455015Y-21324389D02*
X11455015Y-21267246D01*
X11455015Y-21267246D02*
X11464539Y-21248198D01*
X11464539Y-21248198D02*
X11474063Y-21238674D01*
X11474063Y-21238674D02*
X11493110Y-21229150D01*
X11493110Y-21229150D02*
X11521682Y-21229150D01*
X11521682Y-21229150D02*
X11540730Y-21238674D01*
X11540730Y-21238674D02*
X11550253Y-21248198D01*
X11550253Y-21248198D02*
X11559777Y-21267246D01*
X11559777Y-21267246D02*
X11559777Y-21324389D01*
X11559777Y-21324389D02*
X11550253Y-21343436D01*
X11550253Y-21343436D02*
X11540730Y-21352960D01*
X11540730Y-21352960D02*
X11521682Y-21362484D01*
X11521682Y-21362484D02*
X11493110Y-21362484D01*
X11674063Y-21362484D02*
X11655015Y-21352960D01*
X11655015Y-21352960D02*
X11645491Y-21333912D01*
X11645491Y-21333912D02*
X11645491Y-21162484D01*
X11826444Y-21352960D02*
X11807396Y-21362484D01*
X11807396Y-21362484D02*
X11769301Y-21362484D01*
X11769301Y-21362484D02*
X11750253Y-21352960D01*
X11750253Y-21352960D02*
X11740730Y-21333912D01*
X11740730Y-21333912D02*
X11740730Y-21257722D01*
X11740730Y-21257722D02*
X11750253Y-21238674D01*
X11750253Y-21238674D02*
X11769301Y-21229150D01*
X11769301Y-21229150D02*
X11807396Y-21229150D01*
X11807396Y-21229150D02*
X11826444Y-21238674D01*
X11826444Y-21238674D02*
X11835968Y-21257722D01*
X11835968Y-21257722D02*
X11835968Y-21276770D01*
X11835968Y-21276770D02*
X11740730Y-21295817D01*
X11912158Y-21352960D02*
X11931206Y-21362484D01*
X11931206Y-21362484D02*
X11969301Y-21362484D01*
X11969301Y-21362484D02*
X11988349Y-21352960D01*
X11988349Y-21352960D02*
X11997872Y-21333912D01*
X11997872Y-21333912D02*
X11997872Y-21324389D01*
X11997872Y-21324389D02*
X11988349Y-21305341D01*
X11988349Y-21305341D02*
X11969301Y-21295817D01*
X11969301Y-21295817D02*
X11940730Y-21295817D01*
X11940730Y-21295817D02*
X11921682Y-21286293D01*
X11921682Y-21286293D02*
X11912158Y-21267246D01*
X11912158Y-21267246D02*
X11912158Y-21257722D01*
X11912158Y-21257722D02*
X11921682Y-21238674D01*
X11921682Y-21238674D02*
X11940730Y-21229150D01*
X11940730Y-21229150D02*
X11969301Y-21229150D01*
X11969301Y-21229150D02*
X11988349Y-21238674D01*
X12064539Y-21438674D02*
X12074063Y-21429150D01*
X12074063Y-21429150D02*
X12093111Y-21400579D01*
X12093111Y-21400579D02*
X12102634Y-21381531D01*
X12102634Y-21381531D02*
X12112158Y-21352960D01*
X12112158Y-21352960D02*
X12121682Y-21305341D01*
X12121682Y-21305341D02*
X12121682Y-21267246D01*
X12121682Y-21267246D02*
X12112158Y-21219627D01*
X12112158Y-21219627D02*
X12102634Y-21191055D01*
X12102634Y-21191055D02*
X12093111Y-21172008D01*
X12093111Y-21172008D02*
X12074063Y-21143436D01*
X12074063Y-21143436D02*
X12064539Y-21133912D01*
X12426444Y-21438674D02*
X12416920Y-21429150D01*
X12416920Y-21429150D02*
X12397872Y-21400579D01*
X12397872Y-21400579D02*
X12388349Y-21381531D01*
X12388349Y-21381531D02*
X12378825Y-21352960D01*
X12378825Y-21352960D02*
X12369301Y-21305341D01*
X12369301Y-21305341D02*
X12369301Y-21267246D01*
X12369301Y-21267246D02*
X12378825Y-21219627D01*
X12378825Y-21219627D02*
X12388349Y-21191055D01*
X12388349Y-21191055D02*
X12397872Y-21172008D01*
X12397872Y-21172008D02*
X12416920Y-21143436D01*
X12416920Y-21143436D02*
X12426444Y-21133912D01*
X12502634Y-21229150D02*
X12502634Y-21362484D01*
X12502634Y-21248198D02*
X12512158Y-21238674D01*
X12512158Y-21238674D02*
X12531206Y-21229150D01*
X12531206Y-21229150D02*
X12559777Y-21229150D01*
X12559777Y-21229150D02*
X12578825Y-21238674D01*
X12578825Y-21238674D02*
X12588349Y-21257722D01*
X12588349Y-21257722D02*
X12588349Y-21362484D01*
X12712158Y-21362484D02*
X12693111Y-21352960D01*
X12693111Y-21352960D02*
X12683587Y-21343436D01*
X12683587Y-21343436D02*
X12674063Y-21324389D01*
X12674063Y-21324389D02*
X12674063Y-21267246D01*
X12674063Y-21267246D02*
X12683587Y-21248198D01*
X12683587Y-21248198D02*
X12693111Y-21238674D01*
X12693111Y-21238674D02*
X12712158Y-21229150D01*
X12712158Y-21229150D02*
X12740730Y-21229150D01*
X12740730Y-21229150D02*
X12759777Y-21238674D01*
X12759777Y-21238674D02*
X12769301Y-21248198D01*
X12769301Y-21248198D02*
X12778825Y-21267246D01*
X12778825Y-21267246D02*
X12778825Y-21324389D01*
X12778825Y-21324389D02*
X12769301Y-21343436D01*
X12769301Y-21343436D02*
X12759777Y-21352960D01*
X12759777Y-21352960D02*
X12740730Y-21362484D01*
X12740730Y-21362484D02*
X12712158Y-21362484D01*
X12835968Y-21229150D02*
X12912158Y-21229150D01*
X12864539Y-21162484D02*
X12864539Y-21333912D01*
X12864539Y-21333912D02*
X12874063Y-21352960D01*
X12874063Y-21352960D02*
X12893111Y-21362484D01*
X12893111Y-21362484D02*
X12912158Y-21362484D01*
X13131206Y-21229150D02*
X13131206Y-21429150D01*
X13131206Y-21238674D02*
X13150253Y-21229150D01*
X13150253Y-21229150D02*
X13188349Y-21229150D01*
X13188349Y-21229150D02*
X13207396Y-21238674D01*
X13207396Y-21238674D02*
X13216920Y-21248198D01*
X13216920Y-21248198D02*
X13226444Y-21267246D01*
X13226444Y-21267246D02*
X13226444Y-21324389D01*
X13226444Y-21324389D02*
X13216920Y-21343436D01*
X13216920Y-21343436D02*
X13207396Y-21352960D01*
X13207396Y-21352960D02*
X13188349Y-21362484D01*
X13188349Y-21362484D02*
X13150253Y-21362484D01*
X13150253Y-21362484D02*
X13131206Y-21352960D01*
X13340730Y-21362484D02*
X13321682Y-21352960D01*
X13321682Y-21352960D02*
X13312158Y-21333912D01*
X13312158Y-21333912D02*
X13312158Y-21162484D01*
X13502634Y-21362484D02*
X13502634Y-21257722D01*
X13502634Y-21257722D02*
X13493111Y-21238674D01*
X13493111Y-21238674D02*
X13474063Y-21229150D01*
X13474063Y-21229150D02*
X13435968Y-21229150D01*
X13435968Y-21229150D02*
X13416920Y-21238674D01*
X13502634Y-21352960D02*
X13483587Y-21362484D01*
X13483587Y-21362484D02*
X13435968Y-21362484D01*
X13435968Y-21362484D02*
X13416920Y-21352960D01*
X13416920Y-21352960D02*
X13407396Y-21333912D01*
X13407396Y-21333912D02*
X13407396Y-21314865D01*
X13407396Y-21314865D02*
X13416920Y-21295817D01*
X13416920Y-21295817D02*
X13435968Y-21286293D01*
X13435968Y-21286293D02*
X13483587Y-21286293D01*
X13483587Y-21286293D02*
X13502634Y-21276770D01*
X13569301Y-21229150D02*
X13645492Y-21229150D01*
X13597873Y-21162484D02*
X13597873Y-21333912D01*
X13597873Y-21333912D02*
X13607396Y-21352960D01*
X13607396Y-21352960D02*
X13626444Y-21362484D01*
X13626444Y-21362484D02*
X13645492Y-21362484D01*
X13788349Y-21352960D02*
X13769301Y-21362484D01*
X13769301Y-21362484D02*
X13731206Y-21362484D01*
X13731206Y-21362484D02*
X13712158Y-21352960D01*
X13712158Y-21352960D02*
X13702634Y-21333912D01*
X13702634Y-21333912D02*
X13702634Y-21257722D01*
X13702634Y-21257722D02*
X13712158Y-21238674D01*
X13712158Y-21238674D02*
X13731206Y-21229150D01*
X13731206Y-21229150D02*
X13769301Y-21229150D01*
X13769301Y-21229150D02*
X13788349Y-21238674D01*
X13788349Y-21238674D02*
X13797873Y-21257722D01*
X13797873Y-21257722D02*
X13797873Y-21276770D01*
X13797873Y-21276770D02*
X13702634Y-21295817D01*
X13969301Y-21362484D02*
X13969301Y-21162484D01*
X13969301Y-21352960D02*
X13950254Y-21362484D01*
X13950254Y-21362484D02*
X13912158Y-21362484D01*
X13912158Y-21362484D02*
X13893111Y-21352960D01*
X13893111Y-21352960D02*
X13883587Y-21343436D01*
X13883587Y-21343436D02*
X13874063Y-21324389D01*
X13874063Y-21324389D02*
X13874063Y-21267246D01*
X13874063Y-21267246D02*
X13883587Y-21248198D01*
X13883587Y-21248198D02*
X13893111Y-21238674D01*
X13893111Y-21238674D02*
X13912158Y-21229150D01*
X13912158Y-21229150D02*
X13950254Y-21229150D01*
X13950254Y-21229150D02*
X13969301Y-21238674D01*
X14045492Y-21438674D02*
X14055015Y-21429150D01*
X14055015Y-21429150D02*
X14074063Y-21400579D01*
X14074063Y-21400579D02*
X14083587Y-21381531D01*
X14083587Y-21381531D02*
X14093111Y-21352960D01*
X14093111Y-21352960D02*
X14102634Y-21305341D01*
X14102634Y-21305341D02*
X14102634Y-21267246D01*
X14102634Y-21267246D02*
X14093111Y-21219627D01*
X14093111Y-21219627D02*
X14083587Y-21191055D01*
X14083587Y-21191055D02*
X14074063Y-21172008D01*
X14074063Y-21172008D02*
X14055015Y-21143436D01*
X14055015Y-21143436D02*
X14045492Y-21133912D01*
X6999000Y-21461180D02*
X6999000Y-21661180D01*
X6899000Y-21561180D02*
X7099000Y-21561180D01*
X7350253Y-21471711D02*
X7359777Y-21462188D01*
X7359777Y-21462188D02*
X7378824Y-21452664D01*
X7378824Y-21452664D02*
X7426443Y-21452664D01*
X7426443Y-21452664D02*
X7445491Y-21462188D01*
X7445491Y-21462188D02*
X7455015Y-21471711D01*
X7455015Y-21471711D02*
X7464539Y-21490759D01*
X7464539Y-21490759D02*
X7464539Y-21509807D01*
X7464539Y-21509807D02*
X7455015Y-21538378D01*
X7455015Y-21538378D02*
X7340729Y-21652664D01*
X7340729Y-21652664D02*
X7464539Y-21652664D01*
X7550253Y-21633616D02*
X7559777Y-21643140D01*
X7559777Y-21643140D02*
X7550253Y-21652664D01*
X7550253Y-21652664D02*
X7540729Y-21643140D01*
X7540729Y-21643140D02*
X7550253Y-21633616D01*
X7550253Y-21633616D02*
X7550253Y-21652664D01*
X7635967Y-21471711D02*
X7645491Y-21462188D01*
X7645491Y-21462188D02*
X7664539Y-21452664D01*
X7664539Y-21452664D02*
X7712158Y-21452664D01*
X7712158Y-21452664D02*
X7731205Y-21462188D01*
X7731205Y-21462188D02*
X7740729Y-21471711D01*
X7740729Y-21471711D02*
X7750253Y-21490759D01*
X7750253Y-21490759D02*
X7750253Y-21509807D01*
X7750253Y-21509807D02*
X7740729Y-21538378D01*
X7740729Y-21538378D02*
X7626443Y-21652664D01*
X7626443Y-21652664D02*
X7750253Y-21652664D01*
X7874062Y-21452664D02*
X7893110Y-21452664D01*
X7893110Y-21452664D02*
X7912158Y-21462188D01*
X7912158Y-21462188D02*
X7921682Y-21471711D01*
X7921682Y-21471711D02*
X7931205Y-21490759D01*
X7931205Y-21490759D02*
X7940729Y-21528854D01*
X7940729Y-21528854D02*
X7940729Y-21576473D01*
X7940729Y-21576473D02*
X7931205Y-21614569D01*
X7931205Y-21614569D02*
X7921682Y-21633616D01*
X7921682Y-21633616D02*
X7912158Y-21643140D01*
X7912158Y-21643140D02*
X7893110Y-21652664D01*
X7893110Y-21652664D02*
X7874062Y-21652664D01*
X7874062Y-21652664D02*
X7855015Y-21643140D01*
X7855015Y-21643140D02*
X7845491Y-21633616D01*
X7845491Y-21633616D02*
X7835967Y-21614569D01*
X7835967Y-21614569D02*
X7826443Y-21576473D01*
X7826443Y-21576473D02*
X7826443Y-21528854D01*
X7826443Y-21528854D02*
X7835967Y-21490759D01*
X7835967Y-21490759D02*
X7845491Y-21471711D01*
X7845491Y-21471711D02*
X7855015Y-21462188D01*
X7855015Y-21462188D02*
X7874062Y-21452664D01*
X8064539Y-21452664D02*
X8083586Y-21452664D01*
X8083586Y-21452664D02*
X8102634Y-21462188D01*
X8102634Y-21462188D02*
X8112158Y-21471711D01*
X8112158Y-21471711D02*
X8121682Y-21490759D01*
X8121682Y-21490759D02*
X8131205Y-21528854D01*
X8131205Y-21528854D02*
X8131205Y-21576473D01*
X8131205Y-21576473D02*
X8121682Y-21614569D01*
X8121682Y-21614569D02*
X8112158Y-21633616D01*
X8112158Y-21633616D02*
X8102634Y-21643140D01*
X8102634Y-21643140D02*
X8083586Y-21652664D01*
X8083586Y-21652664D02*
X8064539Y-21652664D01*
X8064539Y-21652664D02*
X8045491Y-21643140D01*
X8045491Y-21643140D02*
X8035967Y-21633616D01*
X8035967Y-21633616D02*
X8026443Y-21614569D01*
X8026443Y-21614569D02*
X8016920Y-21576473D01*
X8016920Y-21576473D02*
X8016920Y-21528854D01*
X8016920Y-21528854D02*
X8026443Y-21490759D01*
X8026443Y-21490759D02*
X8035967Y-21471711D01*
X8035967Y-21471711D02*
X8045491Y-21462188D01*
X8045491Y-21462188D02*
X8064539Y-21452664D01*
X8216920Y-21652664D02*
X8216920Y-21519330D01*
X8216920Y-21538378D02*
X8226443Y-21528854D01*
X8226443Y-21528854D02*
X8245491Y-21519330D01*
X8245491Y-21519330D02*
X8274063Y-21519330D01*
X8274063Y-21519330D02*
X8293110Y-21528854D01*
X8293110Y-21528854D02*
X8302634Y-21547902D01*
X8302634Y-21547902D02*
X8302634Y-21652664D01*
X8302634Y-21547902D02*
X8312158Y-21528854D01*
X8312158Y-21528854D02*
X8331205Y-21519330D01*
X8331205Y-21519330D02*
X8359777Y-21519330D01*
X8359777Y-21519330D02*
X8378824Y-21528854D01*
X8378824Y-21528854D02*
X8388348Y-21547902D01*
X8388348Y-21547902D02*
X8388348Y-21652664D01*
X8483586Y-21652664D02*
X8483586Y-21519330D01*
X8483586Y-21538378D02*
X8493110Y-21528854D01*
X8493110Y-21528854D02*
X8512158Y-21519330D01*
X8512158Y-21519330D02*
X8540729Y-21519330D01*
X8540729Y-21519330D02*
X8559777Y-21528854D01*
X8559777Y-21528854D02*
X8569301Y-21547902D01*
X8569301Y-21547902D02*
X8569301Y-21652664D01*
X8569301Y-21547902D02*
X8578825Y-21528854D01*
X8578825Y-21528854D02*
X8597872Y-21519330D01*
X8597872Y-21519330D02*
X8626444Y-21519330D01*
X8626444Y-21519330D02*
X8645491Y-21528854D01*
X8645491Y-21528854D02*
X8655015Y-21547902D01*
X8655015Y-21547902D02*
X8655015Y-21652664D01*
X9045491Y-21443140D02*
X8874063Y-21700283D01*
X9302634Y-21452664D02*
X9321682Y-21452664D01*
X9321682Y-21452664D02*
X9340729Y-21462188D01*
X9340729Y-21462188D02*
X9350253Y-21471711D01*
X9350253Y-21471711D02*
X9359777Y-21490759D01*
X9359777Y-21490759D02*
X9369301Y-21528854D01*
X9369301Y-21528854D02*
X9369301Y-21576473D01*
X9369301Y-21576473D02*
X9359777Y-21614569D01*
X9359777Y-21614569D02*
X9350253Y-21633616D01*
X9350253Y-21633616D02*
X9340729Y-21643140D01*
X9340729Y-21643140D02*
X9321682Y-21652664D01*
X9321682Y-21652664D02*
X9302634Y-21652664D01*
X9302634Y-21652664D02*
X9283587Y-21643140D01*
X9283587Y-21643140D02*
X9274063Y-21633616D01*
X9274063Y-21633616D02*
X9264539Y-21614569D01*
X9264539Y-21614569D02*
X9255015Y-21576473D01*
X9255015Y-21576473D02*
X9255015Y-21528854D01*
X9255015Y-21528854D02*
X9264539Y-21490759D01*
X9264539Y-21490759D02*
X9274063Y-21471711D01*
X9274063Y-21471711D02*
X9283587Y-21462188D01*
X9283587Y-21462188D02*
X9302634Y-21452664D01*
X9455015Y-21633616D02*
X9464539Y-21643140D01*
X9464539Y-21643140D02*
X9455015Y-21652664D01*
X9455015Y-21652664D02*
X9445491Y-21643140D01*
X9445491Y-21643140D02*
X9455015Y-21633616D01*
X9455015Y-21633616D02*
X9455015Y-21652664D01*
X9588348Y-21452664D02*
X9607396Y-21452664D01*
X9607396Y-21452664D02*
X9626444Y-21462188D01*
X9626444Y-21462188D02*
X9635968Y-21471711D01*
X9635968Y-21471711D02*
X9645491Y-21490759D01*
X9645491Y-21490759D02*
X9655015Y-21528854D01*
X9655015Y-21528854D02*
X9655015Y-21576473D01*
X9655015Y-21576473D02*
X9645491Y-21614569D01*
X9645491Y-21614569D02*
X9635968Y-21633616D01*
X9635968Y-21633616D02*
X9626444Y-21643140D01*
X9626444Y-21643140D02*
X9607396Y-21652664D01*
X9607396Y-21652664D02*
X9588348Y-21652664D01*
X9588348Y-21652664D02*
X9569301Y-21643140D01*
X9569301Y-21643140D02*
X9559777Y-21633616D01*
X9559777Y-21633616D02*
X9550253Y-21614569D01*
X9550253Y-21614569D02*
X9540729Y-21576473D01*
X9540729Y-21576473D02*
X9540729Y-21528854D01*
X9540729Y-21528854D02*
X9550253Y-21490759D01*
X9550253Y-21490759D02*
X9559777Y-21471711D01*
X9559777Y-21471711D02*
X9569301Y-21462188D01*
X9569301Y-21462188D02*
X9588348Y-21452664D01*
X9769301Y-21538378D02*
X9750253Y-21528854D01*
X9750253Y-21528854D02*
X9740729Y-21519330D01*
X9740729Y-21519330D02*
X9731206Y-21500283D01*
X9731206Y-21500283D02*
X9731206Y-21490759D01*
X9731206Y-21490759D02*
X9740729Y-21471711D01*
X9740729Y-21471711D02*
X9750253Y-21462188D01*
X9750253Y-21462188D02*
X9769301Y-21452664D01*
X9769301Y-21452664D02*
X9807396Y-21452664D01*
X9807396Y-21452664D02*
X9826444Y-21462188D01*
X9826444Y-21462188D02*
X9835968Y-21471711D01*
X9835968Y-21471711D02*
X9845491Y-21490759D01*
X9845491Y-21490759D02*
X9845491Y-21500283D01*
X9845491Y-21500283D02*
X9835968Y-21519330D01*
X9835968Y-21519330D02*
X9826444Y-21528854D01*
X9826444Y-21528854D02*
X9807396Y-21538378D01*
X9807396Y-21538378D02*
X9769301Y-21538378D01*
X9769301Y-21538378D02*
X9750253Y-21547902D01*
X9750253Y-21547902D02*
X9740729Y-21557426D01*
X9740729Y-21557426D02*
X9731206Y-21576473D01*
X9731206Y-21576473D02*
X9731206Y-21614569D01*
X9731206Y-21614569D02*
X9740729Y-21633616D01*
X9740729Y-21633616D02*
X9750253Y-21643140D01*
X9750253Y-21643140D02*
X9769301Y-21652664D01*
X9769301Y-21652664D02*
X9807396Y-21652664D01*
X9807396Y-21652664D02*
X9826444Y-21643140D01*
X9826444Y-21643140D02*
X9835968Y-21633616D01*
X9835968Y-21633616D02*
X9845491Y-21614569D01*
X9845491Y-21614569D02*
X9845491Y-21576473D01*
X9845491Y-21576473D02*
X9835968Y-21557426D01*
X9835968Y-21557426D02*
X9826444Y-21547902D01*
X9826444Y-21547902D02*
X9807396Y-21538378D01*
X10016920Y-21452664D02*
X9978825Y-21452664D01*
X9978825Y-21452664D02*
X9959777Y-21462188D01*
X9959777Y-21462188D02*
X9950253Y-21471711D01*
X9950253Y-21471711D02*
X9931206Y-21500283D01*
X9931206Y-21500283D02*
X9921682Y-21538378D01*
X9921682Y-21538378D02*
X9921682Y-21614569D01*
X9921682Y-21614569D02*
X9931206Y-21633616D01*
X9931206Y-21633616D02*
X9940729Y-21643140D01*
X9940729Y-21643140D02*
X9959777Y-21652664D01*
X9959777Y-21652664D02*
X9997872Y-21652664D01*
X9997872Y-21652664D02*
X10016920Y-21643140D01*
X10016920Y-21643140D02*
X10026444Y-21633616D01*
X10026444Y-21633616D02*
X10035968Y-21614569D01*
X10035968Y-21614569D02*
X10035968Y-21566950D01*
X10035968Y-21566950D02*
X10026444Y-21547902D01*
X10026444Y-21547902D02*
X10016920Y-21538378D01*
X10016920Y-21538378D02*
X9997872Y-21528854D01*
X9997872Y-21528854D02*
X9959777Y-21528854D01*
X9959777Y-21528854D02*
X9940729Y-21538378D01*
X9940729Y-21538378D02*
X9931206Y-21547902D01*
X9931206Y-21547902D02*
X9921682Y-21566950D01*
X10207396Y-21452664D02*
X10169301Y-21452664D01*
X10169301Y-21452664D02*
X10150253Y-21462188D01*
X10150253Y-21462188D02*
X10140729Y-21471711D01*
X10140729Y-21471711D02*
X10121682Y-21500283D01*
X10121682Y-21500283D02*
X10112158Y-21538378D01*
X10112158Y-21538378D02*
X10112158Y-21614569D01*
X10112158Y-21614569D02*
X10121682Y-21633616D01*
X10121682Y-21633616D02*
X10131206Y-21643140D01*
X10131206Y-21643140D02*
X10150253Y-21652664D01*
X10150253Y-21652664D02*
X10188349Y-21652664D01*
X10188349Y-21652664D02*
X10207396Y-21643140D01*
X10207396Y-21643140D02*
X10216920Y-21633616D01*
X10216920Y-21633616D02*
X10226444Y-21614569D01*
X10226444Y-21614569D02*
X10226444Y-21566950D01*
X10226444Y-21566950D02*
X10216920Y-21547902D01*
X10216920Y-21547902D02*
X10207396Y-21538378D01*
X10207396Y-21538378D02*
X10188349Y-21528854D01*
X10188349Y-21528854D02*
X10150253Y-21528854D01*
X10150253Y-21528854D02*
X10131206Y-21538378D01*
X10131206Y-21538378D02*
X10121682Y-21547902D01*
X10121682Y-21547902D02*
X10112158Y-21566950D01*
X10302634Y-21452664D02*
X10302634Y-21490759D01*
X10378825Y-21452664D02*
X10378825Y-21490759D01*
X10674063Y-21728854D02*
X10664539Y-21719330D01*
X10664539Y-21719330D02*
X10645491Y-21690759D01*
X10645491Y-21690759D02*
X10635968Y-21671711D01*
X10635968Y-21671711D02*
X10626444Y-21643140D01*
X10626444Y-21643140D02*
X10616920Y-21595521D01*
X10616920Y-21595521D02*
X10616920Y-21557426D01*
X10616920Y-21557426D02*
X10626444Y-21509807D01*
X10626444Y-21509807D02*
X10635968Y-21481235D01*
X10635968Y-21481235D02*
X10645491Y-21462188D01*
X10645491Y-21462188D02*
X10664539Y-21433616D01*
X10664539Y-21433616D02*
X10674063Y-21424092D01*
X10845491Y-21452664D02*
X10750253Y-21452664D01*
X10750253Y-21452664D02*
X10740730Y-21547902D01*
X10740730Y-21547902D02*
X10750253Y-21538378D01*
X10750253Y-21538378D02*
X10769301Y-21528854D01*
X10769301Y-21528854D02*
X10816920Y-21528854D01*
X10816920Y-21528854D02*
X10835968Y-21538378D01*
X10835968Y-21538378D02*
X10845491Y-21547902D01*
X10845491Y-21547902D02*
X10855015Y-21566950D01*
X10855015Y-21566950D02*
X10855015Y-21614569D01*
X10855015Y-21614569D02*
X10845491Y-21633616D01*
X10845491Y-21633616D02*
X10835968Y-21643140D01*
X10835968Y-21643140D02*
X10816920Y-21652664D01*
X10816920Y-21652664D02*
X10769301Y-21652664D01*
X10769301Y-21652664D02*
X10750253Y-21643140D01*
X10750253Y-21643140D02*
X10740730Y-21633616D01*
X11093111Y-21652664D02*
X11093111Y-21452664D01*
X11178825Y-21652664D02*
X11178825Y-21547902D01*
X11178825Y-21547902D02*
X11169301Y-21528854D01*
X11169301Y-21528854D02*
X11150253Y-21519330D01*
X11150253Y-21519330D02*
X11121682Y-21519330D01*
X11121682Y-21519330D02*
X11102634Y-21528854D01*
X11102634Y-21528854D02*
X11093111Y-21538378D01*
X11302634Y-21652664D02*
X11283587Y-21643140D01*
X11283587Y-21643140D02*
X11274063Y-21633616D01*
X11274063Y-21633616D02*
X11264539Y-21614569D01*
X11264539Y-21614569D02*
X11264539Y-21557426D01*
X11264539Y-21557426D02*
X11274063Y-21538378D01*
X11274063Y-21538378D02*
X11283587Y-21528854D01*
X11283587Y-21528854D02*
X11302634Y-21519330D01*
X11302634Y-21519330D02*
X11331206Y-21519330D01*
X11331206Y-21519330D02*
X11350253Y-21528854D01*
X11350253Y-21528854D02*
X11359777Y-21538378D01*
X11359777Y-21538378D02*
X11369301Y-21557426D01*
X11369301Y-21557426D02*
X11369301Y-21614569D01*
X11369301Y-21614569D02*
X11359777Y-21633616D01*
X11359777Y-21633616D02*
X11350253Y-21643140D01*
X11350253Y-21643140D02*
X11331206Y-21652664D01*
X11331206Y-21652664D02*
X11302634Y-21652664D01*
X11483587Y-21652664D02*
X11464539Y-21643140D01*
X11464539Y-21643140D02*
X11455015Y-21624092D01*
X11455015Y-21624092D02*
X11455015Y-21452664D01*
X11635968Y-21643140D02*
X11616920Y-21652664D01*
X11616920Y-21652664D02*
X11578825Y-21652664D01*
X11578825Y-21652664D02*
X11559777Y-21643140D01*
X11559777Y-21643140D02*
X11550253Y-21624092D01*
X11550253Y-21624092D02*
X11550253Y-21547902D01*
X11550253Y-21547902D02*
X11559777Y-21528854D01*
X11559777Y-21528854D02*
X11578825Y-21519330D01*
X11578825Y-21519330D02*
X11616920Y-21519330D01*
X11616920Y-21519330D02*
X11635968Y-21528854D01*
X11635968Y-21528854D02*
X11645491Y-21547902D01*
X11645491Y-21547902D02*
X11645491Y-21566950D01*
X11645491Y-21566950D02*
X11550253Y-21585997D01*
X11721682Y-21643140D02*
X11740730Y-21652664D01*
X11740730Y-21652664D02*
X11778825Y-21652664D01*
X11778825Y-21652664D02*
X11797872Y-21643140D01*
X11797872Y-21643140D02*
X11807396Y-21624092D01*
X11807396Y-21624092D02*
X11807396Y-21614569D01*
X11807396Y-21614569D02*
X11797872Y-21595521D01*
X11797872Y-21595521D02*
X11778825Y-21585997D01*
X11778825Y-21585997D02*
X11750253Y-21585997D01*
X11750253Y-21585997D02*
X11731206Y-21576473D01*
X11731206Y-21576473D02*
X11721682Y-21557426D01*
X11721682Y-21557426D02*
X11721682Y-21547902D01*
X11721682Y-21547902D02*
X11731206Y-21528854D01*
X11731206Y-21528854D02*
X11750253Y-21519330D01*
X11750253Y-21519330D02*
X11778825Y-21519330D01*
X11778825Y-21519330D02*
X11797872Y-21528854D01*
X11874063Y-21728854D02*
X11883587Y-21719330D01*
X11883587Y-21719330D02*
X11902634Y-21690759D01*
X11902634Y-21690759D02*
X11912158Y-21671711D01*
X11912158Y-21671711D02*
X11921682Y-21643140D01*
X11921682Y-21643140D02*
X11931206Y-21595521D01*
X11931206Y-21595521D02*
X11931206Y-21557426D01*
X11931206Y-21557426D02*
X11921682Y-21509807D01*
X11921682Y-21509807D02*
X11912158Y-21481235D01*
X11912158Y-21481235D02*
X11902634Y-21462188D01*
X11902634Y-21462188D02*
X11883587Y-21433616D01*
X11883587Y-21433616D02*
X11874063Y-21424092D01*
X12235968Y-21728854D02*
X12226444Y-21719330D01*
X12226444Y-21719330D02*
X12207396Y-21690759D01*
X12207396Y-21690759D02*
X12197872Y-21671711D01*
X12197872Y-21671711D02*
X12188349Y-21643140D01*
X12188349Y-21643140D02*
X12178825Y-21595521D01*
X12178825Y-21595521D02*
X12178825Y-21557426D01*
X12178825Y-21557426D02*
X12188349Y-21509807D01*
X12188349Y-21509807D02*
X12197872Y-21481235D01*
X12197872Y-21481235D02*
X12207396Y-21462188D01*
X12207396Y-21462188D02*
X12226444Y-21433616D01*
X12226444Y-21433616D02*
X12235968Y-21424092D01*
X12312158Y-21519330D02*
X12312158Y-21652664D01*
X12312158Y-21538378D02*
X12321682Y-21528854D01*
X12321682Y-21528854D02*
X12340730Y-21519330D01*
X12340730Y-21519330D02*
X12369301Y-21519330D01*
X12369301Y-21519330D02*
X12388349Y-21528854D01*
X12388349Y-21528854D02*
X12397872Y-21547902D01*
X12397872Y-21547902D02*
X12397872Y-21652664D01*
X12521682Y-21652664D02*
X12502634Y-21643140D01*
X12502634Y-21643140D02*
X12493111Y-21633616D01*
X12493111Y-21633616D02*
X12483587Y-21614569D01*
X12483587Y-21614569D02*
X12483587Y-21557426D01*
X12483587Y-21557426D02*
X12493111Y-21538378D01*
X12493111Y-21538378D02*
X12502634Y-21528854D01*
X12502634Y-21528854D02*
X12521682Y-21519330D01*
X12521682Y-21519330D02*
X12550253Y-21519330D01*
X12550253Y-21519330D02*
X12569301Y-21528854D01*
X12569301Y-21528854D02*
X12578825Y-21538378D01*
X12578825Y-21538378D02*
X12588349Y-21557426D01*
X12588349Y-21557426D02*
X12588349Y-21614569D01*
X12588349Y-21614569D02*
X12578825Y-21633616D01*
X12578825Y-21633616D02*
X12569301Y-21643140D01*
X12569301Y-21643140D02*
X12550253Y-21652664D01*
X12550253Y-21652664D02*
X12521682Y-21652664D01*
X12645492Y-21519330D02*
X12721682Y-21519330D01*
X12674063Y-21452664D02*
X12674063Y-21624092D01*
X12674063Y-21624092D02*
X12683587Y-21643140D01*
X12683587Y-21643140D02*
X12702634Y-21652664D01*
X12702634Y-21652664D02*
X12721682Y-21652664D01*
X12940730Y-21519330D02*
X12940730Y-21719330D01*
X12940730Y-21528854D02*
X12959777Y-21519330D01*
X12959777Y-21519330D02*
X12997873Y-21519330D01*
X12997873Y-21519330D02*
X13016920Y-21528854D01*
X13016920Y-21528854D02*
X13026444Y-21538378D01*
X13026444Y-21538378D02*
X13035968Y-21557426D01*
X13035968Y-21557426D02*
X13035968Y-21614569D01*
X13035968Y-21614569D02*
X13026444Y-21633616D01*
X13026444Y-21633616D02*
X13016920Y-21643140D01*
X13016920Y-21643140D02*
X12997873Y-21652664D01*
X12997873Y-21652664D02*
X12959777Y-21652664D01*
X12959777Y-21652664D02*
X12940730Y-21643140D01*
X13150253Y-21652664D02*
X13131206Y-21643140D01*
X13131206Y-21643140D02*
X13121682Y-21624092D01*
X13121682Y-21624092D02*
X13121682Y-21452664D01*
X13312158Y-21652664D02*
X13312158Y-21547902D01*
X13312158Y-21547902D02*
X13302634Y-21528854D01*
X13302634Y-21528854D02*
X13283587Y-21519330D01*
X13283587Y-21519330D02*
X13245492Y-21519330D01*
X13245492Y-21519330D02*
X13226444Y-21528854D01*
X13312158Y-21643140D02*
X13293111Y-21652664D01*
X13293111Y-21652664D02*
X13245492Y-21652664D01*
X13245492Y-21652664D02*
X13226444Y-21643140D01*
X13226444Y-21643140D02*
X13216920Y-21624092D01*
X13216920Y-21624092D02*
X13216920Y-21605045D01*
X13216920Y-21605045D02*
X13226444Y-21585997D01*
X13226444Y-21585997D02*
X13245492Y-21576473D01*
X13245492Y-21576473D02*
X13293111Y-21576473D01*
X13293111Y-21576473D02*
X13312158Y-21566950D01*
X13378825Y-21519330D02*
X13455015Y-21519330D01*
X13407396Y-21452664D02*
X13407396Y-21624092D01*
X13407396Y-21624092D02*
X13416920Y-21643140D01*
X13416920Y-21643140D02*
X13435968Y-21652664D01*
X13435968Y-21652664D02*
X13455015Y-21652664D01*
X13597873Y-21643140D02*
X13578825Y-21652664D01*
X13578825Y-21652664D02*
X13540730Y-21652664D01*
X13540730Y-21652664D02*
X13521682Y-21643140D01*
X13521682Y-21643140D02*
X13512158Y-21624092D01*
X13512158Y-21624092D02*
X13512158Y-21547902D01*
X13512158Y-21547902D02*
X13521682Y-21528854D01*
X13521682Y-21528854D02*
X13540730Y-21519330D01*
X13540730Y-21519330D02*
X13578825Y-21519330D01*
X13578825Y-21519330D02*
X13597873Y-21528854D01*
X13597873Y-21528854D02*
X13607396Y-21547902D01*
X13607396Y-21547902D02*
X13607396Y-21566950D01*
X13607396Y-21566950D02*
X13512158Y-21585997D01*
X13778825Y-21652664D02*
X13778825Y-21452664D01*
X13778825Y-21643140D02*
X13759777Y-21652664D01*
X13759777Y-21652664D02*
X13721682Y-21652664D01*
X13721682Y-21652664D02*
X13702634Y-21643140D01*
X13702634Y-21643140D02*
X13693111Y-21633616D01*
X13693111Y-21633616D02*
X13683587Y-21614569D01*
X13683587Y-21614569D02*
X13683587Y-21557426D01*
X13683587Y-21557426D02*
X13693111Y-21538378D01*
X13693111Y-21538378D02*
X13702634Y-21528854D01*
X13702634Y-21528854D02*
X13721682Y-21519330D01*
X13721682Y-21519330D02*
X13759777Y-21519330D01*
X13759777Y-21519330D02*
X13778825Y-21528854D01*
X13855015Y-21728854D02*
X13864539Y-21719330D01*
X13864539Y-21719330D02*
X13883587Y-21690759D01*
X13883587Y-21690759D02*
X13893111Y-21671711D01*
X13893111Y-21671711D02*
X13902634Y-21643140D01*
X13902634Y-21643140D02*
X13912158Y-21595521D01*
X13912158Y-21595521D02*
X13912158Y-21557426D01*
X13912158Y-21557426D02*
X13902634Y-21509807D01*
X13902634Y-21509807D02*
X13893111Y-21481235D01*
X13893111Y-21481235D02*
X13883587Y-21462188D01*
X13883587Y-21462188D02*
X13864539Y-21433616D01*
X13864539Y-21433616D02*
X13855015Y-21424092D01*
X7069711Y-21951891D02*
X7069711Y-21810469D01*
X6928289Y-21810469D01*
X6928289Y-21951891D01*
X7069711Y-21951891D01*
X7340729Y-21772664D02*
X7464539Y-21772664D01*
X7464539Y-21772664D02*
X7397872Y-21848854D01*
X7397872Y-21848854D02*
X7426443Y-21848854D01*
X7426443Y-21848854D02*
X7445491Y-21858378D01*
X7445491Y-21858378D02*
X7455015Y-21867902D01*
X7455015Y-21867902D02*
X7464539Y-21886950D01*
X7464539Y-21886950D02*
X7464539Y-21934569D01*
X7464539Y-21934569D02*
X7455015Y-21953616D01*
X7455015Y-21953616D02*
X7445491Y-21963140D01*
X7445491Y-21963140D02*
X7426443Y-21972664D01*
X7426443Y-21972664D02*
X7369301Y-21972664D01*
X7369301Y-21972664D02*
X7350253Y-21963140D01*
X7350253Y-21963140D02*
X7340729Y-21953616D01*
X7550253Y-21953616D02*
X7559777Y-21963140D01*
X7559777Y-21963140D02*
X7550253Y-21972664D01*
X7550253Y-21972664D02*
X7540729Y-21963140D01*
X7540729Y-21963140D02*
X7550253Y-21953616D01*
X7550253Y-21953616D02*
X7550253Y-21972664D01*
X7683586Y-21772664D02*
X7702634Y-21772664D01*
X7702634Y-21772664D02*
X7721682Y-21782188D01*
X7721682Y-21782188D02*
X7731205Y-21791711D01*
X7731205Y-21791711D02*
X7740729Y-21810759D01*
X7740729Y-21810759D02*
X7750253Y-21848854D01*
X7750253Y-21848854D02*
X7750253Y-21896473D01*
X7750253Y-21896473D02*
X7740729Y-21934569D01*
X7740729Y-21934569D02*
X7731205Y-21953616D01*
X7731205Y-21953616D02*
X7721682Y-21963140D01*
X7721682Y-21963140D02*
X7702634Y-21972664D01*
X7702634Y-21972664D02*
X7683586Y-21972664D01*
X7683586Y-21972664D02*
X7664539Y-21963140D01*
X7664539Y-21963140D02*
X7655015Y-21953616D01*
X7655015Y-21953616D02*
X7645491Y-21934569D01*
X7645491Y-21934569D02*
X7635967Y-21896473D01*
X7635967Y-21896473D02*
X7635967Y-21848854D01*
X7635967Y-21848854D02*
X7645491Y-21810759D01*
X7645491Y-21810759D02*
X7655015Y-21791711D01*
X7655015Y-21791711D02*
X7664539Y-21782188D01*
X7664539Y-21782188D02*
X7683586Y-21772664D01*
X7874062Y-21772664D02*
X7893110Y-21772664D01*
X7893110Y-21772664D02*
X7912158Y-21782188D01*
X7912158Y-21782188D02*
X7921682Y-21791711D01*
X7921682Y-21791711D02*
X7931205Y-21810759D01*
X7931205Y-21810759D02*
X7940729Y-21848854D01*
X7940729Y-21848854D02*
X7940729Y-21896473D01*
X7940729Y-21896473D02*
X7931205Y-21934569D01*
X7931205Y-21934569D02*
X7921682Y-21953616D01*
X7921682Y-21953616D02*
X7912158Y-21963140D01*
X7912158Y-21963140D02*
X7893110Y-21972664D01*
X7893110Y-21972664D02*
X7874062Y-21972664D01*
X7874062Y-21972664D02*
X7855015Y-21963140D01*
X7855015Y-21963140D02*
X7845491Y-21953616D01*
X7845491Y-21953616D02*
X7835967Y-21934569D01*
X7835967Y-21934569D02*
X7826443Y-21896473D01*
X7826443Y-21896473D02*
X7826443Y-21848854D01*
X7826443Y-21848854D02*
X7835967Y-21810759D01*
X7835967Y-21810759D02*
X7845491Y-21791711D01*
X7845491Y-21791711D02*
X7855015Y-21782188D01*
X7855015Y-21782188D02*
X7874062Y-21772664D01*
X8064539Y-21772664D02*
X8083586Y-21772664D01*
X8083586Y-21772664D02*
X8102634Y-21782188D01*
X8102634Y-21782188D02*
X8112158Y-21791711D01*
X8112158Y-21791711D02*
X8121682Y-21810759D01*
X8121682Y-21810759D02*
X8131205Y-21848854D01*
X8131205Y-21848854D02*
X8131205Y-21896473D01*
X8131205Y-21896473D02*
X8121682Y-21934569D01*
X8121682Y-21934569D02*
X8112158Y-21953616D01*
X8112158Y-21953616D02*
X8102634Y-21963140D01*
X8102634Y-21963140D02*
X8083586Y-21972664D01*
X8083586Y-21972664D02*
X8064539Y-21972664D01*
X8064539Y-21972664D02*
X8045491Y-21963140D01*
X8045491Y-21963140D02*
X8035967Y-21953616D01*
X8035967Y-21953616D02*
X8026443Y-21934569D01*
X8026443Y-21934569D02*
X8016920Y-21896473D01*
X8016920Y-21896473D02*
X8016920Y-21848854D01*
X8016920Y-21848854D02*
X8026443Y-21810759D01*
X8026443Y-21810759D02*
X8035967Y-21791711D01*
X8035967Y-21791711D02*
X8045491Y-21782188D01*
X8045491Y-21782188D02*
X8064539Y-21772664D01*
X8216920Y-21972664D02*
X8216920Y-21839330D01*
X8216920Y-21858378D02*
X8226443Y-21848854D01*
X8226443Y-21848854D02*
X8245491Y-21839330D01*
X8245491Y-21839330D02*
X8274063Y-21839330D01*
X8274063Y-21839330D02*
X8293110Y-21848854D01*
X8293110Y-21848854D02*
X8302634Y-21867902D01*
X8302634Y-21867902D02*
X8302634Y-21972664D01*
X8302634Y-21867902D02*
X8312158Y-21848854D01*
X8312158Y-21848854D02*
X8331205Y-21839330D01*
X8331205Y-21839330D02*
X8359777Y-21839330D01*
X8359777Y-21839330D02*
X8378824Y-21848854D01*
X8378824Y-21848854D02*
X8388348Y-21867902D01*
X8388348Y-21867902D02*
X8388348Y-21972664D01*
X8483586Y-21972664D02*
X8483586Y-21839330D01*
X8483586Y-21858378D02*
X8493110Y-21848854D01*
X8493110Y-21848854D02*
X8512158Y-21839330D01*
X8512158Y-21839330D02*
X8540729Y-21839330D01*
X8540729Y-21839330D02*
X8559777Y-21848854D01*
X8559777Y-21848854D02*
X8569301Y-21867902D01*
X8569301Y-21867902D02*
X8569301Y-21972664D01*
X8569301Y-21867902D02*
X8578825Y-21848854D01*
X8578825Y-21848854D02*
X8597872Y-21839330D01*
X8597872Y-21839330D02*
X8626444Y-21839330D01*
X8626444Y-21839330D02*
X8645491Y-21848854D01*
X8645491Y-21848854D02*
X8655015Y-21867902D01*
X8655015Y-21867902D02*
X8655015Y-21972664D01*
X9045491Y-21763140D02*
X8874063Y-22020283D01*
X9302634Y-21772664D02*
X9321682Y-21772664D01*
X9321682Y-21772664D02*
X9340729Y-21782188D01*
X9340729Y-21782188D02*
X9350253Y-21791711D01*
X9350253Y-21791711D02*
X9359777Y-21810759D01*
X9359777Y-21810759D02*
X9369301Y-21848854D01*
X9369301Y-21848854D02*
X9369301Y-21896473D01*
X9369301Y-21896473D02*
X9359777Y-21934569D01*
X9359777Y-21934569D02*
X9350253Y-21953616D01*
X9350253Y-21953616D02*
X9340729Y-21963140D01*
X9340729Y-21963140D02*
X9321682Y-21972664D01*
X9321682Y-21972664D02*
X9302634Y-21972664D01*
X9302634Y-21972664D02*
X9283587Y-21963140D01*
X9283587Y-21963140D02*
X9274063Y-21953616D01*
X9274063Y-21953616D02*
X9264539Y-21934569D01*
X9264539Y-21934569D02*
X9255015Y-21896473D01*
X9255015Y-21896473D02*
X9255015Y-21848854D01*
X9255015Y-21848854D02*
X9264539Y-21810759D01*
X9264539Y-21810759D02*
X9274063Y-21791711D01*
X9274063Y-21791711D02*
X9283587Y-21782188D01*
X9283587Y-21782188D02*
X9302634Y-21772664D01*
X9455015Y-21953616D02*
X9464539Y-21963140D01*
X9464539Y-21963140D02*
X9455015Y-21972664D01*
X9455015Y-21972664D02*
X9445491Y-21963140D01*
X9445491Y-21963140D02*
X9455015Y-21953616D01*
X9455015Y-21953616D02*
X9455015Y-21972664D01*
X9655015Y-21972664D02*
X9540729Y-21972664D01*
X9597872Y-21972664D02*
X9597872Y-21772664D01*
X9597872Y-21772664D02*
X9578825Y-21801235D01*
X9578825Y-21801235D02*
X9559777Y-21820283D01*
X9559777Y-21820283D02*
X9540729Y-21829807D01*
X9845491Y-21972664D02*
X9731206Y-21972664D01*
X9788348Y-21972664D02*
X9788348Y-21772664D01*
X9788348Y-21772664D02*
X9769301Y-21801235D01*
X9769301Y-21801235D02*
X9750253Y-21820283D01*
X9750253Y-21820283D02*
X9731206Y-21829807D01*
X9959777Y-21858378D02*
X9940729Y-21848854D01*
X9940729Y-21848854D02*
X9931206Y-21839330D01*
X9931206Y-21839330D02*
X9921682Y-21820283D01*
X9921682Y-21820283D02*
X9921682Y-21810759D01*
X9921682Y-21810759D02*
X9931206Y-21791711D01*
X9931206Y-21791711D02*
X9940729Y-21782188D01*
X9940729Y-21782188D02*
X9959777Y-21772664D01*
X9959777Y-21772664D02*
X9997872Y-21772664D01*
X9997872Y-21772664D02*
X10016920Y-21782188D01*
X10016920Y-21782188D02*
X10026444Y-21791711D01*
X10026444Y-21791711D02*
X10035968Y-21810759D01*
X10035968Y-21810759D02*
X10035968Y-21820283D01*
X10035968Y-21820283D02*
X10026444Y-21839330D01*
X10026444Y-21839330D02*
X10016920Y-21848854D01*
X10016920Y-21848854D02*
X9997872Y-21858378D01*
X9997872Y-21858378D02*
X9959777Y-21858378D01*
X9959777Y-21858378D02*
X9940729Y-21867902D01*
X9940729Y-21867902D02*
X9931206Y-21877426D01*
X9931206Y-21877426D02*
X9921682Y-21896473D01*
X9921682Y-21896473D02*
X9921682Y-21934569D01*
X9921682Y-21934569D02*
X9931206Y-21953616D01*
X9931206Y-21953616D02*
X9940729Y-21963140D01*
X9940729Y-21963140D02*
X9959777Y-21972664D01*
X9959777Y-21972664D02*
X9997872Y-21972664D01*
X9997872Y-21972664D02*
X10016920Y-21963140D01*
X10016920Y-21963140D02*
X10026444Y-21953616D01*
X10026444Y-21953616D02*
X10035968Y-21934569D01*
X10035968Y-21934569D02*
X10035968Y-21896473D01*
X10035968Y-21896473D02*
X10026444Y-21877426D01*
X10026444Y-21877426D02*
X10016920Y-21867902D01*
X10016920Y-21867902D02*
X9997872Y-21858378D01*
X10226444Y-21972664D02*
X10112158Y-21972664D01*
X10169301Y-21972664D02*
X10169301Y-21772664D01*
X10169301Y-21772664D02*
X10150253Y-21801235D01*
X10150253Y-21801235D02*
X10131206Y-21820283D01*
X10131206Y-21820283D02*
X10112158Y-21829807D01*
X10302634Y-21772664D02*
X10302634Y-21810759D01*
X10378825Y-21772664D02*
X10378825Y-21810759D01*
X10674063Y-22048854D02*
X10664539Y-22039330D01*
X10664539Y-22039330D02*
X10645491Y-22010759D01*
X10645491Y-22010759D02*
X10635968Y-21991711D01*
X10635968Y-21991711D02*
X10626444Y-21963140D01*
X10626444Y-21963140D02*
X10616920Y-21915521D01*
X10616920Y-21915521D02*
X10616920Y-21877426D01*
X10616920Y-21877426D02*
X10626444Y-21829807D01*
X10626444Y-21829807D02*
X10635968Y-21801235D01*
X10635968Y-21801235D02*
X10645491Y-21782188D01*
X10645491Y-21782188D02*
X10664539Y-21753616D01*
X10664539Y-21753616D02*
X10674063Y-21744092D01*
X10731206Y-21772664D02*
X10855015Y-21772664D01*
X10855015Y-21772664D02*
X10788349Y-21848854D01*
X10788349Y-21848854D02*
X10816920Y-21848854D01*
X10816920Y-21848854D02*
X10835968Y-21858378D01*
X10835968Y-21858378D02*
X10845491Y-21867902D01*
X10845491Y-21867902D02*
X10855015Y-21886950D01*
X10855015Y-21886950D02*
X10855015Y-21934569D01*
X10855015Y-21934569D02*
X10845491Y-21953616D01*
X10845491Y-21953616D02*
X10835968Y-21963140D01*
X10835968Y-21963140D02*
X10816920Y-21972664D01*
X10816920Y-21972664D02*
X10759777Y-21972664D01*
X10759777Y-21972664D02*
X10740730Y-21963140D01*
X10740730Y-21963140D02*
X10731206Y-21953616D01*
X11026444Y-21772664D02*
X10988349Y-21772664D01*
X10988349Y-21772664D02*
X10969301Y-21782188D01*
X10969301Y-21782188D02*
X10959777Y-21791711D01*
X10959777Y-21791711D02*
X10940730Y-21820283D01*
X10940730Y-21820283D02*
X10931206Y-21858378D01*
X10931206Y-21858378D02*
X10931206Y-21934569D01*
X10931206Y-21934569D02*
X10940730Y-21953616D01*
X10940730Y-21953616D02*
X10950253Y-21963140D01*
X10950253Y-21963140D02*
X10969301Y-21972664D01*
X10969301Y-21972664D02*
X11007396Y-21972664D01*
X11007396Y-21972664D02*
X11026444Y-21963140D01*
X11026444Y-21963140D02*
X11035968Y-21953616D01*
X11035968Y-21953616D02*
X11045491Y-21934569D01*
X11045491Y-21934569D02*
X11045491Y-21886950D01*
X11045491Y-21886950D02*
X11035968Y-21867902D01*
X11035968Y-21867902D02*
X11026444Y-21858378D01*
X11026444Y-21858378D02*
X11007396Y-21848854D01*
X11007396Y-21848854D02*
X10969301Y-21848854D01*
X10969301Y-21848854D02*
X10950253Y-21858378D01*
X10950253Y-21858378D02*
X10940730Y-21867902D01*
X10940730Y-21867902D02*
X10931206Y-21886950D01*
X11283587Y-21972664D02*
X11283587Y-21772664D01*
X11369301Y-21972664D02*
X11369301Y-21867902D01*
X11369301Y-21867902D02*
X11359777Y-21848854D01*
X11359777Y-21848854D02*
X11340730Y-21839330D01*
X11340730Y-21839330D02*
X11312158Y-21839330D01*
X11312158Y-21839330D02*
X11293110Y-21848854D01*
X11293110Y-21848854D02*
X11283587Y-21858378D01*
X11493110Y-21972664D02*
X11474063Y-21963140D01*
X11474063Y-21963140D02*
X11464539Y-21953616D01*
X11464539Y-21953616D02*
X11455015Y-21934569D01*
X11455015Y-21934569D02*
X11455015Y-21877426D01*
X11455015Y-21877426D02*
X11464539Y-21858378D01*
X11464539Y-21858378D02*
X11474063Y-21848854D01*
X11474063Y-21848854D02*
X11493110Y-21839330D01*
X11493110Y-21839330D02*
X11521682Y-21839330D01*
X11521682Y-21839330D02*
X11540730Y-21848854D01*
X11540730Y-21848854D02*
X11550253Y-21858378D01*
X11550253Y-21858378D02*
X11559777Y-21877426D01*
X11559777Y-21877426D02*
X11559777Y-21934569D01*
X11559777Y-21934569D02*
X11550253Y-21953616D01*
X11550253Y-21953616D02*
X11540730Y-21963140D01*
X11540730Y-21963140D02*
X11521682Y-21972664D01*
X11521682Y-21972664D02*
X11493110Y-21972664D01*
X11674063Y-21972664D02*
X11655015Y-21963140D01*
X11655015Y-21963140D02*
X11645491Y-21944092D01*
X11645491Y-21944092D02*
X11645491Y-21772664D01*
X11826444Y-21963140D02*
X11807396Y-21972664D01*
X11807396Y-21972664D02*
X11769301Y-21972664D01*
X11769301Y-21972664D02*
X11750253Y-21963140D01*
X11750253Y-21963140D02*
X11740730Y-21944092D01*
X11740730Y-21944092D02*
X11740730Y-21867902D01*
X11740730Y-21867902D02*
X11750253Y-21848854D01*
X11750253Y-21848854D02*
X11769301Y-21839330D01*
X11769301Y-21839330D02*
X11807396Y-21839330D01*
X11807396Y-21839330D02*
X11826444Y-21848854D01*
X11826444Y-21848854D02*
X11835968Y-21867902D01*
X11835968Y-21867902D02*
X11835968Y-21886950D01*
X11835968Y-21886950D02*
X11740730Y-21905997D01*
X11912158Y-21963140D02*
X11931206Y-21972664D01*
X11931206Y-21972664D02*
X11969301Y-21972664D01*
X11969301Y-21972664D02*
X11988349Y-21963140D01*
X11988349Y-21963140D02*
X11997872Y-21944092D01*
X11997872Y-21944092D02*
X11997872Y-21934569D01*
X11997872Y-21934569D02*
X11988349Y-21915521D01*
X11988349Y-21915521D02*
X11969301Y-21905997D01*
X11969301Y-21905997D02*
X11940730Y-21905997D01*
X11940730Y-21905997D02*
X11921682Y-21896473D01*
X11921682Y-21896473D02*
X11912158Y-21877426D01*
X11912158Y-21877426D02*
X11912158Y-21867902D01*
X11912158Y-21867902D02*
X11921682Y-21848854D01*
X11921682Y-21848854D02*
X11940730Y-21839330D01*
X11940730Y-21839330D02*
X11969301Y-21839330D01*
X11969301Y-21839330D02*
X11988349Y-21848854D01*
X12064539Y-22048854D02*
X12074063Y-22039330D01*
X12074063Y-22039330D02*
X12093111Y-22010759D01*
X12093111Y-22010759D02*
X12102634Y-21991711D01*
X12102634Y-21991711D02*
X12112158Y-21963140D01*
X12112158Y-21963140D02*
X12121682Y-21915521D01*
X12121682Y-21915521D02*
X12121682Y-21877426D01*
X12121682Y-21877426D02*
X12112158Y-21829807D01*
X12112158Y-21829807D02*
X12102634Y-21801235D01*
X12102634Y-21801235D02*
X12093111Y-21782188D01*
X12093111Y-21782188D02*
X12074063Y-21753616D01*
X12074063Y-21753616D02*
X12064539Y-21744092D01*
X12426444Y-22048854D02*
X12416920Y-22039330D01*
X12416920Y-22039330D02*
X12397872Y-22010759D01*
X12397872Y-22010759D02*
X12388349Y-21991711D01*
X12388349Y-21991711D02*
X12378825Y-21963140D01*
X12378825Y-21963140D02*
X12369301Y-21915521D01*
X12369301Y-21915521D02*
X12369301Y-21877426D01*
X12369301Y-21877426D02*
X12378825Y-21829807D01*
X12378825Y-21829807D02*
X12388349Y-21801235D01*
X12388349Y-21801235D02*
X12397872Y-21782188D01*
X12397872Y-21782188D02*
X12416920Y-21753616D01*
X12416920Y-21753616D02*
X12426444Y-21744092D01*
X12502634Y-21839330D02*
X12502634Y-21972664D01*
X12502634Y-21858378D02*
X12512158Y-21848854D01*
X12512158Y-21848854D02*
X12531206Y-21839330D01*
X12531206Y-21839330D02*
X12559777Y-21839330D01*
X12559777Y-21839330D02*
X12578825Y-21848854D01*
X12578825Y-21848854D02*
X12588349Y-21867902D01*
X12588349Y-21867902D02*
X12588349Y-21972664D01*
X12712158Y-21972664D02*
X12693111Y-21963140D01*
X12693111Y-21963140D02*
X12683587Y-21953616D01*
X12683587Y-21953616D02*
X12674063Y-21934569D01*
X12674063Y-21934569D02*
X12674063Y-21877426D01*
X12674063Y-21877426D02*
X12683587Y-21858378D01*
X12683587Y-21858378D02*
X12693111Y-21848854D01*
X12693111Y-21848854D02*
X12712158Y-21839330D01*
X12712158Y-21839330D02*
X12740730Y-21839330D01*
X12740730Y-21839330D02*
X12759777Y-21848854D01*
X12759777Y-21848854D02*
X12769301Y-21858378D01*
X12769301Y-21858378D02*
X12778825Y-21877426D01*
X12778825Y-21877426D02*
X12778825Y-21934569D01*
X12778825Y-21934569D02*
X12769301Y-21953616D01*
X12769301Y-21953616D02*
X12759777Y-21963140D01*
X12759777Y-21963140D02*
X12740730Y-21972664D01*
X12740730Y-21972664D02*
X12712158Y-21972664D01*
X12835968Y-21839330D02*
X12912158Y-21839330D01*
X12864539Y-21772664D02*
X12864539Y-21944092D01*
X12864539Y-21944092D02*
X12874063Y-21963140D01*
X12874063Y-21963140D02*
X12893111Y-21972664D01*
X12893111Y-21972664D02*
X12912158Y-21972664D01*
X13131206Y-21839330D02*
X13131206Y-22039330D01*
X13131206Y-21848854D02*
X13150253Y-21839330D01*
X13150253Y-21839330D02*
X13188349Y-21839330D01*
X13188349Y-21839330D02*
X13207396Y-21848854D01*
X13207396Y-21848854D02*
X13216920Y-21858378D01*
X13216920Y-21858378D02*
X13226444Y-21877426D01*
X13226444Y-21877426D02*
X13226444Y-21934569D01*
X13226444Y-21934569D02*
X13216920Y-21953616D01*
X13216920Y-21953616D02*
X13207396Y-21963140D01*
X13207396Y-21963140D02*
X13188349Y-21972664D01*
X13188349Y-21972664D02*
X13150253Y-21972664D01*
X13150253Y-21972664D02*
X13131206Y-21963140D01*
X13340730Y-21972664D02*
X13321682Y-21963140D01*
X13321682Y-21963140D02*
X13312158Y-21944092D01*
X13312158Y-21944092D02*
X13312158Y-21772664D01*
X13502634Y-21972664D02*
X13502634Y-21867902D01*
X13502634Y-21867902D02*
X13493111Y-21848854D01*
X13493111Y-21848854D02*
X13474063Y-21839330D01*
X13474063Y-21839330D02*
X13435968Y-21839330D01*
X13435968Y-21839330D02*
X13416920Y-21848854D01*
X13502634Y-21963140D02*
X13483587Y-21972664D01*
X13483587Y-21972664D02*
X13435968Y-21972664D01*
X13435968Y-21972664D02*
X13416920Y-21963140D01*
X13416920Y-21963140D02*
X13407396Y-21944092D01*
X13407396Y-21944092D02*
X13407396Y-21925045D01*
X13407396Y-21925045D02*
X13416920Y-21905997D01*
X13416920Y-21905997D02*
X13435968Y-21896473D01*
X13435968Y-21896473D02*
X13483587Y-21896473D01*
X13483587Y-21896473D02*
X13502634Y-21886950D01*
X13569301Y-21839330D02*
X13645492Y-21839330D01*
X13597873Y-21772664D02*
X13597873Y-21944092D01*
X13597873Y-21944092D02*
X13607396Y-21963140D01*
X13607396Y-21963140D02*
X13626444Y-21972664D01*
X13626444Y-21972664D02*
X13645492Y-21972664D01*
X13788349Y-21963140D02*
X13769301Y-21972664D01*
X13769301Y-21972664D02*
X13731206Y-21972664D01*
X13731206Y-21972664D02*
X13712158Y-21963140D01*
X13712158Y-21963140D02*
X13702634Y-21944092D01*
X13702634Y-21944092D02*
X13702634Y-21867902D01*
X13702634Y-21867902D02*
X13712158Y-21848854D01*
X13712158Y-21848854D02*
X13731206Y-21839330D01*
X13731206Y-21839330D02*
X13769301Y-21839330D01*
X13769301Y-21839330D02*
X13788349Y-21848854D01*
X13788349Y-21848854D02*
X13797873Y-21867902D01*
X13797873Y-21867902D02*
X13797873Y-21886950D01*
X13797873Y-21886950D02*
X13702634Y-21905997D01*
X13969301Y-21972664D02*
X13969301Y-21772664D01*
X13969301Y-21963140D02*
X13950254Y-21972664D01*
X13950254Y-21972664D02*
X13912158Y-21972664D01*
X13912158Y-21972664D02*
X13893111Y-21963140D01*
X13893111Y-21963140D02*
X13883587Y-21953616D01*
X13883587Y-21953616D02*
X13874063Y-21934569D01*
X13874063Y-21934569D02*
X13874063Y-21877426D01*
X13874063Y-21877426D02*
X13883587Y-21858378D01*
X13883587Y-21858378D02*
X13893111Y-21848854D01*
X13893111Y-21848854D02*
X13912158Y-21839330D01*
X13912158Y-21839330D02*
X13950254Y-21839330D01*
X13950254Y-21839330D02*
X13969301Y-21848854D01*
X14045492Y-22048854D02*
X14055015Y-22039330D01*
X14055015Y-22039330D02*
X14074063Y-22010759D01*
X14074063Y-22010759D02*
X14083587Y-21991711D01*
X14083587Y-21991711D02*
X14093111Y-21963140D01*
X14093111Y-21963140D02*
X14102634Y-21915521D01*
X14102634Y-21915521D02*
X14102634Y-21877426D01*
X14102634Y-21877426D02*
X14093111Y-21829807D01*
X14093111Y-21829807D02*
X14083587Y-21801235D01*
X14083587Y-21801235D02*
X14074063Y-21782188D01*
X14074063Y-21782188D02*
X14055015Y-21753616D01*
X14055015Y-21753616D02*
X14045492Y-21744092D01*
X6999000Y-22301180D02*
X7099000Y-22201180D01*
X6999000Y-22101180D01*
X6899000Y-22201180D01*
X6999000Y-22301180D01*
X7340729Y-22092664D02*
X7464539Y-22092664D01*
X7464539Y-22092664D02*
X7397872Y-22168854D01*
X7397872Y-22168854D02*
X7426443Y-22168854D01*
X7426443Y-22168854D02*
X7445491Y-22178378D01*
X7445491Y-22178378D02*
X7455015Y-22187902D01*
X7455015Y-22187902D02*
X7464539Y-22206950D01*
X7464539Y-22206950D02*
X7464539Y-22254569D01*
X7464539Y-22254569D02*
X7455015Y-22273616D01*
X7455015Y-22273616D02*
X7445491Y-22283140D01*
X7445491Y-22283140D02*
X7426443Y-22292664D01*
X7426443Y-22292664D02*
X7369301Y-22292664D01*
X7369301Y-22292664D02*
X7350253Y-22283140D01*
X7350253Y-22283140D02*
X7340729Y-22273616D01*
X7550253Y-22273616D02*
X7559777Y-22283140D01*
X7559777Y-22283140D02*
X7550253Y-22292664D01*
X7550253Y-22292664D02*
X7540729Y-22283140D01*
X7540729Y-22283140D02*
X7550253Y-22273616D01*
X7550253Y-22273616D02*
X7550253Y-22292664D01*
X7683586Y-22092664D02*
X7702634Y-22092664D01*
X7702634Y-22092664D02*
X7721682Y-22102188D01*
X7721682Y-22102188D02*
X7731205Y-22111711D01*
X7731205Y-22111711D02*
X7740729Y-22130759D01*
X7740729Y-22130759D02*
X7750253Y-22168854D01*
X7750253Y-22168854D02*
X7750253Y-22216473D01*
X7750253Y-22216473D02*
X7740729Y-22254569D01*
X7740729Y-22254569D02*
X7731205Y-22273616D01*
X7731205Y-22273616D02*
X7721682Y-22283140D01*
X7721682Y-22283140D02*
X7702634Y-22292664D01*
X7702634Y-22292664D02*
X7683586Y-22292664D01*
X7683586Y-22292664D02*
X7664539Y-22283140D01*
X7664539Y-22283140D02*
X7655015Y-22273616D01*
X7655015Y-22273616D02*
X7645491Y-22254569D01*
X7645491Y-22254569D02*
X7635967Y-22216473D01*
X7635967Y-22216473D02*
X7635967Y-22168854D01*
X7635967Y-22168854D02*
X7645491Y-22130759D01*
X7645491Y-22130759D02*
X7655015Y-22111711D01*
X7655015Y-22111711D02*
X7664539Y-22102188D01*
X7664539Y-22102188D02*
X7683586Y-22092664D01*
X7921682Y-22159330D02*
X7921682Y-22292664D01*
X7874062Y-22083140D02*
X7826443Y-22225997D01*
X7826443Y-22225997D02*
X7950253Y-22225997D01*
X8055015Y-22178378D02*
X8035967Y-22168854D01*
X8035967Y-22168854D02*
X8026443Y-22159330D01*
X8026443Y-22159330D02*
X8016920Y-22140283D01*
X8016920Y-22140283D02*
X8016920Y-22130759D01*
X8016920Y-22130759D02*
X8026443Y-22111711D01*
X8026443Y-22111711D02*
X8035967Y-22102188D01*
X8035967Y-22102188D02*
X8055015Y-22092664D01*
X8055015Y-22092664D02*
X8093110Y-22092664D01*
X8093110Y-22092664D02*
X8112158Y-22102188D01*
X8112158Y-22102188D02*
X8121682Y-22111711D01*
X8121682Y-22111711D02*
X8131205Y-22130759D01*
X8131205Y-22130759D02*
X8131205Y-22140283D01*
X8131205Y-22140283D02*
X8121682Y-22159330D01*
X8121682Y-22159330D02*
X8112158Y-22168854D01*
X8112158Y-22168854D02*
X8093110Y-22178378D01*
X8093110Y-22178378D02*
X8055015Y-22178378D01*
X8055015Y-22178378D02*
X8035967Y-22187902D01*
X8035967Y-22187902D02*
X8026443Y-22197426D01*
X8026443Y-22197426D02*
X8016920Y-22216473D01*
X8016920Y-22216473D02*
X8016920Y-22254569D01*
X8016920Y-22254569D02*
X8026443Y-22273616D01*
X8026443Y-22273616D02*
X8035967Y-22283140D01*
X8035967Y-22283140D02*
X8055015Y-22292664D01*
X8055015Y-22292664D02*
X8093110Y-22292664D01*
X8093110Y-22292664D02*
X8112158Y-22283140D01*
X8112158Y-22283140D02*
X8121682Y-22273616D01*
X8121682Y-22273616D02*
X8131205Y-22254569D01*
X8131205Y-22254569D02*
X8131205Y-22216473D01*
X8131205Y-22216473D02*
X8121682Y-22197426D01*
X8121682Y-22197426D02*
X8112158Y-22187902D01*
X8112158Y-22187902D02*
X8093110Y-22178378D01*
X8216920Y-22292664D02*
X8216920Y-22159330D01*
X8216920Y-22178378D02*
X8226443Y-22168854D01*
X8226443Y-22168854D02*
X8245491Y-22159330D01*
X8245491Y-22159330D02*
X8274063Y-22159330D01*
X8274063Y-22159330D02*
X8293110Y-22168854D01*
X8293110Y-22168854D02*
X8302634Y-22187902D01*
X8302634Y-22187902D02*
X8302634Y-22292664D01*
X8302634Y-22187902D02*
X8312158Y-22168854D01*
X8312158Y-22168854D02*
X8331205Y-22159330D01*
X8331205Y-22159330D02*
X8359777Y-22159330D01*
X8359777Y-22159330D02*
X8378824Y-22168854D01*
X8378824Y-22168854D02*
X8388348Y-22187902D01*
X8388348Y-22187902D02*
X8388348Y-22292664D01*
X8483586Y-22292664D02*
X8483586Y-22159330D01*
X8483586Y-22178378D02*
X8493110Y-22168854D01*
X8493110Y-22168854D02*
X8512158Y-22159330D01*
X8512158Y-22159330D02*
X8540729Y-22159330D01*
X8540729Y-22159330D02*
X8559777Y-22168854D01*
X8559777Y-22168854D02*
X8569301Y-22187902D01*
X8569301Y-22187902D02*
X8569301Y-22292664D01*
X8569301Y-22187902D02*
X8578825Y-22168854D01*
X8578825Y-22168854D02*
X8597872Y-22159330D01*
X8597872Y-22159330D02*
X8626444Y-22159330D01*
X8626444Y-22159330D02*
X8645491Y-22168854D01*
X8645491Y-22168854D02*
X8655015Y-22187902D01*
X8655015Y-22187902D02*
X8655015Y-22292664D01*
X9045491Y-22083140D02*
X8874063Y-22340283D01*
X9302634Y-22092664D02*
X9321682Y-22092664D01*
X9321682Y-22092664D02*
X9340729Y-22102188D01*
X9340729Y-22102188D02*
X9350253Y-22111711D01*
X9350253Y-22111711D02*
X9359777Y-22130759D01*
X9359777Y-22130759D02*
X9369301Y-22168854D01*
X9369301Y-22168854D02*
X9369301Y-22216473D01*
X9369301Y-22216473D02*
X9359777Y-22254569D01*
X9359777Y-22254569D02*
X9350253Y-22273616D01*
X9350253Y-22273616D02*
X9340729Y-22283140D01*
X9340729Y-22283140D02*
X9321682Y-22292664D01*
X9321682Y-22292664D02*
X9302634Y-22292664D01*
X9302634Y-22292664D02*
X9283587Y-22283140D01*
X9283587Y-22283140D02*
X9274063Y-22273616D01*
X9274063Y-22273616D02*
X9264539Y-22254569D01*
X9264539Y-22254569D02*
X9255015Y-22216473D01*
X9255015Y-22216473D02*
X9255015Y-22168854D01*
X9255015Y-22168854D02*
X9264539Y-22130759D01*
X9264539Y-22130759D02*
X9274063Y-22111711D01*
X9274063Y-22111711D02*
X9283587Y-22102188D01*
X9283587Y-22102188D02*
X9302634Y-22092664D01*
X9455015Y-22273616D02*
X9464539Y-22283140D01*
X9464539Y-22283140D02*
X9455015Y-22292664D01*
X9455015Y-22292664D02*
X9445491Y-22283140D01*
X9445491Y-22283140D02*
X9455015Y-22273616D01*
X9455015Y-22273616D02*
X9455015Y-22292664D01*
X9655015Y-22292664D02*
X9540729Y-22292664D01*
X9597872Y-22292664D02*
X9597872Y-22092664D01*
X9597872Y-22092664D02*
X9578825Y-22121235D01*
X9578825Y-22121235D02*
X9559777Y-22140283D01*
X9559777Y-22140283D02*
X9540729Y-22149807D01*
X9731206Y-22111711D02*
X9740729Y-22102188D01*
X9740729Y-22102188D02*
X9759777Y-22092664D01*
X9759777Y-22092664D02*
X9807396Y-22092664D01*
X9807396Y-22092664D02*
X9826444Y-22102188D01*
X9826444Y-22102188D02*
X9835968Y-22111711D01*
X9835968Y-22111711D02*
X9845491Y-22130759D01*
X9845491Y-22130759D02*
X9845491Y-22149807D01*
X9845491Y-22149807D02*
X9835968Y-22178378D01*
X9835968Y-22178378D02*
X9721682Y-22292664D01*
X9721682Y-22292664D02*
X9845491Y-22292664D01*
X9969301Y-22092664D02*
X9988349Y-22092664D01*
X9988349Y-22092664D02*
X10007396Y-22102188D01*
X10007396Y-22102188D02*
X10016920Y-22111711D01*
X10016920Y-22111711D02*
X10026444Y-22130759D01*
X10026444Y-22130759D02*
X10035968Y-22168854D01*
X10035968Y-22168854D02*
X10035968Y-22216473D01*
X10035968Y-22216473D02*
X10026444Y-22254569D01*
X10026444Y-22254569D02*
X10016920Y-22273616D01*
X10016920Y-22273616D02*
X10007396Y-22283140D01*
X10007396Y-22283140D02*
X9988349Y-22292664D01*
X9988349Y-22292664D02*
X9969301Y-22292664D01*
X9969301Y-22292664D02*
X9950253Y-22283140D01*
X9950253Y-22283140D02*
X9940729Y-22273616D01*
X9940729Y-22273616D02*
X9931206Y-22254569D01*
X9931206Y-22254569D02*
X9921682Y-22216473D01*
X9921682Y-22216473D02*
X9921682Y-22168854D01*
X9921682Y-22168854D02*
X9931206Y-22130759D01*
X9931206Y-22130759D02*
X9940729Y-22111711D01*
X9940729Y-22111711D02*
X9950253Y-22102188D01*
X9950253Y-22102188D02*
X9969301Y-22092664D01*
X10159777Y-22092664D02*
X10178825Y-22092664D01*
X10178825Y-22092664D02*
X10197872Y-22102188D01*
X10197872Y-22102188D02*
X10207396Y-22111711D01*
X10207396Y-22111711D02*
X10216920Y-22130759D01*
X10216920Y-22130759D02*
X10226444Y-22168854D01*
X10226444Y-22168854D02*
X10226444Y-22216473D01*
X10226444Y-22216473D02*
X10216920Y-22254569D01*
X10216920Y-22254569D02*
X10207396Y-22273616D01*
X10207396Y-22273616D02*
X10197872Y-22283140D01*
X10197872Y-22283140D02*
X10178825Y-22292664D01*
X10178825Y-22292664D02*
X10159777Y-22292664D01*
X10159777Y-22292664D02*
X10140729Y-22283140D01*
X10140729Y-22283140D02*
X10131206Y-22273616D01*
X10131206Y-22273616D02*
X10121682Y-22254569D01*
X10121682Y-22254569D02*
X10112158Y-22216473D01*
X10112158Y-22216473D02*
X10112158Y-22168854D01*
X10112158Y-22168854D02*
X10121682Y-22130759D01*
X10121682Y-22130759D02*
X10131206Y-22111711D01*
X10131206Y-22111711D02*
X10140729Y-22102188D01*
X10140729Y-22102188D02*
X10159777Y-22092664D01*
X10302634Y-22092664D02*
X10302634Y-22130759D01*
X10378825Y-22092664D02*
X10378825Y-22130759D01*
X10674063Y-22368854D02*
X10664539Y-22359330D01*
X10664539Y-22359330D02*
X10645491Y-22330759D01*
X10645491Y-22330759D02*
X10635968Y-22311711D01*
X10635968Y-22311711D02*
X10626444Y-22283140D01*
X10626444Y-22283140D02*
X10616920Y-22235521D01*
X10616920Y-22235521D02*
X10616920Y-22197426D01*
X10616920Y-22197426D02*
X10626444Y-22149807D01*
X10626444Y-22149807D02*
X10635968Y-22121235D01*
X10635968Y-22121235D02*
X10645491Y-22102188D01*
X10645491Y-22102188D02*
X10664539Y-22073616D01*
X10664539Y-22073616D02*
X10674063Y-22064092D01*
X10835968Y-22092664D02*
X10797872Y-22092664D01*
X10797872Y-22092664D02*
X10778825Y-22102188D01*
X10778825Y-22102188D02*
X10769301Y-22111711D01*
X10769301Y-22111711D02*
X10750253Y-22140283D01*
X10750253Y-22140283D02*
X10740730Y-22178378D01*
X10740730Y-22178378D02*
X10740730Y-22254569D01*
X10740730Y-22254569D02*
X10750253Y-22273616D01*
X10750253Y-22273616D02*
X10759777Y-22283140D01*
X10759777Y-22283140D02*
X10778825Y-22292664D01*
X10778825Y-22292664D02*
X10816920Y-22292664D01*
X10816920Y-22292664D02*
X10835968Y-22283140D01*
X10835968Y-22283140D02*
X10845491Y-22273616D01*
X10845491Y-22273616D02*
X10855015Y-22254569D01*
X10855015Y-22254569D02*
X10855015Y-22206950D01*
X10855015Y-22206950D02*
X10845491Y-22187902D01*
X10845491Y-22187902D02*
X10835968Y-22178378D01*
X10835968Y-22178378D02*
X10816920Y-22168854D01*
X10816920Y-22168854D02*
X10778825Y-22168854D01*
X10778825Y-22168854D02*
X10759777Y-22178378D01*
X10759777Y-22178378D02*
X10750253Y-22187902D01*
X10750253Y-22187902D02*
X10740730Y-22206950D01*
X11093111Y-22292664D02*
X11093111Y-22092664D01*
X11178825Y-22292664D02*
X11178825Y-22187902D01*
X11178825Y-22187902D02*
X11169301Y-22168854D01*
X11169301Y-22168854D02*
X11150253Y-22159330D01*
X11150253Y-22159330D02*
X11121682Y-22159330D01*
X11121682Y-22159330D02*
X11102634Y-22168854D01*
X11102634Y-22168854D02*
X11093111Y-22178378D01*
X11302634Y-22292664D02*
X11283587Y-22283140D01*
X11283587Y-22283140D02*
X11274063Y-22273616D01*
X11274063Y-22273616D02*
X11264539Y-22254569D01*
X11264539Y-22254569D02*
X11264539Y-22197426D01*
X11264539Y-22197426D02*
X11274063Y-22178378D01*
X11274063Y-22178378D02*
X11283587Y-22168854D01*
X11283587Y-22168854D02*
X11302634Y-22159330D01*
X11302634Y-22159330D02*
X11331206Y-22159330D01*
X11331206Y-22159330D02*
X11350253Y-22168854D01*
X11350253Y-22168854D02*
X11359777Y-22178378D01*
X11359777Y-22178378D02*
X11369301Y-22197426D01*
X11369301Y-22197426D02*
X11369301Y-22254569D01*
X11369301Y-22254569D02*
X11359777Y-22273616D01*
X11359777Y-22273616D02*
X11350253Y-22283140D01*
X11350253Y-22283140D02*
X11331206Y-22292664D01*
X11331206Y-22292664D02*
X11302634Y-22292664D01*
X11483587Y-22292664D02*
X11464539Y-22283140D01*
X11464539Y-22283140D02*
X11455015Y-22264092D01*
X11455015Y-22264092D02*
X11455015Y-22092664D01*
X11635968Y-22283140D02*
X11616920Y-22292664D01*
X11616920Y-22292664D02*
X11578825Y-22292664D01*
X11578825Y-22292664D02*
X11559777Y-22283140D01*
X11559777Y-22283140D02*
X11550253Y-22264092D01*
X11550253Y-22264092D02*
X11550253Y-22187902D01*
X11550253Y-22187902D02*
X11559777Y-22168854D01*
X11559777Y-22168854D02*
X11578825Y-22159330D01*
X11578825Y-22159330D02*
X11616920Y-22159330D01*
X11616920Y-22159330D02*
X11635968Y-22168854D01*
X11635968Y-22168854D02*
X11645491Y-22187902D01*
X11645491Y-22187902D02*
X11645491Y-22206950D01*
X11645491Y-22206950D02*
X11550253Y-22225997D01*
X11721682Y-22283140D02*
X11740730Y-22292664D01*
X11740730Y-22292664D02*
X11778825Y-22292664D01*
X11778825Y-22292664D02*
X11797872Y-22283140D01*
X11797872Y-22283140D02*
X11807396Y-22264092D01*
X11807396Y-22264092D02*
X11807396Y-22254569D01*
X11807396Y-22254569D02*
X11797872Y-22235521D01*
X11797872Y-22235521D02*
X11778825Y-22225997D01*
X11778825Y-22225997D02*
X11750253Y-22225997D01*
X11750253Y-22225997D02*
X11731206Y-22216473D01*
X11731206Y-22216473D02*
X11721682Y-22197426D01*
X11721682Y-22197426D02*
X11721682Y-22187902D01*
X11721682Y-22187902D02*
X11731206Y-22168854D01*
X11731206Y-22168854D02*
X11750253Y-22159330D01*
X11750253Y-22159330D02*
X11778825Y-22159330D01*
X11778825Y-22159330D02*
X11797872Y-22168854D01*
X11874063Y-22368854D02*
X11883587Y-22359330D01*
X11883587Y-22359330D02*
X11902634Y-22330759D01*
X11902634Y-22330759D02*
X11912158Y-22311711D01*
X11912158Y-22311711D02*
X11921682Y-22283140D01*
X11921682Y-22283140D02*
X11931206Y-22235521D01*
X11931206Y-22235521D02*
X11931206Y-22197426D01*
X11931206Y-22197426D02*
X11921682Y-22149807D01*
X11921682Y-22149807D02*
X11912158Y-22121235D01*
X11912158Y-22121235D02*
X11902634Y-22102188D01*
X11902634Y-22102188D02*
X11883587Y-22073616D01*
X11883587Y-22073616D02*
X11874063Y-22064092D01*
X12235968Y-22368854D02*
X12226444Y-22359330D01*
X12226444Y-22359330D02*
X12207396Y-22330759D01*
X12207396Y-22330759D02*
X12197872Y-22311711D01*
X12197872Y-22311711D02*
X12188349Y-22283140D01*
X12188349Y-22283140D02*
X12178825Y-22235521D01*
X12178825Y-22235521D02*
X12178825Y-22197426D01*
X12178825Y-22197426D02*
X12188349Y-22149807D01*
X12188349Y-22149807D02*
X12197872Y-22121235D01*
X12197872Y-22121235D02*
X12207396Y-22102188D01*
X12207396Y-22102188D02*
X12226444Y-22073616D01*
X12226444Y-22073616D02*
X12235968Y-22064092D01*
X12312158Y-22159330D02*
X12312158Y-22292664D01*
X12312158Y-22178378D02*
X12321682Y-22168854D01*
X12321682Y-22168854D02*
X12340730Y-22159330D01*
X12340730Y-22159330D02*
X12369301Y-22159330D01*
X12369301Y-22159330D02*
X12388349Y-22168854D01*
X12388349Y-22168854D02*
X12397872Y-22187902D01*
X12397872Y-22187902D02*
X12397872Y-22292664D01*
X12521682Y-22292664D02*
X12502634Y-22283140D01*
X12502634Y-22283140D02*
X12493111Y-22273616D01*
X12493111Y-22273616D02*
X12483587Y-22254569D01*
X12483587Y-22254569D02*
X12483587Y-22197426D01*
X12483587Y-22197426D02*
X12493111Y-22178378D01*
X12493111Y-22178378D02*
X12502634Y-22168854D01*
X12502634Y-22168854D02*
X12521682Y-22159330D01*
X12521682Y-22159330D02*
X12550253Y-22159330D01*
X12550253Y-22159330D02*
X12569301Y-22168854D01*
X12569301Y-22168854D02*
X12578825Y-22178378D01*
X12578825Y-22178378D02*
X12588349Y-22197426D01*
X12588349Y-22197426D02*
X12588349Y-22254569D01*
X12588349Y-22254569D02*
X12578825Y-22273616D01*
X12578825Y-22273616D02*
X12569301Y-22283140D01*
X12569301Y-22283140D02*
X12550253Y-22292664D01*
X12550253Y-22292664D02*
X12521682Y-22292664D01*
X12645492Y-22159330D02*
X12721682Y-22159330D01*
X12674063Y-22092664D02*
X12674063Y-22264092D01*
X12674063Y-22264092D02*
X12683587Y-22283140D01*
X12683587Y-22283140D02*
X12702634Y-22292664D01*
X12702634Y-22292664D02*
X12721682Y-22292664D01*
X12940730Y-22159330D02*
X12940730Y-22359330D01*
X12940730Y-22168854D02*
X12959777Y-22159330D01*
X12959777Y-22159330D02*
X12997873Y-22159330D01*
X12997873Y-22159330D02*
X13016920Y-22168854D01*
X13016920Y-22168854D02*
X13026444Y-22178378D01*
X13026444Y-22178378D02*
X13035968Y-22197426D01*
X13035968Y-22197426D02*
X13035968Y-22254569D01*
X13035968Y-22254569D02*
X13026444Y-22273616D01*
X13026444Y-22273616D02*
X13016920Y-22283140D01*
X13016920Y-22283140D02*
X12997873Y-22292664D01*
X12997873Y-22292664D02*
X12959777Y-22292664D01*
X12959777Y-22292664D02*
X12940730Y-22283140D01*
X13150253Y-22292664D02*
X13131206Y-22283140D01*
X13131206Y-22283140D02*
X13121682Y-22264092D01*
X13121682Y-22264092D02*
X13121682Y-22092664D01*
X13312158Y-22292664D02*
X13312158Y-22187902D01*
X13312158Y-22187902D02*
X13302634Y-22168854D01*
X13302634Y-22168854D02*
X13283587Y-22159330D01*
X13283587Y-22159330D02*
X13245492Y-22159330D01*
X13245492Y-22159330D02*
X13226444Y-22168854D01*
X13312158Y-22283140D02*
X13293111Y-22292664D01*
X13293111Y-22292664D02*
X13245492Y-22292664D01*
X13245492Y-22292664D02*
X13226444Y-22283140D01*
X13226444Y-22283140D02*
X13216920Y-22264092D01*
X13216920Y-22264092D02*
X13216920Y-22245045D01*
X13216920Y-22245045D02*
X13226444Y-22225997D01*
X13226444Y-22225997D02*
X13245492Y-22216473D01*
X13245492Y-22216473D02*
X13293111Y-22216473D01*
X13293111Y-22216473D02*
X13312158Y-22206950D01*
X13378825Y-22159330D02*
X13455015Y-22159330D01*
X13407396Y-22092664D02*
X13407396Y-22264092D01*
X13407396Y-22264092D02*
X13416920Y-22283140D01*
X13416920Y-22283140D02*
X13435968Y-22292664D01*
X13435968Y-22292664D02*
X13455015Y-22292664D01*
X13597873Y-22283140D02*
X13578825Y-22292664D01*
X13578825Y-22292664D02*
X13540730Y-22292664D01*
X13540730Y-22292664D02*
X13521682Y-22283140D01*
X13521682Y-22283140D02*
X13512158Y-22264092D01*
X13512158Y-22264092D02*
X13512158Y-22187902D01*
X13512158Y-22187902D02*
X13521682Y-22168854D01*
X13521682Y-22168854D02*
X13540730Y-22159330D01*
X13540730Y-22159330D02*
X13578825Y-22159330D01*
X13578825Y-22159330D02*
X13597873Y-22168854D01*
X13597873Y-22168854D02*
X13607396Y-22187902D01*
X13607396Y-22187902D02*
X13607396Y-22206950D01*
X13607396Y-22206950D02*
X13512158Y-22225997D01*
X13778825Y-22292664D02*
X13778825Y-22092664D01*
X13778825Y-22283140D02*
X13759777Y-22292664D01*
X13759777Y-22292664D02*
X13721682Y-22292664D01*
X13721682Y-22292664D02*
X13702634Y-22283140D01*
X13702634Y-22283140D02*
X13693111Y-22273616D01*
X13693111Y-22273616D02*
X13683587Y-22254569D01*
X13683587Y-22254569D02*
X13683587Y-22197426D01*
X13683587Y-22197426D02*
X13693111Y-22178378D01*
X13693111Y-22178378D02*
X13702634Y-22168854D01*
X13702634Y-22168854D02*
X13721682Y-22159330D01*
X13721682Y-22159330D02*
X13759777Y-22159330D01*
X13759777Y-22159330D02*
X13778825Y-22168854D01*
X13855015Y-22368854D02*
X13864539Y-22359330D01*
X13864539Y-22359330D02*
X13883587Y-22330759D01*
X13883587Y-22330759D02*
X13893111Y-22311711D01*
X13893111Y-22311711D02*
X13902634Y-22283140D01*
X13902634Y-22283140D02*
X13912158Y-22235521D01*
X13912158Y-22235521D02*
X13912158Y-22197426D01*
X13912158Y-22197426D02*
X13902634Y-22149807D01*
X13902634Y-22149807D02*
X13893111Y-22121235D01*
X13893111Y-22121235D02*
X13883587Y-22102188D01*
X13883587Y-22102188D02*
X13864539Y-22073616D01*
X13864539Y-22073616D02*
X13855015Y-22064092D01*
X6899000Y-22421180D02*
X7099000Y-22621180D01*
X7099000Y-22421180D02*
X6899000Y-22621180D01*
X7099000Y-22521180D02*
G75*
G02*
X6899000Y-22521180I-100000J0D01*
G01*
X6899000Y-22521180D02*
G75*
G02*
X7099000Y-22521180I100000J0D01*
G01*
X7340729Y-22412664D02*
X7464539Y-22412664D01*
X7464539Y-22412664D02*
X7397872Y-22488854D01*
X7397872Y-22488854D02*
X7426443Y-22488854D01*
X7426443Y-22488854D02*
X7445491Y-22498378D01*
X7445491Y-22498378D02*
X7455015Y-22507902D01*
X7455015Y-22507902D02*
X7464539Y-22526949D01*
X7464539Y-22526949D02*
X7464539Y-22574568D01*
X7464539Y-22574568D02*
X7455015Y-22593616D01*
X7455015Y-22593616D02*
X7445491Y-22603140D01*
X7445491Y-22603140D02*
X7426443Y-22612664D01*
X7426443Y-22612664D02*
X7369301Y-22612664D01*
X7369301Y-22612664D02*
X7350253Y-22603140D01*
X7350253Y-22603140D02*
X7340729Y-22593616D01*
X7550253Y-22593616D02*
X7559777Y-22603140D01*
X7559777Y-22603140D02*
X7550253Y-22612664D01*
X7550253Y-22612664D02*
X7540729Y-22603140D01*
X7540729Y-22603140D02*
X7550253Y-22593616D01*
X7550253Y-22593616D02*
X7550253Y-22612664D01*
X7655015Y-22612664D02*
X7693110Y-22612664D01*
X7693110Y-22612664D02*
X7712158Y-22603140D01*
X7712158Y-22603140D02*
X7721682Y-22593616D01*
X7721682Y-22593616D02*
X7740729Y-22565045D01*
X7740729Y-22565045D02*
X7750253Y-22526949D01*
X7750253Y-22526949D02*
X7750253Y-22450759D01*
X7750253Y-22450759D02*
X7740729Y-22431711D01*
X7740729Y-22431711D02*
X7731205Y-22422188D01*
X7731205Y-22422188D02*
X7712158Y-22412664D01*
X7712158Y-22412664D02*
X7674062Y-22412664D01*
X7674062Y-22412664D02*
X7655015Y-22422188D01*
X7655015Y-22422188D02*
X7645491Y-22431711D01*
X7645491Y-22431711D02*
X7635967Y-22450759D01*
X7635967Y-22450759D02*
X7635967Y-22498378D01*
X7635967Y-22498378D02*
X7645491Y-22517426D01*
X7645491Y-22517426D02*
X7655015Y-22526949D01*
X7655015Y-22526949D02*
X7674062Y-22536473D01*
X7674062Y-22536473D02*
X7712158Y-22536473D01*
X7712158Y-22536473D02*
X7731205Y-22526949D01*
X7731205Y-22526949D02*
X7740729Y-22517426D01*
X7740729Y-22517426D02*
X7750253Y-22498378D01*
X7864539Y-22498378D02*
X7845491Y-22488854D01*
X7845491Y-22488854D02*
X7835967Y-22479330D01*
X7835967Y-22479330D02*
X7826443Y-22460283D01*
X7826443Y-22460283D02*
X7826443Y-22450759D01*
X7826443Y-22450759D02*
X7835967Y-22431711D01*
X7835967Y-22431711D02*
X7845491Y-22422188D01*
X7845491Y-22422188D02*
X7864539Y-22412664D01*
X7864539Y-22412664D02*
X7902634Y-22412664D01*
X7902634Y-22412664D02*
X7921682Y-22422188D01*
X7921682Y-22422188D02*
X7931205Y-22431711D01*
X7931205Y-22431711D02*
X7940729Y-22450759D01*
X7940729Y-22450759D02*
X7940729Y-22460283D01*
X7940729Y-22460283D02*
X7931205Y-22479330D01*
X7931205Y-22479330D02*
X7921682Y-22488854D01*
X7921682Y-22488854D02*
X7902634Y-22498378D01*
X7902634Y-22498378D02*
X7864539Y-22498378D01*
X7864539Y-22498378D02*
X7845491Y-22507902D01*
X7845491Y-22507902D02*
X7835967Y-22517426D01*
X7835967Y-22517426D02*
X7826443Y-22536473D01*
X7826443Y-22536473D02*
X7826443Y-22574568D01*
X7826443Y-22574568D02*
X7835967Y-22593616D01*
X7835967Y-22593616D02*
X7845491Y-22603140D01*
X7845491Y-22603140D02*
X7864539Y-22612664D01*
X7864539Y-22612664D02*
X7902634Y-22612664D01*
X7902634Y-22612664D02*
X7921682Y-22603140D01*
X7921682Y-22603140D02*
X7931205Y-22593616D01*
X7931205Y-22593616D02*
X7940729Y-22574568D01*
X7940729Y-22574568D02*
X7940729Y-22536473D01*
X7940729Y-22536473D02*
X7931205Y-22517426D01*
X7931205Y-22517426D02*
X7921682Y-22507902D01*
X7921682Y-22507902D02*
X7902634Y-22498378D01*
X8055015Y-22498378D02*
X8035967Y-22488854D01*
X8035967Y-22488854D02*
X8026443Y-22479330D01*
X8026443Y-22479330D02*
X8016920Y-22460283D01*
X8016920Y-22460283D02*
X8016920Y-22450759D01*
X8016920Y-22450759D02*
X8026443Y-22431711D01*
X8026443Y-22431711D02*
X8035967Y-22422188D01*
X8035967Y-22422188D02*
X8055015Y-22412664D01*
X8055015Y-22412664D02*
X8093110Y-22412664D01*
X8093110Y-22412664D02*
X8112158Y-22422188D01*
X8112158Y-22422188D02*
X8121682Y-22431711D01*
X8121682Y-22431711D02*
X8131205Y-22450759D01*
X8131205Y-22450759D02*
X8131205Y-22460283D01*
X8131205Y-22460283D02*
X8121682Y-22479330D01*
X8121682Y-22479330D02*
X8112158Y-22488854D01*
X8112158Y-22488854D02*
X8093110Y-22498378D01*
X8093110Y-22498378D02*
X8055015Y-22498378D01*
X8055015Y-22498378D02*
X8035967Y-22507902D01*
X8035967Y-22507902D02*
X8026443Y-22517426D01*
X8026443Y-22517426D02*
X8016920Y-22536473D01*
X8016920Y-22536473D02*
X8016920Y-22574568D01*
X8016920Y-22574568D02*
X8026443Y-22593616D01*
X8026443Y-22593616D02*
X8035967Y-22603140D01*
X8035967Y-22603140D02*
X8055015Y-22612664D01*
X8055015Y-22612664D02*
X8093110Y-22612664D01*
X8093110Y-22612664D02*
X8112158Y-22603140D01*
X8112158Y-22603140D02*
X8121682Y-22593616D01*
X8121682Y-22593616D02*
X8131205Y-22574568D01*
X8131205Y-22574568D02*
X8131205Y-22536473D01*
X8131205Y-22536473D02*
X8121682Y-22517426D01*
X8121682Y-22517426D02*
X8112158Y-22507902D01*
X8112158Y-22507902D02*
X8093110Y-22498378D01*
X8216920Y-22612664D02*
X8216920Y-22479330D01*
X8216920Y-22498378D02*
X8226443Y-22488854D01*
X8226443Y-22488854D02*
X8245491Y-22479330D01*
X8245491Y-22479330D02*
X8274063Y-22479330D01*
X8274063Y-22479330D02*
X8293110Y-22488854D01*
X8293110Y-22488854D02*
X8302634Y-22507902D01*
X8302634Y-22507902D02*
X8302634Y-22612664D01*
X8302634Y-22507902D02*
X8312158Y-22488854D01*
X8312158Y-22488854D02*
X8331205Y-22479330D01*
X8331205Y-22479330D02*
X8359777Y-22479330D01*
X8359777Y-22479330D02*
X8378824Y-22488854D01*
X8378824Y-22488854D02*
X8388348Y-22507902D01*
X8388348Y-22507902D02*
X8388348Y-22612664D01*
X8483586Y-22612664D02*
X8483586Y-22479330D01*
X8483586Y-22498378D02*
X8493110Y-22488854D01*
X8493110Y-22488854D02*
X8512158Y-22479330D01*
X8512158Y-22479330D02*
X8540729Y-22479330D01*
X8540729Y-22479330D02*
X8559777Y-22488854D01*
X8559777Y-22488854D02*
X8569301Y-22507902D01*
X8569301Y-22507902D02*
X8569301Y-22612664D01*
X8569301Y-22507902D02*
X8578825Y-22488854D01*
X8578825Y-22488854D02*
X8597872Y-22479330D01*
X8597872Y-22479330D02*
X8626444Y-22479330D01*
X8626444Y-22479330D02*
X8645491Y-22488854D01*
X8645491Y-22488854D02*
X8655015Y-22507902D01*
X8655015Y-22507902D02*
X8655015Y-22612664D01*
X9045491Y-22403140D02*
X8874063Y-22660283D01*
X9302634Y-22412664D02*
X9321682Y-22412664D01*
X9321682Y-22412664D02*
X9340729Y-22422188D01*
X9340729Y-22422188D02*
X9350253Y-22431711D01*
X9350253Y-22431711D02*
X9359777Y-22450759D01*
X9359777Y-22450759D02*
X9369301Y-22488854D01*
X9369301Y-22488854D02*
X9369301Y-22536473D01*
X9369301Y-22536473D02*
X9359777Y-22574568D01*
X9359777Y-22574568D02*
X9350253Y-22593616D01*
X9350253Y-22593616D02*
X9340729Y-22603140D01*
X9340729Y-22603140D02*
X9321682Y-22612664D01*
X9321682Y-22612664D02*
X9302634Y-22612664D01*
X9302634Y-22612664D02*
X9283587Y-22603140D01*
X9283587Y-22603140D02*
X9274063Y-22593616D01*
X9274063Y-22593616D02*
X9264539Y-22574568D01*
X9264539Y-22574568D02*
X9255015Y-22536473D01*
X9255015Y-22536473D02*
X9255015Y-22488854D01*
X9255015Y-22488854D02*
X9264539Y-22450759D01*
X9264539Y-22450759D02*
X9274063Y-22431711D01*
X9274063Y-22431711D02*
X9283587Y-22422188D01*
X9283587Y-22422188D02*
X9302634Y-22412664D01*
X9455015Y-22593616D02*
X9464539Y-22603140D01*
X9464539Y-22603140D02*
X9455015Y-22612664D01*
X9455015Y-22612664D02*
X9445491Y-22603140D01*
X9445491Y-22603140D02*
X9455015Y-22593616D01*
X9455015Y-22593616D02*
X9455015Y-22612664D01*
X9655015Y-22612664D02*
X9540729Y-22612664D01*
X9597872Y-22612664D02*
X9597872Y-22412664D01*
X9597872Y-22412664D02*
X9578825Y-22441235D01*
X9578825Y-22441235D02*
X9559777Y-22460283D01*
X9559777Y-22460283D02*
X9540729Y-22469807D01*
X9835968Y-22412664D02*
X9740729Y-22412664D01*
X9740729Y-22412664D02*
X9731206Y-22507902D01*
X9731206Y-22507902D02*
X9740729Y-22498378D01*
X9740729Y-22498378D02*
X9759777Y-22488854D01*
X9759777Y-22488854D02*
X9807396Y-22488854D01*
X9807396Y-22488854D02*
X9826444Y-22498378D01*
X9826444Y-22498378D02*
X9835968Y-22507902D01*
X9835968Y-22507902D02*
X9845491Y-22526949D01*
X9845491Y-22526949D02*
X9845491Y-22574568D01*
X9845491Y-22574568D02*
X9835968Y-22593616D01*
X9835968Y-22593616D02*
X9826444Y-22603140D01*
X9826444Y-22603140D02*
X9807396Y-22612664D01*
X9807396Y-22612664D02*
X9759777Y-22612664D01*
X9759777Y-22612664D02*
X9740729Y-22603140D01*
X9740729Y-22603140D02*
X9731206Y-22593616D01*
X9912158Y-22412664D02*
X10045491Y-22412664D01*
X10045491Y-22412664D02*
X9959777Y-22612664D01*
X10159777Y-22412664D02*
X10178825Y-22412664D01*
X10178825Y-22412664D02*
X10197872Y-22422188D01*
X10197872Y-22422188D02*
X10207396Y-22431711D01*
X10207396Y-22431711D02*
X10216920Y-22450759D01*
X10216920Y-22450759D02*
X10226444Y-22488854D01*
X10226444Y-22488854D02*
X10226444Y-22536473D01*
X10226444Y-22536473D02*
X10216920Y-22574568D01*
X10216920Y-22574568D02*
X10207396Y-22593616D01*
X10207396Y-22593616D02*
X10197872Y-22603140D01*
X10197872Y-22603140D02*
X10178825Y-22612664D01*
X10178825Y-22612664D02*
X10159777Y-22612664D01*
X10159777Y-22612664D02*
X10140729Y-22603140D01*
X10140729Y-22603140D02*
X10131206Y-22593616D01*
X10131206Y-22593616D02*
X10121682Y-22574568D01*
X10121682Y-22574568D02*
X10112158Y-22536473D01*
X10112158Y-22536473D02*
X10112158Y-22488854D01*
X10112158Y-22488854D02*
X10121682Y-22450759D01*
X10121682Y-22450759D02*
X10131206Y-22431711D01*
X10131206Y-22431711D02*
X10140729Y-22422188D01*
X10140729Y-22422188D02*
X10159777Y-22412664D01*
X10302634Y-22412664D02*
X10302634Y-22450759D01*
X10378825Y-22412664D02*
X10378825Y-22450759D01*
X10674063Y-22688854D02*
X10664539Y-22679330D01*
X10664539Y-22679330D02*
X10645491Y-22650759D01*
X10645491Y-22650759D02*
X10635968Y-22631711D01*
X10635968Y-22631711D02*
X10626444Y-22603140D01*
X10626444Y-22603140D02*
X10616920Y-22555521D01*
X10616920Y-22555521D02*
X10616920Y-22517426D01*
X10616920Y-22517426D02*
X10626444Y-22469807D01*
X10626444Y-22469807D02*
X10635968Y-22441235D01*
X10635968Y-22441235D02*
X10645491Y-22422188D01*
X10645491Y-22422188D02*
X10664539Y-22393616D01*
X10664539Y-22393616D02*
X10674063Y-22384092D01*
X10740730Y-22431711D02*
X10750253Y-22422188D01*
X10750253Y-22422188D02*
X10769301Y-22412664D01*
X10769301Y-22412664D02*
X10816920Y-22412664D01*
X10816920Y-22412664D02*
X10835968Y-22422188D01*
X10835968Y-22422188D02*
X10845491Y-22431711D01*
X10845491Y-22431711D02*
X10855015Y-22450759D01*
X10855015Y-22450759D02*
X10855015Y-22469807D01*
X10855015Y-22469807D02*
X10845491Y-22498378D01*
X10845491Y-22498378D02*
X10731206Y-22612664D01*
X10731206Y-22612664D02*
X10855015Y-22612664D01*
X11026444Y-22479330D02*
X11026444Y-22612664D01*
X10978825Y-22403140D02*
X10931206Y-22545997D01*
X10931206Y-22545997D02*
X11055015Y-22545997D01*
X11283587Y-22612664D02*
X11283587Y-22412664D01*
X11369301Y-22612664D02*
X11369301Y-22507902D01*
X11369301Y-22507902D02*
X11359777Y-22488854D01*
X11359777Y-22488854D02*
X11340730Y-22479330D01*
X11340730Y-22479330D02*
X11312158Y-22479330D01*
X11312158Y-22479330D02*
X11293110Y-22488854D01*
X11293110Y-22488854D02*
X11283587Y-22498378D01*
X11493110Y-22612664D02*
X11474063Y-22603140D01*
X11474063Y-22603140D02*
X11464539Y-22593616D01*
X11464539Y-22593616D02*
X11455015Y-22574568D01*
X11455015Y-22574568D02*
X11455015Y-22517426D01*
X11455015Y-22517426D02*
X11464539Y-22498378D01*
X11464539Y-22498378D02*
X11474063Y-22488854D01*
X11474063Y-22488854D02*
X11493110Y-22479330D01*
X11493110Y-22479330D02*
X11521682Y-22479330D01*
X11521682Y-22479330D02*
X11540730Y-22488854D01*
X11540730Y-22488854D02*
X11550253Y-22498378D01*
X11550253Y-22498378D02*
X11559777Y-22517426D01*
X11559777Y-22517426D02*
X11559777Y-22574568D01*
X11559777Y-22574568D02*
X11550253Y-22593616D01*
X11550253Y-22593616D02*
X11540730Y-22603140D01*
X11540730Y-22603140D02*
X11521682Y-22612664D01*
X11521682Y-22612664D02*
X11493110Y-22612664D01*
X11674063Y-22612664D02*
X11655015Y-22603140D01*
X11655015Y-22603140D02*
X11645491Y-22584092D01*
X11645491Y-22584092D02*
X11645491Y-22412664D01*
X11826444Y-22603140D02*
X11807396Y-22612664D01*
X11807396Y-22612664D02*
X11769301Y-22612664D01*
X11769301Y-22612664D02*
X11750253Y-22603140D01*
X11750253Y-22603140D02*
X11740730Y-22584092D01*
X11740730Y-22584092D02*
X11740730Y-22507902D01*
X11740730Y-22507902D02*
X11750253Y-22488854D01*
X11750253Y-22488854D02*
X11769301Y-22479330D01*
X11769301Y-22479330D02*
X11807396Y-22479330D01*
X11807396Y-22479330D02*
X11826444Y-22488854D01*
X11826444Y-22488854D02*
X11835968Y-22507902D01*
X11835968Y-22507902D02*
X11835968Y-22526949D01*
X11835968Y-22526949D02*
X11740730Y-22545997D01*
X11912158Y-22603140D02*
X11931206Y-22612664D01*
X11931206Y-22612664D02*
X11969301Y-22612664D01*
X11969301Y-22612664D02*
X11988349Y-22603140D01*
X11988349Y-22603140D02*
X11997872Y-22584092D01*
X11997872Y-22584092D02*
X11997872Y-22574568D01*
X11997872Y-22574568D02*
X11988349Y-22555521D01*
X11988349Y-22555521D02*
X11969301Y-22545997D01*
X11969301Y-22545997D02*
X11940730Y-22545997D01*
X11940730Y-22545997D02*
X11921682Y-22536473D01*
X11921682Y-22536473D02*
X11912158Y-22517426D01*
X11912158Y-22517426D02*
X11912158Y-22507902D01*
X11912158Y-22507902D02*
X11921682Y-22488854D01*
X11921682Y-22488854D02*
X11940730Y-22479330D01*
X11940730Y-22479330D02*
X11969301Y-22479330D01*
X11969301Y-22479330D02*
X11988349Y-22488854D01*
X12064539Y-22688854D02*
X12074063Y-22679330D01*
X12074063Y-22679330D02*
X12093111Y-22650759D01*
X12093111Y-22650759D02*
X12102634Y-22631711D01*
X12102634Y-22631711D02*
X12112158Y-22603140D01*
X12112158Y-22603140D02*
X12121682Y-22555521D01*
X12121682Y-22555521D02*
X12121682Y-22517426D01*
X12121682Y-22517426D02*
X12112158Y-22469807D01*
X12112158Y-22469807D02*
X12102634Y-22441235D01*
X12102634Y-22441235D02*
X12093111Y-22422188D01*
X12093111Y-22422188D02*
X12074063Y-22393616D01*
X12074063Y-22393616D02*
X12064539Y-22384092D01*
X12426444Y-22688854D02*
X12416920Y-22679330D01*
X12416920Y-22679330D02*
X12397872Y-22650759D01*
X12397872Y-22650759D02*
X12388349Y-22631711D01*
X12388349Y-22631711D02*
X12378825Y-22603140D01*
X12378825Y-22603140D02*
X12369301Y-22555521D01*
X12369301Y-22555521D02*
X12369301Y-22517426D01*
X12369301Y-22517426D02*
X12378825Y-22469807D01*
X12378825Y-22469807D02*
X12388349Y-22441235D01*
X12388349Y-22441235D02*
X12397872Y-22422188D01*
X12397872Y-22422188D02*
X12416920Y-22393616D01*
X12416920Y-22393616D02*
X12426444Y-22384092D01*
X12502634Y-22479330D02*
X12502634Y-22612664D01*
X12502634Y-22498378D02*
X12512158Y-22488854D01*
X12512158Y-22488854D02*
X12531206Y-22479330D01*
X12531206Y-22479330D02*
X12559777Y-22479330D01*
X12559777Y-22479330D02*
X12578825Y-22488854D01*
X12578825Y-22488854D02*
X12588349Y-22507902D01*
X12588349Y-22507902D02*
X12588349Y-22612664D01*
X12712158Y-22612664D02*
X12693111Y-22603140D01*
X12693111Y-22603140D02*
X12683587Y-22593616D01*
X12683587Y-22593616D02*
X12674063Y-22574568D01*
X12674063Y-22574568D02*
X12674063Y-22517426D01*
X12674063Y-22517426D02*
X12683587Y-22498378D01*
X12683587Y-22498378D02*
X12693111Y-22488854D01*
X12693111Y-22488854D02*
X12712158Y-22479330D01*
X12712158Y-22479330D02*
X12740730Y-22479330D01*
X12740730Y-22479330D02*
X12759777Y-22488854D01*
X12759777Y-22488854D02*
X12769301Y-22498378D01*
X12769301Y-22498378D02*
X12778825Y-22517426D01*
X12778825Y-22517426D02*
X12778825Y-22574568D01*
X12778825Y-22574568D02*
X12769301Y-22593616D01*
X12769301Y-22593616D02*
X12759777Y-22603140D01*
X12759777Y-22603140D02*
X12740730Y-22612664D01*
X12740730Y-22612664D02*
X12712158Y-22612664D01*
X12835968Y-22479330D02*
X12912158Y-22479330D01*
X12864539Y-22412664D02*
X12864539Y-22584092D01*
X12864539Y-22584092D02*
X12874063Y-22603140D01*
X12874063Y-22603140D02*
X12893111Y-22612664D01*
X12893111Y-22612664D02*
X12912158Y-22612664D01*
X13131206Y-22479330D02*
X13131206Y-22679330D01*
X13131206Y-22488854D02*
X13150253Y-22479330D01*
X13150253Y-22479330D02*
X13188349Y-22479330D01*
X13188349Y-22479330D02*
X13207396Y-22488854D01*
X13207396Y-22488854D02*
X13216920Y-22498378D01*
X13216920Y-22498378D02*
X13226444Y-22517426D01*
X13226444Y-22517426D02*
X13226444Y-22574568D01*
X13226444Y-22574568D02*
X13216920Y-22593616D01*
X13216920Y-22593616D02*
X13207396Y-22603140D01*
X13207396Y-22603140D02*
X13188349Y-22612664D01*
X13188349Y-22612664D02*
X13150253Y-22612664D01*
X13150253Y-22612664D02*
X13131206Y-22603140D01*
X13340730Y-22612664D02*
X13321682Y-22603140D01*
X13321682Y-22603140D02*
X13312158Y-22584092D01*
X13312158Y-22584092D02*
X13312158Y-22412664D01*
X13502634Y-22612664D02*
X13502634Y-22507902D01*
X13502634Y-22507902D02*
X13493111Y-22488854D01*
X13493111Y-22488854D02*
X13474063Y-22479330D01*
X13474063Y-22479330D02*
X13435968Y-22479330D01*
X13435968Y-22479330D02*
X13416920Y-22488854D01*
X13502634Y-22603140D02*
X13483587Y-22612664D01*
X13483587Y-22612664D02*
X13435968Y-22612664D01*
X13435968Y-22612664D02*
X13416920Y-22603140D01*
X13416920Y-22603140D02*
X13407396Y-22584092D01*
X13407396Y-22584092D02*
X13407396Y-22565045D01*
X13407396Y-22565045D02*
X13416920Y-22545997D01*
X13416920Y-22545997D02*
X13435968Y-22536473D01*
X13435968Y-22536473D02*
X13483587Y-22536473D01*
X13483587Y-22536473D02*
X13502634Y-22526949D01*
X13569301Y-22479330D02*
X13645492Y-22479330D01*
X13597873Y-22412664D02*
X13597873Y-22584092D01*
X13597873Y-22584092D02*
X13607396Y-22603140D01*
X13607396Y-22603140D02*
X13626444Y-22612664D01*
X13626444Y-22612664D02*
X13645492Y-22612664D01*
X13788349Y-22603140D02*
X13769301Y-22612664D01*
X13769301Y-22612664D02*
X13731206Y-22612664D01*
X13731206Y-22612664D02*
X13712158Y-22603140D01*
X13712158Y-22603140D02*
X13702634Y-22584092D01*
X13702634Y-22584092D02*
X13702634Y-22507902D01*
X13702634Y-22507902D02*
X13712158Y-22488854D01*
X13712158Y-22488854D02*
X13731206Y-22479330D01*
X13731206Y-22479330D02*
X13769301Y-22479330D01*
X13769301Y-22479330D02*
X13788349Y-22488854D01*
X13788349Y-22488854D02*
X13797873Y-22507902D01*
X13797873Y-22507902D02*
X13797873Y-22526949D01*
X13797873Y-22526949D02*
X13702634Y-22545997D01*
X13969301Y-22612664D02*
X13969301Y-22412664D01*
X13969301Y-22603140D02*
X13950254Y-22612664D01*
X13950254Y-22612664D02*
X13912158Y-22612664D01*
X13912158Y-22612664D02*
X13893111Y-22603140D01*
X13893111Y-22603140D02*
X13883587Y-22593616D01*
X13883587Y-22593616D02*
X13874063Y-22574568D01*
X13874063Y-22574568D02*
X13874063Y-22517426D01*
X13874063Y-22517426D02*
X13883587Y-22498378D01*
X13883587Y-22498378D02*
X13893111Y-22488854D01*
X13893111Y-22488854D02*
X13912158Y-22479330D01*
X13912158Y-22479330D02*
X13950254Y-22479330D01*
X13950254Y-22479330D02*
X13969301Y-22488854D01*
X14045492Y-22688854D02*
X14055015Y-22679330D01*
X14055015Y-22679330D02*
X14074063Y-22650759D01*
X14074063Y-22650759D02*
X14083587Y-22631711D01*
X14083587Y-22631711D02*
X14093111Y-22603140D01*
X14093111Y-22603140D02*
X14102634Y-22555521D01*
X14102634Y-22555521D02*
X14102634Y-22517426D01*
X14102634Y-22517426D02*
X14093111Y-22469807D01*
X14093111Y-22469807D02*
X14083587Y-22441235D01*
X14083587Y-22441235D02*
X14074063Y-22422188D01*
X14074063Y-22422188D02*
X14055015Y-22393616D01*
X14055015Y-22393616D02*
X14045492Y-22384092D01*
M02*
