M48
; DRILL file {KiCad 8.0.3} date 2024-07-24T13:05:14+0200
; FORMAT={-:-/ absolute / metric / decimal}
; #@! TF.CreationDate,2024-07-24T13:05:14+02:00
; #@! TF.GenerationSoftware,Kicad,Pcbnew,8.0.3
; #@! TF.FileFunction,NonPlated,1,2,NPTH
FMAT,2
METRIC
; #@! TA.AperFunction,NonPlated,NPTH,ComponentDrill
T1C1.600
; #@! TA.AperFunction,NonPlated,NPTH,ComponentDrill
T2C1.702
; #@! TA.AperFunction,NonPlated,NPTH,ComponentDrill
T3C2.200
; #@! TA.AperFunction,NonPlated,NPTH,ComponentDrill
T4C3.000
; #@! TA.AperFunction,NonPlated,NPTH,ComponentDrill
T5C3.048
; #@! TA.AperFunction,NonPlated,NPTH,ComponentDrill
T6C3.988
%
G90
G05
T1
X78.215Y-37.735
X78.215Y-44.735
T2
X81.72Y-108.025
X81.72Y-127.075
X81.72Y-146.125
X81.72Y-165.175
X91.245Y-184.225
X91.88Y-108.025
X91.88Y-127.075
X91.88Y-146.125
X91.88Y-165.175
X100.77Y-108.025
X100.77Y-127.075
X100.77Y-146.125
X100.77Y-165.175
X101.405Y-184.225
X110.93Y-108.025
X110.93Y-127.075
X110.93Y-146.125
X110.93Y-165.175
X119.82Y-108.025
X119.82Y-127.075
X119.82Y-146.125
X119.82Y-165.175
X119.82Y-184.225
X129.98Y-108.025
X129.98Y-127.075
X129.98Y-146.125
X129.98Y-165.175
X129.98Y-184.225
X138.87Y-69.925
X138.87Y-108.025
X138.87Y-136.6
X138.87Y-174.7
X149.03Y-69.925
X149.03Y-108.025
X149.03Y-136.6
X149.03Y-174.7
T3
X75.015Y-68.585
X75.015Y-199.585
X144.015Y-123.585
X156.015Y-39.585
X156.015Y-199.585
T4
X82.99Y-105.485
X82.99Y-124.535
X82.99Y-143.585
X82.99Y-162.635
X89.34Y-102.945
X89.34Y-121.995
X89.34Y-141.045
X89.34Y-160.095
X92.515Y-181.685
X98.865Y-179.145
X102.04Y-105.485
X102.04Y-124.535
X102.04Y-143.585
X102.04Y-162.635
X108.39Y-102.945
X108.39Y-121.995
X108.39Y-141.045
X108.39Y-160.095
X121.09Y-105.485
X121.09Y-124.535
X121.09Y-143.585
X121.09Y-162.635
X121.09Y-181.685
X127.44Y-102.945
X127.44Y-121.995
X127.44Y-141.045
X127.44Y-160.095
X127.44Y-179.145
X140.14Y-67.385
X140.14Y-105.485
X140.14Y-134.06
X140.14Y-172.16
X146.49Y-64.845
X146.49Y-102.945
X146.49Y-131.52
X146.49Y-169.62
T5
X84.387Y-177.24
X108.263Y-177.24
X150.935Y-124.662
X150.935Y-148.538
X150.935Y-162.762
X150.935Y-186.638
T6
X84.387Y-192.48
X86.8Y-108.025
X86.8Y-127.075
X86.8Y-146.125
X86.8Y-165.175
X96.325Y-184.225
X105.85Y-108.025
X105.85Y-127.075
X105.85Y-146.125
X105.85Y-165.175
X108.263Y-192.48
X124.9Y-108.025
X124.9Y-127.075
X124.9Y-146.125
X124.9Y-165.175
X124.9Y-184.225
X135.695Y-124.662
X135.695Y-148.538
X135.695Y-162.762
X135.695Y-186.638
X143.95Y-69.925
X143.95Y-108.025
X143.95Y-136.6
X143.95Y-174.7
M30
