%TF.GenerationSoftware,KiCad,Pcbnew,8.0.3*%
%TF.CreationDate,2024-07-24T13:04:13+02:00*%
%TF.ProjectId,numerical,6e756d65-7269-4636-916c-2e6b69636164,rev?*%
%TF.SameCoordinates,Original*%
%TF.FileFunction,Legend,Bot*%
%TF.FilePolarity,Positive*%
%FSLAX46Y46*%
G04 Gerber Fmt 4.6, Leading zero omitted, Abs format (unit mm)*
G04 Created by KiCad (PCBNEW 8.0.3) date 2024-07-24 13:04:13*
%MOMM*%
%LPD*%
G01*
G04 APERTURE LIST*
G04 Aperture macros list*
%AMRoundRect*
0 Rectangle with rounded corners*
0 $1 Rounding radius*
0 $2 $3 $4 $5 $6 $7 $8 $9 X,Y pos of 4 corners*
0 Add a 4 corners polygon primitive as box body*
4,1,4,$2,$3,$4,$5,$6,$7,$8,$9,$2,$3,0*
0 Add four circle primitives for the rounded corners*
1,1,$1+$1,$2,$3*
1,1,$1+$1,$4,$5*
1,1,$1+$1,$6,$7*
1,1,$1+$1,$8,$9*
0 Add four rect primitives between the rounded corners*
20,1,$1+$1,$2,$3,$4,$5,0*
20,1,$1+$1,$4,$5,$6,$7,0*
20,1,$1+$1,$6,$7,$8,$9,0*
20,1,$1+$1,$8,$9,$2,$3,0*%
G04 Aperture macros list end*
%ADD10C,0.100000*%
%ADD11C,0.150000*%
%ADD12C,0.120000*%
%ADD13C,1.701800*%
%ADD14C,3.000000*%
%ADD15C,3.987800*%
%ADD16RoundRect,0.200000X-1.075000X-1.050000X1.075000X-1.050000X1.075000X1.050000X-1.075000X1.050000X0*%
%ADD17C,3.048000*%
%ADD18R,1.905000X1.905000*%
%ADD19C,1.905000*%
%ADD20C,2.200000*%
%ADD21R,1.200000X1.200000*%
%ADD22RoundRect,0.237500X-0.237500X0.250000X-0.237500X-0.250000X0.237500X-0.250000X0.237500X0.250000X0*%
%ADD23C,1.600000*%
%ADD24O,1.600000X1.600000*%
%ADD25O,1.700000X1.700000*%
%ADD26R,3.500000X1.700000*%
%ADD27R,1.700000X1.700000*%
%ADD28R,1.700000X3.500000*%
%ADD29R,2.500000X1.200000*%
G04 APERTURE END LIST*
D10*
X119015000Y-53585000D02*
X127015000Y-45585000D01*
X123015000Y-49585000D02*
X127015000Y-49585000D01*
X131015000Y-53585000D02*
X127015000Y-49585000D01*
X127015000Y-45585000D02*
X127015000Y-53585000D01*
X131015000Y-45585000D02*
X127015000Y-49585000D01*
D11*
X114354819Y-149650714D02*
X113354819Y-149650714D01*
X113354819Y-149650714D02*
X113354819Y-149888809D01*
X113354819Y-149888809D02*
X113402438Y-150031666D01*
X113402438Y-150031666D02*
X113497676Y-150126904D01*
X113497676Y-150126904D02*
X113592914Y-150174523D01*
X113592914Y-150174523D02*
X113783390Y-150222142D01*
X113783390Y-150222142D02*
X113926247Y-150222142D01*
X113926247Y-150222142D02*
X114116723Y-150174523D01*
X114116723Y-150174523D02*
X114211961Y-150126904D01*
X114211961Y-150126904D02*
X114307200Y-150031666D01*
X114307200Y-150031666D02*
X114354819Y-149888809D01*
X114354819Y-149888809D02*
X114354819Y-149650714D01*
X114354819Y-151174523D02*
X114354819Y-150603095D01*
X114354819Y-150888809D02*
X113354819Y-150888809D01*
X113354819Y-150888809D02*
X113497676Y-150793571D01*
X113497676Y-150793571D02*
X113592914Y-150698333D01*
X113592914Y-150698333D02*
X113640533Y-150603095D01*
X113450057Y-151555476D02*
X113402438Y-151603095D01*
X113402438Y-151603095D02*
X113354819Y-151698333D01*
X113354819Y-151698333D02*
X113354819Y-151936428D01*
X113354819Y-151936428D02*
X113402438Y-152031666D01*
X113402438Y-152031666D02*
X113450057Y-152079285D01*
X113450057Y-152079285D02*
X113545295Y-152126904D01*
X113545295Y-152126904D02*
X113640533Y-152126904D01*
X113640533Y-152126904D02*
X113783390Y-152079285D01*
X113783390Y-152079285D02*
X114354819Y-151507857D01*
X114354819Y-151507857D02*
X114354819Y-152126904D01*
X104829819Y-187750714D02*
X103829819Y-187750714D01*
X103829819Y-187750714D02*
X103829819Y-187988809D01*
X103829819Y-187988809D02*
X103877438Y-188131666D01*
X103877438Y-188131666D02*
X103972676Y-188226904D01*
X103972676Y-188226904D02*
X104067914Y-188274523D01*
X104067914Y-188274523D02*
X104258390Y-188322142D01*
X104258390Y-188322142D02*
X104401247Y-188322142D01*
X104401247Y-188322142D02*
X104591723Y-188274523D01*
X104591723Y-188274523D02*
X104686961Y-188226904D01*
X104686961Y-188226904D02*
X104782200Y-188131666D01*
X104782200Y-188131666D02*
X104829819Y-187988809D01*
X104829819Y-187988809D02*
X104829819Y-187750714D01*
X103925057Y-188703095D02*
X103877438Y-188750714D01*
X103877438Y-188750714D02*
X103829819Y-188845952D01*
X103829819Y-188845952D02*
X103829819Y-189084047D01*
X103829819Y-189084047D02*
X103877438Y-189179285D01*
X103877438Y-189179285D02*
X103925057Y-189226904D01*
X103925057Y-189226904D02*
X104020295Y-189274523D01*
X104020295Y-189274523D02*
X104115533Y-189274523D01*
X104115533Y-189274523D02*
X104258390Y-189226904D01*
X104258390Y-189226904D02*
X104829819Y-188655476D01*
X104829819Y-188655476D02*
X104829819Y-189274523D01*
X104829819Y-190226904D02*
X104829819Y-189655476D01*
X104829819Y-189941190D02*
X103829819Y-189941190D01*
X103829819Y-189941190D02*
X103972676Y-189845952D01*
X103972676Y-189845952D02*
X104067914Y-189750714D01*
X104067914Y-189750714D02*
X104115533Y-189655476D01*
X79554819Y-132258333D02*
X79078628Y-131925000D01*
X79554819Y-131686905D02*
X78554819Y-131686905D01*
X78554819Y-131686905D02*
X78554819Y-132067857D01*
X78554819Y-132067857D02*
X78602438Y-132163095D01*
X78602438Y-132163095D02*
X78650057Y-132210714D01*
X78650057Y-132210714D02*
X78745295Y-132258333D01*
X78745295Y-132258333D02*
X78888152Y-132258333D01*
X78888152Y-132258333D02*
X78983390Y-132210714D01*
X78983390Y-132210714D02*
X79031009Y-132163095D01*
X79031009Y-132163095D02*
X79078628Y-132067857D01*
X79078628Y-132067857D02*
X79078628Y-131686905D01*
X78554819Y-132591667D02*
X78554819Y-133210714D01*
X78554819Y-133210714D02*
X78935771Y-132877381D01*
X78935771Y-132877381D02*
X78935771Y-133020238D01*
X78935771Y-133020238D02*
X78983390Y-133115476D01*
X78983390Y-133115476D02*
X79031009Y-133163095D01*
X79031009Y-133163095D02*
X79126247Y-133210714D01*
X79126247Y-133210714D02*
X79364342Y-133210714D01*
X79364342Y-133210714D02*
X79459580Y-133163095D01*
X79459580Y-133163095D02*
X79507200Y-133115476D01*
X79507200Y-133115476D02*
X79554819Y-133020238D01*
X79554819Y-133020238D02*
X79554819Y-132734524D01*
X79554819Y-132734524D02*
X79507200Y-132639286D01*
X79507200Y-132639286D02*
X79459580Y-132591667D01*
X95304819Y-168700714D02*
X94304819Y-168700714D01*
X94304819Y-168700714D02*
X94304819Y-168938809D01*
X94304819Y-168938809D02*
X94352438Y-169081666D01*
X94352438Y-169081666D02*
X94447676Y-169176904D01*
X94447676Y-169176904D02*
X94542914Y-169224523D01*
X94542914Y-169224523D02*
X94733390Y-169272142D01*
X94733390Y-169272142D02*
X94876247Y-169272142D01*
X94876247Y-169272142D02*
X95066723Y-169224523D01*
X95066723Y-169224523D02*
X95161961Y-169176904D01*
X95161961Y-169176904D02*
X95257200Y-169081666D01*
X95257200Y-169081666D02*
X95304819Y-168938809D01*
X95304819Y-168938809D02*
X95304819Y-168700714D01*
X95304819Y-170224523D02*
X95304819Y-169653095D01*
X95304819Y-169938809D02*
X94304819Y-169938809D01*
X94304819Y-169938809D02*
X94447676Y-169843571D01*
X94447676Y-169843571D02*
X94542914Y-169748333D01*
X94542914Y-169748333D02*
X94590533Y-169653095D01*
X94304819Y-171081666D02*
X94304819Y-170891190D01*
X94304819Y-170891190D02*
X94352438Y-170795952D01*
X94352438Y-170795952D02*
X94400057Y-170748333D01*
X94400057Y-170748333D02*
X94542914Y-170653095D01*
X94542914Y-170653095D02*
X94733390Y-170605476D01*
X94733390Y-170605476D02*
X95114342Y-170605476D01*
X95114342Y-170605476D02*
X95209580Y-170653095D01*
X95209580Y-170653095D02*
X95257200Y-170700714D01*
X95257200Y-170700714D02*
X95304819Y-170795952D01*
X95304819Y-170795952D02*
X95304819Y-170986428D01*
X95304819Y-170986428D02*
X95257200Y-171081666D01*
X95257200Y-171081666D02*
X95209580Y-171129285D01*
X95209580Y-171129285D02*
X95114342Y-171176904D01*
X95114342Y-171176904D02*
X94876247Y-171176904D01*
X94876247Y-171176904D02*
X94781009Y-171129285D01*
X94781009Y-171129285D02*
X94733390Y-171081666D01*
X94733390Y-171081666D02*
X94685771Y-170986428D01*
X94685771Y-170986428D02*
X94685771Y-170795952D01*
X94685771Y-170795952D02*
X94733390Y-170700714D01*
X94733390Y-170700714D02*
X94781009Y-170653095D01*
X94781009Y-170653095D02*
X94876247Y-170605476D01*
X84349819Y-56228333D02*
X83873628Y-55895000D01*
X84349819Y-55656905D02*
X83349819Y-55656905D01*
X83349819Y-55656905D02*
X83349819Y-56037857D01*
X83349819Y-56037857D02*
X83397438Y-56133095D01*
X83397438Y-56133095D02*
X83445057Y-56180714D01*
X83445057Y-56180714D02*
X83540295Y-56228333D01*
X83540295Y-56228333D02*
X83683152Y-56228333D01*
X83683152Y-56228333D02*
X83778390Y-56180714D01*
X83778390Y-56180714D02*
X83826009Y-56133095D01*
X83826009Y-56133095D02*
X83873628Y-56037857D01*
X83873628Y-56037857D02*
X83873628Y-55656905D01*
X83445057Y-56609286D02*
X83397438Y-56656905D01*
X83397438Y-56656905D02*
X83349819Y-56752143D01*
X83349819Y-56752143D02*
X83349819Y-56990238D01*
X83349819Y-56990238D02*
X83397438Y-57085476D01*
X83397438Y-57085476D02*
X83445057Y-57133095D01*
X83445057Y-57133095D02*
X83540295Y-57180714D01*
X83540295Y-57180714D02*
X83635533Y-57180714D01*
X83635533Y-57180714D02*
X83778390Y-57133095D01*
X83778390Y-57133095D02*
X84349819Y-56561667D01*
X84349819Y-56561667D02*
X84349819Y-57180714D01*
X133404819Y-112026905D02*
X132404819Y-112026905D01*
X132404819Y-112026905D02*
X132404819Y-112265000D01*
X132404819Y-112265000D02*
X132452438Y-112407857D01*
X132452438Y-112407857D02*
X132547676Y-112503095D01*
X132547676Y-112503095D02*
X132642914Y-112550714D01*
X132642914Y-112550714D02*
X132833390Y-112598333D01*
X132833390Y-112598333D02*
X132976247Y-112598333D01*
X132976247Y-112598333D02*
X133166723Y-112550714D01*
X133166723Y-112550714D02*
X133261961Y-112503095D01*
X133261961Y-112503095D02*
X133357200Y-112407857D01*
X133357200Y-112407857D02*
X133404819Y-112265000D01*
X133404819Y-112265000D02*
X133404819Y-112026905D01*
X132738152Y-113455476D02*
X133404819Y-113455476D01*
X132357200Y-113217381D02*
X133071485Y-112979286D01*
X133071485Y-112979286D02*
X133071485Y-113598333D01*
X79554819Y-169882142D02*
X79078628Y-169548809D01*
X79554819Y-169310714D02*
X78554819Y-169310714D01*
X78554819Y-169310714D02*
X78554819Y-169691666D01*
X78554819Y-169691666D02*
X78602438Y-169786904D01*
X78602438Y-169786904D02*
X78650057Y-169834523D01*
X78650057Y-169834523D02*
X78745295Y-169882142D01*
X78745295Y-169882142D02*
X78888152Y-169882142D01*
X78888152Y-169882142D02*
X78983390Y-169834523D01*
X78983390Y-169834523D02*
X79031009Y-169786904D01*
X79031009Y-169786904D02*
X79078628Y-169691666D01*
X79078628Y-169691666D02*
X79078628Y-169310714D01*
X79554819Y-170834523D02*
X79554819Y-170263095D01*
X79554819Y-170548809D02*
X78554819Y-170548809D01*
X78554819Y-170548809D02*
X78697676Y-170453571D01*
X78697676Y-170453571D02*
X78792914Y-170358333D01*
X78792914Y-170358333D02*
X78840533Y-170263095D01*
X78983390Y-171405952D02*
X78935771Y-171310714D01*
X78935771Y-171310714D02*
X78888152Y-171263095D01*
X78888152Y-171263095D02*
X78792914Y-171215476D01*
X78792914Y-171215476D02*
X78745295Y-171215476D01*
X78745295Y-171215476D02*
X78650057Y-171263095D01*
X78650057Y-171263095D02*
X78602438Y-171310714D01*
X78602438Y-171310714D02*
X78554819Y-171405952D01*
X78554819Y-171405952D02*
X78554819Y-171596428D01*
X78554819Y-171596428D02*
X78602438Y-171691666D01*
X78602438Y-171691666D02*
X78650057Y-171739285D01*
X78650057Y-171739285D02*
X78745295Y-171786904D01*
X78745295Y-171786904D02*
X78792914Y-171786904D01*
X78792914Y-171786904D02*
X78888152Y-171739285D01*
X78888152Y-171739285D02*
X78935771Y-171691666D01*
X78935771Y-171691666D02*
X78983390Y-171596428D01*
X78983390Y-171596428D02*
X78983390Y-171405952D01*
X78983390Y-171405952D02*
X79031009Y-171310714D01*
X79031009Y-171310714D02*
X79078628Y-171263095D01*
X79078628Y-171263095D02*
X79173866Y-171215476D01*
X79173866Y-171215476D02*
X79364342Y-171215476D01*
X79364342Y-171215476D02*
X79459580Y-171263095D01*
X79459580Y-171263095D02*
X79507200Y-171310714D01*
X79507200Y-171310714D02*
X79554819Y-171405952D01*
X79554819Y-171405952D02*
X79554819Y-171596428D01*
X79554819Y-171596428D02*
X79507200Y-171691666D01*
X79507200Y-171691666D02*
X79459580Y-171739285D01*
X79459580Y-171739285D02*
X79364342Y-171786904D01*
X79364342Y-171786904D02*
X79173866Y-171786904D01*
X79173866Y-171786904D02*
X79078628Y-171739285D01*
X79078628Y-171739285D02*
X79031009Y-171691666D01*
X79031009Y-171691666D02*
X78983390Y-171596428D01*
X95304819Y-131076905D02*
X94304819Y-131076905D01*
X94304819Y-131076905D02*
X94304819Y-131315000D01*
X94304819Y-131315000D02*
X94352438Y-131457857D01*
X94352438Y-131457857D02*
X94447676Y-131553095D01*
X94447676Y-131553095D02*
X94542914Y-131600714D01*
X94542914Y-131600714D02*
X94733390Y-131648333D01*
X94733390Y-131648333D02*
X94876247Y-131648333D01*
X94876247Y-131648333D02*
X95066723Y-131600714D01*
X95066723Y-131600714D02*
X95161961Y-131553095D01*
X95161961Y-131553095D02*
X95257200Y-131457857D01*
X95257200Y-131457857D02*
X95304819Y-131315000D01*
X95304819Y-131315000D02*
X95304819Y-131076905D01*
X95304819Y-132600714D02*
X95304819Y-132029286D01*
X95304819Y-132315000D02*
X94304819Y-132315000D01*
X94304819Y-132315000D02*
X94447676Y-132219762D01*
X94447676Y-132219762D02*
X94542914Y-132124524D01*
X94542914Y-132124524D02*
X94590533Y-132029286D01*
X136704819Y-141307142D02*
X136228628Y-140973809D01*
X136704819Y-140735714D02*
X135704819Y-140735714D01*
X135704819Y-140735714D02*
X135704819Y-141116666D01*
X135704819Y-141116666D02*
X135752438Y-141211904D01*
X135752438Y-141211904D02*
X135800057Y-141259523D01*
X135800057Y-141259523D02*
X135895295Y-141307142D01*
X135895295Y-141307142D02*
X136038152Y-141307142D01*
X136038152Y-141307142D02*
X136133390Y-141259523D01*
X136133390Y-141259523D02*
X136181009Y-141211904D01*
X136181009Y-141211904D02*
X136228628Y-141116666D01*
X136228628Y-141116666D02*
X136228628Y-140735714D01*
X136704819Y-142259523D02*
X136704819Y-141688095D01*
X136704819Y-141973809D02*
X135704819Y-141973809D01*
X135704819Y-141973809D02*
X135847676Y-141878571D01*
X135847676Y-141878571D02*
X135942914Y-141783333D01*
X135942914Y-141783333D02*
X135990533Y-141688095D01*
X136704819Y-143211904D02*
X136704819Y-142640476D01*
X136704819Y-142926190D02*
X135704819Y-142926190D01*
X135704819Y-142926190D02*
X135847676Y-142830952D01*
X135847676Y-142830952D02*
X135942914Y-142735714D01*
X135942914Y-142735714D02*
X135990533Y-142640476D01*
X117654819Y-113208333D02*
X117178628Y-112875000D01*
X117654819Y-112636905D02*
X116654819Y-112636905D01*
X116654819Y-112636905D02*
X116654819Y-113017857D01*
X116654819Y-113017857D02*
X116702438Y-113113095D01*
X116702438Y-113113095D02*
X116750057Y-113160714D01*
X116750057Y-113160714D02*
X116845295Y-113208333D01*
X116845295Y-113208333D02*
X116988152Y-113208333D01*
X116988152Y-113208333D02*
X117083390Y-113160714D01*
X117083390Y-113160714D02*
X117131009Y-113113095D01*
X117131009Y-113113095D02*
X117178628Y-113017857D01*
X117178628Y-113017857D02*
X117178628Y-112636905D01*
X116654819Y-114065476D02*
X116654819Y-113875000D01*
X116654819Y-113875000D02*
X116702438Y-113779762D01*
X116702438Y-113779762D02*
X116750057Y-113732143D01*
X116750057Y-113732143D02*
X116892914Y-113636905D01*
X116892914Y-113636905D02*
X117083390Y-113589286D01*
X117083390Y-113589286D02*
X117464342Y-113589286D01*
X117464342Y-113589286D02*
X117559580Y-113636905D01*
X117559580Y-113636905D02*
X117607200Y-113684524D01*
X117607200Y-113684524D02*
X117654819Y-113779762D01*
X117654819Y-113779762D02*
X117654819Y-113970238D01*
X117654819Y-113970238D02*
X117607200Y-114065476D01*
X117607200Y-114065476D02*
X117559580Y-114113095D01*
X117559580Y-114113095D02*
X117464342Y-114160714D01*
X117464342Y-114160714D02*
X117226247Y-114160714D01*
X117226247Y-114160714D02*
X117131009Y-114113095D01*
X117131009Y-114113095D02*
X117083390Y-114065476D01*
X117083390Y-114065476D02*
X117035771Y-113970238D01*
X117035771Y-113970238D02*
X117035771Y-113779762D01*
X117035771Y-113779762D02*
X117083390Y-113684524D01*
X117083390Y-113684524D02*
X117131009Y-113636905D01*
X117131009Y-113636905D02*
X117226247Y-113589286D01*
X152454819Y-140601905D02*
X151454819Y-140601905D01*
X151454819Y-140601905D02*
X151454819Y-140840000D01*
X151454819Y-140840000D02*
X151502438Y-140982857D01*
X151502438Y-140982857D02*
X151597676Y-141078095D01*
X151597676Y-141078095D02*
X151692914Y-141125714D01*
X151692914Y-141125714D02*
X151883390Y-141173333D01*
X151883390Y-141173333D02*
X152026247Y-141173333D01*
X152026247Y-141173333D02*
X152216723Y-141125714D01*
X152216723Y-141125714D02*
X152311961Y-141078095D01*
X152311961Y-141078095D02*
X152407200Y-140982857D01*
X152407200Y-140982857D02*
X152454819Y-140840000D01*
X152454819Y-140840000D02*
X152454819Y-140601905D01*
X152454819Y-141649524D02*
X152454819Y-141840000D01*
X152454819Y-141840000D02*
X152407200Y-141935238D01*
X152407200Y-141935238D02*
X152359580Y-141982857D01*
X152359580Y-141982857D02*
X152216723Y-142078095D01*
X152216723Y-142078095D02*
X152026247Y-142125714D01*
X152026247Y-142125714D02*
X151645295Y-142125714D01*
X151645295Y-142125714D02*
X151550057Y-142078095D01*
X151550057Y-142078095D02*
X151502438Y-142030476D01*
X151502438Y-142030476D02*
X151454819Y-141935238D01*
X151454819Y-141935238D02*
X151454819Y-141744762D01*
X151454819Y-141744762D02*
X151502438Y-141649524D01*
X151502438Y-141649524D02*
X151550057Y-141601905D01*
X151550057Y-141601905D02*
X151645295Y-141554286D01*
X151645295Y-141554286D02*
X151883390Y-141554286D01*
X151883390Y-141554286D02*
X151978628Y-141601905D01*
X151978628Y-141601905D02*
X152026247Y-141649524D01*
X152026247Y-141649524D02*
X152073866Y-141744762D01*
X152073866Y-141744762D02*
X152073866Y-141935238D01*
X152073866Y-141935238D02*
X152026247Y-142030476D01*
X152026247Y-142030476D02*
X151978628Y-142078095D01*
X151978628Y-142078095D02*
X151883390Y-142125714D01*
X95304819Y-149650714D02*
X94304819Y-149650714D01*
X94304819Y-149650714D02*
X94304819Y-149888809D01*
X94304819Y-149888809D02*
X94352438Y-150031666D01*
X94352438Y-150031666D02*
X94447676Y-150126904D01*
X94447676Y-150126904D02*
X94542914Y-150174523D01*
X94542914Y-150174523D02*
X94733390Y-150222142D01*
X94733390Y-150222142D02*
X94876247Y-150222142D01*
X94876247Y-150222142D02*
X95066723Y-150174523D01*
X95066723Y-150174523D02*
X95161961Y-150126904D01*
X95161961Y-150126904D02*
X95257200Y-150031666D01*
X95257200Y-150031666D02*
X95304819Y-149888809D01*
X95304819Y-149888809D02*
X95304819Y-149650714D01*
X95304819Y-151174523D02*
X95304819Y-150603095D01*
X95304819Y-150888809D02*
X94304819Y-150888809D01*
X94304819Y-150888809D02*
X94447676Y-150793571D01*
X94447676Y-150793571D02*
X94542914Y-150698333D01*
X94542914Y-150698333D02*
X94590533Y-150603095D01*
X95304819Y-152126904D02*
X95304819Y-151555476D01*
X95304819Y-151841190D02*
X94304819Y-151841190D01*
X94304819Y-151841190D02*
X94447676Y-151745952D01*
X94447676Y-151745952D02*
X94542914Y-151650714D01*
X94542914Y-151650714D02*
X94590533Y-151555476D01*
X114354819Y-131076905D02*
X113354819Y-131076905D01*
X113354819Y-131076905D02*
X113354819Y-131315000D01*
X113354819Y-131315000D02*
X113402438Y-131457857D01*
X113402438Y-131457857D02*
X113497676Y-131553095D01*
X113497676Y-131553095D02*
X113592914Y-131600714D01*
X113592914Y-131600714D02*
X113783390Y-131648333D01*
X113783390Y-131648333D02*
X113926247Y-131648333D01*
X113926247Y-131648333D02*
X114116723Y-131600714D01*
X114116723Y-131600714D02*
X114211961Y-131553095D01*
X114211961Y-131553095D02*
X114307200Y-131457857D01*
X114307200Y-131457857D02*
X114354819Y-131315000D01*
X114354819Y-131315000D02*
X114354819Y-131076905D01*
X113354819Y-131981667D02*
X113354819Y-132648333D01*
X113354819Y-132648333D02*
X114354819Y-132219762D01*
X98604819Y-169882142D02*
X98128628Y-169548809D01*
X98604819Y-169310714D02*
X97604819Y-169310714D01*
X97604819Y-169310714D02*
X97604819Y-169691666D01*
X97604819Y-169691666D02*
X97652438Y-169786904D01*
X97652438Y-169786904D02*
X97700057Y-169834523D01*
X97700057Y-169834523D02*
X97795295Y-169882142D01*
X97795295Y-169882142D02*
X97938152Y-169882142D01*
X97938152Y-169882142D02*
X98033390Y-169834523D01*
X98033390Y-169834523D02*
X98081009Y-169786904D01*
X98081009Y-169786904D02*
X98128628Y-169691666D01*
X98128628Y-169691666D02*
X98128628Y-169310714D01*
X98604819Y-170834523D02*
X98604819Y-170263095D01*
X98604819Y-170548809D02*
X97604819Y-170548809D01*
X97604819Y-170548809D02*
X97747676Y-170453571D01*
X97747676Y-170453571D02*
X97842914Y-170358333D01*
X97842914Y-170358333D02*
X97890533Y-170263095D01*
X98604819Y-171310714D02*
X98604819Y-171501190D01*
X98604819Y-171501190D02*
X98557200Y-171596428D01*
X98557200Y-171596428D02*
X98509580Y-171644047D01*
X98509580Y-171644047D02*
X98366723Y-171739285D01*
X98366723Y-171739285D02*
X98176247Y-171786904D01*
X98176247Y-171786904D02*
X97795295Y-171786904D01*
X97795295Y-171786904D02*
X97700057Y-171739285D01*
X97700057Y-171739285D02*
X97652438Y-171691666D01*
X97652438Y-171691666D02*
X97604819Y-171596428D01*
X97604819Y-171596428D02*
X97604819Y-171405952D01*
X97604819Y-171405952D02*
X97652438Y-171310714D01*
X97652438Y-171310714D02*
X97700057Y-171263095D01*
X97700057Y-171263095D02*
X97795295Y-171215476D01*
X97795295Y-171215476D02*
X98033390Y-171215476D01*
X98033390Y-171215476D02*
X98128628Y-171263095D01*
X98128628Y-171263095D02*
X98176247Y-171310714D01*
X98176247Y-171310714D02*
X98223866Y-171405952D01*
X98223866Y-171405952D02*
X98223866Y-171596428D01*
X98223866Y-171596428D02*
X98176247Y-171691666D01*
X98176247Y-171691666D02*
X98128628Y-171739285D01*
X98128628Y-171739285D02*
X98033390Y-171786904D01*
X98604819Y-132258333D02*
X98128628Y-131925000D01*
X98604819Y-131686905D02*
X97604819Y-131686905D01*
X97604819Y-131686905D02*
X97604819Y-132067857D01*
X97604819Y-132067857D02*
X97652438Y-132163095D01*
X97652438Y-132163095D02*
X97700057Y-132210714D01*
X97700057Y-132210714D02*
X97795295Y-132258333D01*
X97795295Y-132258333D02*
X97938152Y-132258333D01*
X97938152Y-132258333D02*
X98033390Y-132210714D01*
X98033390Y-132210714D02*
X98081009Y-132163095D01*
X98081009Y-132163095D02*
X98128628Y-132067857D01*
X98128628Y-132067857D02*
X98128628Y-131686905D01*
X98604819Y-132734524D02*
X98604819Y-132925000D01*
X98604819Y-132925000D02*
X98557200Y-133020238D01*
X98557200Y-133020238D02*
X98509580Y-133067857D01*
X98509580Y-133067857D02*
X98366723Y-133163095D01*
X98366723Y-133163095D02*
X98176247Y-133210714D01*
X98176247Y-133210714D02*
X97795295Y-133210714D01*
X97795295Y-133210714D02*
X97700057Y-133163095D01*
X97700057Y-133163095D02*
X97652438Y-133115476D01*
X97652438Y-133115476D02*
X97604819Y-133020238D01*
X97604819Y-133020238D02*
X97604819Y-132829762D01*
X97604819Y-132829762D02*
X97652438Y-132734524D01*
X97652438Y-132734524D02*
X97700057Y-132686905D01*
X97700057Y-132686905D02*
X97795295Y-132639286D01*
X97795295Y-132639286D02*
X98033390Y-132639286D01*
X98033390Y-132639286D02*
X98128628Y-132686905D01*
X98128628Y-132686905D02*
X98176247Y-132734524D01*
X98176247Y-132734524D02*
X98223866Y-132829762D01*
X98223866Y-132829762D02*
X98223866Y-133020238D01*
X98223866Y-133020238D02*
X98176247Y-133115476D01*
X98176247Y-133115476D02*
X98128628Y-133163095D01*
X98128628Y-133163095D02*
X98033390Y-133210714D01*
X89079819Y-188932142D02*
X88603628Y-188598809D01*
X89079819Y-188360714D02*
X88079819Y-188360714D01*
X88079819Y-188360714D02*
X88079819Y-188741666D01*
X88079819Y-188741666D02*
X88127438Y-188836904D01*
X88127438Y-188836904D02*
X88175057Y-188884523D01*
X88175057Y-188884523D02*
X88270295Y-188932142D01*
X88270295Y-188932142D02*
X88413152Y-188932142D01*
X88413152Y-188932142D02*
X88508390Y-188884523D01*
X88508390Y-188884523D02*
X88556009Y-188836904D01*
X88556009Y-188836904D02*
X88603628Y-188741666D01*
X88603628Y-188741666D02*
X88603628Y-188360714D01*
X88175057Y-189313095D02*
X88127438Y-189360714D01*
X88127438Y-189360714D02*
X88079819Y-189455952D01*
X88079819Y-189455952D02*
X88079819Y-189694047D01*
X88079819Y-189694047D02*
X88127438Y-189789285D01*
X88127438Y-189789285D02*
X88175057Y-189836904D01*
X88175057Y-189836904D02*
X88270295Y-189884523D01*
X88270295Y-189884523D02*
X88365533Y-189884523D01*
X88365533Y-189884523D02*
X88508390Y-189836904D01*
X88508390Y-189836904D02*
X89079819Y-189265476D01*
X89079819Y-189265476D02*
X89079819Y-189884523D01*
X88079819Y-190217857D02*
X88079819Y-190836904D01*
X88079819Y-190836904D02*
X88460771Y-190503571D01*
X88460771Y-190503571D02*
X88460771Y-190646428D01*
X88460771Y-190646428D02*
X88508390Y-190741666D01*
X88508390Y-190741666D02*
X88556009Y-190789285D01*
X88556009Y-190789285D02*
X88651247Y-190836904D01*
X88651247Y-190836904D02*
X88889342Y-190836904D01*
X88889342Y-190836904D02*
X88984580Y-190789285D01*
X88984580Y-190789285D02*
X89032200Y-190741666D01*
X89032200Y-190741666D02*
X89079819Y-190646428D01*
X89079819Y-190646428D02*
X89079819Y-190360714D01*
X89079819Y-190360714D02*
X89032200Y-190265476D01*
X89032200Y-190265476D02*
X88984580Y-190217857D01*
X95304819Y-112026905D02*
X94304819Y-112026905D01*
X94304819Y-112026905D02*
X94304819Y-112265000D01*
X94304819Y-112265000D02*
X94352438Y-112407857D01*
X94352438Y-112407857D02*
X94447676Y-112503095D01*
X94447676Y-112503095D02*
X94542914Y-112550714D01*
X94542914Y-112550714D02*
X94733390Y-112598333D01*
X94733390Y-112598333D02*
X94876247Y-112598333D01*
X94876247Y-112598333D02*
X95066723Y-112550714D01*
X95066723Y-112550714D02*
X95161961Y-112503095D01*
X95161961Y-112503095D02*
X95257200Y-112407857D01*
X95257200Y-112407857D02*
X95304819Y-112265000D01*
X95304819Y-112265000D02*
X95304819Y-112026905D01*
X94400057Y-112979286D02*
X94352438Y-113026905D01*
X94352438Y-113026905D02*
X94304819Y-113122143D01*
X94304819Y-113122143D02*
X94304819Y-113360238D01*
X94304819Y-113360238D02*
X94352438Y-113455476D01*
X94352438Y-113455476D02*
X94400057Y-113503095D01*
X94400057Y-113503095D02*
X94495295Y-113550714D01*
X94495295Y-113550714D02*
X94590533Y-113550714D01*
X94590533Y-113550714D02*
X94733390Y-113503095D01*
X94733390Y-113503095D02*
X95304819Y-112931667D01*
X95304819Y-112931667D02*
X95304819Y-113550714D01*
X117654819Y-188932142D02*
X117178628Y-188598809D01*
X117654819Y-188360714D02*
X116654819Y-188360714D01*
X116654819Y-188360714D02*
X116654819Y-188741666D01*
X116654819Y-188741666D02*
X116702438Y-188836904D01*
X116702438Y-188836904D02*
X116750057Y-188884523D01*
X116750057Y-188884523D02*
X116845295Y-188932142D01*
X116845295Y-188932142D02*
X116988152Y-188932142D01*
X116988152Y-188932142D02*
X117083390Y-188884523D01*
X117083390Y-188884523D02*
X117131009Y-188836904D01*
X117131009Y-188836904D02*
X117178628Y-188741666D01*
X117178628Y-188741666D02*
X117178628Y-188360714D01*
X116750057Y-189313095D02*
X116702438Y-189360714D01*
X116702438Y-189360714D02*
X116654819Y-189455952D01*
X116654819Y-189455952D02*
X116654819Y-189694047D01*
X116654819Y-189694047D02*
X116702438Y-189789285D01*
X116702438Y-189789285D02*
X116750057Y-189836904D01*
X116750057Y-189836904D02*
X116845295Y-189884523D01*
X116845295Y-189884523D02*
X116940533Y-189884523D01*
X116940533Y-189884523D02*
X117083390Y-189836904D01*
X117083390Y-189836904D02*
X117654819Y-189265476D01*
X117654819Y-189265476D02*
X117654819Y-189884523D01*
X116988152Y-190741666D02*
X117654819Y-190741666D01*
X116607200Y-190503571D02*
X117321485Y-190265476D01*
X117321485Y-190265476D02*
X117321485Y-190884523D01*
X133404819Y-168700714D02*
X132404819Y-168700714D01*
X132404819Y-168700714D02*
X132404819Y-168938809D01*
X132404819Y-168938809D02*
X132452438Y-169081666D01*
X132452438Y-169081666D02*
X132547676Y-169176904D01*
X132547676Y-169176904D02*
X132642914Y-169224523D01*
X132642914Y-169224523D02*
X132833390Y-169272142D01*
X132833390Y-169272142D02*
X132976247Y-169272142D01*
X132976247Y-169272142D02*
X133166723Y-169224523D01*
X133166723Y-169224523D02*
X133261961Y-169176904D01*
X133261961Y-169176904D02*
X133357200Y-169081666D01*
X133357200Y-169081666D02*
X133404819Y-168938809D01*
X133404819Y-168938809D02*
X133404819Y-168700714D01*
X133404819Y-170224523D02*
X133404819Y-169653095D01*
X133404819Y-169938809D02*
X132404819Y-169938809D01*
X132404819Y-169938809D02*
X132547676Y-169843571D01*
X132547676Y-169843571D02*
X132642914Y-169748333D01*
X132642914Y-169748333D02*
X132690533Y-169653095D01*
X132833390Y-170795952D02*
X132785771Y-170700714D01*
X132785771Y-170700714D02*
X132738152Y-170653095D01*
X132738152Y-170653095D02*
X132642914Y-170605476D01*
X132642914Y-170605476D02*
X132595295Y-170605476D01*
X132595295Y-170605476D02*
X132500057Y-170653095D01*
X132500057Y-170653095D02*
X132452438Y-170700714D01*
X132452438Y-170700714D02*
X132404819Y-170795952D01*
X132404819Y-170795952D02*
X132404819Y-170986428D01*
X132404819Y-170986428D02*
X132452438Y-171081666D01*
X132452438Y-171081666D02*
X132500057Y-171129285D01*
X132500057Y-171129285D02*
X132595295Y-171176904D01*
X132595295Y-171176904D02*
X132642914Y-171176904D01*
X132642914Y-171176904D02*
X132738152Y-171129285D01*
X132738152Y-171129285D02*
X132785771Y-171081666D01*
X132785771Y-171081666D02*
X132833390Y-170986428D01*
X132833390Y-170986428D02*
X132833390Y-170795952D01*
X132833390Y-170795952D02*
X132881009Y-170700714D01*
X132881009Y-170700714D02*
X132928628Y-170653095D01*
X132928628Y-170653095D02*
X133023866Y-170605476D01*
X133023866Y-170605476D02*
X133214342Y-170605476D01*
X133214342Y-170605476D02*
X133309580Y-170653095D01*
X133309580Y-170653095D02*
X133357200Y-170700714D01*
X133357200Y-170700714D02*
X133404819Y-170795952D01*
X133404819Y-170795952D02*
X133404819Y-170986428D01*
X133404819Y-170986428D02*
X133357200Y-171081666D01*
X133357200Y-171081666D02*
X133309580Y-171129285D01*
X133309580Y-171129285D02*
X133214342Y-171176904D01*
X133214342Y-171176904D02*
X133023866Y-171176904D01*
X133023866Y-171176904D02*
X132928628Y-171129285D01*
X132928628Y-171129285D02*
X132881009Y-171081666D01*
X132881009Y-171081666D02*
X132833390Y-170986428D01*
X117654819Y-169882142D02*
X117178628Y-169548809D01*
X117654819Y-169310714D02*
X116654819Y-169310714D01*
X116654819Y-169310714D02*
X116654819Y-169691666D01*
X116654819Y-169691666D02*
X116702438Y-169786904D01*
X116702438Y-169786904D02*
X116750057Y-169834523D01*
X116750057Y-169834523D02*
X116845295Y-169882142D01*
X116845295Y-169882142D02*
X116988152Y-169882142D01*
X116988152Y-169882142D02*
X117083390Y-169834523D01*
X117083390Y-169834523D02*
X117131009Y-169786904D01*
X117131009Y-169786904D02*
X117178628Y-169691666D01*
X117178628Y-169691666D02*
X117178628Y-169310714D01*
X116750057Y-170263095D02*
X116702438Y-170310714D01*
X116702438Y-170310714D02*
X116654819Y-170405952D01*
X116654819Y-170405952D02*
X116654819Y-170644047D01*
X116654819Y-170644047D02*
X116702438Y-170739285D01*
X116702438Y-170739285D02*
X116750057Y-170786904D01*
X116750057Y-170786904D02*
X116845295Y-170834523D01*
X116845295Y-170834523D02*
X116940533Y-170834523D01*
X116940533Y-170834523D02*
X117083390Y-170786904D01*
X117083390Y-170786904D02*
X117654819Y-170215476D01*
X117654819Y-170215476D02*
X117654819Y-170834523D01*
X116654819Y-171453571D02*
X116654819Y-171548809D01*
X116654819Y-171548809D02*
X116702438Y-171644047D01*
X116702438Y-171644047D02*
X116750057Y-171691666D01*
X116750057Y-171691666D02*
X116845295Y-171739285D01*
X116845295Y-171739285D02*
X117035771Y-171786904D01*
X117035771Y-171786904D02*
X117273866Y-171786904D01*
X117273866Y-171786904D02*
X117464342Y-171739285D01*
X117464342Y-171739285D02*
X117559580Y-171691666D01*
X117559580Y-171691666D02*
X117607200Y-171644047D01*
X117607200Y-171644047D02*
X117654819Y-171548809D01*
X117654819Y-171548809D02*
X117654819Y-171453571D01*
X117654819Y-171453571D02*
X117607200Y-171358333D01*
X117607200Y-171358333D02*
X117559580Y-171310714D01*
X117559580Y-171310714D02*
X117464342Y-171263095D01*
X117464342Y-171263095D02*
X117273866Y-171215476D01*
X117273866Y-171215476D02*
X117035771Y-171215476D01*
X117035771Y-171215476D02*
X116845295Y-171263095D01*
X116845295Y-171263095D02*
X116750057Y-171310714D01*
X116750057Y-171310714D02*
X116702438Y-171358333D01*
X116702438Y-171358333D02*
X116654819Y-171453571D01*
X152454819Y-178225714D02*
X151454819Y-178225714D01*
X151454819Y-178225714D02*
X151454819Y-178463809D01*
X151454819Y-178463809D02*
X151502438Y-178606666D01*
X151502438Y-178606666D02*
X151597676Y-178701904D01*
X151597676Y-178701904D02*
X151692914Y-178749523D01*
X151692914Y-178749523D02*
X151883390Y-178797142D01*
X151883390Y-178797142D02*
X152026247Y-178797142D01*
X152026247Y-178797142D02*
X152216723Y-178749523D01*
X152216723Y-178749523D02*
X152311961Y-178701904D01*
X152311961Y-178701904D02*
X152407200Y-178606666D01*
X152407200Y-178606666D02*
X152454819Y-178463809D01*
X152454819Y-178463809D02*
X152454819Y-178225714D01*
X151550057Y-179178095D02*
X151502438Y-179225714D01*
X151502438Y-179225714D02*
X151454819Y-179320952D01*
X151454819Y-179320952D02*
X151454819Y-179559047D01*
X151454819Y-179559047D02*
X151502438Y-179654285D01*
X151502438Y-179654285D02*
X151550057Y-179701904D01*
X151550057Y-179701904D02*
X151645295Y-179749523D01*
X151645295Y-179749523D02*
X151740533Y-179749523D01*
X151740533Y-179749523D02*
X151883390Y-179701904D01*
X151883390Y-179701904D02*
X152454819Y-179130476D01*
X152454819Y-179130476D02*
X152454819Y-179749523D01*
X151454819Y-180082857D02*
X151454819Y-180701904D01*
X151454819Y-180701904D02*
X151835771Y-180368571D01*
X151835771Y-180368571D02*
X151835771Y-180511428D01*
X151835771Y-180511428D02*
X151883390Y-180606666D01*
X151883390Y-180606666D02*
X151931009Y-180654285D01*
X151931009Y-180654285D02*
X152026247Y-180701904D01*
X152026247Y-180701904D02*
X152264342Y-180701904D01*
X152264342Y-180701904D02*
X152359580Y-180654285D01*
X152359580Y-180654285D02*
X152407200Y-180606666D01*
X152407200Y-180606666D02*
X152454819Y-180511428D01*
X152454819Y-180511428D02*
X152454819Y-180225714D01*
X152454819Y-180225714D02*
X152407200Y-180130476D01*
X152407200Y-180130476D02*
X152359580Y-180082857D01*
X117654819Y-131782142D02*
X117178628Y-131448809D01*
X117654819Y-131210714D02*
X116654819Y-131210714D01*
X116654819Y-131210714D02*
X116654819Y-131591666D01*
X116654819Y-131591666D02*
X116702438Y-131686904D01*
X116702438Y-131686904D02*
X116750057Y-131734523D01*
X116750057Y-131734523D02*
X116845295Y-131782142D01*
X116845295Y-131782142D02*
X116988152Y-131782142D01*
X116988152Y-131782142D02*
X117083390Y-131734523D01*
X117083390Y-131734523D02*
X117131009Y-131686904D01*
X117131009Y-131686904D02*
X117178628Y-131591666D01*
X117178628Y-131591666D02*
X117178628Y-131210714D01*
X117654819Y-132734523D02*
X117654819Y-132163095D01*
X117654819Y-132448809D02*
X116654819Y-132448809D01*
X116654819Y-132448809D02*
X116797676Y-132353571D01*
X116797676Y-132353571D02*
X116892914Y-132258333D01*
X116892914Y-132258333D02*
X116940533Y-132163095D01*
X116654819Y-133353571D02*
X116654819Y-133448809D01*
X116654819Y-133448809D02*
X116702438Y-133544047D01*
X116702438Y-133544047D02*
X116750057Y-133591666D01*
X116750057Y-133591666D02*
X116845295Y-133639285D01*
X116845295Y-133639285D02*
X117035771Y-133686904D01*
X117035771Y-133686904D02*
X117273866Y-133686904D01*
X117273866Y-133686904D02*
X117464342Y-133639285D01*
X117464342Y-133639285D02*
X117559580Y-133591666D01*
X117559580Y-133591666D02*
X117607200Y-133544047D01*
X117607200Y-133544047D02*
X117654819Y-133448809D01*
X117654819Y-133448809D02*
X117654819Y-133353571D01*
X117654819Y-133353571D02*
X117607200Y-133258333D01*
X117607200Y-133258333D02*
X117559580Y-133210714D01*
X117559580Y-133210714D02*
X117464342Y-133163095D01*
X117464342Y-133163095D02*
X117273866Y-133115476D01*
X117273866Y-133115476D02*
X117035771Y-133115476D01*
X117035771Y-133115476D02*
X116845295Y-133163095D01*
X116845295Y-133163095D02*
X116750057Y-133210714D01*
X116750057Y-133210714D02*
X116702438Y-133258333D01*
X116702438Y-133258333D02*
X116654819Y-133353571D01*
X94781666Y-43047295D02*
X94514999Y-43847295D01*
X94514999Y-43847295D02*
X94248333Y-43047295D01*
X93715000Y-43428247D02*
X93600714Y-43466342D01*
X93600714Y-43466342D02*
X93562619Y-43504438D01*
X93562619Y-43504438D02*
X93524523Y-43580628D01*
X93524523Y-43580628D02*
X93524523Y-43694914D01*
X93524523Y-43694914D02*
X93562619Y-43771104D01*
X93562619Y-43771104D02*
X93600714Y-43809200D01*
X93600714Y-43809200D02*
X93676904Y-43847295D01*
X93676904Y-43847295D02*
X93981666Y-43847295D01*
X93981666Y-43847295D02*
X93981666Y-43047295D01*
X93981666Y-43047295D02*
X93715000Y-43047295D01*
X93715000Y-43047295D02*
X93638809Y-43085390D01*
X93638809Y-43085390D02*
X93600714Y-43123485D01*
X93600714Y-43123485D02*
X93562619Y-43199676D01*
X93562619Y-43199676D02*
X93562619Y-43275866D01*
X93562619Y-43275866D02*
X93600714Y-43352057D01*
X93600714Y-43352057D02*
X93638809Y-43390152D01*
X93638809Y-43390152D02*
X93715000Y-43428247D01*
X93715000Y-43428247D02*
X93981666Y-43428247D01*
X93181666Y-43047295D02*
X93181666Y-43694914D01*
X93181666Y-43694914D02*
X93143571Y-43771104D01*
X93143571Y-43771104D02*
X93105476Y-43809200D01*
X93105476Y-43809200D02*
X93029285Y-43847295D01*
X93029285Y-43847295D02*
X92876904Y-43847295D01*
X92876904Y-43847295D02*
X92800714Y-43809200D01*
X92800714Y-43809200D02*
X92762619Y-43771104D01*
X92762619Y-43771104D02*
X92724523Y-43694914D01*
X92724523Y-43694914D02*
X92724523Y-43047295D01*
X92381667Y-43809200D02*
X92267381Y-43847295D01*
X92267381Y-43847295D02*
X92076905Y-43847295D01*
X92076905Y-43847295D02*
X92000714Y-43809200D01*
X92000714Y-43809200D02*
X91962619Y-43771104D01*
X91962619Y-43771104D02*
X91924524Y-43694914D01*
X91924524Y-43694914D02*
X91924524Y-43618723D01*
X91924524Y-43618723D02*
X91962619Y-43542533D01*
X91962619Y-43542533D02*
X92000714Y-43504438D01*
X92000714Y-43504438D02*
X92076905Y-43466342D01*
X92076905Y-43466342D02*
X92229286Y-43428247D01*
X92229286Y-43428247D02*
X92305476Y-43390152D01*
X92305476Y-43390152D02*
X92343571Y-43352057D01*
X92343571Y-43352057D02*
X92381667Y-43275866D01*
X92381667Y-43275866D02*
X92381667Y-43199676D01*
X92381667Y-43199676D02*
X92343571Y-43123485D01*
X92343571Y-43123485D02*
X92305476Y-43085390D01*
X92305476Y-43085390D02*
X92229286Y-43047295D01*
X92229286Y-43047295D02*
X92038809Y-43047295D01*
X92038809Y-43047295D02*
X91924524Y-43085390D01*
X96141190Y-50667295D02*
X95645952Y-50667295D01*
X95645952Y-50667295D02*
X95912618Y-50972057D01*
X95912618Y-50972057D02*
X95798333Y-50972057D01*
X95798333Y-50972057D02*
X95722142Y-51010152D01*
X95722142Y-51010152D02*
X95684047Y-51048247D01*
X95684047Y-51048247D02*
X95645952Y-51124438D01*
X95645952Y-51124438D02*
X95645952Y-51314914D01*
X95645952Y-51314914D02*
X95684047Y-51391104D01*
X95684047Y-51391104D02*
X95722142Y-51429200D01*
X95722142Y-51429200D02*
X95798333Y-51467295D01*
X95798333Y-51467295D02*
X96026904Y-51467295D01*
X96026904Y-51467295D02*
X96103095Y-51429200D01*
X96103095Y-51429200D02*
X96141190Y-51391104D01*
X95417380Y-50667295D02*
X95150713Y-51467295D01*
X95150713Y-51467295D02*
X94884047Y-50667295D01*
X94693571Y-50667295D02*
X94198333Y-50667295D01*
X94198333Y-50667295D02*
X94464999Y-50972057D01*
X94464999Y-50972057D02*
X94350714Y-50972057D01*
X94350714Y-50972057D02*
X94274523Y-51010152D01*
X94274523Y-51010152D02*
X94236428Y-51048247D01*
X94236428Y-51048247D02*
X94198333Y-51124438D01*
X94198333Y-51124438D02*
X94198333Y-51314914D01*
X94198333Y-51314914D02*
X94236428Y-51391104D01*
X94236428Y-51391104D02*
X94274523Y-51429200D01*
X94274523Y-51429200D02*
X94350714Y-51467295D01*
X94350714Y-51467295D02*
X94579285Y-51467295D01*
X94579285Y-51467295D02*
X94655476Y-51429200D01*
X94655476Y-51429200D02*
X94693571Y-51391104D01*
X94045952Y-51543485D02*
X93436428Y-51543485D01*
X93245951Y-51048247D02*
X92979285Y-51048247D01*
X92864999Y-51467295D02*
X93245951Y-51467295D01*
X93245951Y-51467295D02*
X93245951Y-50667295D01*
X93245951Y-50667295D02*
X92864999Y-50667295D01*
X92522141Y-51467295D02*
X92522141Y-50667295D01*
X92522141Y-50667295D02*
X92064998Y-51467295D01*
X92064998Y-51467295D02*
X92064998Y-50667295D01*
X94517381Y-83725390D02*
X94593571Y-83687295D01*
X94593571Y-83687295D02*
X94707857Y-83687295D01*
X94707857Y-83687295D02*
X94822143Y-83725390D01*
X94822143Y-83725390D02*
X94898333Y-83801580D01*
X94898333Y-83801580D02*
X94936428Y-83877771D01*
X94936428Y-83877771D02*
X94974524Y-84030152D01*
X94974524Y-84030152D02*
X94974524Y-84144438D01*
X94974524Y-84144438D02*
X94936428Y-84296819D01*
X94936428Y-84296819D02*
X94898333Y-84373009D01*
X94898333Y-84373009D02*
X94822143Y-84449200D01*
X94822143Y-84449200D02*
X94707857Y-84487295D01*
X94707857Y-84487295D02*
X94631666Y-84487295D01*
X94631666Y-84487295D02*
X94517381Y-84449200D01*
X94517381Y-84449200D02*
X94479285Y-84411104D01*
X94479285Y-84411104D02*
X94479285Y-84144438D01*
X94479285Y-84144438D02*
X94631666Y-84144438D01*
X94136428Y-84487295D02*
X94136428Y-83687295D01*
X94136428Y-83687295D02*
X93831666Y-83687295D01*
X93831666Y-83687295D02*
X93755476Y-83725390D01*
X93755476Y-83725390D02*
X93717381Y-83763485D01*
X93717381Y-83763485D02*
X93679285Y-83839676D01*
X93679285Y-83839676D02*
X93679285Y-83953961D01*
X93679285Y-83953961D02*
X93717381Y-84030152D01*
X93717381Y-84030152D02*
X93755476Y-84068247D01*
X93755476Y-84068247D02*
X93831666Y-84106342D01*
X93831666Y-84106342D02*
X94136428Y-84106342D01*
X92917381Y-84487295D02*
X93374524Y-84487295D01*
X93145952Y-84487295D02*
X93145952Y-83687295D01*
X93145952Y-83687295D02*
X93222143Y-83801580D01*
X93222143Y-83801580D02*
X93298333Y-83877771D01*
X93298333Y-83877771D02*
X93374524Y-83915866D01*
X92460238Y-84030152D02*
X92536428Y-83992057D01*
X92536428Y-83992057D02*
X92574523Y-83953961D01*
X92574523Y-83953961D02*
X92612619Y-83877771D01*
X92612619Y-83877771D02*
X92612619Y-83839676D01*
X92612619Y-83839676D02*
X92574523Y-83763485D01*
X92574523Y-83763485D02*
X92536428Y-83725390D01*
X92536428Y-83725390D02*
X92460238Y-83687295D01*
X92460238Y-83687295D02*
X92307857Y-83687295D01*
X92307857Y-83687295D02*
X92231666Y-83725390D01*
X92231666Y-83725390D02*
X92193571Y-83763485D01*
X92193571Y-83763485D02*
X92155476Y-83839676D01*
X92155476Y-83839676D02*
X92155476Y-83877771D01*
X92155476Y-83877771D02*
X92193571Y-83953961D01*
X92193571Y-83953961D02*
X92231666Y-83992057D01*
X92231666Y-83992057D02*
X92307857Y-84030152D01*
X92307857Y-84030152D02*
X92460238Y-84030152D01*
X92460238Y-84030152D02*
X92536428Y-84068247D01*
X92536428Y-84068247D02*
X92574523Y-84106342D01*
X92574523Y-84106342D02*
X92612619Y-84182533D01*
X92612619Y-84182533D02*
X92612619Y-84334914D01*
X92612619Y-84334914D02*
X92574523Y-84411104D01*
X92574523Y-84411104D02*
X92536428Y-84449200D01*
X92536428Y-84449200D02*
X92460238Y-84487295D01*
X92460238Y-84487295D02*
X92307857Y-84487295D01*
X92307857Y-84487295D02*
X92231666Y-84449200D01*
X92231666Y-84449200D02*
X92193571Y-84411104D01*
X92193571Y-84411104D02*
X92155476Y-84334914D01*
X92155476Y-84334914D02*
X92155476Y-84182533D01*
X92155476Y-84182533D02*
X92193571Y-84106342D01*
X92193571Y-84106342D02*
X92231666Y-84068247D01*
X92231666Y-84068247D02*
X92307857Y-84030152D01*
X105754523Y-73565390D02*
X105830713Y-73527295D01*
X105830713Y-73527295D02*
X105944999Y-73527295D01*
X105944999Y-73527295D02*
X106059285Y-73565390D01*
X106059285Y-73565390D02*
X106135475Y-73641580D01*
X106135475Y-73641580D02*
X106173570Y-73717771D01*
X106173570Y-73717771D02*
X106211666Y-73870152D01*
X106211666Y-73870152D02*
X106211666Y-73984438D01*
X106211666Y-73984438D02*
X106173570Y-74136819D01*
X106173570Y-74136819D02*
X106135475Y-74213009D01*
X106135475Y-74213009D02*
X106059285Y-74289200D01*
X106059285Y-74289200D02*
X105944999Y-74327295D01*
X105944999Y-74327295D02*
X105868808Y-74327295D01*
X105868808Y-74327295D02*
X105754523Y-74289200D01*
X105754523Y-74289200D02*
X105716427Y-74251104D01*
X105716427Y-74251104D02*
X105716427Y-73984438D01*
X105716427Y-73984438D02*
X105868808Y-73984438D01*
X105373570Y-74327295D02*
X105373570Y-73527295D01*
X105373570Y-73527295D02*
X104916427Y-74327295D01*
X104916427Y-74327295D02*
X104916427Y-73527295D01*
X104535475Y-74327295D02*
X104535475Y-73527295D01*
X104535475Y-73527295D02*
X104344999Y-73527295D01*
X104344999Y-73527295D02*
X104230713Y-73565390D01*
X104230713Y-73565390D02*
X104154523Y-73641580D01*
X104154523Y-73641580D02*
X104116428Y-73717771D01*
X104116428Y-73717771D02*
X104078332Y-73870152D01*
X104078332Y-73870152D02*
X104078332Y-73984438D01*
X104078332Y-73984438D02*
X104116428Y-74136819D01*
X104116428Y-74136819D02*
X104154523Y-74213009D01*
X104154523Y-74213009D02*
X104230713Y-74289200D01*
X104230713Y-74289200D02*
X104344999Y-74327295D01*
X104344999Y-74327295D02*
X104535475Y-74327295D01*
X105716428Y-71025390D02*
X105792618Y-70987295D01*
X105792618Y-70987295D02*
X105906904Y-70987295D01*
X105906904Y-70987295D02*
X106021190Y-71025390D01*
X106021190Y-71025390D02*
X106097380Y-71101580D01*
X106097380Y-71101580D02*
X106135475Y-71177771D01*
X106135475Y-71177771D02*
X106173571Y-71330152D01*
X106173571Y-71330152D02*
X106173571Y-71444438D01*
X106173571Y-71444438D02*
X106135475Y-71596819D01*
X106135475Y-71596819D02*
X106097380Y-71673009D01*
X106097380Y-71673009D02*
X106021190Y-71749200D01*
X106021190Y-71749200D02*
X105906904Y-71787295D01*
X105906904Y-71787295D02*
X105830713Y-71787295D01*
X105830713Y-71787295D02*
X105716428Y-71749200D01*
X105716428Y-71749200D02*
X105678332Y-71711104D01*
X105678332Y-71711104D02*
X105678332Y-71444438D01*
X105678332Y-71444438D02*
X105830713Y-71444438D01*
X105335475Y-71787295D02*
X105335475Y-70987295D01*
X105335475Y-70987295D02*
X105030713Y-70987295D01*
X105030713Y-70987295D02*
X104954523Y-71025390D01*
X104954523Y-71025390D02*
X104916428Y-71063485D01*
X104916428Y-71063485D02*
X104878332Y-71139676D01*
X104878332Y-71139676D02*
X104878332Y-71253961D01*
X104878332Y-71253961D02*
X104916428Y-71330152D01*
X104916428Y-71330152D02*
X104954523Y-71368247D01*
X104954523Y-71368247D02*
X105030713Y-71406342D01*
X105030713Y-71406342D02*
X105335475Y-71406342D01*
X104497380Y-71787295D02*
X104344999Y-71787295D01*
X104344999Y-71787295D02*
X104268809Y-71749200D01*
X104268809Y-71749200D02*
X104230713Y-71711104D01*
X104230713Y-71711104D02*
X104154523Y-71596819D01*
X104154523Y-71596819D02*
X104116428Y-71444438D01*
X104116428Y-71444438D02*
X104116428Y-71139676D01*
X104116428Y-71139676D02*
X104154523Y-71063485D01*
X104154523Y-71063485D02*
X104192618Y-71025390D01*
X104192618Y-71025390D02*
X104268809Y-70987295D01*
X104268809Y-70987295D02*
X104421190Y-70987295D01*
X104421190Y-70987295D02*
X104497380Y-71025390D01*
X104497380Y-71025390D02*
X104535475Y-71063485D01*
X104535475Y-71063485D02*
X104573571Y-71139676D01*
X104573571Y-71139676D02*
X104573571Y-71330152D01*
X104573571Y-71330152D02*
X104535475Y-71406342D01*
X104535475Y-71406342D02*
X104497380Y-71444438D01*
X104497380Y-71444438D02*
X104421190Y-71482533D01*
X104421190Y-71482533D02*
X104268809Y-71482533D01*
X104268809Y-71482533D02*
X104192618Y-71444438D01*
X104192618Y-71444438D02*
X104154523Y-71406342D01*
X104154523Y-71406342D02*
X104116428Y-71330152D01*
X105747381Y-83725390D02*
X105823571Y-83687295D01*
X105823571Y-83687295D02*
X105937857Y-83687295D01*
X105937857Y-83687295D02*
X106052143Y-83725390D01*
X106052143Y-83725390D02*
X106128333Y-83801580D01*
X106128333Y-83801580D02*
X106166428Y-83877771D01*
X106166428Y-83877771D02*
X106204524Y-84030152D01*
X106204524Y-84030152D02*
X106204524Y-84144438D01*
X106204524Y-84144438D02*
X106166428Y-84296819D01*
X106166428Y-84296819D02*
X106128333Y-84373009D01*
X106128333Y-84373009D02*
X106052143Y-84449200D01*
X106052143Y-84449200D02*
X105937857Y-84487295D01*
X105937857Y-84487295D02*
X105861666Y-84487295D01*
X105861666Y-84487295D02*
X105747381Y-84449200D01*
X105747381Y-84449200D02*
X105709285Y-84411104D01*
X105709285Y-84411104D02*
X105709285Y-84144438D01*
X105709285Y-84144438D02*
X105861666Y-84144438D01*
X105366428Y-84487295D02*
X105366428Y-83687295D01*
X105366428Y-83687295D02*
X105061666Y-83687295D01*
X105061666Y-83687295D02*
X104985476Y-83725390D01*
X104985476Y-83725390D02*
X104947381Y-83763485D01*
X104947381Y-83763485D02*
X104909285Y-83839676D01*
X104909285Y-83839676D02*
X104909285Y-83953961D01*
X104909285Y-83953961D02*
X104947381Y-84030152D01*
X104947381Y-84030152D02*
X104985476Y-84068247D01*
X104985476Y-84068247D02*
X105061666Y-84106342D01*
X105061666Y-84106342D02*
X105366428Y-84106342D01*
X104147381Y-84487295D02*
X104604524Y-84487295D01*
X104375952Y-84487295D02*
X104375952Y-83687295D01*
X104375952Y-83687295D02*
X104452143Y-83801580D01*
X104452143Y-83801580D02*
X104528333Y-83877771D01*
X104528333Y-83877771D02*
X104604524Y-83915866D01*
X103880714Y-83687295D02*
X103385476Y-83687295D01*
X103385476Y-83687295D02*
X103652142Y-83992057D01*
X103652142Y-83992057D02*
X103537857Y-83992057D01*
X103537857Y-83992057D02*
X103461666Y-84030152D01*
X103461666Y-84030152D02*
X103423571Y-84068247D01*
X103423571Y-84068247D02*
X103385476Y-84144438D01*
X103385476Y-84144438D02*
X103385476Y-84334914D01*
X103385476Y-84334914D02*
X103423571Y-84411104D01*
X103423571Y-84411104D02*
X103461666Y-84449200D01*
X103461666Y-84449200D02*
X103537857Y-84487295D01*
X103537857Y-84487295D02*
X103766428Y-84487295D01*
X103766428Y-84487295D02*
X103842619Y-84449200D01*
X103842619Y-84449200D02*
X103880714Y-84411104D01*
X94517381Y-88805390D02*
X94593571Y-88767295D01*
X94593571Y-88767295D02*
X94707857Y-88767295D01*
X94707857Y-88767295D02*
X94822143Y-88805390D01*
X94822143Y-88805390D02*
X94898333Y-88881580D01*
X94898333Y-88881580D02*
X94936428Y-88957771D01*
X94936428Y-88957771D02*
X94974524Y-89110152D01*
X94974524Y-89110152D02*
X94974524Y-89224438D01*
X94974524Y-89224438D02*
X94936428Y-89376819D01*
X94936428Y-89376819D02*
X94898333Y-89453009D01*
X94898333Y-89453009D02*
X94822143Y-89529200D01*
X94822143Y-89529200D02*
X94707857Y-89567295D01*
X94707857Y-89567295D02*
X94631666Y-89567295D01*
X94631666Y-89567295D02*
X94517381Y-89529200D01*
X94517381Y-89529200D02*
X94479285Y-89491104D01*
X94479285Y-89491104D02*
X94479285Y-89224438D01*
X94479285Y-89224438D02*
X94631666Y-89224438D01*
X94136428Y-89567295D02*
X94136428Y-88767295D01*
X94136428Y-88767295D02*
X93831666Y-88767295D01*
X93831666Y-88767295D02*
X93755476Y-88805390D01*
X93755476Y-88805390D02*
X93717381Y-88843485D01*
X93717381Y-88843485D02*
X93679285Y-88919676D01*
X93679285Y-88919676D02*
X93679285Y-89033961D01*
X93679285Y-89033961D02*
X93717381Y-89110152D01*
X93717381Y-89110152D02*
X93755476Y-89148247D01*
X93755476Y-89148247D02*
X93831666Y-89186342D01*
X93831666Y-89186342D02*
X94136428Y-89186342D01*
X92917381Y-89567295D02*
X93374524Y-89567295D01*
X93145952Y-89567295D02*
X93145952Y-88767295D01*
X93145952Y-88767295D02*
X93222143Y-88881580D01*
X93222143Y-88881580D02*
X93298333Y-88957771D01*
X93298333Y-88957771D02*
X93374524Y-88995866D01*
X92650714Y-88767295D02*
X92117380Y-88767295D01*
X92117380Y-88767295D02*
X92460238Y-89567295D01*
X105716428Y-43085390D02*
X105792618Y-43047295D01*
X105792618Y-43047295D02*
X105906904Y-43047295D01*
X105906904Y-43047295D02*
X106021190Y-43085390D01*
X106021190Y-43085390D02*
X106097380Y-43161580D01*
X106097380Y-43161580D02*
X106135475Y-43237771D01*
X106135475Y-43237771D02*
X106173571Y-43390152D01*
X106173571Y-43390152D02*
X106173571Y-43504438D01*
X106173571Y-43504438D02*
X106135475Y-43656819D01*
X106135475Y-43656819D02*
X106097380Y-43733009D01*
X106097380Y-43733009D02*
X106021190Y-43809200D01*
X106021190Y-43809200D02*
X105906904Y-43847295D01*
X105906904Y-43847295D02*
X105830713Y-43847295D01*
X105830713Y-43847295D02*
X105716428Y-43809200D01*
X105716428Y-43809200D02*
X105678332Y-43771104D01*
X105678332Y-43771104D02*
X105678332Y-43504438D01*
X105678332Y-43504438D02*
X105830713Y-43504438D01*
X105335475Y-43847295D02*
X105335475Y-43047295D01*
X105335475Y-43047295D02*
X105030713Y-43047295D01*
X105030713Y-43047295D02*
X104954523Y-43085390D01*
X104954523Y-43085390D02*
X104916428Y-43123485D01*
X104916428Y-43123485D02*
X104878332Y-43199676D01*
X104878332Y-43199676D02*
X104878332Y-43313961D01*
X104878332Y-43313961D02*
X104916428Y-43390152D01*
X104916428Y-43390152D02*
X104954523Y-43428247D01*
X104954523Y-43428247D02*
X105030713Y-43466342D01*
X105030713Y-43466342D02*
X105335475Y-43466342D01*
X104383094Y-43047295D02*
X104306904Y-43047295D01*
X104306904Y-43047295D02*
X104230713Y-43085390D01*
X104230713Y-43085390D02*
X104192618Y-43123485D01*
X104192618Y-43123485D02*
X104154523Y-43199676D01*
X104154523Y-43199676D02*
X104116428Y-43352057D01*
X104116428Y-43352057D02*
X104116428Y-43542533D01*
X104116428Y-43542533D02*
X104154523Y-43694914D01*
X104154523Y-43694914D02*
X104192618Y-43771104D01*
X104192618Y-43771104D02*
X104230713Y-43809200D01*
X104230713Y-43809200D02*
X104306904Y-43847295D01*
X104306904Y-43847295D02*
X104383094Y-43847295D01*
X104383094Y-43847295D02*
X104459285Y-43809200D01*
X104459285Y-43809200D02*
X104497380Y-43771104D01*
X104497380Y-43771104D02*
X104535475Y-43694914D01*
X104535475Y-43694914D02*
X104573571Y-43542533D01*
X104573571Y-43542533D02*
X104573571Y-43352057D01*
X104573571Y-43352057D02*
X104535475Y-43199676D01*
X104535475Y-43199676D02*
X104497380Y-43123485D01*
X104497380Y-43123485D02*
X104459285Y-43085390D01*
X104459285Y-43085390D02*
X104383094Y-43047295D01*
X94517381Y-71025390D02*
X94593571Y-70987295D01*
X94593571Y-70987295D02*
X94707857Y-70987295D01*
X94707857Y-70987295D02*
X94822143Y-71025390D01*
X94822143Y-71025390D02*
X94898333Y-71101580D01*
X94898333Y-71101580D02*
X94936428Y-71177771D01*
X94936428Y-71177771D02*
X94974524Y-71330152D01*
X94974524Y-71330152D02*
X94974524Y-71444438D01*
X94974524Y-71444438D02*
X94936428Y-71596819D01*
X94936428Y-71596819D02*
X94898333Y-71673009D01*
X94898333Y-71673009D02*
X94822143Y-71749200D01*
X94822143Y-71749200D02*
X94707857Y-71787295D01*
X94707857Y-71787295D02*
X94631666Y-71787295D01*
X94631666Y-71787295D02*
X94517381Y-71749200D01*
X94517381Y-71749200D02*
X94479285Y-71711104D01*
X94479285Y-71711104D02*
X94479285Y-71444438D01*
X94479285Y-71444438D02*
X94631666Y-71444438D01*
X94136428Y-71787295D02*
X94136428Y-70987295D01*
X94136428Y-70987295D02*
X93831666Y-70987295D01*
X93831666Y-70987295D02*
X93755476Y-71025390D01*
X93755476Y-71025390D02*
X93717381Y-71063485D01*
X93717381Y-71063485D02*
X93679285Y-71139676D01*
X93679285Y-71139676D02*
X93679285Y-71253961D01*
X93679285Y-71253961D02*
X93717381Y-71330152D01*
X93717381Y-71330152D02*
X93755476Y-71368247D01*
X93755476Y-71368247D02*
X93831666Y-71406342D01*
X93831666Y-71406342D02*
X94136428Y-71406342D01*
X93374524Y-71063485D02*
X93336428Y-71025390D01*
X93336428Y-71025390D02*
X93260238Y-70987295D01*
X93260238Y-70987295D02*
X93069762Y-70987295D01*
X93069762Y-70987295D02*
X92993571Y-71025390D01*
X92993571Y-71025390D02*
X92955476Y-71063485D01*
X92955476Y-71063485D02*
X92917381Y-71139676D01*
X92917381Y-71139676D02*
X92917381Y-71215866D01*
X92917381Y-71215866D02*
X92955476Y-71330152D01*
X92955476Y-71330152D02*
X93412619Y-71787295D01*
X93412619Y-71787295D02*
X92917381Y-71787295D01*
X92612619Y-71063485D02*
X92574523Y-71025390D01*
X92574523Y-71025390D02*
X92498333Y-70987295D01*
X92498333Y-70987295D02*
X92307857Y-70987295D01*
X92307857Y-70987295D02*
X92231666Y-71025390D01*
X92231666Y-71025390D02*
X92193571Y-71063485D01*
X92193571Y-71063485D02*
X92155476Y-71139676D01*
X92155476Y-71139676D02*
X92155476Y-71215866D01*
X92155476Y-71215866D02*
X92193571Y-71330152D01*
X92193571Y-71330152D02*
X92650714Y-71787295D01*
X92650714Y-71787295D02*
X92155476Y-71787295D01*
X96889200Y-86169761D02*
X96927295Y-86284047D01*
X96927295Y-86284047D02*
X96927295Y-86474523D01*
X96927295Y-86474523D02*
X96889200Y-86550714D01*
X96889200Y-86550714D02*
X96851104Y-86588809D01*
X96851104Y-86588809D02*
X96774914Y-86626904D01*
X96774914Y-86626904D02*
X96698723Y-86626904D01*
X96698723Y-86626904D02*
X96622533Y-86588809D01*
X96622533Y-86588809D02*
X96584438Y-86550714D01*
X96584438Y-86550714D02*
X96546342Y-86474523D01*
X96546342Y-86474523D02*
X96508247Y-86322142D01*
X96508247Y-86322142D02*
X96470152Y-86245952D01*
X96470152Y-86245952D02*
X96432057Y-86207857D01*
X96432057Y-86207857D02*
X96355866Y-86169761D01*
X96355866Y-86169761D02*
X96279676Y-86169761D01*
X96279676Y-86169761D02*
X96203485Y-86207857D01*
X96203485Y-86207857D02*
X96165390Y-86245952D01*
X96165390Y-86245952D02*
X96127295Y-86322142D01*
X96127295Y-86322142D02*
X96127295Y-86512619D01*
X96127295Y-86512619D02*
X96165390Y-86626904D01*
X96127295Y-86893571D02*
X96927295Y-87084047D01*
X96927295Y-87084047D02*
X96355866Y-87236428D01*
X96355866Y-87236428D02*
X96927295Y-87388809D01*
X96927295Y-87388809D02*
X96127295Y-87579286D01*
X96927295Y-87884048D02*
X96127295Y-87884048D01*
X96127295Y-87884048D02*
X96127295Y-88074524D01*
X96127295Y-88074524D02*
X96165390Y-88188810D01*
X96165390Y-88188810D02*
X96241580Y-88265000D01*
X96241580Y-88265000D02*
X96317771Y-88303095D01*
X96317771Y-88303095D02*
X96470152Y-88341191D01*
X96470152Y-88341191D02*
X96584438Y-88341191D01*
X96584438Y-88341191D02*
X96736819Y-88303095D01*
X96736819Y-88303095D02*
X96813009Y-88265000D01*
X96813009Y-88265000D02*
X96889200Y-88188810D01*
X96889200Y-88188810D02*
X96927295Y-88074524D01*
X96927295Y-88074524D02*
X96927295Y-87884048D01*
X96927295Y-88684048D02*
X96127295Y-88684048D01*
X96127295Y-89217381D02*
X96127295Y-89369762D01*
X96127295Y-89369762D02*
X96165390Y-89445952D01*
X96165390Y-89445952D02*
X96241580Y-89522143D01*
X96241580Y-89522143D02*
X96393961Y-89560238D01*
X96393961Y-89560238D02*
X96660628Y-89560238D01*
X96660628Y-89560238D02*
X96813009Y-89522143D01*
X96813009Y-89522143D02*
X96889200Y-89445952D01*
X96889200Y-89445952D02*
X96927295Y-89369762D01*
X96927295Y-89369762D02*
X96927295Y-89217381D01*
X96927295Y-89217381D02*
X96889200Y-89141190D01*
X96889200Y-89141190D02*
X96813009Y-89065000D01*
X96813009Y-89065000D02*
X96660628Y-89026904D01*
X96660628Y-89026904D02*
X96393961Y-89026904D01*
X96393961Y-89026904D02*
X96241580Y-89065000D01*
X96241580Y-89065000D02*
X96165390Y-89141190D01*
X96165390Y-89141190D02*
X96127295Y-89217381D01*
X105754523Y-60865390D02*
X105830713Y-60827295D01*
X105830713Y-60827295D02*
X105944999Y-60827295D01*
X105944999Y-60827295D02*
X106059285Y-60865390D01*
X106059285Y-60865390D02*
X106135475Y-60941580D01*
X106135475Y-60941580D02*
X106173570Y-61017771D01*
X106173570Y-61017771D02*
X106211666Y-61170152D01*
X106211666Y-61170152D02*
X106211666Y-61284438D01*
X106211666Y-61284438D02*
X106173570Y-61436819D01*
X106173570Y-61436819D02*
X106135475Y-61513009D01*
X106135475Y-61513009D02*
X106059285Y-61589200D01*
X106059285Y-61589200D02*
X105944999Y-61627295D01*
X105944999Y-61627295D02*
X105868808Y-61627295D01*
X105868808Y-61627295D02*
X105754523Y-61589200D01*
X105754523Y-61589200D02*
X105716427Y-61551104D01*
X105716427Y-61551104D02*
X105716427Y-61284438D01*
X105716427Y-61284438D02*
X105868808Y-61284438D01*
X105373570Y-61627295D02*
X105373570Y-60827295D01*
X105373570Y-60827295D02*
X104916427Y-61627295D01*
X104916427Y-61627295D02*
X104916427Y-60827295D01*
X104535475Y-61627295D02*
X104535475Y-60827295D01*
X104535475Y-60827295D02*
X104344999Y-60827295D01*
X104344999Y-60827295D02*
X104230713Y-60865390D01*
X104230713Y-60865390D02*
X104154523Y-60941580D01*
X104154523Y-60941580D02*
X104116428Y-61017771D01*
X104116428Y-61017771D02*
X104078332Y-61170152D01*
X104078332Y-61170152D02*
X104078332Y-61284438D01*
X104078332Y-61284438D02*
X104116428Y-61436819D01*
X104116428Y-61436819D02*
X104154523Y-61513009D01*
X104154523Y-61513009D02*
X104230713Y-61589200D01*
X104230713Y-61589200D02*
X104344999Y-61627295D01*
X104344999Y-61627295D02*
X104535475Y-61627295D01*
X105747381Y-91345390D02*
X105823571Y-91307295D01*
X105823571Y-91307295D02*
X105937857Y-91307295D01*
X105937857Y-91307295D02*
X106052143Y-91345390D01*
X106052143Y-91345390D02*
X106128333Y-91421580D01*
X106128333Y-91421580D02*
X106166428Y-91497771D01*
X106166428Y-91497771D02*
X106204524Y-91650152D01*
X106204524Y-91650152D02*
X106204524Y-91764438D01*
X106204524Y-91764438D02*
X106166428Y-91916819D01*
X106166428Y-91916819D02*
X106128333Y-91993009D01*
X106128333Y-91993009D02*
X106052143Y-92069200D01*
X106052143Y-92069200D02*
X105937857Y-92107295D01*
X105937857Y-92107295D02*
X105861666Y-92107295D01*
X105861666Y-92107295D02*
X105747381Y-92069200D01*
X105747381Y-92069200D02*
X105709285Y-92031104D01*
X105709285Y-92031104D02*
X105709285Y-91764438D01*
X105709285Y-91764438D02*
X105861666Y-91764438D01*
X105366428Y-92107295D02*
X105366428Y-91307295D01*
X105366428Y-91307295D02*
X105061666Y-91307295D01*
X105061666Y-91307295D02*
X104985476Y-91345390D01*
X104985476Y-91345390D02*
X104947381Y-91383485D01*
X104947381Y-91383485D02*
X104909285Y-91459676D01*
X104909285Y-91459676D02*
X104909285Y-91573961D01*
X104909285Y-91573961D02*
X104947381Y-91650152D01*
X104947381Y-91650152D02*
X104985476Y-91688247D01*
X104985476Y-91688247D02*
X105061666Y-91726342D01*
X105061666Y-91726342D02*
X105366428Y-91726342D01*
X104147381Y-92107295D02*
X104604524Y-92107295D01*
X104375952Y-92107295D02*
X104375952Y-91307295D01*
X104375952Y-91307295D02*
X104452143Y-91421580D01*
X104452143Y-91421580D02*
X104528333Y-91497771D01*
X104528333Y-91497771D02*
X104604524Y-91535866D01*
X103423571Y-91307295D02*
X103804523Y-91307295D01*
X103804523Y-91307295D02*
X103842619Y-91688247D01*
X103842619Y-91688247D02*
X103804523Y-91650152D01*
X103804523Y-91650152D02*
X103728333Y-91612057D01*
X103728333Y-91612057D02*
X103537857Y-91612057D01*
X103537857Y-91612057D02*
X103461666Y-91650152D01*
X103461666Y-91650152D02*
X103423571Y-91688247D01*
X103423571Y-91688247D02*
X103385476Y-91764438D01*
X103385476Y-91764438D02*
X103385476Y-91954914D01*
X103385476Y-91954914D02*
X103423571Y-92031104D01*
X103423571Y-92031104D02*
X103461666Y-92069200D01*
X103461666Y-92069200D02*
X103537857Y-92107295D01*
X103537857Y-92107295D02*
X103728333Y-92107295D01*
X103728333Y-92107295D02*
X103804523Y-92069200D01*
X103804523Y-92069200D02*
X103842619Y-92031104D01*
X105716428Y-68485390D02*
X105792618Y-68447295D01*
X105792618Y-68447295D02*
X105906904Y-68447295D01*
X105906904Y-68447295D02*
X106021190Y-68485390D01*
X106021190Y-68485390D02*
X106097380Y-68561580D01*
X106097380Y-68561580D02*
X106135475Y-68637771D01*
X106135475Y-68637771D02*
X106173571Y-68790152D01*
X106173571Y-68790152D02*
X106173571Y-68904438D01*
X106173571Y-68904438D02*
X106135475Y-69056819D01*
X106135475Y-69056819D02*
X106097380Y-69133009D01*
X106097380Y-69133009D02*
X106021190Y-69209200D01*
X106021190Y-69209200D02*
X105906904Y-69247295D01*
X105906904Y-69247295D02*
X105830713Y-69247295D01*
X105830713Y-69247295D02*
X105716428Y-69209200D01*
X105716428Y-69209200D02*
X105678332Y-69171104D01*
X105678332Y-69171104D02*
X105678332Y-68904438D01*
X105678332Y-68904438D02*
X105830713Y-68904438D01*
X105335475Y-69247295D02*
X105335475Y-68447295D01*
X105335475Y-68447295D02*
X105030713Y-68447295D01*
X105030713Y-68447295D02*
X104954523Y-68485390D01*
X104954523Y-68485390D02*
X104916428Y-68523485D01*
X104916428Y-68523485D02*
X104878332Y-68599676D01*
X104878332Y-68599676D02*
X104878332Y-68713961D01*
X104878332Y-68713961D02*
X104916428Y-68790152D01*
X104916428Y-68790152D02*
X104954523Y-68828247D01*
X104954523Y-68828247D02*
X105030713Y-68866342D01*
X105030713Y-68866342D02*
X105335475Y-68866342D01*
X104421190Y-68790152D02*
X104497380Y-68752057D01*
X104497380Y-68752057D02*
X104535475Y-68713961D01*
X104535475Y-68713961D02*
X104573571Y-68637771D01*
X104573571Y-68637771D02*
X104573571Y-68599676D01*
X104573571Y-68599676D02*
X104535475Y-68523485D01*
X104535475Y-68523485D02*
X104497380Y-68485390D01*
X104497380Y-68485390D02*
X104421190Y-68447295D01*
X104421190Y-68447295D02*
X104268809Y-68447295D01*
X104268809Y-68447295D02*
X104192618Y-68485390D01*
X104192618Y-68485390D02*
X104154523Y-68523485D01*
X104154523Y-68523485D02*
X104116428Y-68599676D01*
X104116428Y-68599676D02*
X104116428Y-68637771D01*
X104116428Y-68637771D02*
X104154523Y-68713961D01*
X104154523Y-68713961D02*
X104192618Y-68752057D01*
X104192618Y-68752057D02*
X104268809Y-68790152D01*
X104268809Y-68790152D02*
X104421190Y-68790152D01*
X104421190Y-68790152D02*
X104497380Y-68828247D01*
X104497380Y-68828247D02*
X104535475Y-68866342D01*
X104535475Y-68866342D02*
X104573571Y-68942533D01*
X104573571Y-68942533D02*
X104573571Y-69094914D01*
X104573571Y-69094914D02*
X104535475Y-69171104D01*
X104535475Y-69171104D02*
X104497380Y-69209200D01*
X104497380Y-69209200D02*
X104421190Y-69247295D01*
X104421190Y-69247295D02*
X104268809Y-69247295D01*
X104268809Y-69247295D02*
X104192618Y-69209200D01*
X104192618Y-69209200D02*
X104154523Y-69171104D01*
X104154523Y-69171104D02*
X104116428Y-69094914D01*
X104116428Y-69094914D02*
X104116428Y-68942533D01*
X104116428Y-68942533D02*
X104154523Y-68866342D01*
X104154523Y-68866342D02*
X104192618Y-68828247D01*
X104192618Y-68828247D02*
X104268809Y-68790152D01*
X94686428Y-45587295D02*
X94419761Y-46387295D01*
X94419761Y-46387295D02*
X94153095Y-45587295D01*
X93924524Y-46349200D02*
X93810238Y-46387295D01*
X93810238Y-46387295D02*
X93619762Y-46387295D01*
X93619762Y-46387295D02*
X93543571Y-46349200D01*
X93543571Y-46349200D02*
X93505476Y-46311104D01*
X93505476Y-46311104D02*
X93467381Y-46234914D01*
X93467381Y-46234914D02*
X93467381Y-46158723D01*
X93467381Y-46158723D02*
X93505476Y-46082533D01*
X93505476Y-46082533D02*
X93543571Y-46044438D01*
X93543571Y-46044438D02*
X93619762Y-46006342D01*
X93619762Y-46006342D02*
X93772143Y-45968247D01*
X93772143Y-45968247D02*
X93848333Y-45930152D01*
X93848333Y-45930152D02*
X93886428Y-45892057D01*
X93886428Y-45892057D02*
X93924524Y-45815866D01*
X93924524Y-45815866D02*
X93924524Y-45739676D01*
X93924524Y-45739676D02*
X93886428Y-45663485D01*
X93886428Y-45663485D02*
X93848333Y-45625390D01*
X93848333Y-45625390D02*
X93772143Y-45587295D01*
X93772143Y-45587295D02*
X93581666Y-45587295D01*
X93581666Y-45587295D02*
X93467381Y-45625390D01*
X92972142Y-46006342D02*
X92972142Y-46387295D01*
X93238809Y-45587295D02*
X92972142Y-46006342D01*
X92972142Y-46006342D02*
X92705476Y-45587295D01*
X92476905Y-46349200D02*
X92362619Y-46387295D01*
X92362619Y-46387295D02*
X92172143Y-46387295D01*
X92172143Y-46387295D02*
X92095952Y-46349200D01*
X92095952Y-46349200D02*
X92057857Y-46311104D01*
X92057857Y-46311104D02*
X92019762Y-46234914D01*
X92019762Y-46234914D02*
X92019762Y-46158723D01*
X92019762Y-46158723D02*
X92057857Y-46082533D01*
X92057857Y-46082533D02*
X92095952Y-46044438D01*
X92095952Y-46044438D02*
X92172143Y-46006342D01*
X92172143Y-46006342D02*
X92324524Y-45968247D01*
X92324524Y-45968247D02*
X92400714Y-45930152D01*
X92400714Y-45930152D02*
X92438809Y-45892057D01*
X92438809Y-45892057D02*
X92476905Y-45815866D01*
X92476905Y-45815866D02*
X92476905Y-45739676D01*
X92476905Y-45739676D02*
X92438809Y-45663485D01*
X92438809Y-45663485D02*
X92400714Y-45625390D01*
X92400714Y-45625390D02*
X92324524Y-45587295D01*
X92324524Y-45587295D02*
X92134047Y-45587295D01*
X92134047Y-45587295D02*
X92019762Y-45625390D01*
X105716428Y-45615390D02*
X105792618Y-45577295D01*
X105792618Y-45577295D02*
X105906904Y-45577295D01*
X105906904Y-45577295D02*
X106021190Y-45615390D01*
X106021190Y-45615390D02*
X106097380Y-45691580D01*
X106097380Y-45691580D02*
X106135475Y-45767771D01*
X106135475Y-45767771D02*
X106173571Y-45920152D01*
X106173571Y-45920152D02*
X106173571Y-46034438D01*
X106173571Y-46034438D02*
X106135475Y-46186819D01*
X106135475Y-46186819D02*
X106097380Y-46263009D01*
X106097380Y-46263009D02*
X106021190Y-46339200D01*
X106021190Y-46339200D02*
X105906904Y-46377295D01*
X105906904Y-46377295D02*
X105830713Y-46377295D01*
X105830713Y-46377295D02*
X105716428Y-46339200D01*
X105716428Y-46339200D02*
X105678332Y-46301104D01*
X105678332Y-46301104D02*
X105678332Y-46034438D01*
X105678332Y-46034438D02*
X105830713Y-46034438D01*
X105335475Y-46377295D02*
X105335475Y-45577295D01*
X105335475Y-45577295D02*
X105030713Y-45577295D01*
X105030713Y-45577295D02*
X104954523Y-45615390D01*
X104954523Y-45615390D02*
X104916428Y-45653485D01*
X104916428Y-45653485D02*
X104878332Y-45729676D01*
X104878332Y-45729676D02*
X104878332Y-45843961D01*
X104878332Y-45843961D02*
X104916428Y-45920152D01*
X104916428Y-45920152D02*
X104954523Y-45958247D01*
X104954523Y-45958247D02*
X105030713Y-45996342D01*
X105030713Y-45996342D02*
X105335475Y-45996342D01*
X104116428Y-46377295D02*
X104573571Y-46377295D01*
X104344999Y-46377295D02*
X104344999Y-45577295D01*
X104344999Y-45577295D02*
X104421190Y-45691580D01*
X104421190Y-45691580D02*
X104497380Y-45767771D01*
X104497380Y-45767771D02*
X104573571Y-45805866D01*
X105716428Y-58325390D02*
X105792618Y-58287295D01*
X105792618Y-58287295D02*
X105906904Y-58287295D01*
X105906904Y-58287295D02*
X106021190Y-58325390D01*
X106021190Y-58325390D02*
X106097380Y-58401580D01*
X106097380Y-58401580D02*
X106135475Y-58477771D01*
X106135475Y-58477771D02*
X106173571Y-58630152D01*
X106173571Y-58630152D02*
X106173571Y-58744438D01*
X106173571Y-58744438D02*
X106135475Y-58896819D01*
X106135475Y-58896819D02*
X106097380Y-58973009D01*
X106097380Y-58973009D02*
X106021190Y-59049200D01*
X106021190Y-59049200D02*
X105906904Y-59087295D01*
X105906904Y-59087295D02*
X105830713Y-59087295D01*
X105830713Y-59087295D02*
X105716428Y-59049200D01*
X105716428Y-59049200D02*
X105678332Y-59011104D01*
X105678332Y-59011104D02*
X105678332Y-58744438D01*
X105678332Y-58744438D02*
X105830713Y-58744438D01*
X105335475Y-59087295D02*
X105335475Y-58287295D01*
X105335475Y-58287295D02*
X105030713Y-58287295D01*
X105030713Y-58287295D02*
X104954523Y-58325390D01*
X104954523Y-58325390D02*
X104916428Y-58363485D01*
X104916428Y-58363485D02*
X104878332Y-58439676D01*
X104878332Y-58439676D02*
X104878332Y-58553961D01*
X104878332Y-58553961D02*
X104916428Y-58630152D01*
X104916428Y-58630152D02*
X104954523Y-58668247D01*
X104954523Y-58668247D02*
X105030713Y-58706342D01*
X105030713Y-58706342D02*
X105335475Y-58706342D01*
X104154523Y-58287295D02*
X104535475Y-58287295D01*
X104535475Y-58287295D02*
X104573571Y-58668247D01*
X104573571Y-58668247D02*
X104535475Y-58630152D01*
X104535475Y-58630152D02*
X104459285Y-58592057D01*
X104459285Y-58592057D02*
X104268809Y-58592057D01*
X104268809Y-58592057D02*
X104192618Y-58630152D01*
X104192618Y-58630152D02*
X104154523Y-58668247D01*
X104154523Y-58668247D02*
X104116428Y-58744438D01*
X104116428Y-58744438D02*
X104116428Y-58934914D01*
X104116428Y-58934914D02*
X104154523Y-59011104D01*
X104154523Y-59011104D02*
X104192618Y-59049200D01*
X104192618Y-59049200D02*
X104268809Y-59087295D01*
X104268809Y-59087295D02*
X104459285Y-59087295D01*
X104459285Y-59087295D02*
X104535475Y-59049200D01*
X104535475Y-59049200D02*
X104573571Y-59011104D01*
X105754523Y-86265390D02*
X105830713Y-86227295D01*
X105830713Y-86227295D02*
X105944999Y-86227295D01*
X105944999Y-86227295D02*
X106059285Y-86265390D01*
X106059285Y-86265390D02*
X106135475Y-86341580D01*
X106135475Y-86341580D02*
X106173570Y-86417771D01*
X106173570Y-86417771D02*
X106211666Y-86570152D01*
X106211666Y-86570152D02*
X106211666Y-86684438D01*
X106211666Y-86684438D02*
X106173570Y-86836819D01*
X106173570Y-86836819D02*
X106135475Y-86913009D01*
X106135475Y-86913009D02*
X106059285Y-86989200D01*
X106059285Y-86989200D02*
X105944999Y-87027295D01*
X105944999Y-87027295D02*
X105868808Y-87027295D01*
X105868808Y-87027295D02*
X105754523Y-86989200D01*
X105754523Y-86989200D02*
X105716427Y-86951104D01*
X105716427Y-86951104D02*
X105716427Y-86684438D01*
X105716427Y-86684438D02*
X105868808Y-86684438D01*
X105373570Y-87027295D02*
X105373570Y-86227295D01*
X105373570Y-86227295D02*
X104916427Y-87027295D01*
X104916427Y-87027295D02*
X104916427Y-86227295D01*
X104535475Y-87027295D02*
X104535475Y-86227295D01*
X104535475Y-86227295D02*
X104344999Y-86227295D01*
X104344999Y-86227295D02*
X104230713Y-86265390D01*
X104230713Y-86265390D02*
X104154523Y-86341580D01*
X104154523Y-86341580D02*
X104116428Y-86417771D01*
X104116428Y-86417771D02*
X104078332Y-86570152D01*
X104078332Y-86570152D02*
X104078332Y-86684438D01*
X104078332Y-86684438D02*
X104116428Y-86836819D01*
X104116428Y-86836819D02*
X104154523Y-86913009D01*
X104154523Y-86913009D02*
X104230713Y-86989200D01*
X104230713Y-86989200D02*
X104344999Y-87027295D01*
X104344999Y-87027295D02*
X104535475Y-87027295D01*
X94517381Y-78645390D02*
X94593571Y-78607295D01*
X94593571Y-78607295D02*
X94707857Y-78607295D01*
X94707857Y-78607295D02*
X94822143Y-78645390D01*
X94822143Y-78645390D02*
X94898333Y-78721580D01*
X94898333Y-78721580D02*
X94936428Y-78797771D01*
X94936428Y-78797771D02*
X94974524Y-78950152D01*
X94974524Y-78950152D02*
X94974524Y-79064438D01*
X94974524Y-79064438D02*
X94936428Y-79216819D01*
X94936428Y-79216819D02*
X94898333Y-79293009D01*
X94898333Y-79293009D02*
X94822143Y-79369200D01*
X94822143Y-79369200D02*
X94707857Y-79407295D01*
X94707857Y-79407295D02*
X94631666Y-79407295D01*
X94631666Y-79407295D02*
X94517381Y-79369200D01*
X94517381Y-79369200D02*
X94479285Y-79331104D01*
X94479285Y-79331104D02*
X94479285Y-79064438D01*
X94479285Y-79064438D02*
X94631666Y-79064438D01*
X94136428Y-79407295D02*
X94136428Y-78607295D01*
X94136428Y-78607295D02*
X93831666Y-78607295D01*
X93831666Y-78607295D02*
X93755476Y-78645390D01*
X93755476Y-78645390D02*
X93717381Y-78683485D01*
X93717381Y-78683485D02*
X93679285Y-78759676D01*
X93679285Y-78759676D02*
X93679285Y-78873961D01*
X93679285Y-78873961D02*
X93717381Y-78950152D01*
X93717381Y-78950152D02*
X93755476Y-78988247D01*
X93755476Y-78988247D02*
X93831666Y-79026342D01*
X93831666Y-79026342D02*
X94136428Y-79026342D01*
X93374524Y-78683485D02*
X93336428Y-78645390D01*
X93336428Y-78645390D02*
X93260238Y-78607295D01*
X93260238Y-78607295D02*
X93069762Y-78607295D01*
X93069762Y-78607295D02*
X92993571Y-78645390D01*
X92993571Y-78645390D02*
X92955476Y-78683485D01*
X92955476Y-78683485D02*
X92917381Y-78759676D01*
X92917381Y-78759676D02*
X92917381Y-78835866D01*
X92917381Y-78835866D02*
X92955476Y-78950152D01*
X92955476Y-78950152D02*
X93412619Y-79407295D01*
X93412619Y-79407295D02*
X92917381Y-79407295D01*
X92422142Y-78607295D02*
X92345952Y-78607295D01*
X92345952Y-78607295D02*
X92269761Y-78645390D01*
X92269761Y-78645390D02*
X92231666Y-78683485D01*
X92231666Y-78683485D02*
X92193571Y-78759676D01*
X92193571Y-78759676D02*
X92155476Y-78912057D01*
X92155476Y-78912057D02*
X92155476Y-79102533D01*
X92155476Y-79102533D02*
X92193571Y-79254914D01*
X92193571Y-79254914D02*
X92231666Y-79331104D01*
X92231666Y-79331104D02*
X92269761Y-79369200D01*
X92269761Y-79369200D02*
X92345952Y-79407295D01*
X92345952Y-79407295D02*
X92422142Y-79407295D01*
X92422142Y-79407295D02*
X92498333Y-79369200D01*
X92498333Y-79369200D02*
X92536428Y-79331104D01*
X92536428Y-79331104D02*
X92574523Y-79254914D01*
X92574523Y-79254914D02*
X92612619Y-79102533D01*
X92612619Y-79102533D02*
X92612619Y-78912057D01*
X92612619Y-78912057D02*
X92574523Y-78759676D01*
X92574523Y-78759676D02*
X92536428Y-78683485D01*
X92536428Y-78683485D02*
X92498333Y-78645390D01*
X92498333Y-78645390D02*
X92422142Y-78607295D01*
X105747381Y-81185390D02*
X105823571Y-81147295D01*
X105823571Y-81147295D02*
X105937857Y-81147295D01*
X105937857Y-81147295D02*
X106052143Y-81185390D01*
X106052143Y-81185390D02*
X106128333Y-81261580D01*
X106128333Y-81261580D02*
X106166428Y-81337771D01*
X106166428Y-81337771D02*
X106204524Y-81490152D01*
X106204524Y-81490152D02*
X106204524Y-81604438D01*
X106204524Y-81604438D02*
X106166428Y-81756819D01*
X106166428Y-81756819D02*
X106128333Y-81833009D01*
X106128333Y-81833009D02*
X106052143Y-81909200D01*
X106052143Y-81909200D02*
X105937857Y-81947295D01*
X105937857Y-81947295D02*
X105861666Y-81947295D01*
X105861666Y-81947295D02*
X105747381Y-81909200D01*
X105747381Y-81909200D02*
X105709285Y-81871104D01*
X105709285Y-81871104D02*
X105709285Y-81604438D01*
X105709285Y-81604438D02*
X105861666Y-81604438D01*
X105366428Y-81947295D02*
X105366428Y-81147295D01*
X105366428Y-81147295D02*
X105061666Y-81147295D01*
X105061666Y-81147295D02*
X104985476Y-81185390D01*
X104985476Y-81185390D02*
X104947381Y-81223485D01*
X104947381Y-81223485D02*
X104909285Y-81299676D01*
X104909285Y-81299676D02*
X104909285Y-81413961D01*
X104909285Y-81413961D02*
X104947381Y-81490152D01*
X104947381Y-81490152D02*
X104985476Y-81528247D01*
X104985476Y-81528247D02*
X105061666Y-81566342D01*
X105061666Y-81566342D02*
X105366428Y-81566342D01*
X104147381Y-81947295D02*
X104604524Y-81947295D01*
X104375952Y-81947295D02*
X104375952Y-81147295D01*
X104375952Y-81147295D02*
X104452143Y-81261580D01*
X104452143Y-81261580D02*
X104528333Y-81337771D01*
X104528333Y-81337771D02*
X104604524Y-81375866D01*
X103842619Y-81223485D02*
X103804523Y-81185390D01*
X103804523Y-81185390D02*
X103728333Y-81147295D01*
X103728333Y-81147295D02*
X103537857Y-81147295D01*
X103537857Y-81147295D02*
X103461666Y-81185390D01*
X103461666Y-81185390D02*
X103423571Y-81223485D01*
X103423571Y-81223485D02*
X103385476Y-81299676D01*
X103385476Y-81299676D02*
X103385476Y-81375866D01*
X103385476Y-81375866D02*
X103423571Y-81490152D01*
X103423571Y-81490152D02*
X103880714Y-81947295D01*
X103880714Y-81947295D02*
X103385476Y-81947295D01*
X94517381Y-65945390D02*
X94593571Y-65907295D01*
X94593571Y-65907295D02*
X94707857Y-65907295D01*
X94707857Y-65907295D02*
X94822143Y-65945390D01*
X94822143Y-65945390D02*
X94898333Y-66021580D01*
X94898333Y-66021580D02*
X94936428Y-66097771D01*
X94936428Y-66097771D02*
X94974524Y-66250152D01*
X94974524Y-66250152D02*
X94974524Y-66364438D01*
X94974524Y-66364438D02*
X94936428Y-66516819D01*
X94936428Y-66516819D02*
X94898333Y-66593009D01*
X94898333Y-66593009D02*
X94822143Y-66669200D01*
X94822143Y-66669200D02*
X94707857Y-66707295D01*
X94707857Y-66707295D02*
X94631666Y-66707295D01*
X94631666Y-66707295D02*
X94517381Y-66669200D01*
X94517381Y-66669200D02*
X94479285Y-66631104D01*
X94479285Y-66631104D02*
X94479285Y-66364438D01*
X94479285Y-66364438D02*
X94631666Y-66364438D01*
X94136428Y-66707295D02*
X94136428Y-65907295D01*
X94136428Y-65907295D02*
X93831666Y-65907295D01*
X93831666Y-65907295D02*
X93755476Y-65945390D01*
X93755476Y-65945390D02*
X93717381Y-65983485D01*
X93717381Y-65983485D02*
X93679285Y-66059676D01*
X93679285Y-66059676D02*
X93679285Y-66173961D01*
X93679285Y-66173961D02*
X93717381Y-66250152D01*
X93717381Y-66250152D02*
X93755476Y-66288247D01*
X93755476Y-66288247D02*
X93831666Y-66326342D01*
X93831666Y-66326342D02*
X94136428Y-66326342D01*
X93374524Y-65983485D02*
X93336428Y-65945390D01*
X93336428Y-65945390D02*
X93260238Y-65907295D01*
X93260238Y-65907295D02*
X93069762Y-65907295D01*
X93069762Y-65907295D02*
X92993571Y-65945390D01*
X92993571Y-65945390D02*
X92955476Y-65983485D01*
X92955476Y-65983485D02*
X92917381Y-66059676D01*
X92917381Y-66059676D02*
X92917381Y-66135866D01*
X92917381Y-66135866D02*
X92955476Y-66250152D01*
X92955476Y-66250152D02*
X93412619Y-66707295D01*
X93412619Y-66707295D02*
X92917381Y-66707295D01*
X92231666Y-65907295D02*
X92384047Y-65907295D01*
X92384047Y-65907295D02*
X92460238Y-65945390D01*
X92460238Y-65945390D02*
X92498333Y-65983485D01*
X92498333Y-65983485D02*
X92574523Y-66097771D01*
X92574523Y-66097771D02*
X92612619Y-66250152D01*
X92612619Y-66250152D02*
X92612619Y-66554914D01*
X92612619Y-66554914D02*
X92574523Y-66631104D01*
X92574523Y-66631104D02*
X92536428Y-66669200D01*
X92536428Y-66669200D02*
X92460238Y-66707295D01*
X92460238Y-66707295D02*
X92307857Y-66707295D01*
X92307857Y-66707295D02*
X92231666Y-66669200D01*
X92231666Y-66669200D02*
X92193571Y-66631104D01*
X92193571Y-66631104D02*
X92155476Y-66554914D01*
X92155476Y-66554914D02*
X92155476Y-66364438D01*
X92155476Y-66364438D02*
X92193571Y-66288247D01*
X92193571Y-66288247D02*
X92231666Y-66250152D01*
X92231666Y-66250152D02*
X92307857Y-66212057D01*
X92307857Y-66212057D02*
X92460238Y-66212057D01*
X92460238Y-66212057D02*
X92536428Y-66250152D01*
X92536428Y-66250152D02*
X92574523Y-66288247D01*
X92574523Y-66288247D02*
X92612619Y-66364438D01*
X94055476Y-53207295D02*
X93560238Y-53207295D01*
X93560238Y-53207295D02*
X93826904Y-53512057D01*
X93826904Y-53512057D02*
X93712619Y-53512057D01*
X93712619Y-53512057D02*
X93636428Y-53550152D01*
X93636428Y-53550152D02*
X93598333Y-53588247D01*
X93598333Y-53588247D02*
X93560238Y-53664438D01*
X93560238Y-53664438D02*
X93560238Y-53854914D01*
X93560238Y-53854914D02*
X93598333Y-53931104D01*
X93598333Y-53931104D02*
X93636428Y-53969200D01*
X93636428Y-53969200D02*
X93712619Y-54007295D01*
X93712619Y-54007295D02*
X93941190Y-54007295D01*
X93941190Y-54007295D02*
X94017381Y-53969200D01*
X94017381Y-53969200D02*
X94055476Y-53931104D01*
X93331666Y-53207295D02*
X93064999Y-54007295D01*
X93064999Y-54007295D02*
X92798333Y-53207295D01*
X92607857Y-53207295D02*
X92112619Y-53207295D01*
X92112619Y-53207295D02*
X92379285Y-53512057D01*
X92379285Y-53512057D02*
X92265000Y-53512057D01*
X92265000Y-53512057D02*
X92188809Y-53550152D01*
X92188809Y-53550152D02*
X92150714Y-53588247D01*
X92150714Y-53588247D02*
X92112619Y-53664438D01*
X92112619Y-53664438D02*
X92112619Y-53854914D01*
X92112619Y-53854914D02*
X92150714Y-53931104D01*
X92150714Y-53931104D02*
X92188809Y-53969200D01*
X92188809Y-53969200D02*
X92265000Y-54007295D01*
X92265000Y-54007295D02*
X92493571Y-54007295D01*
X92493571Y-54007295D02*
X92569762Y-53969200D01*
X92569762Y-53969200D02*
X92607857Y-53931104D01*
X105747381Y-88805390D02*
X105823571Y-88767295D01*
X105823571Y-88767295D02*
X105937857Y-88767295D01*
X105937857Y-88767295D02*
X106052143Y-88805390D01*
X106052143Y-88805390D02*
X106128333Y-88881580D01*
X106128333Y-88881580D02*
X106166428Y-88957771D01*
X106166428Y-88957771D02*
X106204524Y-89110152D01*
X106204524Y-89110152D02*
X106204524Y-89224438D01*
X106204524Y-89224438D02*
X106166428Y-89376819D01*
X106166428Y-89376819D02*
X106128333Y-89453009D01*
X106128333Y-89453009D02*
X106052143Y-89529200D01*
X106052143Y-89529200D02*
X105937857Y-89567295D01*
X105937857Y-89567295D02*
X105861666Y-89567295D01*
X105861666Y-89567295D02*
X105747381Y-89529200D01*
X105747381Y-89529200D02*
X105709285Y-89491104D01*
X105709285Y-89491104D02*
X105709285Y-89224438D01*
X105709285Y-89224438D02*
X105861666Y-89224438D01*
X105366428Y-89567295D02*
X105366428Y-88767295D01*
X105366428Y-88767295D02*
X105061666Y-88767295D01*
X105061666Y-88767295D02*
X104985476Y-88805390D01*
X104985476Y-88805390D02*
X104947381Y-88843485D01*
X104947381Y-88843485D02*
X104909285Y-88919676D01*
X104909285Y-88919676D02*
X104909285Y-89033961D01*
X104909285Y-89033961D02*
X104947381Y-89110152D01*
X104947381Y-89110152D02*
X104985476Y-89148247D01*
X104985476Y-89148247D02*
X105061666Y-89186342D01*
X105061666Y-89186342D02*
X105366428Y-89186342D01*
X104147381Y-89567295D02*
X104604524Y-89567295D01*
X104375952Y-89567295D02*
X104375952Y-88767295D01*
X104375952Y-88767295D02*
X104452143Y-88881580D01*
X104452143Y-88881580D02*
X104528333Y-88957771D01*
X104528333Y-88957771D02*
X104604524Y-88995866D01*
X103461666Y-89033961D02*
X103461666Y-89567295D01*
X103652142Y-88729200D02*
X103842619Y-89300628D01*
X103842619Y-89300628D02*
X103347380Y-89300628D01*
X105716428Y-55785390D02*
X105792618Y-55747295D01*
X105792618Y-55747295D02*
X105906904Y-55747295D01*
X105906904Y-55747295D02*
X106021190Y-55785390D01*
X106021190Y-55785390D02*
X106097380Y-55861580D01*
X106097380Y-55861580D02*
X106135475Y-55937771D01*
X106135475Y-55937771D02*
X106173571Y-56090152D01*
X106173571Y-56090152D02*
X106173571Y-56204438D01*
X106173571Y-56204438D02*
X106135475Y-56356819D01*
X106135475Y-56356819D02*
X106097380Y-56433009D01*
X106097380Y-56433009D02*
X106021190Y-56509200D01*
X106021190Y-56509200D02*
X105906904Y-56547295D01*
X105906904Y-56547295D02*
X105830713Y-56547295D01*
X105830713Y-56547295D02*
X105716428Y-56509200D01*
X105716428Y-56509200D02*
X105678332Y-56471104D01*
X105678332Y-56471104D02*
X105678332Y-56204438D01*
X105678332Y-56204438D02*
X105830713Y-56204438D01*
X105335475Y-56547295D02*
X105335475Y-55747295D01*
X105335475Y-55747295D02*
X105030713Y-55747295D01*
X105030713Y-55747295D02*
X104954523Y-55785390D01*
X104954523Y-55785390D02*
X104916428Y-55823485D01*
X104916428Y-55823485D02*
X104878332Y-55899676D01*
X104878332Y-55899676D02*
X104878332Y-56013961D01*
X104878332Y-56013961D02*
X104916428Y-56090152D01*
X104916428Y-56090152D02*
X104954523Y-56128247D01*
X104954523Y-56128247D02*
X105030713Y-56166342D01*
X105030713Y-56166342D02*
X105335475Y-56166342D01*
X104192618Y-56013961D02*
X104192618Y-56547295D01*
X104383094Y-55709200D02*
X104573571Y-56280628D01*
X104573571Y-56280628D02*
X104078332Y-56280628D01*
X94517381Y-76115390D02*
X94593571Y-76077295D01*
X94593571Y-76077295D02*
X94707857Y-76077295D01*
X94707857Y-76077295D02*
X94822143Y-76115390D01*
X94822143Y-76115390D02*
X94898333Y-76191580D01*
X94898333Y-76191580D02*
X94936428Y-76267771D01*
X94936428Y-76267771D02*
X94974524Y-76420152D01*
X94974524Y-76420152D02*
X94974524Y-76534438D01*
X94974524Y-76534438D02*
X94936428Y-76686819D01*
X94936428Y-76686819D02*
X94898333Y-76763009D01*
X94898333Y-76763009D02*
X94822143Y-76839200D01*
X94822143Y-76839200D02*
X94707857Y-76877295D01*
X94707857Y-76877295D02*
X94631666Y-76877295D01*
X94631666Y-76877295D02*
X94517381Y-76839200D01*
X94517381Y-76839200D02*
X94479285Y-76801104D01*
X94479285Y-76801104D02*
X94479285Y-76534438D01*
X94479285Y-76534438D02*
X94631666Y-76534438D01*
X94136428Y-76877295D02*
X94136428Y-76077295D01*
X94136428Y-76077295D02*
X93831666Y-76077295D01*
X93831666Y-76077295D02*
X93755476Y-76115390D01*
X93755476Y-76115390D02*
X93717381Y-76153485D01*
X93717381Y-76153485D02*
X93679285Y-76229676D01*
X93679285Y-76229676D02*
X93679285Y-76343961D01*
X93679285Y-76343961D02*
X93717381Y-76420152D01*
X93717381Y-76420152D02*
X93755476Y-76458247D01*
X93755476Y-76458247D02*
X93831666Y-76496342D01*
X93831666Y-76496342D02*
X94136428Y-76496342D01*
X93374524Y-76153485D02*
X93336428Y-76115390D01*
X93336428Y-76115390D02*
X93260238Y-76077295D01*
X93260238Y-76077295D02*
X93069762Y-76077295D01*
X93069762Y-76077295D02*
X92993571Y-76115390D01*
X92993571Y-76115390D02*
X92955476Y-76153485D01*
X92955476Y-76153485D02*
X92917381Y-76229676D01*
X92917381Y-76229676D02*
X92917381Y-76305866D01*
X92917381Y-76305866D02*
X92955476Y-76420152D01*
X92955476Y-76420152D02*
X93412619Y-76877295D01*
X93412619Y-76877295D02*
X92917381Y-76877295D01*
X92155476Y-76877295D02*
X92612619Y-76877295D01*
X92384047Y-76877295D02*
X92384047Y-76077295D01*
X92384047Y-76077295D02*
X92460238Y-76191580D01*
X92460238Y-76191580D02*
X92536428Y-76267771D01*
X92536428Y-76267771D02*
X92612619Y-76305866D01*
X101969200Y-86055475D02*
X102007295Y-86169761D01*
X102007295Y-86169761D02*
X102007295Y-86360237D01*
X102007295Y-86360237D02*
X101969200Y-86436428D01*
X101969200Y-86436428D02*
X101931104Y-86474523D01*
X101931104Y-86474523D02*
X101854914Y-86512618D01*
X101854914Y-86512618D02*
X101778723Y-86512618D01*
X101778723Y-86512618D02*
X101702533Y-86474523D01*
X101702533Y-86474523D02*
X101664438Y-86436428D01*
X101664438Y-86436428D02*
X101626342Y-86360237D01*
X101626342Y-86360237D02*
X101588247Y-86207856D01*
X101588247Y-86207856D02*
X101550152Y-86131666D01*
X101550152Y-86131666D02*
X101512057Y-86093571D01*
X101512057Y-86093571D02*
X101435866Y-86055475D01*
X101435866Y-86055475D02*
X101359676Y-86055475D01*
X101359676Y-86055475D02*
X101283485Y-86093571D01*
X101283485Y-86093571D02*
X101245390Y-86131666D01*
X101245390Y-86131666D02*
X101207295Y-86207856D01*
X101207295Y-86207856D02*
X101207295Y-86398333D01*
X101207295Y-86398333D02*
X101245390Y-86512618D01*
X101207295Y-86779285D02*
X102007295Y-86969761D01*
X102007295Y-86969761D02*
X101435866Y-87122142D01*
X101435866Y-87122142D02*
X102007295Y-87274523D01*
X102007295Y-87274523D02*
X101207295Y-87465000D01*
X101931104Y-88226905D02*
X101969200Y-88188809D01*
X101969200Y-88188809D02*
X102007295Y-88074524D01*
X102007295Y-88074524D02*
X102007295Y-87998333D01*
X102007295Y-87998333D02*
X101969200Y-87884047D01*
X101969200Y-87884047D02*
X101893009Y-87807857D01*
X101893009Y-87807857D02*
X101816819Y-87769762D01*
X101816819Y-87769762D02*
X101664438Y-87731666D01*
X101664438Y-87731666D02*
X101550152Y-87731666D01*
X101550152Y-87731666D02*
X101397771Y-87769762D01*
X101397771Y-87769762D02*
X101321580Y-87807857D01*
X101321580Y-87807857D02*
X101245390Y-87884047D01*
X101245390Y-87884047D02*
X101207295Y-87998333D01*
X101207295Y-87998333D02*
X101207295Y-88074524D01*
X101207295Y-88074524D02*
X101245390Y-88188809D01*
X101245390Y-88188809D02*
X101283485Y-88226905D01*
X102007295Y-88950714D02*
X102007295Y-88569762D01*
X102007295Y-88569762D02*
X101207295Y-88569762D01*
X102007295Y-89217381D02*
X101207295Y-89217381D01*
X102007295Y-89674524D02*
X101550152Y-89331666D01*
X101207295Y-89674524D02*
X101664438Y-89217381D01*
X105747381Y-78645390D02*
X105823571Y-78607295D01*
X105823571Y-78607295D02*
X105937857Y-78607295D01*
X105937857Y-78607295D02*
X106052143Y-78645390D01*
X106052143Y-78645390D02*
X106128333Y-78721580D01*
X106128333Y-78721580D02*
X106166428Y-78797771D01*
X106166428Y-78797771D02*
X106204524Y-78950152D01*
X106204524Y-78950152D02*
X106204524Y-79064438D01*
X106204524Y-79064438D02*
X106166428Y-79216819D01*
X106166428Y-79216819D02*
X106128333Y-79293009D01*
X106128333Y-79293009D02*
X106052143Y-79369200D01*
X106052143Y-79369200D02*
X105937857Y-79407295D01*
X105937857Y-79407295D02*
X105861666Y-79407295D01*
X105861666Y-79407295D02*
X105747381Y-79369200D01*
X105747381Y-79369200D02*
X105709285Y-79331104D01*
X105709285Y-79331104D02*
X105709285Y-79064438D01*
X105709285Y-79064438D02*
X105861666Y-79064438D01*
X105366428Y-79407295D02*
X105366428Y-78607295D01*
X105366428Y-78607295D02*
X105061666Y-78607295D01*
X105061666Y-78607295D02*
X104985476Y-78645390D01*
X104985476Y-78645390D02*
X104947381Y-78683485D01*
X104947381Y-78683485D02*
X104909285Y-78759676D01*
X104909285Y-78759676D02*
X104909285Y-78873961D01*
X104909285Y-78873961D02*
X104947381Y-78950152D01*
X104947381Y-78950152D02*
X104985476Y-78988247D01*
X104985476Y-78988247D02*
X105061666Y-79026342D01*
X105061666Y-79026342D02*
X105366428Y-79026342D01*
X104147381Y-79407295D02*
X104604524Y-79407295D01*
X104375952Y-79407295D02*
X104375952Y-78607295D01*
X104375952Y-78607295D02*
X104452143Y-78721580D01*
X104452143Y-78721580D02*
X104528333Y-78797771D01*
X104528333Y-78797771D02*
X104604524Y-78835866D01*
X103385476Y-79407295D02*
X103842619Y-79407295D01*
X103614047Y-79407295D02*
X103614047Y-78607295D01*
X103614047Y-78607295D02*
X103690238Y-78721580D01*
X103690238Y-78721580D02*
X103766428Y-78797771D01*
X103766428Y-78797771D02*
X103842619Y-78835866D01*
X94517381Y-63415390D02*
X94593571Y-63377295D01*
X94593571Y-63377295D02*
X94707857Y-63377295D01*
X94707857Y-63377295D02*
X94822143Y-63415390D01*
X94822143Y-63415390D02*
X94898333Y-63491580D01*
X94898333Y-63491580D02*
X94936428Y-63567771D01*
X94936428Y-63567771D02*
X94974524Y-63720152D01*
X94974524Y-63720152D02*
X94974524Y-63834438D01*
X94974524Y-63834438D02*
X94936428Y-63986819D01*
X94936428Y-63986819D02*
X94898333Y-64063009D01*
X94898333Y-64063009D02*
X94822143Y-64139200D01*
X94822143Y-64139200D02*
X94707857Y-64177295D01*
X94707857Y-64177295D02*
X94631666Y-64177295D01*
X94631666Y-64177295D02*
X94517381Y-64139200D01*
X94517381Y-64139200D02*
X94479285Y-64101104D01*
X94479285Y-64101104D02*
X94479285Y-63834438D01*
X94479285Y-63834438D02*
X94631666Y-63834438D01*
X94136428Y-64177295D02*
X94136428Y-63377295D01*
X94136428Y-63377295D02*
X93831666Y-63377295D01*
X93831666Y-63377295D02*
X93755476Y-63415390D01*
X93755476Y-63415390D02*
X93717381Y-63453485D01*
X93717381Y-63453485D02*
X93679285Y-63529676D01*
X93679285Y-63529676D02*
X93679285Y-63643961D01*
X93679285Y-63643961D02*
X93717381Y-63720152D01*
X93717381Y-63720152D02*
X93755476Y-63758247D01*
X93755476Y-63758247D02*
X93831666Y-63796342D01*
X93831666Y-63796342D02*
X94136428Y-63796342D01*
X93374524Y-63453485D02*
X93336428Y-63415390D01*
X93336428Y-63415390D02*
X93260238Y-63377295D01*
X93260238Y-63377295D02*
X93069762Y-63377295D01*
X93069762Y-63377295D02*
X92993571Y-63415390D01*
X92993571Y-63415390D02*
X92955476Y-63453485D01*
X92955476Y-63453485D02*
X92917381Y-63529676D01*
X92917381Y-63529676D02*
X92917381Y-63605866D01*
X92917381Y-63605866D02*
X92955476Y-63720152D01*
X92955476Y-63720152D02*
X93412619Y-64177295D01*
X93412619Y-64177295D02*
X92917381Y-64177295D01*
X92650714Y-63377295D02*
X92117380Y-63377295D01*
X92117380Y-63377295D02*
X92460238Y-64177295D01*
X98705390Y-88005476D02*
X98667295Y-87929286D01*
X98667295Y-87929286D02*
X98667295Y-87815000D01*
X98667295Y-87815000D02*
X98705390Y-87700714D01*
X98705390Y-87700714D02*
X98781580Y-87624524D01*
X98781580Y-87624524D02*
X98857771Y-87586429D01*
X98857771Y-87586429D02*
X99010152Y-87548333D01*
X99010152Y-87548333D02*
X99124438Y-87548333D01*
X99124438Y-87548333D02*
X99276819Y-87586429D01*
X99276819Y-87586429D02*
X99353009Y-87624524D01*
X99353009Y-87624524D02*
X99429200Y-87700714D01*
X99429200Y-87700714D02*
X99467295Y-87815000D01*
X99467295Y-87815000D02*
X99467295Y-87891191D01*
X99467295Y-87891191D02*
X99429200Y-88005476D01*
X99429200Y-88005476D02*
X99391104Y-88043572D01*
X99391104Y-88043572D02*
X99124438Y-88043572D01*
X99124438Y-88043572D02*
X99124438Y-87891191D01*
X99467295Y-88386429D02*
X98667295Y-88386429D01*
X98667295Y-88386429D02*
X99467295Y-88843572D01*
X99467295Y-88843572D02*
X98667295Y-88843572D01*
X99467295Y-89224524D02*
X98667295Y-89224524D01*
X98667295Y-89224524D02*
X98667295Y-89415000D01*
X98667295Y-89415000D02*
X98705390Y-89529286D01*
X98705390Y-89529286D02*
X98781580Y-89605476D01*
X98781580Y-89605476D02*
X98857771Y-89643571D01*
X98857771Y-89643571D02*
X99010152Y-89681667D01*
X99010152Y-89681667D02*
X99124438Y-89681667D01*
X99124438Y-89681667D02*
X99276819Y-89643571D01*
X99276819Y-89643571D02*
X99353009Y-89605476D01*
X99353009Y-89605476D02*
X99429200Y-89529286D01*
X99429200Y-89529286D02*
X99467295Y-89415000D01*
X99467295Y-89415000D02*
X99467295Y-89224524D01*
X93824523Y-73565390D02*
X93900713Y-73527295D01*
X93900713Y-73527295D02*
X94014999Y-73527295D01*
X94014999Y-73527295D02*
X94129285Y-73565390D01*
X94129285Y-73565390D02*
X94205475Y-73641580D01*
X94205475Y-73641580D02*
X94243570Y-73717771D01*
X94243570Y-73717771D02*
X94281666Y-73870152D01*
X94281666Y-73870152D02*
X94281666Y-73984438D01*
X94281666Y-73984438D02*
X94243570Y-74136819D01*
X94243570Y-74136819D02*
X94205475Y-74213009D01*
X94205475Y-74213009D02*
X94129285Y-74289200D01*
X94129285Y-74289200D02*
X94014999Y-74327295D01*
X94014999Y-74327295D02*
X93938808Y-74327295D01*
X93938808Y-74327295D02*
X93824523Y-74289200D01*
X93824523Y-74289200D02*
X93786427Y-74251104D01*
X93786427Y-74251104D02*
X93786427Y-73984438D01*
X93786427Y-73984438D02*
X93938808Y-73984438D01*
X93443570Y-74327295D02*
X93443570Y-73527295D01*
X93443570Y-73527295D02*
X92986427Y-74327295D01*
X92986427Y-74327295D02*
X92986427Y-73527295D01*
X92605475Y-74327295D02*
X92605475Y-73527295D01*
X92605475Y-73527295D02*
X92414999Y-73527295D01*
X92414999Y-73527295D02*
X92300713Y-73565390D01*
X92300713Y-73565390D02*
X92224523Y-73641580D01*
X92224523Y-73641580D02*
X92186428Y-73717771D01*
X92186428Y-73717771D02*
X92148332Y-73870152D01*
X92148332Y-73870152D02*
X92148332Y-73984438D01*
X92148332Y-73984438D02*
X92186428Y-74136819D01*
X92186428Y-74136819D02*
X92224523Y-74213009D01*
X92224523Y-74213009D02*
X92300713Y-74289200D01*
X92300713Y-74289200D02*
X92414999Y-74327295D01*
X92414999Y-74327295D02*
X92605475Y-74327295D01*
X94974523Y-61398723D02*
X94593570Y-61398723D01*
X95050713Y-61627295D02*
X94784046Y-60827295D01*
X94784046Y-60827295D02*
X94517380Y-61627295D01*
X93831666Y-60865390D02*
X93907856Y-60827295D01*
X93907856Y-60827295D02*
X94022142Y-60827295D01*
X94022142Y-60827295D02*
X94136428Y-60865390D01*
X94136428Y-60865390D02*
X94212618Y-60941580D01*
X94212618Y-60941580D02*
X94250713Y-61017771D01*
X94250713Y-61017771D02*
X94288809Y-61170152D01*
X94288809Y-61170152D02*
X94288809Y-61284438D01*
X94288809Y-61284438D02*
X94250713Y-61436819D01*
X94250713Y-61436819D02*
X94212618Y-61513009D01*
X94212618Y-61513009D02*
X94136428Y-61589200D01*
X94136428Y-61589200D02*
X94022142Y-61627295D01*
X94022142Y-61627295D02*
X93945951Y-61627295D01*
X93945951Y-61627295D02*
X93831666Y-61589200D01*
X93831666Y-61589200D02*
X93793570Y-61551104D01*
X93793570Y-61551104D02*
X93793570Y-61284438D01*
X93793570Y-61284438D02*
X93945951Y-61284438D01*
X93450713Y-61627295D02*
X93450713Y-60827295D01*
X93450713Y-60827295D02*
X92993570Y-61627295D01*
X92993570Y-61627295D02*
X92993570Y-60827295D01*
X92612618Y-61627295D02*
X92612618Y-60827295D01*
X92612618Y-60827295D02*
X92422142Y-60827295D01*
X92422142Y-60827295D02*
X92307856Y-60865390D01*
X92307856Y-60865390D02*
X92231666Y-60941580D01*
X92231666Y-60941580D02*
X92193571Y-61017771D01*
X92193571Y-61017771D02*
X92155475Y-61170152D01*
X92155475Y-61170152D02*
X92155475Y-61284438D01*
X92155475Y-61284438D02*
X92193571Y-61436819D01*
X92193571Y-61436819D02*
X92231666Y-61513009D01*
X92231666Y-61513009D02*
X92307856Y-61589200D01*
X92307856Y-61589200D02*
X92422142Y-61627295D01*
X92422142Y-61627295D02*
X92612618Y-61627295D01*
X105747381Y-76105390D02*
X105823571Y-76067295D01*
X105823571Y-76067295D02*
X105937857Y-76067295D01*
X105937857Y-76067295D02*
X106052143Y-76105390D01*
X106052143Y-76105390D02*
X106128333Y-76181580D01*
X106128333Y-76181580D02*
X106166428Y-76257771D01*
X106166428Y-76257771D02*
X106204524Y-76410152D01*
X106204524Y-76410152D02*
X106204524Y-76524438D01*
X106204524Y-76524438D02*
X106166428Y-76676819D01*
X106166428Y-76676819D02*
X106128333Y-76753009D01*
X106128333Y-76753009D02*
X106052143Y-76829200D01*
X106052143Y-76829200D02*
X105937857Y-76867295D01*
X105937857Y-76867295D02*
X105861666Y-76867295D01*
X105861666Y-76867295D02*
X105747381Y-76829200D01*
X105747381Y-76829200D02*
X105709285Y-76791104D01*
X105709285Y-76791104D02*
X105709285Y-76524438D01*
X105709285Y-76524438D02*
X105861666Y-76524438D01*
X105366428Y-76867295D02*
X105366428Y-76067295D01*
X105366428Y-76067295D02*
X105061666Y-76067295D01*
X105061666Y-76067295D02*
X104985476Y-76105390D01*
X104985476Y-76105390D02*
X104947381Y-76143485D01*
X104947381Y-76143485D02*
X104909285Y-76219676D01*
X104909285Y-76219676D02*
X104909285Y-76333961D01*
X104909285Y-76333961D02*
X104947381Y-76410152D01*
X104947381Y-76410152D02*
X104985476Y-76448247D01*
X104985476Y-76448247D02*
X105061666Y-76486342D01*
X105061666Y-76486342D02*
X105366428Y-76486342D01*
X104147381Y-76867295D02*
X104604524Y-76867295D01*
X104375952Y-76867295D02*
X104375952Y-76067295D01*
X104375952Y-76067295D02*
X104452143Y-76181580D01*
X104452143Y-76181580D02*
X104528333Y-76257771D01*
X104528333Y-76257771D02*
X104604524Y-76295866D01*
X103652142Y-76067295D02*
X103575952Y-76067295D01*
X103575952Y-76067295D02*
X103499761Y-76105390D01*
X103499761Y-76105390D02*
X103461666Y-76143485D01*
X103461666Y-76143485D02*
X103423571Y-76219676D01*
X103423571Y-76219676D02*
X103385476Y-76372057D01*
X103385476Y-76372057D02*
X103385476Y-76562533D01*
X103385476Y-76562533D02*
X103423571Y-76714914D01*
X103423571Y-76714914D02*
X103461666Y-76791104D01*
X103461666Y-76791104D02*
X103499761Y-76829200D01*
X103499761Y-76829200D02*
X103575952Y-76867295D01*
X103575952Y-76867295D02*
X103652142Y-76867295D01*
X103652142Y-76867295D02*
X103728333Y-76829200D01*
X103728333Y-76829200D02*
X103766428Y-76791104D01*
X103766428Y-76791104D02*
X103804523Y-76714914D01*
X103804523Y-76714914D02*
X103842619Y-76562533D01*
X103842619Y-76562533D02*
X103842619Y-76372057D01*
X103842619Y-76372057D02*
X103804523Y-76219676D01*
X103804523Y-76219676D02*
X103766428Y-76143485D01*
X103766428Y-76143485D02*
X103728333Y-76105390D01*
X103728333Y-76105390D02*
X103652142Y-76067295D01*
X93824523Y-86265390D02*
X93900713Y-86227295D01*
X93900713Y-86227295D02*
X94014999Y-86227295D01*
X94014999Y-86227295D02*
X94129285Y-86265390D01*
X94129285Y-86265390D02*
X94205475Y-86341580D01*
X94205475Y-86341580D02*
X94243570Y-86417771D01*
X94243570Y-86417771D02*
X94281666Y-86570152D01*
X94281666Y-86570152D02*
X94281666Y-86684438D01*
X94281666Y-86684438D02*
X94243570Y-86836819D01*
X94243570Y-86836819D02*
X94205475Y-86913009D01*
X94205475Y-86913009D02*
X94129285Y-86989200D01*
X94129285Y-86989200D02*
X94014999Y-87027295D01*
X94014999Y-87027295D02*
X93938808Y-87027295D01*
X93938808Y-87027295D02*
X93824523Y-86989200D01*
X93824523Y-86989200D02*
X93786427Y-86951104D01*
X93786427Y-86951104D02*
X93786427Y-86684438D01*
X93786427Y-86684438D02*
X93938808Y-86684438D01*
X93443570Y-87027295D02*
X93443570Y-86227295D01*
X93443570Y-86227295D02*
X92986427Y-87027295D01*
X92986427Y-87027295D02*
X92986427Y-86227295D01*
X92605475Y-87027295D02*
X92605475Y-86227295D01*
X92605475Y-86227295D02*
X92414999Y-86227295D01*
X92414999Y-86227295D02*
X92300713Y-86265390D01*
X92300713Y-86265390D02*
X92224523Y-86341580D01*
X92224523Y-86341580D02*
X92186428Y-86417771D01*
X92186428Y-86417771D02*
X92148332Y-86570152D01*
X92148332Y-86570152D02*
X92148332Y-86684438D01*
X92148332Y-86684438D02*
X92186428Y-86836819D01*
X92186428Y-86836819D02*
X92224523Y-86913009D01*
X92224523Y-86913009D02*
X92300713Y-86989200D01*
X92300713Y-86989200D02*
X92414999Y-87027295D01*
X92414999Y-87027295D02*
X92605475Y-87027295D01*
X105716428Y-63405390D02*
X105792618Y-63367295D01*
X105792618Y-63367295D02*
X105906904Y-63367295D01*
X105906904Y-63367295D02*
X106021190Y-63405390D01*
X106021190Y-63405390D02*
X106097380Y-63481580D01*
X106097380Y-63481580D02*
X106135475Y-63557771D01*
X106135475Y-63557771D02*
X106173571Y-63710152D01*
X106173571Y-63710152D02*
X106173571Y-63824438D01*
X106173571Y-63824438D02*
X106135475Y-63976819D01*
X106135475Y-63976819D02*
X106097380Y-64053009D01*
X106097380Y-64053009D02*
X106021190Y-64129200D01*
X106021190Y-64129200D02*
X105906904Y-64167295D01*
X105906904Y-64167295D02*
X105830713Y-64167295D01*
X105830713Y-64167295D02*
X105716428Y-64129200D01*
X105716428Y-64129200D02*
X105678332Y-64091104D01*
X105678332Y-64091104D02*
X105678332Y-63824438D01*
X105678332Y-63824438D02*
X105830713Y-63824438D01*
X105335475Y-64167295D02*
X105335475Y-63367295D01*
X105335475Y-63367295D02*
X105030713Y-63367295D01*
X105030713Y-63367295D02*
X104954523Y-63405390D01*
X104954523Y-63405390D02*
X104916428Y-63443485D01*
X104916428Y-63443485D02*
X104878332Y-63519676D01*
X104878332Y-63519676D02*
X104878332Y-63633961D01*
X104878332Y-63633961D02*
X104916428Y-63710152D01*
X104916428Y-63710152D02*
X104954523Y-63748247D01*
X104954523Y-63748247D02*
X105030713Y-63786342D01*
X105030713Y-63786342D02*
X105335475Y-63786342D01*
X104192618Y-63367295D02*
X104344999Y-63367295D01*
X104344999Y-63367295D02*
X104421190Y-63405390D01*
X104421190Y-63405390D02*
X104459285Y-63443485D01*
X104459285Y-63443485D02*
X104535475Y-63557771D01*
X104535475Y-63557771D02*
X104573571Y-63710152D01*
X104573571Y-63710152D02*
X104573571Y-64014914D01*
X104573571Y-64014914D02*
X104535475Y-64091104D01*
X104535475Y-64091104D02*
X104497380Y-64129200D01*
X104497380Y-64129200D02*
X104421190Y-64167295D01*
X104421190Y-64167295D02*
X104268809Y-64167295D01*
X104268809Y-64167295D02*
X104192618Y-64129200D01*
X104192618Y-64129200D02*
X104154523Y-64091104D01*
X104154523Y-64091104D02*
X104116428Y-64014914D01*
X104116428Y-64014914D02*
X104116428Y-63824438D01*
X104116428Y-63824438D02*
X104154523Y-63748247D01*
X104154523Y-63748247D02*
X104192618Y-63710152D01*
X104192618Y-63710152D02*
X104268809Y-63672057D01*
X104268809Y-63672057D02*
X104421190Y-63672057D01*
X104421190Y-63672057D02*
X104497380Y-63710152D01*
X104497380Y-63710152D02*
X104535475Y-63748247D01*
X104535475Y-63748247D02*
X104573571Y-63824438D01*
X105716428Y-65915390D02*
X105792618Y-65877295D01*
X105792618Y-65877295D02*
X105906904Y-65877295D01*
X105906904Y-65877295D02*
X106021190Y-65915390D01*
X106021190Y-65915390D02*
X106097380Y-65991580D01*
X106097380Y-65991580D02*
X106135475Y-66067771D01*
X106135475Y-66067771D02*
X106173571Y-66220152D01*
X106173571Y-66220152D02*
X106173571Y-66334438D01*
X106173571Y-66334438D02*
X106135475Y-66486819D01*
X106135475Y-66486819D02*
X106097380Y-66563009D01*
X106097380Y-66563009D02*
X106021190Y-66639200D01*
X106021190Y-66639200D02*
X105906904Y-66677295D01*
X105906904Y-66677295D02*
X105830713Y-66677295D01*
X105830713Y-66677295D02*
X105716428Y-66639200D01*
X105716428Y-66639200D02*
X105678332Y-66601104D01*
X105678332Y-66601104D02*
X105678332Y-66334438D01*
X105678332Y-66334438D02*
X105830713Y-66334438D01*
X105335475Y-66677295D02*
X105335475Y-65877295D01*
X105335475Y-65877295D02*
X105030713Y-65877295D01*
X105030713Y-65877295D02*
X104954523Y-65915390D01*
X104954523Y-65915390D02*
X104916428Y-65953485D01*
X104916428Y-65953485D02*
X104878332Y-66029676D01*
X104878332Y-66029676D02*
X104878332Y-66143961D01*
X104878332Y-66143961D02*
X104916428Y-66220152D01*
X104916428Y-66220152D02*
X104954523Y-66258247D01*
X104954523Y-66258247D02*
X105030713Y-66296342D01*
X105030713Y-66296342D02*
X105335475Y-66296342D01*
X104611666Y-65877295D02*
X104078332Y-65877295D01*
X104078332Y-65877295D02*
X104421190Y-66677295D01*
X94517381Y-91345390D02*
X94593571Y-91307295D01*
X94593571Y-91307295D02*
X94707857Y-91307295D01*
X94707857Y-91307295D02*
X94822143Y-91345390D01*
X94822143Y-91345390D02*
X94898333Y-91421580D01*
X94898333Y-91421580D02*
X94936428Y-91497771D01*
X94936428Y-91497771D02*
X94974524Y-91650152D01*
X94974524Y-91650152D02*
X94974524Y-91764438D01*
X94974524Y-91764438D02*
X94936428Y-91916819D01*
X94936428Y-91916819D02*
X94898333Y-91993009D01*
X94898333Y-91993009D02*
X94822143Y-92069200D01*
X94822143Y-92069200D02*
X94707857Y-92107295D01*
X94707857Y-92107295D02*
X94631666Y-92107295D01*
X94631666Y-92107295D02*
X94517381Y-92069200D01*
X94517381Y-92069200D02*
X94479285Y-92031104D01*
X94479285Y-92031104D02*
X94479285Y-91764438D01*
X94479285Y-91764438D02*
X94631666Y-91764438D01*
X94136428Y-92107295D02*
X94136428Y-91307295D01*
X94136428Y-91307295D02*
X93831666Y-91307295D01*
X93831666Y-91307295D02*
X93755476Y-91345390D01*
X93755476Y-91345390D02*
X93717381Y-91383485D01*
X93717381Y-91383485D02*
X93679285Y-91459676D01*
X93679285Y-91459676D02*
X93679285Y-91573961D01*
X93679285Y-91573961D02*
X93717381Y-91650152D01*
X93717381Y-91650152D02*
X93755476Y-91688247D01*
X93755476Y-91688247D02*
X93831666Y-91726342D01*
X93831666Y-91726342D02*
X94136428Y-91726342D01*
X92917381Y-92107295D02*
X93374524Y-92107295D01*
X93145952Y-92107295D02*
X93145952Y-91307295D01*
X93145952Y-91307295D02*
X93222143Y-91421580D01*
X93222143Y-91421580D02*
X93298333Y-91497771D01*
X93298333Y-91497771D02*
X93374524Y-91535866D01*
X92231666Y-91307295D02*
X92384047Y-91307295D01*
X92384047Y-91307295D02*
X92460238Y-91345390D01*
X92460238Y-91345390D02*
X92498333Y-91383485D01*
X92498333Y-91383485D02*
X92574523Y-91497771D01*
X92574523Y-91497771D02*
X92612619Y-91650152D01*
X92612619Y-91650152D02*
X92612619Y-91954914D01*
X92612619Y-91954914D02*
X92574523Y-92031104D01*
X92574523Y-92031104D02*
X92536428Y-92069200D01*
X92536428Y-92069200D02*
X92460238Y-92107295D01*
X92460238Y-92107295D02*
X92307857Y-92107295D01*
X92307857Y-92107295D02*
X92231666Y-92069200D01*
X92231666Y-92069200D02*
X92193571Y-92031104D01*
X92193571Y-92031104D02*
X92155476Y-91954914D01*
X92155476Y-91954914D02*
X92155476Y-91764438D01*
X92155476Y-91764438D02*
X92193571Y-91688247D01*
X92193571Y-91688247D02*
X92231666Y-91650152D01*
X92231666Y-91650152D02*
X92307857Y-91612057D01*
X92307857Y-91612057D02*
X92460238Y-91612057D01*
X92460238Y-91612057D02*
X92536428Y-91650152D01*
X92536428Y-91650152D02*
X92574523Y-91688247D01*
X92574523Y-91688247D02*
X92612619Y-91764438D01*
X94517381Y-81185390D02*
X94593571Y-81147295D01*
X94593571Y-81147295D02*
X94707857Y-81147295D01*
X94707857Y-81147295D02*
X94822143Y-81185390D01*
X94822143Y-81185390D02*
X94898333Y-81261580D01*
X94898333Y-81261580D02*
X94936428Y-81337771D01*
X94936428Y-81337771D02*
X94974524Y-81490152D01*
X94974524Y-81490152D02*
X94974524Y-81604438D01*
X94974524Y-81604438D02*
X94936428Y-81756819D01*
X94936428Y-81756819D02*
X94898333Y-81833009D01*
X94898333Y-81833009D02*
X94822143Y-81909200D01*
X94822143Y-81909200D02*
X94707857Y-81947295D01*
X94707857Y-81947295D02*
X94631666Y-81947295D01*
X94631666Y-81947295D02*
X94517381Y-81909200D01*
X94517381Y-81909200D02*
X94479285Y-81871104D01*
X94479285Y-81871104D02*
X94479285Y-81604438D01*
X94479285Y-81604438D02*
X94631666Y-81604438D01*
X94136428Y-81947295D02*
X94136428Y-81147295D01*
X94136428Y-81147295D02*
X93831666Y-81147295D01*
X93831666Y-81147295D02*
X93755476Y-81185390D01*
X93755476Y-81185390D02*
X93717381Y-81223485D01*
X93717381Y-81223485D02*
X93679285Y-81299676D01*
X93679285Y-81299676D02*
X93679285Y-81413961D01*
X93679285Y-81413961D02*
X93717381Y-81490152D01*
X93717381Y-81490152D02*
X93755476Y-81528247D01*
X93755476Y-81528247D02*
X93831666Y-81566342D01*
X93831666Y-81566342D02*
X94136428Y-81566342D01*
X92917381Y-81947295D02*
X93374524Y-81947295D01*
X93145952Y-81947295D02*
X93145952Y-81147295D01*
X93145952Y-81147295D02*
X93222143Y-81261580D01*
X93222143Y-81261580D02*
X93298333Y-81337771D01*
X93298333Y-81337771D02*
X93374524Y-81375866D01*
X92536428Y-81947295D02*
X92384047Y-81947295D01*
X92384047Y-81947295D02*
X92307857Y-81909200D01*
X92307857Y-81909200D02*
X92269761Y-81871104D01*
X92269761Y-81871104D02*
X92193571Y-81756819D01*
X92193571Y-81756819D02*
X92155476Y-81604438D01*
X92155476Y-81604438D02*
X92155476Y-81299676D01*
X92155476Y-81299676D02*
X92193571Y-81223485D01*
X92193571Y-81223485D02*
X92231666Y-81185390D01*
X92231666Y-81185390D02*
X92307857Y-81147295D01*
X92307857Y-81147295D02*
X92460238Y-81147295D01*
X92460238Y-81147295D02*
X92536428Y-81185390D01*
X92536428Y-81185390D02*
X92574523Y-81223485D01*
X92574523Y-81223485D02*
X92612619Y-81299676D01*
X92612619Y-81299676D02*
X92612619Y-81490152D01*
X92612619Y-81490152D02*
X92574523Y-81566342D01*
X92574523Y-81566342D02*
X92536428Y-81604438D01*
X92536428Y-81604438D02*
X92460238Y-81642533D01*
X92460238Y-81642533D02*
X92307857Y-81642533D01*
X92307857Y-81642533D02*
X92231666Y-81604438D01*
X92231666Y-81604438D02*
X92193571Y-81566342D01*
X92193571Y-81566342D02*
X92155476Y-81490152D01*
X93674523Y-48165390D02*
X93750713Y-48127295D01*
X93750713Y-48127295D02*
X93864999Y-48127295D01*
X93864999Y-48127295D02*
X93979285Y-48165390D01*
X93979285Y-48165390D02*
X94055475Y-48241580D01*
X94055475Y-48241580D02*
X94093570Y-48317771D01*
X94093570Y-48317771D02*
X94131666Y-48470152D01*
X94131666Y-48470152D02*
X94131666Y-48584438D01*
X94131666Y-48584438D02*
X94093570Y-48736819D01*
X94093570Y-48736819D02*
X94055475Y-48813009D01*
X94055475Y-48813009D02*
X93979285Y-48889200D01*
X93979285Y-48889200D02*
X93864999Y-48927295D01*
X93864999Y-48927295D02*
X93788808Y-48927295D01*
X93788808Y-48927295D02*
X93674523Y-48889200D01*
X93674523Y-48889200D02*
X93636427Y-48851104D01*
X93636427Y-48851104D02*
X93636427Y-48584438D01*
X93636427Y-48584438D02*
X93788808Y-48584438D01*
X93293570Y-48927295D02*
X93293570Y-48127295D01*
X93293570Y-48127295D02*
X92836427Y-48927295D01*
X92836427Y-48927295D02*
X92836427Y-48127295D01*
X92455475Y-48927295D02*
X92455475Y-48127295D01*
X92455475Y-48127295D02*
X92264999Y-48127295D01*
X92264999Y-48127295D02*
X92150713Y-48165390D01*
X92150713Y-48165390D02*
X92074523Y-48241580D01*
X92074523Y-48241580D02*
X92036428Y-48317771D01*
X92036428Y-48317771D02*
X91998332Y-48470152D01*
X91998332Y-48470152D02*
X91998332Y-48584438D01*
X91998332Y-48584438D02*
X92036428Y-48736819D01*
X92036428Y-48736819D02*
X92074523Y-48813009D01*
X92074523Y-48813009D02*
X92150713Y-48889200D01*
X92150713Y-48889200D02*
X92264999Y-48927295D01*
X92264999Y-48927295D02*
X92455475Y-48927295D01*
X105754523Y-48165390D02*
X105830713Y-48127295D01*
X105830713Y-48127295D02*
X105944999Y-48127295D01*
X105944999Y-48127295D02*
X106059285Y-48165390D01*
X106059285Y-48165390D02*
X106135475Y-48241580D01*
X106135475Y-48241580D02*
X106173570Y-48317771D01*
X106173570Y-48317771D02*
X106211666Y-48470152D01*
X106211666Y-48470152D02*
X106211666Y-48584438D01*
X106211666Y-48584438D02*
X106173570Y-48736819D01*
X106173570Y-48736819D02*
X106135475Y-48813009D01*
X106135475Y-48813009D02*
X106059285Y-48889200D01*
X106059285Y-48889200D02*
X105944999Y-48927295D01*
X105944999Y-48927295D02*
X105868808Y-48927295D01*
X105868808Y-48927295D02*
X105754523Y-48889200D01*
X105754523Y-48889200D02*
X105716427Y-48851104D01*
X105716427Y-48851104D02*
X105716427Y-48584438D01*
X105716427Y-48584438D02*
X105868808Y-48584438D01*
X105373570Y-48927295D02*
X105373570Y-48127295D01*
X105373570Y-48127295D02*
X104916427Y-48927295D01*
X104916427Y-48927295D02*
X104916427Y-48127295D01*
X104535475Y-48927295D02*
X104535475Y-48127295D01*
X104535475Y-48127295D02*
X104344999Y-48127295D01*
X104344999Y-48127295D02*
X104230713Y-48165390D01*
X104230713Y-48165390D02*
X104154523Y-48241580D01*
X104154523Y-48241580D02*
X104116428Y-48317771D01*
X104116428Y-48317771D02*
X104078332Y-48470152D01*
X104078332Y-48470152D02*
X104078332Y-48584438D01*
X104078332Y-48584438D02*
X104116428Y-48736819D01*
X104116428Y-48736819D02*
X104154523Y-48813009D01*
X104154523Y-48813009D02*
X104230713Y-48889200D01*
X104230713Y-48889200D02*
X104344999Y-48927295D01*
X104344999Y-48927295D02*
X104535475Y-48927295D01*
X97557857Y-56318723D02*
X97176904Y-56318723D01*
X97634047Y-56547295D02*
X97367380Y-55747295D01*
X97367380Y-55747295D02*
X97100714Y-56547295D01*
X96834047Y-56547295D02*
X96834047Y-55747295D01*
X96834047Y-55747295D02*
X96643571Y-55747295D01*
X96643571Y-55747295D02*
X96529285Y-55785390D01*
X96529285Y-55785390D02*
X96453095Y-55861580D01*
X96453095Y-55861580D02*
X96415000Y-55937771D01*
X96415000Y-55937771D02*
X96376904Y-56090152D01*
X96376904Y-56090152D02*
X96376904Y-56204438D01*
X96376904Y-56204438D02*
X96415000Y-56356819D01*
X96415000Y-56356819D02*
X96453095Y-56433009D01*
X96453095Y-56433009D02*
X96529285Y-56509200D01*
X96529285Y-56509200D02*
X96643571Y-56547295D01*
X96643571Y-56547295D02*
X96834047Y-56547295D01*
X95576904Y-56471104D02*
X95615000Y-56509200D01*
X95615000Y-56509200D02*
X95729285Y-56547295D01*
X95729285Y-56547295D02*
X95805476Y-56547295D01*
X95805476Y-56547295D02*
X95919762Y-56509200D01*
X95919762Y-56509200D02*
X95995952Y-56433009D01*
X95995952Y-56433009D02*
X96034047Y-56356819D01*
X96034047Y-56356819D02*
X96072143Y-56204438D01*
X96072143Y-56204438D02*
X96072143Y-56090152D01*
X96072143Y-56090152D02*
X96034047Y-55937771D01*
X96034047Y-55937771D02*
X95995952Y-55861580D01*
X95995952Y-55861580D02*
X95919762Y-55785390D01*
X95919762Y-55785390D02*
X95805476Y-55747295D01*
X95805476Y-55747295D02*
X95729285Y-55747295D01*
X95729285Y-55747295D02*
X95615000Y-55785390D01*
X95615000Y-55785390D02*
X95576904Y-55823485D01*
X95424524Y-56623485D02*
X94815000Y-56623485D01*
X94738809Y-55747295D02*
X94472142Y-56547295D01*
X94472142Y-56547295D02*
X94205476Y-55747295D01*
X93481666Y-56547295D02*
X93748333Y-56166342D01*
X93938809Y-56547295D02*
X93938809Y-55747295D01*
X93938809Y-55747295D02*
X93634047Y-55747295D01*
X93634047Y-55747295D02*
X93557857Y-55785390D01*
X93557857Y-55785390D02*
X93519762Y-55823485D01*
X93519762Y-55823485D02*
X93481666Y-55899676D01*
X93481666Y-55899676D02*
X93481666Y-56013961D01*
X93481666Y-56013961D02*
X93519762Y-56090152D01*
X93519762Y-56090152D02*
X93557857Y-56128247D01*
X93557857Y-56128247D02*
X93634047Y-56166342D01*
X93634047Y-56166342D02*
X93938809Y-56166342D01*
X93138809Y-56128247D02*
X92872143Y-56128247D01*
X92757857Y-56547295D02*
X93138809Y-56547295D01*
X93138809Y-56547295D02*
X93138809Y-55747295D01*
X93138809Y-55747295D02*
X92757857Y-55747295D01*
X92148333Y-56128247D02*
X92414999Y-56128247D01*
X92414999Y-56547295D02*
X92414999Y-55747295D01*
X92414999Y-55747295D02*
X92034047Y-55747295D01*
X93805475Y-69247295D02*
X94072142Y-68866342D01*
X94262618Y-69247295D02*
X94262618Y-68447295D01*
X94262618Y-68447295D02*
X93957856Y-68447295D01*
X93957856Y-68447295D02*
X93881666Y-68485390D01*
X93881666Y-68485390D02*
X93843571Y-68523485D01*
X93843571Y-68523485D02*
X93805475Y-68599676D01*
X93805475Y-68599676D02*
X93805475Y-68713961D01*
X93805475Y-68713961D02*
X93843571Y-68790152D01*
X93843571Y-68790152D02*
X93881666Y-68828247D01*
X93881666Y-68828247D02*
X93957856Y-68866342D01*
X93957856Y-68866342D02*
X94262618Y-68866342D01*
X93462618Y-68447295D02*
X93462618Y-69094914D01*
X93462618Y-69094914D02*
X93424523Y-69171104D01*
X93424523Y-69171104D02*
X93386428Y-69209200D01*
X93386428Y-69209200D02*
X93310237Y-69247295D01*
X93310237Y-69247295D02*
X93157856Y-69247295D01*
X93157856Y-69247295D02*
X93081666Y-69209200D01*
X93081666Y-69209200D02*
X93043571Y-69171104D01*
X93043571Y-69171104D02*
X93005475Y-69094914D01*
X93005475Y-69094914D02*
X93005475Y-68447295D01*
X92624523Y-69247295D02*
X92624523Y-68447295D01*
X92624523Y-68447295D02*
X92167380Y-69247295D01*
X92167380Y-69247295D02*
X92167380Y-68447295D01*
X105716428Y-53245390D02*
X105792618Y-53207295D01*
X105792618Y-53207295D02*
X105906904Y-53207295D01*
X105906904Y-53207295D02*
X106021190Y-53245390D01*
X106021190Y-53245390D02*
X106097380Y-53321580D01*
X106097380Y-53321580D02*
X106135475Y-53397771D01*
X106135475Y-53397771D02*
X106173571Y-53550152D01*
X106173571Y-53550152D02*
X106173571Y-53664438D01*
X106173571Y-53664438D02*
X106135475Y-53816819D01*
X106135475Y-53816819D02*
X106097380Y-53893009D01*
X106097380Y-53893009D02*
X106021190Y-53969200D01*
X106021190Y-53969200D02*
X105906904Y-54007295D01*
X105906904Y-54007295D02*
X105830713Y-54007295D01*
X105830713Y-54007295D02*
X105716428Y-53969200D01*
X105716428Y-53969200D02*
X105678332Y-53931104D01*
X105678332Y-53931104D02*
X105678332Y-53664438D01*
X105678332Y-53664438D02*
X105830713Y-53664438D01*
X105335475Y-54007295D02*
X105335475Y-53207295D01*
X105335475Y-53207295D02*
X105030713Y-53207295D01*
X105030713Y-53207295D02*
X104954523Y-53245390D01*
X104954523Y-53245390D02*
X104916428Y-53283485D01*
X104916428Y-53283485D02*
X104878332Y-53359676D01*
X104878332Y-53359676D02*
X104878332Y-53473961D01*
X104878332Y-53473961D02*
X104916428Y-53550152D01*
X104916428Y-53550152D02*
X104954523Y-53588247D01*
X104954523Y-53588247D02*
X105030713Y-53626342D01*
X105030713Y-53626342D02*
X105335475Y-53626342D01*
X104611666Y-53207295D02*
X104116428Y-53207295D01*
X104116428Y-53207295D02*
X104383094Y-53512057D01*
X104383094Y-53512057D02*
X104268809Y-53512057D01*
X104268809Y-53512057D02*
X104192618Y-53550152D01*
X104192618Y-53550152D02*
X104154523Y-53588247D01*
X104154523Y-53588247D02*
X104116428Y-53664438D01*
X104116428Y-53664438D02*
X104116428Y-53854914D01*
X104116428Y-53854914D02*
X104154523Y-53931104D01*
X104154523Y-53931104D02*
X104192618Y-53969200D01*
X104192618Y-53969200D02*
X104268809Y-54007295D01*
X104268809Y-54007295D02*
X104497380Y-54007295D01*
X104497380Y-54007295D02*
X104573571Y-53969200D01*
X104573571Y-53969200D02*
X104611666Y-53931104D01*
X105716428Y-50705390D02*
X105792618Y-50667295D01*
X105792618Y-50667295D02*
X105906904Y-50667295D01*
X105906904Y-50667295D02*
X106021190Y-50705390D01*
X106021190Y-50705390D02*
X106097380Y-50781580D01*
X106097380Y-50781580D02*
X106135475Y-50857771D01*
X106135475Y-50857771D02*
X106173571Y-51010152D01*
X106173571Y-51010152D02*
X106173571Y-51124438D01*
X106173571Y-51124438D02*
X106135475Y-51276819D01*
X106135475Y-51276819D02*
X106097380Y-51353009D01*
X106097380Y-51353009D02*
X106021190Y-51429200D01*
X106021190Y-51429200D02*
X105906904Y-51467295D01*
X105906904Y-51467295D02*
X105830713Y-51467295D01*
X105830713Y-51467295D02*
X105716428Y-51429200D01*
X105716428Y-51429200D02*
X105678332Y-51391104D01*
X105678332Y-51391104D02*
X105678332Y-51124438D01*
X105678332Y-51124438D02*
X105830713Y-51124438D01*
X105335475Y-51467295D02*
X105335475Y-50667295D01*
X105335475Y-50667295D02*
X105030713Y-50667295D01*
X105030713Y-50667295D02*
X104954523Y-50705390D01*
X104954523Y-50705390D02*
X104916428Y-50743485D01*
X104916428Y-50743485D02*
X104878332Y-50819676D01*
X104878332Y-50819676D02*
X104878332Y-50933961D01*
X104878332Y-50933961D02*
X104916428Y-51010152D01*
X104916428Y-51010152D02*
X104954523Y-51048247D01*
X104954523Y-51048247D02*
X105030713Y-51086342D01*
X105030713Y-51086342D02*
X105335475Y-51086342D01*
X104573571Y-50743485D02*
X104535475Y-50705390D01*
X104535475Y-50705390D02*
X104459285Y-50667295D01*
X104459285Y-50667295D02*
X104268809Y-50667295D01*
X104268809Y-50667295D02*
X104192618Y-50705390D01*
X104192618Y-50705390D02*
X104154523Y-50743485D01*
X104154523Y-50743485D02*
X104116428Y-50819676D01*
X104116428Y-50819676D02*
X104116428Y-50895866D01*
X104116428Y-50895866D02*
X104154523Y-51010152D01*
X104154523Y-51010152D02*
X104611666Y-51467295D01*
X104611666Y-51467295D02*
X104116428Y-51467295D01*
X94517381Y-58325390D02*
X94593571Y-58287295D01*
X94593571Y-58287295D02*
X94707857Y-58287295D01*
X94707857Y-58287295D02*
X94822143Y-58325390D01*
X94822143Y-58325390D02*
X94898333Y-58401580D01*
X94898333Y-58401580D02*
X94936428Y-58477771D01*
X94936428Y-58477771D02*
X94974524Y-58630152D01*
X94974524Y-58630152D02*
X94974524Y-58744438D01*
X94974524Y-58744438D02*
X94936428Y-58896819D01*
X94936428Y-58896819D02*
X94898333Y-58973009D01*
X94898333Y-58973009D02*
X94822143Y-59049200D01*
X94822143Y-59049200D02*
X94707857Y-59087295D01*
X94707857Y-59087295D02*
X94631666Y-59087295D01*
X94631666Y-59087295D02*
X94517381Y-59049200D01*
X94517381Y-59049200D02*
X94479285Y-59011104D01*
X94479285Y-59011104D02*
X94479285Y-58744438D01*
X94479285Y-58744438D02*
X94631666Y-58744438D01*
X94136428Y-59087295D02*
X94136428Y-58287295D01*
X94136428Y-58287295D02*
X93831666Y-58287295D01*
X93831666Y-58287295D02*
X93755476Y-58325390D01*
X93755476Y-58325390D02*
X93717381Y-58363485D01*
X93717381Y-58363485D02*
X93679285Y-58439676D01*
X93679285Y-58439676D02*
X93679285Y-58553961D01*
X93679285Y-58553961D02*
X93717381Y-58630152D01*
X93717381Y-58630152D02*
X93755476Y-58668247D01*
X93755476Y-58668247D02*
X93831666Y-58706342D01*
X93831666Y-58706342D02*
X94136428Y-58706342D01*
X93374524Y-58363485D02*
X93336428Y-58325390D01*
X93336428Y-58325390D02*
X93260238Y-58287295D01*
X93260238Y-58287295D02*
X93069762Y-58287295D01*
X93069762Y-58287295D02*
X92993571Y-58325390D01*
X92993571Y-58325390D02*
X92955476Y-58363485D01*
X92955476Y-58363485D02*
X92917381Y-58439676D01*
X92917381Y-58439676D02*
X92917381Y-58515866D01*
X92917381Y-58515866D02*
X92955476Y-58630152D01*
X92955476Y-58630152D02*
X93412619Y-59087295D01*
X93412619Y-59087295D02*
X92917381Y-59087295D01*
X92460238Y-58630152D02*
X92536428Y-58592057D01*
X92536428Y-58592057D02*
X92574523Y-58553961D01*
X92574523Y-58553961D02*
X92612619Y-58477771D01*
X92612619Y-58477771D02*
X92612619Y-58439676D01*
X92612619Y-58439676D02*
X92574523Y-58363485D01*
X92574523Y-58363485D02*
X92536428Y-58325390D01*
X92536428Y-58325390D02*
X92460238Y-58287295D01*
X92460238Y-58287295D02*
X92307857Y-58287295D01*
X92307857Y-58287295D02*
X92231666Y-58325390D01*
X92231666Y-58325390D02*
X92193571Y-58363485D01*
X92193571Y-58363485D02*
X92155476Y-58439676D01*
X92155476Y-58439676D02*
X92155476Y-58477771D01*
X92155476Y-58477771D02*
X92193571Y-58553961D01*
X92193571Y-58553961D02*
X92231666Y-58592057D01*
X92231666Y-58592057D02*
X92307857Y-58630152D01*
X92307857Y-58630152D02*
X92460238Y-58630152D01*
X92460238Y-58630152D02*
X92536428Y-58668247D01*
X92536428Y-58668247D02*
X92574523Y-58706342D01*
X92574523Y-58706342D02*
X92612619Y-58782533D01*
X92612619Y-58782533D02*
X92612619Y-58934914D01*
X92612619Y-58934914D02*
X92574523Y-59011104D01*
X92574523Y-59011104D02*
X92536428Y-59049200D01*
X92536428Y-59049200D02*
X92460238Y-59087295D01*
X92460238Y-59087295D02*
X92307857Y-59087295D01*
X92307857Y-59087295D02*
X92231666Y-59049200D01*
X92231666Y-59049200D02*
X92193571Y-59011104D01*
X92193571Y-59011104D02*
X92155476Y-58934914D01*
X92155476Y-58934914D02*
X92155476Y-58782533D01*
X92155476Y-58782533D02*
X92193571Y-58706342D01*
X92193571Y-58706342D02*
X92231666Y-58668247D01*
X92231666Y-58668247D02*
X92307857Y-58630152D01*
X133404819Y-187750714D02*
X132404819Y-187750714D01*
X132404819Y-187750714D02*
X132404819Y-187988809D01*
X132404819Y-187988809D02*
X132452438Y-188131666D01*
X132452438Y-188131666D02*
X132547676Y-188226904D01*
X132547676Y-188226904D02*
X132642914Y-188274523D01*
X132642914Y-188274523D02*
X132833390Y-188322142D01*
X132833390Y-188322142D02*
X132976247Y-188322142D01*
X132976247Y-188322142D02*
X133166723Y-188274523D01*
X133166723Y-188274523D02*
X133261961Y-188226904D01*
X133261961Y-188226904D02*
X133357200Y-188131666D01*
X133357200Y-188131666D02*
X133404819Y-187988809D01*
X133404819Y-187988809D02*
X133404819Y-187750714D01*
X132500057Y-188703095D02*
X132452438Y-188750714D01*
X132452438Y-188750714D02*
X132404819Y-188845952D01*
X132404819Y-188845952D02*
X132404819Y-189084047D01*
X132404819Y-189084047D02*
X132452438Y-189179285D01*
X132452438Y-189179285D02*
X132500057Y-189226904D01*
X132500057Y-189226904D02*
X132595295Y-189274523D01*
X132595295Y-189274523D02*
X132690533Y-189274523D01*
X132690533Y-189274523D02*
X132833390Y-189226904D01*
X132833390Y-189226904D02*
X133404819Y-188655476D01*
X133404819Y-188655476D02*
X133404819Y-189274523D01*
X132500057Y-189655476D02*
X132452438Y-189703095D01*
X132452438Y-189703095D02*
X132404819Y-189798333D01*
X132404819Y-189798333D02*
X132404819Y-190036428D01*
X132404819Y-190036428D02*
X132452438Y-190131666D01*
X132452438Y-190131666D02*
X132500057Y-190179285D01*
X132500057Y-190179285D02*
X132595295Y-190226904D01*
X132595295Y-190226904D02*
X132690533Y-190226904D01*
X132690533Y-190226904D02*
X132833390Y-190179285D01*
X132833390Y-190179285D02*
X133404819Y-189607857D01*
X133404819Y-189607857D02*
X133404819Y-190226904D01*
X114354819Y-168700714D02*
X113354819Y-168700714D01*
X113354819Y-168700714D02*
X113354819Y-168938809D01*
X113354819Y-168938809D02*
X113402438Y-169081666D01*
X113402438Y-169081666D02*
X113497676Y-169176904D01*
X113497676Y-169176904D02*
X113592914Y-169224523D01*
X113592914Y-169224523D02*
X113783390Y-169272142D01*
X113783390Y-169272142D02*
X113926247Y-169272142D01*
X113926247Y-169272142D02*
X114116723Y-169224523D01*
X114116723Y-169224523D02*
X114211961Y-169176904D01*
X114211961Y-169176904D02*
X114307200Y-169081666D01*
X114307200Y-169081666D02*
X114354819Y-168938809D01*
X114354819Y-168938809D02*
X114354819Y-168700714D01*
X114354819Y-170224523D02*
X114354819Y-169653095D01*
X114354819Y-169938809D02*
X113354819Y-169938809D01*
X113354819Y-169938809D02*
X113497676Y-169843571D01*
X113497676Y-169843571D02*
X113592914Y-169748333D01*
X113592914Y-169748333D02*
X113640533Y-169653095D01*
X113354819Y-170557857D02*
X113354819Y-171224523D01*
X113354819Y-171224523D02*
X114354819Y-170795952D01*
X133404819Y-131076905D02*
X132404819Y-131076905D01*
X132404819Y-131076905D02*
X132404819Y-131315000D01*
X132404819Y-131315000D02*
X132452438Y-131457857D01*
X132452438Y-131457857D02*
X132547676Y-131553095D01*
X132547676Y-131553095D02*
X132642914Y-131600714D01*
X132642914Y-131600714D02*
X132833390Y-131648333D01*
X132833390Y-131648333D02*
X132976247Y-131648333D01*
X132976247Y-131648333D02*
X133166723Y-131600714D01*
X133166723Y-131600714D02*
X133261961Y-131553095D01*
X133261961Y-131553095D02*
X133357200Y-131457857D01*
X133357200Y-131457857D02*
X133404819Y-131315000D01*
X133404819Y-131315000D02*
X133404819Y-131076905D01*
X132833390Y-132219762D02*
X132785771Y-132124524D01*
X132785771Y-132124524D02*
X132738152Y-132076905D01*
X132738152Y-132076905D02*
X132642914Y-132029286D01*
X132642914Y-132029286D02*
X132595295Y-132029286D01*
X132595295Y-132029286D02*
X132500057Y-132076905D01*
X132500057Y-132076905D02*
X132452438Y-132124524D01*
X132452438Y-132124524D02*
X132404819Y-132219762D01*
X132404819Y-132219762D02*
X132404819Y-132410238D01*
X132404819Y-132410238D02*
X132452438Y-132505476D01*
X132452438Y-132505476D02*
X132500057Y-132553095D01*
X132500057Y-132553095D02*
X132595295Y-132600714D01*
X132595295Y-132600714D02*
X132642914Y-132600714D01*
X132642914Y-132600714D02*
X132738152Y-132553095D01*
X132738152Y-132553095D02*
X132785771Y-132505476D01*
X132785771Y-132505476D02*
X132833390Y-132410238D01*
X132833390Y-132410238D02*
X132833390Y-132219762D01*
X132833390Y-132219762D02*
X132881009Y-132124524D01*
X132881009Y-132124524D02*
X132928628Y-132076905D01*
X132928628Y-132076905D02*
X133023866Y-132029286D01*
X133023866Y-132029286D02*
X133214342Y-132029286D01*
X133214342Y-132029286D02*
X133309580Y-132076905D01*
X133309580Y-132076905D02*
X133357200Y-132124524D01*
X133357200Y-132124524D02*
X133404819Y-132219762D01*
X133404819Y-132219762D02*
X133404819Y-132410238D01*
X133404819Y-132410238D02*
X133357200Y-132505476D01*
X133357200Y-132505476D02*
X133309580Y-132553095D01*
X133309580Y-132553095D02*
X133214342Y-132600714D01*
X133214342Y-132600714D02*
X133023866Y-132600714D01*
X133023866Y-132600714D02*
X132928628Y-132553095D01*
X132928628Y-132553095D02*
X132881009Y-132505476D01*
X132881009Y-132505476D02*
X132833390Y-132410238D01*
X136704819Y-179407142D02*
X136228628Y-179073809D01*
X136704819Y-178835714D02*
X135704819Y-178835714D01*
X135704819Y-178835714D02*
X135704819Y-179216666D01*
X135704819Y-179216666D02*
X135752438Y-179311904D01*
X135752438Y-179311904D02*
X135800057Y-179359523D01*
X135800057Y-179359523D02*
X135895295Y-179407142D01*
X135895295Y-179407142D02*
X136038152Y-179407142D01*
X136038152Y-179407142D02*
X136133390Y-179359523D01*
X136133390Y-179359523D02*
X136181009Y-179311904D01*
X136181009Y-179311904D02*
X136228628Y-179216666D01*
X136228628Y-179216666D02*
X136228628Y-178835714D01*
X135800057Y-179788095D02*
X135752438Y-179835714D01*
X135752438Y-179835714D02*
X135704819Y-179930952D01*
X135704819Y-179930952D02*
X135704819Y-180169047D01*
X135704819Y-180169047D02*
X135752438Y-180264285D01*
X135752438Y-180264285D02*
X135800057Y-180311904D01*
X135800057Y-180311904D02*
X135895295Y-180359523D01*
X135895295Y-180359523D02*
X135990533Y-180359523D01*
X135990533Y-180359523D02*
X136133390Y-180311904D01*
X136133390Y-180311904D02*
X136704819Y-179740476D01*
X136704819Y-179740476D02*
X136704819Y-180359523D01*
X135704819Y-181264285D02*
X135704819Y-180788095D01*
X135704819Y-180788095D02*
X136181009Y-180740476D01*
X136181009Y-180740476D02*
X136133390Y-180788095D01*
X136133390Y-180788095D02*
X136085771Y-180883333D01*
X136085771Y-180883333D02*
X136085771Y-181121428D01*
X136085771Y-181121428D02*
X136133390Y-181216666D01*
X136133390Y-181216666D02*
X136181009Y-181264285D01*
X136181009Y-181264285D02*
X136276247Y-181311904D01*
X136276247Y-181311904D02*
X136514342Y-181311904D01*
X136514342Y-181311904D02*
X136609580Y-181264285D01*
X136609580Y-181264285D02*
X136657200Y-181216666D01*
X136657200Y-181216666D02*
X136704819Y-181121428D01*
X136704819Y-181121428D02*
X136704819Y-180883333D01*
X136704819Y-180883333D02*
X136657200Y-180788095D01*
X136657200Y-180788095D02*
X136609580Y-180740476D01*
X136704819Y-113208333D02*
X136228628Y-112875000D01*
X136704819Y-112636905D02*
X135704819Y-112636905D01*
X135704819Y-112636905D02*
X135704819Y-113017857D01*
X135704819Y-113017857D02*
X135752438Y-113113095D01*
X135752438Y-113113095D02*
X135800057Y-113160714D01*
X135800057Y-113160714D02*
X135895295Y-113208333D01*
X135895295Y-113208333D02*
X136038152Y-113208333D01*
X136038152Y-113208333D02*
X136133390Y-113160714D01*
X136133390Y-113160714D02*
X136181009Y-113113095D01*
X136181009Y-113113095D02*
X136228628Y-113017857D01*
X136228628Y-113017857D02*
X136228628Y-112636905D01*
X135704819Y-113541667D02*
X135704819Y-114208333D01*
X135704819Y-114208333D02*
X136704819Y-113779762D01*
X79554819Y-150832142D02*
X79078628Y-150498809D01*
X79554819Y-150260714D02*
X78554819Y-150260714D01*
X78554819Y-150260714D02*
X78554819Y-150641666D01*
X78554819Y-150641666D02*
X78602438Y-150736904D01*
X78602438Y-150736904D02*
X78650057Y-150784523D01*
X78650057Y-150784523D02*
X78745295Y-150832142D01*
X78745295Y-150832142D02*
X78888152Y-150832142D01*
X78888152Y-150832142D02*
X78983390Y-150784523D01*
X78983390Y-150784523D02*
X79031009Y-150736904D01*
X79031009Y-150736904D02*
X79078628Y-150641666D01*
X79078628Y-150641666D02*
X79078628Y-150260714D01*
X79554819Y-151784523D02*
X79554819Y-151213095D01*
X79554819Y-151498809D02*
X78554819Y-151498809D01*
X78554819Y-151498809D02*
X78697676Y-151403571D01*
X78697676Y-151403571D02*
X78792914Y-151308333D01*
X78792914Y-151308333D02*
X78840533Y-151213095D01*
X78554819Y-152117857D02*
X78554819Y-152736904D01*
X78554819Y-152736904D02*
X78935771Y-152403571D01*
X78935771Y-152403571D02*
X78935771Y-152546428D01*
X78935771Y-152546428D02*
X78983390Y-152641666D01*
X78983390Y-152641666D02*
X79031009Y-152689285D01*
X79031009Y-152689285D02*
X79126247Y-152736904D01*
X79126247Y-152736904D02*
X79364342Y-152736904D01*
X79364342Y-152736904D02*
X79459580Y-152689285D01*
X79459580Y-152689285D02*
X79507200Y-152641666D01*
X79507200Y-152641666D02*
X79554819Y-152546428D01*
X79554819Y-152546428D02*
X79554819Y-152260714D01*
X79554819Y-152260714D02*
X79507200Y-152165476D01*
X79507200Y-152165476D02*
X79459580Y-152117857D01*
X114354819Y-112026905D02*
X113354819Y-112026905D01*
X113354819Y-112026905D02*
X113354819Y-112265000D01*
X113354819Y-112265000D02*
X113402438Y-112407857D01*
X113402438Y-112407857D02*
X113497676Y-112503095D01*
X113497676Y-112503095D02*
X113592914Y-112550714D01*
X113592914Y-112550714D02*
X113783390Y-112598333D01*
X113783390Y-112598333D02*
X113926247Y-112598333D01*
X113926247Y-112598333D02*
X114116723Y-112550714D01*
X114116723Y-112550714D02*
X114211961Y-112503095D01*
X114211961Y-112503095D02*
X114307200Y-112407857D01*
X114307200Y-112407857D02*
X114354819Y-112265000D01*
X114354819Y-112265000D02*
X114354819Y-112026905D01*
X113354819Y-112931667D02*
X113354819Y-113550714D01*
X113354819Y-113550714D02*
X113735771Y-113217381D01*
X113735771Y-113217381D02*
X113735771Y-113360238D01*
X113735771Y-113360238D02*
X113783390Y-113455476D01*
X113783390Y-113455476D02*
X113831009Y-113503095D01*
X113831009Y-113503095D02*
X113926247Y-113550714D01*
X113926247Y-113550714D02*
X114164342Y-113550714D01*
X114164342Y-113550714D02*
X114259580Y-113503095D01*
X114259580Y-113503095D02*
X114307200Y-113455476D01*
X114307200Y-113455476D02*
X114354819Y-113360238D01*
X114354819Y-113360238D02*
X114354819Y-113074524D01*
X114354819Y-113074524D02*
X114307200Y-112979286D01*
X114307200Y-112979286D02*
X114259580Y-112931667D01*
X152454819Y-112026905D02*
X151454819Y-112026905D01*
X151454819Y-112026905D02*
X151454819Y-112265000D01*
X151454819Y-112265000D02*
X151502438Y-112407857D01*
X151502438Y-112407857D02*
X151597676Y-112503095D01*
X151597676Y-112503095D02*
X151692914Y-112550714D01*
X151692914Y-112550714D02*
X151883390Y-112598333D01*
X151883390Y-112598333D02*
X152026247Y-112598333D01*
X152026247Y-112598333D02*
X152216723Y-112550714D01*
X152216723Y-112550714D02*
X152311961Y-112503095D01*
X152311961Y-112503095D02*
X152407200Y-112407857D01*
X152407200Y-112407857D02*
X152454819Y-112265000D01*
X152454819Y-112265000D02*
X152454819Y-112026905D01*
X151454819Y-113503095D02*
X151454819Y-113026905D01*
X151454819Y-113026905D02*
X151931009Y-112979286D01*
X151931009Y-112979286D02*
X151883390Y-113026905D01*
X151883390Y-113026905D02*
X151835771Y-113122143D01*
X151835771Y-113122143D02*
X151835771Y-113360238D01*
X151835771Y-113360238D02*
X151883390Y-113455476D01*
X151883390Y-113455476D02*
X151931009Y-113503095D01*
X151931009Y-113503095D02*
X152026247Y-113550714D01*
X152026247Y-113550714D02*
X152264342Y-113550714D01*
X152264342Y-113550714D02*
X152359580Y-113503095D01*
X152359580Y-113503095D02*
X152407200Y-113455476D01*
X152407200Y-113455476D02*
X152454819Y-113360238D01*
X152454819Y-113360238D02*
X152454819Y-113122143D01*
X152454819Y-113122143D02*
X152407200Y-113026905D01*
X152407200Y-113026905D02*
X152359580Y-112979286D01*
X133404819Y-149650714D02*
X132404819Y-149650714D01*
X132404819Y-149650714D02*
X132404819Y-149888809D01*
X132404819Y-149888809D02*
X132452438Y-150031666D01*
X132452438Y-150031666D02*
X132547676Y-150126904D01*
X132547676Y-150126904D02*
X132642914Y-150174523D01*
X132642914Y-150174523D02*
X132833390Y-150222142D01*
X132833390Y-150222142D02*
X132976247Y-150222142D01*
X132976247Y-150222142D02*
X133166723Y-150174523D01*
X133166723Y-150174523D02*
X133261961Y-150126904D01*
X133261961Y-150126904D02*
X133357200Y-150031666D01*
X133357200Y-150031666D02*
X133404819Y-149888809D01*
X133404819Y-149888809D02*
X133404819Y-149650714D01*
X133404819Y-151174523D02*
X133404819Y-150603095D01*
X133404819Y-150888809D02*
X132404819Y-150888809D01*
X132404819Y-150888809D02*
X132547676Y-150793571D01*
X132547676Y-150793571D02*
X132642914Y-150698333D01*
X132642914Y-150698333D02*
X132690533Y-150603095D01*
X132404819Y-151507857D02*
X132404819Y-152126904D01*
X132404819Y-152126904D02*
X132785771Y-151793571D01*
X132785771Y-151793571D02*
X132785771Y-151936428D01*
X132785771Y-151936428D02*
X132833390Y-152031666D01*
X132833390Y-152031666D02*
X132881009Y-152079285D01*
X132881009Y-152079285D02*
X132976247Y-152126904D01*
X132976247Y-152126904D02*
X133214342Y-152126904D01*
X133214342Y-152126904D02*
X133309580Y-152079285D01*
X133309580Y-152079285D02*
X133357200Y-152031666D01*
X133357200Y-152031666D02*
X133404819Y-151936428D01*
X133404819Y-151936428D02*
X133404819Y-151650714D01*
X133404819Y-151650714D02*
X133357200Y-151555476D01*
X133357200Y-151555476D02*
X133309580Y-151507857D01*
X79554819Y-113208333D02*
X79078628Y-112875000D01*
X79554819Y-112636905D02*
X78554819Y-112636905D01*
X78554819Y-112636905D02*
X78554819Y-113017857D01*
X78554819Y-113017857D02*
X78602438Y-113113095D01*
X78602438Y-113113095D02*
X78650057Y-113160714D01*
X78650057Y-113160714D02*
X78745295Y-113208333D01*
X78745295Y-113208333D02*
X78888152Y-113208333D01*
X78888152Y-113208333D02*
X78983390Y-113160714D01*
X78983390Y-113160714D02*
X79031009Y-113113095D01*
X79031009Y-113113095D02*
X79078628Y-113017857D01*
X79078628Y-113017857D02*
X79078628Y-112636905D01*
X78888152Y-114065476D02*
X79554819Y-114065476D01*
X78507200Y-113827381D02*
X79221485Y-113589286D01*
X79221485Y-113589286D02*
X79221485Y-114208333D01*
X136704819Y-75108333D02*
X136228628Y-74775000D01*
X136704819Y-74536905D02*
X135704819Y-74536905D01*
X135704819Y-74536905D02*
X135704819Y-74917857D01*
X135704819Y-74917857D02*
X135752438Y-75013095D01*
X135752438Y-75013095D02*
X135800057Y-75060714D01*
X135800057Y-75060714D02*
X135895295Y-75108333D01*
X135895295Y-75108333D02*
X136038152Y-75108333D01*
X136038152Y-75108333D02*
X136133390Y-75060714D01*
X136133390Y-75060714D02*
X136181009Y-75013095D01*
X136181009Y-75013095D02*
X136228628Y-74917857D01*
X136228628Y-74917857D02*
X136228628Y-74536905D01*
X136133390Y-75679762D02*
X136085771Y-75584524D01*
X136085771Y-75584524D02*
X136038152Y-75536905D01*
X136038152Y-75536905D02*
X135942914Y-75489286D01*
X135942914Y-75489286D02*
X135895295Y-75489286D01*
X135895295Y-75489286D02*
X135800057Y-75536905D01*
X135800057Y-75536905D02*
X135752438Y-75584524D01*
X135752438Y-75584524D02*
X135704819Y-75679762D01*
X135704819Y-75679762D02*
X135704819Y-75870238D01*
X135704819Y-75870238D02*
X135752438Y-75965476D01*
X135752438Y-75965476D02*
X135800057Y-76013095D01*
X135800057Y-76013095D02*
X135895295Y-76060714D01*
X135895295Y-76060714D02*
X135942914Y-76060714D01*
X135942914Y-76060714D02*
X136038152Y-76013095D01*
X136038152Y-76013095D02*
X136085771Y-75965476D01*
X136085771Y-75965476D02*
X136133390Y-75870238D01*
X136133390Y-75870238D02*
X136133390Y-75679762D01*
X136133390Y-75679762D02*
X136181009Y-75584524D01*
X136181009Y-75584524D02*
X136228628Y-75536905D01*
X136228628Y-75536905D02*
X136323866Y-75489286D01*
X136323866Y-75489286D02*
X136514342Y-75489286D01*
X136514342Y-75489286D02*
X136609580Y-75536905D01*
X136609580Y-75536905D02*
X136657200Y-75584524D01*
X136657200Y-75584524D02*
X136704819Y-75679762D01*
X136704819Y-75679762D02*
X136704819Y-75870238D01*
X136704819Y-75870238D02*
X136657200Y-75965476D01*
X136657200Y-75965476D02*
X136609580Y-76013095D01*
X136609580Y-76013095D02*
X136514342Y-76060714D01*
X136514342Y-76060714D02*
X136323866Y-76060714D01*
X136323866Y-76060714D02*
X136228628Y-76013095D01*
X136228628Y-76013095D02*
X136181009Y-75965476D01*
X136181009Y-75965476D02*
X136133390Y-75870238D01*
X98604819Y-113208333D02*
X98128628Y-112875000D01*
X98604819Y-112636905D02*
X97604819Y-112636905D01*
X97604819Y-112636905D02*
X97604819Y-113017857D01*
X97604819Y-113017857D02*
X97652438Y-113113095D01*
X97652438Y-113113095D02*
X97700057Y-113160714D01*
X97700057Y-113160714D02*
X97795295Y-113208333D01*
X97795295Y-113208333D02*
X97938152Y-113208333D01*
X97938152Y-113208333D02*
X98033390Y-113160714D01*
X98033390Y-113160714D02*
X98081009Y-113113095D01*
X98081009Y-113113095D02*
X98128628Y-113017857D01*
X98128628Y-113017857D02*
X98128628Y-112636905D01*
X97604819Y-114113095D02*
X97604819Y-113636905D01*
X97604819Y-113636905D02*
X98081009Y-113589286D01*
X98081009Y-113589286D02*
X98033390Y-113636905D01*
X98033390Y-113636905D02*
X97985771Y-113732143D01*
X97985771Y-113732143D02*
X97985771Y-113970238D01*
X97985771Y-113970238D02*
X98033390Y-114065476D01*
X98033390Y-114065476D02*
X98081009Y-114113095D01*
X98081009Y-114113095D02*
X98176247Y-114160714D01*
X98176247Y-114160714D02*
X98414342Y-114160714D01*
X98414342Y-114160714D02*
X98509580Y-114113095D01*
X98509580Y-114113095D02*
X98557200Y-114065476D01*
X98557200Y-114065476D02*
X98604819Y-113970238D01*
X98604819Y-113970238D02*
X98604819Y-113732143D01*
X98604819Y-113732143D02*
X98557200Y-113636905D01*
X98557200Y-113636905D02*
X98509580Y-113589286D01*
X71669819Y-42151666D02*
X72384104Y-42151666D01*
X72384104Y-42151666D02*
X72526961Y-42104047D01*
X72526961Y-42104047D02*
X72622200Y-42008809D01*
X72622200Y-42008809D02*
X72669819Y-41865952D01*
X72669819Y-41865952D02*
X72669819Y-41770714D01*
X72669819Y-43151666D02*
X72669819Y-42580238D01*
X72669819Y-42865952D02*
X71669819Y-42865952D01*
X71669819Y-42865952D02*
X71812676Y-42770714D01*
X71812676Y-42770714D02*
X71907914Y-42675476D01*
X71907914Y-42675476D02*
X71955533Y-42580238D01*
X98604819Y-150832142D02*
X98128628Y-150498809D01*
X98604819Y-150260714D02*
X97604819Y-150260714D01*
X97604819Y-150260714D02*
X97604819Y-150641666D01*
X97604819Y-150641666D02*
X97652438Y-150736904D01*
X97652438Y-150736904D02*
X97700057Y-150784523D01*
X97700057Y-150784523D02*
X97795295Y-150832142D01*
X97795295Y-150832142D02*
X97938152Y-150832142D01*
X97938152Y-150832142D02*
X98033390Y-150784523D01*
X98033390Y-150784523D02*
X98081009Y-150736904D01*
X98081009Y-150736904D02*
X98128628Y-150641666D01*
X98128628Y-150641666D02*
X98128628Y-150260714D01*
X98604819Y-151784523D02*
X98604819Y-151213095D01*
X98604819Y-151498809D02*
X97604819Y-151498809D01*
X97604819Y-151498809D02*
X97747676Y-151403571D01*
X97747676Y-151403571D02*
X97842914Y-151308333D01*
X97842914Y-151308333D02*
X97890533Y-151213095D01*
X97938152Y-152641666D02*
X98604819Y-152641666D01*
X97557200Y-152403571D02*
X98271485Y-152165476D01*
X98271485Y-152165476D02*
X98271485Y-152784523D01*
X117654819Y-150832142D02*
X117178628Y-150498809D01*
X117654819Y-150260714D02*
X116654819Y-150260714D01*
X116654819Y-150260714D02*
X116654819Y-150641666D01*
X116654819Y-150641666D02*
X116702438Y-150736904D01*
X116702438Y-150736904D02*
X116750057Y-150784523D01*
X116750057Y-150784523D02*
X116845295Y-150832142D01*
X116845295Y-150832142D02*
X116988152Y-150832142D01*
X116988152Y-150832142D02*
X117083390Y-150784523D01*
X117083390Y-150784523D02*
X117131009Y-150736904D01*
X117131009Y-150736904D02*
X117178628Y-150641666D01*
X117178628Y-150641666D02*
X117178628Y-150260714D01*
X117654819Y-151784523D02*
X117654819Y-151213095D01*
X117654819Y-151498809D02*
X116654819Y-151498809D01*
X116654819Y-151498809D02*
X116797676Y-151403571D01*
X116797676Y-151403571D02*
X116892914Y-151308333D01*
X116892914Y-151308333D02*
X116940533Y-151213095D01*
X116654819Y-152689285D02*
X116654819Y-152213095D01*
X116654819Y-152213095D02*
X117131009Y-152165476D01*
X117131009Y-152165476D02*
X117083390Y-152213095D01*
X117083390Y-152213095D02*
X117035771Y-152308333D01*
X117035771Y-152308333D02*
X117035771Y-152546428D01*
X117035771Y-152546428D02*
X117083390Y-152641666D01*
X117083390Y-152641666D02*
X117131009Y-152689285D01*
X117131009Y-152689285D02*
X117226247Y-152736904D01*
X117226247Y-152736904D02*
X117464342Y-152736904D01*
X117464342Y-152736904D02*
X117559580Y-152689285D01*
X117559580Y-152689285D02*
X117607200Y-152641666D01*
X117607200Y-152641666D02*
X117654819Y-152546428D01*
X117654819Y-152546428D02*
X117654819Y-152308333D01*
X117654819Y-152308333D02*
X117607200Y-152213095D01*
X117607200Y-152213095D02*
X117559580Y-152165476D01*
X77809819Y-56328333D02*
X77333628Y-55995000D01*
X77809819Y-55756905D02*
X76809819Y-55756905D01*
X76809819Y-55756905D02*
X76809819Y-56137857D01*
X76809819Y-56137857D02*
X76857438Y-56233095D01*
X76857438Y-56233095D02*
X76905057Y-56280714D01*
X76905057Y-56280714D02*
X77000295Y-56328333D01*
X77000295Y-56328333D02*
X77143152Y-56328333D01*
X77143152Y-56328333D02*
X77238390Y-56280714D01*
X77238390Y-56280714D02*
X77286009Y-56233095D01*
X77286009Y-56233095D02*
X77333628Y-56137857D01*
X77333628Y-56137857D02*
X77333628Y-55756905D01*
X77809819Y-57280714D02*
X77809819Y-56709286D01*
X77809819Y-56995000D02*
X76809819Y-56995000D01*
X76809819Y-56995000D02*
X76952676Y-56899762D01*
X76952676Y-56899762D02*
X77047914Y-56804524D01*
X77047914Y-56804524D02*
X77095533Y-56709286D01*
D12*
%TO.C,LED11*%
X85022000Y-149300000D02*
X86038000Y-149300000D01*
X85530000Y-149808000D02*
X85530000Y-148792000D01*
%TO.C,LED6*%
X142172000Y-73100000D02*
X143188000Y-73100000D01*
X142680000Y-73608000D02*
X142680000Y-72592000D01*
%TO.C,LED9*%
X142172000Y-139775000D02*
X143188000Y-139775000D01*
X142680000Y-140283000D02*
X142680000Y-139267000D01*
%TO.C,LED4*%
X123122000Y-111200000D02*
X124138000Y-111200000D01*
X123630000Y-111708000D02*
X123630000Y-110692000D01*
%TO.C,LED7*%
X104072000Y-130250000D02*
X105088000Y-130250000D01*
X104580000Y-130758000D02*
X104580000Y-129742000D01*
%TO.C,LED17*%
X104072000Y-168350000D02*
X105088000Y-168350000D01*
X104580000Y-168858000D02*
X104580000Y-167842000D01*
%TO.C,LED5*%
X142172000Y-111200000D02*
X143188000Y-111200000D01*
X142680000Y-111708000D02*
X142680000Y-110692000D01*
%TO.C,LED3*%
X104072000Y-111200000D02*
X105088000Y-111200000D01*
X104580000Y-111708000D02*
X104580000Y-110692000D01*
%TO.C,LED12*%
X104072000Y-149300000D02*
X105088000Y-149300000D01*
X104580000Y-149808000D02*
X104580000Y-148792000D01*
%TO.C,LED1*%
X85022000Y-130250000D02*
X86038000Y-130250000D01*
X85530000Y-130758000D02*
X85530000Y-129742000D01*
%TO.C,LED8*%
X123122000Y-130250000D02*
X124138000Y-130250000D01*
X123630000Y-130758000D02*
X123630000Y-129742000D01*
%TO.C,LED2*%
X85022000Y-111200000D02*
X86038000Y-111200000D01*
X85530000Y-111708000D02*
X85530000Y-110692000D01*
%TO.C,LED16*%
X85022000Y-168350000D02*
X86038000Y-168350000D01*
X85530000Y-168858000D02*
X85530000Y-167842000D01*
%TO.C,LED18*%
X123122000Y-168350000D02*
X124138000Y-168350000D01*
X123630000Y-168858000D02*
X123630000Y-167842000D01*
%TO.C,LED22*%
X123122000Y-187400000D02*
X124138000Y-187400000D01*
X123630000Y-187908000D02*
X123630000Y-186892000D01*
%TO.C,LED23*%
X142172000Y-177875000D02*
X143188000Y-177875000D01*
X142680000Y-178383000D02*
X142680000Y-177367000D01*
%TO.C,LED21*%
X94547000Y-187400000D02*
X95563000Y-187400000D01*
X95055000Y-187908000D02*
X95055000Y-186892000D01*
%TO.C,LED13*%
X123122000Y-149300000D02*
X124138000Y-149300000D01*
X123630000Y-149808000D02*
X123630000Y-148792000D01*
%TO.C,D12*%
X110950000Y-149465000D02*
X110950000Y-153125000D01*
X110950000Y-153125000D02*
X112850000Y-153125000D01*
X112850000Y-149465000D02*
X112850000Y-153125000D01*
%TO.C,D21*%
X101425000Y-187565000D02*
X101425000Y-191225000D01*
X101425000Y-191225000D02*
X103325000Y-191225000D01*
X103325000Y-187565000D02*
X103325000Y-191225000D01*
%TO.C,R3*%
X80007500Y-132679724D02*
X80007500Y-132170276D01*
X81052500Y-132679724D02*
X81052500Y-132170276D01*
%TO.C,D16*%
X91900000Y-168515000D02*
X91900000Y-172175000D01*
X91900000Y-172175000D02*
X93800000Y-172175000D01*
X93800000Y-168515000D02*
X93800000Y-172175000D01*
%TO.C,R2*%
X80155000Y-53125000D02*
X80155000Y-59665000D01*
X80155000Y-59665000D02*
X82895000Y-59665000D01*
X81525000Y-53125000D02*
X81525000Y-52355000D01*
X81525000Y-59665000D02*
X81525000Y-60435000D01*
X82895000Y-53125000D02*
X80155000Y-53125000D01*
X82895000Y-59665000D02*
X82895000Y-53125000D01*
%TO.C,D4*%
X130000000Y-111365000D02*
X130000000Y-115025000D01*
X130000000Y-115025000D02*
X131900000Y-115025000D01*
X131900000Y-111365000D02*
X131900000Y-115025000D01*
%TO.C,R18*%
X80007500Y-170779724D02*
X80007500Y-170270276D01*
X81052500Y-170779724D02*
X81052500Y-170270276D01*
%TO.C,D1*%
X91900000Y-130415000D02*
X91900000Y-134075000D01*
X91900000Y-134075000D02*
X93800000Y-134075000D01*
X93800000Y-130415000D02*
X93800000Y-134075000D01*
%TO.C,R11*%
X137157500Y-142204724D02*
X137157500Y-141695276D01*
X138202500Y-142204724D02*
X138202500Y-141695276D01*
%TO.C,R6*%
X118107500Y-113629724D02*
X118107500Y-113120276D01*
X119152500Y-113629724D02*
X119152500Y-113120276D01*
%TO.C,D9*%
X149050000Y-139940000D02*
X149050000Y-143600000D01*
X149050000Y-143600000D02*
X150950000Y-143600000D01*
X150950000Y-139940000D02*
X150950000Y-143600000D01*
%TO.C,D11*%
X91900000Y-149465000D02*
X91900000Y-153125000D01*
X91900000Y-153125000D02*
X93800000Y-153125000D01*
X93800000Y-149465000D02*
X93800000Y-153125000D01*
%TO.C,D7*%
X110950000Y-130415000D02*
X110950000Y-134075000D01*
X110950000Y-134075000D02*
X112850000Y-134075000D01*
X112850000Y-130415000D02*
X112850000Y-134075000D01*
%TO.C,R19*%
X99057500Y-170779724D02*
X99057500Y-170270276D01*
X100102500Y-170779724D02*
X100102500Y-170270276D01*
%TO.C,R9*%
X99057500Y-132679724D02*
X99057500Y-132170276D01*
X100102500Y-132679724D02*
X100102500Y-132170276D01*
%TO.C,R23*%
X89532500Y-189829724D02*
X89532500Y-189320276D01*
X90577500Y-189829724D02*
X90577500Y-189320276D01*
%TO.C,D2*%
X91900000Y-111365000D02*
X91900000Y-115025000D01*
X91900000Y-115025000D02*
X93800000Y-115025000D01*
X93800000Y-111365000D02*
X93800000Y-115025000D01*
%TO.C,R24*%
X118107500Y-189829724D02*
X118107500Y-189320276D01*
X119152500Y-189829724D02*
X119152500Y-189320276D01*
%TO.C,D18*%
X130000000Y-168515000D02*
X130000000Y-172175000D01*
X130000000Y-172175000D02*
X131900000Y-172175000D01*
X131900000Y-168515000D02*
X131900000Y-172175000D01*
%TO.C,R20*%
X118107500Y-170779724D02*
X118107500Y-170270276D01*
X119152500Y-170779724D02*
X119152500Y-170270276D01*
%TO.C,D23*%
X149050000Y-178040000D02*
X149050000Y-181700000D01*
X149050000Y-181700000D02*
X150950000Y-181700000D01*
X150950000Y-178040000D02*
X150950000Y-181700000D01*
%TO.C,R10*%
X118107500Y-132679724D02*
X118107500Y-132170276D01*
X119152500Y-132679724D02*
X119152500Y-132170276D01*
D11*
%TO.C,U1*%
X88605000Y-42115000D02*
X109605000Y-42115000D01*
X88605000Y-93115000D02*
X88605000Y-42115000D01*
X106598000Y-42115000D02*
X106598000Y-44782000D01*
X106598000Y-44782000D02*
X109605000Y-44782000D01*
X109605000Y-93115000D02*
X88605000Y-93115000D01*
X109605000Y-93115000D02*
X109605000Y-42115000D01*
D12*
%TO.C,D22*%
X130000000Y-187565000D02*
X130000000Y-191225000D01*
X130000000Y-191225000D02*
X131900000Y-191225000D01*
X131900000Y-187565000D02*
X131900000Y-191225000D01*
%TO.C,D17*%
X110950000Y-168515000D02*
X110950000Y-172175000D01*
X110950000Y-172175000D02*
X112850000Y-172175000D01*
X112850000Y-168515000D02*
X112850000Y-172175000D01*
%TO.C,D8*%
X130000000Y-130415000D02*
X130000000Y-134075000D01*
X130000000Y-134075000D02*
X131900000Y-134075000D01*
X131900000Y-130415000D02*
X131900000Y-134075000D01*
%TO.C,R25*%
X137157500Y-180304724D02*
X137157500Y-179795276D01*
X138202500Y-180304724D02*
X138202500Y-179795276D01*
%TO.C,R7*%
X137157500Y-113629724D02*
X137157500Y-113120276D01*
X138202500Y-113629724D02*
X138202500Y-113120276D01*
%TO.C,R13*%
X80007500Y-151729724D02*
X80007500Y-151220276D01*
X81052500Y-151729724D02*
X81052500Y-151220276D01*
%TO.C,D3*%
X110950000Y-111365000D02*
X110950000Y-115025000D01*
X110950000Y-115025000D02*
X112850000Y-115025000D01*
X112850000Y-111365000D02*
X112850000Y-115025000D01*
%TO.C,D5*%
X149050000Y-111365000D02*
X149050000Y-115025000D01*
X149050000Y-115025000D02*
X150950000Y-115025000D01*
X150950000Y-111365000D02*
X150950000Y-115025000D01*
%TO.C,D13*%
X130000000Y-149465000D02*
X130000000Y-153125000D01*
X130000000Y-153125000D02*
X131900000Y-153125000D01*
X131900000Y-149465000D02*
X131900000Y-153125000D01*
%TO.C,R4*%
X80007500Y-113629724D02*
X80007500Y-113120276D01*
X81052500Y-113629724D02*
X81052500Y-113120276D01*
%TO.C,R8*%
X137157500Y-75529724D02*
X137157500Y-75020276D01*
X138202500Y-75529724D02*
X138202500Y-75020276D01*
%TO.C,R5*%
X99057500Y-113629724D02*
X99057500Y-113120276D01*
X100102500Y-113629724D02*
X100102500Y-113120276D01*
%TO.C,J1*%
X75045000Y-36015000D02*
X75595000Y-36015000D01*
X75045000Y-38535000D02*
X75045000Y-36015000D01*
X75045000Y-41535000D02*
X75045000Y-40135000D01*
X75045000Y-45535000D02*
X75045000Y-43135000D01*
X75045000Y-47135000D02*
X75045000Y-48355000D01*
X75595000Y-34015000D02*
X80835000Y-34015000D01*
X75595000Y-36015000D02*
X75595000Y-34015000D01*
X80835000Y-34015000D02*
X80835000Y-36015000D01*
X80835000Y-36015000D02*
X81385000Y-36015000D01*
X81385000Y-36015000D02*
X81385000Y-46635000D01*
X81385000Y-46635000D02*
X82715000Y-46635000D01*
X82715000Y-48355000D02*
X75045000Y-48355000D01*
%TO.C,R14*%
X99057500Y-151729724D02*
X99057500Y-151220276D01*
X100102500Y-151729724D02*
X100102500Y-151220276D01*
%TO.C,R15*%
X118107500Y-151729724D02*
X118107500Y-151220276D01*
X119152500Y-151729724D02*
X119152500Y-151220276D01*
%TO.C,R1*%
X73615000Y-53225000D02*
X73615000Y-59765000D01*
X73615000Y-59765000D02*
X76355000Y-59765000D01*
X74985000Y-53225000D02*
X74985000Y-52455000D01*
X74985000Y-59765000D02*
X74985000Y-60535000D01*
X76355000Y-53225000D02*
X73615000Y-53225000D01*
X76355000Y-59765000D02*
X76355000Y-53225000D01*
%TD*%
%LPC*%
D13*
%TO.C,S7*%
X81720000Y-127075000D03*
D14*
X82990000Y-124535000D03*
D15*
X86800000Y-127075000D03*
D14*
X89340000Y-121995000D03*
D13*
X91880000Y-127075000D03*
D16*
X79715000Y-124535000D03*
X92642000Y-121995000D03*
%TD*%
D15*
%TO.C,S10*%
X135695000Y-124662000D03*
X135695000Y-148538000D03*
D13*
X138870000Y-136600000D03*
D14*
X140140000Y-134060000D03*
D15*
X143950000Y-136600000D03*
D14*
X146490000Y-131520000D03*
D13*
X149030000Y-136600000D03*
D17*
X150935000Y-124662000D03*
X150935000Y-148538000D03*
D16*
X136865000Y-134060000D03*
X149792000Y-131520000D03*
%TD*%
D13*
%TO.C,S23*%
X119820000Y-184225000D03*
D14*
X121090000Y-181685000D03*
D15*
X124900000Y-184225000D03*
D14*
X127440000Y-179145000D03*
D13*
X129980000Y-184225000D03*
D16*
X117815000Y-181685000D03*
X130742000Y-179145000D03*
%TD*%
D13*
%TO.C,S14*%
X119820000Y-146125000D03*
D14*
X121090000Y-143585000D03*
D15*
X124900000Y-146125000D03*
D14*
X127440000Y-141045000D03*
D13*
X129980000Y-146125000D03*
D16*
X117815000Y-143585000D03*
X130742000Y-141045000D03*
%TD*%
D18*
%TO.C,LED11*%
X85530000Y-151205000D03*
D19*
X88070000Y-151205000D03*
%TD*%
D18*
%TO.C,LED6*%
X142680000Y-75005000D03*
D19*
X145220000Y-75005000D03*
%TD*%
D18*
%TO.C,LED9*%
X142680000Y-141680000D03*
D19*
X145220000Y-141680000D03*
%TD*%
D13*
%TO.C,S3*%
X100770000Y-108025000D03*
D14*
X102040000Y-105485000D03*
D15*
X105850000Y-108025000D03*
D14*
X108390000Y-102945000D03*
D13*
X110930000Y-108025000D03*
D16*
X98765000Y-105485000D03*
X111692000Y-102945000D03*
%TD*%
D18*
%TO.C,LED4*%
X123630000Y-113105000D03*
D19*
X126170000Y-113105000D03*
%TD*%
D17*
%TO.C,S22*%
X84387000Y-177240000D03*
D15*
X84387000Y-192480000D03*
D13*
X91245000Y-184225000D03*
D14*
X92515000Y-181685000D03*
D15*
X96325000Y-184225000D03*
D14*
X98865000Y-179145000D03*
D13*
X101405000Y-184225000D03*
D17*
X108263000Y-177240000D03*
D15*
X108263000Y-192480000D03*
D16*
X89240000Y-181685000D03*
X102167000Y-179145000D03*
%TD*%
D13*
%TO.C,S2*%
X81720000Y-108025000D03*
D14*
X82990000Y-105485000D03*
D15*
X86800000Y-108025000D03*
D14*
X89340000Y-102945000D03*
D13*
X91880000Y-108025000D03*
D16*
X79715000Y-105485000D03*
X92642000Y-102945000D03*
%TD*%
D20*
%TO.C,REF\u002A\u002A*%
X156015000Y-199585000D03*
%TD*%
D13*
%TO.C,S5*%
X138870000Y-108025000D03*
D14*
X140140000Y-105485000D03*
D15*
X143950000Y-108025000D03*
D14*
X146490000Y-102945000D03*
D13*
X149030000Y-108025000D03*
D16*
X136865000Y-105485000D03*
X149792000Y-102945000D03*
%TD*%
D13*
%TO.C,S8*%
X100770000Y-127075000D03*
D14*
X102040000Y-124535000D03*
D15*
X105850000Y-127075000D03*
D14*
X108390000Y-121995000D03*
D13*
X110930000Y-127075000D03*
D16*
X98765000Y-124535000D03*
X111692000Y-121995000D03*
%TD*%
D13*
%TO.C,S1*%
X138870000Y-69925000D03*
D14*
X140140000Y-67385000D03*
D15*
X143950000Y-69925000D03*
D14*
X146490000Y-64845000D03*
D13*
X149030000Y-69925000D03*
D16*
X136865000Y-67385000D03*
X149792000Y-64845000D03*
%TD*%
D13*
%TO.C,S18*%
X100770000Y-165175000D03*
D14*
X102040000Y-162635000D03*
D15*
X105850000Y-165175000D03*
D14*
X108390000Y-160095000D03*
D13*
X110930000Y-165175000D03*
D16*
X98765000Y-162635000D03*
X111692000Y-160095000D03*
%TD*%
D20*
%TO.C,REF\u002A\u002A*%
X75015000Y-68585000D03*
%TD*%
D18*
%TO.C,LED7*%
X104580000Y-132155000D03*
D19*
X107120000Y-132155000D03*
%TD*%
D18*
%TO.C,LED17*%
X104580000Y-170255000D03*
D19*
X107120000Y-170255000D03*
%TD*%
D13*
%TO.C,S19*%
X119820000Y-165175000D03*
D14*
X121090000Y-162635000D03*
D15*
X124900000Y-165175000D03*
D14*
X127440000Y-160095000D03*
D13*
X129980000Y-165175000D03*
D16*
X117815000Y-162635000D03*
X130742000Y-160095000D03*
%TD*%
D18*
%TO.C,LED5*%
X142680000Y-113105000D03*
D19*
X145220000Y-113105000D03*
%TD*%
D18*
%TO.C,LED3*%
X104580000Y-113105000D03*
D19*
X107120000Y-113105000D03*
%TD*%
D18*
%TO.C,LED12*%
X104580000Y-151205000D03*
D19*
X107120000Y-151205000D03*
%TD*%
D20*
%TO.C,REF\u002A\u002A*%
X75015000Y-199585000D03*
%TD*%
D18*
%TO.C,LED1*%
X85530000Y-132155000D03*
D19*
X88070000Y-132155000D03*
%TD*%
D20*
%TO.C,REF\u002A\u002A*%
X144015000Y-123585000D03*
%TD*%
D18*
%TO.C,LED8*%
X123630000Y-132155000D03*
D19*
X126170000Y-132155000D03*
%TD*%
D15*
%TO.C,S24*%
X135695000Y-162762000D03*
X135695000Y-186638000D03*
D13*
X138870000Y-174700000D03*
D14*
X140140000Y-172160000D03*
D15*
X143950000Y-174700000D03*
D14*
X146490000Y-169620000D03*
D13*
X149030000Y-174700000D03*
D17*
X150935000Y-162762000D03*
X150935000Y-186638000D03*
D16*
X136865000Y-172160000D03*
X149792000Y-169620000D03*
%TD*%
D18*
%TO.C,LED2*%
X85530000Y-113105000D03*
D19*
X88070000Y-113105000D03*
%TD*%
D13*
%TO.C,S17*%
X81720000Y-165175000D03*
D14*
X82990000Y-162635000D03*
D15*
X86800000Y-165175000D03*
D14*
X89340000Y-160095000D03*
D13*
X91880000Y-165175000D03*
D16*
X79715000Y-162635000D03*
X92642000Y-160095000D03*
%TD*%
D18*
%TO.C,LED16*%
X85530000Y-170255000D03*
D19*
X88070000Y-170255000D03*
%TD*%
D18*
%TO.C,LED18*%
X123630000Y-170255000D03*
D19*
X126170000Y-170255000D03*
%TD*%
D13*
%TO.C,S12*%
X81720000Y-146125000D03*
D14*
X82990000Y-143585000D03*
D15*
X86800000Y-146125000D03*
D14*
X89340000Y-141045000D03*
D13*
X91880000Y-146125000D03*
D16*
X79715000Y-143585000D03*
X92642000Y-141045000D03*
%TD*%
D18*
%TO.C,LED22*%
X123630000Y-189305000D03*
D19*
X126170000Y-189305000D03*
%TD*%
D13*
%TO.C,S9*%
X119820000Y-127075000D03*
D14*
X121090000Y-124535000D03*
D15*
X124900000Y-127075000D03*
D14*
X127440000Y-121995000D03*
D13*
X129980000Y-127075000D03*
D16*
X117815000Y-124535000D03*
X130742000Y-121995000D03*
%TD*%
D13*
%TO.C,S13*%
X100770000Y-146125000D03*
D14*
X102040000Y-143585000D03*
D15*
X105850000Y-146125000D03*
D14*
X108390000Y-141045000D03*
D13*
X110930000Y-146125000D03*
D16*
X98765000Y-143585000D03*
X111692000Y-141045000D03*
%TD*%
D20*
%TO.C,REF\u002A\u002A*%
X156015000Y-39585000D03*
%TD*%
D13*
%TO.C,S4*%
X119820000Y-108025000D03*
D14*
X121090000Y-105485000D03*
D15*
X124900000Y-108025000D03*
D14*
X127440000Y-102945000D03*
D13*
X129980000Y-108025000D03*
D16*
X117815000Y-105485000D03*
X130742000Y-102945000D03*
%TD*%
D18*
%TO.C,LED23*%
X142680000Y-179780000D03*
D19*
X145220000Y-179780000D03*
%TD*%
D18*
%TO.C,LED21*%
X95055000Y-189305000D03*
D19*
X97595000Y-189305000D03*
%TD*%
D18*
%TO.C,LED13*%
X123630000Y-151205000D03*
D19*
X126170000Y-151205000D03*
%TD*%
D21*
%TO.C,D12*%
X111900000Y-152265000D03*
X111900000Y-149465000D03*
%TD*%
%TO.C,D21*%
X102375000Y-190365000D03*
X102375000Y-187565000D03*
%TD*%
D22*
%TO.C,R3*%
X80530000Y-131512500D03*
X80530000Y-133337500D03*
%TD*%
D21*
%TO.C,D16*%
X92850000Y-171315000D03*
X92850000Y-168515000D03*
%TD*%
D23*
%TO.C,R2*%
X81525000Y-61475000D03*
D24*
X81525000Y-51315000D03*
%TD*%
D21*
%TO.C,D4*%
X130950000Y-114165000D03*
X130950000Y-111365000D03*
%TD*%
D22*
%TO.C,R18*%
X80530000Y-169612500D03*
X80530000Y-171437500D03*
%TD*%
D21*
%TO.C,D1*%
X92850000Y-133215000D03*
X92850000Y-130415000D03*
%TD*%
D22*
%TO.C,R11*%
X137680000Y-141037500D03*
X137680000Y-142862500D03*
%TD*%
%TO.C,R6*%
X118630000Y-112462500D03*
X118630000Y-114287500D03*
%TD*%
D21*
%TO.C,D9*%
X150000000Y-142740000D03*
X150000000Y-139940000D03*
%TD*%
%TO.C,D11*%
X92850000Y-152265000D03*
X92850000Y-149465000D03*
%TD*%
%TO.C,D7*%
X111900000Y-133215000D03*
X111900000Y-130415000D03*
%TD*%
D22*
%TO.C,R19*%
X99580000Y-169612500D03*
X99580000Y-171437500D03*
%TD*%
%TO.C,R9*%
X99580000Y-131512500D03*
X99580000Y-133337500D03*
%TD*%
%TO.C,R23*%
X90055000Y-188662500D03*
X90055000Y-190487500D03*
%TD*%
D21*
%TO.C,D2*%
X92850000Y-114165000D03*
X92850000Y-111365000D03*
%TD*%
D22*
%TO.C,R24*%
X118630000Y-188662500D03*
X118630000Y-190487500D03*
%TD*%
D21*
%TO.C,D18*%
X130950000Y-171315000D03*
X130950000Y-168515000D03*
%TD*%
D22*
%TO.C,R20*%
X118630000Y-169612500D03*
X118630000Y-171437500D03*
%TD*%
D21*
%TO.C,D23*%
X150000000Y-180840000D03*
X150000000Y-178040000D03*
%TD*%
D22*
%TO.C,R10*%
X118630000Y-131512500D03*
X118630000Y-133337500D03*
%TD*%
D25*
%TO.C,U1*%
X107995000Y-43485000D03*
D26*
X108895000Y-43485000D03*
D25*
X107995000Y-46025000D03*
D26*
X108895000Y-46025000D03*
D27*
X107995000Y-48565000D03*
D26*
X108895000Y-48565000D03*
D25*
X107995000Y-51105000D03*
D26*
X108895000Y-51105000D03*
D25*
X107995000Y-53645000D03*
D26*
X108895000Y-53645000D03*
D25*
X107995000Y-56185000D03*
D26*
X108895000Y-56185000D03*
D25*
X107995000Y-58725000D03*
D26*
X108895000Y-58725000D03*
D27*
X107995000Y-61265000D03*
D26*
X108895000Y-61265000D03*
D25*
X107995000Y-63805000D03*
D26*
X108895000Y-63805000D03*
D25*
X107995000Y-66345000D03*
D26*
X108895000Y-66345000D03*
D25*
X107995000Y-68885000D03*
D26*
X108895000Y-68885000D03*
D25*
X107995000Y-71425000D03*
D26*
X108895000Y-71425000D03*
D27*
X107995000Y-73965000D03*
D26*
X108895000Y-73965000D03*
D25*
X107995000Y-76505000D03*
D26*
X108895000Y-76505000D03*
D25*
X107995000Y-79045000D03*
D26*
X108895000Y-79045000D03*
D25*
X107995000Y-81585000D03*
D26*
X108895000Y-81585000D03*
D25*
X107995000Y-84125000D03*
D26*
X108895000Y-84125000D03*
D27*
X107995000Y-86665000D03*
D26*
X108895000Y-86665000D03*
D25*
X107995000Y-89205000D03*
D26*
X108895000Y-89205000D03*
D25*
X107995000Y-91745000D03*
D26*
X108895000Y-91745000D03*
D25*
X90215000Y-91745000D03*
D26*
X89315000Y-91745000D03*
D25*
X90215000Y-89205000D03*
D26*
X89315000Y-89205000D03*
D27*
X90215000Y-86665000D03*
D26*
X89315000Y-86665000D03*
D25*
X90215000Y-84125000D03*
D26*
X89315000Y-84125000D03*
D25*
X90215000Y-81585000D03*
D26*
X89315000Y-81585000D03*
D25*
X90215000Y-79045000D03*
D26*
X89315000Y-79045000D03*
D25*
X90215000Y-76505000D03*
D26*
X89315000Y-76505000D03*
D27*
X90215000Y-73965000D03*
D26*
X89315000Y-73965000D03*
D25*
X90215000Y-71425000D03*
D26*
X89315000Y-71425000D03*
D25*
X90215000Y-68885000D03*
D26*
X89315000Y-68885000D03*
D25*
X90215000Y-66345000D03*
D26*
X89315000Y-66345000D03*
D25*
X90215000Y-63805000D03*
D26*
X89315000Y-63805000D03*
D27*
X90215000Y-61265000D03*
D26*
X89315000Y-61265000D03*
D25*
X90215000Y-58725000D03*
D26*
X89315000Y-58725000D03*
D25*
X90215000Y-56185000D03*
D26*
X89315000Y-56185000D03*
D25*
X90215000Y-53645000D03*
D26*
X89315000Y-53645000D03*
D25*
X90215000Y-51105000D03*
D26*
X89315000Y-51105000D03*
D27*
X90215000Y-48565000D03*
D26*
X89315000Y-48565000D03*
D25*
X90215000Y-46025000D03*
D26*
X89315000Y-46025000D03*
D25*
X90215000Y-43485000D03*
D26*
X89315000Y-43485000D03*
D25*
X101645000Y-91515000D03*
D28*
X101645000Y-92415000D03*
D27*
X99105000Y-91515000D03*
D28*
X99105000Y-92415000D03*
D25*
X96565000Y-91515000D03*
D28*
X96565000Y-92415000D03*
%TD*%
D21*
%TO.C,D22*%
X130950000Y-190365000D03*
X130950000Y-187565000D03*
%TD*%
%TO.C,D17*%
X111900000Y-171315000D03*
X111900000Y-168515000D03*
%TD*%
%TO.C,D8*%
X130950000Y-133215000D03*
X130950000Y-130415000D03*
%TD*%
D22*
%TO.C,R25*%
X137680000Y-179137500D03*
X137680000Y-180962500D03*
%TD*%
%TO.C,R7*%
X137680000Y-112462500D03*
X137680000Y-114287500D03*
%TD*%
%TO.C,R13*%
X80530000Y-150562500D03*
X80530000Y-152387500D03*
%TD*%
D21*
%TO.C,D3*%
X111900000Y-114165000D03*
X111900000Y-111365000D03*
%TD*%
%TO.C,D5*%
X150000000Y-114165000D03*
X150000000Y-111365000D03*
%TD*%
%TO.C,D13*%
X130950000Y-152265000D03*
X130950000Y-149465000D03*
%TD*%
D22*
%TO.C,R4*%
X80530000Y-112462500D03*
X80530000Y-114287500D03*
%TD*%
%TO.C,R8*%
X137680000Y-74362500D03*
X137680000Y-76187500D03*
%TD*%
%TO.C,R5*%
X99580000Y-112462500D03*
X99580000Y-114287500D03*
%TD*%
D23*
%TO.C,J1*%
X78215000Y-37735000D03*
X78215000Y-44735000D03*
D29*
X74965000Y-42335000D03*
X74965000Y-46335000D03*
X74965000Y-39335000D03*
X81465000Y-47435000D03*
%TD*%
D22*
%TO.C,R14*%
X99580000Y-150562500D03*
X99580000Y-152387500D03*
%TD*%
%TO.C,R15*%
X118630000Y-150562500D03*
X118630000Y-152387500D03*
%TD*%
D23*
%TO.C,R1*%
X74985000Y-61575000D03*
D24*
X74985000Y-51415000D03*
%TD*%
%LPD*%
M02*
