%TF.GenerationSoftware,KiCad,Pcbnew,8.0.3*%
%TF.CreationDate,2024-07-24T13:04:13+02:00*%
%TF.ProjectId,numerical,6e756d65-7269-4636-916c-2e6b69636164,rev?*%
%TF.SameCoordinates,Original*%
%TF.FileFunction,Soldermask,Bot*%
%TF.FilePolarity,Negative*%
%FSLAX46Y46*%
G04 Gerber Fmt 4.6, Leading zero omitted, Abs format (unit mm)*
G04 Created by KiCad (PCBNEW 8.0.3) date 2024-07-24 13:04:13*
%MOMM*%
%LPD*%
G01*
G04 APERTURE LIST*
G04 Aperture macros list*
%AMRoundRect*
0 Rectangle with rounded corners*
0 $1 Rounding radius*
0 $2 $3 $4 $5 $6 $7 $8 $9 X,Y pos of 4 corners*
0 Add a 4 corners polygon primitive as box body*
4,1,4,$2,$3,$4,$5,$6,$7,$8,$9,$2,$3,0*
0 Add four circle primitives for the rounded corners*
1,1,$1+$1,$2,$3*
1,1,$1+$1,$4,$5*
1,1,$1+$1,$6,$7*
1,1,$1+$1,$8,$9*
0 Add four rect primitives between the rounded corners*
20,1,$1+$1,$2,$3,$4,$5,0*
20,1,$1+$1,$4,$5,$6,$7,0*
20,1,$1+$1,$6,$7,$8,$9,0*
20,1,$1+$1,$8,$9,$2,$3,0*%
G04 Aperture macros list end*
%ADD10C,1.701800*%
%ADD11C,3.000000*%
%ADD12C,3.987800*%
%ADD13RoundRect,0.200000X-1.075000X-1.050000X1.075000X-1.050000X1.075000X1.050000X-1.075000X1.050000X0*%
%ADD14C,3.048000*%
%ADD15R,1.905000X1.905000*%
%ADD16C,1.905000*%
%ADD17C,2.200000*%
%ADD18R,1.200000X1.200000*%
%ADD19RoundRect,0.237500X-0.237500X0.250000X-0.237500X-0.250000X0.237500X-0.250000X0.237500X0.250000X0*%
%ADD20C,1.600000*%
%ADD21O,1.600000X1.600000*%
%ADD22O,1.700000X1.700000*%
%ADD23R,3.500000X1.700000*%
%ADD24R,1.700000X1.700000*%
%ADD25R,1.700000X3.500000*%
%ADD26R,2.500000X1.200000*%
G04 APERTURE END LIST*
D10*
%TO.C,S7*%
X81720000Y-127075000D03*
D11*
X82990000Y-124535000D03*
D12*
X86800000Y-127075000D03*
D11*
X89340000Y-121995000D03*
D10*
X91880000Y-127075000D03*
D13*
X79715000Y-124535000D03*
X92642000Y-121995000D03*
%TD*%
D12*
%TO.C,S10*%
X135695000Y-124662000D03*
X135695000Y-148538000D03*
D10*
X138870000Y-136600000D03*
D11*
X140140000Y-134060000D03*
D12*
X143950000Y-136600000D03*
D11*
X146490000Y-131520000D03*
D10*
X149030000Y-136600000D03*
D14*
X150935000Y-124662000D03*
X150935000Y-148538000D03*
D13*
X136865000Y-134060000D03*
X149792000Y-131520000D03*
%TD*%
D10*
%TO.C,S23*%
X119820000Y-184225000D03*
D11*
X121090000Y-181685000D03*
D12*
X124900000Y-184225000D03*
D11*
X127440000Y-179145000D03*
D10*
X129980000Y-184225000D03*
D13*
X117815000Y-181685000D03*
X130742000Y-179145000D03*
%TD*%
D10*
%TO.C,S14*%
X119820000Y-146125000D03*
D11*
X121090000Y-143585000D03*
D12*
X124900000Y-146125000D03*
D11*
X127440000Y-141045000D03*
D10*
X129980000Y-146125000D03*
D13*
X117815000Y-143585000D03*
X130742000Y-141045000D03*
%TD*%
D15*
%TO.C,LED11*%
X85530000Y-151205000D03*
D16*
X88070000Y-151205000D03*
%TD*%
D15*
%TO.C,LED6*%
X142680000Y-75005000D03*
D16*
X145220000Y-75005000D03*
%TD*%
D15*
%TO.C,LED9*%
X142680000Y-141680000D03*
D16*
X145220000Y-141680000D03*
%TD*%
D10*
%TO.C,S3*%
X100770000Y-108025000D03*
D11*
X102040000Y-105485000D03*
D12*
X105850000Y-108025000D03*
D11*
X108390000Y-102945000D03*
D10*
X110930000Y-108025000D03*
D13*
X98765000Y-105485000D03*
X111692000Y-102945000D03*
%TD*%
D15*
%TO.C,LED4*%
X123630000Y-113105000D03*
D16*
X126170000Y-113105000D03*
%TD*%
D14*
%TO.C,S22*%
X84387000Y-177240000D03*
D12*
X84387000Y-192480000D03*
D10*
X91245000Y-184225000D03*
D11*
X92515000Y-181685000D03*
D12*
X96325000Y-184225000D03*
D11*
X98865000Y-179145000D03*
D10*
X101405000Y-184225000D03*
D14*
X108263000Y-177240000D03*
D12*
X108263000Y-192480000D03*
D13*
X89240000Y-181685000D03*
X102167000Y-179145000D03*
%TD*%
D10*
%TO.C,S2*%
X81720000Y-108025000D03*
D11*
X82990000Y-105485000D03*
D12*
X86800000Y-108025000D03*
D11*
X89340000Y-102945000D03*
D10*
X91880000Y-108025000D03*
D13*
X79715000Y-105485000D03*
X92642000Y-102945000D03*
%TD*%
D17*
%TO.C,REF\u002A\u002A*%
X156015000Y-199585000D03*
%TD*%
D10*
%TO.C,S5*%
X138870000Y-108025000D03*
D11*
X140140000Y-105485000D03*
D12*
X143950000Y-108025000D03*
D11*
X146490000Y-102945000D03*
D10*
X149030000Y-108025000D03*
D13*
X136865000Y-105485000D03*
X149792000Y-102945000D03*
%TD*%
D10*
%TO.C,S8*%
X100770000Y-127075000D03*
D11*
X102040000Y-124535000D03*
D12*
X105850000Y-127075000D03*
D11*
X108390000Y-121995000D03*
D10*
X110930000Y-127075000D03*
D13*
X98765000Y-124535000D03*
X111692000Y-121995000D03*
%TD*%
D10*
%TO.C,S1*%
X138870000Y-69925000D03*
D11*
X140140000Y-67385000D03*
D12*
X143950000Y-69925000D03*
D11*
X146490000Y-64845000D03*
D10*
X149030000Y-69925000D03*
D13*
X136865000Y-67385000D03*
X149792000Y-64845000D03*
%TD*%
D10*
%TO.C,S18*%
X100770000Y-165175000D03*
D11*
X102040000Y-162635000D03*
D12*
X105850000Y-165175000D03*
D11*
X108390000Y-160095000D03*
D10*
X110930000Y-165175000D03*
D13*
X98765000Y-162635000D03*
X111692000Y-160095000D03*
%TD*%
D17*
%TO.C,REF\u002A\u002A*%
X75015000Y-68585000D03*
%TD*%
D15*
%TO.C,LED7*%
X104580000Y-132155000D03*
D16*
X107120000Y-132155000D03*
%TD*%
D15*
%TO.C,LED17*%
X104580000Y-170255000D03*
D16*
X107120000Y-170255000D03*
%TD*%
D10*
%TO.C,S19*%
X119820000Y-165175000D03*
D11*
X121090000Y-162635000D03*
D12*
X124900000Y-165175000D03*
D11*
X127440000Y-160095000D03*
D10*
X129980000Y-165175000D03*
D13*
X117815000Y-162635000D03*
X130742000Y-160095000D03*
%TD*%
D15*
%TO.C,LED5*%
X142680000Y-113105000D03*
D16*
X145220000Y-113105000D03*
%TD*%
D15*
%TO.C,LED3*%
X104580000Y-113105000D03*
D16*
X107120000Y-113105000D03*
%TD*%
D15*
%TO.C,LED12*%
X104580000Y-151205000D03*
D16*
X107120000Y-151205000D03*
%TD*%
D17*
%TO.C,REF\u002A\u002A*%
X75015000Y-199585000D03*
%TD*%
D15*
%TO.C,LED1*%
X85530000Y-132155000D03*
D16*
X88070000Y-132155000D03*
%TD*%
D17*
%TO.C,REF\u002A\u002A*%
X144015000Y-123585000D03*
%TD*%
D15*
%TO.C,LED8*%
X123630000Y-132155000D03*
D16*
X126170000Y-132155000D03*
%TD*%
D12*
%TO.C,S24*%
X135695000Y-162762000D03*
X135695000Y-186638000D03*
D10*
X138870000Y-174700000D03*
D11*
X140140000Y-172160000D03*
D12*
X143950000Y-174700000D03*
D11*
X146490000Y-169620000D03*
D10*
X149030000Y-174700000D03*
D14*
X150935000Y-162762000D03*
X150935000Y-186638000D03*
D13*
X136865000Y-172160000D03*
X149792000Y-169620000D03*
%TD*%
D15*
%TO.C,LED2*%
X85530000Y-113105000D03*
D16*
X88070000Y-113105000D03*
%TD*%
D10*
%TO.C,S17*%
X81720000Y-165175000D03*
D11*
X82990000Y-162635000D03*
D12*
X86800000Y-165175000D03*
D11*
X89340000Y-160095000D03*
D10*
X91880000Y-165175000D03*
D13*
X79715000Y-162635000D03*
X92642000Y-160095000D03*
%TD*%
D15*
%TO.C,LED16*%
X85530000Y-170255000D03*
D16*
X88070000Y-170255000D03*
%TD*%
D15*
%TO.C,LED18*%
X123630000Y-170255000D03*
D16*
X126170000Y-170255000D03*
%TD*%
D10*
%TO.C,S12*%
X81720000Y-146125000D03*
D11*
X82990000Y-143585000D03*
D12*
X86800000Y-146125000D03*
D11*
X89340000Y-141045000D03*
D10*
X91880000Y-146125000D03*
D13*
X79715000Y-143585000D03*
X92642000Y-141045000D03*
%TD*%
D15*
%TO.C,LED22*%
X123630000Y-189305000D03*
D16*
X126170000Y-189305000D03*
%TD*%
D10*
%TO.C,S9*%
X119820000Y-127075000D03*
D11*
X121090000Y-124535000D03*
D12*
X124900000Y-127075000D03*
D11*
X127440000Y-121995000D03*
D10*
X129980000Y-127075000D03*
D13*
X117815000Y-124535000D03*
X130742000Y-121995000D03*
%TD*%
D10*
%TO.C,S13*%
X100770000Y-146125000D03*
D11*
X102040000Y-143585000D03*
D12*
X105850000Y-146125000D03*
D11*
X108390000Y-141045000D03*
D10*
X110930000Y-146125000D03*
D13*
X98765000Y-143585000D03*
X111692000Y-141045000D03*
%TD*%
D17*
%TO.C,REF\u002A\u002A*%
X156015000Y-39585000D03*
%TD*%
D10*
%TO.C,S4*%
X119820000Y-108025000D03*
D11*
X121090000Y-105485000D03*
D12*
X124900000Y-108025000D03*
D11*
X127440000Y-102945000D03*
D10*
X129980000Y-108025000D03*
D13*
X117815000Y-105485000D03*
X130742000Y-102945000D03*
%TD*%
D15*
%TO.C,LED23*%
X142680000Y-179780000D03*
D16*
X145220000Y-179780000D03*
%TD*%
D15*
%TO.C,LED21*%
X95055000Y-189305000D03*
D16*
X97595000Y-189305000D03*
%TD*%
D15*
%TO.C,LED13*%
X123630000Y-151205000D03*
D16*
X126170000Y-151205000D03*
%TD*%
D18*
%TO.C,D12*%
X111900000Y-152265000D03*
X111900000Y-149465000D03*
%TD*%
%TO.C,D21*%
X102375000Y-190365000D03*
X102375000Y-187565000D03*
%TD*%
D19*
%TO.C,R3*%
X80530000Y-131512500D03*
X80530000Y-133337500D03*
%TD*%
D18*
%TO.C,D16*%
X92850000Y-171315000D03*
X92850000Y-168515000D03*
%TD*%
D20*
%TO.C,R2*%
X81525000Y-61475000D03*
D21*
X81525000Y-51315000D03*
%TD*%
D18*
%TO.C,D4*%
X130950000Y-114165000D03*
X130950000Y-111365000D03*
%TD*%
D19*
%TO.C,R18*%
X80530000Y-169612500D03*
X80530000Y-171437500D03*
%TD*%
D18*
%TO.C,D1*%
X92850000Y-133215000D03*
X92850000Y-130415000D03*
%TD*%
D19*
%TO.C,R11*%
X137680000Y-141037500D03*
X137680000Y-142862500D03*
%TD*%
%TO.C,R6*%
X118630000Y-112462500D03*
X118630000Y-114287500D03*
%TD*%
D18*
%TO.C,D9*%
X150000000Y-142740000D03*
X150000000Y-139940000D03*
%TD*%
%TO.C,D11*%
X92850000Y-152265000D03*
X92850000Y-149465000D03*
%TD*%
%TO.C,D7*%
X111900000Y-133215000D03*
X111900000Y-130415000D03*
%TD*%
D19*
%TO.C,R19*%
X99580000Y-169612500D03*
X99580000Y-171437500D03*
%TD*%
%TO.C,R9*%
X99580000Y-131512500D03*
X99580000Y-133337500D03*
%TD*%
%TO.C,R23*%
X90055000Y-188662500D03*
X90055000Y-190487500D03*
%TD*%
D18*
%TO.C,D2*%
X92850000Y-114165000D03*
X92850000Y-111365000D03*
%TD*%
D19*
%TO.C,R24*%
X118630000Y-188662500D03*
X118630000Y-190487500D03*
%TD*%
D18*
%TO.C,D18*%
X130950000Y-171315000D03*
X130950000Y-168515000D03*
%TD*%
D19*
%TO.C,R20*%
X118630000Y-169612500D03*
X118630000Y-171437500D03*
%TD*%
D18*
%TO.C,D23*%
X150000000Y-180840000D03*
X150000000Y-178040000D03*
%TD*%
D19*
%TO.C,R10*%
X118630000Y-131512500D03*
X118630000Y-133337500D03*
%TD*%
D22*
%TO.C,U1*%
X107995000Y-43485000D03*
D23*
X108895000Y-43485000D03*
D22*
X107995000Y-46025000D03*
D23*
X108895000Y-46025000D03*
D24*
X107995000Y-48565000D03*
D23*
X108895000Y-48565000D03*
D22*
X107995000Y-51105000D03*
D23*
X108895000Y-51105000D03*
D22*
X107995000Y-53645000D03*
D23*
X108895000Y-53645000D03*
D22*
X107995000Y-56185000D03*
D23*
X108895000Y-56185000D03*
D22*
X107995000Y-58725000D03*
D23*
X108895000Y-58725000D03*
D24*
X107995000Y-61265000D03*
D23*
X108895000Y-61265000D03*
D22*
X107995000Y-63805000D03*
D23*
X108895000Y-63805000D03*
D22*
X107995000Y-66345000D03*
D23*
X108895000Y-66345000D03*
D22*
X107995000Y-68885000D03*
D23*
X108895000Y-68885000D03*
D22*
X107995000Y-71425000D03*
D23*
X108895000Y-71425000D03*
D24*
X107995000Y-73965000D03*
D23*
X108895000Y-73965000D03*
D22*
X107995000Y-76505000D03*
D23*
X108895000Y-76505000D03*
D22*
X107995000Y-79045000D03*
D23*
X108895000Y-79045000D03*
D22*
X107995000Y-81585000D03*
D23*
X108895000Y-81585000D03*
D22*
X107995000Y-84125000D03*
D23*
X108895000Y-84125000D03*
D24*
X107995000Y-86665000D03*
D23*
X108895000Y-86665000D03*
D22*
X107995000Y-89205000D03*
D23*
X108895000Y-89205000D03*
D22*
X107995000Y-91745000D03*
D23*
X108895000Y-91745000D03*
D22*
X90215000Y-91745000D03*
D23*
X89315000Y-91745000D03*
D22*
X90215000Y-89205000D03*
D23*
X89315000Y-89205000D03*
D24*
X90215000Y-86665000D03*
D23*
X89315000Y-86665000D03*
D22*
X90215000Y-84125000D03*
D23*
X89315000Y-84125000D03*
D22*
X90215000Y-81585000D03*
D23*
X89315000Y-81585000D03*
D22*
X90215000Y-79045000D03*
D23*
X89315000Y-79045000D03*
D22*
X90215000Y-76505000D03*
D23*
X89315000Y-76505000D03*
D24*
X90215000Y-73965000D03*
D23*
X89315000Y-73965000D03*
D22*
X90215000Y-71425000D03*
D23*
X89315000Y-71425000D03*
D22*
X90215000Y-68885000D03*
D23*
X89315000Y-68885000D03*
D22*
X90215000Y-66345000D03*
D23*
X89315000Y-66345000D03*
D22*
X90215000Y-63805000D03*
D23*
X89315000Y-63805000D03*
D24*
X90215000Y-61265000D03*
D23*
X89315000Y-61265000D03*
D22*
X90215000Y-58725000D03*
D23*
X89315000Y-58725000D03*
D22*
X90215000Y-56185000D03*
D23*
X89315000Y-56185000D03*
D22*
X90215000Y-53645000D03*
D23*
X89315000Y-53645000D03*
D22*
X90215000Y-51105000D03*
D23*
X89315000Y-51105000D03*
D24*
X90215000Y-48565000D03*
D23*
X89315000Y-48565000D03*
D22*
X90215000Y-46025000D03*
D23*
X89315000Y-46025000D03*
D22*
X90215000Y-43485000D03*
D23*
X89315000Y-43485000D03*
D22*
X101645000Y-91515000D03*
D25*
X101645000Y-92415000D03*
D24*
X99105000Y-91515000D03*
D25*
X99105000Y-92415000D03*
D22*
X96565000Y-91515000D03*
D25*
X96565000Y-92415000D03*
%TD*%
D18*
%TO.C,D22*%
X130950000Y-190365000D03*
X130950000Y-187565000D03*
%TD*%
%TO.C,D17*%
X111900000Y-171315000D03*
X111900000Y-168515000D03*
%TD*%
%TO.C,D8*%
X130950000Y-133215000D03*
X130950000Y-130415000D03*
%TD*%
D19*
%TO.C,R25*%
X137680000Y-179137500D03*
X137680000Y-180962500D03*
%TD*%
%TO.C,R7*%
X137680000Y-112462500D03*
X137680000Y-114287500D03*
%TD*%
%TO.C,R13*%
X80530000Y-150562500D03*
X80530000Y-152387500D03*
%TD*%
D18*
%TO.C,D3*%
X111900000Y-114165000D03*
X111900000Y-111365000D03*
%TD*%
%TO.C,D5*%
X150000000Y-114165000D03*
X150000000Y-111365000D03*
%TD*%
%TO.C,D13*%
X130950000Y-152265000D03*
X130950000Y-149465000D03*
%TD*%
D19*
%TO.C,R4*%
X80530000Y-112462500D03*
X80530000Y-114287500D03*
%TD*%
%TO.C,R8*%
X137680000Y-74362500D03*
X137680000Y-76187500D03*
%TD*%
%TO.C,R5*%
X99580000Y-112462500D03*
X99580000Y-114287500D03*
%TD*%
D20*
%TO.C,J1*%
X78215000Y-37735000D03*
X78215000Y-44735000D03*
D26*
X74965000Y-42335000D03*
X74965000Y-46335000D03*
X74965000Y-39335000D03*
X81465000Y-47435000D03*
%TD*%
D19*
%TO.C,R14*%
X99580000Y-150562500D03*
X99580000Y-152387500D03*
%TD*%
%TO.C,R15*%
X118630000Y-150562500D03*
X118630000Y-152387500D03*
%TD*%
D20*
%TO.C,R1*%
X74985000Y-61575000D03*
D21*
X74985000Y-51415000D03*
%TD*%
M02*
