M48
; DRILL file {KiCad 8.0.3} date 2024-07-24T13:05:14+0200
; FORMAT={-:-/ absolute / metric / decimal}
; #@! TF.CreationDate,2024-07-24T13:05:14+02:00
; #@! TF.GenerationSoftware,Kicad,Pcbnew,8.0.3
; #@! TF.FileFunction,Plated,1,2,PTH
FMAT,2
METRIC
; #@! TA.AperFunction,Plated,PTH,ViaDrill
T1C0.300
; #@! TA.AperFunction,Plated,PTH,ViaDrill
T2C0.450
; #@! TA.AperFunction,Plated,PTH,ComponentDrill
T3C0.800
; #@! TA.AperFunction,Plated,PTH,ComponentDrill
T4C1.020
; #@! TA.AperFunction,Plated,PTH,ComponentDrill
T5C1.360
%
G90
G05
T1
X74.985Y-49.6
X84.95Y-46.6
X86.95Y-94.6
X94.95Y-116.6
X94.95Y-135.6
X94.95Y-154.6
X94.95Y-173.6
X95.95Y-117.6
X95.95Y-136.6
X95.95Y-155.6
X95.95Y-174.6
X96.95Y-115.6
X96.95Y-116.6
X96.95Y-134.6
X96.95Y-135.6
X96.95Y-153.6
X96.95Y-154.6
X96.95Y-172.6
X96.95Y-173.6
X97.95Y-192.6
X99.95Y-117.6
X99.95Y-136.6
X99.95Y-155.6
X99.95Y-174.6
X106.95Y-116.6
X106.95Y-135.6
X106.95Y-154.6
X106.95Y-173.6
X111.95Y-39.6
X111.95Y-115.6
X111.95Y-134.6
X111.95Y-153.6
X111.95Y-172.6
X112.95Y-191.6
X117.95Y-136.6
X118.95Y-117.6
X118.95Y-155.6
X118.95Y-174.6
X121.45Y-85.1
X125.95Y-116.6
X125.95Y-135.6
X125.95Y-154.6
X125.95Y-173.6
X130.95Y-115.6
X130.95Y-134.6
X130.95Y-153.6
X130.95Y-172.6
X130.95Y-191.6
X136.95Y-117.6
X138.95Y-150.6
X138.95Y-154.6
X139.95Y-184.6
X143.95Y-116.6
X143.95Y-149.6
X143.95Y-191.6
X144.95Y-145.6
X146.45Y-85.1
X149.95Y-115.6
X149.95Y-144.6
X149.95Y-182.6
X154.95Y-148.6
T2
X83.95Y-44.6
X89.95Y-193.6
X118.95Y-193.6
T3
X74.985Y-51.415
X74.985Y-61.575
X81.525Y-51.315
X81.525Y-61.475
T4
X90.215Y-43.485
X90.215Y-46.025
X90.215Y-48.565
X90.215Y-51.105
X90.215Y-53.645
X90.215Y-56.185
X90.215Y-58.725
X90.215Y-61.265
X90.215Y-63.805
X90.215Y-66.345
X90.215Y-68.885
X90.215Y-71.425
X90.215Y-73.965
X90.215Y-76.505
X90.215Y-79.045
X90.215Y-81.585
X90.215Y-84.125
X90.215Y-86.665
X90.215Y-89.205
X90.215Y-91.745
X96.565Y-91.515
X99.105Y-91.515
X101.645Y-91.515
X107.995Y-43.485
X107.995Y-46.025
X107.995Y-48.565
X107.995Y-51.105
X107.995Y-53.645
X107.995Y-56.185
X107.995Y-58.725
X107.995Y-61.265
X107.995Y-63.805
X107.995Y-66.345
X107.995Y-68.885
X107.995Y-71.425
X107.995Y-73.965
X107.995Y-76.505
X107.995Y-79.045
X107.995Y-81.585
X107.995Y-84.125
X107.995Y-86.665
X107.995Y-89.205
X107.995Y-91.745
T5
X85.53Y-113.105
X85.53Y-132.155
X85.53Y-151.205
X85.53Y-170.255
X88.07Y-113.105
X88.07Y-132.155
X88.07Y-151.205
X88.07Y-170.255
X95.055Y-189.305
X97.595Y-189.305
X104.58Y-113.105
X104.58Y-132.155
X104.58Y-151.205
X104.58Y-170.255
X107.12Y-113.105
X107.12Y-132.155
X107.12Y-151.205
X107.12Y-170.255
X123.63Y-113.105
X123.63Y-132.155
X123.63Y-151.205
X123.63Y-170.255
X123.63Y-189.305
X126.17Y-113.105
X126.17Y-132.155
X126.17Y-151.205
X126.17Y-170.255
X126.17Y-189.305
X142.68Y-75.005
X142.68Y-113.105
X142.68Y-141.68
X142.68Y-179.78
X145.22Y-75.005
X145.22Y-113.105
X145.22Y-141.68
X145.22Y-179.78
M30
