%TF.GenerationSoftware,KiCad,Pcbnew,8.0.3*%
%TF.CreationDate,2024-07-24T13:05:15+02:00*%
%TF.ProjectId,numerical,6e756d65-7269-4636-916c-2e6b69636164,rev?*%
%TF.SameCoordinates,Original*%
%TF.FileFunction,Drillmap*%
%TF.FilePolarity,Positive*%
%FSLAX45Y45*%
G04 Gerber Fmt 4.5, Leading zero omitted, Abs format (unit mm)*
G04 Created by KiCad (PCBNEW 8.0.3) date 2024-07-24 13:05:15*
%MOMM*%
%LPD*%
G01*
G04 APERTURE LIST*
%ADD10C,0.050000*%
%ADD11C,0.200000*%
%ADD12C,0.100000*%
%ADD13C,0.102000*%
%ADD14C,0.136000*%
G04 APERTURE END LIST*
D10*
X7101500Y-3558500D02*
X15961500Y-3558500D01*
X15961500Y-20348500D01*
X7101500Y-20348500D01*
X7101500Y-3558500D01*
D11*
D12*
X7483500Y-4945000D02*
X7513500Y-4975000D01*
X7513500Y-4945000D02*
X7483500Y-4975000D01*
X8480000Y-4645000D02*
X8510000Y-4675000D01*
X8510000Y-4645000D02*
X8480000Y-4675000D01*
X8680000Y-9445000D02*
X8710000Y-9475000D01*
X8710000Y-9445000D02*
X8680000Y-9475000D01*
X9480000Y-11645000D02*
X9510000Y-11675000D01*
X9510000Y-11645000D02*
X9480000Y-11675000D01*
X9480000Y-13545000D02*
X9510000Y-13575000D01*
X9510000Y-13545000D02*
X9480000Y-13575000D01*
X9480000Y-15445000D02*
X9510000Y-15475000D01*
X9510000Y-15445000D02*
X9480000Y-15475000D01*
X9480000Y-17345000D02*
X9510000Y-17375000D01*
X9510000Y-17345000D02*
X9480000Y-17375000D01*
X9580000Y-11745000D02*
X9610000Y-11775000D01*
X9610000Y-11745000D02*
X9580000Y-11775000D01*
X9580000Y-13645000D02*
X9610000Y-13675000D01*
X9610000Y-13645000D02*
X9580000Y-13675000D01*
X9580000Y-15545000D02*
X9610000Y-15575000D01*
X9610000Y-15545000D02*
X9580000Y-15575000D01*
X9580000Y-17445000D02*
X9610000Y-17475000D01*
X9610000Y-17445000D02*
X9580000Y-17475000D01*
X9680000Y-11545000D02*
X9710000Y-11575000D01*
X9710000Y-11545000D02*
X9680000Y-11575000D01*
X9680000Y-11645000D02*
X9710000Y-11675000D01*
X9710000Y-11645000D02*
X9680000Y-11675000D01*
X9680000Y-13445000D02*
X9710000Y-13475000D01*
X9710000Y-13445000D02*
X9680000Y-13475000D01*
X9680000Y-13545000D02*
X9710000Y-13575000D01*
X9710000Y-13545000D02*
X9680000Y-13575000D01*
X9680000Y-15345000D02*
X9710000Y-15375000D01*
X9710000Y-15345000D02*
X9680000Y-15375000D01*
X9680000Y-15445000D02*
X9710000Y-15475000D01*
X9710000Y-15445000D02*
X9680000Y-15475000D01*
X9680000Y-17245000D02*
X9710000Y-17275000D01*
X9710000Y-17245000D02*
X9680000Y-17275000D01*
X9680000Y-17345000D02*
X9710000Y-17375000D01*
X9710000Y-17345000D02*
X9680000Y-17375000D01*
X9780000Y-19245000D02*
X9810000Y-19275000D01*
X9810000Y-19245000D02*
X9780000Y-19275000D01*
X9980000Y-11745000D02*
X10010000Y-11775000D01*
X10010000Y-11745000D02*
X9980000Y-11775000D01*
X9980000Y-13645000D02*
X10010000Y-13675000D01*
X10010000Y-13645000D02*
X9980000Y-13675000D01*
X9980000Y-15545000D02*
X10010000Y-15575000D01*
X10010000Y-15545000D02*
X9980000Y-15575000D01*
X9980000Y-17445000D02*
X10010000Y-17475000D01*
X10010000Y-17445000D02*
X9980000Y-17475000D01*
X10680000Y-11645000D02*
X10710000Y-11675000D01*
X10710000Y-11645000D02*
X10680000Y-11675000D01*
X10680000Y-13545000D02*
X10710000Y-13575000D01*
X10710000Y-13545000D02*
X10680000Y-13575000D01*
X10680000Y-15445000D02*
X10710000Y-15475000D01*
X10710000Y-15445000D02*
X10680000Y-15475000D01*
X10680000Y-17345000D02*
X10710000Y-17375000D01*
X10710000Y-17345000D02*
X10680000Y-17375000D01*
X11180000Y-3945000D02*
X11210000Y-3975000D01*
X11210000Y-3945000D02*
X11180000Y-3975000D01*
X11180000Y-11545000D02*
X11210000Y-11575000D01*
X11210000Y-11545000D02*
X11180000Y-11575000D01*
X11180000Y-13445000D02*
X11210000Y-13475000D01*
X11210000Y-13445000D02*
X11180000Y-13475000D01*
X11180000Y-15345000D02*
X11210000Y-15375000D01*
X11210000Y-15345000D02*
X11180000Y-15375000D01*
X11180000Y-17245000D02*
X11210000Y-17275000D01*
X11210000Y-17245000D02*
X11180000Y-17275000D01*
X11280000Y-19145000D02*
X11310000Y-19175000D01*
X11310000Y-19145000D02*
X11280000Y-19175000D01*
X11780000Y-13645000D02*
X11810000Y-13675000D01*
X11810000Y-13645000D02*
X11780000Y-13675000D01*
X11880000Y-11745000D02*
X11910000Y-11775000D01*
X11910000Y-11745000D02*
X11880000Y-11775000D01*
X11880000Y-15545000D02*
X11910000Y-15575000D01*
X11910000Y-15545000D02*
X11880000Y-15575000D01*
X11880000Y-17445000D02*
X11910000Y-17475000D01*
X11910000Y-17445000D02*
X11880000Y-17475000D01*
X12130000Y-8495000D02*
X12160000Y-8525000D01*
X12160000Y-8495000D02*
X12130000Y-8525000D01*
X12580000Y-11645000D02*
X12610000Y-11675000D01*
X12610000Y-11645000D02*
X12580000Y-11675000D01*
X12580000Y-13545000D02*
X12610000Y-13575000D01*
X12610000Y-13545000D02*
X12580000Y-13575000D01*
X12580000Y-15445000D02*
X12610000Y-15475000D01*
X12610000Y-15445000D02*
X12580000Y-15475000D01*
X12580000Y-17345000D02*
X12610000Y-17375000D01*
X12610000Y-17345000D02*
X12580000Y-17375000D01*
X13080000Y-11545000D02*
X13110000Y-11575000D01*
X13110000Y-11545000D02*
X13080000Y-11575000D01*
X13080000Y-13445000D02*
X13110000Y-13475000D01*
X13110000Y-13445000D02*
X13080000Y-13475000D01*
X13080000Y-15345000D02*
X13110000Y-15375000D01*
X13110000Y-15345000D02*
X13080000Y-15375000D01*
X13080000Y-17245000D02*
X13110000Y-17275000D01*
X13110000Y-17245000D02*
X13080000Y-17275000D01*
X13080000Y-19145000D02*
X13110000Y-19175000D01*
X13110000Y-19145000D02*
X13080000Y-19175000D01*
X13680000Y-11745000D02*
X13710000Y-11775000D01*
X13710000Y-11745000D02*
X13680000Y-11775000D01*
X13880000Y-15045000D02*
X13910000Y-15075000D01*
X13910000Y-15045000D02*
X13880000Y-15075000D01*
X13880000Y-15445000D02*
X13910000Y-15475000D01*
X13910000Y-15445000D02*
X13880000Y-15475000D01*
X13980000Y-18445000D02*
X14010000Y-18475000D01*
X14010000Y-18445000D02*
X13980000Y-18475000D01*
X14380000Y-11645000D02*
X14410000Y-11675000D01*
X14410000Y-11645000D02*
X14380000Y-11675000D01*
X14380000Y-14945000D02*
X14410000Y-14975000D01*
X14410000Y-14945000D02*
X14380000Y-14975000D01*
X14380000Y-19145000D02*
X14410000Y-19175000D01*
X14410000Y-19145000D02*
X14380000Y-19175000D01*
X14480000Y-14545000D02*
X14510000Y-14575000D01*
X14510000Y-14545000D02*
X14480000Y-14575000D01*
X14630000Y-8495000D02*
X14660000Y-8525000D01*
X14660000Y-8495000D02*
X14630000Y-8525000D01*
X14980000Y-11545000D02*
X15010000Y-11575000D01*
X15010000Y-11545000D02*
X14980000Y-11575000D01*
X14980000Y-14445000D02*
X15010000Y-14475000D01*
X15010000Y-14445000D02*
X14980000Y-14475000D01*
X14980000Y-18245000D02*
X15010000Y-18275000D01*
X15010000Y-18245000D02*
X14980000Y-18275000D01*
X15480000Y-14845000D02*
X15510000Y-14875000D01*
X15510000Y-14845000D02*
X15480000Y-14875000D01*
X8417500Y-4460000D02*
G75*
G02*
X8372500Y-4460000I-22500J0D01*
G01*
X8372500Y-4460000D02*
G75*
G02*
X8417500Y-4460000I22500J0D01*
G01*
X9017500Y-19360000D02*
G75*
G02*
X8972500Y-19360000I-22500J0D01*
G01*
X8972500Y-19360000D02*
G75*
G02*
X9017500Y-19360000I22500J0D01*
G01*
X11917500Y-19360000D02*
G75*
G02*
X11872500Y-19360000I-22500J0D01*
G01*
X11872500Y-19360000D02*
G75*
G02*
X11917500Y-19360000I22500J0D01*
G01*
X7498500Y-5101500D02*
X7498500Y-5181500D01*
X7458500Y-5141500D02*
X7538500Y-5141500D01*
X7498500Y-6117500D02*
X7498500Y-6197500D01*
X7458500Y-6157500D02*
X7538500Y-6157500D01*
X8152500Y-5091500D02*
X8152500Y-5171500D01*
X8112500Y-5131500D02*
X8192500Y-5131500D01*
X8152500Y-6107500D02*
X8152500Y-6187500D01*
X8112500Y-6147500D02*
X8192500Y-6147500D01*
D13*
X9057563Y-4384563D02*
X9057563Y-4312437D01*
X8985437Y-4312437D01*
X8985437Y-4384563D01*
X9057563Y-4384563D01*
X9057563Y-4638563D02*
X9057563Y-4566437D01*
X8985437Y-4566437D01*
X8985437Y-4638563D01*
X9057563Y-4638563D01*
X9057563Y-4892563D02*
X9057563Y-4820437D01*
X8985437Y-4820437D01*
X8985437Y-4892563D01*
X9057563Y-4892563D01*
X9057563Y-5146563D02*
X9057563Y-5074437D01*
X8985437Y-5074437D01*
X8985437Y-5146563D01*
X9057563Y-5146563D01*
X9057563Y-5400563D02*
X9057563Y-5328437D01*
X8985437Y-5328437D01*
X8985437Y-5400563D01*
X9057563Y-5400563D01*
X9057563Y-5654563D02*
X9057563Y-5582437D01*
X8985437Y-5582437D01*
X8985437Y-5654563D01*
X9057563Y-5654563D01*
X9057563Y-5908563D02*
X9057563Y-5836437D01*
X8985437Y-5836437D01*
X8985437Y-5908563D01*
X9057563Y-5908563D01*
X9057563Y-6162563D02*
X9057563Y-6090437D01*
X8985437Y-6090437D01*
X8985437Y-6162563D01*
X9057563Y-6162563D01*
X9057563Y-6416563D02*
X9057563Y-6344437D01*
X8985437Y-6344437D01*
X8985437Y-6416563D01*
X9057563Y-6416563D01*
X9057563Y-6670563D02*
X9057563Y-6598437D01*
X8985437Y-6598437D01*
X8985437Y-6670563D01*
X9057563Y-6670563D01*
X9057563Y-6924563D02*
X9057563Y-6852437D01*
X8985437Y-6852437D01*
X8985437Y-6924563D01*
X9057563Y-6924563D01*
X9057563Y-7178563D02*
X9057563Y-7106437D01*
X8985437Y-7106437D01*
X8985437Y-7178563D01*
X9057563Y-7178563D01*
X9057563Y-7432563D02*
X9057563Y-7360437D01*
X8985437Y-7360437D01*
X8985437Y-7432563D01*
X9057563Y-7432563D01*
X9057563Y-7686563D02*
X9057563Y-7614437D01*
X8985437Y-7614437D01*
X8985437Y-7686563D01*
X9057563Y-7686563D01*
X9057563Y-7940563D02*
X9057563Y-7868437D01*
X8985437Y-7868437D01*
X8985437Y-7940563D01*
X9057563Y-7940563D01*
X9057563Y-8194563D02*
X9057563Y-8122437D01*
X8985437Y-8122437D01*
X8985437Y-8194563D01*
X9057563Y-8194563D01*
X9057563Y-8448563D02*
X9057563Y-8376437D01*
X8985437Y-8376437D01*
X8985437Y-8448563D01*
X9057563Y-8448563D01*
X9057563Y-8702563D02*
X9057563Y-8630437D01*
X8985437Y-8630437D01*
X8985437Y-8702563D01*
X9057563Y-8702563D01*
X9057563Y-8956563D02*
X9057563Y-8884437D01*
X8985437Y-8884437D01*
X8985437Y-8956563D01*
X9057563Y-8956563D01*
X9057563Y-9210563D02*
X9057563Y-9138437D01*
X8985437Y-9138437D01*
X8985437Y-9210563D01*
X9057563Y-9210563D01*
X9692563Y-9187563D02*
X9692563Y-9115437D01*
X9620437Y-9115437D01*
X9620437Y-9187563D01*
X9692563Y-9187563D01*
X9946563Y-9187563D02*
X9946563Y-9115437D01*
X9874437Y-9115437D01*
X9874437Y-9187563D01*
X9946563Y-9187563D01*
X10200563Y-9187563D02*
X10200563Y-9115437D01*
X10128437Y-9115437D01*
X10128437Y-9187563D01*
X10200563Y-9187563D01*
X10835563Y-4384563D02*
X10835563Y-4312437D01*
X10763437Y-4312437D01*
X10763437Y-4384563D01*
X10835563Y-4384563D01*
X10835563Y-4638563D02*
X10835563Y-4566437D01*
X10763437Y-4566437D01*
X10763437Y-4638563D01*
X10835563Y-4638563D01*
X10835563Y-4892563D02*
X10835563Y-4820437D01*
X10763437Y-4820437D01*
X10763437Y-4892563D01*
X10835563Y-4892563D01*
X10835563Y-5146563D02*
X10835563Y-5074437D01*
X10763437Y-5074437D01*
X10763437Y-5146563D01*
X10835563Y-5146563D01*
X10835563Y-5400563D02*
X10835563Y-5328437D01*
X10763437Y-5328437D01*
X10763437Y-5400563D01*
X10835563Y-5400563D01*
X10835563Y-5654563D02*
X10835563Y-5582437D01*
X10763437Y-5582437D01*
X10763437Y-5654563D01*
X10835563Y-5654563D01*
X10835563Y-5908563D02*
X10835563Y-5836437D01*
X10763437Y-5836437D01*
X10763437Y-5908563D01*
X10835563Y-5908563D01*
X10835563Y-6162563D02*
X10835563Y-6090437D01*
X10763437Y-6090437D01*
X10763437Y-6162563D01*
X10835563Y-6162563D01*
X10835563Y-6416563D02*
X10835563Y-6344437D01*
X10763437Y-6344437D01*
X10763437Y-6416563D01*
X10835563Y-6416563D01*
X10835563Y-6670563D02*
X10835563Y-6598437D01*
X10763437Y-6598437D01*
X10763437Y-6670563D01*
X10835563Y-6670563D01*
X10835563Y-6924563D02*
X10835563Y-6852437D01*
X10763437Y-6852437D01*
X10763437Y-6924563D01*
X10835563Y-6924563D01*
X10835563Y-7178563D02*
X10835563Y-7106437D01*
X10763437Y-7106437D01*
X10763437Y-7178563D01*
X10835563Y-7178563D01*
X10835563Y-7432563D02*
X10835563Y-7360437D01*
X10763437Y-7360437D01*
X10763437Y-7432563D01*
X10835563Y-7432563D01*
X10835563Y-7686563D02*
X10835563Y-7614437D01*
X10763437Y-7614437D01*
X10763437Y-7686563D01*
X10835563Y-7686563D01*
X10835563Y-7940563D02*
X10835563Y-7868437D01*
X10763437Y-7868437D01*
X10763437Y-7940563D01*
X10835563Y-7940563D01*
X10835563Y-8194563D02*
X10835563Y-8122437D01*
X10763437Y-8122437D01*
X10763437Y-8194563D01*
X10835563Y-8194563D01*
X10835563Y-8448563D02*
X10835563Y-8376437D01*
X10763437Y-8376437D01*
X10763437Y-8448563D01*
X10835563Y-8448563D01*
X10835563Y-8702563D02*
X10835563Y-8630437D01*
X10763437Y-8630437D01*
X10763437Y-8702563D01*
X10835563Y-8702563D01*
X10835563Y-8956563D02*
X10835563Y-8884437D01*
X10763437Y-8884437D01*
X10763437Y-8956563D01*
X10835563Y-8956563D01*
X10835563Y-9210563D02*
X10835563Y-9138437D01*
X10763437Y-9138437D01*
X10763437Y-9210563D01*
X10835563Y-9210563D01*
D14*
X8553000Y-11378500D02*
X8621000Y-11310500D01*
X8553000Y-11242500D01*
X8485000Y-11310500D01*
X8553000Y-11378500D01*
X8553000Y-13283500D02*
X8621000Y-13215500D01*
X8553000Y-13147500D01*
X8485000Y-13215500D01*
X8553000Y-13283500D01*
X8553000Y-15188500D02*
X8621000Y-15120500D01*
X8553000Y-15052500D01*
X8485000Y-15120500D01*
X8553000Y-15188500D01*
X8553000Y-17093500D02*
X8621000Y-17025500D01*
X8553000Y-16957500D01*
X8485000Y-17025500D01*
X8553000Y-17093500D01*
X8807000Y-11378500D02*
X8875000Y-11310500D01*
X8807000Y-11242500D01*
X8739000Y-11310500D01*
X8807000Y-11378500D01*
X8807000Y-13283500D02*
X8875000Y-13215500D01*
X8807000Y-13147500D01*
X8739000Y-13215500D01*
X8807000Y-13283500D01*
X8807000Y-15188500D02*
X8875000Y-15120500D01*
X8807000Y-15052500D01*
X8739000Y-15120500D01*
X8807000Y-15188500D01*
X8807000Y-17093500D02*
X8875000Y-17025500D01*
X8807000Y-16957500D01*
X8739000Y-17025500D01*
X8807000Y-17093500D01*
X9505500Y-18998500D02*
X9573500Y-18930500D01*
X9505500Y-18862500D01*
X9437500Y-18930500D01*
X9505500Y-18998500D01*
X9759500Y-18998500D02*
X9827500Y-18930500D01*
X9759500Y-18862500D01*
X9691500Y-18930500D01*
X9759500Y-18998500D01*
X10458000Y-11378500D02*
X10526000Y-11310500D01*
X10458000Y-11242500D01*
X10390000Y-11310500D01*
X10458000Y-11378500D01*
X10458000Y-13283500D02*
X10526000Y-13215500D01*
X10458000Y-13147500D01*
X10390000Y-13215500D01*
X10458000Y-13283500D01*
X10458000Y-15188500D02*
X10526000Y-15120500D01*
X10458000Y-15052500D01*
X10390000Y-15120500D01*
X10458000Y-15188500D01*
X10458000Y-17093500D02*
X10526000Y-17025500D01*
X10458000Y-16957500D01*
X10390000Y-17025500D01*
X10458000Y-17093500D01*
X10712000Y-11378500D02*
X10780000Y-11310500D01*
X10712000Y-11242500D01*
X10644000Y-11310500D01*
X10712000Y-11378500D01*
X10712000Y-13283500D02*
X10780000Y-13215500D01*
X10712000Y-13147500D01*
X10644000Y-13215500D01*
X10712000Y-13283500D01*
X10712000Y-15188500D02*
X10780000Y-15120500D01*
X10712000Y-15052500D01*
X10644000Y-15120500D01*
X10712000Y-15188500D01*
X10712000Y-17093500D02*
X10780000Y-17025500D01*
X10712000Y-16957500D01*
X10644000Y-17025500D01*
X10712000Y-17093500D01*
X12363000Y-11378500D02*
X12431000Y-11310500D01*
X12363000Y-11242500D01*
X12295000Y-11310500D01*
X12363000Y-11378500D01*
X12363000Y-13283500D02*
X12431000Y-13215500D01*
X12363000Y-13147500D01*
X12295000Y-13215500D01*
X12363000Y-13283500D01*
X12363000Y-15188500D02*
X12431000Y-15120500D01*
X12363000Y-15052500D01*
X12295000Y-15120500D01*
X12363000Y-15188500D01*
X12363000Y-17093500D02*
X12431000Y-17025500D01*
X12363000Y-16957500D01*
X12295000Y-17025500D01*
X12363000Y-17093500D01*
X12363000Y-18998500D02*
X12431000Y-18930500D01*
X12363000Y-18862500D01*
X12295000Y-18930500D01*
X12363000Y-18998500D01*
X12617000Y-11378500D02*
X12685000Y-11310500D01*
X12617000Y-11242500D01*
X12549000Y-11310500D01*
X12617000Y-11378500D01*
X12617000Y-13283500D02*
X12685000Y-13215500D01*
X12617000Y-13147500D01*
X12549000Y-13215500D01*
X12617000Y-13283500D01*
X12617000Y-15188500D02*
X12685000Y-15120500D01*
X12617000Y-15052500D01*
X12549000Y-15120500D01*
X12617000Y-15188500D01*
X12617000Y-17093500D02*
X12685000Y-17025500D01*
X12617000Y-16957500D01*
X12549000Y-17025500D01*
X12617000Y-17093500D01*
X12617000Y-18998500D02*
X12685000Y-18930500D01*
X12617000Y-18862500D01*
X12549000Y-18930500D01*
X12617000Y-18998500D01*
X14268000Y-7568500D02*
X14336000Y-7500500D01*
X14268000Y-7432500D01*
X14200000Y-7500500D01*
X14268000Y-7568500D01*
X14268000Y-11378500D02*
X14336000Y-11310500D01*
X14268000Y-11242500D01*
X14200000Y-11310500D01*
X14268000Y-11378500D01*
X14268000Y-14236000D02*
X14336000Y-14168000D01*
X14268000Y-14100000D01*
X14200000Y-14168000D01*
X14268000Y-14236000D01*
X14268000Y-18046000D02*
X14336000Y-17978000D01*
X14268000Y-17910000D01*
X14200000Y-17978000D01*
X14268000Y-18046000D01*
X14522000Y-7568500D02*
X14590000Y-7500500D01*
X14522000Y-7432500D01*
X14454000Y-7500500D01*
X14522000Y-7568500D01*
X14522000Y-11378500D02*
X14590000Y-11310500D01*
X14522000Y-11242500D01*
X14454000Y-11310500D01*
X14522000Y-11378500D01*
X14522000Y-14236000D02*
X14590000Y-14168000D01*
X14522000Y-14100000D01*
X14454000Y-14168000D01*
X14522000Y-14236000D01*
X14522000Y-18046000D02*
X14590000Y-17978000D01*
X14522000Y-17910000D01*
X14454000Y-17978000D01*
X14522000Y-18046000D01*
D11*
X7359777Y-20662484D02*
X7359777Y-20462484D01*
X7359777Y-20462484D02*
X7407396Y-20462484D01*
X7407396Y-20462484D02*
X7435967Y-20472008D01*
X7435967Y-20472008D02*
X7455015Y-20491055D01*
X7455015Y-20491055D02*
X7464539Y-20510103D01*
X7464539Y-20510103D02*
X7474062Y-20548198D01*
X7474062Y-20548198D02*
X7474062Y-20576770D01*
X7474062Y-20576770D02*
X7464539Y-20614865D01*
X7464539Y-20614865D02*
X7455015Y-20633912D01*
X7455015Y-20633912D02*
X7435967Y-20652960D01*
X7435967Y-20652960D02*
X7407396Y-20662484D01*
X7407396Y-20662484D02*
X7359777Y-20662484D01*
X7559777Y-20662484D02*
X7559777Y-20529150D01*
X7559777Y-20567246D02*
X7569301Y-20548198D01*
X7569301Y-20548198D02*
X7578824Y-20538674D01*
X7578824Y-20538674D02*
X7597872Y-20529150D01*
X7597872Y-20529150D02*
X7616920Y-20529150D01*
X7683586Y-20662484D02*
X7683586Y-20529150D01*
X7683586Y-20462484D02*
X7674062Y-20472008D01*
X7674062Y-20472008D02*
X7683586Y-20481531D01*
X7683586Y-20481531D02*
X7693110Y-20472008D01*
X7693110Y-20472008D02*
X7683586Y-20462484D01*
X7683586Y-20462484D02*
X7683586Y-20481531D01*
X7807396Y-20662484D02*
X7788348Y-20652960D01*
X7788348Y-20652960D02*
X7778824Y-20633912D01*
X7778824Y-20633912D02*
X7778824Y-20462484D01*
X7912158Y-20662484D02*
X7893110Y-20652960D01*
X7893110Y-20652960D02*
X7883586Y-20633912D01*
X7883586Y-20633912D02*
X7883586Y-20462484D01*
X8140729Y-20662484D02*
X8140729Y-20462484D01*
X8140729Y-20462484D02*
X8207396Y-20605341D01*
X8207396Y-20605341D02*
X8274062Y-20462484D01*
X8274062Y-20462484D02*
X8274062Y-20662484D01*
X8455015Y-20662484D02*
X8455015Y-20557722D01*
X8455015Y-20557722D02*
X8445491Y-20538674D01*
X8445491Y-20538674D02*
X8426444Y-20529150D01*
X8426444Y-20529150D02*
X8388348Y-20529150D01*
X8388348Y-20529150D02*
X8369301Y-20538674D01*
X8455015Y-20652960D02*
X8435967Y-20662484D01*
X8435967Y-20662484D02*
X8388348Y-20662484D01*
X8388348Y-20662484D02*
X8369301Y-20652960D01*
X8369301Y-20652960D02*
X8359777Y-20633912D01*
X8359777Y-20633912D02*
X8359777Y-20614865D01*
X8359777Y-20614865D02*
X8369301Y-20595817D01*
X8369301Y-20595817D02*
X8388348Y-20586293D01*
X8388348Y-20586293D02*
X8435967Y-20586293D01*
X8435967Y-20586293D02*
X8455015Y-20576770D01*
X8550253Y-20529150D02*
X8550253Y-20729150D01*
X8550253Y-20538674D02*
X8569301Y-20529150D01*
X8569301Y-20529150D02*
X8607396Y-20529150D01*
X8607396Y-20529150D02*
X8626444Y-20538674D01*
X8626444Y-20538674D02*
X8635967Y-20548198D01*
X8635967Y-20548198D02*
X8645491Y-20567246D01*
X8645491Y-20567246D02*
X8645491Y-20624389D01*
X8645491Y-20624389D02*
X8635967Y-20643436D01*
X8635967Y-20643436D02*
X8626444Y-20652960D01*
X8626444Y-20652960D02*
X8607396Y-20662484D01*
X8607396Y-20662484D02*
X8569301Y-20662484D01*
X8569301Y-20662484D02*
X8550253Y-20652960D01*
X8731205Y-20643436D02*
X8740729Y-20652960D01*
X8740729Y-20652960D02*
X8731205Y-20662484D01*
X8731205Y-20662484D02*
X8721682Y-20652960D01*
X8721682Y-20652960D02*
X8731205Y-20643436D01*
X8731205Y-20643436D02*
X8731205Y-20662484D01*
X8731205Y-20538674D02*
X8740729Y-20548198D01*
X8740729Y-20548198D02*
X8731205Y-20557722D01*
X8731205Y-20557722D02*
X8721682Y-20548198D01*
X8721682Y-20548198D02*
X8731205Y-20538674D01*
X8731205Y-20538674D02*
X8731205Y-20557722D01*
D12*
X7069000Y-20976000D02*
X7099000Y-21006000D01*
X7099000Y-20976000D02*
X7069000Y-21006000D01*
D11*
X7397872Y-20882484D02*
X7416920Y-20882484D01*
X7416920Y-20882484D02*
X7435967Y-20892008D01*
X7435967Y-20892008D02*
X7445491Y-20901531D01*
X7445491Y-20901531D02*
X7455015Y-20920579D01*
X7455015Y-20920579D02*
X7464539Y-20958674D01*
X7464539Y-20958674D02*
X7464539Y-21006293D01*
X7464539Y-21006293D02*
X7455015Y-21044389D01*
X7455015Y-21044389D02*
X7445491Y-21063436D01*
X7445491Y-21063436D02*
X7435967Y-21072960D01*
X7435967Y-21072960D02*
X7416920Y-21082484D01*
X7416920Y-21082484D02*
X7397872Y-21082484D01*
X7397872Y-21082484D02*
X7378824Y-21072960D01*
X7378824Y-21072960D02*
X7369301Y-21063436D01*
X7369301Y-21063436D02*
X7359777Y-21044389D01*
X7359777Y-21044389D02*
X7350253Y-21006293D01*
X7350253Y-21006293D02*
X7350253Y-20958674D01*
X7350253Y-20958674D02*
X7359777Y-20920579D01*
X7359777Y-20920579D02*
X7369301Y-20901531D01*
X7369301Y-20901531D02*
X7378824Y-20892008D01*
X7378824Y-20892008D02*
X7397872Y-20882484D01*
X7550253Y-21063436D02*
X7559777Y-21072960D01*
X7559777Y-21072960D02*
X7550253Y-21082484D01*
X7550253Y-21082484D02*
X7540729Y-21072960D01*
X7540729Y-21072960D02*
X7550253Y-21063436D01*
X7550253Y-21063436D02*
X7550253Y-21082484D01*
X7626443Y-20882484D02*
X7750253Y-20882484D01*
X7750253Y-20882484D02*
X7683586Y-20958674D01*
X7683586Y-20958674D02*
X7712158Y-20958674D01*
X7712158Y-20958674D02*
X7731205Y-20968198D01*
X7731205Y-20968198D02*
X7740729Y-20977722D01*
X7740729Y-20977722D02*
X7750253Y-20996770D01*
X7750253Y-20996770D02*
X7750253Y-21044389D01*
X7750253Y-21044389D02*
X7740729Y-21063436D01*
X7740729Y-21063436D02*
X7731205Y-21072960D01*
X7731205Y-21072960D02*
X7712158Y-21082484D01*
X7712158Y-21082484D02*
X7655015Y-21082484D01*
X7655015Y-21082484D02*
X7635967Y-21072960D01*
X7635967Y-21072960D02*
X7626443Y-21063436D01*
X7874062Y-20882484D02*
X7893110Y-20882484D01*
X7893110Y-20882484D02*
X7912158Y-20892008D01*
X7912158Y-20892008D02*
X7921682Y-20901531D01*
X7921682Y-20901531D02*
X7931205Y-20920579D01*
X7931205Y-20920579D02*
X7940729Y-20958674D01*
X7940729Y-20958674D02*
X7940729Y-21006293D01*
X7940729Y-21006293D02*
X7931205Y-21044389D01*
X7931205Y-21044389D02*
X7921682Y-21063436D01*
X7921682Y-21063436D02*
X7912158Y-21072960D01*
X7912158Y-21072960D02*
X7893110Y-21082484D01*
X7893110Y-21082484D02*
X7874062Y-21082484D01*
X7874062Y-21082484D02*
X7855015Y-21072960D01*
X7855015Y-21072960D02*
X7845491Y-21063436D01*
X7845491Y-21063436D02*
X7835967Y-21044389D01*
X7835967Y-21044389D02*
X7826443Y-21006293D01*
X7826443Y-21006293D02*
X7826443Y-20958674D01*
X7826443Y-20958674D02*
X7835967Y-20920579D01*
X7835967Y-20920579D02*
X7845491Y-20901531D01*
X7845491Y-20901531D02*
X7855015Y-20892008D01*
X7855015Y-20892008D02*
X7874062Y-20882484D01*
X8064539Y-20882484D02*
X8083586Y-20882484D01*
X8083586Y-20882484D02*
X8102634Y-20892008D01*
X8102634Y-20892008D02*
X8112158Y-20901531D01*
X8112158Y-20901531D02*
X8121682Y-20920579D01*
X8121682Y-20920579D02*
X8131205Y-20958674D01*
X8131205Y-20958674D02*
X8131205Y-21006293D01*
X8131205Y-21006293D02*
X8121682Y-21044389D01*
X8121682Y-21044389D02*
X8112158Y-21063436D01*
X8112158Y-21063436D02*
X8102634Y-21072960D01*
X8102634Y-21072960D02*
X8083586Y-21082484D01*
X8083586Y-21082484D02*
X8064539Y-21082484D01*
X8064539Y-21082484D02*
X8045491Y-21072960D01*
X8045491Y-21072960D02*
X8035967Y-21063436D01*
X8035967Y-21063436D02*
X8026443Y-21044389D01*
X8026443Y-21044389D02*
X8016920Y-21006293D01*
X8016920Y-21006293D02*
X8016920Y-20958674D01*
X8016920Y-20958674D02*
X8026443Y-20920579D01*
X8026443Y-20920579D02*
X8035967Y-20901531D01*
X8035967Y-20901531D02*
X8045491Y-20892008D01*
X8045491Y-20892008D02*
X8064539Y-20882484D01*
X8216920Y-21082484D02*
X8216920Y-20949150D01*
X8216920Y-20968198D02*
X8226443Y-20958674D01*
X8226443Y-20958674D02*
X8245491Y-20949150D01*
X8245491Y-20949150D02*
X8274063Y-20949150D01*
X8274063Y-20949150D02*
X8293110Y-20958674D01*
X8293110Y-20958674D02*
X8302634Y-20977722D01*
X8302634Y-20977722D02*
X8302634Y-21082484D01*
X8302634Y-20977722D02*
X8312158Y-20958674D01*
X8312158Y-20958674D02*
X8331205Y-20949150D01*
X8331205Y-20949150D02*
X8359777Y-20949150D01*
X8359777Y-20949150D02*
X8378824Y-20958674D01*
X8378824Y-20958674D02*
X8388348Y-20977722D01*
X8388348Y-20977722D02*
X8388348Y-21082484D01*
X8483586Y-21082484D02*
X8483586Y-20949150D01*
X8483586Y-20968198D02*
X8493110Y-20958674D01*
X8493110Y-20958674D02*
X8512158Y-20949150D01*
X8512158Y-20949150D02*
X8540729Y-20949150D01*
X8540729Y-20949150D02*
X8559777Y-20958674D01*
X8559777Y-20958674D02*
X8569301Y-20977722D01*
X8569301Y-20977722D02*
X8569301Y-21082484D01*
X8569301Y-20977722D02*
X8578825Y-20958674D01*
X8578825Y-20958674D02*
X8597872Y-20949150D01*
X8597872Y-20949150D02*
X8626444Y-20949150D01*
X8626444Y-20949150D02*
X8645491Y-20958674D01*
X8645491Y-20958674D02*
X8655015Y-20977722D01*
X8655015Y-20977722D02*
X8655015Y-21082484D01*
X9045491Y-20872960D02*
X8874063Y-21130103D01*
X9302634Y-20882484D02*
X9321682Y-20882484D01*
X9321682Y-20882484D02*
X9340729Y-20892008D01*
X9340729Y-20892008D02*
X9350253Y-20901531D01*
X9350253Y-20901531D02*
X9359777Y-20920579D01*
X9359777Y-20920579D02*
X9369301Y-20958674D01*
X9369301Y-20958674D02*
X9369301Y-21006293D01*
X9369301Y-21006293D02*
X9359777Y-21044389D01*
X9359777Y-21044389D02*
X9350253Y-21063436D01*
X9350253Y-21063436D02*
X9340729Y-21072960D01*
X9340729Y-21072960D02*
X9321682Y-21082484D01*
X9321682Y-21082484D02*
X9302634Y-21082484D01*
X9302634Y-21082484D02*
X9283587Y-21072960D01*
X9283587Y-21072960D02*
X9274063Y-21063436D01*
X9274063Y-21063436D02*
X9264539Y-21044389D01*
X9264539Y-21044389D02*
X9255015Y-21006293D01*
X9255015Y-21006293D02*
X9255015Y-20958674D01*
X9255015Y-20958674D02*
X9264539Y-20920579D01*
X9264539Y-20920579D02*
X9274063Y-20901531D01*
X9274063Y-20901531D02*
X9283587Y-20892008D01*
X9283587Y-20892008D02*
X9302634Y-20882484D01*
X9455015Y-21063436D02*
X9464539Y-21072960D01*
X9464539Y-21072960D02*
X9455015Y-21082484D01*
X9455015Y-21082484D02*
X9445491Y-21072960D01*
X9445491Y-21072960D02*
X9455015Y-21063436D01*
X9455015Y-21063436D02*
X9455015Y-21082484D01*
X9588348Y-20882484D02*
X9607396Y-20882484D01*
X9607396Y-20882484D02*
X9626444Y-20892008D01*
X9626444Y-20892008D02*
X9635968Y-20901531D01*
X9635968Y-20901531D02*
X9645491Y-20920579D01*
X9645491Y-20920579D02*
X9655015Y-20958674D01*
X9655015Y-20958674D02*
X9655015Y-21006293D01*
X9655015Y-21006293D02*
X9645491Y-21044389D01*
X9645491Y-21044389D02*
X9635968Y-21063436D01*
X9635968Y-21063436D02*
X9626444Y-21072960D01*
X9626444Y-21072960D02*
X9607396Y-21082484D01*
X9607396Y-21082484D02*
X9588348Y-21082484D01*
X9588348Y-21082484D02*
X9569301Y-21072960D01*
X9569301Y-21072960D02*
X9559777Y-21063436D01*
X9559777Y-21063436D02*
X9550253Y-21044389D01*
X9550253Y-21044389D02*
X9540729Y-21006293D01*
X9540729Y-21006293D02*
X9540729Y-20958674D01*
X9540729Y-20958674D02*
X9550253Y-20920579D01*
X9550253Y-20920579D02*
X9559777Y-20901531D01*
X9559777Y-20901531D02*
X9569301Y-20892008D01*
X9569301Y-20892008D02*
X9588348Y-20882484D01*
X9845491Y-21082484D02*
X9731206Y-21082484D01*
X9788348Y-21082484D02*
X9788348Y-20882484D01*
X9788348Y-20882484D02*
X9769301Y-20911055D01*
X9769301Y-20911055D02*
X9750253Y-20930103D01*
X9750253Y-20930103D02*
X9731206Y-20939627D01*
X10035968Y-21082484D02*
X9921682Y-21082484D01*
X9978825Y-21082484D02*
X9978825Y-20882484D01*
X9978825Y-20882484D02*
X9959777Y-20911055D01*
X9959777Y-20911055D02*
X9940729Y-20930103D01*
X9940729Y-20930103D02*
X9921682Y-20939627D01*
X10150253Y-20968198D02*
X10131206Y-20958674D01*
X10131206Y-20958674D02*
X10121682Y-20949150D01*
X10121682Y-20949150D02*
X10112158Y-20930103D01*
X10112158Y-20930103D02*
X10112158Y-20920579D01*
X10112158Y-20920579D02*
X10121682Y-20901531D01*
X10121682Y-20901531D02*
X10131206Y-20892008D01*
X10131206Y-20892008D02*
X10150253Y-20882484D01*
X10150253Y-20882484D02*
X10188349Y-20882484D01*
X10188349Y-20882484D02*
X10207396Y-20892008D01*
X10207396Y-20892008D02*
X10216920Y-20901531D01*
X10216920Y-20901531D02*
X10226444Y-20920579D01*
X10226444Y-20920579D02*
X10226444Y-20930103D01*
X10226444Y-20930103D02*
X10216920Y-20949150D01*
X10216920Y-20949150D02*
X10207396Y-20958674D01*
X10207396Y-20958674D02*
X10188349Y-20968198D01*
X10188349Y-20968198D02*
X10150253Y-20968198D01*
X10150253Y-20968198D02*
X10131206Y-20977722D01*
X10131206Y-20977722D02*
X10121682Y-20987246D01*
X10121682Y-20987246D02*
X10112158Y-21006293D01*
X10112158Y-21006293D02*
X10112158Y-21044389D01*
X10112158Y-21044389D02*
X10121682Y-21063436D01*
X10121682Y-21063436D02*
X10131206Y-21072960D01*
X10131206Y-21072960D02*
X10150253Y-21082484D01*
X10150253Y-21082484D02*
X10188349Y-21082484D01*
X10188349Y-21082484D02*
X10207396Y-21072960D01*
X10207396Y-21072960D02*
X10216920Y-21063436D01*
X10216920Y-21063436D02*
X10226444Y-21044389D01*
X10226444Y-21044389D02*
X10226444Y-21006293D01*
X10226444Y-21006293D02*
X10216920Y-20987246D01*
X10216920Y-20987246D02*
X10207396Y-20977722D01*
X10207396Y-20977722D02*
X10188349Y-20968198D01*
X10302634Y-20882484D02*
X10302634Y-20920579D01*
X10378825Y-20882484D02*
X10378825Y-20920579D01*
X10674063Y-21158674D02*
X10664539Y-21149150D01*
X10664539Y-21149150D02*
X10645491Y-21120579D01*
X10645491Y-21120579D02*
X10635968Y-21101531D01*
X10635968Y-21101531D02*
X10626444Y-21072960D01*
X10626444Y-21072960D02*
X10616920Y-21025341D01*
X10616920Y-21025341D02*
X10616920Y-20987246D01*
X10616920Y-20987246D02*
X10626444Y-20939627D01*
X10626444Y-20939627D02*
X10635968Y-20911055D01*
X10635968Y-20911055D02*
X10645491Y-20892008D01*
X10645491Y-20892008D02*
X10664539Y-20863436D01*
X10664539Y-20863436D02*
X10674063Y-20853912D01*
X10835968Y-20882484D02*
X10797872Y-20882484D01*
X10797872Y-20882484D02*
X10778825Y-20892008D01*
X10778825Y-20892008D02*
X10769301Y-20901531D01*
X10769301Y-20901531D02*
X10750253Y-20930103D01*
X10750253Y-20930103D02*
X10740730Y-20968198D01*
X10740730Y-20968198D02*
X10740730Y-21044389D01*
X10740730Y-21044389D02*
X10750253Y-21063436D01*
X10750253Y-21063436D02*
X10759777Y-21072960D01*
X10759777Y-21072960D02*
X10778825Y-21082484D01*
X10778825Y-21082484D02*
X10816920Y-21082484D01*
X10816920Y-21082484D02*
X10835968Y-21072960D01*
X10835968Y-21072960D02*
X10845491Y-21063436D01*
X10845491Y-21063436D02*
X10855015Y-21044389D01*
X10855015Y-21044389D02*
X10855015Y-20996770D01*
X10855015Y-20996770D02*
X10845491Y-20977722D01*
X10845491Y-20977722D02*
X10835968Y-20968198D01*
X10835968Y-20968198D02*
X10816920Y-20958674D01*
X10816920Y-20958674D02*
X10778825Y-20958674D01*
X10778825Y-20958674D02*
X10759777Y-20968198D01*
X10759777Y-20968198D02*
X10750253Y-20977722D01*
X10750253Y-20977722D02*
X10740730Y-20996770D01*
X11045491Y-21082484D02*
X10931206Y-21082484D01*
X10988349Y-21082484D02*
X10988349Y-20882484D01*
X10988349Y-20882484D02*
X10969301Y-20911055D01*
X10969301Y-20911055D02*
X10950253Y-20930103D01*
X10950253Y-20930103D02*
X10931206Y-20939627D01*
X11283587Y-21082484D02*
X11283587Y-20882484D01*
X11369301Y-21082484D02*
X11369301Y-20977722D01*
X11369301Y-20977722D02*
X11359777Y-20958674D01*
X11359777Y-20958674D02*
X11340730Y-20949150D01*
X11340730Y-20949150D02*
X11312158Y-20949150D01*
X11312158Y-20949150D02*
X11293110Y-20958674D01*
X11293110Y-20958674D02*
X11283587Y-20968198D01*
X11493110Y-21082484D02*
X11474063Y-21072960D01*
X11474063Y-21072960D02*
X11464539Y-21063436D01*
X11464539Y-21063436D02*
X11455015Y-21044389D01*
X11455015Y-21044389D02*
X11455015Y-20987246D01*
X11455015Y-20987246D02*
X11464539Y-20968198D01*
X11464539Y-20968198D02*
X11474063Y-20958674D01*
X11474063Y-20958674D02*
X11493110Y-20949150D01*
X11493110Y-20949150D02*
X11521682Y-20949150D01*
X11521682Y-20949150D02*
X11540730Y-20958674D01*
X11540730Y-20958674D02*
X11550253Y-20968198D01*
X11550253Y-20968198D02*
X11559777Y-20987246D01*
X11559777Y-20987246D02*
X11559777Y-21044389D01*
X11559777Y-21044389D02*
X11550253Y-21063436D01*
X11550253Y-21063436D02*
X11540730Y-21072960D01*
X11540730Y-21072960D02*
X11521682Y-21082484D01*
X11521682Y-21082484D02*
X11493110Y-21082484D01*
X11674063Y-21082484D02*
X11655015Y-21072960D01*
X11655015Y-21072960D02*
X11645491Y-21053912D01*
X11645491Y-21053912D02*
X11645491Y-20882484D01*
X11826444Y-21072960D02*
X11807396Y-21082484D01*
X11807396Y-21082484D02*
X11769301Y-21082484D01*
X11769301Y-21082484D02*
X11750253Y-21072960D01*
X11750253Y-21072960D02*
X11740730Y-21053912D01*
X11740730Y-21053912D02*
X11740730Y-20977722D01*
X11740730Y-20977722D02*
X11750253Y-20958674D01*
X11750253Y-20958674D02*
X11769301Y-20949150D01*
X11769301Y-20949150D02*
X11807396Y-20949150D01*
X11807396Y-20949150D02*
X11826444Y-20958674D01*
X11826444Y-20958674D02*
X11835968Y-20977722D01*
X11835968Y-20977722D02*
X11835968Y-20996770D01*
X11835968Y-20996770D02*
X11740730Y-21015817D01*
X11912158Y-21072960D02*
X11931206Y-21082484D01*
X11931206Y-21082484D02*
X11969301Y-21082484D01*
X11969301Y-21082484D02*
X11988349Y-21072960D01*
X11988349Y-21072960D02*
X11997872Y-21053912D01*
X11997872Y-21053912D02*
X11997872Y-21044389D01*
X11997872Y-21044389D02*
X11988349Y-21025341D01*
X11988349Y-21025341D02*
X11969301Y-21015817D01*
X11969301Y-21015817D02*
X11940730Y-21015817D01*
X11940730Y-21015817D02*
X11921682Y-21006293D01*
X11921682Y-21006293D02*
X11912158Y-20987246D01*
X11912158Y-20987246D02*
X11912158Y-20977722D01*
X11912158Y-20977722D02*
X11921682Y-20958674D01*
X11921682Y-20958674D02*
X11940730Y-20949150D01*
X11940730Y-20949150D02*
X11969301Y-20949150D01*
X11969301Y-20949150D02*
X11988349Y-20958674D01*
X12064539Y-21158674D02*
X12074063Y-21149150D01*
X12074063Y-21149150D02*
X12093111Y-21120579D01*
X12093111Y-21120579D02*
X12102634Y-21101531D01*
X12102634Y-21101531D02*
X12112158Y-21072960D01*
X12112158Y-21072960D02*
X12121682Y-21025341D01*
X12121682Y-21025341D02*
X12121682Y-20987246D01*
X12121682Y-20987246D02*
X12112158Y-20939627D01*
X12112158Y-20939627D02*
X12102634Y-20911055D01*
X12102634Y-20911055D02*
X12093111Y-20892008D01*
X12093111Y-20892008D02*
X12074063Y-20863436D01*
X12074063Y-20863436D02*
X12064539Y-20853912D01*
D12*
X7099000Y-21255000D02*
G75*
G02*
X7054000Y-21255000I-22500J0D01*
G01*
X7054000Y-21255000D02*
G75*
G02*
X7099000Y-21255000I22500J0D01*
G01*
D11*
X7397872Y-21146484D02*
X7416920Y-21146484D01*
X7416920Y-21146484D02*
X7435967Y-21156008D01*
X7435967Y-21156008D02*
X7445491Y-21165531D01*
X7445491Y-21165531D02*
X7455015Y-21184579D01*
X7455015Y-21184579D02*
X7464539Y-21222674D01*
X7464539Y-21222674D02*
X7464539Y-21270293D01*
X7464539Y-21270293D02*
X7455015Y-21308389D01*
X7455015Y-21308389D02*
X7445491Y-21327436D01*
X7445491Y-21327436D02*
X7435967Y-21336960D01*
X7435967Y-21336960D02*
X7416920Y-21346484D01*
X7416920Y-21346484D02*
X7397872Y-21346484D01*
X7397872Y-21346484D02*
X7378824Y-21336960D01*
X7378824Y-21336960D02*
X7369301Y-21327436D01*
X7369301Y-21327436D02*
X7359777Y-21308389D01*
X7359777Y-21308389D02*
X7350253Y-21270293D01*
X7350253Y-21270293D02*
X7350253Y-21222674D01*
X7350253Y-21222674D02*
X7359777Y-21184579D01*
X7359777Y-21184579D02*
X7369301Y-21165531D01*
X7369301Y-21165531D02*
X7378824Y-21156008D01*
X7378824Y-21156008D02*
X7397872Y-21146484D01*
X7550253Y-21327436D02*
X7559777Y-21336960D01*
X7559777Y-21336960D02*
X7550253Y-21346484D01*
X7550253Y-21346484D02*
X7540729Y-21336960D01*
X7540729Y-21336960D02*
X7550253Y-21327436D01*
X7550253Y-21327436D02*
X7550253Y-21346484D01*
X7731205Y-21213150D02*
X7731205Y-21346484D01*
X7683586Y-21136960D02*
X7635967Y-21279817D01*
X7635967Y-21279817D02*
X7759777Y-21279817D01*
X7931205Y-21146484D02*
X7835967Y-21146484D01*
X7835967Y-21146484D02*
X7826443Y-21241722D01*
X7826443Y-21241722D02*
X7835967Y-21232198D01*
X7835967Y-21232198D02*
X7855015Y-21222674D01*
X7855015Y-21222674D02*
X7902634Y-21222674D01*
X7902634Y-21222674D02*
X7921682Y-21232198D01*
X7921682Y-21232198D02*
X7931205Y-21241722D01*
X7931205Y-21241722D02*
X7940729Y-21260770D01*
X7940729Y-21260770D02*
X7940729Y-21308389D01*
X7940729Y-21308389D02*
X7931205Y-21327436D01*
X7931205Y-21327436D02*
X7921682Y-21336960D01*
X7921682Y-21336960D02*
X7902634Y-21346484D01*
X7902634Y-21346484D02*
X7855015Y-21346484D01*
X7855015Y-21346484D02*
X7835967Y-21336960D01*
X7835967Y-21336960D02*
X7826443Y-21327436D01*
X8064539Y-21146484D02*
X8083586Y-21146484D01*
X8083586Y-21146484D02*
X8102634Y-21156008D01*
X8102634Y-21156008D02*
X8112158Y-21165531D01*
X8112158Y-21165531D02*
X8121682Y-21184579D01*
X8121682Y-21184579D02*
X8131205Y-21222674D01*
X8131205Y-21222674D02*
X8131205Y-21270293D01*
X8131205Y-21270293D02*
X8121682Y-21308389D01*
X8121682Y-21308389D02*
X8112158Y-21327436D01*
X8112158Y-21327436D02*
X8102634Y-21336960D01*
X8102634Y-21336960D02*
X8083586Y-21346484D01*
X8083586Y-21346484D02*
X8064539Y-21346484D01*
X8064539Y-21346484D02*
X8045491Y-21336960D01*
X8045491Y-21336960D02*
X8035967Y-21327436D01*
X8035967Y-21327436D02*
X8026443Y-21308389D01*
X8026443Y-21308389D02*
X8016920Y-21270293D01*
X8016920Y-21270293D02*
X8016920Y-21222674D01*
X8016920Y-21222674D02*
X8026443Y-21184579D01*
X8026443Y-21184579D02*
X8035967Y-21165531D01*
X8035967Y-21165531D02*
X8045491Y-21156008D01*
X8045491Y-21156008D02*
X8064539Y-21146484D01*
X8216920Y-21346484D02*
X8216920Y-21213150D01*
X8216920Y-21232198D02*
X8226443Y-21222674D01*
X8226443Y-21222674D02*
X8245491Y-21213150D01*
X8245491Y-21213150D02*
X8274063Y-21213150D01*
X8274063Y-21213150D02*
X8293110Y-21222674D01*
X8293110Y-21222674D02*
X8302634Y-21241722D01*
X8302634Y-21241722D02*
X8302634Y-21346484D01*
X8302634Y-21241722D02*
X8312158Y-21222674D01*
X8312158Y-21222674D02*
X8331205Y-21213150D01*
X8331205Y-21213150D02*
X8359777Y-21213150D01*
X8359777Y-21213150D02*
X8378824Y-21222674D01*
X8378824Y-21222674D02*
X8388348Y-21241722D01*
X8388348Y-21241722D02*
X8388348Y-21346484D01*
X8483586Y-21346484D02*
X8483586Y-21213150D01*
X8483586Y-21232198D02*
X8493110Y-21222674D01*
X8493110Y-21222674D02*
X8512158Y-21213150D01*
X8512158Y-21213150D02*
X8540729Y-21213150D01*
X8540729Y-21213150D02*
X8559777Y-21222674D01*
X8559777Y-21222674D02*
X8569301Y-21241722D01*
X8569301Y-21241722D02*
X8569301Y-21346484D01*
X8569301Y-21241722D02*
X8578825Y-21222674D01*
X8578825Y-21222674D02*
X8597872Y-21213150D01*
X8597872Y-21213150D02*
X8626444Y-21213150D01*
X8626444Y-21213150D02*
X8645491Y-21222674D01*
X8645491Y-21222674D02*
X8655015Y-21241722D01*
X8655015Y-21241722D02*
X8655015Y-21346484D01*
X9045491Y-21136960D02*
X8874063Y-21394103D01*
X9302634Y-21146484D02*
X9321682Y-21146484D01*
X9321682Y-21146484D02*
X9340729Y-21156008D01*
X9340729Y-21156008D02*
X9350253Y-21165531D01*
X9350253Y-21165531D02*
X9359777Y-21184579D01*
X9359777Y-21184579D02*
X9369301Y-21222674D01*
X9369301Y-21222674D02*
X9369301Y-21270293D01*
X9369301Y-21270293D02*
X9359777Y-21308389D01*
X9359777Y-21308389D02*
X9350253Y-21327436D01*
X9350253Y-21327436D02*
X9340729Y-21336960D01*
X9340729Y-21336960D02*
X9321682Y-21346484D01*
X9321682Y-21346484D02*
X9302634Y-21346484D01*
X9302634Y-21346484D02*
X9283587Y-21336960D01*
X9283587Y-21336960D02*
X9274063Y-21327436D01*
X9274063Y-21327436D02*
X9264539Y-21308389D01*
X9264539Y-21308389D02*
X9255015Y-21270293D01*
X9255015Y-21270293D02*
X9255015Y-21222674D01*
X9255015Y-21222674D02*
X9264539Y-21184579D01*
X9264539Y-21184579D02*
X9274063Y-21165531D01*
X9274063Y-21165531D02*
X9283587Y-21156008D01*
X9283587Y-21156008D02*
X9302634Y-21146484D01*
X9455015Y-21327436D02*
X9464539Y-21336960D01*
X9464539Y-21336960D02*
X9455015Y-21346484D01*
X9455015Y-21346484D02*
X9445491Y-21336960D01*
X9445491Y-21336960D02*
X9455015Y-21327436D01*
X9455015Y-21327436D02*
X9455015Y-21346484D01*
X9588348Y-21146484D02*
X9607396Y-21146484D01*
X9607396Y-21146484D02*
X9626444Y-21156008D01*
X9626444Y-21156008D02*
X9635968Y-21165531D01*
X9635968Y-21165531D02*
X9645491Y-21184579D01*
X9645491Y-21184579D02*
X9655015Y-21222674D01*
X9655015Y-21222674D02*
X9655015Y-21270293D01*
X9655015Y-21270293D02*
X9645491Y-21308389D01*
X9645491Y-21308389D02*
X9635968Y-21327436D01*
X9635968Y-21327436D02*
X9626444Y-21336960D01*
X9626444Y-21336960D02*
X9607396Y-21346484D01*
X9607396Y-21346484D02*
X9588348Y-21346484D01*
X9588348Y-21346484D02*
X9569301Y-21336960D01*
X9569301Y-21336960D02*
X9559777Y-21327436D01*
X9559777Y-21327436D02*
X9550253Y-21308389D01*
X9550253Y-21308389D02*
X9540729Y-21270293D01*
X9540729Y-21270293D02*
X9540729Y-21222674D01*
X9540729Y-21222674D02*
X9550253Y-21184579D01*
X9550253Y-21184579D02*
X9559777Y-21165531D01*
X9559777Y-21165531D02*
X9569301Y-21156008D01*
X9569301Y-21156008D02*
X9588348Y-21146484D01*
X9845491Y-21346484D02*
X9731206Y-21346484D01*
X9788348Y-21346484D02*
X9788348Y-21146484D01*
X9788348Y-21146484D02*
X9769301Y-21175055D01*
X9769301Y-21175055D02*
X9750253Y-21194103D01*
X9750253Y-21194103D02*
X9731206Y-21203627D01*
X9912158Y-21146484D02*
X10045491Y-21146484D01*
X10045491Y-21146484D02*
X9959777Y-21346484D01*
X10102634Y-21146484D02*
X10235968Y-21146484D01*
X10235968Y-21146484D02*
X10150253Y-21346484D01*
X10302634Y-21146484D02*
X10302634Y-21184579D01*
X10378825Y-21146484D02*
X10378825Y-21184579D01*
X10674063Y-21422674D02*
X10664539Y-21413150D01*
X10664539Y-21413150D02*
X10645491Y-21384579D01*
X10645491Y-21384579D02*
X10635968Y-21365531D01*
X10635968Y-21365531D02*
X10626444Y-21336960D01*
X10626444Y-21336960D02*
X10616920Y-21289341D01*
X10616920Y-21289341D02*
X10616920Y-21251246D01*
X10616920Y-21251246D02*
X10626444Y-21203627D01*
X10626444Y-21203627D02*
X10635968Y-21175055D01*
X10635968Y-21175055D02*
X10645491Y-21156008D01*
X10645491Y-21156008D02*
X10664539Y-21127436D01*
X10664539Y-21127436D02*
X10674063Y-21117912D01*
X10731206Y-21146484D02*
X10855015Y-21146484D01*
X10855015Y-21146484D02*
X10788349Y-21222674D01*
X10788349Y-21222674D02*
X10816920Y-21222674D01*
X10816920Y-21222674D02*
X10835968Y-21232198D01*
X10835968Y-21232198D02*
X10845491Y-21241722D01*
X10845491Y-21241722D02*
X10855015Y-21260770D01*
X10855015Y-21260770D02*
X10855015Y-21308389D01*
X10855015Y-21308389D02*
X10845491Y-21327436D01*
X10845491Y-21327436D02*
X10835968Y-21336960D01*
X10835968Y-21336960D02*
X10816920Y-21346484D01*
X10816920Y-21346484D02*
X10759777Y-21346484D01*
X10759777Y-21346484D02*
X10740730Y-21336960D01*
X10740730Y-21336960D02*
X10731206Y-21327436D01*
X11093111Y-21346484D02*
X11093111Y-21146484D01*
X11178825Y-21346484D02*
X11178825Y-21241722D01*
X11178825Y-21241722D02*
X11169301Y-21222674D01*
X11169301Y-21222674D02*
X11150253Y-21213150D01*
X11150253Y-21213150D02*
X11121682Y-21213150D01*
X11121682Y-21213150D02*
X11102634Y-21222674D01*
X11102634Y-21222674D02*
X11093111Y-21232198D01*
X11302634Y-21346484D02*
X11283587Y-21336960D01*
X11283587Y-21336960D02*
X11274063Y-21327436D01*
X11274063Y-21327436D02*
X11264539Y-21308389D01*
X11264539Y-21308389D02*
X11264539Y-21251246D01*
X11264539Y-21251246D02*
X11274063Y-21232198D01*
X11274063Y-21232198D02*
X11283587Y-21222674D01*
X11283587Y-21222674D02*
X11302634Y-21213150D01*
X11302634Y-21213150D02*
X11331206Y-21213150D01*
X11331206Y-21213150D02*
X11350253Y-21222674D01*
X11350253Y-21222674D02*
X11359777Y-21232198D01*
X11359777Y-21232198D02*
X11369301Y-21251246D01*
X11369301Y-21251246D02*
X11369301Y-21308389D01*
X11369301Y-21308389D02*
X11359777Y-21327436D01*
X11359777Y-21327436D02*
X11350253Y-21336960D01*
X11350253Y-21336960D02*
X11331206Y-21346484D01*
X11331206Y-21346484D02*
X11302634Y-21346484D01*
X11483587Y-21346484D02*
X11464539Y-21336960D01*
X11464539Y-21336960D02*
X11455015Y-21317912D01*
X11455015Y-21317912D02*
X11455015Y-21146484D01*
X11635968Y-21336960D02*
X11616920Y-21346484D01*
X11616920Y-21346484D02*
X11578825Y-21346484D01*
X11578825Y-21346484D02*
X11559777Y-21336960D01*
X11559777Y-21336960D02*
X11550253Y-21317912D01*
X11550253Y-21317912D02*
X11550253Y-21241722D01*
X11550253Y-21241722D02*
X11559777Y-21222674D01*
X11559777Y-21222674D02*
X11578825Y-21213150D01*
X11578825Y-21213150D02*
X11616920Y-21213150D01*
X11616920Y-21213150D02*
X11635968Y-21222674D01*
X11635968Y-21222674D02*
X11645491Y-21241722D01*
X11645491Y-21241722D02*
X11645491Y-21260770D01*
X11645491Y-21260770D02*
X11550253Y-21279817D01*
X11721682Y-21336960D02*
X11740730Y-21346484D01*
X11740730Y-21346484D02*
X11778825Y-21346484D01*
X11778825Y-21346484D02*
X11797872Y-21336960D01*
X11797872Y-21336960D02*
X11807396Y-21317912D01*
X11807396Y-21317912D02*
X11807396Y-21308389D01*
X11807396Y-21308389D02*
X11797872Y-21289341D01*
X11797872Y-21289341D02*
X11778825Y-21279817D01*
X11778825Y-21279817D02*
X11750253Y-21279817D01*
X11750253Y-21279817D02*
X11731206Y-21270293D01*
X11731206Y-21270293D02*
X11721682Y-21251246D01*
X11721682Y-21251246D02*
X11721682Y-21241722D01*
X11721682Y-21241722D02*
X11731206Y-21222674D01*
X11731206Y-21222674D02*
X11750253Y-21213150D01*
X11750253Y-21213150D02*
X11778825Y-21213150D01*
X11778825Y-21213150D02*
X11797872Y-21222674D01*
X11874063Y-21422674D02*
X11883587Y-21413150D01*
X11883587Y-21413150D02*
X11902634Y-21384579D01*
X11902634Y-21384579D02*
X11912158Y-21365531D01*
X11912158Y-21365531D02*
X11921682Y-21336960D01*
X11921682Y-21336960D02*
X11931206Y-21289341D01*
X11931206Y-21289341D02*
X11931206Y-21251246D01*
X11931206Y-21251246D02*
X11921682Y-21203627D01*
X11921682Y-21203627D02*
X11912158Y-21175055D01*
X11912158Y-21175055D02*
X11902634Y-21156008D01*
X11902634Y-21156008D02*
X11883587Y-21127436D01*
X11883587Y-21127436D02*
X11874063Y-21117912D01*
D12*
X7059000Y-21479000D02*
X7059000Y-21559000D01*
X7019000Y-21519000D02*
X7099000Y-21519000D01*
D11*
X7397872Y-21410484D02*
X7416920Y-21410484D01*
X7416920Y-21410484D02*
X7435967Y-21420008D01*
X7435967Y-21420008D02*
X7445491Y-21429531D01*
X7445491Y-21429531D02*
X7455015Y-21448579D01*
X7455015Y-21448579D02*
X7464539Y-21486674D01*
X7464539Y-21486674D02*
X7464539Y-21534293D01*
X7464539Y-21534293D02*
X7455015Y-21572389D01*
X7455015Y-21572389D02*
X7445491Y-21591436D01*
X7445491Y-21591436D02*
X7435967Y-21600960D01*
X7435967Y-21600960D02*
X7416920Y-21610484D01*
X7416920Y-21610484D02*
X7397872Y-21610484D01*
X7397872Y-21610484D02*
X7378824Y-21600960D01*
X7378824Y-21600960D02*
X7369301Y-21591436D01*
X7369301Y-21591436D02*
X7359777Y-21572389D01*
X7359777Y-21572389D02*
X7350253Y-21534293D01*
X7350253Y-21534293D02*
X7350253Y-21486674D01*
X7350253Y-21486674D02*
X7359777Y-21448579D01*
X7359777Y-21448579D02*
X7369301Y-21429531D01*
X7369301Y-21429531D02*
X7378824Y-21420008D01*
X7378824Y-21420008D02*
X7397872Y-21410484D01*
X7550253Y-21591436D02*
X7559777Y-21600960D01*
X7559777Y-21600960D02*
X7550253Y-21610484D01*
X7550253Y-21610484D02*
X7540729Y-21600960D01*
X7540729Y-21600960D02*
X7550253Y-21591436D01*
X7550253Y-21591436D02*
X7550253Y-21610484D01*
X7674062Y-21496198D02*
X7655015Y-21486674D01*
X7655015Y-21486674D02*
X7645491Y-21477150D01*
X7645491Y-21477150D02*
X7635967Y-21458103D01*
X7635967Y-21458103D02*
X7635967Y-21448579D01*
X7635967Y-21448579D02*
X7645491Y-21429531D01*
X7645491Y-21429531D02*
X7655015Y-21420008D01*
X7655015Y-21420008D02*
X7674062Y-21410484D01*
X7674062Y-21410484D02*
X7712158Y-21410484D01*
X7712158Y-21410484D02*
X7731205Y-21420008D01*
X7731205Y-21420008D02*
X7740729Y-21429531D01*
X7740729Y-21429531D02*
X7750253Y-21448579D01*
X7750253Y-21448579D02*
X7750253Y-21458103D01*
X7750253Y-21458103D02*
X7740729Y-21477150D01*
X7740729Y-21477150D02*
X7731205Y-21486674D01*
X7731205Y-21486674D02*
X7712158Y-21496198D01*
X7712158Y-21496198D02*
X7674062Y-21496198D01*
X7674062Y-21496198D02*
X7655015Y-21505722D01*
X7655015Y-21505722D02*
X7645491Y-21515246D01*
X7645491Y-21515246D02*
X7635967Y-21534293D01*
X7635967Y-21534293D02*
X7635967Y-21572389D01*
X7635967Y-21572389D02*
X7645491Y-21591436D01*
X7645491Y-21591436D02*
X7655015Y-21600960D01*
X7655015Y-21600960D02*
X7674062Y-21610484D01*
X7674062Y-21610484D02*
X7712158Y-21610484D01*
X7712158Y-21610484D02*
X7731205Y-21600960D01*
X7731205Y-21600960D02*
X7740729Y-21591436D01*
X7740729Y-21591436D02*
X7750253Y-21572389D01*
X7750253Y-21572389D02*
X7750253Y-21534293D01*
X7750253Y-21534293D02*
X7740729Y-21515246D01*
X7740729Y-21515246D02*
X7731205Y-21505722D01*
X7731205Y-21505722D02*
X7712158Y-21496198D01*
X7874062Y-21410484D02*
X7893110Y-21410484D01*
X7893110Y-21410484D02*
X7912158Y-21420008D01*
X7912158Y-21420008D02*
X7921682Y-21429531D01*
X7921682Y-21429531D02*
X7931205Y-21448579D01*
X7931205Y-21448579D02*
X7940729Y-21486674D01*
X7940729Y-21486674D02*
X7940729Y-21534293D01*
X7940729Y-21534293D02*
X7931205Y-21572389D01*
X7931205Y-21572389D02*
X7921682Y-21591436D01*
X7921682Y-21591436D02*
X7912158Y-21600960D01*
X7912158Y-21600960D02*
X7893110Y-21610484D01*
X7893110Y-21610484D02*
X7874062Y-21610484D01*
X7874062Y-21610484D02*
X7855015Y-21600960D01*
X7855015Y-21600960D02*
X7845491Y-21591436D01*
X7845491Y-21591436D02*
X7835967Y-21572389D01*
X7835967Y-21572389D02*
X7826443Y-21534293D01*
X7826443Y-21534293D02*
X7826443Y-21486674D01*
X7826443Y-21486674D02*
X7835967Y-21448579D01*
X7835967Y-21448579D02*
X7845491Y-21429531D01*
X7845491Y-21429531D02*
X7855015Y-21420008D01*
X7855015Y-21420008D02*
X7874062Y-21410484D01*
X8064539Y-21410484D02*
X8083586Y-21410484D01*
X8083586Y-21410484D02*
X8102634Y-21420008D01*
X8102634Y-21420008D02*
X8112158Y-21429531D01*
X8112158Y-21429531D02*
X8121682Y-21448579D01*
X8121682Y-21448579D02*
X8131205Y-21486674D01*
X8131205Y-21486674D02*
X8131205Y-21534293D01*
X8131205Y-21534293D02*
X8121682Y-21572389D01*
X8121682Y-21572389D02*
X8112158Y-21591436D01*
X8112158Y-21591436D02*
X8102634Y-21600960D01*
X8102634Y-21600960D02*
X8083586Y-21610484D01*
X8083586Y-21610484D02*
X8064539Y-21610484D01*
X8064539Y-21610484D02*
X8045491Y-21600960D01*
X8045491Y-21600960D02*
X8035967Y-21591436D01*
X8035967Y-21591436D02*
X8026443Y-21572389D01*
X8026443Y-21572389D02*
X8016920Y-21534293D01*
X8016920Y-21534293D02*
X8016920Y-21486674D01*
X8016920Y-21486674D02*
X8026443Y-21448579D01*
X8026443Y-21448579D02*
X8035967Y-21429531D01*
X8035967Y-21429531D02*
X8045491Y-21420008D01*
X8045491Y-21420008D02*
X8064539Y-21410484D01*
X8216920Y-21610484D02*
X8216920Y-21477150D01*
X8216920Y-21496198D02*
X8226443Y-21486674D01*
X8226443Y-21486674D02*
X8245491Y-21477150D01*
X8245491Y-21477150D02*
X8274063Y-21477150D01*
X8274063Y-21477150D02*
X8293110Y-21486674D01*
X8293110Y-21486674D02*
X8302634Y-21505722D01*
X8302634Y-21505722D02*
X8302634Y-21610484D01*
X8302634Y-21505722D02*
X8312158Y-21486674D01*
X8312158Y-21486674D02*
X8331205Y-21477150D01*
X8331205Y-21477150D02*
X8359777Y-21477150D01*
X8359777Y-21477150D02*
X8378824Y-21486674D01*
X8378824Y-21486674D02*
X8388348Y-21505722D01*
X8388348Y-21505722D02*
X8388348Y-21610484D01*
X8483586Y-21610484D02*
X8483586Y-21477150D01*
X8483586Y-21496198D02*
X8493110Y-21486674D01*
X8493110Y-21486674D02*
X8512158Y-21477150D01*
X8512158Y-21477150D02*
X8540729Y-21477150D01*
X8540729Y-21477150D02*
X8559777Y-21486674D01*
X8559777Y-21486674D02*
X8569301Y-21505722D01*
X8569301Y-21505722D02*
X8569301Y-21610484D01*
X8569301Y-21505722D02*
X8578825Y-21486674D01*
X8578825Y-21486674D02*
X8597872Y-21477150D01*
X8597872Y-21477150D02*
X8626444Y-21477150D01*
X8626444Y-21477150D02*
X8645491Y-21486674D01*
X8645491Y-21486674D02*
X8655015Y-21505722D01*
X8655015Y-21505722D02*
X8655015Y-21610484D01*
X9045491Y-21400960D02*
X8874063Y-21658103D01*
X9302634Y-21410484D02*
X9321682Y-21410484D01*
X9321682Y-21410484D02*
X9340729Y-21420008D01*
X9340729Y-21420008D02*
X9350253Y-21429531D01*
X9350253Y-21429531D02*
X9359777Y-21448579D01*
X9359777Y-21448579D02*
X9369301Y-21486674D01*
X9369301Y-21486674D02*
X9369301Y-21534293D01*
X9369301Y-21534293D02*
X9359777Y-21572389D01*
X9359777Y-21572389D02*
X9350253Y-21591436D01*
X9350253Y-21591436D02*
X9340729Y-21600960D01*
X9340729Y-21600960D02*
X9321682Y-21610484D01*
X9321682Y-21610484D02*
X9302634Y-21610484D01*
X9302634Y-21610484D02*
X9283587Y-21600960D01*
X9283587Y-21600960D02*
X9274063Y-21591436D01*
X9274063Y-21591436D02*
X9264539Y-21572389D01*
X9264539Y-21572389D02*
X9255015Y-21534293D01*
X9255015Y-21534293D02*
X9255015Y-21486674D01*
X9255015Y-21486674D02*
X9264539Y-21448579D01*
X9264539Y-21448579D02*
X9274063Y-21429531D01*
X9274063Y-21429531D02*
X9283587Y-21420008D01*
X9283587Y-21420008D02*
X9302634Y-21410484D01*
X9455015Y-21591436D02*
X9464539Y-21600960D01*
X9464539Y-21600960D02*
X9455015Y-21610484D01*
X9455015Y-21610484D02*
X9445491Y-21600960D01*
X9445491Y-21600960D02*
X9455015Y-21591436D01*
X9455015Y-21591436D02*
X9455015Y-21610484D01*
X9588348Y-21410484D02*
X9607396Y-21410484D01*
X9607396Y-21410484D02*
X9626444Y-21420008D01*
X9626444Y-21420008D02*
X9635968Y-21429531D01*
X9635968Y-21429531D02*
X9645491Y-21448579D01*
X9645491Y-21448579D02*
X9655015Y-21486674D01*
X9655015Y-21486674D02*
X9655015Y-21534293D01*
X9655015Y-21534293D02*
X9645491Y-21572389D01*
X9645491Y-21572389D02*
X9635968Y-21591436D01*
X9635968Y-21591436D02*
X9626444Y-21600960D01*
X9626444Y-21600960D02*
X9607396Y-21610484D01*
X9607396Y-21610484D02*
X9588348Y-21610484D01*
X9588348Y-21610484D02*
X9569301Y-21600960D01*
X9569301Y-21600960D02*
X9559777Y-21591436D01*
X9559777Y-21591436D02*
X9550253Y-21572389D01*
X9550253Y-21572389D02*
X9540729Y-21534293D01*
X9540729Y-21534293D02*
X9540729Y-21486674D01*
X9540729Y-21486674D02*
X9550253Y-21448579D01*
X9550253Y-21448579D02*
X9559777Y-21429531D01*
X9559777Y-21429531D02*
X9569301Y-21420008D01*
X9569301Y-21420008D02*
X9588348Y-21410484D01*
X9721682Y-21410484D02*
X9845491Y-21410484D01*
X9845491Y-21410484D02*
X9778825Y-21486674D01*
X9778825Y-21486674D02*
X9807396Y-21486674D01*
X9807396Y-21486674D02*
X9826444Y-21496198D01*
X9826444Y-21496198D02*
X9835968Y-21505722D01*
X9835968Y-21505722D02*
X9845491Y-21524770D01*
X9845491Y-21524770D02*
X9845491Y-21572389D01*
X9845491Y-21572389D02*
X9835968Y-21591436D01*
X9835968Y-21591436D02*
X9826444Y-21600960D01*
X9826444Y-21600960D02*
X9807396Y-21610484D01*
X9807396Y-21610484D02*
X9750253Y-21610484D01*
X9750253Y-21610484D02*
X9731206Y-21600960D01*
X9731206Y-21600960D02*
X9721682Y-21591436D01*
X10035968Y-21610484D02*
X9921682Y-21610484D01*
X9978825Y-21610484D02*
X9978825Y-21410484D01*
X9978825Y-21410484D02*
X9959777Y-21439055D01*
X9959777Y-21439055D02*
X9940729Y-21458103D01*
X9940729Y-21458103D02*
X9921682Y-21467627D01*
X10216920Y-21410484D02*
X10121682Y-21410484D01*
X10121682Y-21410484D02*
X10112158Y-21505722D01*
X10112158Y-21505722D02*
X10121682Y-21496198D01*
X10121682Y-21496198D02*
X10140729Y-21486674D01*
X10140729Y-21486674D02*
X10188349Y-21486674D01*
X10188349Y-21486674D02*
X10207396Y-21496198D01*
X10207396Y-21496198D02*
X10216920Y-21505722D01*
X10216920Y-21505722D02*
X10226444Y-21524770D01*
X10226444Y-21524770D02*
X10226444Y-21572389D01*
X10226444Y-21572389D02*
X10216920Y-21591436D01*
X10216920Y-21591436D02*
X10207396Y-21600960D01*
X10207396Y-21600960D02*
X10188349Y-21610484D01*
X10188349Y-21610484D02*
X10140729Y-21610484D01*
X10140729Y-21610484D02*
X10121682Y-21600960D01*
X10121682Y-21600960D02*
X10112158Y-21591436D01*
X10302634Y-21410484D02*
X10302634Y-21448579D01*
X10378825Y-21410484D02*
X10378825Y-21448579D01*
X10674063Y-21686674D02*
X10664539Y-21677150D01*
X10664539Y-21677150D02*
X10645491Y-21648579D01*
X10645491Y-21648579D02*
X10635968Y-21629531D01*
X10635968Y-21629531D02*
X10626444Y-21600960D01*
X10626444Y-21600960D02*
X10616920Y-21553341D01*
X10616920Y-21553341D02*
X10616920Y-21515246D01*
X10616920Y-21515246D02*
X10626444Y-21467627D01*
X10626444Y-21467627D02*
X10635968Y-21439055D01*
X10635968Y-21439055D02*
X10645491Y-21420008D01*
X10645491Y-21420008D02*
X10664539Y-21391436D01*
X10664539Y-21391436D02*
X10674063Y-21381912D01*
X10835968Y-21477150D02*
X10835968Y-21610484D01*
X10788349Y-21400960D02*
X10740730Y-21543817D01*
X10740730Y-21543817D02*
X10864539Y-21543817D01*
X11093111Y-21610484D02*
X11093111Y-21410484D01*
X11178825Y-21610484D02*
X11178825Y-21505722D01*
X11178825Y-21505722D02*
X11169301Y-21486674D01*
X11169301Y-21486674D02*
X11150253Y-21477150D01*
X11150253Y-21477150D02*
X11121682Y-21477150D01*
X11121682Y-21477150D02*
X11102634Y-21486674D01*
X11102634Y-21486674D02*
X11093111Y-21496198D01*
X11302634Y-21610484D02*
X11283587Y-21600960D01*
X11283587Y-21600960D02*
X11274063Y-21591436D01*
X11274063Y-21591436D02*
X11264539Y-21572389D01*
X11264539Y-21572389D02*
X11264539Y-21515246D01*
X11264539Y-21515246D02*
X11274063Y-21496198D01*
X11274063Y-21496198D02*
X11283587Y-21486674D01*
X11283587Y-21486674D02*
X11302634Y-21477150D01*
X11302634Y-21477150D02*
X11331206Y-21477150D01*
X11331206Y-21477150D02*
X11350253Y-21486674D01*
X11350253Y-21486674D02*
X11359777Y-21496198D01*
X11359777Y-21496198D02*
X11369301Y-21515246D01*
X11369301Y-21515246D02*
X11369301Y-21572389D01*
X11369301Y-21572389D02*
X11359777Y-21591436D01*
X11359777Y-21591436D02*
X11350253Y-21600960D01*
X11350253Y-21600960D02*
X11331206Y-21610484D01*
X11331206Y-21610484D02*
X11302634Y-21610484D01*
X11483587Y-21610484D02*
X11464539Y-21600960D01*
X11464539Y-21600960D02*
X11455015Y-21581912D01*
X11455015Y-21581912D02*
X11455015Y-21410484D01*
X11635968Y-21600960D02*
X11616920Y-21610484D01*
X11616920Y-21610484D02*
X11578825Y-21610484D01*
X11578825Y-21610484D02*
X11559777Y-21600960D01*
X11559777Y-21600960D02*
X11550253Y-21581912D01*
X11550253Y-21581912D02*
X11550253Y-21505722D01*
X11550253Y-21505722D02*
X11559777Y-21486674D01*
X11559777Y-21486674D02*
X11578825Y-21477150D01*
X11578825Y-21477150D02*
X11616920Y-21477150D01*
X11616920Y-21477150D02*
X11635968Y-21486674D01*
X11635968Y-21486674D02*
X11645491Y-21505722D01*
X11645491Y-21505722D02*
X11645491Y-21524770D01*
X11645491Y-21524770D02*
X11550253Y-21543817D01*
X11721682Y-21600960D02*
X11740730Y-21610484D01*
X11740730Y-21610484D02*
X11778825Y-21610484D01*
X11778825Y-21610484D02*
X11797872Y-21600960D01*
X11797872Y-21600960D02*
X11807396Y-21581912D01*
X11807396Y-21581912D02*
X11807396Y-21572389D01*
X11807396Y-21572389D02*
X11797872Y-21553341D01*
X11797872Y-21553341D02*
X11778825Y-21543817D01*
X11778825Y-21543817D02*
X11750253Y-21543817D01*
X11750253Y-21543817D02*
X11731206Y-21534293D01*
X11731206Y-21534293D02*
X11721682Y-21515246D01*
X11721682Y-21515246D02*
X11721682Y-21505722D01*
X11721682Y-21505722D02*
X11731206Y-21486674D01*
X11731206Y-21486674D02*
X11750253Y-21477150D01*
X11750253Y-21477150D02*
X11778825Y-21477150D01*
X11778825Y-21477150D02*
X11797872Y-21486674D01*
X11874063Y-21686674D02*
X11883587Y-21677150D01*
X11883587Y-21677150D02*
X11902634Y-21648579D01*
X11902634Y-21648579D02*
X11912158Y-21629531D01*
X11912158Y-21629531D02*
X11921682Y-21600960D01*
X11921682Y-21600960D02*
X11931206Y-21553341D01*
X11931206Y-21553341D02*
X11931206Y-21515246D01*
X11931206Y-21515246D02*
X11921682Y-21467627D01*
X11921682Y-21467627D02*
X11912158Y-21439055D01*
X11912158Y-21439055D02*
X11902634Y-21420008D01*
X11902634Y-21420008D02*
X11883587Y-21391436D01*
X11883587Y-21391436D02*
X11874063Y-21381912D01*
D13*
X7084063Y-21819063D02*
X7084063Y-21746937D01*
X7011937Y-21746937D01*
X7011937Y-21819063D01*
X7084063Y-21819063D01*
D11*
X7464539Y-21874484D02*
X7350253Y-21874484D01*
X7407396Y-21874484D02*
X7407396Y-21674484D01*
X7407396Y-21674484D02*
X7388348Y-21703055D01*
X7388348Y-21703055D02*
X7369301Y-21722103D01*
X7369301Y-21722103D02*
X7350253Y-21731627D01*
X7550253Y-21855436D02*
X7559777Y-21864960D01*
X7559777Y-21864960D02*
X7550253Y-21874484D01*
X7550253Y-21874484D02*
X7540729Y-21864960D01*
X7540729Y-21864960D02*
X7550253Y-21855436D01*
X7550253Y-21855436D02*
X7550253Y-21874484D01*
X7683586Y-21674484D02*
X7702634Y-21674484D01*
X7702634Y-21674484D02*
X7721682Y-21684008D01*
X7721682Y-21684008D02*
X7731205Y-21693531D01*
X7731205Y-21693531D02*
X7740729Y-21712579D01*
X7740729Y-21712579D02*
X7750253Y-21750674D01*
X7750253Y-21750674D02*
X7750253Y-21798293D01*
X7750253Y-21798293D02*
X7740729Y-21836389D01*
X7740729Y-21836389D02*
X7731205Y-21855436D01*
X7731205Y-21855436D02*
X7721682Y-21864960D01*
X7721682Y-21864960D02*
X7702634Y-21874484D01*
X7702634Y-21874484D02*
X7683586Y-21874484D01*
X7683586Y-21874484D02*
X7664539Y-21864960D01*
X7664539Y-21864960D02*
X7655015Y-21855436D01*
X7655015Y-21855436D02*
X7645491Y-21836389D01*
X7645491Y-21836389D02*
X7635967Y-21798293D01*
X7635967Y-21798293D02*
X7635967Y-21750674D01*
X7635967Y-21750674D02*
X7645491Y-21712579D01*
X7645491Y-21712579D02*
X7655015Y-21693531D01*
X7655015Y-21693531D02*
X7664539Y-21684008D01*
X7664539Y-21684008D02*
X7683586Y-21674484D01*
X7826443Y-21693531D02*
X7835967Y-21684008D01*
X7835967Y-21684008D02*
X7855015Y-21674484D01*
X7855015Y-21674484D02*
X7902634Y-21674484D01*
X7902634Y-21674484D02*
X7921682Y-21684008D01*
X7921682Y-21684008D02*
X7931205Y-21693531D01*
X7931205Y-21693531D02*
X7940729Y-21712579D01*
X7940729Y-21712579D02*
X7940729Y-21731627D01*
X7940729Y-21731627D02*
X7931205Y-21760198D01*
X7931205Y-21760198D02*
X7816920Y-21874484D01*
X7816920Y-21874484D02*
X7940729Y-21874484D01*
X8064539Y-21674484D02*
X8083586Y-21674484D01*
X8083586Y-21674484D02*
X8102634Y-21684008D01*
X8102634Y-21684008D02*
X8112158Y-21693531D01*
X8112158Y-21693531D02*
X8121682Y-21712579D01*
X8121682Y-21712579D02*
X8131205Y-21750674D01*
X8131205Y-21750674D02*
X8131205Y-21798293D01*
X8131205Y-21798293D02*
X8121682Y-21836389D01*
X8121682Y-21836389D02*
X8112158Y-21855436D01*
X8112158Y-21855436D02*
X8102634Y-21864960D01*
X8102634Y-21864960D02*
X8083586Y-21874484D01*
X8083586Y-21874484D02*
X8064539Y-21874484D01*
X8064539Y-21874484D02*
X8045491Y-21864960D01*
X8045491Y-21864960D02*
X8035967Y-21855436D01*
X8035967Y-21855436D02*
X8026443Y-21836389D01*
X8026443Y-21836389D02*
X8016920Y-21798293D01*
X8016920Y-21798293D02*
X8016920Y-21750674D01*
X8016920Y-21750674D02*
X8026443Y-21712579D01*
X8026443Y-21712579D02*
X8035967Y-21693531D01*
X8035967Y-21693531D02*
X8045491Y-21684008D01*
X8045491Y-21684008D02*
X8064539Y-21674484D01*
X8216920Y-21874484D02*
X8216920Y-21741150D01*
X8216920Y-21760198D02*
X8226443Y-21750674D01*
X8226443Y-21750674D02*
X8245491Y-21741150D01*
X8245491Y-21741150D02*
X8274063Y-21741150D01*
X8274063Y-21741150D02*
X8293110Y-21750674D01*
X8293110Y-21750674D02*
X8302634Y-21769722D01*
X8302634Y-21769722D02*
X8302634Y-21874484D01*
X8302634Y-21769722D02*
X8312158Y-21750674D01*
X8312158Y-21750674D02*
X8331205Y-21741150D01*
X8331205Y-21741150D02*
X8359777Y-21741150D01*
X8359777Y-21741150D02*
X8378824Y-21750674D01*
X8378824Y-21750674D02*
X8388348Y-21769722D01*
X8388348Y-21769722D02*
X8388348Y-21874484D01*
X8483586Y-21874484D02*
X8483586Y-21741150D01*
X8483586Y-21760198D02*
X8493110Y-21750674D01*
X8493110Y-21750674D02*
X8512158Y-21741150D01*
X8512158Y-21741150D02*
X8540729Y-21741150D01*
X8540729Y-21741150D02*
X8559777Y-21750674D01*
X8559777Y-21750674D02*
X8569301Y-21769722D01*
X8569301Y-21769722D02*
X8569301Y-21874484D01*
X8569301Y-21769722D02*
X8578825Y-21750674D01*
X8578825Y-21750674D02*
X8597872Y-21741150D01*
X8597872Y-21741150D02*
X8626444Y-21741150D01*
X8626444Y-21741150D02*
X8645491Y-21750674D01*
X8645491Y-21750674D02*
X8655015Y-21769722D01*
X8655015Y-21769722D02*
X8655015Y-21874484D01*
X9045491Y-21664960D02*
X8874063Y-21922103D01*
X9302634Y-21674484D02*
X9321682Y-21674484D01*
X9321682Y-21674484D02*
X9340729Y-21684008D01*
X9340729Y-21684008D02*
X9350253Y-21693531D01*
X9350253Y-21693531D02*
X9359777Y-21712579D01*
X9359777Y-21712579D02*
X9369301Y-21750674D01*
X9369301Y-21750674D02*
X9369301Y-21798293D01*
X9369301Y-21798293D02*
X9359777Y-21836389D01*
X9359777Y-21836389D02*
X9350253Y-21855436D01*
X9350253Y-21855436D02*
X9340729Y-21864960D01*
X9340729Y-21864960D02*
X9321682Y-21874484D01*
X9321682Y-21874484D02*
X9302634Y-21874484D01*
X9302634Y-21874484D02*
X9283587Y-21864960D01*
X9283587Y-21864960D02*
X9274063Y-21855436D01*
X9274063Y-21855436D02*
X9264539Y-21836389D01*
X9264539Y-21836389D02*
X9255015Y-21798293D01*
X9255015Y-21798293D02*
X9255015Y-21750674D01*
X9255015Y-21750674D02*
X9264539Y-21712579D01*
X9264539Y-21712579D02*
X9274063Y-21693531D01*
X9274063Y-21693531D02*
X9283587Y-21684008D01*
X9283587Y-21684008D02*
X9302634Y-21674484D01*
X9455015Y-21855436D02*
X9464539Y-21864960D01*
X9464539Y-21864960D02*
X9455015Y-21874484D01*
X9455015Y-21874484D02*
X9445491Y-21864960D01*
X9445491Y-21864960D02*
X9455015Y-21855436D01*
X9455015Y-21855436D02*
X9455015Y-21874484D01*
X9588348Y-21674484D02*
X9607396Y-21674484D01*
X9607396Y-21674484D02*
X9626444Y-21684008D01*
X9626444Y-21684008D02*
X9635968Y-21693531D01*
X9635968Y-21693531D02*
X9645491Y-21712579D01*
X9645491Y-21712579D02*
X9655015Y-21750674D01*
X9655015Y-21750674D02*
X9655015Y-21798293D01*
X9655015Y-21798293D02*
X9645491Y-21836389D01*
X9645491Y-21836389D02*
X9635968Y-21855436D01*
X9635968Y-21855436D02*
X9626444Y-21864960D01*
X9626444Y-21864960D02*
X9607396Y-21874484D01*
X9607396Y-21874484D02*
X9588348Y-21874484D01*
X9588348Y-21874484D02*
X9569301Y-21864960D01*
X9569301Y-21864960D02*
X9559777Y-21855436D01*
X9559777Y-21855436D02*
X9550253Y-21836389D01*
X9550253Y-21836389D02*
X9540729Y-21798293D01*
X9540729Y-21798293D02*
X9540729Y-21750674D01*
X9540729Y-21750674D02*
X9550253Y-21712579D01*
X9550253Y-21712579D02*
X9559777Y-21693531D01*
X9559777Y-21693531D02*
X9569301Y-21684008D01*
X9569301Y-21684008D02*
X9588348Y-21674484D01*
X9826444Y-21741150D02*
X9826444Y-21874484D01*
X9778825Y-21664960D02*
X9731206Y-21807817D01*
X9731206Y-21807817D02*
X9855015Y-21807817D01*
X9969301Y-21674484D02*
X9988349Y-21674484D01*
X9988349Y-21674484D02*
X10007396Y-21684008D01*
X10007396Y-21684008D02*
X10016920Y-21693531D01*
X10016920Y-21693531D02*
X10026444Y-21712579D01*
X10026444Y-21712579D02*
X10035968Y-21750674D01*
X10035968Y-21750674D02*
X10035968Y-21798293D01*
X10035968Y-21798293D02*
X10026444Y-21836389D01*
X10026444Y-21836389D02*
X10016920Y-21855436D01*
X10016920Y-21855436D02*
X10007396Y-21864960D01*
X10007396Y-21864960D02*
X9988349Y-21874484D01*
X9988349Y-21874484D02*
X9969301Y-21874484D01*
X9969301Y-21874484D02*
X9950253Y-21864960D01*
X9950253Y-21864960D02*
X9940729Y-21855436D01*
X9940729Y-21855436D02*
X9931206Y-21836389D01*
X9931206Y-21836389D02*
X9921682Y-21798293D01*
X9921682Y-21798293D02*
X9921682Y-21750674D01*
X9921682Y-21750674D02*
X9931206Y-21712579D01*
X9931206Y-21712579D02*
X9940729Y-21693531D01*
X9940729Y-21693531D02*
X9950253Y-21684008D01*
X9950253Y-21684008D02*
X9969301Y-21674484D01*
X10112158Y-21693531D02*
X10121682Y-21684008D01*
X10121682Y-21684008D02*
X10140729Y-21674484D01*
X10140729Y-21674484D02*
X10188349Y-21674484D01*
X10188349Y-21674484D02*
X10207396Y-21684008D01*
X10207396Y-21684008D02*
X10216920Y-21693531D01*
X10216920Y-21693531D02*
X10226444Y-21712579D01*
X10226444Y-21712579D02*
X10226444Y-21731627D01*
X10226444Y-21731627D02*
X10216920Y-21760198D01*
X10216920Y-21760198D02*
X10102634Y-21874484D01*
X10102634Y-21874484D02*
X10226444Y-21874484D01*
X10302634Y-21674484D02*
X10302634Y-21712579D01*
X10378825Y-21674484D02*
X10378825Y-21712579D01*
X10674063Y-21950674D02*
X10664539Y-21941150D01*
X10664539Y-21941150D02*
X10645491Y-21912579D01*
X10645491Y-21912579D02*
X10635968Y-21893531D01*
X10635968Y-21893531D02*
X10626444Y-21864960D01*
X10626444Y-21864960D02*
X10616920Y-21817341D01*
X10616920Y-21817341D02*
X10616920Y-21779246D01*
X10616920Y-21779246D02*
X10626444Y-21731627D01*
X10626444Y-21731627D02*
X10635968Y-21703055D01*
X10635968Y-21703055D02*
X10645491Y-21684008D01*
X10645491Y-21684008D02*
X10664539Y-21655436D01*
X10664539Y-21655436D02*
X10674063Y-21645912D01*
X10835968Y-21741150D02*
X10835968Y-21874484D01*
X10788349Y-21664960D02*
X10740730Y-21807817D01*
X10740730Y-21807817D02*
X10864539Y-21807817D01*
X10921682Y-21674484D02*
X11045491Y-21674484D01*
X11045491Y-21674484D02*
X10978825Y-21750674D01*
X10978825Y-21750674D02*
X11007396Y-21750674D01*
X11007396Y-21750674D02*
X11026444Y-21760198D01*
X11026444Y-21760198D02*
X11035968Y-21769722D01*
X11035968Y-21769722D02*
X11045491Y-21788770D01*
X11045491Y-21788770D02*
X11045491Y-21836389D01*
X11045491Y-21836389D02*
X11035968Y-21855436D01*
X11035968Y-21855436D02*
X11026444Y-21864960D01*
X11026444Y-21864960D02*
X11007396Y-21874484D01*
X11007396Y-21874484D02*
X10950253Y-21874484D01*
X10950253Y-21874484D02*
X10931206Y-21864960D01*
X10931206Y-21864960D02*
X10921682Y-21855436D01*
X11283587Y-21874484D02*
X11283587Y-21674484D01*
X11369301Y-21874484D02*
X11369301Y-21769722D01*
X11369301Y-21769722D02*
X11359777Y-21750674D01*
X11359777Y-21750674D02*
X11340730Y-21741150D01*
X11340730Y-21741150D02*
X11312158Y-21741150D01*
X11312158Y-21741150D02*
X11293110Y-21750674D01*
X11293110Y-21750674D02*
X11283587Y-21760198D01*
X11493110Y-21874484D02*
X11474063Y-21864960D01*
X11474063Y-21864960D02*
X11464539Y-21855436D01*
X11464539Y-21855436D02*
X11455015Y-21836389D01*
X11455015Y-21836389D02*
X11455015Y-21779246D01*
X11455015Y-21779246D02*
X11464539Y-21760198D01*
X11464539Y-21760198D02*
X11474063Y-21750674D01*
X11474063Y-21750674D02*
X11493110Y-21741150D01*
X11493110Y-21741150D02*
X11521682Y-21741150D01*
X11521682Y-21741150D02*
X11540730Y-21750674D01*
X11540730Y-21750674D02*
X11550253Y-21760198D01*
X11550253Y-21760198D02*
X11559777Y-21779246D01*
X11559777Y-21779246D02*
X11559777Y-21836389D01*
X11559777Y-21836389D02*
X11550253Y-21855436D01*
X11550253Y-21855436D02*
X11540730Y-21864960D01*
X11540730Y-21864960D02*
X11521682Y-21874484D01*
X11521682Y-21874484D02*
X11493110Y-21874484D01*
X11674063Y-21874484D02*
X11655015Y-21864960D01*
X11655015Y-21864960D02*
X11645491Y-21845912D01*
X11645491Y-21845912D02*
X11645491Y-21674484D01*
X11826444Y-21864960D02*
X11807396Y-21874484D01*
X11807396Y-21874484D02*
X11769301Y-21874484D01*
X11769301Y-21874484D02*
X11750253Y-21864960D01*
X11750253Y-21864960D02*
X11740730Y-21845912D01*
X11740730Y-21845912D02*
X11740730Y-21769722D01*
X11740730Y-21769722D02*
X11750253Y-21750674D01*
X11750253Y-21750674D02*
X11769301Y-21741150D01*
X11769301Y-21741150D02*
X11807396Y-21741150D01*
X11807396Y-21741150D02*
X11826444Y-21750674D01*
X11826444Y-21750674D02*
X11835968Y-21769722D01*
X11835968Y-21769722D02*
X11835968Y-21788770D01*
X11835968Y-21788770D02*
X11740730Y-21807817D01*
X11912158Y-21864960D02*
X11931206Y-21874484D01*
X11931206Y-21874484D02*
X11969301Y-21874484D01*
X11969301Y-21874484D02*
X11988349Y-21864960D01*
X11988349Y-21864960D02*
X11997872Y-21845912D01*
X11997872Y-21845912D02*
X11997872Y-21836389D01*
X11997872Y-21836389D02*
X11988349Y-21817341D01*
X11988349Y-21817341D02*
X11969301Y-21807817D01*
X11969301Y-21807817D02*
X11940730Y-21807817D01*
X11940730Y-21807817D02*
X11921682Y-21798293D01*
X11921682Y-21798293D02*
X11912158Y-21779246D01*
X11912158Y-21779246D02*
X11912158Y-21769722D01*
X11912158Y-21769722D02*
X11921682Y-21750674D01*
X11921682Y-21750674D02*
X11940730Y-21741150D01*
X11940730Y-21741150D02*
X11969301Y-21741150D01*
X11969301Y-21741150D02*
X11988349Y-21750674D01*
X12064539Y-21950674D02*
X12074063Y-21941150D01*
X12074063Y-21941150D02*
X12093111Y-21912579D01*
X12093111Y-21912579D02*
X12102634Y-21893531D01*
X12102634Y-21893531D02*
X12112158Y-21864960D01*
X12112158Y-21864960D02*
X12121682Y-21817341D01*
X12121682Y-21817341D02*
X12121682Y-21779246D01*
X12121682Y-21779246D02*
X12112158Y-21731627D01*
X12112158Y-21731627D02*
X12102634Y-21703055D01*
X12102634Y-21703055D02*
X12093111Y-21684008D01*
X12093111Y-21684008D02*
X12074063Y-21655436D01*
X12074063Y-21655436D02*
X12064539Y-21645912D01*
D14*
X7031000Y-22115000D02*
X7099000Y-22047000D01*
X7031000Y-21979000D01*
X6963000Y-22047000D01*
X7031000Y-22115000D01*
D11*
X7464539Y-22138484D02*
X7350253Y-22138484D01*
X7407396Y-22138484D02*
X7407396Y-21938484D01*
X7407396Y-21938484D02*
X7388348Y-21967055D01*
X7388348Y-21967055D02*
X7369301Y-21986103D01*
X7369301Y-21986103D02*
X7350253Y-21995627D01*
X7550253Y-22119436D02*
X7559777Y-22128960D01*
X7559777Y-22128960D02*
X7550253Y-22138484D01*
X7550253Y-22138484D02*
X7540729Y-22128960D01*
X7540729Y-22128960D02*
X7550253Y-22119436D01*
X7550253Y-22119436D02*
X7550253Y-22138484D01*
X7626443Y-21938484D02*
X7750253Y-21938484D01*
X7750253Y-21938484D02*
X7683586Y-22014674D01*
X7683586Y-22014674D02*
X7712158Y-22014674D01*
X7712158Y-22014674D02*
X7731205Y-22024198D01*
X7731205Y-22024198D02*
X7740729Y-22033722D01*
X7740729Y-22033722D02*
X7750253Y-22052770D01*
X7750253Y-22052770D02*
X7750253Y-22100389D01*
X7750253Y-22100389D02*
X7740729Y-22119436D01*
X7740729Y-22119436D02*
X7731205Y-22128960D01*
X7731205Y-22128960D02*
X7712158Y-22138484D01*
X7712158Y-22138484D02*
X7655015Y-22138484D01*
X7655015Y-22138484D02*
X7635967Y-22128960D01*
X7635967Y-22128960D02*
X7626443Y-22119436D01*
X7921682Y-21938484D02*
X7883586Y-21938484D01*
X7883586Y-21938484D02*
X7864539Y-21948008D01*
X7864539Y-21948008D02*
X7855015Y-21957531D01*
X7855015Y-21957531D02*
X7835967Y-21986103D01*
X7835967Y-21986103D02*
X7826443Y-22024198D01*
X7826443Y-22024198D02*
X7826443Y-22100389D01*
X7826443Y-22100389D02*
X7835967Y-22119436D01*
X7835967Y-22119436D02*
X7845491Y-22128960D01*
X7845491Y-22128960D02*
X7864539Y-22138484D01*
X7864539Y-22138484D02*
X7902634Y-22138484D01*
X7902634Y-22138484D02*
X7921682Y-22128960D01*
X7921682Y-22128960D02*
X7931205Y-22119436D01*
X7931205Y-22119436D02*
X7940729Y-22100389D01*
X7940729Y-22100389D02*
X7940729Y-22052770D01*
X7940729Y-22052770D02*
X7931205Y-22033722D01*
X7931205Y-22033722D02*
X7921682Y-22024198D01*
X7921682Y-22024198D02*
X7902634Y-22014674D01*
X7902634Y-22014674D02*
X7864539Y-22014674D01*
X7864539Y-22014674D02*
X7845491Y-22024198D01*
X7845491Y-22024198D02*
X7835967Y-22033722D01*
X7835967Y-22033722D02*
X7826443Y-22052770D01*
X8064539Y-21938484D02*
X8083586Y-21938484D01*
X8083586Y-21938484D02*
X8102634Y-21948008D01*
X8102634Y-21948008D02*
X8112158Y-21957531D01*
X8112158Y-21957531D02*
X8121682Y-21976579D01*
X8121682Y-21976579D02*
X8131205Y-22014674D01*
X8131205Y-22014674D02*
X8131205Y-22062293D01*
X8131205Y-22062293D02*
X8121682Y-22100389D01*
X8121682Y-22100389D02*
X8112158Y-22119436D01*
X8112158Y-22119436D02*
X8102634Y-22128960D01*
X8102634Y-22128960D02*
X8083586Y-22138484D01*
X8083586Y-22138484D02*
X8064539Y-22138484D01*
X8064539Y-22138484D02*
X8045491Y-22128960D01*
X8045491Y-22128960D02*
X8035967Y-22119436D01*
X8035967Y-22119436D02*
X8026443Y-22100389D01*
X8026443Y-22100389D02*
X8016920Y-22062293D01*
X8016920Y-22062293D02*
X8016920Y-22014674D01*
X8016920Y-22014674D02*
X8026443Y-21976579D01*
X8026443Y-21976579D02*
X8035967Y-21957531D01*
X8035967Y-21957531D02*
X8045491Y-21948008D01*
X8045491Y-21948008D02*
X8064539Y-21938484D01*
X8216920Y-22138484D02*
X8216920Y-22005150D01*
X8216920Y-22024198D02*
X8226443Y-22014674D01*
X8226443Y-22014674D02*
X8245491Y-22005150D01*
X8245491Y-22005150D02*
X8274063Y-22005150D01*
X8274063Y-22005150D02*
X8293110Y-22014674D01*
X8293110Y-22014674D02*
X8302634Y-22033722D01*
X8302634Y-22033722D02*
X8302634Y-22138484D01*
X8302634Y-22033722D02*
X8312158Y-22014674D01*
X8312158Y-22014674D02*
X8331205Y-22005150D01*
X8331205Y-22005150D02*
X8359777Y-22005150D01*
X8359777Y-22005150D02*
X8378824Y-22014674D01*
X8378824Y-22014674D02*
X8388348Y-22033722D01*
X8388348Y-22033722D02*
X8388348Y-22138484D01*
X8483586Y-22138484D02*
X8483586Y-22005150D01*
X8483586Y-22024198D02*
X8493110Y-22014674D01*
X8493110Y-22014674D02*
X8512158Y-22005150D01*
X8512158Y-22005150D02*
X8540729Y-22005150D01*
X8540729Y-22005150D02*
X8559777Y-22014674D01*
X8559777Y-22014674D02*
X8569301Y-22033722D01*
X8569301Y-22033722D02*
X8569301Y-22138484D01*
X8569301Y-22033722D02*
X8578825Y-22014674D01*
X8578825Y-22014674D02*
X8597872Y-22005150D01*
X8597872Y-22005150D02*
X8626444Y-22005150D01*
X8626444Y-22005150D02*
X8645491Y-22014674D01*
X8645491Y-22014674D02*
X8655015Y-22033722D01*
X8655015Y-22033722D02*
X8655015Y-22138484D01*
X9045491Y-21928960D02*
X8874063Y-22186103D01*
X9302634Y-21938484D02*
X9321682Y-21938484D01*
X9321682Y-21938484D02*
X9340729Y-21948008D01*
X9340729Y-21948008D02*
X9350253Y-21957531D01*
X9350253Y-21957531D02*
X9359777Y-21976579D01*
X9359777Y-21976579D02*
X9369301Y-22014674D01*
X9369301Y-22014674D02*
X9369301Y-22062293D01*
X9369301Y-22062293D02*
X9359777Y-22100389D01*
X9359777Y-22100389D02*
X9350253Y-22119436D01*
X9350253Y-22119436D02*
X9340729Y-22128960D01*
X9340729Y-22128960D02*
X9321682Y-22138484D01*
X9321682Y-22138484D02*
X9302634Y-22138484D01*
X9302634Y-22138484D02*
X9283587Y-22128960D01*
X9283587Y-22128960D02*
X9274063Y-22119436D01*
X9274063Y-22119436D02*
X9264539Y-22100389D01*
X9264539Y-22100389D02*
X9255015Y-22062293D01*
X9255015Y-22062293D02*
X9255015Y-22014674D01*
X9255015Y-22014674D02*
X9264539Y-21976579D01*
X9264539Y-21976579D02*
X9274063Y-21957531D01*
X9274063Y-21957531D02*
X9283587Y-21948008D01*
X9283587Y-21948008D02*
X9302634Y-21938484D01*
X9455015Y-22119436D02*
X9464539Y-22128960D01*
X9464539Y-22128960D02*
X9455015Y-22138484D01*
X9455015Y-22138484D02*
X9445491Y-22128960D01*
X9445491Y-22128960D02*
X9455015Y-22119436D01*
X9455015Y-22119436D02*
X9455015Y-22138484D01*
X9588348Y-21938484D02*
X9607396Y-21938484D01*
X9607396Y-21938484D02*
X9626444Y-21948008D01*
X9626444Y-21948008D02*
X9635968Y-21957531D01*
X9635968Y-21957531D02*
X9645491Y-21976579D01*
X9645491Y-21976579D02*
X9655015Y-22014674D01*
X9655015Y-22014674D02*
X9655015Y-22062293D01*
X9655015Y-22062293D02*
X9645491Y-22100389D01*
X9645491Y-22100389D02*
X9635968Y-22119436D01*
X9635968Y-22119436D02*
X9626444Y-22128960D01*
X9626444Y-22128960D02*
X9607396Y-22138484D01*
X9607396Y-22138484D02*
X9588348Y-22138484D01*
X9588348Y-22138484D02*
X9569301Y-22128960D01*
X9569301Y-22128960D02*
X9559777Y-22119436D01*
X9559777Y-22119436D02*
X9550253Y-22100389D01*
X9550253Y-22100389D02*
X9540729Y-22062293D01*
X9540729Y-22062293D02*
X9540729Y-22014674D01*
X9540729Y-22014674D02*
X9550253Y-21976579D01*
X9550253Y-21976579D02*
X9559777Y-21957531D01*
X9559777Y-21957531D02*
X9569301Y-21948008D01*
X9569301Y-21948008D02*
X9588348Y-21938484D01*
X9835968Y-21938484D02*
X9740729Y-21938484D01*
X9740729Y-21938484D02*
X9731206Y-22033722D01*
X9731206Y-22033722D02*
X9740729Y-22024198D01*
X9740729Y-22024198D02*
X9759777Y-22014674D01*
X9759777Y-22014674D02*
X9807396Y-22014674D01*
X9807396Y-22014674D02*
X9826444Y-22024198D01*
X9826444Y-22024198D02*
X9835968Y-22033722D01*
X9835968Y-22033722D02*
X9845491Y-22052770D01*
X9845491Y-22052770D02*
X9845491Y-22100389D01*
X9845491Y-22100389D02*
X9835968Y-22119436D01*
X9835968Y-22119436D02*
X9826444Y-22128960D01*
X9826444Y-22128960D02*
X9807396Y-22138484D01*
X9807396Y-22138484D02*
X9759777Y-22138484D01*
X9759777Y-22138484D02*
X9740729Y-22128960D01*
X9740729Y-22128960D02*
X9731206Y-22119436D01*
X9912158Y-21938484D02*
X10035968Y-21938484D01*
X10035968Y-21938484D02*
X9969301Y-22014674D01*
X9969301Y-22014674D02*
X9997872Y-22014674D01*
X9997872Y-22014674D02*
X10016920Y-22024198D01*
X10016920Y-22024198D02*
X10026444Y-22033722D01*
X10026444Y-22033722D02*
X10035968Y-22052770D01*
X10035968Y-22052770D02*
X10035968Y-22100389D01*
X10035968Y-22100389D02*
X10026444Y-22119436D01*
X10026444Y-22119436D02*
X10016920Y-22128960D01*
X10016920Y-22128960D02*
X9997872Y-22138484D01*
X9997872Y-22138484D02*
X9940729Y-22138484D01*
X9940729Y-22138484D02*
X9921682Y-22128960D01*
X9921682Y-22128960D02*
X9912158Y-22119436D01*
X10216920Y-21938484D02*
X10121682Y-21938484D01*
X10121682Y-21938484D02*
X10112158Y-22033722D01*
X10112158Y-22033722D02*
X10121682Y-22024198D01*
X10121682Y-22024198D02*
X10140729Y-22014674D01*
X10140729Y-22014674D02*
X10188349Y-22014674D01*
X10188349Y-22014674D02*
X10207396Y-22024198D01*
X10207396Y-22024198D02*
X10216920Y-22033722D01*
X10216920Y-22033722D02*
X10226444Y-22052770D01*
X10226444Y-22052770D02*
X10226444Y-22100389D01*
X10226444Y-22100389D02*
X10216920Y-22119436D01*
X10216920Y-22119436D02*
X10207396Y-22128960D01*
X10207396Y-22128960D02*
X10188349Y-22138484D01*
X10188349Y-22138484D02*
X10140729Y-22138484D01*
X10140729Y-22138484D02*
X10121682Y-22128960D01*
X10121682Y-22128960D02*
X10112158Y-22119436D01*
X10302634Y-21938484D02*
X10302634Y-21976579D01*
X10378825Y-21938484D02*
X10378825Y-21976579D01*
X10674063Y-22214674D02*
X10664539Y-22205150D01*
X10664539Y-22205150D02*
X10645491Y-22176579D01*
X10645491Y-22176579D02*
X10635968Y-22157531D01*
X10635968Y-22157531D02*
X10626444Y-22128960D01*
X10626444Y-22128960D02*
X10616920Y-22081341D01*
X10616920Y-22081341D02*
X10616920Y-22043246D01*
X10616920Y-22043246D02*
X10626444Y-21995627D01*
X10626444Y-21995627D02*
X10635968Y-21967055D01*
X10635968Y-21967055D02*
X10645491Y-21948008D01*
X10645491Y-21948008D02*
X10664539Y-21919436D01*
X10664539Y-21919436D02*
X10674063Y-21909912D01*
X10731206Y-21938484D02*
X10855015Y-21938484D01*
X10855015Y-21938484D02*
X10788349Y-22014674D01*
X10788349Y-22014674D02*
X10816920Y-22014674D01*
X10816920Y-22014674D02*
X10835968Y-22024198D01*
X10835968Y-22024198D02*
X10845491Y-22033722D01*
X10845491Y-22033722D02*
X10855015Y-22052770D01*
X10855015Y-22052770D02*
X10855015Y-22100389D01*
X10855015Y-22100389D02*
X10845491Y-22119436D01*
X10845491Y-22119436D02*
X10835968Y-22128960D01*
X10835968Y-22128960D02*
X10816920Y-22138484D01*
X10816920Y-22138484D02*
X10759777Y-22138484D01*
X10759777Y-22138484D02*
X10740730Y-22128960D01*
X10740730Y-22128960D02*
X10731206Y-22119436D01*
X11026444Y-21938484D02*
X10988349Y-21938484D01*
X10988349Y-21938484D02*
X10969301Y-21948008D01*
X10969301Y-21948008D02*
X10959777Y-21957531D01*
X10959777Y-21957531D02*
X10940730Y-21986103D01*
X10940730Y-21986103D02*
X10931206Y-22024198D01*
X10931206Y-22024198D02*
X10931206Y-22100389D01*
X10931206Y-22100389D02*
X10940730Y-22119436D01*
X10940730Y-22119436D02*
X10950253Y-22128960D01*
X10950253Y-22128960D02*
X10969301Y-22138484D01*
X10969301Y-22138484D02*
X11007396Y-22138484D01*
X11007396Y-22138484D02*
X11026444Y-22128960D01*
X11026444Y-22128960D02*
X11035968Y-22119436D01*
X11035968Y-22119436D02*
X11045491Y-22100389D01*
X11045491Y-22100389D02*
X11045491Y-22052770D01*
X11045491Y-22052770D02*
X11035968Y-22033722D01*
X11035968Y-22033722D02*
X11026444Y-22024198D01*
X11026444Y-22024198D02*
X11007396Y-22014674D01*
X11007396Y-22014674D02*
X10969301Y-22014674D01*
X10969301Y-22014674D02*
X10950253Y-22024198D01*
X10950253Y-22024198D02*
X10940730Y-22033722D01*
X10940730Y-22033722D02*
X10931206Y-22052770D01*
X11283587Y-22138484D02*
X11283587Y-21938484D01*
X11369301Y-22138484D02*
X11369301Y-22033722D01*
X11369301Y-22033722D02*
X11359777Y-22014674D01*
X11359777Y-22014674D02*
X11340730Y-22005150D01*
X11340730Y-22005150D02*
X11312158Y-22005150D01*
X11312158Y-22005150D02*
X11293110Y-22014674D01*
X11293110Y-22014674D02*
X11283587Y-22024198D01*
X11493110Y-22138484D02*
X11474063Y-22128960D01*
X11474063Y-22128960D02*
X11464539Y-22119436D01*
X11464539Y-22119436D02*
X11455015Y-22100389D01*
X11455015Y-22100389D02*
X11455015Y-22043246D01*
X11455015Y-22043246D02*
X11464539Y-22024198D01*
X11464539Y-22024198D02*
X11474063Y-22014674D01*
X11474063Y-22014674D02*
X11493110Y-22005150D01*
X11493110Y-22005150D02*
X11521682Y-22005150D01*
X11521682Y-22005150D02*
X11540730Y-22014674D01*
X11540730Y-22014674D02*
X11550253Y-22024198D01*
X11550253Y-22024198D02*
X11559777Y-22043246D01*
X11559777Y-22043246D02*
X11559777Y-22100389D01*
X11559777Y-22100389D02*
X11550253Y-22119436D01*
X11550253Y-22119436D02*
X11540730Y-22128960D01*
X11540730Y-22128960D02*
X11521682Y-22138484D01*
X11521682Y-22138484D02*
X11493110Y-22138484D01*
X11674063Y-22138484D02*
X11655015Y-22128960D01*
X11655015Y-22128960D02*
X11645491Y-22109912D01*
X11645491Y-22109912D02*
X11645491Y-21938484D01*
X11826444Y-22128960D02*
X11807396Y-22138484D01*
X11807396Y-22138484D02*
X11769301Y-22138484D01*
X11769301Y-22138484D02*
X11750253Y-22128960D01*
X11750253Y-22128960D02*
X11740730Y-22109912D01*
X11740730Y-22109912D02*
X11740730Y-22033722D01*
X11740730Y-22033722D02*
X11750253Y-22014674D01*
X11750253Y-22014674D02*
X11769301Y-22005150D01*
X11769301Y-22005150D02*
X11807396Y-22005150D01*
X11807396Y-22005150D02*
X11826444Y-22014674D01*
X11826444Y-22014674D02*
X11835968Y-22033722D01*
X11835968Y-22033722D02*
X11835968Y-22052770D01*
X11835968Y-22052770D02*
X11740730Y-22071817D01*
X11912158Y-22128960D02*
X11931206Y-22138484D01*
X11931206Y-22138484D02*
X11969301Y-22138484D01*
X11969301Y-22138484D02*
X11988349Y-22128960D01*
X11988349Y-22128960D02*
X11997872Y-22109912D01*
X11997872Y-22109912D02*
X11997872Y-22100389D01*
X11997872Y-22100389D02*
X11988349Y-22081341D01*
X11988349Y-22081341D02*
X11969301Y-22071817D01*
X11969301Y-22071817D02*
X11940730Y-22071817D01*
X11940730Y-22071817D02*
X11921682Y-22062293D01*
X11921682Y-22062293D02*
X11912158Y-22043246D01*
X11912158Y-22043246D02*
X11912158Y-22033722D01*
X11912158Y-22033722D02*
X11921682Y-22014674D01*
X11921682Y-22014674D02*
X11940730Y-22005150D01*
X11940730Y-22005150D02*
X11969301Y-22005150D01*
X11969301Y-22005150D02*
X11988349Y-22014674D01*
X12064539Y-22214674D02*
X12074063Y-22205150D01*
X12074063Y-22205150D02*
X12093111Y-22176579D01*
X12093111Y-22176579D02*
X12102634Y-22157531D01*
X12102634Y-22157531D02*
X12112158Y-22128960D01*
X12112158Y-22128960D02*
X12121682Y-22081341D01*
X12121682Y-22081341D02*
X12121682Y-22043246D01*
X12121682Y-22043246D02*
X12112158Y-21995627D01*
X12112158Y-21995627D02*
X12102634Y-21967055D01*
X12102634Y-21967055D02*
X12093111Y-21948008D01*
X12093111Y-21948008D02*
X12074063Y-21919436D01*
X12074063Y-21919436D02*
X12064539Y-21909912D01*
M02*
