%TF.GenerationSoftware,KiCad,Pcbnew,8.0.3*%
%TF.CreationDate,2024-07-24T13:04:13+02:00*%
%TF.ProjectId,numerical,6e756d65-7269-4636-916c-2e6b69636164,rev?*%
%TF.SameCoordinates,Original*%
%TF.FileFunction,Paste,Bot*%
%TF.FilePolarity,Positive*%
%FSLAX46Y46*%
G04 Gerber Fmt 4.6, Leading zero omitted, Abs format (unit mm)*
G04 Created by KiCad (PCBNEW 8.0.3) date 2024-07-24 13:04:13*
%MOMM*%
%LPD*%
G01*
G04 APERTURE LIST*
G04 Aperture macros list*
%AMRoundRect*
0 Rectangle with rounded corners*
0 $1 Rounding radius*
0 $2 $3 $4 $5 $6 $7 $8 $9 X,Y pos of 4 corners*
0 Add a 4 corners polygon primitive as box body*
4,1,4,$2,$3,$4,$5,$6,$7,$8,$9,$2,$3,0*
0 Add four circle primitives for the rounded corners*
1,1,$1+$1,$2,$3*
1,1,$1+$1,$4,$5*
1,1,$1+$1,$6,$7*
1,1,$1+$1,$8,$9*
0 Add four rect primitives between the rounded corners*
20,1,$1+$1,$2,$3,$4,$5,0*
20,1,$1+$1,$4,$5,$6,$7,0*
20,1,$1+$1,$6,$7,$8,$9,0*
20,1,$1+$1,$8,$9,$2,$3,0*%
G04 Aperture macros list end*
%ADD10RoundRect,0.200000X-1.075000X-1.050000X1.075000X-1.050000X1.075000X1.050000X-1.075000X1.050000X0*%
%ADD11R,1.200000X1.200000*%
%ADD12RoundRect,0.237500X-0.237500X0.250000X-0.237500X-0.250000X0.237500X-0.250000X0.237500X0.250000X0*%
%ADD13R,2.500000X1.200000*%
G04 APERTURE END LIST*
D10*
%TO.C,S7*%
X79715000Y-124535000D03*
X92642000Y-121995000D03*
%TD*%
%TO.C,S10*%
X136865000Y-134060000D03*
X149792000Y-131520000D03*
%TD*%
%TO.C,S23*%
X117815000Y-181685000D03*
X130742000Y-179145000D03*
%TD*%
%TO.C,S14*%
X117815000Y-143585000D03*
X130742000Y-141045000D03*
%TD*%
%TO.C,S3*%
X98765000Y-105485000D03*
X111692000Y-102945000D03*
%TD*%
%TO.C,S22*%
X89240000Y-181685000D03*
X102167000Y-179145000D03*
%TD*%
%TO.C,S2*%
X79715000Y-105485000D03*
X92642000Y-102945000D03*
%TD*%
%TO.C,S5*%
X136865000Y-105485000D03*
X149792000Y-102945000D03*
%TD*%
%TO.C,S8*%
X98765000Y-124535000D03*
X111692000Y-121995000D03*
%TD*%
%TO.C,S1*%
X136865000Y-67385000D03*
X149792000Y-64845000D03*
%TD*%
%TO.C,S18*%
X98765000Y-162635000D03*
X111692000Y-160095000D03*
%TD*%
%TO.C,S19*%
X117815000Y-162635000D03*
X130742000Y-160095000D03*
%TD*%
%TO.C,S24*%
X136865000Y-172160000D03*
X149792000Y-169620000D03*
%TD*%
%TO.C,S17*%
X79715000Y-162635000D03*
X92642000Y-160095000D03*
%TD*%
%TO.C,S12*%
X79715000Y-143585000D03*
X92642000Y-141045000D03*
%TD*%
%TO.C,S9*%
X117815000Y-124535000D03*
X130742000Y-121995000D03*
%TD*%
%TO.C,S13*%
X98765000Y-143585000D03*
X111692000Y-141045000D03*
%TD*%
%TO.C,S4*%
X117815000Y-105485000D03*
X130742000Y-102945000D03*
%TD*%
D11*
%TO.C,D12*%
X111900000Y-152265000D03*
X111900000Y-149465000D03*
%TD*%
%TO.C,D21*%
X102375000Y-190365000D03*
X102375000Y-187565000D03*
%TD*%
D12*
%TO.C,R3*%
X80530000Y-131512500D03*
X80530000Y-133337500D03*
%TD*%
D11*
%TO.C,D16*%
X92850000Y-171315000D03*
X92850000Y-168515000D03*
%TD*%
%TO.C,D4*%
X130950000Y-114165000D03*
X130950000Y-111365000D03*
%TD*%
D12*
%TO.C,R18*%
X80530000Y-169612500D03*
X80530000Y-171437500D03*
%TD*%
D11*
%TO.C,D1*%
X92850000Y-133215000D03*
X92850000Y-130415000D03*
%TD*%
D12*
%TO.C,R11*%
X137680000Y-141037500D03*
X137680000Y-142862500D03*
%TD*%
%TO.C,R6*%
X118630000Y-112462500D03*
X118630000Y-114287500D03*
%TD*%
D11*
%TO.C,D9*%
X150000000Y-142740000D03*
X150000000Y-139940000D03*
%TD*%
%TO.C,D11*%
X92850000Y-152265000D03*
X92850000Y-149465000D03*
%TD*%
%TO.C,D7*%
X111900000Y-133215000D03*
X111900000Y-130415000D03*
%TD*%
D12*
%TO.C,R19*%
X99580000Y-169612500D03*
X99580000Y-171437500D03*
%TD*%
%TO.C,R9*%
X99580000Y-131512500D03*
X99580000Y-133337500D03*
%TD*%
%TO.C,R23*%
X90055000Y-188662500D03*
X90055000Y-190487500D03*
%TD*%
D11*
%TO.C,D2*%
X92850000Y-114165000D03*
X92850000Y-111365000D03*
%TD*%
D12*
%TO.C,R24*%
X118630000Y-188662500D03*
X118630000Y-190487500D03*
%TD*%
D11*
%TO.C,D18*%
X130950000Y-171315000D03*
X130950000Y-168515000D03*
%TD*%
D12*
%TO.C,R20*%
X118630000Y-169612500D03*
X118630000Y-171437500D03*
%TD*%
D11*
%TO.C,D23*%
X150000000Y-180840000D03*
X150000000Y-178040000D03*
%TD*%
D12*
%TO.C,R10*%
X118630000Y-131512500D03*
X118630000Y-133337500D03*
%TD*%
D11*
%TO.C,D22*%
X130950000Y-190365000D03*
X130950000Y-187565000D03*
%TD*%
%TO.C,D17*%
X111900000Y-171315000D03*
X111900000Y-168515000D03*
%TD*%
%TO.C,D8*%
X130950000Y-133215000D03*
X130950000Y-130415000D03*
%TD*%
D12*
%TO.C,R25*%
X137680000Y-179137500D03*
X137680000Y-180962500D03*
%TD*%
%TO.C,R7*%
X137680000Y-112462500D03*
X137680000Y-114287500D03*
%TD*%
%TO.C,R13*%
X80530000Y-150562500D03*
X80530000Y-152387500D03*
%TD*%
D11*
%TO.C,D3*%
X111900000Y-114165000D03*
X111900000Y-111365000D03*
%TD*%
%TO.C,D5*%
X150000000Y-114165000D03*
X150000000Y-111365000D03*
%TD*%
%TO.C,D13*%
X130950000Y-152265000D03*
X130950000Y-149465000D03*
%TD*%
D12*
%TO.C,R4*%
X80530000Y-112462500D03*
X80530000Y-114287500D03*
%TD*%
%TO.C,R8*%
X137680000Y-74362500D03*
X137680000Y-76187500D03*
%TD*%
%TO.C,R5*%
X99580000Y-112462500D03*
X99580000Y-114287500D03*
%TD*%
D13*
%TO.C,J1*%
X74965000Y-42335000D03*
X74965000Y-46335000D03*
X74965000Y-39335000D03*
X81465000Y-47435000D03*
%TD*%
D12*
%TO.C,R14*%
X99580000Y-150562500D03*
X99580000Y-152387500D03*
%TD*%
%TO.C,R15*%
X118630000Y-150562500D03*
X118630000Y-152387500D03*
%TD*%
M02*
