solid OpenSCAD_Model
  facet normal 0.923878 0.382455 0.0133557
    outer loop
      vertex 9.82843 9.26792 16.2223
      vertex 10.5858 8.00488 0
      vertex 9.82843 9.83442 0
    endloop
  endfacet
  facet normal 0.923877 0.382456 0.0133557
    outer loop
      vertex 10.5858 8.00488 0
      vertex 9.82843 9.26792 16.2223
      vertex 10.5858 7.44061 16.1585
    endloop
  endfacet
  facet normal -0.92388 0.38245 0.0133555
    outer loop
      vertex 3 7.00427 0
      vertex 4.17157 9.26792 16.2223
      vertex 4.17157 9.83442 0
    endloop
  endfacet
  facet normal -0.92388 0.38245 0.0133555
    outer loop
      vertex 4.17157 9.26792 16.2223
      vertex 3 7.00427 0
      vertex 3 6.44122 16.1236
    endloop
  endfacet
  facet normal 0.382665 0.923324 0.0322435
    outer loop
      vertex 8 10.5922 0
      vertex 9.82843 9.26792 16.2223
      vertex 9.82843 9.83442 0
    endloop
  endfacet
  facet normal 0.382676 0.92332 0.0322419
    outer loop
      vertex 9.82843 9.26792 16.2223
      vertex 8 10.5922 0
      vertex 8 10.0248 16.2488
    endloop
  endfacet
  facet normal -0.382676 0.92332 0.0322419
    outer loop
      vertex 6 10.5922 0
      vertex 4.17157 9.26792 16.2223
      vertex 6 10.0248 16.2488
    endloop
  endfacet
  facet normal -0.382665 0.923324 0.0322435
    outer loop
      vertex 4.17157 9.26792 16.2223
      vertex 6 10.5922 0
      vertex 4.17157 9.83442 0
    endloop
  endfacet
  facet normal 0.382684 -0.923317 -0.0322433
    outer loop
      vertex 9.82843 4.17412 0
      vertex 7 2.44365 15.984
      vertex 7 3.00183 0
    endloop
  endfacet
  facet normal 0.382683 -0.923317 -0.0322434
    outer loop
      vertex 7 2.44365 15.984
      vertex 9.82843 4.17412 0
      vertex 9.82843 3.61451 16.0249
    endloop
  endfacet
  facet normal -0.92388 -0.38245 -0.0133555
    outer loop
      vertex 4.17157 4.17412 0
      vertex 3 6.44122 16.1236
      vertex 3 7.00427 0
    endloop
  endfacet
  facet normal -0.92388 -0.382449 -0.0133556
    outer loop
      vertex 3 6.44122 16.1236
      vertex 4.17157 4.17412 0
      vertex 4.17157 3.61451 16.0249
    endloop
  endfacet
  facet normal 0.923878 -0.382455 -0.0133556
    outer loop
      vertex 10.5858 5.44183 16.0887
      vertex 9.82843 4.17412 0
      vertex 10.5858 6.00366 0
    endloop
  endfacet
  facet normal 0.923878 -0.382454 -0.0133558
    outer loop
      vertex 9.82843 4.17412 0
      vertex 10.5858 5.44183 16.0887
      vertex 9.82843 3.61451 16.0249
    endloop
  endfacet
  facet normal -0.382683 -0.923317 -0.0322434
    outer loop
      vertex 4.17157 4.17412 0
      vertex 7 2.44365 15.984
      vertex 4.17157 3.61451 16.0249
    endloop
  endfacet
  facet normal -0.382684 -0.923317 -0.0322433
    outer loop
      vertex 7 2.44365 15.984
      vertex 4.17157 4.17412 0
      vertex 7 3.00183 0
    endloop
  endfacet
  facet normal 0 -0.0347616 0.999396
    outer loop
      vertex 6 10.0248 16.2488
      vertex 8 10.0248 16.2488
      vertex 8 10.4388 16.2632
    endloop
  endfacet
  facet normal 0 -0.0347616 0.999396
    outer loop
      vertex 6 10.0248 16.2488
      vertex 8 10.4388 16.2632
      vertex 6 10.4388 16.2632
    endloop
  endfacet
  facet normal 0 -0.034928 0.99939
    outer loop
      vertex 8 10.0248 16.2488
      vertex 6 10.0248 16.2488
      vertex 7 8.26511 16.1873
    endloop
  endfacet
  facet normal 4.40656e-05 -0.034903 0.999391
    outer loop
      vertex 6 10.0248 16.2488
      vertex 5.70953 7.7309 16.1687
      vertex 7 8.26511 16.1873
    endloop
  endfacet
  facet normal -4.08021e-05 -0.0348923 0.999391
    outer loop
      vertex 4.17157 9.26792 16.2223
      vertex 5.70953 7.7309 16.1687
      vertex 6 10.0248 16.2488
    endloop
  endfacet
  facet normal -6.86746e-05 -0.0349201 0.99939
    outer loop
      vertex 5.70953 7.7309 16.1687
      vertex 4.17157 9.26792 16.2223
      vertex 5.175 6.44122 16.1236
    endloop
  endfacet
  facet normal 0 -0.0349 0.999391
    outer loop
      vertex 10.5858 7.44061 16.1585
      vertex 11 5.44183 16.0887
      vertex 11 7.44061 16.1585
    endloop
  endfacet
  facet normal 0 -0.0349 0.999391
    outer loop
      vertex 10.5858 7.44061 16.1585
      vertex 10.5858 5.44183 16.0887
      vertex 11 5.44183 16.0887
    endloop
  endfacet
  facet normal 2.96869e-05 -0.0348812 0.999391
    outer loop
      vertex 8.29047 7.7309 16.1687
      vertex 10.5858 7.44061 16.1585
      vertex 9.82843 9.26792 16.2223
    endloop
  endfacet
  facet normal 0 -0.0349 0.999391
    outer loop
      vertex 10.5858 7.44061 16.1585
      vertex 8.825 6.44122 16.1236
      vertex 10.5858 5.44183 16.0887
    endloop
  endfacet
  facet normal 1.34071e-05 -0.0348764 0.999392
    outer loop
      vertex 8.29047 5.15153 16.0786
      vertex 10.5858 5.44183 16.0887
      vertex 8.825 6.44122 16.1236
    endloop
  endfacet
  facet normal 2.23234e-05 -0.0349393 0.999389
    outer loop
      vertex 10.5858 7.44061 16.1585
      vertex 8.29047 7.7309 16.1687
      vertex 8.825 6.44122 16.1236
    endloop
  endfacet
  facet normal 4.08021e-05 -0.0348923 0.999391
    outer loop
      vertex 8 10.0248 16.2488
      vertex 8.29047 7.7309 16.1687
      vertex 9.82843 9.26792 16.2223
    endloop
  endfacet
  facet normal -4.40656e-05 -0.034903 0.999391
    outer loop
      vertex 8.29047 7.7309 16.1687
      vertex 8 10.0248 16.2488
      vertex 7 8.26511 16.1873
    endloop
  endfacet
  facet normal 1.63969e-05 -0.0349 0.999391
    outer loop
      vertex 10.5858 5.44183 16.0887
      vertex 8.29047 5.15153 16.0786
      vertex 9.82843 3.61451 16.0249
    endloop
  endfacet
  facet normal -1.9857e-05 -0.0349363 0.99939
    outer loop
      vertex 7 4.61733 16.0599
      vertex 9.82843 3.61451 16.0249
      vertex 8.29047 5.15153 16.0786
    endloop
  endfacet
  facet normal -5.72803e-06 -0.0348965 0.999391
    outer loop
      vertex 7 4.61733 16.0599
      vertex 7 2.44365 15.984
      vertex 9.82843 3.61451 16.0249
    endloop
  endfacet
  facet normal 3.63534e-05 -0.0348965 0.999391
    outer loop
      vertex 5.70953 5.15153 16.0786
      vertex 7 2.44365 15.984
      vertex 7 4.61733 16.0599
    endloop
  endfacet
  facet normal -1.79849e-06 -0.0349146 0.99939
    outer loop
      vertex 5.70953 5.15153 16.0786
      vertex 4.17157 3.61451 16.0249
      vertex 7 2.44365 15.984
    endloop
  endfacet
  facet normal -3.22266e-05 -0.0348842 0.999391
    outer loop
      vertex 5.175 6.44122 16.1236
      vertex 4.17157 3.61451 16.0249
      vertex 5.70953 5.15153 16.0786
    endloop
  endfacet
  facet normal 0 -0.0348958 0.999391
    outer loop
      vertex 3 6.44122 16.1236
      vertex 5.175 6.44122 16.1236
      vertex 4.17157 9.26792 16.2223
    endloop
  endfacet
  facet normal 0 -0.0348957 0.999391
    outer loop
      vertex 5.175 6.44122 16.1236
      vertex 3 6.44122 16.1236
      vertex 4.17157 3.61451 16.0249
    endloop
  endfacet
  facet normal -0 0.999391 0.0348997
    outer loop
      vertex 10.5858 8.00488 0
      vertex 11 7.44061 16.1585
      vertex 15.0421 8.00488 0
    endloop
  endfacet
  facet normal 0 0.999391 0.0348997
    outer loop
      vertex 11 7.44061 16.1585
      vertex 10.5858 8.00488 0
      vertex 10.5858 7.44061 16.1585
    endloop
  endfacet
  facet normal 0.970142 -0.00848357 0.242388
    outer loop
      vertex 11 7.44061 16.1585
      vertex 15.0246 6.00366 0
      vertex 15.0421 8.00488 0
    endloop
  endfacet
  facet normal 0.970143 -0.00846445 0.242386
    outer loop
      vertex 15.0246 6.00366 0
      vertex 11 7.44061 16.1585
      vertex 11 5.44183 16.0887
    endloop
  endfacet
  facet normal 0 -0.999391 -0.0348995
    outer loop
      vertex 10.5858 6.00366 0
      vertex 11 5.44183 16.0887
      vertex 10.5858 5.44183 16.0887
    endloop
  endfacet
  facet normal 0 -0.999391 -0.0348995
    outer loop
      vertex 11 5.44183 16.0887
      vertex 10.5858 6.00366 0
      vertex 15.0246 6.00366 0
    endloop
  endfacet
  facet normal 0 0.961088 0.276244
    outer loop
      vertex 8 15.1133 0
      vertex 6 10.4388 16.2632
      vertex 8 10.4388 16.2632
    endloop
  endfacet
  facet normal 0 0.961088 0.276244
    outer loop
      vertex 6 10.4388 16.2632
      vertex 8 15.1133 0
      vertex 6 15.1133 0
    endloop
  endfacet
  facet normal -1 0 0
    outer loop
      vertex 6 10.5922 0
      vertex 6 10.4388 16.2632
      vertex 6 15.1133 0
    endloop
  endfacet
  facet normal -1 0 -0
    outer loop
      vertex 6 10.4388 16.2632
      vertex 6 10.5922 0
      vertex 6 10.0248 16.2488
    endloop
  endfacet
  facet normal 1 0 0
    outer loop
      vertex 8 10.4388 16.2632
      vertex 8 10.5922 0
      vertex 8 15.1133 0
    endloop
  endfacet
  facet normal 1 0 0
    outer loop
      vertex 8 10.5922 0
      vertex 8 10.4388 16.2632
      vertex 8 10.0248 16.2488
    endloop
  endfacet
  facet normal 0.923911 0.382373 0.0133615
    outer loop
      vertex 9.82843 143.773 20.9194
      vertex 10.5858 142.674 0
      vertex 9.82843 144.504 0
    endloop
  endfacet
  facet normal 0.923854 0.382511 0.0133522
    outer loop
      vertex 10.5858 142.674 0
      vertex 9.82843 143.773 20.9194
      vertex 10.5858 141.946 20.8556
    endloop
  endfacet
  facet normal -0.923873 0.382467 0.0133648
    outer loop
      vertex 3 141.674 0
      vertex 4.17157 143.773 20.9194
      vertex 4.17157 144.504 0
    endloop
  endfacet
  facet normal -0.923846 0.382531 0.0133569
    outer loop
      vertex 4.17157 143.773 20.9194
      vertex 3 141.674 0
      vertex 3 140.947 20.8207
    endloop
  endfacet
  facet normal 0.382603 0.923349 0.0322652
    outer loop
      vertex 7 145.676 0
      vertex 9.82843 143.773 20.9194
      vertex 9.82843 144.504 0
    endloop
  endfacet
  facet normal 0.382722 0.9233 0.0322446
    outer loop
      vertex 9.82843 143.773 20.9194
      vertex 7 145.676 0
      vertex 7 144.944 20.9603
    endloop
  endfacet
  facet normal -3.74073e-05 -0.0349006 0.999391
    outer loop
      vertex 5.70953 139.657 20.7756
      vertex 6 137.363 20.6955
      vertex 7 139.123 20.757
    endloop
  endfacet
  facet normal 1.62793e-05 -0.0349332 0.99939
    outer loop
      vertex 4.17157 138.12 20.7219
      vertex 5.70953 139.657 20.7756
      vertex 5.175 140.947 20.8207
    endloop
  endfacet
  facet normal 0 -0.0349044 0.999391
    outer loop
      vertex 3 140.947 20.8207
      vertex 5.175 140.947 20.8207
      vertex 4.17157 143.773 20.9194
    endloop
  endfacet
  facet normal 0 -0.0349274 0.99939
    outer loop
      vertex 4.17157 138.12 20.7219
      vertex 5.175 140.947 20.8207
      vertex 3 140.947 20.8207
    endloop
  endfacet
  facet normal -1.86323e-05 -0.0348983 0.999391
    outer loop
      vertex 5.70953 139.657 20.7756
      vertex 4.17157 138.12 20.7219
      vertex 6 137.363 20.6955
    endloop
  endfacet
  facet normal 0 -0.0348962 0.999391
    outer loop
      vertex 10.5858 141.946 20.8556
      vertex 11 139.947 20.7858
      vertex 11 141.946 20.8556
    endloop
  endfacet
  facet normal 0 -0.0348962 0.999391
    outer loop
      vertex 10.5858 141.946 20.8556
      vertex 10.5858 139.947 20.7858
      vertex 11 139.947 20.7858
    endloop
  endfacet
  facet normal -1.23983e-05 -0.0349045 0.999391
    outer loop
      vertex 8.29047 142.236 20.8657
      vertex 10.5858 141.946 20.8556
      vertex 9.82843 143.773 20.9194
    endloop
  endfacet
  facet normal -9.90919e-06 -0.0348962 0.999391
    outer loop
      vertex 10.5858 141.946 20.8556
      vertex 8.825 140.947 20.8207
      vertex 10.5858 139.947 20.7858
    endloop
  endfacet
  facet normal -2.81372e-05 -0.0349282 0.99939
    outer loop
      vertex 8.29047 139.657 20.7756
      vertex 10.5858 139.947 20.7858
      vertex 8.825 140.947 20.8207
    endloop
  endfacet
  facet normal -1.10859e-05 -0.0348941 0.999391
    outer loop
      vertex 10.5858 141.946 20.8556
      vertex 8.29047 142.236 20.8657
      vertex 8.825 140.947 20.8207
    endloop
  endfacet
  facet normal -3.15345e-06 -0.0349137 0.99939
    outer loop
      vertex 7 144.944 20.9603
      vertex 8.29047 142.236 20.8657
      vertex 9.82843 143.773 20.9194
    endloop
  endfacet
  facet normal -8.63179e-05 -0.0349533 0.999389
    outer loop
      vertex 7 144.944 20.9603
      vertex 7 142.771 20.8843
      vertex 8.29047 142.236 20.8657
    endloop
  endfacet
  facet normal 8.63179e-05 -0.0349533 0.999389
    outer loop
      vertex 7 144.944 20.9603
      vertex 5.70953 142.236 20.8657
      vertex 7 142.771 20.8843
    endloop
  endfacet
  facet normal 1.93534e-05 -0.0348975 0.999391
    outer loop
      vertex 5.70953 142.236 20.8657
      vertex 4.17157 143.773 20.9194
      vertex 5.175 140.947 20.8207
    endloop
  endfacet
  facet normal 3.15345e-06 -0.0349137 0.99939
    outer loop
      vertex 4.17157 143.773 20.9194
      vertex 5.70953 142.236 20.8657
      vertex 7 144.944 20.9603
    endloop
  endfacet
  facet normal -2.62552e-05 -0.0349431 0.999389
    outer loop
      vertex 10.5858 139.947 20.7858
      vertex 8.29047 139.657 20.7756
      vertex 9.82843 138.12 20.7219
    endloop
  endfacet
  facet normal 1.86323e-05 -0.0348983 0.999391
    outer loop
      vertex 8.29047 139.657 20.7756
      vertex 8 137.363 20.6955
      vertex 9.82843 138.12 20.7219
    endloop
  endfacet
  facet normal 3.74073e-05 -0.0349006 0.999391
    outer loop
      vertex 7 139.123 20.757
      vertex 8 137.363 20.6955
      vertex 8.29047 139.657 20.7756
    endloop
  endfacet
  facet normal 0 -0.0349219 0.99939
    outer loop
      vertex 6 137.363 20.6955
      vertex 8 137.363 20.6955
      vertex 7 139.123 20.757
    endloop
  endfacet
  facet normal 0 -0.0347616 0.999396
    outer loop
      vertex 8 137.363 20.6955
      vertex 6 137.363 20.6955
      vertex 8 136.949 20.6811
    endloop
  endfacet
  facet normal 0 -0.0347616 0.999396
    outer loop
      vertex 8 136.949 20.6811
      vertex 6 137.363 20.6955
      vertex 6 136.949 20.6811
    endloop
  endfacet
  facet normal -0.382722 0.9233 0.0322446
    outer loop
      vertex 7 145.676 0
      vertex 4.17157 143.773 20.9194
      vertex 7 144.944 20.9603
    endloop
  endfacet
  facet normal -0.382603 0.923349 0.0322652
    outer loop
      vertex 4.17157 143.773 20.9194
      vertex 7 145.676 0
      vertex 4.17157 144.504 0
    endloop
  endfacet
  facet normal 0.38276 -0.923285 -0.0322551
    outer loop
      vertex 9.82843 138.844 0
      vertex 8 137.363 20.6955
      vertex 8 138.086 0
    endloop
  endfacet
  facet normal 0.382726 -0.923298 -0.032259
    outer loop
      vertex 8 137.363 20.6955
      vertex 9.82843 138.844 0
      vertex 9.82843 138.12 20.7219
    endloop
  endfacet
  facet normal -0.923873 -0.382467 -0.0133547
    outer loop
      vertex 4.17157 138.844 0
      vertex 3 140.947 20.8207
      vertex 3 141.674 0
    endloop
  endfacet
  facet normal -0.923894 -0.382415 -0.0133611
    outer loop
      vertex 3 140.947 20.8207
      vertex 4.17157 138.844 0
      vertex 4.17157 138.12 20.7219
    endloop
  endfacet
  facet normal -0.382726 -0.923298 -0.032259
    outer loop
      vertex 4.17157 138.844 0
      vertex 6 137.363 20.6955
      vertex 4.17157 138.12 20.7219
    endloop
  endfacet
  facet normal -0.38276 -0.923285 -0.0322551
    outer loop
      vertex 6 137.363 20.6955
      vertex 4.17157 138.844 0
      vertex 6 138.086 0
    endloop
  endfacet
  facet normal 0.923838 -0.382552 -0.0133616
    outer loop
      vertex 10.5858 139.947 20.7858
      vertex 9.82843 138.844 0
      vertex 10.5858 140.673 0
    endloop
  endfacet
  facet normal 0.923855 -0.38251 -0.0133645
    outer loop
      vertex 9.82843 138.844 0
      vertex 10.5858 139.947 20.7858
      vertex 9.82843 138.12 20.7219
    endloop
  endfacet
  facet normal -0 0.999391 0.0348854
    outer loop
      vertex 10.5858 142.674 0
      vertex 11 141.946 20.8556
      vertex 16.2171 142.674 0
    endloop
  endfacet
  facet normal 0 0.999391 0.0348854
    outer loop
      vertex 11 141.946 20.8556
      vertex 10.5858 142.674 0
      vertex 10.5858 141.946 20.8556
    endloop
  endfacet
  facet normal 0.970142 -0.0084845 0.242388
    outer loop
      vertex 11 141.946 20.8556
      vertex 16.1996 140.673 0
      vertex 16.2171 142.674 0
    endloop
  endfacet
  facet normal 0.970143 -0.00846354 0.242387
    outer loop
      vertex 16.1996 140.673 0
      vertex 11 141.946 20.8556
      vertex 11 139.947 20.7858
    endloop
  endfacet
  facet normal 0 -0.999391 -0.0349064
    outer loop
      vertex 10.5858 140.673 0
      vertex 11 139.947 20.7858
      vertex 10.5858 139.947 20.7858
    endloop
  endfacet
  facet normal 0 -0.999391 -0.0349064
    outer loop
      vertex 11 139.947 20.7858
      vertex 10.5858 140.673 0
      vertex 16.1996 140.673 0
    endloop
  endfacet
  facet normal 1 -0 0
    outer loop
      vertex 8 136.949 20.6811
      vertex 8 138.086 0
      vertex 8 137.363 20.6955
    endloop
  endfacet
  facet normal 1 0 0
    outer loop
      vertex 8 138.086 0
      vertex 8 136.949 20.6811
      vertex 8 132.54 0
    endloop
  endfacet
  facet normal 0 -0.978021 0.208504
    outer loop
      vertex 6 132.54 0
      vertex 8 136.949 20.6811
      vertex 6 136.949 20.6811
    endloop
  endfacet
  facet normal 0 -0.978021 0.208504
    outer loop
      vertex 8 136.949 20.6811
      vertex 6 132.54 0
      vertex 8 132.54 0
    endloop
  endfacet
  facet normal -1 0 0
    outer loop
      vertex 6 138.086 0
      vertex 6 136.949 20.6811
      vertex 6 137.363 20.6955
    endloop
  endfacet
  facet normal -1 0 -0
    outer loop
      vertex 6 136.949 20.6811
      vertex 6 138.086 0
      vertex 6 132.54 0
    endloop
  endfacet
  facet normal 0.923869 0.382475 0.0133651
    outer loop
      vertex 92.0284 143.773 20.9194
      vertex 93.2 141.674 0
      vertex 92.0284 144.504 0
    endloop
  endfacet
  facet normal 0.923843 0.382539 0.0133572
    outer loop
      vertex 93.2 141.674 0
      vertex 92.0284 143.773 20.9194
      vertex 93.2 140.947 20.8207
    endloop
  endfacet
  facet normal -0.923906 0.382386 0.013362
    outer loop
      vertex 85.6142 142.674 0
      vertex 86.3716 143.773 20.9194
      vertex 86.3716 144.504 0
    endloop
  endfacet
  facet normal -0.923849 0.382524 0.0133526
    outer loop
      vertex 86.3716 143.773 20.9194
      vertex 85.6142 142.674 0
      vertex 85.6142 141.946 20.8556
    endloop
  endfacet
  facet normal 0.382606 0.923348 0.0322651
    outer loop
      vertex 89.2 145.676 0
      vertex 92.0284 143.773 20.9194
      vertex 92.0284 144.504 0
    endloop
  endfacet
  facet normal 0.382726 0.923299 0.0322445
    outer loop
      vertex 92.0284 143.773 20.9194
      vertex 89.2 145.676 0
      vertex 89.2 144.944 20.9603
    endloop
  endfacet
  facet normal -3.74066e-05 -0.0349006 0.999391
    outer loop
      vertex 87.9095 139.657 20.7756
      vertex 88.2 137.363 20.6955
      vertex 89.2 139.123 20.757
    endloop
  endfacet
  facet normal 2.81375e-05 -0.0349282 0.99939
    outer loop
      vertex 85.6142 139.947 20.7858
      vertex 87.9095 139.657 20.7756
      vertex 87.375 140.947 20.8207
    endloop
  endfacet
  facet normal 1.1086e-05 -0.0348941 0.999391
    outer loop
      vertex 87.9095 142.236 20.8657
      vertex 85.6142 141.946 20.8556
      vertex 87.375 140.947 20.8207
    endloop
  endfacet
  facet normal 9.90919e-06 -0.0348962 0.999391
    outer loop
      vertex 85.6142 139.947 20.7858
      vertex 87.375 140.947 20.8207
      vertex 85.6142 141.946 20.8556
    endloop
  endfacet
  facet normal 2.62556e-05 -0.0349431 0.999389
    outer loop
      vertex 87.9095 139.657 20.7756
      vertex 85.6142 139.947 20.7858
      vertex 86.3716 138.12 20.7219
    endloop
  endfacet
  facet normal -1.86328e-05 -0.0348983 0.999391
    outer loop
      vertex 87.9095 139.657 20.7756
      vertex 86.3716 138.12 20.7219
      vertex 88.2 137.363 20.6955
    endloop
  endfacet
  facet normal 0 -0.0348962 0.999391
    outer loop
      vertex 85.2 141.946 20.8556
      vertex 85.6142 139.947 20.7858
      vertex 85.6142 141.946 20.8556
    endloop
  endfacet
  facet normal 0 -0.0348962 0.999391
    outer loop
      vertex 85.6142 139.947 20.7858
      vertex 85.2 141.946 20.8556
      vertex 85.2 139.947 20.7858
    endloop
  endfacet
  facet normal 0 -0.0349044 0.999391
    outer loop
      vertex 91.025 140.947 20.8207
      vertex 93.2 140.947 20.8207
      vertex 92.0284 143.773 20.9194
    endloop
  endfacet
  facet normal 0 -0.0349274 0.99939
    outer loop
      vertex 93.2 140.947 20.8207
      vertex 91.025 140.947 20.8207
      vertex 92.0284 138.12 20.7219
    endloop
  endfacet
  facet normal -1.93542e-05 -0.0348975 0.999391
    outer loop
      vertex 92.0284 143.773 20.9194
      vertex 90.4905 142.236 20.8657
      vertex 91.025 140.947 20.8207
    endloop
  endfacet
  facet normal -3.15351e-06 -0.0349137 0.99939
    outer loop
      vertex 89.2 144.944 20.9603
      vertex 90.4905 142.236 20.8657
      vertex 92.0284 143.773 20.9194
    endloop
  endfacet
  facet normal -8.63159e-05 -0.0349533 0.999389
    outer loop
      vertex 89.2 144.944 20.9603
      vertex 89.2 142.771 20.8843
      vertex 90.4905 142.236 20.8657
    endloop
  endfacet
  facet normal 8.63159e-05 -0.0349533 0.999389
    outer loop
      vertex 89.2 144.944 20.9603
      vertex 87.9095 142.236 20.8657
      vertex 89.2 142.771 20.8843
    endloop
  endfacet
  facet normal 1.23985e-05 -0.0349045 0.999391
    outer loop
      vertex 85.6142 141.946 20.8556
      vertex 87.9095 142.236 20.8657
      vertex 86.3716 143.773 20.9194
    endloop
  endfacet
  facet normal 3.15351e-06 -0.0349137 0.99939
    outer loop
      vertex 86.3716 143.773 20.9194
      vertex 87.9095 142.236 20.8657
      vertex 89.2 144.944 20.9603
    endloop
  endfacet
  facet normal -1.628e-05 -0.0349332 0.99939
    outer loop
      vertex 90.4905 139.657 20.7756
      vertex 92.0284 138.12 20.7219
      vertex 91.025 140.947 20.8207
    endloop
  endfacet
  facet normal 1.86328e-05 -0.0348983 0.999391
    outer loop
      vertex 90.4905 139.657 20.7756
      vertex 90.2 137.363 20.6955
      vertex 92.0284 138.12 20.7219
    endloop
  endfacet
  facet normal 3.74066e-05 -0.0349006 0.999391
    outer loop
      vertex 89.2 139.123 20.757
      vertex 90.2 137.363 20.6955
      vertex 90.4905 139.657 20.7756
    endloop
  endfacet
  facet normal 0 -0.0349219 0.99939
    outer loop
      vertex 88.2 137.363 20.6955
      vertex 90.2 137.363 20.6955
      vertex 89.2 139.123 20.757
    endloop
  endfacet
  facet normal 0 -0.0347616 0.999396
    outer loop
      vertex 90.2 137.363 20.6955
      vertex 88.2 137.363 20.6955
      vertex 90.2 136.949 20.6811
    endloop
  endfacet
  facet normal 0 -0.0347616 0.999396
    outer loop
      vertex 90.2 136.949 20.6811
      vertex 88.2 137.363 20.6955
      vertex 88.2 136.949 20.6811
    endloop
  endfacet
  facet normal -0.382726 0.923299 0.0322445
    outer loop
      vertex 89.2 145.676 0
      vertex 86.3716 143.773 20.9194
      vertex 89.2 144.944 20.9603
    endloop
  endfacet
  facet normal -0.382606 0.923348 0.0322651
    outer loop
      vertex 86.3716 143.773 20.9194
      vertex 89.2 145.676 0
      vertex 86.3716 144.504 0
    endloop
  endfacet
  facet normal 0.382765 -0.923282 -0.032255
    outer loop
      vertex 92.0284 138.844 0
      vertex 90.2 137.363 20.6955
      vertex 90.2 138.086 0
    endloop
  endfacet
  facet normal 0.382732 -0.923296 -0.0322589
    outer loop
      vertex 90.2 137.363 20.6955
      vertex 92.0284 138.844 0
      vertex 92.0284 138.12 20.7219
    endloop
  endfacet
  facet normal -0.923832 -0.382565 -0.0133621
    outer loop
      vertex 86.3716 138.844 0
      vertex 85.6142 139.947 20.7858
      vertex 85.6142 140.673 0
    endloop
  endfacet
  facet normal -0.923849 -0.382523 -0.0133649
    outer loop
      vertex 85.6142 139.947 20.7858
      vertex 86.3716 138.844 0
      vertex 86.3716 138.12 20.7219
    endloop
  endfacet
  facet normal 0.923869 -0.382475 -0.013355
    outer loop
      vertex 93.2 140.947 20.8207
      vertex 92.0284 138.844 0
      vertex 93.2 141.674 0
    endloop
  endfacet
  facet normal 0.923891 -0.382423 -0.0133614
    outer loop
      vertex 92.0284 138.844 0
      vertex 93.2 140.947 20.8207
      vertex 92.0284 138.12 20.7219
    endloop
  endfacet
  facet normal -0.382732 -0.923296 -0.0322589
    outer loop
      vertex 86.3716 138.844 0
      vertex 88.2 137.363 20.6955
      vertex 86.3716 138.12 20.7219
    endloop
  endfacet
  facet normal -0.382765 -0.923282 -0.032255
    outer loop
      vertex 88.2 137.363 20.6955
      vertex 86.3716 138.844 0
      vertex 88.2 138.086 0
    endloop
  endfacet
  facet normal -0 -0.999391 -0.0349064
    outer loop
      vertex 85.6142 140.673 0
      vertex 85.2 139.947 20.7858
      vertex 80.0004 140.673 0
    endloop
  endfacet
  facet normal 0 -0.999391 -0.0349064
    outer loop
      vertex 85.2 139.947 20.7858
      vertex 85.6142 140.673 0
      vertex 85.6142 139.947 20.7858
    endloop
  endfacet
  facet normal -0.970142 -0.0084845 0.242388
    outer loop
      vertex 80.0004 140.673 0
      vertex 85.2 141.946 20.8556
      vertex 79.9829 142.674 0
    endloop
  endfacet
  facet normal -0.970143 -0.00846354 0.242387
    outer loop
      vertex 85.2 141.946 20.8556
      vertex 80.0004 140.673 0
      vertex 85.2 139.947 20.7858
    endloop
  endfacet
  facet normal 0 0.999391 0.0348854
    outer loop
      vertex 85.6142 142.674 0
      vertex 85.2 141.946 20.8556
      vertex 85.6142 141.946 20.8556
    endloop
  endfacet
  facet normal 0 0.999391 0.0348854
    outer loop
      vertex 85.2 141.946 20.8556
      vertex 85.6142 142.674 0
      vertex 79.9829 142.674 0
    endloop
  endfacet
  facet normal 1 -0 0
    outer loop
      vertex 90.2 136.949 20.6811
      vertex 90.2 138.086 0
      vertex 90.2 137.363 20.6955
    endloop
  endfacet
  facet normal 1 0 0
    outer loop
      vertex 90.2 138.086 0
      vertex 90.2 136.949 20.6811
      vertex 90.2 132.54 0
    endloop
  endfacet
  facet normal 0 -0.978021 0.208504
    outer loop
      vertex 88.2 132.54 0
      vertex 90.2 136.949 20.6811
      vertex 88.2 136.949 20.6811
    endloop
  endfacet
  facet normal 0 -0.978021 0.208504
    outer loop
      vertex 90.2 136.949 20.6811
      vertex 88.2 132.54 0
      vertex 90.2 132.54 0
    endloop
  endfacet
  facet normal -1 0 0
    outer loop
      vertex 88.2 138.086 0
      vertex 88.2 136.949 20.6811
      vertex 88.2 137.363 20.6955
    endloop
  endfacet
  facet normal -1 0 -0
    outer loop
      vertex 88.2 136.949 20.6811
      vertex 88.2 138.086 0
      vertex 88.2 132.54 0
    endloop
  endfacet
  facet normal 0.923876 0.382458 0.0133558
    outer loop
      vertex 92.0284 9.26792 16.2223
      vertex 93.2 7.00427 0
      vertex 92.0284 9.83442 0
    endloop
  endfacet
  facet normal 0.923876 0.382458 0.0133558
    outer loop
      vertex 93.2 7.00427 0
      vertex 92.0284 9.26792 16.2223
      vertex 93.2 6.44122 16.1236
    endloop
  endfacet
  facet normal -0.923872 0.382468 0.0133562
    outer loop
      vertex 85.6142 8.00488 0
      vertex 86.3716 9.26792 16.2223
      vertex 86.3716 9.83442 0
    endloop
  endfacet
  facet normal -0.923872 0.382469 0.0133562
    outer loop
      vertex 86.3716 9.26792 16.2223
      vertex 85.6142 8.00488 0
      vertex 85.6142 7.44061 16.1585
    endloop
  endfacet
  facet normal 0.382671 0.923322 0.0322434
    outer loop
      vertex 90.2 10.5922 0
      vertex 92.0284 9.26792 16.2223
      vertex 92.0284 9.83442 0
    endloop
  endfacet
  facet normal 0.382682 0.923318 0.0322418
    outer loop
      vertex 92.0284 9.26792 16.2223
      vertex 90.2 10.5922 0
      vertex 90.2 10.0248 16.2488
    endloop
  endfacet
  facet normal 0 -0.0347616 0.999396
    outer loop
      vertex 88.2 10.0248 16.2488
      vertex 90.2 10.0248 16.2488
      vertex 90.2 10.4388 16.2632
    endloop
  endfacet
  facet normal 0 -0.0347616 0.999396
    outer loop
      vertex 88.2 10.0248 16.2488
      vertex 90.2 10.4388 16.2632
      vertex 88.2 10.4388 16.2632
    endloop
  endfacet
  facet normal 0 -0.034928 0.99939
    outer loop
      vertex 90.2 10.0248 16.2488
      vertex 88.2 10.0248 16.2488
      vertex 89.2 8.26511 16.1873
    endloop
  endfacet
  facet normal 4.40648e-05 -0.034903 0.999391
    outer loop
      vertex 88.2 10.0248 16.2488
      vertex 87.9095 7.7309 16.1687
      vertex 89.2 8.26511 16.1873
    endloop
  endfacet
  facet normal -4.0803e-05 -0.0348923 0.999391
    outer loop
      vertex 86.3716 9.26792 16.2223
      vertex 87.9095 7.7309 16.1687
      vertex 88.2 10.0248 16.2488
    endloop
  endfacet
  facet normal -2.96873e-05 -0.0348812 0.999391
    outer loop
      vertex 85.6142 7.44061 16.1585
      vertex 87.9095 7.7309 16.1687
      vertex 86.3716 9.26792 16.2223
    endloop
  endfacet
  facet normal 0 -0.0348958 0.999391
    outer loop
      vertex 91.025 6.44122 16.1236
      vertex 93.2 6.44122 16.1236
      vertex 92.0284 9.26792 16.2223
    endloop
  endfacet
  facet normal 0 -0.0348957 0.999391
    outer loop
      vertex 93.2 6.44122 16.1236
      vertex 91.025 6.44122 16.1236
      vertex 92.0284 3.61451 16.0249
    endloop
  endfacet
  facet normal 6.86777e-05 -0.0349201 0.99939
    outer loop
      vertex 92.0284 9.26792 16.2223
      vertex 90.4905 7.7309 16.1687
      vertex 91.025 6.44122 16.1236
    endloop
  endfacet
  facet normal 4.0803e-05 -0.0348923 0.999391
    outer loop
      vertex 90.2 10.0248 16.2488
      vertex 90.4905 7.7309 16.1687
      vertex 92.0284 9.26792 16.2223
    endloop
  endfacet
  facet normal -4.40648e-05 -0.034903 0.999391
    outer loop
      vertex 90.4905 7.7309 16.1687
      vertex 90.2 10.0248 16.2488
      vertex 89.2 8.26511 16.1873
    endloop
  endfacet
  facet normal 3.2228e-05 -0.0348842 0.999391
    outer loop
      vertex 90.4905 5.15153 16.0786
      vertex 92.0284 3.61451 16.0249
      vertex 91.025 6.44122 16.1236
    endloop
  endfacet
  facet normal -1.98569e-05 -0.0349363 0.99939
    outer loop
      vertex 89.2 4.61733 16.0599
      vertex 92.0284 3.61451 16.0249
      vertex 90.4905 5.15153 16.0786
    endloop
  endfacet
  facet normal -5.7281e-06 -0.0348965 0.999391
    outer loop
      vertex 89.2 4.61733 16.0599
      vertex 89.2 2.44365 15.984
      vertex 92.0284 3.61451 16.0249
    endloop
  endfacet
  facet normal 3.63526e-05 -0.0348965 0.999391
    outer loop
      vertex 87.9095 5.15153 16.0786
      vertex 89.2 2.44365 15.984
      vertex 89.2 4.61733 16.0599
    endloop
  endfacet
  facet normal -1.79852e-06 -0.0349146 0.99939
    outer loop
      vertex 87.9095 5.15153 16.0786
      vertex 86.3716 3.61451 16.0249
      vertex 89.2 2.44365 15.984
    endloop
  endfacet
  facet normal -1.34072e-05 -0.0348764 0.999392
    outer loop
      vertex 85.6142 5.44183 16.0887
      vertex 87.9095 5.15153 16.0786
      vertex 87.375 6.44122 16.1236
    endloop
  endfacet
  facet normal -2.23236e-05 -0.0349393 0.999389
    outer loop
      vertex 87.9095 7.7309 16.1687
      vertex 85.6142 7.44061 16.1585
      vertex 87.375 6.44122 16.1236
    endloop
  endfacet
  facet normal 0 -0.0349 0.999391
    outer loop
      vertex 85.6142 5.44183 16.0887
      vertex 87.375 6.44122 16.1236
      vertex 85.6142 7.44061 16.1585
    endloop
  endfacet
  facet normal -1.63971e-05 -0.0349 0.999391
    outer loop
      vertex 87.9095 5.15153 16.0786
      vertex 85.6142 5.44183 16.0887
      vertex 86.3716 3.61451 16.0249
    endloop
  endfacet
  facet normal 0 -0.0349 0.999391
    outer loop
      vertex 85.2 7.44061 16.1585
      vertex 85.6142 5.44183 16.0887
      vertex 85.6142 7.44061 16.1585
    endloop
  endfacet
  facet normal 0 -0.0349 0.999391
    outer loop
      vertex 85.6142 5.44183 16.0887
      vertex 85.2 7.44061 16.1585
      vertex 85.2 5.44183 16.0887
    endloop
  endfacet
  facet normal -0.382682 0.923318 0.0322418
    outer loop
      vertex 88.2 10.5922 0
      vertex 86.3716 9.26792 16.2223
      vertex 88.2 10.0248 16.2488
    endloop
  endfacet
  facet normal -0.382671 0.923322 0.0322434
    outer loop
      vertex 86.3716 9.26792 16.2223
      vertex 88.2 10.5922 0
      vertex 86.3716 9.83442 0
    endloop
  endfacet
  facet normal 0.382687 -0.923315 -0.0322432
    outer loop
      vertex 92.0284 4.17412 0
      vertex 89.2 2.44365 15.984
      vertex 89.2 3.00183 0
    endloop
  endfacet
  facet normal 0.382687 -0.923315 -0.0322433
    outer loop
      vertex 89.2 2.44365 15.984
      vertex 92.0284 4.17412 0
      vertex 92.0284 3.61451 16.0249
    endloop
  endfacet
  facet normal -0.923872 -0.382468 -0.0133561
    outer loop
      vertex 86.3716 4.17412 0
      vertex 85.6142 5.44183 16.0887
      vertex 85.6142 6.00366 0
    endloop
  endfacet
  facet normal -0.923873 -0.382467 -0.0133562
    outer loop
      vertex 85.6142 5.44183 16.0887
      vertex 86.3716 4.17412 0
      vertex 86.3716 3.61451 16.0249
    endloop
  endfacet
  facet normal -0.382687 -0.923315 -0.0322433
    outer loop
      vertex 86.3716 4.17412 0
      vertex 89.2 2.44365 15.984
      vertex 86.3716 3.61451 16.0249
    endloop
  endfacet
  facet normal -0.382687 -0.923315 -0.0322432
    outer loop
      vertex 89.2 2.44365 15.984
      vertex 86.3716 4.17412 0
      vertex 89.2 3.00183 0
    endloop
  endfacet
  facet normal 0.923876 -0.382458 -0.0133558
    outer loop
      vertex 93.2 6.44122 16.1236
      vertex 92.0284 4.17412 0
      vertex 93.2 7.00427 0
    endloop
  endfacet
  facet normal 0.923877 -0.382457 -0.0133559
    outer loop
      vertex 92.0284 4.17412 0
      vertex 93.2 6.44122 16.1236
      vertex 92.0284 3.61451 16.0249
    endloop
  endfacet
  facet normal -0 -0.999391 -0.0348995
    outer loop
      vertex 85.6142 6.00366 0
      vertex 85.2 5.44183 16.0887
      vertex 81.1754 6.00366 0
    endloop
  endfacet
  facet normal 0 -0.999391 -0.0348995
    outer loop
      vertex 85.2 5.44183 16.0887
      vertex 85.6142 6.00366 0
      vertex 85.6142 5.44183 16.0887
    endloop
  endfacet
  facet normal -0.970142 -0.00848357 0.242388
    outer loop
      vertex 81.1754 6.00366 0
      vertex 85.2 7.44061 16.1585
      vertex 81.1579 8.00488 0
    endloop
  endfacet
  facet normal -0.970143 -0.00846445 0.242386
    outer loop
      vertex 85.2 7.44061 16.1585
      vertex 81.1754 6.00366 0
      vertex 85.2 5.44183 16.0887
    endloop
  endfacet
  facet normal 0 0.999391 0.0348997
    outer loop
      vertex 85.6142 8.00488 0
      vertex 85.2 7.44061 16.1585
      vertex 85.6142 7.44061 16.1585
    endloop
  endfacet
  facet normal 0 0.999391 0.0348997
    outer loop
      vertex 85.2 7.44061 16.1585
      vertex 85.6142 8.00488 0
      vertex 81.1579 8.00488 0
    endloop
  endfacet
  facet normal -1 0 0
    outer loop
      vertex 88.2 10.5922 0
      vertex 88.2 10.4388 16.2632
      vertex 88.2 15.1133 0
    endloop
  endfacet
  facet normal -1 0 -0
    outer loop
      vertex 88.2 10.4388 16.2632
      vertex 88.2 10.5922 0
      vertex 88.2 10.0248 16.2488
    endloop
  endfacet
  facet normal 0 0.961088 0.276244
    outer loop
      vertex 90.2 15.1133 0
      vertex 88.2 10.4388 16.2632
      vertex 90.2 10.4388 16.2632
    endloop
  endfacet
  facet normal 0 0.961088 0.276244
    outer loop
      vertex 88.2 10.4388 16.2632
      vertex 90.2 15.1133 0
      vertex 88.2 15.1133 0
    endloop
  endfacet
  facet normal 1 0 0
    outer loop
      vertex 90.2 10.4388 16.2632
      vertex 90.2 10.5922 0
      vertex 90.2 15.1133 0
    endloop
  endfacet
  facet normal 1 0 0
    outer loop
      vertex 90.2 10.5922 0
      vertex 90.2 10.4388 16.2632
      vertex 90.2 10.0248 16.2488
    endloop
  endfacet
  facet normal -0.923879 -0.382452 -0.0133554
    outer loop
      vertex 8.825 7.03919 -1
      vertex 8.29047 7.7309 16.1687
      vertex 8.29047 8.33044 -1
    endloop
  endfacet
  facet normal -0.923879 -0.382451 -0.0133555
    outer loop
      vertex 8.29047 7.7309 16.1687
      vertex 8.825 7.03919 -1
      vertex 8.825 6.44122 16.1236
    endloop
  endfacet
  facet normal 0.923879 -0.382452 -0.0133554
    outer loop
      vertex 5.70953 7.7309 16.1687
      vertex 5.175 7.03919 -1
      vertex 5.70953 8.33044 -1
    endloop
  endfacet
  facet normal 0.923879 -0.382451 -0.0133555
    outer loop
      vertex 5.175 7.03919 -1
      vertex 5.70953 7.7309 16.1687
      vertex 5.175 6.44122 16.1236
    endloop
  endfacet
  facet normal -0.382686 -0.923316 -0.0322427
    outer loop
      vertex 7 8.8653 -1
      vertex 8.29047 7.7309 16.1687
      vertex 7 8.26511 16.1873
    endloop
  endfacet
  facet normal -0.382686 -0.923316 -0.0322427
    outer loop
      vertex 8.29047 7.7309 16.1687
      vertex 7 8.8653 -1
      vertex 8.29047 8.33044 -1
    endloop
  endfacet
  facet normal 0.382686 -0.923316 -0.0322427
    outer loop
      vertex 7 8.8653 -1
      vertex 5.70953 7.7309 16.1687
      vertex 5.70953 8.33044 -1
    endloop
  endfacet
  facet normal 0.382686 -0.923316 -0.0322427
    outer loop
      vertex 5.70953 7.7309 16.1687
      vertex 7 8.8653 -1
      vertex 7 8.26511 16.1873
    endloop
  endfacet
  facet normal -0.382682 0.923317 0.0322431
    outer loop
      vertex 8.29047 5.74793 -1
      vertex 7 4.61733 16.0599
      vertex 8.29047 5.15153 16.0786
    endloop
  endfacet
  facet normal -0.38268 0.923318 0.0322433
    outer loop
      vertex 7 4.61733 16.0599
      vertex 8.29047 5.74793 -1
      vertex 7 5.21308 -1
    endloop
  endfacet
  facet normal 0.92388 0.382449 0.0133554
    outer loop
      vertex 5.175 6.44122 16.1236
      vertex 5.70953 5.74793 -1
      vertex 5.175 7.03919 -1
    endloop
  endfacet
  facet normal 0.92388 0.382449 0.0133555
    outer loop
      vertex 5.70953 5.74793 -1
      vertex 5.175 6.44122 16.1236
      vertex 5.70953 5.15153 16.0786
    endloop
  endfacet
  facet normal -0.92388 0.382449 0.0133554
    outer loop
      vertex 8.29047 5.74793 -1
      vertex 8.825 6.44122 16.1236
      vertex 8.825 7.03919 -1
    endloop
  endfacet
  facet normal -0.92388 0.382449 0.0133555
    outer loop
      vertex 8.825 6.44122 16.1236
      vertex 8.29047 5.74793 -1
      vertex 8.29047 5.15153 16.0786
    endloop
  endfacet
  facet normal 0.38268 0.923318 0.0322433
    outer loop
      vertex 5.70953 5.74793 -1
      vertex 7 4.61733 16.0599
      vertex 7 5.21308 -1
    endloop
  endfacet
  facet normal 0.382682 0.923317 0.0322431
    outer loop
      vertex 7 4.61733 16.0599
      vertex 5.70953 5.74793 -1
      vertex 5.70953 5.15153 16.0786
    endloop
  endfacet
  facet normal -0.923853 -0.382515 -0.0133653
    outer loop
      vertex 8.825 141.709 -1
      vertex 8.29047 142.236 20.8657
      vertex 8.29047 143 -1
    endloop
  endfacet
  facet normal -0.923808 -0.382623 -0.0133616
    outer loop
      vertex 8.29047 142.236 20.8657
      vertex 8.825 141.709 -1
      vertex 8.825 140.947 20.8207
    endloop
  endfacet
  facet normal 0.923853 -0.382515 -0.0133653
    outer loop
      vertex 5.70953 142.236 20.8657
      vertex 5.175 141.709 -1
      vertex 5.70953 143 -1
    endloop
  endfacet
  facet normal 0.923808 -0.382623 -0.0133616
    outer loop
      vertex 5.175 141.709 -1
      vertex 5.70953 142.236 20.8657
      vertex 5.175 140.947 20.8207
    endloop
  endfacet
  facet normal 0.382771 -0.92328 -0.0322599
    outer loop
      vertex 7 143.535 -1
      vertex 5.70953 142.236 20.8657
      vertex 5.70953 143 -1
    endloop
  endfacet
  facet normal 0.383168 -0.923116 -0.0322268
    outer loop
      vertex 5.70953 142.236 20.8657
      vertex 7 143.535 -1
      vertex 7 142.771 20.8843
    endloop
  endfacet
  facet normal -0.383168 -0.923116 -0.0322268
    outer loop
      vertex 7 143.535 -1
      vertex 8.29047 142.236 20.8657
      vertex 7 142.771 20.8843
    endloop
  endfacet
  facet normal -0.382771 -0.92328 -0.0322599
    outer loop
      vertex 8.29047 142.236 20.8657
      vertex 7 143.535 -1
      vertex 8.29047 143 -1
    endloop
  endfacet
  facet normal -0.923957 0.382262 0.013349
    outer loop
      vertex 8.29047 140.417 -1
      vertex 8.825 140.947 20.8207
      vertex 8.825 141.709 -1
    endloop
  endfacet
  facet normal -0.923913 0.38237 0.0133453
    outer loop
      vertex 8.825 140.947 20.8207
      vertex 8.29047 140.417 -1
      vertex 8.29047 139.657 20.7756
    endloop
  endfacet
  facet normal 0.923957 0.382262 0.013349
    outer loop
      vertex 5.175 140.947 20.8207
      vertex 5.70953 140.417 -1
      vertex 5.175 141.709 -1
    endloop
  endfacet
  facet normal 0.923913 0.38237 0.0133453
    outer loop
      vertex 5.70953 140.417 -1
      vertex 5.175 140.947 20.8207
      vertex 5.70953 139.657 20.7756
    endloop
  endfacet
  facet normal -0.382557 0.92337 0.0322269
    outer loop
      vertex 8.29047 140.417 -1
      vertex 7 139.123 20.757
      vertex 8.29047 139.657 20.7756
    endloop
  endfacet
  facet normal -0.38216 0.923533 0.0322602
    outer loop
      vertex 7 139.123 20.757
      vertex 8.29047 140.417 -1
      vertex 7 139.883 -1
    endloop
  endfacet
  facet normal 0.38216 0.923533 0.0322602
    outer loop
      vertex 5.70953 140.417 -1
      vertex 7 139.123 20.757
      vertex 7 139.883 -1
    endloop
  endfacet
  facet normal 0.382557 0.92337 0.0322269
    outer loop
      vertex 7 139.123 20.757
      vertex 5.70953 140.417 -1
      vertex 5.70953 139.657 20.7756
    endloop
  endfacet
  facet normal -0.92386 -0.382497 -0.0133647
    outer loop
      vertex 91.025 141.709 -1
      vertex 90.4905 142.236 20.8657
      vertex 90.4905 143 -1
    endloop
  endfacet
  facet normal -0.923815 -0.382605 -0.0133609
    outer loop
      vertex 90.4905 142.236 20.8657
      vertex 91.025 141.709 -1
      vertex 91.025 140.947 20.8207
    endloop
  endfacet
  facet normal 0.382764 -0.923283 -0.03226
    outer loop
      vertex 89.2 143.535 -1
      vertex 87.9095 142.236 20.8657
      vertex 87.9095 143 -1
    endloop
  endfacet
  facet normal 0.38316 -0.92312 -0.0322269
    outer loop
      vertex 87.9095 142.236 20.8657
      vertex 89.2 143.535 -1
      vertex 89.2 142.771 20.8843
    endloop
  endfacet
  facet normal -0.38316 -0.92312 -0.0322269
    outer loop
      vertex 89.2 143.535 -1
      vertex 90.4905 142.236 20.8657
      vertex 89.2 142.771 20.8843
    endloop
  endfacet
  facet normal -0.382764 -0.923283 -0.03226
    outer loop
      vertex 90.4905 142.236 20.8657
      vertex 89.2 143.535 -1
      vertex 90.4905 143 -1
    endloop
  endfacet
  facet normal 0.92386 -0.382497 -0.0133647
    outer loop
      vertex 87.9095 142.236 20.8657
      vertex 87.375 141.709 -1
      vertex 87.9095 143 -1
    endloop
  endfacet
  facet normal 0.923815 -0.382605 -0.0133609
    outer loop
      vertex 87.375 141.709 -1
      vertex 87.9095 142.236 20.8657
      vertex 87.375 140.947 20.8207
    endloop
  endfacet
  facet normal -0.923965 0.382244 0.0133483
    outer loop
      vertex 90.4905 140.417 -1
      vertex 91.025 140.947 20.8207
      vertex 91.025 141.709 -1
    endloop
  endfacet
  facet normal -0.923921 0.382352 0.0133446
    outer loop
      vertex 91.025 140.947 20.8207
      vertex 90.4905 140.417 -1
      vertex 90.4905 139.657 20.7756
    endloop
  endfacet
  facet normal 0.382153 0.923536 0.0322603
    outer loop
      vertex 87.9095 140.417 -1
      vertex 89.2 139.123 20.757
      vertex 89.2 139.883 -1
    endloop
  endfacet
  facet normal 0.38255 0.923373 0.032227
    outer loop
      vertex 89.2 139.123 20.757
      vertex 87.9095 140.417 -1
      vertex 87.9095 139.657 20.7756
    endloop
  endfacet
  facet normal 0.923965 0.382244 0.0133483
    outer loop
      vertex 87.375 140.947 20.8207
      vertex 87.9095 140.417 -1
      vertex 87.375 141.709 -1
    endloop
  endfacet
  facet normal 0.923921 0.382352 0.0133446
    outer loop
      vertex 87.9095 140.417 -1
      vertex 87.375 140.947 20.8207
      vertex 87.9095 139.657 20.7756
    endloop
  endfacet
  facet normal -0.38255 0.923373 0.032227
    outer loop
      vertex 90.4905 140.417 -1
      vertex 89.2 139.123 20.757
      vertex 90.4905 139.657 20.7756
    endloop
  endfacet
  facet normal -0.382153 0.923536 0.0322603
    outer loop
      vertex 89.2 139.123 20.757
      vertex 90.4905 140.417 -1
      vertex 89.2 139.883 -1
    endloop
  endfacet
  facet normal -0.923886 -0.382434 -0.0133548
    outer loop
      vertex 91.025 7.03919 -1
      vertex 90.4905 7.7309 16.1687
      vertex 90.4905 8.33044 -1
    endloop
  endfacet
  facet normal -0.923887 -0.382432 -0.0133548
    outer loop
      vertex 90.4905 7.7309 16.1687
      vertex 91.025 7.03919 -1
      vertex 91.025 6.44122 16.1236
    endloop
  endfacet
  facet normal 0.923888 0.382431 0.0133548
    outer loop
      vertex 87.375 6.44122 16.1236
      vertex 87.9095 5.74793 -1
      vertex 87.375 7.03919 -1
    endloop
  endfacet
  facet normal 0.923888 0.382431 0.0133548
    outer loop
      vertex 87.9095 5.74793 -1
      vertex 87.375 6.44122 16.1236
      vertex 87.9095 5.15153 16.0786
    endloop
  endfacet
  facet normal 0.382672 0.923321 0.0322434
    outer loop
      vertex 87.9095 5.74793 -1
      vertex 89.2 4.61733 16.0599
      vertex 89.2 5.21308 -1
    endloop
  endfacet
  facet normal 0.382674 0.923321 0.0322432
    outer loop
      vertex 89.2 4.61733 16.0599
      vertex 87.9095 5.74793 -1
      vertex 87.9095 5.15153 16.0786
    endloop
  endfacet
  facet normal 0.382678 -0.923319 -0.0322428
    outer loop
      vertex 89.2 8.8653 -1
      vertex 87.9095 7.7309 16.1687
      vertex 87.9095 8.33044 -1
    endloop
  endfacet
  facet normal 0.382678 -0.923319 -0.0322428
    outer loop
      vertex 87.9095 7.7309 16.1687
      vertex 89.2 8.8653 -1
      vertex 89.2 8.26511 16.1873
    endloop
  endfacet
  facet normal -0.382678 -0.923319 -0.0322428
    outer loop
      vertex 89.2 8.8653 -1
      vertex 90.4905 7.7309 16.1687
      vertex 89.2 8.26511 16.1873
    endloop
  endfacet
  facet normal -0.382678 -0.923319 -0.0322428
    outer loop
      vertex 90.4905 7.7309 16.1687
      vertex 89.2 8.8653 -1
      vertex 90.4905 8.33044 -1
    endloop
  endfacet
  facet normal 0.923886 -0.382434 -0.0133548
    outer loop
      vertex 87.9095 7.7309 16.1687
      vertex 87.375 7.03919 -1
      vertex 87.9095 8.33044 -1
    endloop
  endfacet
  facet normal 0.923887 -0.382432 -0.0133548
    outer loop
      vertex 87.375 7.03919 -1
      vertex 87.9095 7.7309 16.1687
      vertex 87.375 6.44122 16.1236
    endloop
  endfacet
  facet normal -0.923888 0.382431 0.0133548
    outer loop
      vertex 90.4905 5.74793 -1
      vertex 91.025 6.44122 16.1236
      vertex 91.025 7.03919 -1
    endloop
  endfacet
  facet normal -0.923888 0.382431 0.0133548
    outer loop
      vertex 91.025 6.44122 16.1236
      vertex 90.4905 5.74793 -1
      vertex 90.4905 5.15153 16.0786
    endloop
  endfacet
  facet normal -0.382674 0.923321 0.0322432
    outer loop
      vertex 90.4905 5.74793 -1
      vertex 89.2 4.61733 16.0599
      vertex 90.4905 5.15153 16.0786
    endloop
  endfacet
  facet normal -0.382672 0.923321 0.0322434
    outer loop
      vertex 89.2 4.61733 16.0599
      vertex 90.4905 5.74793 -1
      vertex 89.2 5.21308 -1
    endloop
  endfacet
  facet normal 0 0 -1
    outer loop
      vertex 8.29047 140.417 -1
      vertex 87.9095 140.417 -1
      vertex 8.29047 8.33044 -1
    endloop
  endfacet
  facet normal 0 0 -1
    outer loop
      vertex 87.9095 140.417 -1
      vertex 8.29047 140.417 -1
      vertex 8.825 141.709 -1
    endloop
  endfacet
  facet normal 0 0 -1
    outer loop
      vertex 7 8.8653 -1
      vertex 8.29047 140.417 -1
      vertex 8.29047 8.33044 -1
    endloop
  endfacet
  facet normal 0 0 -1
    outer loop
      vertex 7 8.8653 -1
      vertex 7 139.883 -1
      vertex 8.29047 140.417 -1
    endloop
  endfacet
  facet normal 0 0 -1
    outer loop
      vertex 5.70953 8.33044 -1
      vertex 7 139.883 -1
      vertex 7 8.8653 -1
    endloop
  endfacet
  facet normal 0 0 -1
    outer loop
      vertex 5.70953 8.33044 -1
      vertex 5.70953 140.417 -1
      vertex 7 139.883 -1
    endloop
  endfacet
  facet normal 0 0 -1
    outer loop
      vertex 0 4.03736 -1
      vertex 5.70953 8.33044 -1
      vertex 5.175 7.03919 -1
    endloop
  endfacet
  facet normal -0 0 -1
    outer loop
      vertex 5.70953 8.33044 -1
      vertex 0 4.03736 -1
      vertex 5.70953 140.417 -1
    endloop
  endfacet
  facet normal 0 0 -1
    outer loop
      vertex 90.4905 140.417 -1
      vertex 96.2 144.711 -1
      vertex 90.4905 8.33044 -1
    endloop
  endfacet
  facet normal 0 0 -1
    outer loop
      vertex 96.2 144.711 -1
      vertex 90.4905 140.417 -1
      vertex 91.025 141.709 -1
    endloop
  endfacet
  facet normal 0 0 -1
    outer loop
      vertex 89.2 8.8653 -1
      vertex 90.4905 140.417 -1
      vertex 90.4905 8.33044 -1
    endloop
  endfacet
  facet normal 0 0 -1
    outer loop
      vertex 89.2 8.8653 -1
      vertex 89.2 139.883 -1
      vertex 90.4905 140.417 -1
    endloop
  endfacet
  facet normal 0 0 -1
    outer loop
      vertex 87.9095 8.33044 -1
      vertex 89.2 139.883 -1
      vertex 89.2 8.8653 -1
    endloop
  endfacet
  facet normal 0 0 -1
    outer loop
      vertex 87.9095 8.33044 -1
      vertex 87.9095 140.417 -1
      vertex 89.2 139.883 -1
    endloop
  endfacet
  facet normal 0 0 -1
    outer loop
      vertex 8.825 7.03919 -1
      vertex 87.9095 8.33044 -1
      vertex 87.375 7.03919 -1
    endloop
  endfacet
  facet normal 0 0 -1
    outer loop
      vertex 8.29047 8.33044 -1
      vertex 87.9095 8.33044 -1
      vertex 8.825 7.03919 -1
    endloop
  endfacet
  facet normal 0 0 -1
    outer loop
      vertex 90.4905 8.33044 -1
      vertex 96.2 144.711 -1
      vertex 96.2 4.03736 -1
    endloop
  endfacet
  facet normal 0 0 -1
    outer loop
      vertex 94.296 0.903632 -1
      vertex 96.2 4.03736 -1
      vertex 95.0284 1.20721 -1
    endloop
  endfacet
  facet normal 0 0 -1
    outer loop
      vertex 90.4905 8.33044 -1
      vertex 96.2 4.03736 -1
      vertex 91.025 7.03919 -1
    endloop
  endfacet
  facet normal -0 0 -1
    outer loop
      vertex 96.2 4.03736 -1
      vertex 94.296 0.903632 -1
      vertex 90.4905 5.74793 -1
    endloop
  endfacet
  facet normal 0 0 -1
    outer loop
      vertex 90.4905 143 -1
      vertex 96.2 144.711 -1
      vertex 91.025 141.709 -1
    endloop
  endfacet
  facet normal 0 0 -1
    outer loop
      vertex 90.4905 5.74793 -1
      vertex 94.296 0.903632 -1
      vertex 92.2 0.0349214 -1
    endloop
  endfacet
  facet normal -0 0 -1
    outer loop
      vertex 96.2 144.711 -1
      vertex 90.4905 143 -1
      vertex 95.4187 146.598 -1
    endloop
  endfacet
  facet normal 0 -0 -1
    outer loop
      vertex 94.0843 147.932 -1
      vertex 95.4187 146.598 -1
      vertex 90.4905 143 -1
    endloop
  endfacet
  facet normal 0 0 -1
    outer loop
      vertex 96.2 4.03736 -1
      vertex 90.4905 5.74793 -1
      vertex 91.025 7.03919 -1
    endloop
  endfacet
  facet normal 0 0 -1
    outer loop
      vertex 92.2 0.0349214 -1
      vertex 89.2 5.21308 -1
      vertex 90.4905 5.74793 -1
    endloop
  endfacet
  facet normal 0 0 -1
    outer loop
      vertex 92.2 0.0349214 -1
      vertex 87.9095 5.74793 -1
      vertex 89.2 5.21308 -1
    endloop
  endfacet
  facet normal 0 0 -1
    outer loop
      vertex 87.9095 8.33044 -1
      vertex 8.29047 8.33044 -1
      vertex 87.9095 140.417 -1
    endloop
  endfacet
  facet normal 0 0 -1
    outer loop
      vertex 87.9095 5.74793 -1
      vertex 8.825 7.03919 -1
      vertex 87.375 7.03919 -1
    endloop
  endfacet
  facet normal 0 0 -1
    outer loop
      vertex 8.29047 5.74793 -1
      vertex 87.9095 5.74793 -1
      vertex 92.2 0.0349214 -1
    endloop
  endfacet
  facet normal 0 0 -1
    outer loop
      vertex 87.9095 5.74793 -1
      vertex 8.29047 5.74793 -1
      vertex 8.825 7.03919 -1
    endloop
  endfacet
  facet normal 0 0 -1
    outer loop
      vertex 4 0.0349214 -1
      vertex 8.29047 5.74793 -1
      vertex 92.2 0.0349214 -1
    endloop
  endfacet
  facet normal 0 0 -1
    outer loop
      vertex 0 4.03736 -1
      vertex 5.70953 5.74793 -1
      vertex 1.90402 0.903632 -1
    endloop
  endfacet
  facet normal 0 0 -1
    outer loop
      vertex 1.90402 0.903632 -1
      vertex 5.70953 5.74793 -1
      vertex 4 0.0349214 -1
    endloop
  endfacet
  facet normal -0 0 -1
    outer loop
      vertex 7 5.21308 -1
      vertex 4 0.0349214 -1
      vertex 5.70953 5.74793 -1
    endloop
  endfacet
  facet normal 0 0 -1
    outer loop
      vertex 8.29047 5.74793 -1
      vertex 4 0.0349214 -1
      vertex 7 5.21308 -1
    endloop
  endfacet
  facet normal 0 0 -1
    outer loop
      vertex 95.4187 146.598 -1
      vertex 94.0843 147.932 -1
      vertex 95.0284 147.541 -1
    endloop
  endfacet
  facet normal -0 0 -1
    outer loop
      vertex 94.0843 147.932 -1
      vertex 90.4905 143 -1
      vertex 92.2 148.713 -1
    endloop
  endfacet
  facet normal 0 0 -1
    outer loop
      vertex 89.2 143.535 -1
      vertex 92.2 148.713 -1
      vertex 90.4905 143 -1
    endloop
  endfacet
  facet normal 0 0 -1
    outer loop
      vertex 87.9095 143 -1
      vertex 92.2 148.713 -1
      vertex 89.2 143.535 -1
    endloop
  endfacet
  facet normal 0 0 -1
    outer loop
      vertex 87.9095 140.417 -1
      vertex 8.825 141.709 -1
      vertex 87.375 141.709 -1
    endloop
  endfacet
  facet normal 0 0 -1
    outer loop
      vertex 87.375 141.709 -1
      vertex 8.825 141.709 -1
      vertex 87.9095 143 -1
    endloop
  endfacet
  facet normal 0 0 -1
    outer loop
      vertex 8.29047 143 -1
      vertex 87.9095 143 -1
      vertex 8.825 141.709 -1
    endloop
  endfacet
  facet normal 0 0 -1
    outer loop
      vertex 87.9095 143 -1
      vertex 8.29047 143 -1
      vertex 92.2 148.713 -1
    endloop
  endfacet
  facet normal 0 0 -1
    outer loop
      vertex 4 148.713 -1
      vertex 8.29047 143 -1
      vertex 7 143.535 -1
    endloop
  endfacet
  facet normal 0 0 -1
    outer loop
      vertex 8.29047 143 -1
      vertex 4 148.713 -1
      vertex 92.2 148.713 -1
    endloop
  endfacet
  facet normal 0 0 -1
    outer loop
      vertex 5.70953 143 -1
      vertex 4 148.713 -1
      vertex 7 143.535 -1
    endloop
  endfacet
  facet normal 0 0 -1
    outer loop
      vertex 0 144.711 -1
      vertex 5.70953 143 -1
      vertex 5.175 141.709 -1
    endloop
  endfacet
  facet normal 0 0 -1
    outer loop
      vertex 0 144.711 -1
      vertex 5.70953 140.417 -1
      vertex 0 4.03736 -1
    endloop
  endfacet
  facet normal 0 0 -1
    outer loop
      vertex 5.70953 143 -1
      vertex 0 144.711 -1
      vertex 0.781288 146.598 -1
    endloop
  endfacet
  facet normal -0 0 -1
    outer loop
      vertex 5.70953 5.74793 -1
      vertex 0 4.03736 -1
      vertex 5.175 7.03919 -1
    endloop
  endfacet
  facet normal 0 0 -1
    outer loop
      vertex 0 4.03736 -1
      vertex 1.90402 0.903632 -1
      vertex 1.17157 1.20721 -1
    endloop
  endfacet
  facet normal 0 0 -1
    outer loop
      vertex 5.70953 140.417 -1
      vertex 0 144.711 -1
      vertex 5.175 141.709 -1
    endloop
  endfacet
  facet normal 0 0 -1
    outer loop
      vertex 2.11573 147.932 -1
      vertex 0.781288 146.598 -1
      vertex 1.17157 147.541 -1
    endloop
  endfacet
  facet normal 0 0 -1
    outer loop
      vertex 5.70953 143 -1
      vertex 2.11573 147.932 -1
      vertex 4 148.713 -1
    endloop
  endfacet
  facet normal 0 0 -1
    outer loop
      vertex 5.70953 143 -1
      vertex 0.781288 146.598 -1
      vertex 2.11573 147.932 -1
    endloop
  endfacet
  facet normal 0 0 1
    outer loop
      vertex 4.17157 138.844 0
      vertex 6 132.54 0
      vertex 6 138.086 0
    endloop
  endfacet
  facet normal 0 0 1
    outer loop
      vertex 0 144.676 0
      vertex 6 132.54 0
      vertex 4.17157 138.844 0
    endloop
  endfacet
  facet normal 0 0 1
    outer loop
      vertex 0 4.00244 0
      vertex 6 132.54 0
      vertex 0 144.676 0
    endloop
  endfacet
  facet normal 0 0 1
    outer loop
      vertex 6 15.1133 0
      vertex 4.17157 9.83442 0
      vertex 6 10.5922 0
    endloop
  endfacet
  facet normal 0 0 1
    outer loop
      vertex 0 144.676 0
      vertex 4.17157 138.844 0
      vertex 3 141.674 0
    endloop
  endfacet
  facet normal 0 0 1
    outer loop
      vertex 6 132.54 0
      vertex 0 4.00244 0
      vertex 6 15.1133 0
    endloop
  endfacet
  facet normal -0 0 1
    outer loop
      vertex 6 132.54 0
      vertex 8 15.1133 0
      vertex 8 132.54 0
    endloop
  endfacet
  facet normal 0 0 1
    outer loop
      vertex 8 15.1133 0
      vertex 6 132.54 0
      vertex 6 15.1133 0
    endloop
  endfacet
  facet normal 0 0 1
    outer loop
      vertex 9.82843 138.844 0
      vertex 16.1996 140.673 0
      vertex 10.5858 140.673 0
    endloop
  endfacet
  facet normal 0 0 1
    outer loop
      vertex 16.1996 140.673 0
      vertex 8 132.54 0
      vertex 15.0421 8.00488 0
    endloop
  endfacet
  facet normal 0 0 1
    outer loop
      vertex 16.1996 140.673 0
      vertex 9.82843 138.844 0
      vertex 8 132.54 0
    endloop
  endfacet
  facet normal -0 0 1
    outer loop
      vertex 8 15.1133 0
      vertex 15.0421 8.00488 0
      vertex 8 132.54 0
    endloop
  endfacet
  facet normal 0 0 1
    outer loop
      vertex 8 132.54 0
      vertex 9.82843 138.844 0
      vertex 8 138.086 0
    endloop
  endfacet
  facet normal -0 -0 1
    outer loop
      vertex 9.82843 9.83442 0
      vertex 15.0421 8.00488 0
      vertex 8 15.1133 0
    endloop
  endfacet
  facet normal 0 0 1
    outer loop
      vertex 15.0421 8.00488 0
      vertex 9.82843 9.83442 0
      vertex 10.5858 8.00488 0
    endloop
  endfacet
  facet normal 0 0 1
    outer loop
      vertex 9.82843 9.83442 0
      vertex 8 15.1133 0
      vertex 8 10.5922 0
    endloop
  endfacet
  facet normal 0 0 1
    outer loop
      vertex 86.3716 138.844 0
      vertex 88.2 132.54 0
      vertex 88.2 138.086 0
    endloop
  endfacet
  facet normal -0 0 1
    outer loop
      vertex 16.1996 140.673 0
      vertex 88.2 132.54 0
      vertex 80.0004 140.673 0
    endloop
  endfacet
  facet normal 0 0 1
    outer loop
      vertex 88.2 132.54 0
      vertex 86.3716 138.844 0
      vertex 80.0004 140.673 0
    endloop
  endfacet
  facet normal 0 0 1
    outer loop
      vertex 88.2 132.54 0
      vertex 16.1996 140.673 0
      vertex 88.2 15.1133 0
    endloop
  endfacet
  facet normal -0 0 1
    outer loop
      vertex 80.0004 140.673 0
      vertex 86.3716 138.844 0
      vertex 85.6142 140.673 0
    endloop
  endfacet
  facet normal 0 0 1
    outer loop
      vertex 88.2 15.1133 0
      vertex 86.3716 9.83442 0
      vertex 88.2 10.5922 0
    endloop
  endfacet
  facet normal 0 0 1
    outer loop
      vertex 86.3716 9.83442 0
      vertex 81.1579 8.00488 0
      vertex 85.6142 8.00488 0
    endloop
  endfacet
  facet normal 0 0 1
    outer loop
      vertex 88.2 15.1133 0
      vertex 81.1579 8.00488 0
      vertex 86.3716 9.83442 0
    endloop
  endfacet
  facet normal -0 0 1
    outer loop
      vertex 88.2 132.54 0
      vertex 90.2 15.1133 0
      vertex 90.2 132.54 0
    endloop
  endfacet
  facet normal 0 0 1
    outer loop
      vertex 90.2 15.1133 0
      vertex 88.2 132.54 0
      vertex 88.2 15.1133 0
    endloop
  endfacet
  facet normal 0 0 1
    outer loop
      vertex 96.2 144.676 0
      vertex 90.2 132.54 0
      vertex 96.2 4.00244 0
    endloop
  endfacet
  facet normal -0 0 1
    outer loop
      vertex 90.2 15.1133 0
      vertex 96.2 4.00244 0
      vertex 90.2 132.54 0
    endloop
  endfacet
  facet normal 0 0 1
    outer loop
      vertex 90.2 132.54 0
      vertex 92.0284 138.844 0
      vertex 90.2 138.086 0
    endloop
  endfacet
  facet normal -0 -0 1
    outer loop
      vertex 92.0284 9.83442 0
      vertex 96.2 4.00244 0
      vertex 90.2 15.1133 0
    endloop
  endfacet
  facet normal 0 0 1
    outer loop
      vertex 96.2 4.00244 0
      vertex 92.0284 9.83442 0
      vertex 93.2 7.00427 0
    endloop
  endfacet
  facet normal 0 0 1
    outer loop
      vertex 92.0284 9.83442 0
      vertex 90.2 15.1133 0
      vertex 90.2 10.5922 0
    endloop
  endfacet
  facet normal 0 0 1
    outer loop
      vertex 92.0284 144.504 0
      vertex 94.1256 147.88 0
      vertex 92.2 148.678 0
    endloop
  endfacet
  facet normal 0 0 1
    outer loop
      vertex 94.1256 147.88 0
      vertex 92.0284 144.504 0
      vertex 93.2 141.674 0
    endloop
  endfacet
  facet normal 0 0 1
    outer loop
      vertex 92.2 148.678 0
      vertex 89.2 145.676 0
      vertex 92.0284 144.504 0
    endloop
  endfacet
  facet normal 0 0 1
    outer loop
      vertex 92.2 148.678 0
      vertex 86.3716 144.504 0
      vertex 89.2 145.676 0
    endloop
  endfacet
  facet normal 0 0 1
    outer loop
      vertex 86.3716 144.504 0
      vertex 79.9829 142.674 0
      vertex 85.6142 142.674 0
    endloop
  endfacet
  facet normal 0 0 1
    outer loop
      vertex 92.2 148.678 0
      vertex 79.9829 142.674 0
      vertex 86.3716 144.504 0
    endloop
  endfacet
  facet normal 0 0 1
    outer loop
      vertex 92.2 148.678 0
      vertex 16.2171 142.674 0
      vertex 79.9829 142.674 0
    endloop
  endfacet
  facet normal -0 0 1
    outer loop
      vertex 4 148.678 0
      vertex 16.2171 142.674 0
      vertex 92.2 148.678 0
    endloop
  endfacet
  facet normal 0 0 1
    outer loop
      vertex 16.2171 142.674 0
      vertex 9.82843 144.504 0
      vertex 10.5858 142.674 0
    endloop
  endfacet
  facet normal 0 0 1
    outer loop
      vertex 16.2171 142.674 0
      vertex 4 148.678 0
      vertex 9.82843 144.504 0
    endloop
  endfacet
  facet normal 0 0 1
    outer loop
      vertex 9.82843 144.504 0
      vertex 4 148.678 0
      vertex 7 145.676 0
    endloop
  endfacet
  facet normal 0 0 1
    outer loop
      vertex 4 148.678 0
      vertex 4.17157 144.504 0
      vertex 7 145.676 0
    endloop
  endfacet
  facet normal -0 0 1
    outer loop
      vertex 2.07442 147.88 0
      vertex 4.17157 144.504 0
      vertex 4 148.678 0
    endloop
  endfacet
  facet normal -0 0 1
    outer loop
      vertex 0 144.676 0
      vertex 4.17157 144.504 0
      vertex 0.798364 146.604 0
    endloop
  endfacet
  facet normal -0 0 1
    outer loop
      vertex 0.798364 146.604 0
      vertex 4.17157 144.504 0
      vertex 2.07442 147.88 0
    endloop
  endfacet
  facet normal 0 0 1
    outer loop
      vertex 93.2 141.674 0
      vertex 96.2 144.676 0
      vertex 95.4016 146.604 0
    endloop
  endfacet
  facet normal 0 0 1
    outer loop
      vertex 94.1256 147.88 0
      vertex 95.4016 146.604 0
      vertex 95.0284 147.506 0
    endloop
  endfacet
  facet normal 0 0 1
    outer loop
      vertex 92.0284 138.844 0
      vertex 96.2 144.676 0
      vertex 93.2 141.674 0
    endloop
  endfacet
  facet normal -0 0 1
    outer loop
      vertex 92.0284 4.17412 0
      vertex 96.2 4.00244 0
      vertex 93.2 7.00427 0
    endloop
  endfacet
  facet normal 0 0 1
    outer loop
      vertex 95.4016 146.604 0
      vertex 94.1256 147.88 0
      vertex 93.2 141.674 0
    endloop
  endfacet
  facet normal 0 0 1
    outer loop
      vertex 90.2 132.54 0
      vertex 96.2 144.676 0
      vertex 92.0284 138.844 0
    endloop
  endfacet
  facet normal 0 0 1
    outer loop
      vertex 96.2 4.00244 0
      vertex 92.0284 4.17412 0
      vertex 95.0284 1.17229 0
    endloop
  endfacet
  facet normal 0 0 1
    outer loop
      vertex 95.0284 1.17229 0
      vertex 92.0284 4.17412 0
      vertex 94.3372 0.885811 0
    endloop
  endfacet
  facet normal 0 0 1
    outer loop
      vertex 94.3372 0.885811 0
      vertex 92.0284 4.17412 0
      vertex 92.2 6.53453e-07 0
    endloop
  endfacet
  facet normal -0 0 1
    outer loop
      vertex 89.2 3.00183 0
      vertex 92.2 6.53453e-07 0
      vertex 92.0284 4.17412 0
    endloop
  endfacet
  facet normal 0 0 1
    outer loop
      vertex 86.3716 4.17412 0
      vertex 92.2 6.53453e-07 0
      vertex 89.2 3.00183 0
    endloop
  endfacet
  facet normal -0 0 1
    outer loop
      vertex 81.1754 6.00366 0
      vertex 86.3716 4.17412 0
      vertex 85.6142 6.00366 0
    endloop
  endfacet
  facet normal 0 0 1
    outer loop
      vertex 81.1754 6.00366 0
      vertex 92.2 6.53453e-07 0
      vertex 86.3716 4.17412 0
    endloop
  endfacet
  facet normal 0 0 1
    outer loop
      vertex 16.1996 140.673 0
      vertex 80.0004 140.673 0
      vertex 79.9829 142.674 0
    endloop
  endfacet
  facet normal 0 0 1
    outer loop
      vertex 16.1996 140.673 0
      vertex 79.9829 142.674 0
      vertex 16.2171 142.674 0
    endloop
  endfacet
  facet normal 0 0 1
    outer loop
      vertex 15.0421 8.00488 0
      vertex 88.2 15.1133 0
      vertex 16.1996 140.673 0
    endloop
  endfacet
  facet normal 0 0 1
    outer loop
      vertex 88.2 15.1133 0
      vertex 15.0421 8.00488 0
      vertex 81.1579 8.00488 0
    endloop
  endfacet
  facet normal 0 0 1
    outer loop
      vertex 81.1579 8.00488 0
      vertex 15.0421 8.00488 0
      vertex 81.1754 6.00366 0
    endloop
  endfacet
  facet normal 0 0 1
    outer loop
      vertex 15.0246 6.00366 0
      vertex 81.1754 6.00366 0
      vertex 15.0421 8.00488 0
    endloop
  endfacet
  facet normal 0 0 1
    outer loop
      vertex 81.1754 6.00366 0
      vertex 15.0246 6.00366 0
      vertex 92.2 6.53453e-07 0
    endloop
  endfacet
  facet normal 0 0 1
    outer loop
      vertex 9.82843 4.17412 0
      vertex 15.0246 6.00366 0
      vertex 10.5858 6.00366 0
    endloop
  endfacet
  facet normal 0 0 1
    outer loop
      vertex 4 6.53453e-07 0
      vertex 15.0246 6.00366 0
      vertex 9.82843 4.17412 0
    endloop
  endfacet
  facet normal 0 0 1
    outer loop
      vertex 4 6.53453e-07 0
      vertex 9.82843 4.17412 0
      vertex 7 3.00183 0
    endloop
  endfacet
  facet normal 0 0 1
    outer loop
      vertex 15.0246 6.00366 0
      vertex 4 6.53453e-07 0
      vertex 92.2 6.53453e-07 0
    endloop
  endfacet
  facet normal 0 0 1
    outer loop
      vertex 4.17157 4.17412 0
      vertex 4 6.53453e-07 0
      vertex 7 3.00183 0
    endloop
  endfacet
  facet normal 0 0 1
    outer loop
      vertex 0 4.00244 0
      vertex 4.17157 4.17412 0
      vertex 3 7.00427 0
    endloop
  endfacet
  facet normal 0 0 1
    outer loop
      vertex 4.17157 4.17412 0
      vertex 1.86277 0.885811 0
      vertex 4 6.53453e-07 0
    endloop
  endfacet
  facet normal 0 0 1
    outer loop
      vertex 6 15.1133 0
      vertex 0 4.00244 0
      vertex 4.17157 9.83442 0
    endloop
  endfacet
  facet normal 0 0 1
    outer loop
      vertex 0.798364 146.604 0
      vertex 2.07442 147.88 0
      vertex 1.17157 147.506 0
    endloop
  endfacet
  facet normal 0 0 1
    outer loop
      vertex 4.17157 144.504 0
      vertex 0 144.676 0
      vertex 3 141.674 0
    endloop
  endfacet
  facet normal 0 0 1
    outer loop
      vertex 4.17157 9.83442 0
      vertex 0 4.00244 0
      vertex 3 7.00427 0
    endloop
  endfacet
  facet normal 0 -0 1
    outer loop
      vertex 1.17157 1.17229 0
      vertex 4.17157 4.17412 0
      vertex 0 4.00244 0
    endloop
  endfacet
  facet normal 0 0 1
    outer loop
      vertex 4.17157 4.17412 0
      vertex 1.17157 1.17229 0
      vertex 1.86277 0.885811 0
    endloop
  endfacet
  facet normal -0.92388 -0.38245 -0.0133551
    outer loop
      vertex 1.17157 1.20721 -1
      vertex 0 4.00244 0
      vertex 0 4.03736 -1
    endloop
  endfacet
  facet normal -0.92388 -0.38245 -0.0133551
    outer loop
      vertex 0 4.00244 0
      vertex 1.17157 1.20721 -1
      vertex 1.17157 1.17229 0
    endloop
  endfacet
  facet normal 0.923948 0.382281 0.0135058
    outer loop
      vertex 95.4187 146.598 -1
      vertex 95.0284 147.506 0
      vertex 95.4016 146.604 0
    endloop
  endfacet
  facet normal 0.923902 0.382395 0.0133838
    outer loop
      vertex 95.0284 147.506 0
      vertex 95.4187 146.598 -1
      vertex 95.0284 147.541 -1
    endloop
  endfacet
  facet normal 0.923851 0.382514 0.0135028
    outer loop
      vertex 95.4016 146.604 0
      vertex 96.2 144.711 -1
      vertex 95.4187 146.598 -1
    endloop
  endfacet
  facet normal 0.923831 0.382566 0.0133898
    outer loop
      vertex 96.2 144.711 -1
      vertex 95.4016 146.604 0
      vertex 96.2 144.676 0
    endloop
  endfacet
  facet normal 1 0 0
    outer loop
      vertex 96.2 144.676 0
      vertex 96.2 4.03736 -1
      vertex 96.2 144.711 -1
    endloop
  endfacet
  facet normal 1 0 -0
    outer loop
      vertex 96.2 4.03736 -1
      vertex 96.2 144.676 0
      vertex 96.2 4.00244 0
    endloop
  endfacet
  facet normal 0.382645 0.923334 0.0322101
    outer loop
      vertex 94.0843 147.932 -1
      vertex 92.2 148.678 0
      vertex 94.1256 147.88 0
    endloop
  endfacet
  facet normal 0.382692 0.923311 0.0323159
    outer loop
      vertex 92.2 148.678 0
      vertex 94.0843 147.932 -1
      vertex 92.2 148.713 -1
    endloop
  endfacet
  facet normal 0.923876 -0.382458 -0.0133554
    outer loop
      vertex 96.2 4.00244 0
      vertex 95.0284 1.20721 -1
      vertex 96.2 4.03736 -1
    endloop
  endfacet
  facet normal 0.923876 -0.382458 -0.0133554
    outer loop
      vertex 95.0284 1.20721 -1
      vertex 96.2 4.00244 0
      vertex 95.0284 1.17229 0
    endloop
  endfacet
  facet normal -0.382684 -0.923317 -0.0322422
    outer loop
      vertex 1.17157 1.20721 -1
      vertex 1.86277 0.885811 0
      vertex 1.17157 1.17229 0
    endloop
  endfacet
  facet normal -0.382686 -0.923316 -0.0322402
    outer loop
      vertex 1.86277 0.885811 0
      vertex 1.17157 1.20721 -1
      vertex 1.90402 0.903632 -1
    endloop
  endfacet
  facet normal -0.923908 0.38238 0.0133833
    outer loop
      vertex 0.781288 146.598 -1
      vertex 1.17157 147.506 0
      vertex 1.17157 147.541 -1
    endloop
  endfacet
  facet normal -0.923946 0.382286 0.0134836
    outer loop
      vertex 1.17157 147.506 0
      vertex 0.781288 146.598 -1
      vertex 0.798364 146.604 0
    endloop
  endfacet
  facet normal 0 0.999388 0.0349786
    outer loop
      vertex 92.2 148.713 -1
      vertex 4 148.678 0
      vertex 92.2 148.678 0
    endloop
  endfacet
  facet normal 0 0.999388 0.0349786
    outer loop
      vertex 4 148.678 0
      vertex 92.2 148.713 -1
      vertex 4 148.713 -1
    endloop
  endfacet
  facet normal -0.382415 0.923429 0.0322207
    outer loop
      vertex 1.17157 147.541 -1
      vertex 2.07442 147.88 0
      vertex 2.11573 147.932 -1
    endloop
  endfacet
  facet normal -0.382507 0.923387 0.0323185
    outer loop
      vertex 2.07442 147.88 0
      vertex 1.17157 147.541 -1
      vertex 1.17157 147.506 0
    endloop
  endfacet
  facet normal -0.382697 0.923309 0.0323158
    outer loop
      vertex 2.11573 147.932 -1
      vertex 4 148.678 0
      vertex 4 148.713 -1
    endloop
  endfacet
  facet normal -0.382648 0.923333 0.0322061
    outer loop
      vertex 4 148.678 0
      vertex 2.11573 147.932 -1
      vertex 2.07442 147.88 0
    endloop
  endfacet
  facet normal -0.923853 0.38251 0.0134807
    outer loop
      vertex 0 144.711 -1
      vertex 0.798364 146.604 0
      vertex 0.781288 146.598 -1
    endloop
  endfacet
  facet normal -0.923837 0.382551 0.0133893
    outer loop
      vertex 0.798364 146.604 0
      vertex 0 144.711 -1
      vertex 0 144.676 0
    endloop
  endfacet
  facet normal -1 0 0
    outer loop
      vertex 0 4.03736 -1
      vertex 0 144.676 0
      vertex 0 144.711 -1
    endloop
  endfacet
  facet normal -1 -0 0
    outer loop
      vertex 0 144.676 0
      vertex 0 4.03736 -1
      vertex 0 4.00244 0
    endloop
  endfacet
  facet normal -0.382684 -0.923317 -0.0322401
    outer loop
      vertex 1.90402 0.903632 -1
      vertex 4 6.53453e-07 0
      vertex 1.86277 0.885811 0
    endloop
  endfacet
  facet normal -0.382683 -0.923317 -0.0322429
    outer loop
      vertex 4 6.53453e-07 0
      vertex 1.90402 0.903632 -1
      vertex 4 0.0349214 -1
    endloop
  endfacet
  facet normal 0 -0.999391 -0.0348995
    outer loop
      vertex 4 0.0349214 -1
      vertex 92.2 6.53453e-07 0
      vertex 4 6.53453e-07 0
    endloop
  endfacet
  facet normal 0 -0.999391 -0.0348995
    outer loop
      vertex 92.2 6.53453e-07 0
      vertex 4 0.0349214 -1
      vertex 92.2 0.0349214 -1
    endloop
  endfacet
  facet normal 0.382709 -0.923307 -0.0322218
    outer loop
      vertex 95.0284 1.20721 -1
      vertex 94.3372 0.885811 0
      vertex 94.296 0.903632 -1
    endloop
  endfacet
  facet normal 0.382684 -0.923317 -0.0322422
    outer loop
      vertex 94.3372 0.885811 0
      vertex 95.0284 1.20721 -1
      vertex 95.0284 1.17229 0
    endloop
  endfacet
  facet normal 0.38268 -0.923318 -0.032243
    outer loop
      vertex 94.296 0.903632 -1
      vertex 92.2 6.53453e-07 0
      vertex 92.2 0.0349214 -1
    endloop
  endfacet
  facet normal 0.382689 -0.923315 -0.0322212
    outer loop
      vertex 92.2 6.53453e-07 0
      vertex 94.296 0.903632 -1
      vertex 94.3372 0.885811 0
    endloop
  endfacet
  facet normal 0.382525 0.92338 0.0323183
    outer loop
      vertex 95.0284 147.541 -1
      vertex 94.1256 147.88 0
      vertex 95.0284 147.506 0
    endloop
  endfacet
  facet normal 0.382435 0.92342 0.0322233
    outer loop
      vertex 94.1256 147.88 0
      vertex 95.0284 147.541 -1
      vertex 94.0843 147.932 -1
    endloop
  endfacet
endsolid OpenSCAD_Model
