M48
; DRILL file {KiCad 8.0.3} date 2024-07-24T12:50:55+0200
; FORMAT={-:-/ absolute / metric / decimal}
; #@! TF.CreationDate,2024-07-24T12:50:55+02:00
; #@! TF.GenerationSoftware,Kicad,Pcbnew,8.0.3
; #@! TF.FileFunction,NonPlated,1,2,NPTH
FMAT,2
METRIC
; #@! TA.AperFunction,NonPlated,NPTH,ComponentDrill
T1C1.600
; #@! TA.AperFunction,NonPlated,NPTH,ComponentDrill
T2C1.702
; #@! TA.AperFunction,NonPlated,NPTH,ComponentDrill
T3C2.200
; #@! TA.AperFunction,NonPlated,NPTH,ComponentDrill
T4C3.000
; #@! TA.AperFunction,NonPlated,NPTH,ComponentDrill
T5C3.988
%
G90
G05
T1
X124.547Y-32.375
X124.547Y-39.375
T2
X53.972Y-64.48
X53.972Y-102.58
X53.972Y-121.63
X53.972Y-140.68
X53.972Y-159.73
X53.972Y-178.78
X64.132Y-64.48
X64.132Y-102.58
X64.132Y-121.63
X64.132Y-140.68
X64.132Y-159.73
X64.132Y-178.78
X73.022Y-64.48
X73.022Y-102.58
X73.022Y-121.63
X73.022Y-140.68
X73.022Y-159.73
X73.022Y-178.78
X83.182Y-64.48
X83.182Y-102.58
X83.182Y-121.63
X83.182Y-140.68
X83.182Y-159.73
X83.182Y-178.78
X92.072Y-102.58
X92.072Y-121.63
X92.072Y-140.68
X92.072Y-159.73
X92.072Y-178.78
X102.233Y-102.58
X102.233Y-121.63
X102.233Y-140.68
X102.233Y-159.73
X102.233Y-178.78
X111.122Y-102.58
X111.122Y-121.63
X111.122Y-140.68
X111.122Y-159.73
X111.122Y-178.78
X121.282Y-102.58
X121.282Y-121.63
X121.282Y-140.68
X121.282Y-159.73
X121.282Y-178.78
T3
X47.328Y-34.255
X47.328Y-131.255
X47.328Y-194.255
X88.328Y-85.255
X128.327Y-60.255
X128.327Y-194.255
T4
X55.242Y-61.94
X55.242Y-100.04
X55.242Y-119.09
X55.242Y-138.14
X55.242Y-157.19
X55.242Y-176.24
X61.592Y-59.4
X61.592Y-97.5
X61.592Y-116.55
X61.592Y-135.6
X61.592Y-154.65
X61.592Y-173.7
X74.292Y-61.94
X74.292Y-100.04
X74.292Y-119.09
X74.292Y-138.14
X74.292Y-157.19
X74.292Y-176.24
X80.642Y-59.4
X80.642Y-97.5
X80.642Y-116.55
X80.642Y-135.6
X80.642Y-154.65
X80.642Y-173.7
X93.343Y-100.04
X93.343Y-119.09
X93.343Y-138.14
X93.343Y-157.19
X93.343Y-176.24
X99.692Y-97.5
X99.692Y-116.55
X99.692Y-135.6
X99.692Y-154.65
X99.692Y-173.7
X112.392Y-100.04
X112.392Y-119.09
X112.392Y-138.14
X112.392Y-157.19
X112.392Y-176.24
X118.742Y-97.5
X118.742Y-116.55
X118.742Y-135.6
X118.742Y-154.65
X118.742Y-173.7
T5
X59.052Y-64.48
X59.052Y-102.58
X59.052Y-121.63
X59.052Y-140.68
X59.052Y-159.73
X59.052Y-178.78
X78.102Y-64.48
X78.102Y-102.58
X78.102Y-121.63
X78.102Y-140.68
X78.102Y-159.73
X78.102Y-178.78
X97.152Y-102.58
X97.152Y-121.63
X97.152Y-140.68
X97.152Y-159.73
X97.152Y-178.78
X116.203Y-102.58
X116.203Y-121.63
X116.203Y-140.68
X116.203Y-159.73
X116.203Y-178.78
M30
