M48
; DRILL file {KiCad 8.0.3} date 2024-07-24T12:50:55+0200
; FORMAT={-:-/ absolute / metric / decimal}
; #@! TF.CreationDate,2024-07-24T12:50:55+02:00
; #@! TF.GenerationSoftware,Kicad,Pcbnew,8.0.3
; #@! TF.FileFunction,Plated,1,2,PTH
FMAT,2
METRIC
; #@! TA.AperFunction,Plated,PTH,ViaDrill
T1C0.300
; #@! TA.AperFunction,Plated,PTH,ViaDrill
T2C0.450
; #@! TA.AperFunction,Plated,PTH,ComponentDrill
T3C0.800
; #@! TA.AperFunction,Plated,PTH,ComponentDrill
T4C1.020
; #@! TA.AperFunction,Plated,PTH,ComponentDrill
T5C1.360
%
G90
G05
T1
X54.052Y-73.68
X61.052Y-74.68
X67.052Y-111.68
X67.052Y-130.68
X67.052Y-149.68
X67.052Y-168.68
X67.052Y-187.68
X69.052Y-110.78
X69.052Y-111.68
X69.052Y-129.68
X69.052Y-130.68
X69.052Y-148.68
X69.052Y-149.68
X69.052Y-167.68
X69.052Y-168.68
X69.052Y-186.68
X69.052Y-187.68
X71.052Y-131.68
X71.052Y-150.68
X71.052Y-169.68
X72.052Y-112.68
X74.37Y-73.28
X79.052Y-74.68
X79.052Y-111.68
X79.052Y-130.68
X79.052Y-149.68
X79.052Y-168.68
X79.052Y-187.68
X84.052Y-110.78
X84.052Y-129.68
X84.052Y-148.68
X84.052Y-167.68
X84.052Y-186.68
X84.552Y-71.28
X90.052Y-150.68
X90.052Y-169.68
X91.052Y-112.68
X91.052Y-131.68
X98.052Y-111.68
X98.052Y-130.68
X98.052Y-149.68
X98.052Y-168.68
X98.052Y-187.68
X103.052Y-110.78
X103.052Y-129.68
X103.052Y-148.68
X103.052Y-167.68
X103.052Y-186.68
X109.052Y-150.68
X109.052Y-169.68
X111.052Y-112.68
X111.052Y-131.68
X117.052Y-111.68
X117.052Y-130.68
X117.052Y-149.68
X117.052Y-168.68
X117.052Y-187.68
X118.052Y-89.68
X119.052Y-77.68
X122.052Y-110.78
X122.052Y-129.68
X122.052Y-148.68
X122.052Y-167.68
X122.052Y-186.68
T2
X68.052Y-112.68
X68.052Y-131.68
X68.052Y-150.68
X68.052Y-169.68
X68.052Y-188.68
X91.052Y-52.68
T3
X121.017Y-45.285
X121.017Y-55.445
X126.777Y-45.285
X126.777Y-55.445
T4
X96.737Y-38.425
X96.737Y-40.965
X96.737Y-43.505
X96.737Y-46.045
X96.737Y-48.585
X96.737Y-51.125
X96.737Y-53.665
X96.737Y-56.205
X96.737Y-58.745
X96.737Y-61.285
X96.737Y-63.825
X96.737Y-66.365
X96.737Y-68.905
X96.737Y-71.445
X96.737Y-73.985
X96.737Y-76.525
X96.737Y-79.065
X96.737Y-81.605
X96.737Y-84.145
X96.737Y-86.685
X103.087Y-86.455
X105.627Y-86.455
X108.167Y-86.455
X114.517Y-38.425
X114.517Y-40.965
X114.517Y-43.505
X114.517Y-46.045
X114.517Y-48.585
X114.517Y-51.125
X114.517Y-53.665
X114.517Y-56.205
X114.517Y-58.745
X114.517Y-61.285
X114.517Y-63.825
X114.517Y-66.365
X114.517Y-68.905
X114.517Y-71.445
X114.517Y-73.985
X114.517Y-76.525
X114.517Y-79.065
X114.517Y-81.605
X114.517Y-84.145
X114.517Y-86.685
T5
X57.782Y-69.56
X57.782Y-107.66
X57.782Y-126.71
X57.782Y-145.76
X57.782Y-164.81
X57.782Y-183.86
X60.322Y-69.56
X60.322Y-107.66
X60.322Y-126.71
X60.322Y-145.76
X60.322Y-164.81
X60.322Y-183.86
X76.832Y-69.56
X76.832Y-107.66
X76.832Y-126.71
X76.832Y-145.76
X76.832Y-164.81
X76.832Y-183.86
X79.373Y-69.56
X79.373Y-107.66
X79.373Y-126.71
X79.373Y-145.76
X79.373Y-164.81
X79.373Y-183.86
X95.882Y-107.66
X95.882Y-126.71
X95.882Y-145.76
X95.882Y-164.81
X95.882Y-183.86
X98.422Y-107.66
X98.422Y-126.71
X98.422Y-145.76
X98.422Y-164.81
X98.422Y-183.86
X114.932Y-107.66
X114.932Y-126.71
X114.932Y-145.76
X114.932Y-164.81
X114.932Y-183.86
X117.472Y-107.66
X117.472Y-126.71
X117.472Y-145.76
X117.472Y-164.81
X117.472Y-183.86
M30
