%TF.GenerationSoftware,KiCad,Pcbnew,8.0.3*%
%TF.CreationDate,2024-07-24T12:49:44+02:00*%
%TF.ProjectId,programmable,70726f67-7261-46d6-9d61-626c652e6b69,rev?*%
%TF.SameCoordinates,Original*%
%TF.FileFunction,Legend,Top*%
%TF.FilePolarity,Positive*%
%FSLAX46Y46*%
G04 Gerber Fmt 4.6, Leading zero omitted, Abs format (unit mm)*
G04 Created by KiCad (PCBNEW 8.0.3) date 2024-07-24 12:49:44*
%MOMM*%
%LPD*%
G01*
G04 APERTURE LIST*
%ADD10C,0.100000*%
%ADD11C,0.150000*%
%ADD12C,2.200000*%
%ADD13C,1.701800*%
%ADD14C,3.000000*%
%ADD15C,3.987800*%
%ADD16C,1.600000*%
%ADD17O,1.600000X1.600000*%
%ADD18O,1.700000X1.700000*%
%ADD19R,1.700000X1.700000*%
G04 APERTURE END LIST*
D10*
X45052500Y-88679600D02*
X53052500Y-80679600D01*
X57052500Y-88679600D02*
X53052500Y-84679600D01*
X53052500Y-84679600D02*
X49052500Y-84679600D01*
X53052500Y-80679600D02*
X53052500Y-88679600D01*
X57052500Y-80679600D02*
X53052500Y-84679600D01*
D11*
X86994166Y-82509419D02*
X86660833Y-82033228D01*
X86422738Y-82509419D02*
X86422738Y-81509419D01*
X86422738Y-81509419D02*
X86803690Y-81509419D01*
X86803690Y-81509419D02*
X86898928Y-81557038D01*
X86898928Y-81557038D02*
X86946547Y-81604657D01*
X86946547Y-81604657D02*
X86994166Y-81699895D01*
X86994166Y-81699895D02*
X86994166Y-81842752D01*
X86994166Y-81842752D02*
X86946547Y-81937990D01*
X86946547Y-81937990D02*
X86898928Y-81985609D01*
X86898928Y-81985609D02*
X86803690Y-82033228D01*
X86803690Y-82033228D02*
X86422738Y-82033228D01*
X87422738Y-81985609D02*
X87756071Y-81985609D01*
X87898928Y-82509419D02*
X87422738Y-82509419D01*
X87422738Y-82509419D02*
X87422738Y-81509419D01*
X87422738Y-81509419D02*
X87898928Y-81509419D01*
X88660833Y-81985609D02*
X88327500Y-81985609D01*
X88327500Y-82509419D02*
X88327500Y-81509419D01*
X88327500Y-81509419D02*
X88803690Y-81509419D01*
X89327500Y-81509419D02*
X89327500Y-81747514D01*
X89089405Y-81652276D02*
X89327500Y-81747514D01*
X89327500Y-81747514D02*
X89565595Y-81652276D01*
X89184643Y-81937990D02*
X89327500Y-81747514D01*
X89327500Y-81747514D02*
X89470357Y-81937990D01*
X90089405Y-81509419D02*
X90089405Y-81747514D01*
X89851310Y-81652276D02*
X90089405Y-81747514D01*
X90089405Y-81747514D02*
X90327500Y-81652276D01*
X89946548Y-81937990D02*
X90089405Y-81747514D01*
X90089405Y-81747514D02*
X90232262Y-81937990D01*
X45994166Y-128509419D02*
X45660833Y-128033228D01*
X45422738Y-128509419D02*
X45422738Y-127509419D01*
X45422738Y-127509419D02*
X45803690Y-127509419D01*
X45803690Y-127509419D02*
X45898928Y-127557038D01*
X45898928Y-127557038D02*
X45946547Y-127604657D01*
X45946547Y-127604657D02*
X45994166Y-127699895D01*
X45994166Y-127699895D02*
X45994166Y-127842752D01*
X45994166Y-127842752D02*
X45946547Y-127937990D01*
X45946547Y-127937990D02*
X45898928Y-127985609D01*
X45898928Y-127985609D02*
X45803690Y-128033228D01*
X45803690Y-128033228D02*
X45422738Y-128033228D01*
X46422738Y-127985609D02*
X46756071Y-127985609D01*
X46898928Y-128509419D02*
X46422738Y-128509419D01*
X46422738Y-128509419D02*
X46422738Y-127509419D01*
X46422738Y-127509419D02*
X46898928Y-127509419D01*
X47660833Y-127985609D02*
X47327500Y-127985609D01*
X47327500Y-128509419D02*
X47327500Y-127509419D01*
X47327500Y-127509419D02*
X47803690Y-127509419D01*
X48327500Y-127509419D02*
X48327500Y-127747514D01*
X48089405Y-127652276D02*
X48327500Y-127747514D01*
X48327500Y-127747514D02*
X48565595Y-127652276D01*
X48184643Y-127937990D02*
X48327500Y-127747514D01*
X48327500Y-127747514D02*
X48470357Y-127937990D01*
X49089405Y-127509419D02*
X49089405Y-127747514D01*
X48851310Y-127652276D02*
X49089405Y-127747514D01*
X49089405Y-127747514D02*
X49327500Y-127652276D01*
X48946548Y-127937990D02*
X49089405Y-127747514D01*
X49089405Y-127747514D02*
X49232262Y-127937990D01*
X126994166Y-191509419D02*
X126660833Y-191033228D01*
X126422738Y-191509419D02*
X126422738Y-190509419D01*
X126422738Y-190509419D02*
X126803690Y-190509419D01*
X126803690Y-190509419D02*
X126898928Y-190557038D01*
X126898928Y-190557038D02*
X126946547Y-190604657D01*
X126946547Y-190604657D02*
X126994166Y-190699895D01*
X126994166Y-190699895D02*
X126994166Y-190842752D01*
X126994166Y-190842752D02*
X126946547Y-190937990D01*
X126946547Y-190937990D02*
X126898928Y-190985609D01*
X126898928Y-190985609D02*
X126803690Y-191033228D01*
X126803690Y-191033228D02*
X126422738Y-191033228D01*
X127422738Y-190985609D02*
X127756071Y-190985609D01*
X127898928Y-191509419D02*
X127422738Y-191509419D01*
X127422738Y-191509419D02*
X127422738Y-190509419D01*
X127422738Y-190509419D02*
X127898928Y-190509419D01*
X128660833Y-190985609D02*
X128327500Y-190985609D01*
X128327500Y-191509419D02*
X128327500Y-190509419D01*
X128327500Y-190509419D02*
X128803690Y-190509419D01*
X129327500Y-190509419D02*
X129327500Y-190747514D01*
X129089405Y-190652276D02*
X129327500Y-190747514D01*
X129327500Y-190747514D02*
X129565595Y-190652276D01*
X129184643Y-190937990D02*
X129327500Y-190747514D01*
X129327500Y-190747514D02*
X129470357Y-190937990D01*
X130089405Y-190509419D02*
X130089405Y-190747514D01*
X129851310Y-190652276D02*
X130089405Y-190747514D01*
X130089405Y-190747514D02*
X130327500Y-190652276D01*
X129946548Y-190937990D02*
X130089405Y-190747514D01*
X130089405Y-190747514D02*
X130232262Y-190937990D01*
X45994166Y-191509419D02*
X45660833Y-191033228D01*
X45422738Y-191509419D02*
X45422738Y-190509419D01*
X45422738Y-190509419D02*
X45803690Y-190509419D01*
X45803690Y-190509419D02*
X45898928Y-190557038D01*
X45898928Y-190557038D02*
X45946547Y-190604657D01*
X45946547Y-190604657D02*
X45994166Y-190699895D01*
X45994166Y-190699895D02*
X45994166Y-190842752D01*
X45994166Y-190842752D02*
X45946547Y-190937990D01*
X45946547Y-190937990D02*
X45898928Y-190985609D01*
X45898928Y-190985609D02*
X45803690Y-191033228D01*
X45803690Y-191033228D02*
X45422738Y-191033228D01*
X46422738Y-190985609D02*
X46756071Y-190985609D01*
X46898928Y-191509419D02*
X46422738Y-191509419D01*
X46422738Y-191509419D02*
X46422738Y-190509419D01*
X46422738Y-190509419D02*
X46898928Y-190509419D01*
X47660833Y-190985609D02*
X47327500Y-190985609D01*
X47327500Y-191509419D02*
X47327500Y-190509419D01*
X47327500Y-190509419D02*
X47803690Y-190509419D01*
X48327500Y-190509419D02*
X48327500Y-190747514D01*
X48089405Y-190652276D02*
X48327500Y-190747514D01*
X48327500Y-190747514D02*
X48565595Y-190652276D01*
X48184643Y-190937990D02*
X48327500Y-190747514D01*
X48327500Y-190747514D02*
X48470357Y-190937990D01*
X49089405Y-190509419D02*
X49089405Y-190747514D01*
X48851310Y-190652276D02*
X49089405Y-190747514D01*
X49089405Y-190747514D02*
X49327500Y-190652276D01*
X48946548Y-190937990D02*
X49089405Y-190747514D01*
X49089405Y-190747514D02*
X49232262Y-190937990D01*
X126994166Y-57509419D02*
X126660833Y-57033228D01*
X126422738Y-57509419D02*
X126422738Y-56509419D01*
X126422738Y-56509419D02*
X126803690Y-56509419D01*
X126803690Y-56509419D02*
X126898928Y-56557038D01*
X126898928Y-56557038D02*
X126946547Y-56604657D01*
X126946547Y-56604657D02*
X126994166Y-56699895D01*
X126994166Y-56699895D02*
X126994166Y-56842752D01*
X126994166Y-56842752D02*
X126946547Y-56937990D01*
X126946547Y-56937990D02*
X126898928Y-56985609D01*
X126898928Y-56985609D02*
X126803690Y-57033228D01*
X126803690Y-57033228D02*
X126422738Y-57033228D01*
X127422738Y-56985609D02*
X127756071Y-56985609D01*
X127898928Y-57509419D02*
X127422738Y-57509419D01*
X127422738Y-57509419D02*
X127422738Y-56509419D01*
X127422738Y-56509419D02*
X127898928Y-56509419D01*
X128660833Y-56985609D02*
X128327500Y-56985609D01*
X128327500Y-57509419D02*
X128327500Y-56509419D01*
X128327500Y-56509419D02*
X128803690Y-56509419D01*
X129327500Y-56509419D02*
X129327500Y-56747514D01*
X129089405Y-56652276D02*
X129327500Y-56747514D01*
X129327500Y-56747514D02*
X129565595Y-56652276D01*
X129184643Y-56937990D02*
X129327500Y-56747514D01*
X129327500Y-56747514D02*
X129470357Y-56937990D01*
X130089405Y-56509419D02*
X130089405Y-56747514D01*
X129851310Y-56652276D02*
X130089405Y-56747514D01*
X130089405Y-56747514D02*
X130327500Y-56652276D01*
X129946548Y-56937990D02*
X130089405Y-56747514D01*
X130089405Y-56747514D02*
X130232262Y-56937990D01*
X45994166Y-31509419D02*
X45660833Y-31033228D01*
X45422738Y-31509419D02*
X45422738Y-30509419D01*
X45422738Y-30509419D02*
X45803690Y-30509419D01*
X45803690Y-30509419D02*
X45898928Y-30557038D01*
X45898928Y-30557038D02*
X45946547Y-30604657D01*
X45946547Y-30604657D02*
X45994166Y-30699895D01*
X45994166Y-30699895D02*
X45994166Y-30842752D01*
X45994166Y-30842752D02*
X45946547Y-30937990D01*
X45946547Y-30937990D02*
X45898928Y-30985609D01*
X45898928Y-30985609D02*
X45803690Y-31033228D01*
X45803690Y-31033228D02*
X45422738Y-31033228D01*
X46422738Y-30985609D02*
X46756071Y-30985609D01*
X46898928Y-31509419D02*
X46422738Y-31509419D01*
X46422738Y-31509419D02*
X46422738Y-30509419D01*
X46422738Y-30509419D02*
X46898928Y-30509419D01*
X47660833Y-30985609D02*
X47327500Y-30985609D01*
X47327500Y-31509419D02*
X47327500Y-30509419D01*
X47327500Y-30509419D02*
X47803690Y-30509419D01*
X48327500Y-30509419D02*
X48327500Y-30747514D01*
X48089405Y-30652276D02*
X48327500Y-30747514D01*
X48327500Y-30747514D02*
X48565595Y-30652276D01*
X48184643Y-30937990D02*
X48327500Y-30747514D01*
X48327500Y-30747514D02*
X48470357Y-30937990D01*
X49089405Y-30509419D02*
X49089405Y-30747514D01*
X48851310Y-30652276D02*
X49089405Y-30747514D01*
X49089405Y-30747514D02*
X49327500Y-30652276D01*
X48946548Y-30937990D02*
X49089405Y-30747514D01*
X49089405Y-30747514D02*
X49232262Y-30937990D01*
X111057976Y-43104990D02*
X110981786Y-43066895D01*
X110981786Y-43066895D02*
X110867500Y-43066895D01*
X110867500Y-43066895D02*
X110753214Y-43104990D01*
X110753214Y-43104990D02*
X110677024Y-43181180D01*
X110677024Y-43181180D02*
X110638929Y-43257371D01*
X110638929Y-43257371D02*
X110600833Y-43409752D01*
X110600833Y-43409752D02*
X110600833Y-43524038D01*
X110600833Y-43524038D02*
X110638929Y-43676419D01*
X110638929Y-43676419D02*
X110677024Y-43752609D01*
X110677024Y-43752609D02*
X110753214Y-43828800D01*
X110753214Y-43828800D02*
X110867500Y-43866895D01*
X110867500Y-43866895D02*
X110943691Y-43866895D01*
X110943691Y-43866895D02*
X111057976Y-43828800D01*
X111057976Y-43828800D02*
X111096072Y-43790704D01*
X111096072Y-43790704D02*
X111096072Y-43524038D01*
X111096072Y-43524038D02*
X110943691Y-43524038D01*
X111438929Y-43866895D02*
X111438929Y-43066895D01*
X111438929Y-43066895D02*
X111896072Y-43866895D01*
X111896072Y-43866895D02*
X111896072Y-43066895D01*
X112277024Y-43866895D02*
X112277024Y-43066895D01*
X112277024Y-43066895D02*
X112467500Y-43066895D01*
X112467500Y-43066895D02*
X112581786Y-43104990D01*
X112581786Y-43104990D02*
X112657976Y-43181180D01*
X112657976Y-43181180D02*
X112696071Y-43257371D01*
X112696071Y-43257371D02*
X112734167Y-43409752D01*
X112734167Y-43409752D02*
X112734167Y-43524038D01*
X112734167Y-43524038D02*
X112696071Y-43676419D01*
X112696071Y-43676419D02*
X112657976Y-43752609D01*
X112657976Y-43752609D02*
X112581786Y-43828800D01*
X112581786Y-43828800D02*
X112467500Y-43866895D01*
X112467500Y-43866895D02*
X112277024Y-43866895D01*
X111096071Y-48184990D02*
X111019881Y-48146895D01*
X111019881Y-48146895D02*
X110905595Y-48146895D01*
X110905595Y-48146895D02*
X110791309Y-48184990D01*
X110791309Y-48184990D02*
X110715119Y-48261180D01*
X110715119Y-48261180D02*
X110677024Y-48337371D01*
X110677024Y-48337371D02*
X110638928Y-48489752D01*
X110638928Y-48489752D02*
X110638928Y-48604038D01*
X110638928Y-48604038D02*
X110677024Y-48756419D01*
X110677024Y-48756419D02*
X110715119Y-48832609D01*
X110715119Y-48832609D02*
X110791309Y-48908800D01*
X110791309Y-48908800D02*
X110905595Y-48946895D01*
X110905595Y-48946895D02*
X110981786Y-48946895D01*
X110981786Y-48946895D02*
X111096071Y-48908800D01*
X111096071Y-48908800D02*
X111134167Y-48870704D01*
X111134167Y-48870704D02*
X111134167Y-48604038D01*
X111134167Y-48604038D02*
X110981786Y-48604038D01*
X111477024Y-48946895D02*
X111477024Y-48146895D01*
X111477024Y-48146895D02*
X111781786Y-48146895D01*
X111781786Y-48146895D02*
X111857976Y-48184990D01*
X111857976Y-48184990D02*
X111896071Y-48223085D01*
X111896071Y-48223085D02*
X111934167Y-48299276D01*
X111934167Y-48299276D02*
X111934167Y-48413561D01*
X111934167Y-48413561D02*
X111896071Y-48489752D01*
X111896071Y-48489752D02*
X111857976Y-48527847D01*
X111857976Y-48527847D02*
X111781786Y-48565942D01*
X111781786Y-48565942D02*
X111477024Y-48565942D01*
X112200833Y-48146895D02*
X112696071Y-48146895D01*
X112696071Y-48146895D02*
X112429405Y-48451657D01*
X112429405Y-48451657D02*
X112543690Y-48451657D01*
X112543690Y-48451657D02*
X112619881Y-48489752D01*
X112619881Y-48489752D02*
X112657976Y-48527847D01*
X112657976Y-48527847D02*
X112696071Y-48604038D01*
X112696071Y-48604038D02*
X112696071Y-48794514D01*
X112696071Y-48794514D02*
X112657976Y-48870704D01*
X112657976Y-48870704D02*
X112619881Y-48908800D01*
X112619881Y-48908800D02*
X112543690Y-48946895D01*
X112543690Y-48946895D02*
X112315119Y-48946895D01*
X112315119Y-48946895D02*
X112238928Y-48908800D01*
X112238928Y-48908800D02*
X112200833Y-48870704D01*
X99135118Y-76124990D02*
X99058928Y-76086895D01*
X99058928Y-76086895D02*
X98944642Y-76086895D01*
X98944642Y-76086895D02*
X98830356Y-76124990D01*
X98830356Y-76124990D02*
X98754166Y-76201180D01*
X98754166Y-76201180D02*
X98716071Y-76277371D01*
X98716071Y-76277371D02*
X98677975Y-76429752D01*
X98677975Y-76429752D02*
X98677975Y-76544038D01*
X98677975Y-76544038D02*
X98716071Y-76696419D01*
X98716071Y-76696419D02*
X98754166Y-76772609D01*
X98754166Y-76772609D02*
X98830356Y-76848800D01*
X98830356Y-76848800D02*
X98944642Y-76886895D01*
X98944642Y-76886895D02*
X99020833Y-76886895D01*
X99020833Y-76886895D02*
X99135118Y-76848800D01*
X99135118Y-76848800D02*
X99173214Y-76810704D01*
X99173214Y-76810704D02*
X99173214Y-76544038D01*
X99173214Y-76544038D02*
X99020833Y-76544038D01*
X99516071Y-76886895D02*
X99516071Y-76086895D01*
X99516071Y-76086895D02*
X99820833Y-76086895D01*
X99820833Y-76086895D02*
X99897023Y-76124990D01*
X99897023Y-76124990D02*
X99935118Y-76163085D01*
X99935118Y-76163085D02*
X99973214Y-76239276D01*
X99973214Y-76239276D02*
X99973214Y-76353561D01*
X99973214Y-76353561D02*
X99935118Y-76429752D01*
X99935118Y-76429752D02*
X99897023Y-76467847D01*
X99897023Y-76467847D02*
X99820833Y-76505942D01*
X99820833Y-76505942D02*
X99516071Y-76505942D01*
X100735118Y-76886895D02*
X100277975Y-76886895D01*
X100506547Y-76886895D02*
X100506547Y-76086895D01*
X100506547Y-76086895D02*
X100430356Y-76201180D01*
X100430356Y-76201180D02*
X100354166Y-76277371D01*
X100354166Y-76277371D02*
X100277975Y-76315466D01*
X101116071Y-76886895D02*
X101268452Y-76886895D01*
X101268452Y-76886895D02*
X101344642Y-76848800D01*
X101344642Y-76848800D02*
X101382738Y-76810704D01*
X101382738Y-76810704D02*
X101458928Y-76696419D01*
X101458928Y-76696419D02*
X101497023Y-76544038D01*
X101497023Y-76544038D02*
X101497023Y-76239276D01*
X101497023Y-76239276D02*
X101458928Y-76163085D01*
X101458928Y-76163085D02*
X101420833Y-76124990D01*
X101420833Y-76124990D02*
X101344642Y-76086895D01*
X101344642Y-76086895D02*
X101192261Y-76086895D01*
X101192261Y-76086895D02*
X101116071Y-76124990D01*
X101116071Y-76124990D02*
X101077976Y-76163085D01*
X101077976Y-76163085D02*
X101039880Y-76239276D01*
X101039880Y-76239276D02*
X101039880Y-76429752D01*
X101039880Y-76429752D02*
X101077976Y-76505942D01*
X101077976Y-76505942D02*
X101116071Y-76544038D01*
X101116071Y-76544038D02*
X101192261Y-76582133D01*
X101192261Y-76582133D02*
X101344642Y-76582133D01*
X101344642Y-76582133D02*
X101420833Y-76544038D01*
X101420833Y-76544038D02*
X101458928Y-76505942D01*
X101458928Y-76505942D02*
X101497023Y-76429752D01*
X99135118Y-83744990D02*
X99058928Y-83706895D01*
X99058928Y-83706895D02*
X98944642Y-83706895D01*
X98944642Y-83706895D02*
X98830356Y-83744990D01*
X98830356Y-83744990D02*
X98754166Y-83821180D01*
X98754166Y-83821180D02*
X98716071Y-83897371D01*
X98716071Y-83897371D02*
X98677975Y-84049752D01*
X98677975Y-84049752D02*
X98677975Y-84164038D01*
X98677975Y-84164038D02*
X98716071Y-84316419D01*
X98716071Y-84316419D02*
X98754166Y-84392609D01*
X98754166Y-84392609D02*
X98830356Y-84468800D01*
X98830356Y-84468800D02*
X98944642Y-84506895D01*
X98944642Y-84506895D02*
X99020833Y-84506895D01*
X99020833Y-84506895D02*
X99135118Y-84468800D01*
X99135118Y-84468800D02*
X99173214Y-84430704D01*
X99173214Y-84430704D02*
X99173214Y-84164038D01*
X99173214Y-84164038D02*
X99020833Y-84164038D01*
X99516071Y-84506895D02*
X99516071Y-83706895D01*
X99516071Y-83706895D02*
X99820833Y-83706895D01*
X99820833Y-83706895D02*
X99897023Y-83744990D01*
X99897023Y-83744990D02*
X99935118Y-83783085D01*
X99935118Y-83783085D02*
X99973214Y-83859276D01*
X99973214Y-83859276D02*
X99973214Y-83973561D01*
X99973214Y-83973561D02*
X99935118Y-84049752D01*
X99935118Y-84049752D02*
X99897023Y-84087847D01*
X99897023Y-84087847D02*
X99820833Y-84125942D01*
X99820833Y-84125942D02*
X99516071Y-84125942D01*
X100735118Y-84506895D02*
X100277975Y-84506895D01*
X100506547Y-84506895D02*
X100506547Y-83706895D01*
X100506547Y-83706895D02*
X100430356Y-83821180D01*
X100430356Y-83821180D02*
X100354166Y-83897371D01*
X100354166Y-83897371D02*
X100277975Y-83935466D01*
X101001785Y-83706895D02*
X101535119Y-83706895D01*
X101535119Y-83706895D02*
X101192261Y-84506895D01*
X110365118Y-71044990D02*
X110288928Y-71006895D01*
X110288928Y-71006895D02*
X110174642Y-71006895D01*
X110174642Y-71006895D02*
X110060356Y-71044990D01*
X110060356Y-71044990D02*
X109984166Y-71121180D01*
X109984166Y-71121180D02*
X109946071Y-71197371D01*
X109946071Y-71197371D02*
X109907975Y-71349752D01*
X109907975Y-71349752D02*
X109907975Y-71464038D01*
X109907975Y-71464038D02*
X109946071Y-71616419D01*
X109946071Y-71616419D02*
X109984166Y-71692609D01*
X109984166Y-71692609D02*
X110060356Y-71768800D01*
X110060356Y-71768800D02*
X110174642Y-71806895D01*
X110174642Y-71806895D02*
X110250833Y-71806895D01*
X110250833Y-71806895D02*
X110365118Y-71768800D01*
X110365118Y-71768800D02*
X110403214Y-71730704D01*
X110403214Y-71730704D02*
X110403214Y-71464038D01*
X110403214Y-71464038D02*
X110250833Y-71464038D01*
X110746071Y-71806895D02*
X110746071Y-71006895D01*
X110746071Y-71006895D02*
X111050833Y-71006895D01*
X111050833Y-71006895D02*
X111127023Y-71044990D01*
X111127023Y-71044990D02*
X111165118Y-71083085D01*
X111165118Y-71083085D02*
X111203214Y-71159276D01*
X111203214Y-71159276D02*
X111203214Y-71273561D01*
X111203214Y-71273561D02*
X111165118Y-71349752D01*
X111165118Y-71349752D02*
X111127023Y-71387847D01*
X111127023Y-71387847D02*
X111050833Y-71425942D01*
X111050833Y-71425942D02*
X110746071Y-71425942D01*
X111965118Y-71806895D02*
X111507975Y-71806895D01*
X111736547Y-71806895D02*
X111736547Y-71006895D01*
X111736547Y-71006895D02*
X111660356Y-71121180D01*
X111660356Y-71121180D02*
X111584166Y-71197371D01*
X111584166Y-71197371D02*
X111507975Y-71235466D01*
X112460357Y-71006895D02*
X112536547Y-71006895D01*
X112536547Y-71006895D02*
X112612738Y-71044990D01*
X112612738Y-71044990D02*
X112650833Y-71083085D01*
X112650833Y-71083085D02*
X112688928Y-71159276D01*
X112688928Y-71159276D02*
X112727023Y-71311657D01*
X112727023Y-71311657D02*
X112727023Y-71502133D01*
X112727023Y-71502133D02*
X112688928Y-71654514D01*
X112688928Y-71654514D02*
X112650833Y-71730704D01*
X112650833Y-71730704D02*
X112612738Y-71768800D01*
X112612738Y-71768800D02*
X112536547Y-71806895D01*
X112536547Y-71806895D02*
X112460357Y-71806895D01*
X112460357Y-71806895D02*
X112384166Y-71768800D01*
X112384166Y-71768800D02*
X112346071Y-71730704D01*
X112346071Y-71730704D02*
X112307976Y-71654514D01*
X112307976Y-71654514D02*
X112269880Y-71502133D01*
X112269880Y-71502133D02*
X112269880Y-71311657D01*
X112269880Y-71311657D02*
X112307976Y-71159276D01*
X112307976Y-71159276D02*
X112346071Y-71083085D01*
X112346071Y-71083085D02*
X112384166Y-71044990D01*
X112384166Y-71044990D02*
X112460357Y-71006895D01*
X110365118Y-83744990D02*
X110288928Y-83706895D01*
X110288928Y-83706895D02*
X110174642Y-83706895D01*
X110174642Y-83706895D02*
X110060356Y-83744990D01*
X110060356Y-83744990D02*
X109984166Y-83821180D01*
X109984166Y-83821180D02*
X109946071Y-83897371D01*
X109946071Y-83897371D02*
X109907975Y-84049752D01*
X109907975Y-84049752D02*
X109907975Y-84164038D01*
X109907975Y-84164038D02*
X109946071Y-84316419D01*
X109946071Y-84316419D02*
X109984166Y-84392609D01*
X109984166Y-84392609D02*
X110060356Y-84468800D01*
X110060356Y-84468800D02*
X110174642Y-84506895D01*
X110174642Y-84506895D02*
X110250833Y-84506895D01*
X110250833Y-84506895D02*
X110365118Y-84468800D01*
X110365118Y-84468800D02*
X110403214Y-84430704D01*
X110403214Y-84430704D02*
X110403214Y-84164038D01*
X110403214Y-84164038D02*
X110250833Y-84164038D01*
X110746071Y-84506895D02*
X110746071Y-83706895D01*
X110746071Y-83706895D02*
X111050833Y-83706895D01*
X111050833Y-83706895D02*
X111127023Y-83744990D01*
X111127023Y-83744990D02*
X111165118Y-83783085D01*
X111165118Y-83783085D02*
X111203214Y-83859276D01*
X111203214Y-83859276D02*
X111203214Y-83973561D01*
X111203214Y-83973561D02*
X111165118Y-84049752D01*
X111165118Y-84049752D02*
X111127023Y-84087847D01*
X111127023Y-84087847D02*
X111050833Y-84125942D01*
X111050833Y-84125942D02*
X110746071Y-84125942D01*
X111965118Y-84506895D02*
X111507975Y-84506895D01*
X111736547Y-84506895D02*
X111736547Y-83706895D01*
X111736547Y-83706895D02*
X111660356Y-83821180D01*
X111660356Y-83821180D02*
X111584166Y-83897371D01*
X111584166Y-83897371D02*
X111507975Y-83935466D01*
X112650833Y-83973561D02*
X112650833Y-84506895D01*
X112460357Y-83668800D02*
X112269880Y-84240228D01*
X112269880Y-84240228D02*
X112765119Y-84240228D01*
X111096071Y-40554990D02*
X111019881Y-40516895D01*
X111019881Y-40516895D02*
X110905595Y-40516895D01*
X110905595Y-40516895D02*
X110791309Y-40554990D01*
X110791309Y-40554990D02*
X110715119Y-40631180D01*
X110715119Y-40631180D02*
X110677024Y-40707371D01*
X110677024Y-40707371D02*
X110638928Y-40859752D01*
X110638928Y-40859752D02*
X110638928Y-40974038D01*
X110638928Y-40974038D02*
X110677024Y-41126419D01*
X110677024Y-41126419D02*
X110715119Y-41202609D01*
X110715119Y-41202609D02*
X110791309Y-41278800D01*
X110791309Y-41278800D02*
X110905595Y-41316895D01*
X110905595Y-41316895D02*
X110981786Y-41316895D01*
X110981786Y-41316895D02*
X111096071Y-41278800D01*
X111096071Y-41278800D02*
X111134167Y-41240704D01*
X111134167Y-41240704D02*
X111134167Y-40974038D01*
X111134167Y-40974038D02*
X110981786Y-40974038D01*
X111477024Y-41316895D02*
X111477024Y-40516895D01*
X111477024Y-40516895D02*
X111781786Y-40516895D01*
X111781786Y-40516895D02*
X111857976Y-40554990D01*
X111857976Y-40554990D02*
X111896071Y-40593085D01*
X111896071Y-40593085D02*
X111934167Y-40669276D01*
X111934167Y-40669276D02*
X111934167Y-40783561D01*
X111934167Y-40783561D02*
X111896071Y-40859752D01*
X111896071Y-40859752D02*
X111857976Y-40897847D01*
X111857976Y-40897847D02*
X111781786Y-40935942D01*
X111781786Y-40935942D02*
X111477024Y-40935942D01*
X112696071Y-41316895D02*
X112238928Y-41316895D01*
X112467500Y-41316895D02*
X112467500Y-40516895D01*
X112467500Y-40516895D02*
X112391309Y-40631180D01*
X112391309Y-40631180D02*
X112315119Y-40707371D01*
X112315119Y-40707371D02*
X112238928Y-40745466D01*
X105227890Y-84164123D02*
X105189795Y-84240313D01*
X105189795Y-84240313D02*
X105189795Y-84354599D01*
X105189795Y-84354599D02*
X105227890Y-84468885D01*
X105227890Y-84468885D02*
X105304080Y-84545075D01*
X105304080Y-84545075D02*
X105380271Y-84583170D01*
X105380271Y-84583170D02*
X105532652Y-84621266D01*
X105532652Y-84621266D02*
X105646938Y-84621266D01*
X105646938Y-84621266D02*
X105799319Y-84583170D01*
X105799319Y-84583170D02*
X105875509Y-84545075D01*
X105875509Y-84545075D02*
X105951700Y-84468885D01*
X105951700Y-84468885D02*
X105989795Y-84354599D01*
X105989795Y-84354599D02*
X105989795Y-84278408D01*
X105989795Y-84278408D02*
X105951700Y-84164123D01*
X105951700Y-84164123D02*
X105913604Y-84126027D01*
X105913604Y-84126027D02*
X105646938Y-84126027D01*
X105646938Y-84126027D02*
X105646938Y-84278408D01*
X105989795Y-83783170D02*
X105189795Y-83783170D01*
X105189795Y-83783170D02*
X105989795Y-83326027D01*
X105989795Y-83326027D02*
X105189795Y-83326027D01*
X105989795Y-82945075D02*
X105189795Y-82945075D01*
X105189795Y-82945075D02*
X105189795Y-82754599D01*
X105189795Y-82754599D02*
X105227890Y-82640313D01*
X105227890Y-82640313D02*
X105304080Y-82564123D01*
X105304080Y-82564123D02*
X105380271Y-82526028D01*
X105380271Y-82526028D02*
X105532652Y-82487932D01*
X105532652Y-82487932D02*
X105646938Y-82487932D01*
X105646938Y-82487932D02*
X105799319Y-82526028D01*
X105799319Y-82526028D02*
X105875509Y-82564123D01*
X105875509Y-82564123D02*
X105951700Y-82640313D01*
X105951700Y-82640313D02*
X105989795Y-82754599D01*
X105989795Y-82754599D02*
X105989795Y-82945075D01*
X110365118Y-86284990D02*
X110288928Y-86246895D01*
X110288928Y-86246895D02*
X110174642Y-86246895D01*
X110174642Y-86246895D02*
X110060356Y-86284990D01*
X110060356Y-86284990D02*
X109984166Y-86361180D01*
X109984166Y-86361180D02*
X109946071Y-86437371D01*
X109946071Y-86437371D02*
X109907975Y-86589752D01*
X109907975Y-86589752D02*
X109907975Y-86704038D01*
X109907975Y-86704038D02*
X109946071Y-86856419D01*
X109946071Y-86856419D02*
X109984166Y-86932609D01*
X109984166Y-86932609D02*
X110060356Y-87008800D01*
X110060356Y-87008800D02*
X110174642Y-87046895D01*
X110174642Y-87046895D02*
X110250833Y-87046895D01*
X110250833Y-87046895D02*
X110365118Y-87008800D01*
X110365118Y-87008800D02*
X110403214Y-86970704D01*
X110403214Y-86970704D02*
X110403214Y-86704038D01*
X110403214Y-86704038D02*
X110250833Y-86704038D01*
X110746071Y-87046895D02*
X110746071Y-86246895D01*
X110746071Y-86246895D02*
X111050833Y-86246895D01*
X111050833Y-86246895D02*
X111127023Y-86284990D01*
X111127023Y-86284990D02*
X111165118Y-86323085D01*
X111165118Y-86323085D02*
X111203214Y-86399276D01*
X111203214Y-86399276D02*
X111203214Y-86513561D01*
X111203214Y-86513561D02*
X111165118Y-86589752D01*
X111165118Y-86589752D02*
X111127023Y-86627847D01*
X111127023Y-86627847D02*
X111050833Y-86665942D01*
X111050833Y-86665942D02*
X110746071Y-86665942D01*
X111965118Y-87046895D02*
X111507975Y-87046895D01*
X111736547Y-87046895D02*
X111736547Y-86246895D01*
X111736547Y-86246895D02*
X111660356Y-86361180D01*
X111660356Y-86361180D02*
X111584166Y-86437371D01*
X111584166Y-86437371D02*
X111507975Y-86475466D01*
X112688928Y-86246895D02*
X112307976Y-86246895D01*
X112307976Y-86246895D02*
X112269880Y-86627847D01*
X112269880Y-86627847D02*
X112307976Y-86589752D01*
X112307976Y-86589752D02*
X112384166Y-86551657D01*
X112384166Y-86551657D02*
X112574642Y-86551657D01*
X112574642Y-86551657D02*
X112650833Y-86589752D01*
X112650833Y-86589752D02*
X112688928Y-86627847D01*
X112688928Y-86627847D02*
X112727023Y-86704038D01*
X112727023Y-86704038D02*
X112727023Y-86894514D01*
X112727023Y-86894514D02*
X112688928Y-86970704D01*
X112688928Y-86970704D02*
X112650833Y-87008800D01*
X112650833Y-87008800D02*
X112574642Y-87046895D01*
X112574642Y-87046895D02*
X112384166Y-87046895D01*
X112384166Y-87046895D02*
X112307976Y-87008800D01*
X112307976Y-87008800D02*
X112269880Y-86970704D01*
X99147024Y-64186895D02*
X98880357Y-63805942D01*
X98689881Y-64186895D02*
X98689881Y-63386895D01*
X98689881Y-63386895D02*
X98994643Y-63386895D01*
X98994643Y-63386895D02*
X99070833Y-63424990D01*
X99070833Y-63424990D02*
X99108928Y-63463085D01*
X99108928Y-63463085D02*
X99147024Y-63539276D01*
X99147024Y-63539276D02*
X99147024Y-63653561D01*
X99147024Y-63653561D02*
X99108928Y-63729752D01*
X99108928Y-63729752D02*
X99070833Y-63767847D01*
X99070833Y-63767847D02*
X98994643Y-63805942D01*
X98994643Y-63805942D02*
X98689881Y-63805942D01*
X99489881Y-63386895D02*
X99489881Y-64034514D01*
X99489881Y-64034514D02*
X99527976Y-64110704D01*
X99527976Y-64110704D02*
X99566071Y-64148800D01*
X99566071Y-64148800D02*
X99642262Y-64186895D01*
X99642262Y-64186895D02*
X99794643Y-64186895D01*
X99794643Y-64186895D02*
X99870833Y-64148800D01*
X99870833Y-64148800D02*
X99908928Y-64110704D01*
X99908928Y-64110704D02*
X99947024Y-64034514D01*
X99947024Y-64034514D02*
X99947024Y-63386895D01*
X100327976Y-64186895D02*
X100327976Y-63386895D01*
X100327976Y-63386895D02*
X100785119Y-64186895D01*
X100785119Y-64186895D02*
X100785119Y-63386895D01*
X111096071Y-63424990D02*
X111019881Y-63386895D01*
X111019881Y-63386895D02*
X110905595Y-63386895D01*
X110905595Y-63386895D02*
X110791309Y-63424990D01*
X110791309Y-63424990D02*
X110715119Y-63501180D01*
X110715119Y-63501180D02*
X110677024Y-63577371D01*
X110677024Y-63577371D02*
X110638928Y-63729752D01*
X110638928Y-63729752D02*
X110638928Y-63844038D01*
X110638928Y-63844038D02*
X110677024Y-63996419D01*
X110677024Y-63996419D02*
X110715119Y-64072609D01*
X110715119Y-64072609D02*
X110791309Y-64148800D01*
X110791309Y-64148800D02*
X110905595Y-64186895D01*
X110905595Y-64186895D02*
X110981786Y-64186895D01*
X110981786Y-64186895D02*
X111096071Y-64148800D01*
X111096071Y-64148800D02*
X111134167Y-64110704D01*
X111134167Y-64110704D02*
X111134167Y-63844038D01*
X111134167Y-63844038D02*
X110981786Y-63844038D01*
X111477024Y-64186895D02*
X111477024Y-63386895D01*
X111477024Y-63386895D02*
X111781786Y-63386895D01*
X111781786Y-63386895D02*
X111857976Y-63424990D01*
X111857976Y-63424990D02*
X111896071Y-63463085D01*
X111896071Y-63463085D02*
X111934167Y-63539276D01*
X111934167Y-63539276D02*
X111934167Y-63653561D01*
X111934167Y-63653561D02*
X111896071Y-63729752D01*
X111896071Y-63729752D02*
X111857976Y-63767847D01*
X111857976Y-63767847D02*
X111781786Y-63805942D01*
X111781786Y-63805942D02*
X111477024Y-63805942D01*
X112391309Y-63729752D02*
X112315119Y-63691657D01*
X112315119Y-63691657D02*
X112277024Y-63653561D01*
X112277024Y-63653561D02*
X112238928Y-63577371D01*
X112238928Y-63577371D02*
X112238928Y-63539276D01*
X112238928Y-63539276D02*
X112277024Y-63463085D01*
X112277024Y-63463085D02*
X112315119Y-63424990D01*
X112315119Y-63424990D02*
X112391309Y-63386895D01*
X112391309Y-63386895D02*
X112543690Y-63386895D01*
X112543690Y-63386895D02*
X112619881Y-63424990D01*
X112619881Y-63424990D02*
X112657976Y-63463085D01*
X112657976Y-63463085D02*
X112696071Y-63539276D01*
X112696071Y-63539276D02*
X112696071Y-63577371D01*
X112696071Y-63577371D02*
X112657976Y-63653561D01*
X112657976Y-63653561D02*
X112619881Y-63691657D01*
X112619881Y-63691657D02*
X112543690Y-63729752D01*
X112543690Y-63729752D02*
X112391309Y-63729752D01*
X112391309Y-63729752D02*
X112315119Y-63767847D01*
X112315119Y-63767847D02*
X112277024Y-63805942D01*
X112277024Y-63805942D02*
X112238928Y-63882133D01*
X112238928Y-63882133D02*
X112238928Y-64034514D01*
X112238928Y-64034514D02*
X112277024Y-64110704D01*
X112277024Y-64110704D02*
X112315119Y-64148800D01*
X112315119Y-64148800D02*
X112391309Y-64186895D01*
X112391309Y-64186895D02*
X112543690Y-64186895D01*
X112543690Y-64186895D02*
X112619881Y-64148800D01*
X112619881Y-64148800D02*
X112657976Y-64110704D01*
X112657976Y-64110704D02*
X112696071Y-64034514D01*
X112696071Y-64034514D02*
X112696071Y-63882133D01*
X112696071Y-63882133D02*
X112657976Y-63805942D01*
X112657976Y-63805942D02*
X112619881Y-63767847D01*
X112619881Y-63767847D02*
X112543690Y-63729752D01*
X111057976Y-81204990D02*
X110981786Y-81166895D01*
X110981786Y-81166895D02*
X110867500Y-81166895D01*
X110867500Y-81166895D02*
X110753214Y-81204990D01*
X110753214Y-81204990D02*
X110677024Y-81281180D01*
X110677024Y-81281180D02*
X110638929Y-81357371D01*
X110638929Y-81357371D02*
X110600833Y-81509752D01*
X110600833Y-81509752D02*
X110600833Y-81624038D01*
X110600833Y-81624038D02*
X110638929Y-81776419D01*
X110638929Y-81776419D02*
X110677024Y-81852609D01*
X110677024Y-81852609D02*
X110753214Y-81928800D01*
X110753214Y-81928800D02*
X110867500Y-81966895D01*
X110867500Y-81966895D02*
X110943691Y-81966895D01*
X110943691Y-81966895D02*
X111057976Y-81928800D01*
X111057976Y-81928800D02*
X111096072Y-81890704D01*
X111096072Y-81890704D02*
X111096072Y-81624038D01*
X111096072Y-81624038D02*
X110943691Y-81624038D01*
X111438929Y-81966895D02*
X111438929Y-81166895D01*
X111438929Y-81166895D02*
X111896072Y-81966895D01*
X111896072Y-81966895D02*
X111896072Y-81166895D01*
X112277024Y-81966895D02*
X112277024Y-81166895D01*
X112277024Y-81166895D02*
X112467500Y-81166895D01*
X112467500Y-81166895D02*
X112581786Y-81204990D01*
X112581786Y-81204990D02*
X112657976Y-81281180D01*
X112657976Y-81281180D02*
X112696071Y-81357371D01*
X112696071Y-81357371D02*
X112734167Y-81509752D01*
X112734167Y-81509752D02*
X112734167Y-81624038D01*
X112734167Y-81624038D02*
X112696071Y-81776419D01*
X112696071Y-81776419D02*
X112657976Y-81852609D01*
X112657976Y-81852609D02*
X112581786Y-81928800D01*
X112581786Y-81928800D02*
X112467500Y-81966895D01*
X112467500Y-81966895D02*
X112277024Y-81966895D01*
X99127976Y-68504990D02*
X99051786Y-68466895D01*
X99051786Y-68466895D02*
X98937500Y-68466895D01*
X98937500Y-68466895D02*
X98823214Y-68504990D01*
X98823214Y-68504990D02*
X98747024Y-68581180D01*
X98747024Y-68581180D02*
X98708929Y-68657371D01*
X98708929Y-68657371D02*
X98670833Y-68809752D01*
X98670833Y-68809752D02*
X98670833Y-68924038D01*
X98670833Y-68924038D02*
X98708929Y-69076419D01*
X98708929Y-69076419D02*
X98747024Y-69152609D01*
X98747024Y-69152609D02*
X98823214Y-69228800D01*
X98823214Y-69228800D02*
X98937500Y-69266895D01*
X98937500Y-69266895D02*
X99013691Y-69266895D01*
X99013691Y-69266895D02*
X99127976Y-69228800D01*
X99127976Y-69228800D02*
X99166072Y-69190704D01*
X99166072Y-69190704D02*
X99166072Y-68924038D01*
X99166072Y-68924038D02*
X99013691Y-68924038D01*
X99508929Y-69266895D02*
X99508929Y-68466895D01*
X99508929Y-68466895D02*
X99966072Y-69266895D01*
X99966072Y-69266895D02*
X99966072Y-68466895D01*
X100347024Y-69266895D02*
X100347024Y-68466895D01*
X100347024Y-68466895D02*
X100537500Y-68466895D01*
X100537500Y-68466895D02*
X100651786Y-68504990D01*
X100651786Y-68504990D02*
X100727976Y-68581180D01*
X100727976Y-68581180D02*
X100766071Y-68657371D01*
X100766071Y-68657371D02*
X100804167Y-68809752D01*
X100804167Y-68809752D02*
X100804167Y-68924038D01*
X100804167Y-68924038D02*
X100766071Y-69076419D01*
X100766071Y-69076419D02*
X100727976Y-69152609D01*
X100727976Y-69152609D02*
X100651786Y-69228800D01*
X100651786Y-69228800D02*
X100537500Y-69266895D01*
X100537500Y-69266895D02*
X100347024Y-69266895D01*
X99135118Y-71054990D02*
X99058928Y-71016895D01*
X99058928Y-71016895D02*
X98944642Y-71016895D01*
X98944642Y-71016895D02*
X98830356Y-71054990D01*
X98830356Y-71054990D02*
X98754166Y-71131180D01*
X98754166Y-71131180D02*
X98716071Y-71207371D01*
X98716071Y-71207371D02*
X98677975Y-71359752D01*
X98677975Y-71359752D02*
X98677975Y-71474038D01*
X98677975Y-71474038D02*
X98716071Y-71626419D01*
X98716071Y-71626419D02*
X98754166Y-71702609D01*
X98754166Y-71702609D02*
X98830356Y-71778800D01*
X98830356Y-71778800D02*
X98944642Y-71816895D01*
X98944642Y-71816895D02*
X99020833Y-71816895D01*
X99020833Y-71816895D02*
X99135118Y-71778800D01*
X99135118Y-71778800D02*
X99173214Y-71740704D01*
X99173214Y-71740704D02*
X99173214Y-71474038D01*
X99173214Y-71474038D02*
X99020833Y-71474038D01*
X99516071Y-71816895D02*
X99516071Y-71016895D01*
X99516071Y-71016895D02*
X99820833Y-71016895D01*
X99820833Y-71016895D02*
X99897023Y-71054990D01*
X99897023Y-71054990D02*
X99935118Y-71093085D01*
X99935118Y-71093085D02*
X99973214Y-71169276D01*
X99973214Y-71169276D02*
X99973214Y-71283561D01*
X99973214Y-71283561D02*
X99935118Y-71359752D01*
X99935118Y-71359752D02*
X99897023Y-71397847D01*
X99897023Y-71397847D02*
X99820833Y-71435942D01*
X99820833Y-71435942D02*
X99516071Y-71435942D01*
X100277975Y-71093085D02*
X100316071Y-71054990D01*
X100316071Y-71054990D02*
X100392261Y-71016895D01*
X100392261Y-71016895D02*
X100582737Y-71016895D01*
X100582737Y-71016895D02*
X100658928Y-71054990D01*
X100658928Y-71054990D02*
X100697023Y-71093085D01*
X100697023Y-71093085D02*
X100735118Y-71169276D01*
X100735118Y-71169276D02*
X100735118Y-71245466D01*
X100735118Y-71245466D02*
X100697023Y-71359752D01*
X100697023Y-71359752D02*
X100239880Y-71816895D01*
X100239880Y-71816895D02*
X100735118Y-71816895D01*
X101497023Y-71816895D02*
X101039880Y-71816895D01*
X101268452Y-71816895D02*
X101268452Y-71016895D01*
X101268452Y-71016895D02*
X101192261Y-71131180D01*
X101192261Y-71131180D02*
X101116071Y-71207371D01*
X101116071Y-71207371D02*
X101039880Y-71245466D01*
X99135118Y-60884990D02*
X99058928Y-60846895D01*
X99058928Y-60846895D02*
X98944642Y-60846895D01*
X98944642Y-60846895D02*
X98830356Y-60884990D01*
X98830356Y-60884990D02*
X98754166Y-60961180D01*
X98754166Y-60961180D02*
X98716071Y-61037371D01*
X98716071Y-61037371D02*
X98677975Y-61189752D01*
X98677975Y-61189752D02*
X98677975Y-61304038D01*
X98677975Y-61304038D02*
X98716071Y-61456419D01*
X98716071Y-61456419D02*
X98754166Y-61532609D01*
X98754166Y-61532609D02*
X98830356Y-61608800D01*
X98830356Y-61608800D02*
X98944642Y-61646895D01*
X98944642Y-61646895D02*
X99020833Y-61646895D01*
X99020833Y-61646895D02*
X99135118Y-61608800D01*
X99135118Y-61608800D02*
X99173214Y-61570704D01*
X99173214Y-61570704D02*
X99173214Y-61304038D01*
X99173214Y-61304038D02*
X99020833Y-61304038D01*
X99516071Y-61646895D02*
X99516071Y-60846895D01*
X99516071Y-60846895D02*
X99820833Y-60846895D01*
X99820833Y-60846895D02*
X99897023Y-60884990D01*
X99897023Y-60884990D02*
X99935118Y-60923085D01*
X99935118Y-60923085D02*
X99973214Y-60999276D01*
X99973214Y-60999276D02*
X99973214Y-61113561D01*
X99973214Y-61113561D02*
X99935118Y-61189752D01*
X99935118Y-61189752D02*
X99897023Y-61227847D01*
X99897023Y-61227847D02*
X99820833Y-61265942D01*
X99820833Y-61265942D02*
X99516071Y-61265942D01*
X100277975Y-60923085D02*
X100316071Y-60884990D01*
X100316071Y-60884990D02*
X100392261Y-60846895D01*
X100392261Y-60846895D02*
X100582737Y-60846895D01*
X100582737Y-60846895D02*
X100658928Y-60884990D01*
X100658928Y-60884990D02*
X100697023Y-60923085D01*
X100697023Y-60923085D02*
X100735118Y-60999276D01*
X100735118Y-60999276D02*
X100735118Y-61075466D01*
X100735118Y-61075466D02*
X100697023Y-61189752D01*
X100697023Y-61189752D02*
X100239880Y-61646895D01*
X100239880Y-61646895D02*
X100735118Y-61646895D01*
X101420833Y-60846895D02*
X101268452Y-60846895D01*
X101268452Y-60846895D02*
X101192261Y-60884990D01*
X101192261Y-60884990D02*
X101154166Y-60923085D01*
X101154166Y-60923085D02*
X101077976Y-61037371D01*
X101077976Y-61037371D02*
X101039880Y-61189752D01*
X101039880Y-61189752D02*
X101039880Y-61494514D01*
X101039880Y-61494514D02*
X101077976Y-61570704D01*
X101077976Y-61570704D02*
X101116071Y-61608800D01*
X101116071Y-61608800D02*
X101192261Y-61646895D01*
X101192261Y-61646895D02*
X101344642Y-61646895D01*
X101344642Y-61646895D02*
X101420833Y-61608800D01*
X101420833Y-61608800D02*
X101458928Y-61570704D01*
X101458928Y-61570704D02*
X101497023Y-61494514D01*
X101497023Y-61494514D02*
X101497023Y-61304038D01*
X101497023Y-61304038D02*
X101458928Y-61227847D01*
X101458928Y-61227847D02*
X101420833Y-61189752D01*
X101420833Y-61189752D02*
X101344642Y-61151657D01*
X101344642Y-61151657D02*
X101192261Y-61151657D01*
X101192261Y-61151657D02*
X101116071Y-61189752D01*
X101116071Y-61189752D02*
X101077976Y-61227847D01*
X101077976Y-61227847D02*
X101039880Y-61304038D01*
X111096071Y-60854990D02*
X111019881Y-60816895D01*
X111019881Y-60816895D02*
X110905595Y-60816895D01*
X110905595Y-60816895D02*
X110791309Y-60854990D01*
X110791309Y-60854990D02*
X110715119Y-60931180D01*
X110715119Y-60931180D02*
X110677024Y-61007371D01*
X110677024Y-61007371D02*
X110638928Y-61159752D01*
X110638928Y-61159752D02*
X110638928Y-61274038D01*
X110638928Y-61274038D02*
X110677024Y-61426419D01*
X110677024Y-61426419D02*
X110715119Y-61502609D01*
X110715119Y-61502609D02*
X110791309Y-61578800D01*
X110791309Y-61578800D02*
X110905595Y-61616895D01*
X110905595Y-61616895D02*
X110981786Y-61616895D01*
X110981786Y-61616895D02*
X111096071Y-61578800D01*
X111096071Y-61578800D02*
X111134167Y-61540704D01*
X111134167Y-61540704D02*
X111134167Y-61274038D01*
X111134167Y-61274038D02*
X110981786Y-61274038D01*
X111477024Y-61616895D02*
X111477024Y-60816895D01*
X111477024Y-60816895D02*
X111781786Y-60816895D01*
X111781786Y-60816895D02*
X111857976Y-60854990D01*
X111857976Y-60854990D02*
X111896071Y-60893085D01*
X111896071Y-60893085D02*
X111934167Y-60969276D01*
X111934167Y-60969276D02*
X111934167Y-61083561D01*
X111934167Y-61083561D02*
X111896071Y-61159752D01*
X111896071Y-61159752D02*
X111857976Y-61197847D01*
X111857976Y-61197847D02*
X111781786Y-61235942D01*
X111781786Y-61235942D02*
X111477024Y-61235942D01*
X112200833Y-60816895D02*
X112734167Y-60816895D01*
X112734167Y-60816895D02*
X112391309Y-61616895D01*
X98594642Y-51258323D02*
X98975595Y-51258323D01*
X98518452Y-51486895D02*
X98785119Y-50686895D01*
X98785119Y-50686895D02*
X99051785Y-51486895D01*
X99318452Y-51486895D02*
X99318452Y-50686895D01*
X99318452Y-50686895D02*
X99508928Y-50686895D01*
X99508928Y-50686895D02*
X99623214Y-50724990D01*
X99623214Y-50724990D02*
X99699404Y-50801180D01*
X99699404Y-50801180D02*
X99737499Y-50877371D01*
X99737499Y-50877371D02*
X99775595Y-51029752D01*
X99775595Y-51029752D02*
X99775595Y-51144038D01*
X99775595Y-51144038D02*
X99737499Y-51296419D01*
X99737499Y-51296419D02*
X99699404Y-51372609D01*
X99699404Y-51372609D02*
X99623214Y-51448800D01*
X99623214Y-51448800D02*
X99508928Y-51486895D01*
X99508928Y-51486895D02*
X99318452Y-51486895D01*
X100575595Y-51410704D02*
X100537499Y-51448800D01*
X100537499Y-51448800D02*
X100423214Y-51486895D01*
X100423214Y-51486895D02*
X100347023Y-51486895D01*
X100347023Y-51486895D02*
X100232737Y-51448800D01*
X100232737Y-51448800D02*
X100156547Y-51372609D01*
X100156547Y-51372609D02*
X100118452Y-51296419D01*
X100118452Y-51296419D02*
X100080356Y-51144038D01*
X100080356Y-51144038D02*
X100080356Y-51029752D01*
X100080356Y-51029752D02*
X100118452Y-50877371D01*
X100118452Y-50877371D02*
X100156547Y-50801180D01*
X100156547Y-50801180D02*
X100232737Y-50724990D01*
X100232737Y-50724990D02*
X100347023Y-50686895D01*
X100347023Y-50686895D02*
X100423214Y-50686895D01*
X100423214Y-50686895D02*
X100537499Y-50724990D01*
X100537499Y-50724990D02*
X100575595Y-50763085D01*
X100727976Y-51563085D02*
X101337499Y-51563085D01*
X101413690Y-50686895D02*
X101680357Y-51486895D01*
X101680357Y-51486895D02*
X101947023Y-50686895D01*
X102670833Y-51486895D02*
X102404166Y-51105942D01*
X102213690Y-51486895D02*
X102213690Y-50686895D01*
X102213690Y-50686895D02*
X102518452Y-50686895D01*
X102518452Y-50686895D02*
X102594642Y-50724990D01*
X102594642Y-50724990D02*
X102632737Y-50763085D01*
X102632737Y-50763085D02*
X102670833Y-50839276D01*
X102670833Y-50839276D02*
X102670833Y-50953561D01*
X102670833Y-50953561D02*
X102632737Y-51029752D01*
X102632737Y-51029752D02*
X102594642Y-51067847D01*
X102594642Y-51067847D02*
X102518452Y-51105942D01*
X102518452Y-51105942D02*
X102213690Y-51105942D01*
X103013690Y-51067847D02*
X103280356Y-51067847D01*
X103394642Y-51486895D02*
X103013690Y-51486895D01*
X103013690Y-51486895D02*
X103013690Y-50686895D01*
X103013690Y-50686895D02*
X103394642Y-50686895D01*
X104004166Y-51067847D02*
X103737500Y-51067847D01*
X103737500Y-51486895D02*
X103737500Y-50686895D01*
X103737500Y-50686895D02*
X104118452Y-50686895D01*
X99127976Y-81204990D02*
X99051786Y-81166895D01*
X99051786Y-81166895D02*
X98937500Y-81166895D01*
X98937500Y-81166895D02*
X98823214Y-81204990D01*
X98823214Y-81204990D02*
X98747024Y-81281180D01*
X98747024Y-81281180D02*
X98708929Y-81357371D01*
X98708929Y-81357371D02*
X98670833Y-81509752D01*
X98670833Y-81509752D02*
X98670833Y-81624038D01*
X98670833Y-81624038D02*
X98708929Y-81776419D01*
X98708929Y-81776419D02*
X98747024Y-81852609D01*
X98747024Y-81852609D02*
X98823214Y-81928800D01*
X98823214Y-81928800D02*
X98937500Y-81966895D01*
X98937500Y-81966895D02*
X99013691Y-81966895D01*
X99013691Y-81966895D02*
X99127976Y-81928800D01*
X99127976Y-81928800D02*
X99166072Y-81890704D01*
X99166072Y-81890704D02*
X99166072Y-81624038D01*
X99166072Y-81624038D02*
X99013691Y-81624038D01*
X99508929Y-81966895D02*
X99508929Y-81166895D01*
X99508929Y-81166895D02*
X99966072Y-81966895D01*
X99966072Y-81966895D02*
X99966072Y-81166895D01*
X100347024Y-81966895D02*
X100347024Y-81166895D01*
X100347024Y-81166895D02*
X100537500Y-81166895D01*
X100537500Y-81166895D02*
X100651786Y-81204990D01*
X100651786Y-81204990D02*
X100727976Y-81281180D01*
X100727976Y-81281180D02*
X100766071Y-81357371D01*
X100766071Y-81357371D02*
X100804167Y-81509752D01*
X100804167Y-81509752D02*
X100804167Y-81624038D01*
X100804167Y-81624038D02*
X100766071Y-81776419D01*
X100766071Y-81776419D02*
X100727976Y-81852609D01*
X100727976Y-81852609D02*
X100651786Y-81928800D01*
X100651786Y-81928800D02*
X100537500Y-81966895D01*
X100537500Y-81966895D02*
X100347024Y-81966895D01*
X98466071Y-40526895D02*
X98732738Y-41326895D01*
X98732738Y-41326895D02*
X98999404Y-40526895D01*
X99227975Y-41288800D02*
X99342261Y-41326895D01*
X99342261Y-41326895D02*
X99532737Y-41326895D01*
X99532737Y-41326895D02*
X99608928Y-41288800D01*
X99608928Y-41288800D02*
X99647023Y-41250704D01*
X99647023Y-41250704D02*
X99685118Y-41174514D01*
X99685118Y-41174514D02*
X99685118Y-41098323D01*
X99685118Y-41098323D02*
X99647023Y-41022133D01*
X99647023Y-41022133D02*
X99608928Y-40984038D01*
X99608928Y-40984038D02*
X99532737Y-40945942D01*
X99532737Y-40945942D02*
X99380356Y-40907847D01*
X99380356Y-40907847D02*
X99304166Y-40869752D01*
X99304166Y-40869752D02*
X99266071Y-40831657D01*
X99266071Y-40831657D02*
X99227975Y-40755466D01*
X99227975Y-40755466D02*
X99227975Y-40679276D01*
X99227975Y-40679276D02*
X99266071Y-40603085D01*
X99266071Y-40603085D02*
X99304166Y-40564990D01*
X99304166Y-40564990D02*
X99380356Y-40526895D01*
X99380356Y-40526895D02*
X99570833Y-40526895D01*
X99570833Y-40526895D02*
X99685118Y-40564990D01*
X100180357Y-40945942D02*
X100180357Y-41326895D01*
X99913690Y-40526895D02*
X100180357Y-40945942D01*
X100180357Y-40945942D02*
X100447023Y-40526895D01*
X100675594Y-41288800D02*
X100789880Y-41326895D01*
X100789880Y-41326895D02*
X100980356Y-41326895D01*
X100980356Y-41326895D02*
X101056547Y-41288800D01*
X101056547Y-41288800D02*
X101094642Y-41250704D01*
X101094642Y-41250704D02*
X101132737Y-41174514D01*
X101132737Y-41174514D02*
X101132737Y-41098323D01*
X101132737Y-41098323D02*
X101094642Y-41022133D01*
X101094642Y-41022133D02*
X101056547Y-40984038D01*
X101056547Y-40984038D02*
X100980356Y-40945942D01*
X100980356Y-40945942D02*
X100827975Y-40907847D01*
X100827975Y-40907847D02*
X100751785Y-40869752D01*
X100751785Y-40869752D02*
X100713690Y-40831657D01*
X100713690Y-40831657D02*
X100675594Y-40755466D01*
X100675594Y-40755466D02*
X100675594Y-40679276D01*
X100675594Y-40679276D02*
X100713690Y-40603085D01*
X100713690Y-40603085D02*
X100751785Y-40564990D01*
X100751785Y-40564990D02*
X100827975Y-40526895D01*
X100827975Y-40526895D02*
X101018452Y-40526895D01*
X101018452Y-40526895D02*
X101132737Y-40564990D01*
X111096071Y-65964990D02*
X111019881Y-65926895D01*
X111019881Y-65926895D02*
X110905595Y-65926895D01*
X110905595Y-65926895D02*
X110791309Y-65964990D01*
X110791309Y-65964990D02*
X110715119Y-66041180D01*
X110715119Y-66041180D02*
X110677024Y-66117371D01*
X110677024Y-66117371D02*
X110638928Y-66269752D01*
X110638928Y-66269752D02*
X110638928Y-66384038D01*
X110638928Y-66384038D02*
X110677024Y-66536419D01*
X110677024Y-66536419D02*
X110715119Y-66612609D01*
X110715119Y-66612609D02*
X110791309Y-66688800D01*
X110791309Y-66688800D02*
X110905595Y-66726895D01*
X110905595Y-66726895D02*
X110981786Y-66726895D01*
X110981786Y-66726895D02*
X111096071Y-66688800D01*
X111096071Y-66688800D02*
X111134167Y-66650704D01*
X111134167Y-66650704D02*
X111134167Y-66384038D01*
X111134167Y-66384038D02*
X110981786Y-66384038D01*
X111477024Y-66726895D02*
X111477024Y-65926895D01*
X111477024Y-65926895D02*
X111781786Y-65926895D01*
X111781786Y-65926895D02*
X111857976Y-65964990D01*
X111857976Y-65964990D02*
X111896071Y-66003085D01*
X111896071Y-66003085D02*
X111934167Y-66079276D01*
X111934167Y-66079276D02*
X111934167Y-66193561D01*
X111934167Y-66193561D02*
X111896071Y-66269752D01*
X111896071Y-66269752D02*
X111857976Y-66307847D01*
X111857976Y-66307847D02*
X111781786Y-66345942D01*
X111781786Y-66345942D02*
X111477024Y-66345942D01*
X112315119Y-66726895D02*
X112467500Y-66726895D01*
X112467500Y-66726895D02*
X112543690Y-66688800D01*
X112543690Y-66688800D02*
X112581786Y-66650704D01*
X112581786Y-66650704D02*
X112657976Y-66536419D01*
X112657976Y-66536419D02*
X112696071Y-66384038D01*
X112696071Y-66384038D02*
X112696071Y-66079276D01*
X112696071Y-66079276D02*
X112657976Y-66003085D01*
X112657976Y-66003085D02*
X112619881Y-65964990D01*
X112619881Y-65964990D02*
X112543690Y-65926895D01*
X112543690Y-65926895D02*
X112391309Y-65926895D01*
X112391309Y-65926895D02*
X112315119Y-65964990D01*
X112315119Y-65964990D02*
X112277024Y-66003085D01*
X112277024Y-66003085D02*
X112238928Y-66079276D01*
X112238928Y-66079276D02*
X112238928Y-66269752D01*
X112238928Y-66269752D02*
X112277024Y-66345942D01*
X112277024Y-66345942D02*
X112315119Y-66384038D01*
X112315119Y-66384038D02*
X112391309Y-66422133D01*
X112391309Y-66422133D02*
X112543690Y-66422133D01*
X112543690Y-66422133D02*
X112619881Y-66384038D01*
X112619881Y-66384038D02*
X112657976Y-66345942D01*
X112657976Y-66345942D02*
X112696071Y-66269752D01*
X111057976Y-55804990D02*
X110981786Y-55766895D01*
X110981786Y-55766895D02*
X110867500Y-55766895D01*
X110867500Y-55766895D02*
X110753214Y-55804990D01*
X110753214Y-55804990D02*
X110677024Y-55881180D01*
X110677024Y-55881180D02*
X110638929Y-55957371D01*
X110638929Y-55957371D02*
X110600833Y-56109752D01*
X110600833Y-56109752D02*
X110600833Y-56224038D01*
X110600833Y-56224038D02*
X110638929Y-56376419D01*
X110638929Y-56376419D02*
X110677024Y-56452609D01*
X110677024Y-56452609D02*
X110753214Y-56528800D01*
X110753214Y-56528800D02*
X110867500Y-56566895D01*
X110867500Y-56566895D02*
X110943691Y-56566895D01*
X110943691Y-56566895D02*
X111057976Y-56528800D01*
X111057976Y-56528800D02*
X111096072Y-56490704D01*
X111096072Y-56490704D02*
X111096072Y-56224038D01*
X111096072Y-56224038D02*
X110943691Y-56224038D01*
X111438929Y-56566895D02*
X111438929Y-55766895D01*
X111438929Y-55766895D02*
X111896072Y-56566895D01*
X111896072Y-56566895D02*
X111896072Y-55766895D01*
X112277024Y-56566895D02*
X112277024Y-55766895D01*
X112277024Y-55766895D02*
X112467500Y-55766895D01*
X112467500Y-55766895D02*
X112581786Y-55804990D01*
X112581786Y-55804990D02*
X112657976Y-55881180D01*
X112657976Y-55881180D02*
X112696071Y-55957371D01*
X112696071Y-55957371D02*
X112734167Y-56109752D01*
X112734167Y-56109752D02*
X112734167Y-56224038D01*
X112734167Y-56224038D02*
X112696071Y-56376419D01*
X112696071Y-56376419D02*
X112657976Y-56452609D01*
X112657976Y-56452609D02*
X112581786Y-56528800D01*
X112581786Y-56528800D02*
X112467500Y-56566895D01*
X112467500Y-56566895D02*
X112277024Y-56566895D01*
X99135118Y-58354990D02*
X99058928Y-58316895D01*
X99058928Y-58316895D02*
X98944642Y-58316895D01*
X98944642Y-58316895D02*
X98830356Y-58354990D01*
X98830356Y-58354990D02*
X98754166Y-58431180D01*
X98754166Y-58431180D02*
X98716071Y-58507371D01*
X98716071Y-58507371D02*
X98677975Y-58659752D01*
X98677975Y-58659752D02*
X98677975Y-58774038D01*
X98677975Y-58774038D02*
X98716071Y-58926419D01*
X98716071Y-58926419D02*
X98754166Y-59002609D01*
X98754166Y-59002609D02*
X98830356Y-59078800D01*
X98830356Y-59078800D02*
X98944642Y-59116895D01*
X98944642Y-59116895D02*
X99020833Y-59116895D01*
X99020833Y-59116895D02*
X99135118Y-59078800D01*
X99135118Y-59078800D02*
X99173214Y-59040704D01*
X99173214Y-59040704D02*
X99173214Y-58774038D01*
X99173214Y-58774038D02*
X99020833Y-58774038D01*
X99516071Y-59116895D02*
X99516071Y-58316895D01*
X99516071Y-58316895D02*
X99820833Y-58316895D01*
X99820833Y-58316895D02*
X99897023Y-58354990D01*
X99897023Y-58354990D02*
X99935118Y-58393085D01*
X99935118Y-58393085D02*
X99973214Y-58469276D01*
X99973214Y-58469276D02*
X99973214Y-58583561D01*
X99973214Y-58583561D02*
X99935118Y-58659752D01*
X99935118Y-58659752D02*
X99897023Y-58697847D01*
X99897023Y-58697847D02*
X99820833Y-58735942D01*
X99820833Y-58735942D02*
X99516071Y-58735942D01*
X100277975Y-58393085D02*
X100316071Y-58354990D01*
X100316071Y-58354990D02*
X100392261Y-58316895D01*
X100392261Y-58316895D02*
X100582737Y-58316895D01*
X100582737Y-58316895D02*
X100658928Y-58354990D01*
X100658928Y-58354990D02*
X100697023Y-58393085D01*
X100697023Y-58393085D02*
X100735118Y-58469276D01*
X100735118Y-58469276D02*
X100735118Y-58545466D01*
X100735118Y-58545466D02*
X100697023Y-58659752D01*
X100697023Y-58659752D02*
X100239880Y-59116895D01*
X100239880Y-59116895D02*
X100735118Y-59116895D01*
X101001785Y-58316895D02*
X101535119Y-58316895D01*
X101535119Y-58316895D02*
X101192261Y-59116895D01*
X99135118Y-65964990D02*
X99058928Y-65926895D01*
X99058928Y-65926895D02*
X98944642Y-65926895D01*
X98944642Y-65926895D02*
X98830356Y-65964990D01*
X98830356Y-65964990D02*
X98754166Y-66041180D01*
X98754166Y-66041180D02*
X98716071Y-66117371D01*
X98716071Y-66117371D02*
X98677975Y-66269752D01*
X98677975Y-66269752D02*
X98677975Y-66384038D01*
X98677975Y-66384038D02*
X98716071Y-66536419D01*
X98716071Y-66536419D02*
X98754166Y-66612609D01*
X98754166Y-66612609D02*
X98830356Y-66688800D01*
X98830356Y-66688800D02*
X98944642Y-66726895D01*
X98944642Y-66726895D02*
X99020833Y-66726895D01*
X99020833Y-66726895D02*
X99135118Y-66688800D01*
X99135118Y-66688800D02*
X99173214Y-66650704D01*
X99173214Y-66650704D02*
X99173214Y-66384038D01*
X99173214Y-66384038D02*
X99020833Y-66384038D01*
X99516071Y-66726895D02*
X99516071Y-65926895D01*
X99516071Y-65926895D02*
X99820833Y-65926895D01*
X99820833Y-65926895D02*
X99897023Y-65964990D01*
X99897023Y-65964990D02*
X99935118Y-66003085D01*
X99935118Y-66003085D02*
X99973214Y-66079276D01*
X99973214Y-66079276D02*
X99973214Y-66193561D01*
X99973214Y-66193561D02*
X99935118Y-66269752D01*
X99935118Y-66269752D02*
X99897023Y-66307847D01*
X99897023Y-66307847D02*
X99820833Y-66345942D01*
X99820833Y-66345942D02*
X99516071Y-66345942D01*
X100277975Y-66003085D02*
X100316071Y-65964990D01*
X100316071Y-65964990D02*
X100392261Y-65926895D01*
X100392261Y-65926895D02*
X100582737Y-65926895D01*
X100582737Y-65926895D02*
X100658928Y-65964990D01*
X100658928Y-65964990D02*
X100697023Y-66003085D01*
X100697023Y-66003085D02*
X100735118Y-66079276D01*
X100735118Y-66079276D02*
X100735118Y-66155466D01*
X100735118Y-66155466D02*
X100697023Y-66269752D01*
X100697023Y-66269752D02*
X100239880Y-66726895D01*
X100239880Y-66726895D02*
X100735118Y-66726895D01*
X101039880Y-66003085D02*
X101077976Y-65964990D01*
X101077976Y-65964990D02*
X101154166Y-65926895D01*
X101154166Y-65926895D02*
X101344642Y-65926895D01*
X101344642Y-65926895D02*
X101420833Y-65964990D01*
X101420833Y-65964990D02*
X101458928Y-66003085D01*
X101458928Y-66003085D02*
X101497023Y-66079276D01*
X101497023Y-66079276D02*
X101497023Y-66155466D01*
X101497023Y-66155466D02*
X101458928Y-66269752D01*
X101458928Y-66269752D02*
X101001785Y-66726895D01*
X101001785Y-66726895D02*
X101497023Y-66726895D01*
X111096071Y-50724990D02*
X111019881Y-50686895D01*
X111019881Y-50686895D02*
X110905595Y-50686895D01*
X110905595Y-50686895D02*
X110791309Y-50724990D01*
X110791309Y-50724990D02*
X110715119Y-50801180D01*
X110715119Y-50801180D02*
X110677024Y-50877371D01*
X110677024Y-50877371D02*
X110638928Y-51029752D01*
X110638928Y-51029752D02*
X110638928Y-51144038D01*
X110638928Y-51144038D02*
X110677024Y-51296419D01*
X110677024Y-51296419D02*
X110715119Y-51372609D01*
X110715119Y-51372609D02*
X110791309Y-51448800D01*
X110791309Y-51448800D02*
X110905595Y-51486895D01*
X110905595Y-51486895D02*
X110981786Y-51486895D01*
X110981786Y-51486895D02*
X111096071Y-51448800D01*
X111096071Y-51448800D02*
X111134167Y-51410704D01*
X111134167Y-51410704D02*
X111134167Y-51144038D01*
X111134167Y-51144038D02*
X110981786Y-51144038D01*
X111477024Y-51486895D02*
X111477024Y-50686895D01*
X111477024Y-50686895D02*
X111781786Y-50686895D01*
X111781786Y-50686895D02*
X111857976Y-50724990D01*
X111857976Y-50724990D02*
X111896071Y-50763085D01*
X111896071Y-50763085D02*
X111934167Y-50839276D01*
X111934167Y-50839276D02*
X111934167Y-50953561D01*
X111934167Y-50953561D02*
X111896071Y-51029752D01*
X111896071Y-51029752D02*
X111857976Y-51067847D01*
X111857976Y-51067847D02*
X111781786Y-51105942D01*
X111781786Y-51105942D02*
X111477024Y-51105942D01*
X112619881Y-50953561D02*
X112619881Y-51486895D01*
X112429405Y-50648800D02*
X112238928Y-51220228D01*
X112238928Y-51220228D02*
X112734167Y-51220228D01*
X99135118Y-73584990D02*
X99058928Y-73546895D01*
X99058928Y-73546895D02*
X98944642Y-73546895D01*
X98944642Y-73546895D02*
X98830356Y-73584990D01*
X98830356Y-73584990D02*
X98754166Y-73661180D01*
X98754166Y-73661180D02*
X98716071Y-73737371D01*
X98716071Y-73737371D02*
X98677975Y-73889752D01*
X98677975Y-73889752D02*
X98677975Y-74004038D01*
X98677975Y-74004038D02*
X98716071Y-74156419D01*
X98716071Y-74156419D02*
X98754166Y-74232609D01*
X98754166Y-74232609D02*
X98830356Y-74308800D01*
X98830356Y-74308800D02*
X98944642Y-74346895D01*
X98944642Y-74346895D02*
X99020833Y-74346895D01*
X99020833Y-74346895D02*
X99135118Y-74308800D01*
X99135118Y-74308800D02*
X99173214Y-74270704D01*
X99173214Y-74270704D02*
X99173214Y-74004038D01*
X99173214Y-74004038D02*
X99020833Y-74004038D01*
X99516071Y-74346895D02*
X99516071Y-73546895D01*
X99516071Y-73546895D02*
X99820833Y-73546895D01*
X99820833Y-73546895D02*
X99897023Y-73584990D01*
X99897023Y-73584990D02*
X99935118Y-73623085D01*
X99935118Y-73623085D02*
X99973214Y-73699276D01*
X99973214Y-73699276D02*
X99973214Y-73813561D01*
X99973214Y-73813561D02*
X99935118Y-73889752D01*
X99935118Y-73889752D02*
X99897023Y-73927847D01*
X99897023Y-73927847D02*
X99820833Y-73965942D01*
X99820833Y-73965942D02*
X99516071Y-73965942D01*
X100277975Y-73623085D02*
X100316071Y-73584990D01*
X100316071Y-73584990D02*
X100392261Y-73546895D01*
X100392261Y-73546895D02*
X100582737Y-73546895D01*
X100582737Y-73546895D02*
X100658928Y-73584990D01*
X100658928Y-73584990D02*
X100697023Y-73623085D01*
X100697023Y-73623085D02*
X100735118Y-73699276D01*
X100735118Y-73699276D02*
X100735118Y-73775466D01*
X100735118Y-73775466D02*
X100697023Y-73889752D01*
X100697023Y-73889752D02*
X100239880Y-74346895D01*
X100239880Y-74346895D02*
X100735118Y-74346895D01*
X101230357Y-73546895D02*
X101306547Y-73546895D01*
X101306547Y-73546895D02*
X101382738Y-73584990D01*
X101382738Y-73584990D02*
X101420833Y-73623085D01*
X101420833Y-73623085D02*
X101458928Y-73699276D01*
X101458928Y-73699276D02*
X101497023Y-73851657D01*
X101497023Y-73851657D02*
X101497023Y-74042133D01*
X101497023Y-74042133D02*
X101458928Y-74194514D01*
X101458928Y-74194514D02*
X101420833Y-74270704D01*
X101420833Y-74270704D02*
X101382738Y-74308800D01*
X101382738Y-74308800D02*
X101306547Y-74346895D01*
X101306547Y-74346895D02*
X101230357Y-74346895D01*
X101230357Y-74346895D02*
X101154166Y-74308800D01*
X101154166Y-74308800D02*
X101116071Y-74270704D01*
X101116071Y-74270704D02*
X101077976Y-74194514D01*
X101077976Y-74194514D02*
X101039880Y-74042133D01*
X101039880Y-74042133D02*
X101039880Y-73851657D01*
X101039880Y-73851657D02*
X101077976Y-73699276D01*
X101077976Y-73699276D02*
X101116071Y-73623085D01*
X101116071Y-73623085D02*
X101154166Y-73584990D01*
X101154166Y-73584990D02*
X101230357Y-73546895D01*
X98977976Y-43104990D02*
X98901786Y-43066895D01*
X98901786Y-43066895D02*
X98787500Y-43066895D01*
X98787500Y-43066895D02*
X98673214Y-43104990D01*
X98673214Y-43104990D02*
X98597024Y-43181180D01*
X98597024Y-43181180D02*
X98558929Y-43257371D01*
X98558929Y-43257371D02*
X98520833Y-43409752D01*
X98520833Y-43409752D02*
X98520833Y-43524038D01*
X98520833Y-43524038D02*
X98558929Y-43676419D01*
X98558929Y-43676419D02*
X98597024Y-43752609D01*
X98597024Y-43752609D02*
X98673214Y-43828800D01*
X98673214Y-43828800D02*
X98787500Y-43866895D01*
X98787500Y-43866895D02*
X98863691Y-43866895D01*
X98863691Y-43866895D02*
X98977976Y-43828800D01*
X98977976Y-43828800D02*
X99016072Y-43790704D01*
X99016072Y-43790704D02*
X99016072Y-43524038D01*
X99016072Y-43524038D02*
X98863691Y-43524038D01*
X99358929Y-43866895D02*
X99358929Y-43066895D01*
X99358929Y-43066895D02*
X99816072Y-43866895D01*
X99816072Y-43866895D02*
X99816072Y-43066895D01*
X100197024Y-43866895D02*
X100197024Y-43066895D01*
X100197024Y-43066895D02*
X100387500Y-43066895D01*
X100387500Y-43066895D02*
X100501786Y-43104990D01*
X100501786Y-43104990D02*
X100577976Y-43181180D01*
X100577976Y-43181180D02*
X100616071Y-43257371D01*
X100616071Y-43257371D02*
X100654167Y-43409752D01*
X100654167Y-43409752D02*
X100654167Y-43524038D01*
X100654167Y-43524038D02*
X100616071Y-43676419D01*
X100616071Y-43676419D02*
X100577976Y-43752609D01*
X100577976Y-43752609D02*
X100501786Y-43828800D01*
X100501786Y-43828800D02*
X100387500Y-43866895D01*
X100387500Y-43866895D02*
X100197024Y-43866895D01*
X98677976Y-56338323D02*
X99058929Y-56338323D01*
X98601786Y-56566895D02*
X98868453Y-55766895D01*
X98868453Y-55766895D02*
X99135119Y-56566895D01*
X99820833Y-55804990D02*
X99744643Y-55766895D01*
X99744643Y-55766895D02*
X99630357Y-55766895D01*
X99630357Y-55766895D02*
X99516071Y-55804990D01*
X99516071Y-55804990D02*
X99439881Y-55881180D01*
X99439881Y-55881180D02*
X99401786Y-55957371D01*
X99401786Y-55957371D02*
X99363690Y-56109752D01*
X99363690Y-56109752D02*
X99363690Y-56224038D01*
X99363690Y-56224038D02*
X99401786Y-56376419D01*
X99401786Y-56376419D02*
X99439881Y-56452609D01*
X99439881Y-56452609D02*
X99516071Y-56528800D01*
X99516071Y-56528800D02*
X99630357Y-56566895D01*
X99630357Y-56566895D02*
X99706548Y-56566895D01*
X99706548Y-56566895D02*
X99820833Y-56528800D01*
X99820833Y-56528800D02*
X99858929Y-56490704D01*
X99858929Y-56490704D02*
X99858929Y-56224038D01*
X99858929Y-56224038D02*
X99706548Y-56224038D01*
X100201786Y-56566895D02*
X100201786Y-55766895D01*
X100201786Y-55766895D02*
X100658929Y-56566895D01*
X100658929Y-56566895D02*
X100658929Y-55766895D01*
X101039881Y-56566895D02*
X101039881Y-55766895D01*
X101039881Y-55766895D02*
X101230357Y-55766895D01*
X101230357Y-55766895D02*
X101344643Y-55804990D01*
X101344643Y-55804990D02*
X101420833Y-55881180D01*
X101420833Y-55881180D02*
X101458928Y-55957371D01*
X101458928Y-55957371D02*
X101497024Y-56109752D01*
X101497024Y-56109752D02*
X101497024Y-56224038D01*
X101497024Y-56224038D02*
X101458928Y-56376419D01*
X101458928Y-56376419D02*
X101420833Y-56452609D01*
X101420833Y-56452609D02*
X101344643Y-56528800D01*
X101344643Y-56528800D02*
X101230357Y-56566895D01*
X101230357Y-56566895D02*
X101039881Y-56566895D01*
X99135118Y-53264990D02*
X99058928Y-53226895D01*
X99058928Y-53226895D02*
X98944642Y-53226895D01*
X98944642Y-53226895D02*
X98830356Y-53264990D01*
X98830356Y-53264990D02*
X98754166Y-53341180D01*
X98754166Y-53341180D02*
X98716071Y-53417371D01*
X98716071Y-53417371D02*
X98677975Y-53569752D01*
X98677975Y-53569752D02*
X98677975Y-53684038D01*
X98677975Y-53684038D02*
X98716071Y-53836419D01*
X98716071Y-53836419D02*
X98754166Y-53912609D01*
X98754166Y-53912609D02*
X98830356Y-53988800D01*
X98830356Y-53988800D02*
X98944642Y-54026895D01*
X98944642Y-54026895D02*
X99020833Y-54026895D01*
X99020833Y-54026895D02*
X99135118Y-53988800D01*
X99135118Y-53988800D02*
X99173214Y-53950704D01*
X99173214Y-53950704D02*
X99173214Y-53684038D01*
X99173214Y-53684038D02*
X99020833Y-53684038D01*
X99516071Y-54026895D02*
X99516071Y-53226895D01*
X99516071Y-53226895D02*
X99820833Y-53226895D01*
X99820833Y-53226895D02*
X99897023Y-53264990D01*
X99897023Y-53264990D02*
X99935118Y-53303085D01*
X99935118Y-53303085D02*
X99973214Y-53379276D01*
X99973214Y-53379276D02*
X99973214Y-53493561D01*
X99973214Y-53493561D02*
X99935118Y-53569752D01*
X99935118Y-53569752D02*
X99897023Y-53607847D01*
X99897023Y-53607847D02*
X99820833Y-53645942D01*
X99820833Y-53645942D02*
X99516071Y-53645942D01*
X100277975Y-53303085D02*
X100316071Y-53264990D01*
X100316071Y-53264990D02*
X100392261Y-53226895D01*
X100392261Y-53226895D02*
X100582737Y-53226895D01*
X100582737Y-53226895D02*
X100658928Y-53264990D01*
X100658928Y-53264990D02*
X100697023Y-53303085D01*
X100697023Y-53303085D02*
X100735118Y-53379276D01*
X100735118Y-53379276D02*
X100735118Y-53455466D01*
X100735118Y-53455466D02*
X100697023Y-53569752D01*
X100697023Y-53569752D02*
X100239880Y-54026895D01*
X100239880Y-54026895D02*
X100735118Y-54026895D01*
X101192261Y-53569752D02*
X101116071Y-53531657D01*
X101116071Y-53531657D02*
X101077976Y-53493561D01*
X101077976Y-53493561D02*
X101039880Y-53417371D01*
X101039880Y-53417371D02*
X101039880Y-53379276D01*
X101039880Y-53379276D02*
X101077976Y-53303085D01*
X101077976Y-53303085D02*
X101116071Y-53264990D01*
X101116071Y-53264990D02*
X101192261Y-53226895D01*
X101192261Y-53226895D02*
X101344642Y-53226895D01*
X101344642Y-53226895D02*
X101420833Y-53264990D01*
X101420833Y-53264990D02*
X101458928Y-53303085D01*
X101458928Y-53303085D02*
X101497023Y-53379276D01*
X101497023Y-53379276D02*
X101497023Y-53417371D01*
X101497023Y-53417371D02*
X101458928Y-53493561D01*
X101458928Y-53493561D02*
X101420833Y-53531657D01*
X101420833Y-53531657D02*
X101344642Y-53569752D01*
X101344642Y-53569752D02*
X101192261Y-53569752D01*
X101192261Y-53569752D02*
X101116071Y-53607847D01*
X101116071Y-53607847D02*
X101077976Y-53645942D01*
X101077976Y-53645942D02*
X101039880Y-53722133D01*
X101039880Y-53722133D02*
X101039880Y-53874514D01*
X101039880Y-53874514D02*
X101077976Y-53950704D01*
X101077976Y-53950704D02*
X101116071Y-53988800D01*
X101116071Y-53988800D02*
X101192261Y-54026895D01*
X101192261Y-54026895D02*
X101344642Y-54026895D01*
X101344642Y-54026895D02*
X101420833Y-53988800D01*
X101420833Y-53988800D02*
X101458928Y-53950704D01*
X101458928Y-53950704D02*
X101497023Y-53874514D01*
X101497023Y-53874514D02*
X101497023Y-53722133D01*
X101497023Y-53722133D02*
X101458928Y-53645942D01*
X101458928Y-53645942D02*
X101420833Y-53607847D01*
X101420833Y-53607847D02*
X101344642Y-53569752D01*
X110365118Y-78664990D02*
X110288928Y-78626895D01*
X110288928Y-78626895D02*
X110174642Y-78626895D01*
X110174642Y-78626895D02*
X110060356Y-78664990D01*
X110060356Y-78664990D02*
X109984166Y-78741180D01*
X109984166Y-78741180D02*
X109946071Y-78817371D01*
X109946071Y-78817371D02*
X109907975Y-78969752D01*
X109907975Y-78969752D02*
X109907975Y-79084038D01*
X109907975Y-79084038D02*
X109946071Y-79236419D01*
X109946071Y-79236419D02*
X109984166Y-79312609D01*
X109984166Y-79312609D02*
X110060356Y-79388800D01*
X110060356Y-79388800D02*
X110174642Y-79426895D01*
X110174642Y-79426895D02*
X110250833Y-79426895D01*
X110250833Y-79426895D02*
X110365118Y-79388800D01*
X110365118Y-79388800D02*
X110403214Y-79350704D01*
X110403214Y-79350704D02*
X110403214Y-79084038D01*
X110403214Y-79084038D02*
X110250833Y-79084038D01*
X110746071Y-79426895D02*
X110746071Y-78626895D01*
X110746071Y-78626895D02*
X111050833Y-78626895D01*
X111050833Y-78626895D02*
X111127023Y-78664990D01*
X111127023Y-78664990D02*
X111165118Y-78703085D01*
X111165118Y-78703085D02*
X111203214Y-78779276D01*
X111203214Y-78779276D02*
X111203214Y-78893561D01*
X111203214Y-78893561D02*
X111165118Y-78969752D01*
X111165118Y-78969752D02*
X111127023Y-79007847D01*
X111127023Y-79007847D02*
X111050833Y-79045942D01*
X111050833Y-79045942D02*
X110746071Y-79045942D01*
X111965118Y-79426895D02*
X111507975Y-79426895D01*
X111736547Y-79426895D02*
X111736547Y-78626895D01*
X111736547Y-78626895D02*
X111660356Y-78741180D01*
X111660356Y-78741180D02*
X111584166Y-78817371D01*
X111584166Y-78817371D02*
X111507975Y-78855466D01*
X112231785Y-78626895D02*
X112727023Y-78626895D01*
X112727023Y-78626895D02*
X112460357Y-78931657D01*
X112460357Y-78931657D02*
X112574642Y-78931657D01*
X112574642Y-78931657D02*
X112650833Y-78969752D01*
X112650833Y-78969752D02*
X112688928Y-79007847D01*
X112688928Y-79007847D02*
X112727023Y-79084038D01*
X112727023Y-79084038D02*
X112727023Y-79274514D01*
X112727023Y-79274514D02*
X112688928Y-79350704D01*
X112688928Y-79350704D02*
X112650833Y-79388800D01*
X112650833Y-79388800D02*
X112574642Y-79426895D01*
X112574642Y-79426895D02*
X112346071Y-79426895D01*
X112346071Y-79426895D02*
X112269880Y-79388800D01*
X112269880Y-79388800D02*
X112231785Y-79350704D01*
X111096071Y-45644990D02*
X111019881Y-45606895D01*
X111019881Y-45606895D02*
X110905595Y-45606895D01*
X110905595Y-45606895D02*
X110791309Y-45644990D01*
X110791309Y-45644990D02*
X110715119Y-45721180D01*
X110715119Y-45721180D02*
X110677024Y-45797371D01*
X110677024Y-45797371D02*
X110638928Y-45949752D01*
X110638928Y-45949752D02*
X110638928Y-46064038D01*
X110638928Y-46064038D02*
X110677024Y-46216419D01*
X110677024Y-46216419D02*
X110715119Y-46292609D01*
X110715119Y-46292609D02*
X110791309Y-46368800D01*
X110791309Y-46368800D02*
X110905595Y-46406895D01*
X110905595Y-46406895D02*
X110981786Y-46406895D01*
X110981786Y-46406895D02*
X111096071Y-46368800D01*
X111096071Y-46368800D02*
X111134167Y-46330704D01*
X111134167Y-46330704D02*
X111134167Y-46064038D01*
X111134167Y-46064038D02*
X110981786Y-46064038D01*
X111477024Y-46406895D02*
X111477024Y-45606895D01*
X111477024Y-45606895D02*
X111781786Y-45606895D01*
X111781786Y-45606895D02*
X111857976Y-45644990D01*
X111857976Y-45644990D02*
X111896071Y-45683085D01*
X111896071Y-45683085D02*
X111934167Y-45759276D01*
X111934167Y-45759276D02*
X111934167Y-45873561D01*
X111934167Y-45873561D02*
X111896071Y-45949752D01*
X111896071Y-45949752D02*
X111857976Y-45987847D01*
X111857976Y-45987847D02*
X111781786Y-46025942D01*
X111781786Y-46025942D02*
X111477024Y-46025942D01*
X112238928Y-45683085D02*
X112277024Y-45644990D01*
X112277024Y-45644990D02*
X112353214Y-45606895D01*
X112353214Y-45606895D02*
X112543690Y-45606895D01*
X112543690Y-45606895D02*
X112619881Y-45644990D01*
X112619881Y-45644990D02*
X112657976Y-45683085D01*
X112657976Y-45683085D02*
X112696071Y-45759276D01*
X112696071Y-45759276D02*
X112696071Y-45835466D01*
X112696071Y-45835466D02*
X112657976Y-45949752D01*
X112657976Y-45949752D02*
X112200833Y-46406895D01*
X112200833Y-46406895D02*
X112696071Y-46406895D01*
X108491700Y-84614124D02*
X108529795Y-84499838D01*
X108529795Y-84499838D02*
X108529795Y-84309362D01*
X108529795Y-84309362D02*
X108491700Y-84233171D01*
X108491700Y-84233171D02*
X108453604Y-84195076D01*
X108453604Y-84195076D02*
X108377414Y-84156981D01*
X108377414Y-84156981D02*
X108301223Y-84156981D01*
X108301223Y-84156981D02*
X108225033Y-84195076D01*
X108225033Y-84195076D02*
X108186938Y-84233171D01*
X108186938Y-84233171D02*
X108148842Y-84309362D01*
X108148842Y-84309362D02*
X108110747Y-84461743D01*
X108110747Y-84461743D02*
X108072652Y-84537933D01*
X108072652Y-84537933D02*
X108034557Y-84576028D01*
X108034557Y-84576028D02*
X107958366Y-84614124D01*
X107958366Y-84614124D02*
X107882176Y-84614124D01*
X107882176Y-84614124D02*
X107805985Y-84576028D01*
X107805985Y-84576028D02*
X107767890Y-84537933D01*
X107767890Y-84537933D02*
X107729795Y-84461743D01*
X107729795Y-84461743D02*
X107729795Y-84271266D01*
X107729795Y-84271266D02*
X107767890Y-84156981D01*
X107729795Y-83890314D02*
X108529795Y-83699838D01*
X108529795Y-83699838D02*
X107958366Y-83547457D01*
X107958366Y-83547457D02*
X108529795Y-83395076D01*
X108529795Y-83395076D02*
X107729795Y-83204600D01*
X108453604Y-82442694D02*
X108491700Y-82480790D01*
X108491700Y-82480790D02*
X108529795Y-82595075D01*
X108529795Y-82595075D02*
X108529795Y-82671266D01*
X108529795Y-82671266D02*
X108491700Y-82785552D01*
X108491700Y-82785552D02*
X108415509Y-82861742D01*
X108415509Y-82861742D02*
X108339319Y-82899837D01*
X108339319Y-82899837D02*
X108186938Y-82937933D01*
X108186938Y-82937933D02*
X108072652Y-82937933D01*
X108072652Y-82937933D02*
X107920271Y-82899837D01*
X107920271Y-82899837D02*
X107844080Y-82861742D01*
X107844080Y-82861742D02*
X107767890Y-82785552D01*
X107767890Y-82785552D02*
X107729795Y-82671266D01*
X107729795Y-82671266D02*
X107729795Y-82595075D01*
X107729795Y-82595075D02*
X107767890Y-82480790D01*
X107767890Y-82480790D02*
X107805985Y-82442694D01*
X108529795Y-81718885D02*
X108529795Y-82099837D01*
X108529795Y-82099837D02*
X107729795Y-82099837D01*
X108529795Y-81452218D02*
X107729795Y-81452218D01*
X108529795Y-80995075D02*
X108072652Y-81337933D01*
X107729795Y-80995075D02*
X108186938Y-81452218D01*
X98511309Y-45606895D02*
X99006547Y-45606895D01*
X99006547Y-45606895D02*
X98739881Y-45911657D01*
X98739881Y-45911657D02*
X98854166Y-45911657D01*
X98854166Y-45911657D02*
X98930357Y-45949752D01*
X98930357Y-45949752D02*
X98968452Y-45987847D01*
X98968452Y-45987847D02*
X99006547Y-46064038D01*
X99006547Y-46064038D02*
X99006547Y-46254514D01*
X99006547Y-46254514D02*
X98968452Y-46330704D01*
X98968452Y-46330704D02*
X98930357Y-46368800D01*
X98930357Y-46368800D02*
X98854166Y-46406895D01*
X98854166Y-46406895D02*
X98625595Y-46406895D01*
X98625595Y-46406895D02*
X98549404Y-46368800D01*
X98549404Y-46368800D02*
X98511309Y-46330704D01*
X99235119Y-45606895D02*
X99501786Y-46406895D01*
X99501786Y-46406895D02*
X99768452Y-45606895D01*
X99958928Y-45606895D02*
X100454166Y-45606895D01*
X100454166Y-45606895D02*
X100187500Y-45911657D01*
X100187500Y-45911657D02*
X100301785Y-45911657D01*
X100301785Y-45911657D02*
X100377976Y-45949752D01*
X100377976Y-45949752D02*
X100416071Y-45987847D01*
X100416071Y-45987847D02*
X100454166Y-46064038D01*
X100454166Y-46064038D02*
X100454166Y-46254514D01*
X100454166Y-46254514D02*
X100416071Y-46330704D01*
X100416071Y-46330704D02*
X100377976Y-46368800D01*
X100377976Y-46368800D02*
X100301785Y-46406895D01*
X100301785Y-46406895D02*
X100073214Y-46406895D01*
X100073214Y-46406895D02*
X99997023Y-46368800D01*
X99997023Y-46368800D02*
X99958928Y-46330704D01*
X100606548Y-46483085D02*
X101216071Y-46483085D01*
X101406548Y-45987847D02*
X101673214Y-45987847D01*
X101787500Y-46406895D02*
X101406548Y-46406895D01*
X101406548Y-46406895D02*
X101406548Y-45606895D01*
X101406548Y-45606895D02*
X101787500Y-45606895D01*
X102130358Y-46406895D02*
X102130358Y-45606895D01*
X102130358Y-45606895D02*
X102587501Y-46406895D01*
X102587501Y-46406895D02*
X102587501Y-45606895D01*
X111096071Y-38024990D02*
X111019881Y-37986895D01*
X111019881Y-37986895D02*
X110905595Y-37986895D01*
X110905595Y-37986895D02*
X110791309Y-38024990D01*
X110791309Y-38024990D02*
X110715119Y-38101180D01*
X110715119Y-38101180D02*
X110677024Y-38177371D01*
X110677024Y-38177371D02*
X110638928Y-38329752D01*
X110638928Y-38329752D02*
X110638928Y-38444038D01*
X110638928Y-38444038D02*
X110677024Y-38596419D01*
X110677024Y-38596419D02*
X110715119Y-38672609D01*
X110715119Y-38672609D02*
X110791309Y-38748800D01*
X110791309Y-38748800D02*
X110905595Y-38786895D01*
X110905595Y-38786895D02*
X110981786Y-38786895D01*
X110981786Y-38786895D02*
X111096071Y-38748800D01*
X111096071Y-38748800D02*
X111134167Y-38710704D01*
X111134167Y-38710704D02*
X111134167Y-38444038D01*
X111134167Y-38444038D02*
X110981786Y-38444038D01*
X111477024Y-38786895D02*
X111477024Y-37986895D01*
X111477024Y-37986895D02*
X111781786Y-37986895D01*
X111781786Y-37986895D02*
X111857976Y-38024990D01*
X111857976Y-38024990D02*
X111896071Y-38063085D01*
X111896071Y-38063085D02*
X111934167Y-38139276D01*
X111934167Y-38139276D02*
X111934167Y-38253561D01*
X111934167Y-38253561D02*
X111896071Y-38329752D01*
X111896071Y-38329752D02*
X111857976Y-38367847D01*
X111857976Y-38367847D02*
X111781786Y-38405942D01*
X111781786Y-38405942D02*
X111477024Y-38405942D01*
X112429405Y-37986895D02*
X112505595Y-37986895D01*
X112505595Y-37986895D02*
X112581786Y-38024990D01*
X112581786Y-38024990D02*
X112619881Y-38063085D01*
X112619881Y-38063085D02*
X112657976Y-38139276D01*
X112657976Y-38139276D02*
X112696071Y-38291657D01*
X112696071Y-38291657D02*
X112696071Y-38482133D01*
X112696071Y-38482133D02*
X112657976Y-38634514D01*
X112657976Y-38634514D02*
X112619881Y-38710704D01*
X112619881Y-38710704D02*
X112581786Y-38748800D01*
X112581786Y-38748800D02*
X112505595Y-38786895D01*
X112505595Y-38786895D02*
X112429405Y-38786895D01*
X112429405Y-38786895D02*
X112353214Y-38748800D01*
X112353214Y-38748800D02*
X112315119Y-38710704D01*
X112315119Y-38710704D02*
X112277024Y-38634514D01*
X112277024Y-38634514D02*
X112238928Y-38482133D01*
X112238928Y-38482133D02*
X112238928Y-38291657D01*
X112238928Y-38291657D02*
X112277024Y-38139276D01*
X112277024Y-38139276D02*
X112315119Y-38063085D01*
X112315119Y-38063085D02*
X112353214Y-38024990D01*
X112353214Y-38024990D02*
X112429405Y-37986895D01*
X98597023Y-48146895D02*
X99092261Y-48146895D01*
X99092261Y-48146895D02*
X98825595Y-48451657D01*
X98825595Y-48451657D02*
X98939880Y-48451657D01*
X98939880Y-48451657D02*
X99016071Y-48489752D01*
X99016071Y-48489752D02*
X99054166Y-48527847D01*
X99054166Y-48527847D02*
X99092261Y-48604038D01*
X99092261Y-48604038D02*
X99092261Y-48794514D01*
X99092261Y-48794514D02*
X99054166Y-48870704D01*
X99054166Y-48870704D02*
X99016071Y-48908800D01*
X99016071Y-48908800D02*
X98939880Y-48946895D01*
X98939880Y-48946895D02*
X98711309Y-48946895D01*
X98711309Y-48946895D02*
X98635118Y-48908800D01*
X98635118Y-48908800D02*
X98597023Y-48870704D01*
X99320833Y-48146895D02*
X99587500Y-48946895D01*
X99587500Y-48946895D02*
X99854166Y-48146895D01*
X100044642Y-48146895D02*
X100539880Y-48146895D01*
X100539880Y-48146895D02*
X100273214Y-48451657D01*
X100273214Y-48451657D02*
X100387499Y-48451657D01*
X100387499Y-48451657D02*
X100463690Y-48489752D01*
X100463690Y-48489752D02*
X100501785Y-48527847D01*
X100501785Y-48527847D02*
X100539880Y-48604038D01*
X100539880Y-48604038D02*
X100539880Y-48794514D01*
X100539880Y-48794514D02*
X100501785Y-48870704D01*
X100501785Y-48870704D02*
X100463690Y-48908800D01*
X100463690Y-48908800D02*
X100387499Y-48946895D01*
X100387499Y-48946895D02*
X100158928Y-48946895D01*
X100158928Y-48946895D02*
X100082737Y-48908800D01*
X100082737Y-48908800D02*
X100044642Y-48870704D01*
X111096071Y-53264990D02*
X111019881Y-53226895D01*
X111019881Y-53226895D02*
X110905595Y-53226895D01*
X110905595Y-53226895D02*
X110791309Y-53264990D01*
X110791309Y-53264990D02*
X110715119Y-53341180D01*
X110715119Y-53341180D02*
X110677024Y-53417371D01*
X110677024Y-53417371D02*
X110638928Y-53569752D01*
X110638928Y-53569752D02*
X110638928Y-53684038D01*
X110638928Y-53684038D02*
X110677024Y-53836419D01*
X110677024Y-53836419D02*
X110715119Y-53912609D01*
X110715119Y-53912609D02*
X110791309Y-53988800D01*
X110791309Y-53988800D02*
X110905595Y-54026895D01*
X110905595Y-54026895D02*
X110981786Y-54026895D01*
X110981786Y-54026895D02*
X111096071Y-53988800D01*
X111096071Y-53988800D02*
X111134167Y-53950704D01*
X111134167Y-53950704D02*
X111134167Y-53684038D01*
X111134167Y-53684038D02*
X110981786Y-53684038D01*
X111477024Y-54026895D02*
X111477024Y-53226895D01*
X111477024Y-53226895D02*
X111781786Y-53226895D01*
X111781786Y-53226895D02*
X111857976Y-53264990D01*
X111857976Y-53264990D02*
X111896071Y-53303085D01*
X111896071Y-53303085D02*
X111934167Y-53379276D01*
X111934167Y-53379276D02*
X111934167Y-53493561D01*
X111934167Y-53493561D02*
X111896071Y-53569752D01*
X111896071Y-53569752D02*
X111857976Y-53607847D01*
X111857976Y-53607847D02*
X111781786Y-53645942D01*
X111781786Y-53645942D02*
X111477024Y-53645942D01*
X112657976Y-53226895D02*
X112277024Y-53226895D01*
X112277024Y-53226895D02*
X112238928Y-53607847D01*
X112238928Y-53607847D02*
X112277024Y-53569752D01*
X112277024Y-53569752D02*
X112353214Y-53531657D01*
X112353214Y-53531657D02*
X112543690Y-53531657D01*
X112543690Y-53531657D02*
X112619881Y-53569752D01*
X112619881Y-53569752D02*
X112657976Y-53607847D01*
X112657976Y-53607847D02*
X112696071Y-53684038D01*
X112696071Y-53684038D02*
X112696071Y-53874514D01*
X112696071Y-53874514D02*
X112657976Y-53950704D01*
X112657976Y-53950704D02*
X112619881Y-53988800D01*
X112619881Y-53988800D02*
X112543690Y-54026895D01*
X112543690Y-54026895D02*
X112353214Y-54026895D01*
X112353214Y-54026895D02*
X112277024Y-53988800D01*
X112277024Y-53988800D02*
X112238928Y-53950704D01*
X99135118Y-86284990D02*
X99058928Y-86246895D01*
X99058928Y-86246895D02*
X98944642Y-86246895D01*
X98944642Y-86246895D02*
X98830356Y-86284990D01*
X98830356Y-86284990D02*
X98754166Y-86361180D01*
X98754166Y-86361180D02*
X98716071Y-86437371D01*
X98716071Y-86437371D02*
X98677975Y-86589752D01*
X98677975Y-86589752D02*
X98677975Y-86704038D01*
X98677975Y-86704038D02*
X98716071Y-86856419D01*
X98716071Y-86856419D02*
X98754166Y-86932609D01*
X98754166Y-86932609D02*
X98830356Y-87008800D01*
X98830356Y-87008800D02*
X98944642Y-87046895D01*
X98944642Y-87046895D02*
X99020833Y-87046895D01*
X99020833Y-87046895D02*
X99135118Y-87008800D01*
X99135118Y-87008800D02*
X99173214Y-86970704D01*
X99173214Y-86970704D02*
X99173214Y-86704038D01*
X99173214Y-86704038D02*
X99020833Y-86704038D01*
X99516071Y-87046895D02*
X99516071Y-86246895D01*
X99516071Y-86246895D02*
X99820833Y-86246895D01*
X99820833Y-86246895D02*
X99897023Y-86284990D01*
X99897023Y-86284990D02*
X99935118Y-86323085D01*
X99935118Y-86323085D02*
X99973214Y-86399276D01*
X99973214Y-86399276D02*
X99973214Y-86513561D01*
X99973214Y-86513561D02*
X99935118Y-86589752D01*
X99935118Y-86589752D02*
X99897023Y-86627847D01*
X99897023Y-86627847D02*
X99820833Y-86665942D01*
X99820833Y-86665942D02*
X99516071Y-86665942D01*
X100735118Y-87046895D02*
X100277975Y-87046895D01*
X100506547Y-87046895D02*
X100506547Y-86246895D01*
X100506547Y-86246895D02*
X100430356Y-86361180D01*
X100430356Y-86361180D02*
X100354166Y-86437371D01*
X100354166Y-86437371D02*
X100277975Y-86475466D01*
X101420833Y-86246895D02*
X101268452Y-86246895D01*
X101268452Y-86246895D02*
X101192261Y-86284990D01*
X101192261Y-86284990D02*
X101154166Y-86323085D01*
X101154166Y-86323085D02*
X101077976Y-86437371D01*
X101077976Y-86437371D02*
X101039880Y-86589752D01*
X101039880Y-86589752D02*
X101039880Y-86894514D01*
X101039880Y-86894514D02*
X101077976Y-86970704D01*
X101077976Y-86970704D02*
X101116071Y-87008800D01*
X101116071Y-87008800D02*
X101192261Y-87046895D01*
X101192261Y-87046895D02*
X101344642Y-87046895D01*
X101344642Y-87046895D02*
X101420833Y-87008800D01*
X101420833Y-87008800D02*
X101458928Y-86970704D01*
X101458928Y-86970704D02*
X101497023Y-86894514D01*
X101497023Y-86894514D02*
X101497023Y-86704038D01*
X101497023Y-86704038D02*
X101458928Y-86627847D01*
X101458928Y-86627847D02*
X101420833Y-86589752D01*
X101420833Y-86589752D02*
X101344642Y-86551657D01*
X101344642Y-86551657D02*
X101192261Y-86551657D01*
X101192261Y-86551657D02*
X101116071Y-86589752D01*
X101116071Y-86589752D02*
X101077976Y-86627847D01*
X101077976Y-86627847D02*
X101039880Y-86704038D01*
X110365118Y-73584990D02*
X110288928Y-73546895D01*
X110288928Y-73546895D02*
X110174642Y-73546895D01*
X110174642Y-73546895D02*
X110060356Y-73584990D01*
X110060356Y-73584990D02*
X109984166Y-73661180D01*
X109984166Y-73661180D02*
X109946071Y-73737371D01*
X109946071Y-73737371D02*
X109907975Y-73889752D01*
X109907975Y-73889752D02*
X109907975Y-74004038D01*
X109907975Y-74004038D02*
X109946071Y-74156419D01*
X109946071Y-74156419D02*
X109984166Y-74232609D01*
X109984166Y-74232609D02*
X110060356Y-74308800D01*
X110060356Y-74308800D02*
X110174642Y-74346895D01*
X110174642Y-74346895D02*
X110250833Y-74346895D01*
X110250833Y-74346895D02*
X110365118Y-74308800D01*
X110365118Y-74308800D02*
X110403214Y-74270704D01*
X110403214Y-74270704D02*
X110403214Y-74004038D01*
X110403214Y-74004038D02*
X110250833Y-74004038D01*
X110746071Y-74346895D02*
X110746071Y-73546895D01*
X110746071Y-73546895D02*
X111050833Y-73546895D01*
X111050833Y-73546895D02*
X111127023Y-73584990D01*
X111127023Y-73584990D02*
X111165118Y-73623085D01*
X111165118Y-73623085D02*
X111203214Y-73699276D01*
X111203214Y-73699276D02*
X111203214Y-73813561D01*
X111203214Y-73813561D02*
X111165118Y-73889752D01*
X111165118Y-73889752D02*
X111127023Y-73927847D01*
X111127023Y-73927847D02*
X111050833Y-73965942D01*
X111050833Y-73965942D02*
X110746071Y-73965942D01*
X111965118Y-74346895D02*
X111507975Y-74346895D01*
X111736547Y-74346895D02*
X111736547Y-73546895D01*
X111736547Y-73546895D02*
X111660356Y-73661180D01*
X111660356Y-73661180D02*
X111584166Y-73737371D01*
X111584166Y-73737371D02*
X111507975Y-73775466D01*
X112727023Y-74346895D02*
X112269880Y-74346895D01*
X112498452Y-74346895D02*
X112498452Y-73546895D01*
X112498452Y-73546895D02*
X112422261Y-73661180D01*
X112422261Y-73661180D02*
X112346071Y-73737371D01*
X112346071Y-73737371D02*
X112269880Y-73775466D01*
X110365118Y-76124990D02*
X110288928Y-76086895D01*
X110288928Y-76086895D02*
X110174642Y-76086895D01*
X110174642Y-76086895D02*
X110060356Y-76124990D01*
X110060356Y-76124990D02*
X109984166Y-76201180D01*
X109984166Y-76201180D02*
X109946071Y-76277371D01*
X109946071Y-76277371D02*
X109907975Y-76429752D01*
X109907975Y-76429752D02*
X109907975Y-76544038D01*
X109907975Y-76544038D02*
X109946071Y-76696419D01*
X109946071Y-76696419D02*
X109984166Y-76772609D01*
X109984166Y-76772609D02*
X110060356Y-76848800D01*
X110060356Y-76848800D02*
X110174642Y-76886895D01*
X110174642Y-76886895D02*
X110250833Y-76886895D01*
X110250833Y-76886895D02*
X110365118Y-76848800D01*
X110365118Y-76848800D02*
X110403214Y-76810704D01*
X110403214Y-76810704D02*
X110403214Y-76544038D01*
X110403214Y-76544038D02*
X110250833Y-76544038D01*
X110746071Y-76886895D02*
X110746071Y-76086895D01*
X110746071Y-76086895D02*
X111050833Y-76086895D01*
X111050833Y-76086895D02*
X111127023Y-76124990D01*
X111127023Y-76124990D02*
X111165118Y-76163085D01*
X111165118Y-76163085D02*
X111203214Y-76239276D01*
X111203214Y-76239276D02*
X111203214Y-76353561D01*
X111203214Y-76353561D02*
X111165118Y-76429752D01*
X111165118Y-76429752D02*
X111127023Y-76467847D01*
X111127023Y-76467847D02*
X111050833Y-76505942D01*
X111050833Y-76505942D02*
X110746071Y-76505942D01*
X111965118Y-76886895D02*
X111507975Y-76886895D01*
X111736547Y-76886895D02*
X111736547Y-76086895D01*
X111736547Y-76086895D02*
X111660356Y-76201180D01*
X111660356Y-76201180D02*
X111584166Y-76277371D01*
X111584166Y-76277371D02*
X111507975Y-76315466D01*
X112269880Y-76163085D02*
X112307976Y-76124990D01*
X112307976Y-76124990D02*
X112384166Y-76086895D01*
X112384166Y-76086895D02*
X112574642Y-76086895D01*
X112574642Y-76086895D02*
X112650833Y-76124990D01*
X112650833Y-76124990D02*
X112688928Y-76163085D01*
X112688928Y-76163085D02*
X112727023Y-76239276D01*
X112727023Y-76239276D02*
X112727023Y-76315466D01*
X112727023Y-76315466D02*
X112688928Y-76429752D01*
X112688928Y-76429752D02*
X112231785Y-76886895D01*
X112231785Y-76886895D02*
X112727023Y-76886895D01*
X98370833Y-37986895D02*
X98637500Y-38786895D01*
X98637500Y-38786895D02*
X98904166Y-37986895D01*
X99437499Y-38367847D02*
X99551785Y-38405942D01*
X99551785Y-38405942D02*
X99589880Y-38444038D01*
X99589880Y-38444038D02*
X99627976Y-38520228D01*
X99627976Y-38520228D02*
X99627976Y-38634514D01*
X99627976Y-38634514D02*
X99589880Y-38710704D01*
X99589880Y-38710704D02*
X99551785Y-38748800D01*
X99551785Y-38748800D02*
X99475595Y-38786895D01*
X99475595Y-38786895D02*
X99170833Y-38786895D01*
X99170833Y-38786895D02*
X99170833Y-37986895D01*
X99170833Y-37986895D02*
X99437499Y-37986895D01*
X99437499Y-37986895D02*
X99513690Y-38024990D01*
X99513690Y-38024990D02*
X99551785Y-38063085D01*
X99551785Y-38063085D02*
X99589880Y-38139276D01*
X99589880Y-38139276D02*
X99589880Y-38215466D01*
X99589880Y-38215466D02*
X99551785Y-38291657D01*
X99551785Y-38291657D02*
X99513690Y-38329752D01*
X99513690Y-38329752D02*
X99437499Y-38367847D01*
X99437499Y-38367847D02*
X99170833Y-38367847D01*
X99970833Y-37986895D02*
X99970833Y-38634514D01*
X99970833Y-38634514D02*
X100008928Y-38710704D01*
X100008928Y-38710704D02*
X100047023Y-38748800D01*
X100047023Y-38748800D02*
X100123214Y-38786895D01*
X100123214Y-38786895D02*
X100275595Y-38786895D01*
X100275595Y-38786895D02*
X100351785Y-38748800D01*
X100351785Y-38748800D02*
X100389880Y-38710704D01*
X100389880Y-38710704D02*
X100427976Y-38634514D01*
X100427976Y-38634514D02*
X100427976Y-37986895D01*
X100770832Y-38748800D02*
X100885118Y-38786895D01*
X100885118Y-38786895D02*
X101075594Y-38786895D01*
X101075594Y-38786895D02*
X101151785Y-38748800D01*
X101151785Y-38748800D02*
X101189880Y-38710704D01*
X101189880Y-38710704D02*
X101227975Y-38634514D01*
X101227975Y-38634514D02*
X101227975Y-38558323D01*
X101227975Y-38558323D02*
X101189880Y-38482133D01*
X101189880Y-38482133D02*
X101151785Y-38444038D01*
X101151785Y-38444038D02*
X101075594Y-38405942D01*
X101075594Y-38405942D02*
X100923213Y-38367847D01*
X100923213Y-38367847D02*
X100847023Y-38329752D01*
X100847023Y-38329752D02*
X100808928Y-38291657D01*
X100808928Y-38291657D02*
X100770832Y-38215466D01*
X100770832Y-38215466D02*
X100770832Y-38139276D01*
X100770832Y-38139276D02*
X100808928Y-38063085D01*
X100808928Y-38063085D02*
X100847023Y-38024990D01*
X100847023Y-38024990D02*
X100923213Y-37986895D01*
X100923213Y-37986895D02*
X101113690Y-37986895D01*
X101113690Y-37986895D02*
X101227975Y-38024990D01*
X99135118Y-78664990D02*
X99058928Y-78626895D01*
X99058928Y-78626895D02*
X98944642Y-78626895D01*
X98944642Y-78626895D02*
X98830356Y-78664990D01*
X98830356Y-78664990D02*
X98754166Y-78741180D01*
X98754166Y-78741180D02*
X98716071Y-78817371D01*
X98716071Y-78817371D02*
X98677975Y-78969752D01*
X98677975Y-78969752D02*
X98677975Y-79084038D01*
X98677975Y-79084038D02*
X98716071Y-79236419D01*
X98716071Y-79236419D02*
X98754166Y-79312609D01*
X98754166Y-79312609D02*
X98830356Y-79388800D01*
X98830356Y-79388800D02*
X98944642Y-79426895D01*
X98944642Y-79426895D02*
X99020833Y-79426895D01*
X99020833Y-79426895D02*
X99135118Y-79388800D01*
X99135118Y-79388800D02*
X99173214Y-79350704D01*
X99173214Y-79350704D02*
X99173214Y-79084038D01*
X99173214Y-79084038D02*
X99020833Y-79084038D01*
X99516071Y-79426895D02*
X99516071Y-78626895D01*
X99516071Y-78626895D02*
X99820833Y-78626895D01*
X99820833Y-78626895D02*
X99897023Y-78664990D01*
X99897023Y-78664990D02*
X99935118Y-78703085D01*
X99935118Y-78703085D02*
X99973214Y-78779276D01*
X99973214Y-78779276D02*
X99973214Y-78893561D01*
X99973214Y-78893561D02*
X99935118Y-78969752D01*
X99935118Y-78969752D02*
X99897023Y-79007847D01*
X99897023Y-79007847D02*
X99820833Y-79045942D01*
X99820833Y-79045942D02*
X99516071Y-79045942D01*
X100735118Y-79426895D02*
X100277975Y-79426895D01*
X100506547Y-79426895D02*
X100506547Y-78626895D01*
X100506547Y-78626895D02*
X100430356Y-78741180D01*
X100430356Y-78741180D02*
X100354166Y-78817371D01*
X100354166Y-78817371D02*
X100277975Y-78855466D01*
X101192261Y-78969752D02*
X101116071Y-78931657D01*
X101116071Y-78931657D02*
X101077976Y-78893561D01*
X101077976Y-78893561D02*
X101039880Y-78817371D01*
X101039880Y-78817371D02*
X101039880Y-78779276D01*
X101039880Y-78779276D02*
X101077976Y-78703085D01*
X101077976Y-78703085D02*
X101116071Y-78664990D01*
X101116071Y-78664990D02*
X101192261Y-78626895D01*
X101192261Y-78626895D02*
X101344642Y-78626895D01*
X101344642Y-78626895D02*
X101420833Y-78664990D01*
X101420833Y-78664990D02*
X101458928Y-78703085D01*
X101458928Y-78703085D02*
X101497023Y-78779276D01*
X101497023Y-78779276D02*
X101497023Y-78817371D01*
X101497023Y-78817371D02*
X101458928Y-78893561D01*
X101458928Y-78893561D02*
X101420833Y-78931657D01*
X101420833Y-78931657D02*
X101344642Y-78969752D01*
X101344642Y-78969752D02*
X101192261Y-78969752D01*
X101192261Y-78969752D02*
X101116071Y-79007847D01*
X101116071Y-79007847D02*
X101077976Y-79045942D01*
X101077976Y-79045942D02*
X101039880Y-79122133D01*
X101039880Y-79122133D02*
X101039880Y-79274514D01*
X101039880Y-79274514D02*
X101077976Y-79350704D01*
X101077976Y-79350704D02*
X101116071Y-79388800D01*
X101116071Y-79388800D02*
X101192261Y-79426895D01*
X101192261Y-79426895D02*
X101344642Y-79426895D01*
X101344642Y-79426895D02*
X101420833Y-79388800D01*
X101420833Y-79388800D02*
X101458928Y-79350704D01*
X101458928Y-79350704D02*
X101497023Y-79274514D01*
X101497023Y-79274514D02*
X101497023Y-79122133D01*
X101497023Y-79122133D02*
X101458928Y-79045942D01*
X101458928Y-79045942D02*
X101420833Y-79007847D01*
X101420833Y-79007847D02*
X101344642Y-78969752D01*
X111096071Y-58344990D02*
X111019881Y-58306895D01*
X111019881Y-58306895D02*
X110905595Y-58306895D01*
X110905595Y-58306895D02*
X110791309Y-58344990D01*
X110791309Y-58344990D02*
X110715119Y-58421180D01*
X110715119Y-58421180D02*
X110677024Y-58497371D01*
X110677024Y-58497371D02*
X110638928Y-58649752D01*
X110638928Y-58649752D02*
X110638928Y-58764038D01*
X110638928Y-58764038D02*
X110677024Y-58916419D01*
X110677024Y-58916419D02*
X110715119Y-58992609D01*
X110715119Y-58992609D02*
X110791309Y-59068800D01*
X110791309Y-59068800D02*
X110905595Y-59106895D01*
X110905595Y-59106895D02*
X110981786Y-59106895D01*
X110981786Y-59106895D02*
X111096071Y-59068800D01*
X111096071Y-59068800D02*
X111134167Y-59030704D01*
X111134167Y-59030704D02*
X111134167Y-58764038D01*
X111134167Y-58764038D02*
X110981786Y-58764038D01*
X111477024Y-59106895D02*
X111477024Y-58306895D01*
X111477024Y-58306895D02*
X111781786Y-58306895D01*
X111781786Y-58306895D02*
X111857976Y-58344990D01*
X111857976Y-58344990D02*
X111896071Y-58383085D01*
X111896071Y-58383085D02*
X111934167Y-58459276D01*
X111934167Y-58459276D02*
X111934167Y-58573561D01*
X111934167Y-58573561D02*
X111896071Y-58649752D01*
X111896071Y-58649752D02*
X111857976Y-58687847D01*
X111857976Y-58687847D02*
X111781786Y-58725942D01*
X111781786Y-58725942D02*
X111477024Y-58725942D01*
X112619881Y-58306895D02*
X112467500Y-58306895D01*
X112467500Y-58306895D02*
X112391309Y-58344990D01*
X112391309Y-58344990D02*
X112353214Y-58383085D01*
X112353214Y-58383085D02*
X112277024Y-58497371D01*
X112277024Y-58497371D02*
X112238928Y-58649752D01*
X112238928Y-58649752D02*
X112238928Y-58954514D01*
X112238928Y-58954514D02*
X112277024Y-59030704D01*
X112277024Y-59030704D02*
X112315119Y-59068800D01*
X112315119Y-59068800D02*
X112391309Y-59106895D01*
X112391309Y-59106895D02*
X112543690Y-59106895D01*
X112543690Y-59106895D02*
X112619881Y-59068800D01*
X112619881Y-59068800D02*
X112657976Y-59030704D01*
X112657976Y-59030704D02*
X112696071Y-58954514D01*
X112696071Y-58954514D02*
X112696071Y-58764038D01*
X112696071Y-58764038D02*
X112657976Y-58687847D01*
X112657976Y-58687847D02*
X112619881Y-58649752D01*
X112619881Y-58649752D02*
X112543690Y-58611657D01*
X112543690Y-58611657D02*
X112391309Y-58611657D01*
X112391309Y-58611657D02*
X112315119Y-58649752D01*
X112315119Y-58649752D02*
X112277024Y-58687847D01*
X112277024Y-58687847D02*
X112238928Y-58764038D01*
X103411700Y-84499838D02*
X103449795Y-84385552D01*
X103449795Y-84385552D02*
X103449795Y-84195076D01*
X103449795Y-84195076D02*
X103411700Y-84118885D01*
X103411700Y-84118885D02*
X103373604Y-84080790D01*
X103373604Y-84080790D02*
X103297414Y-84042695D01*
X103297414Y-84042695D02*
X103221223Y-84042695D01*
X103221223Y-84042695D02*
X103145033Y-84080790D01*
X103145033Y-84080790D02*
X103106938Y-84118885D01*
X103106938Y-84118885D02*
X103068842Y-84195076D01*
X103068842Y-84195076D02*
X103030747Y-84347457D01*
X103030747Y-84347457D02*
X102992652Y-84423647D01*
X102992652Y-84423647D02*
X102954557Y-84461742D01*
X102954557Y-84461742D02*
X102878366Y-84499838D01*
X102878366Y-84499838D02*
X102802176Y-84499838D01*
X102802176Y-84499838D02*
X102725985Y-84461742D01*
X102725985Y-84461742D02*
X102687890Y-84423647D01*
X102687890Y-84423647D02*
X102649795Y-84347457D01*
X102649795Y-84347457D02*
X102649795Y-84156980D01*
X102649795Y-84156980D02*
X102687890Y-84042695D01*
X102649795Y-83776028D02*
X103449795Y-83585552D01*
X103449795Y-83585552D02*
X102878366Y-83433171D01*
X102878366Y-83433171D02*
X103449795Y-83280790D01*
X103449795Y-83280790D02*
X102649795Y-83090314D01*
X103449795Y-82785551D02*
X102649795Y-82785551D01*
X102649795Y-82785551D02*
X102649795Y-82595075D01*
X102649795Y-82595075D02*
X102687890Y-82480789D01*
X102687890Y-82480789D02*
X102764080Y-82404599D01*
X102764080Y-82404599D02*
X102840271Y-82366504D01*
X102840271Y-82366504D02*
X102992652Y-82328408D01*
X102992652Y-82328408D02*
X103106938Y-82328408D01*
X103106938Y-82328408D02*
X103259319Y-82366504D01*
X103259319Y-82366504D02*
X103335509Y-82404599D01*
X103335509Y-82404599D02*
X103411700Y-82480789D01*
X103411700Y-82480789D02*
X103449795Y-82595075D01*
X103449795Y-82595075D02*
X103449795Y-82785551D01*
X103449795Y-81985551D02*
X102649795Y-81985551D01*
X102649795Y-81452218D02*
X102649795Y-81299837D01*
X102649795Y-81299837D02*
X102687890Y-81223647D01*
X102687890Y-81223647D02*
X102764080Y-81147456D01*
X102764080Y-81147456D02*
X102916461Y-81109361D01*
X102916461Y-81109361D02*
X103183128Y-81109361D01*
X103183128Y-81109361D02*
X103335509Y-81147456D01*
X103335509Y-81147456D02*
X103411700Y-81223647D01*
X103411700Y-81223647D02*
X103449795Y-81299837D01*
X103449795Y-81299837D02*
X103449795Y-81452218D01*
X103449795Y-81452218D02*
X103411700Y-81528409D01*
X103411700Y-81528409D02*
X103335509Y-81604599D01*
X103335509Y-81604599D02*
X103183128Y-81642695D01*
X103183128Y-81642695D02*
X102916461Y-81642695D01*
X102916461Y-81642695D02*
X102764080Y-81604599D01*
X102764080Y-81604599D02*
X102687890Y-81528409D01*
X102687890Y-81528409D02*
X102649795Y-81452218D01*
X111057976Y-68504990D02*
X110981786Y-68466895D01*
X110981786Y-68466895D02*
X110867500Y-68466895D01*
X110867500Y-68466895D02*
X110753214Y-68504990D01*
X110753214Y-68504990D02*
X110677024Y-68581180D01*
X110677024Y-68581180D02*
X110638929Y-68657371D01*
X110638929Y-68657371D02*
X110600833Y-68809752D01*
X110600833Y-68809752D02*
X110600833Y-68924038D01*
X110600833Y-68924038D02*
X110638929Y-69076419D01*
X110638929Y-69076419D02*
X110677024Y-69152609D01*
X110677024Y-69152609D02*
X110753214Y-69228800D01*
X110753214Y-69228800D02*
X110867500Y-69266895D01*
X110867500Y-69266895D02*
X110943691Y-69266895D01*
X110943691Y-69266895D02*
X111057976Y-69228800D01*
X111057976Y-69228800D02*
X111096072Y-69190704D01*
X111096072Y-69190704D02*
X111096072Y-68924038D01*
X111096072Y-68924038D02*
X110943691Y-68924038D01*
X111438929Y-69266895D02*
X111438929Y-68466895D01*
X111438929Y-68466895D02*
X111896072Y-69266895D01*
X111896072Y-69266895D02*
X111896072Y-68466895D01*
X112277024Y-69266895D02*
X112277024Y-68466895D01*
X112277024Y-68466895D02*
X112467500Y-68466895D01*
X112467500Y-68466895D02*
X112581786Y-68504990D01*
X112581786Y-68504990D02*
X112657976Y-68581180D01*
X112657976Y-68581180D02*
X112696071Y-68657371D01*
X112696071Y-68657371D02*
X112734167Y-68809752D01*
X112734167Y-68809752D02*
X112734167Y-68924038D01*
X112734167Y-68924038D02*
X112696071Y-69076419D01*
X112696071Y-69076419D02*
X112657976Y-69152609D01*
X112657976Y-69152609D02*
X112581786Y-69228800D01*
X112581786Y-69228800D02*
X112467500Y-69266895D01*
X112467500Y-69266895D02*
X112277024Y-69266895D01*
%TO.C,U1*%
X95127500Y-88054600D02*
X95127500Y-37054600D01*
X95127500Y-88054600D02*
X116127500Y-88054600D01*
X98134500Y-37054600D02*
X98134500Y-39721600D01*
X98134500Y-39721600D02*
X95127500Y-39721600D01*
X116127500Y-37054600D02*
X95127500Y-37054600D01*
X116127500Y-88054600D02*
X116127500Y-37054600D01*
%TD*%
%LPC*%
D12*
%TO.C,REF\u002A\u002A*%
X88327500Y-85254600D03*
%TD*%
%TO.C,REF\u002A\u002A*%
X47327500Y-131254600D03*
%TD*%
%TO.C,REF\u002A\u002A*%
X128327500Y-194254600D03*
%TD*%
%TO.C,REF\u002A\u002A*%
X47327500Y-194254600D03*
%TD*%
%TO.C,REF\u002A\u002A*%
X128327500Y-60254600D03*
%TD*%
%TO.C,REF\u002A\u002A*%
X47327500Y-34254600D03*
%TD*%
D13*
%TO.C,S16*%
X111122500Y-140679600D03*
D14*
X112392500Y-138139600D03*
D15*
X116202500Y-140679600D03*
D14*
X118742500Y-135599600D03*
D13*
X121282500Y-140679600D03*
%TD*%
%TO.C,S6*%
X111122500Y-102579600D03*
D14*
X112392500Y-100039600D03*
D15*
X116202500Y-102579600D03*
D14*
X118742500Y-97499600D03*
D13*
X121282500Y-102579600D03*
%TD*%
%TO.C,S22*%
X111122500Y-178779600D03*
D14*
X112392500Y-176239600D03*
D15*
X116202500Y-178779600D03*
D14*
X118742500Y-173699600D03*
D13*
X121282500Y-178779600D03*
%TD*%
%TO.C,S18*%
X53972500Y-159729600D03*
D14*
X55242500Y-157189600D03*
D15*
X59052500Y-159729600D03*
D14*
X61592500Y-154649600D03*
D13*
X64132500Y-159729600D03*
%TD*%
%TO.C,S17*%
X92072500Y-178779600D03*
D14*
X93342500Y-176239600D03*
D15*
X97152500Y-178779600D03*
D14*
X99692500Y-173699600D03*
D13*
X102232500Y-178779600D03*
%TD*%
%TO.C,S19*%
X73022500Y-159729600D03*
D14*
X74292500Y-157189600D03*
D15*
X78102500Y-159729600D03*
D14*
X80642500Y-154649600D03*
D13*
X83182500Y-159729600D03*
%TD*%
%TO.C,S4*%
X73022500Y-102579600D03*
D14*
X74292500Y-100039600D03*
D15*
X78102500Y-102579600D03*
D14*
X80642500Y-97499600D03*
D13*
X83182500Y-102579600D03*
%TD*%
%TO.C,S21*%
X111122500Y-159729600D03*
D14*
X112392500Y-157189600D03*
D15*
X116202500Y-159729600D03*
D14*
X118742500Y-154649600D03*
D13*
X121282500Y-159729600D03*
%TD*%
%TO.C,S14*%
X73022500Y-140679600D03*
D14*
X74292500Y-138139600D03*
D15*
X78102500Y-140679600D03*
D14*
X80642500Y-135599600D03*
D13*
X83182500Y-140679600D03*
%TD*%
%TO.C,S9*%
X73022500Y-121629600D03*
D14*
X74292500Y-119089600D03*
D15*
X78102500Y-121629600D03*
D14*
X80642500Y-116549600D03*
D13*
X83182500Y-121629600D03*
%TD*%
%TO.C,S3*%
X53972500Y-102579600D03*
D14*
X55242500Y-100039600D03*
D15*
X59052500Y-102579600D03*
D14*
X61592500Y-97499600D03*
D13*
X64132500Y-102579600D03*
%TD*%
%TO.C,S1*%
X53972500Y-64479600D03*
D14*
X55242500Y-61939600D03*
D15*
X59052500Y-64479600D03*
D14*
X61592500Y-59399600D03*
D13*
X64132500Y-64479600D03*
%TD*%
%TO.C,S8*%
X53972500Y-121629600D03*
D14*
X55242500Y-119089600D03*
D15*
X59052500Y-121629600D03*
D14*
X61592500Y-116549600D03*
D13*
X64132500Y-121629600D03*
%TD*%
%TO.C,S5*%
X92072500Y-102579600D03*
D14*
X93342500Y-100039600D03*
D15*
X97152500Y-102579600D03*
D14*
X99692500Y-97499600D03*
D13*
X102232500Y-102579600D03*
%TD*%
%TO.C,S11*%
X111122500Y-121629600D03*
D14*
X112392500Y-119089600D03*
D15*
X116202500Y-121629600D03*
D14*
X118742500Y-116549600D03*
D13*
X121282500Y-121629600D03*
%TD*%
%TO.C,S15*%
X92072500Y-140679600D03*
D14*
X93342500Y-138139600D03*
D15*
X97152500Y-140679600D03*
D14*
X99692500Y-135599600D03*
D13*
X102232500Y-140679600D03*
%TD*%
%TO.C,S2*%
X73022500Y-64479600D03*
D14*
X74292500Y-61939600D03*
D15*
X78102500Y-64479600D03*
D14*
X80642500Y-59399600D03*
D13*
X83182500Y-64479600D03*
%TD*%
%TO.C,S10*%
X92072500Y-121629600D03*
D14*
X93342500Y-119089600D03*
D15*
X97152500Y-121629600D03*
D14*
X99692500Y-116549600D03*
D13*
X102232500Y-121629600D03*
%TD*%
%TO.C,S13*%
X53972500Y-140679600D03*
D14*
X55242500Y-138139600D03*
D15*
X59052500Y-140679600D03*
D14*
X61592500Y-135599600D03*
D13*
X64132500Y-140679600D03*
%TD*%
%TO.C,S12*%
X73022500Y-178779600D03*
D14*
X74292500Y-176239600D03*
D15*
X78102500Y-178779600D03*
D14*
X80642500Y-173699600D03*
D13*
X83182500Y-178779600D03*
%TD*%
%TO.C,S7*%
X53972500Y-178779600D03*
D14*
X55242500Y-176239600D03*
D15*
X59052500Y-178779600D03*
D14*
X61592500Y-173699600D03*
D13*
X64132500Y-178779600D03*
%TD*%
%TO.C,S20*%
X92072500Y-159729600D03*
D14*
X93342500Y-157189600D03*
D15*
X97152500Y-159729600D03*
D14*
X99692500Y-154649600D03*
D13*
X102232500Y-159729600D03*
%TD*%
D16*
%TO.C,R23*%
X121017500Y-55444600D03*
D17*
X121017500Y-45284600D03*
%TD*%
D16*
%TO.C,J1*%
X124547500Y-32374600D03*
X124547500Y-39374600D03*
%TD*%
D18*
%TO.C,U1*%
X114517500Y-38424600D03*
X114517500Y-40964600D03*
D19*
X114517500Y-43504600D03*
D18*
X114517500Y-46044600D03*
X114517500Y-48584600D03*
X114517500Y-51124600D03*
X114517500Y-53664600D03*
D19*
X114517500Y-56204600D03*
D18*
X114517500Y-58744600D03*
X114517500Y-61284600D03*
X114517500Y-63824600D03*
X114517500Y-66364600D03*
D19*
X114517500Y-68904600D03*
D18*
X114517500Y-71444600D03*
X114517500Y-73984600D03*
X114517500Y-76524600D03*
X114517500Y-79064600D03*
D19*
X114517500Y-81604600D03*
D18*
X114517500Y-84144600D03*
X114517500Y-86684600D03*
X96737500Y-86684600D03*
X96737500Y-84144600D03*
D19*
X96737500Y-81604600D03*
D18*
X96737500Y-79064600D03*
X96737500Y-76524600D03*
X96737500Y-73984600D03*
X96737500Y-71444600D03*
D19*
X96737500Y-68904600D03*
D18*
X96737500Y-66364600D03*
X96737500Y-63824600D03*
X96737500Y-61284600D03*
X96737500Y-58744600D03*
D19*
X96737500Y-56204600D03*
D18*
X96737500Y-53664600D03*
X96737500Y-51124600D03*
X96737500Y-48584600D03*
X96737500Y-46044600D03*
D19*
X96737500Y-43504600D03*
D18*
X96737500Y-40964600D03*
X96737500Y-38424600D03*
X108167500Y-86454600D03*
D19*
X105627500Y-86454600D03*
D18*
X103087500Y-86454600D03*
%TD*%
D16*
%TO.C,R24*%
X126777500Y-55444600D03*
D17*
X126777500Y-45284600D03*
%TD*%
%LPD*%
M02*
