%TF.GenerationSoftware,KiCad,Pcbnew,8.0.3*%
%TF.CreationDate,2024-07-24T12:49:44+02:00*%
%TF.ProjectId,programmable,70726f67-7261-46d6-9d61-626c652e6b69,rev?*%
%TF.SameCoordinates,Original*%
%TF.FileFunction,Soldermask,Top*%
%TF.FilePolarity,Negative*%
%FSLAX46Y46*%
G04 Gerber Fmt 4.6, Leading zero omitted, Abs format (unit mm)*
G04 Created by KiCad (PCBNEW 8.0.3) date 2024-07-24 12:49:44*
%MOMM*%
%LPD*%
G01*
G04 APERTURE LIST*
%ADD10C,2.200000*%
%ADD11C,1.701800*%
%ADD12C,3.000000*%
%ADD13C,3.987800*%
%ADD14C,1.600000*%
%ADD15O,1.600000X1.600000*%
%ADD16O,1.700000X1.700000*%
%ADD17R,1.700000X1.700000*%
G04 APERTURE END LIST*
D10*
%TO.C,REF\u002A\u002A*%
X88327500Y-85254600D03*
%TD*%
%TO.C,REF\u002A\u002A*%
X47327500Y-131254600D03*
%TD*%
%TO.C,REF\u002A\u002A*%
X128327500Y-194254600D03*
%TD*%
%TO.C,REF\u002A\u002A*%
X47327500Y-194254600D03*
%TD*%
%TO.C,REF\u002A\u002A*%
X128327500Y-60254600D03*
%TD*%
%TO.C,REF\u002A\u002A*%
X47327500Y-34254600D03*
%TD*%
D11*
%TO.C,S16*%
X111122500Y-140679600D03*
D12*
X112392500Y-138139600D03*
D13*
X116202500Y-140679600D03*
D12*
X118742500Y-135599600D03*
D11*
X121282500Y-140679600D03*
%TD*%
%TO.C,S6*%
X111122500Y-102579600D03*
D12*
X112392500Y-100039600D03*
D13*
X116202500Y-102579600D03*
D12*
X118742500Y-97499600D03*
D11*
X121282500Y-102579600D03*
%TD*%
%TO.C,S22*%
X111122500Y-178779600D03*
D12*
X112392500Y-176239600D03*
D13*
X116202500Y-178779600D03*
D12*
X118742500Y-173699600D03*
D11*
X121282500Y-178779600D03*
%TD*%
%TO.C,S18*%
X53972500Y-159729600D03*
D12*
X55242500Y-157189600D03*
D13*
X59052500Y-159729600D03*
D12*
X61592500Y-154649600D03*
D11*
X64132500Y-159729600D03*
%TD*%
%TO.C,S17*%
X92072500Y-178779600D03*
D12*
X93342500Y-176239600D03*
D13*
X97152500Y-178779600D03*
D12*
X99692500Y-173699600D03*
D11*
X102232500Y-178779600D03*
%TD*%
%TO.C,S19*%
X73022500Y-159729600D03*
D12*
X74292500Y-157189600D03*
D13*
X78102500Y-159729600D03*
D12*
X80642500Y-154649600D03*
D11*
X83182500Y-159729600D03*
%TD*%
%TO.C,S4*%
X73022500Y-102579600D03*
D12*
X74292500Y-100039600D03*
D13*
X78102500Y-102579600D03*
D12*
X80642500Y-97499600D03*
D11*
X83182500Y-102579600D03*
%TD*%
%TO.C,S21*%
X111122500Y-159729600D03*
D12*
X112392500Y-157189600D03*
D13*
X116202500Y-159729600D03*
D12*
X118742500Y-154649600D03*
D11*
X121282500Y-159729600D03*
%TD*%
%TO.C,S14*%
X73022500Y-140679600D03*
D12*
X74292500Y-138139600D03*
D13*
X78102500Y-140679600D03*
D12*
X80642500Y-135599600D03*
D11*
X83182500Y-140679600D03*
%TD*%
%TO.C,S9*%
X73022500Y-121629600D03*
D12*
X74292500Y-119089600D03*
D13*
X78102500Y-121629600D03*
D12*
X80642500Y-116549600D03*
D11*
X83182500Y-121629600D03*
%TD*%
%TO.C,S3*%
X53972500Y-102579600D03*
D12*
X55242500Y-100039600D03*
D13*
X59052500Y-102579600D03*
D12*
X61592500Y-97499600D03*
D11*
X64132500Y-102579600D03*
%TD*%
%TO.C,S1*%
X53972500Y-64479600D03*
D12*
X55242500Y-61939600D03*
D13*
X59052500Y-64479600D03*
D12*
X61592500Y-59399600D03*
D11*
X64132500Y-64479600D03*
%TD*%
%TO.C,S8*%
X53972500Y-121629600D03*
D12*
X55242500Y-119089600D03*
D13*
X59052500Y-121629600D03*
D12*
X61592500Y-116549600D03*
D11*
X64132500Y-121629600D03*
%TD*%
%TO.C,S5*%
X92072500Y-102579600D03*
D12*
X93342500Y-100039600D03*
D13*
X97152500Y-102579600D03*
D12*
X99692500Y-97499600D03*
D11*
X102232500Y-102579600D03*
%TD*%
%TO.C,S11*%
X111122500Y-121629600D03*
D12*
X112392500Y-119089600D03*
D13*
X116202500Y-121629600D03*
D12*
X118742500Y-116549600D03*
D11*
X121282500Y-121629600D03*
%TD*%
%TO.C,S15*%
X92072500Y-140679600D03*
D12*
X93342500Y-138139600D03*
D13*
X97152500Y-140679600D03*
D12*
X99692500Y-135599600D03*
D11*
X102232500Y-140679600D03*
%TD*%
%TO.C,S2*%
X73022500Y-64479600D03*
D12*
X74292500Y-61939600D03*
D13*
X78102500Y-64479600D03*
D12*
X80642500Y-59399600D03*
D11*
X83182500Y-64479600D03*
%TD*%
%TO.C,S10*%
X92072500Y-121629600D03*
D12*
X93342500Y-119089600D03*
D13*
X97152500Y-121629600D03*
D12*
X99692500Y-116549600D03*
D11*
X102232500Y-121629600D03*
%TD*%
%TO.C,S13*%
X53972500Y-140679600D03*
D12*
X55242500Y-138139600D03*
D13*
X59052500Y-140679600D03*
D12*
X61592500Y-135599600D03*
D11*
X64132500Y-140679600D03*
%TD*%
%TO.C,S12*%
X73022500Y-178779600D03*
D12*
X74292500Y-176239600D03*
D13*
X78102500Y-178779600D03*
D12*
X80642500Y-173699600D03*
D11*
X83182500Y-178779600D03*
%TD*%
%TO.C,S7*%
X53972500Y-178779600D03*
D12*
X55242500Y-176239600D03*
D13*
X59052500Y-178779600D03*
D12*
X61592500Y-173699600D03*
D11*
X64132500Y-178779600D03*
%TD*%
%TO.C,S20*%
X92072500Y-159729600D03*
D12*
X93342500Y-157189600D03*
D13*
X97152500Y-159729600D03*
D12*
X99692500Y-154649600D03*
D11*
X102232500Y-159729600D03*
%TD*%
D14*
%TO.C,R23*%
X121017500Y-55444600D03*
D15*
X121017500Y-45284600D03*
%TD*%
D14*
%TO.C,J1*%
X124547500Y-32374600D03*
X124547500Y-39374600D03*
%TD*%
D16*
%TO.C,U1*%
X114517500Y-38424600D03*
X114517500Y-40964600D03*
D17*
X114517500Y-43504600D03*
D16*
X114517500Y-46044600D03*
X114517500Y-48584600D03*
X114517500Y-51124600D03*
X114517500Y-53664600D03*
D17*
X114517500Y-56204600D03*
D16*
X114517500Y-58744600D03*
X114517500Y-61284600D03*
X114517500Y-63824600D03*
X114517500Y-66364600D03*
D17*
X114517500Y-68904600D03*
D16*
X114517500Y-71444600D03*
X114517500Y-73984600D03*
X114517500Y-76524600D03*
X114517500Y-79064600D03*
D17*
X114517500Y-81604600D03*
D16*
X114517500Y-84144600D03*
X114517500Y-86684600D03*
X96737500Y-86684600D03*
X96737500Y-84144600D03*
D17*
X96737500Y-81604600D03*
D16*
X96737500Y-79064600D03*
X96737500Y-76524600D03*
X96737500Y-73984600D03*
X96737500Y-71444600D03*
D17*
X96737500Y-68904600D03*
D16*
X96737500Y-66364600D03*
X96737500Y-63824600D03*
X96737500Y-61284600D03*
X96737500Y-58744600D03*
D17*
X96737500Y-56204600D03*
D16*
X96737500Y-53664600D03*
X96737500Y-51124600D03*
X96737500Y-48584600D03*
X96737500Y-46044600D03*
D17*
X96737500Y-43504600D03*
D16*
X96737500Y-40964600D03*
X96737500Y-38424600D03*
X108167500Y-86454600D03*
D17*
X105627500Y-86454600D03*
D16*
X103087500Y-86454600D03*
%TD*%
D14*
%TO.C,R24*%
X126777500Y-55444600D03*
D15*
X126777500Y-45284600D03*
%TD*%
M02*
