%TF.GenerationSoftware,KiCad,Pcbnew,8.0.3*%
%TF.CreationDate,2024-07-24T12:50:57+02:00*%
%TF.ProjectId,programmable,70726f67-7261-46d6-9d61-626c652e6b69,rev?*%
%TF.SameCoordinates,Original*%
%TF.FileFunction,Drillmap*%
%TF.FilePolarity,Positive*%
%FSLAX45Y45*%
G04 Gerber Fmt 4.5, Leading zero omitted, Abs format (unit mm)*
G04 Created by KiCad (PCBNEW 8.0.3) date 2024-07-24 12:50:57*
%MOMM*%
%LPD*%
G01*
G04 APERTURE LIST*
%ADD10C,0.050000*%
%ADD11C,0.200000*%
%ADD12C,0.160000*%
%ADD13C,0.170180*%
%ADD14C,0.220000*%
%ADD15C,0.300000*%
%ADD16C,0.398780*%
G04 APERTURE END LIST*
D10*
X4332750Y-3025460D02*
X13192750Y-3025460D01*
X13192750Y-19815460D01*
X4332750Y-19815460D01*
X4332750Y-3025460D01*
D11*
D12*
X12374750Y-3157460D02*
X12534750Y-3317460D01*
X12534750Y-3157460D02*
X12374750Y-3317460D01*
X12374750Y-3857460D02*
X12534750Y-4017460D01*
X12534750Y-3857460D02*
X12374750Y-4017460D01*
D13*
X5482340Y-6447960D02*
G75*
G02*
X5312160Y-6447960I-85090J0D01*
G01*
X5312160Y-6447960D02*
G75*
G02*
X5482340Y-6447960I85090J0D01*
G01*
X5482340Y-10257960D02*
G75*
G02*
X5312160Y-10257960I-85090J0D01*
G01*
X5312160Y-10257960D02*
G75*
G02*
X5482340Y-10257960I85090J0D01*
G01*
X5482340Y-12162960D02*
G75*
G02*
X5312160Y-12162960I-85090J0D01*
G01*
X5312160Y-12162960D02*
G75*
G02*
X5482340Y-12162960I85090J0D01*
G01*
X5482340Y-14067960D02*
G75*
G02*
X5312160Y-14067960I-85090J0D01*
G01*
X5312160Y-14067960D02*
G75*
G02*
X5482340Y-14067960I85090J0D01*
G01*
X5482340Y-15972960D02*
G75*
G02*
X5312160Y-15972960I-85090J0D01*
G01*
X5312160Y-15972960D02*
G75*
G02*
X5482340Y-15972960I85090J0D01*
G01*
X5482340Y-17877960D02*
G75*
G02*
X5312160Y-17877960I-85090J0D01*
G01*
X5312160Y-17877960D02*
G75*
G02*
X5482340Y-17877960I85090J0D01*
G01*
X6498340Y-6447960D02*
G75*
G02*
X6328160Y-6447960I-85090J0D01*
G01*
X6328160Y-6447960D02*
G75*
G02*
X6498340Y-6447960I85090J0D01*
G01*
X6498340Y-10257960D02*
G75*
G02*
X6328160Y-10257960I-85090J0D01*
G01*
X6328160Y-10257960D02*
G75*
G02*
X6498340Y-10257960I85090J0D01*
G01*
X6498340Y-12162960D02*
G75*
G02*
X6328160Y-12162960I-85090J0D01*
G01*
X6328160Y-12162960D02*
G75*
G02*
X6498340Y-12162960I85090J0D01*
G01*
X6498340Y-14067960D02*
G75*
G02*
X6328160Y-14067960I-85090J0D01*
G01*
X6328160Y-14067960D02*
G75*
G02*
X6498340Y-14067960I85090J0D01*
G01*
X6498340Y-15972960D02*
G75*
G02*
X6328160Y-15972960I-85090J0D01*
G01*
X6328160Y-15972960D02*
G75*
G02*
X6498340Y-15972960I85090J0D01*
G01*
X6498340Y-17877960D02*
G75*
G02*
X6328160Y-17877960I-85090J0D01*
G01*
X6328160Y-17877960D02*
G75*
G02*
X6498340Y-17877960I85090J0D01*
G01*
X7387340Y-6447960D02*
G75*
G02*
X7217160Y-6447960I-85090J0D01*
G01*
X7217160Y-6447960D02*
G75*
G02*
X7387340Y-6447960I85090J0D01*
G01*
X7387340Y-10257960D02*
G75*
G02*
X7217160Y-10257960I-85090J0D01*
G01*
X7217160Y-10257960D02*
G75*
G02*
X7387340Y-10257960I85090J0D01*
G01*
X7387340Y-12162960D02*
G75*
G02*
X7217160Y-12162960I-85090J0D01*
G01*
X7217160Y-12162960D02*
G75*
G02*
X7387340Y-12162960I85090J0D01*
G01*
X7387340Y-14067960D02*
G75*
G02*
X7217160Y-14067960I-85090J0D01*
G01*
X7217160Y-14067960D02*
G75*
G02*
X7387340Y-14067960I85090J0D01*
G01*
X7387340Y-15972960D02*
G75*
G02*
X7217160Y-15972960I-85090J0D01*
G01*
X7217160Y-15972960D02*
G75*
G02*
X7387340Y-15972960I85090J0D01*
G01*
X7387340Y-17877960D02*
G75*
G02*
X7217160Y-17877960I-85090J0D01*
G01*
X7217160Y-17877960D02*
G75*
G02*
X7387340Y-17877960I85090J0D01*
G01*
X8403340Y-6447960D02*
G75*
G02*
X8233160Y-6447960I-85090J0D01*
G01*
X8233160Y-6447960D02*
G75*
G02*
X8403340Y-6447960I85090J0D01*
G01*
X8403340Y-10257960D02*
G75*
G02*
X8233160Y-10257960I-85090J0D01*
G01*
X8233160Y-10257960D02*
G75*
G02*
X8403340Y-10257960I85090J0D01*
G01*
X8403340Y-12162960D02*
G75*
G02*
X8233160Y-12162960I-85090J0D01*
G01*
X8233160Y-12162960D02*
G75*
G02*
X8403340Y-12162960I85090J0D01*
G01*
X8403340Y-14067960D02*
G75*
G02*
X8233160Y-14067960I-85090J0D01*
G01*
X8233160Y-14067960D02*
G75*
G02*
X8403340Y-14067960I85090J0D01*
G01*
X8403340Y-15972960D02*
G75*
G02*
X8233160Y-15972960I-85090J0D01*
G01*
X8233160Y-15972960D02*
G75*
G02*
X8403340Y-15972960I85090J0D01*
G01*
X8403340Y-17877960D02*
G75*
G02*
X8233160Y-17877960I-85090J0D01*
G01*
X8233160Y-17877960D02*
G75*
G02*
X8403340Y-17877960I85090J0D01*
G01*
X9292340Y-10257960D02*
G75*
G02*
X9122160Y-10257960I-85090J0D01*
G01*
X9122160Y-10257960D02*
G75*
G02*
X9292340Y-10257960I85090J0D01*
G01*
X9292340Y-12162960D02*
G75*
G02*
X9122160Y-12162960I-85090J0D01*
G01*
X9122160Y-12162960D02*
G75*
G02*
X9292340Y-12162960I85090J0D01*
G01*
X9292340Y-14067960D02*
G75*
G02*
X9122160Y-14067960I-85090J0D01*
G01*
X9122160Y-14067960D02*
G75*
G02*
X9292340Y-14067960I85090J0D01*
G01*
X9292340Y-15972960D02*
G75*
G02*
X9122160Y-15972960I-85090J0D01*
G01*
X9122160Y-15972960D02*
G75*
G02*
X9292340Y-15972960I85090J0D01*
G01*
X9292340Y-17877960D02*
G75*
G02*
X9122160Y-17877960I-85090J0D01*
G01*
X9122160Y-17877960D02*
G75*
G02*
X9292340Y-17877960I85090J0D01*
G01*
X10308340Y-10257960D02*
G75*
G02*
X10138160Y-10257960I-85090J0D01*
G01*
X10138160Y-10257960D02*
G75*
G02*
X10308340Y-10257960I85090J0D01*
G01*
X10308340Y-12162960D02*
G75*
G02*
X10138160Y-12162960I-85090J0D01*
G01*
X10138160Y-12162960D02*
G75*
G02*
X10308340Y-12162960I85090J0D01*
G01*
X10308340Y-14067960D02*
G75*
G02*
X10138160Y-14067960I-85090J0D01*
G01*
X10138160Y-14067960D02*
G75*
G02*
X10308340Y-14067960I85090J0D01*
G01*
X10308340Y-15972960D02*
G75*
G02*
X10138160Y-15972960I-85090J0D01*
G01*
X10138160Y-15972960D02*
G75*
G02*
X10308340Y-15972960I85090J0D01*
G01*
X10308340Y-17877960D02*
G75*
G02*
X10138160Y-17877960I-85090J0D01*
G01*
X10138160Y-17877960D02*
G75*
G02*
X10308340Y-17877960I85090J0D01*
G01*
X11197340Y-10257960D02*
G75*
G02*
X11027160Y-10257960I-85090J0D01*
G01*
X11027160Y-10257960D02*
G75*
G02*
X11197340Y-10257960I85090J0D01*
G01*
X11197340Y-12162960D02*
G75*
G02*
X11027160Y-12162960I-85090J0D01*
G01*
X11027160Y-12162960D02*
G75*
G02*
X11197340Y-12162960I85090J0D01*
G01*
X11197340Y-14067960D02*
G75*
G02*
X11027160Y-14067960I-85090J0D01*
G01*
X11027160Y-14067960D02*
G75*
G02*
X11197340Y-14067960I85090J0D01*
G01*
X11197340Y-15972960D02*
G75*
G02*
X11027160Y-15972960I-85090J0D01*
G01*
X11027160Y-15972960D02*
G75*
G02*
X11197340Y-15972960I85090J0D01*
G01*
X11197340Y-17877960D02*
G75*
G02*
X11027160Y-17877960I-85090J0D01*
G01*
X11027160Y-17877960D02*
G75*
G02*
X11197340Y-17877960I85090J0D01*
G01*
X12213340Y-10257960D02*
G75*
G02*
X12043160Y-10257960I-85090J0D01*
G01*
X12043160Y-10257960D02*
G75*
G02*
X12213340Y-10257960I85090J0D01*
G01*
X12213340Y-12162960D02*
G75*
G02*
X12043160Y-12162960I-85090J0D01*
G01*
X12043160Y-12162960D02*
G75*
G02*
X12213340Y-12162960I85090J0D01*
G01*
X12213340Y-14067960D02*
G75*
G02*
X12043160Y-14067960I-85090J0D01*
G01*
X12043160Y-14067960D02*
G75*
G02*
X12213340Y-14067960I85090J0D01*
G01*
X12213340Y-15972960D02*
G75*
G02*
X12043160Y-15972960I-85090J0D01*
G01*
X12043160Y-15972960D02*
G75*
G02*
X12213340Y-15972960I85090J0D01*
G01*
X12213340Y-17877960D02*
G75*
G02*
X12043160Y-17877960I-85090J0D01*
G01*
X12043160Y-17877960D02*
G75*
G02*
X12213340Y-17877960I85090J0D01*
G01*
D14*
X4732750Y-3315460D02*
X4732750Y-3535460D01*
X4622750Y-3425460D02*
X4842750Y-3425460D01*
X4732750Y-13015460D02*
X4732750Y-13235460D01*
X4622750Y-13125460D02*
X4842750Y-13125460D01*
X4732750Y-19315460D02*
X4732750Y-19535460D01*
X4622750Y-19425460D02*
X4842750Y-19425460D01*
X8832750Y-8415460D02*
X8832750Y-8635460D01*
X8722750Y-8525460D02*
X8942750Y-8525460D01*
X12832750Y-5915460D02*
X12832750Y-6135460D01*
X12722750Y-6025460D02*
X12942750Y-6025460D01*
X12832750Y-19315460D02*
X12832750Y-19535460D01*
X12722750Y-19425460D02*
X12942750Y-19425460D01*
D15*
X5630317Y-6300027D02*
X5630317Y-6087893D01*
X5418183Y-6087893D01*
X5418183Y-6300027D01*
X5630317Y-6300027D01*
X5630317Y-10110027D02*
X5630317Y-9897893D01*
X5418183Y-9897893D01*
X5418183Y-10110027D01*
X5630317Y-10110027D01*
X5630317Y-12015027D02*
X5630317Y-11802893D01*
X5418183Y-11802893D01*
X5418183Y-12015027D01*
X5630317Y-12015027D01*
X5630317Y-13920027D02*
X5630317Y-13707893D01*
X5418183Y-13707893D01*
X5418183Y-13920027D01*
X5630317Y-13920027D01*
X5630317Y-15825027D02*
X5630317Y-15612893D01*
X5418183Y-15612893D01*
X5418183Y-15825027D01*
X5630317Y-15825027D01*
X5630317Y-17730027D02*
X5630317Y-17517893D01*
X5418183Y-17517893D01*
X5418183Y-17730027D01*
X5630317Y-17730027D01*
X6265317Y-6046027D02*
X6265317Y-5833893D01*
X6053183Y-5833893D01*
X6053183Y-6046027D01*
X6265317Y-6046027D01*
X6265317Y-9856027D02*
X6265317Y-9643893D01*
X6053183Y-9643893D01*
X6053183Y-9856027D01*
X6265317Y-9856027D01*
X6265317Y-11761027D02*
X6265317Y-11548893D01*
X6053183Y-11548893D01*
X6053183Y-11761027D01*
X6265317Y-11761027D01*
X6265317Y-13666027D02*
X6265317Y-13453893D01*
X6053183Y-13453893D01*
X6053183Y-13666027D01*
X6265317Y-13666027D01*
X6265317Y-15571027D02*
X6265317Y-15358893D01*
X6053183Y-15358893D01*
X6053183Y-15571027D01*
X6265317Y-15571027D01*
X6265317Y-17476027D02*
X6265317Y-17263893D01*
X6053183Y-17263893D01*
X6053183Y-17476027D01*
X6265317Y-17476027D01*
X7535317Y-6300027D02*
X7535317Y-6087893D01*
X7323183Y-6087893D01*
X7323183Y-6300027D01*
X7535317Y-6300027D01*
X7535317Y-10110027D02*
X7535317Y-9897893D01*
X7323183Y-9897893D01*
X7323183Y-10110027D01*
X7535317Y-10110027D01*
X7535317Y-12015027D02*
X7535317Y-11802893D01*
X7323183Y-11802893D01*
X7323183Y-12015027D01*
X7535317Y-12015027D01*
X7535317Y-13920027D02*
X7535317Y-13707893D01*
X7323183Y-13707893D01*
X7323183Y-13920027D01*
X7535317Y-13920027D01*
X7535317Y-15825027D02*
X7535317Y-15612893D01*
X7323183Y-15612893D01*
X7323183Y-15825027D01*
X7535317Y-15825027D01*
X7535317Y-17730027D02*
X7535317Y-17517893D01*
X7323183Y-17517893D01*
X7323183Y-17730027D01*
X7535317Y-17730027D01*
X8170317Y-6046027D02*
X8170317Y-5833893D01*
X7958183Y-5833893D01*
X7958183Y-6046027D01*
X8170317Y-6046027D01*
X8170317Y-9856027D02*
X8170317Y-9643893D01*
X7958183Y-9643893D01*
X7958183Y-9856027D01*
X8170317Y-9856027D01*
X8170317Y-11761027D02*
X8170317Y-11548893D01*
X7958183Y-11548893D01*
X7958183Y-11761027D01*
X8170317Y-11761027D01*
X8170317Y-13666027D02*
X8170317Y-13453893D01*
X7958183Y-13453893D01*
X7958183Y-13666027D01*
X8170317Y-13666027D01*
X8170317Y-15571027D02*
X8170317Y-15358893D01*
X7958183Y-15358893D01*
X7958183Y-15571027D01*
X8170317Y-15571027D01*
X8170317Y-17476027D02*
X8170317Y-17263893D01*
X7958183Y-17263893D01*
X7958183Y-17476027D01*
X8170317Y-17476027D01*
X9440317Y-10110027D02*
X9440317Y-9897893D01*
X9228183Y-9897893D01*
X9228183Y-10110027D01*
X9440317Y-10110027D01*
X9440317Y-12015027D02*
X9440317Y-11802893D01*
X9228183Y-11802893D01*
X9228183Y-12015027D01*
X9440317Y-12015027D01*
X9440317Y-13920027D02*
X9440317Y-13707893D01*
X9228183Y-13707893D01*
X9228183Y-13920027D01*
X9440317Y-13920027D01*
X9440317Y-15825027D02*
X9440317Y-15612893D01*
X9228183Y-15612893D01*
X9228183Y-15825027D01*
X9440317Y-15825027D01*
X9440317Y-17730027D02*
X9440317Y-17517893D01*
X9228183Y-17517893D01*
X9228183Y-17730027D01*
X9440317Y-17730027D01*
X10075317Y-9856027D02*
X10075317Y-9643893D01*
X9863183Y-9643893D01*
X9863183Y-9856027D01*
X10075317Y-9856027D01*
X10075317Y-11761027D02*
X10075317Y-11548893D01*
X9863183Y-11548893D01*
X9863183Y-11761027D01*
X10075317Y-11761027D01*
X10075317Y-13666027D02*
X10075317Y-13453893D01*
X9863183Y-13453893D01*
X9863183Y-13666027D01*
X10075317Y-13666027D01*
X10075317Y-15571027D02*
X10075317Y-15358893D01*
X9863183Y-15358893D01*
X9863183Y-15571027D01*
X10075317Y-15571027D01*
X10075317Y-17476027D02*
X10075317Y-17263893D01*
X9863183Y-17263893D01*
X9863183Y-17476027D01*
X10075317Y-17476027D01*
X11345317Y-10110027D02*
X11345317Y-9897893D01*
X11133183Y-9897893D01*
X11133183Y-10110027D01*
X11345317Y-10110027D01*
X11345317Y-12015027D02*
X11345317Y-11802893D01*
X11133183Y-11802893D01*
X11133183Y-12015027D01*
X11345317Y-12015027D01*
X11345317Y-13920027D02*
X11345317Y-13707893D01*
X11133183Y-13707893D01*
X11133183Y-13920027D01*
X11345317Y-13920027D01*
X11345317Y-15825027D02*
X11345317Y-15612893D01*
X11133183Y-15612893D01*
X11133183Y-15825027D01*
X11345317Y-15825027D01*
X11345317Y-17730027D02*
X11345317Y-17517893D01*
X11133183Y-17517893D01*
X11133183Y-17730027D01*
X11345317Y-17730027D01*
X11980317Y-9856027D02*
X11980317Y-9643893D01*
X11768183Y-9643893D01*
X11768183Y-9856027D01*
X11980317Y-9856027D01*
X11980317Y-11761027D02*
X11980317Y-11548893D01*
X11768183Y-11548893D01*
X11768183Y-11761027D01*
X11980317Y-11761027D01*
X11980317Y-13666027D02*
X11980317Y-13453893D01*
X11768183Y-13453893D01*
X11768183Y-13666027D01*
X11980317Y-13666027D01*
X11980317Y-15571027D02*
X11980317Y-15358893D01*
X11768183Y-15358893D01*
X11768183Y-15571027D01*
X11980317Y-15571027D01*
X11980317Y-17476027D02*
X11980317Y-17263893D01*
X11768183Y-17263893D01*
X11768183Y-17476027D01*
X11980317Y-17476027D01*
D16*
X5905250Y-6647350D02*
X6104640Y-6447960D01*
X5905250Y-6248570D01*
X5705860Y-6447960D01*
X5905250Y-6647350D01*
X5905250Y-10457350D02*
X6104640Y-10257960D01*
X5905250Y-10058570D01*
X5705860Y-10257960D01*
X5905250Y-10457350D01*
X5905250Y-12362350D02*
X6104640Y-12162960D01*
X5905250Y-11963570D01*
X5705860Y-12162960D01*
X5905250Y-12362350D01*
X5905250Y-14267350D02*
X6104640Y-14067960D01*
X5905250Y-13868570D01*
X5705860Y-14067960D01*
X5905250Y-14267350D01*
X5905250Y-16172350D02*
X6104640Y-15972960D01*
X5905250Y-15773570D01*
X5705860Y-15972960D01*
X5905250Y-16172350D01*
X5905250Y-18077350D02*
X6104640Y-17877960D01*
X5905250Y-17678570D01*
X5705860Y-17877960D01*
X5905250Y-18077350D01*
X7810250Y-6647350D02*
X8009640Y-6447960D01*
X7810250Y-6248570D01*
X7610860Y-6447960D01*
X7810250Y-6647350D01*
X7810250Y-10457350D02*
X8009640Y-10257960D01*
X7810250Y-10058570D01*
X7610860Y-10257960D01*
X7810250Y-10457350D01*
X7810250Y-12362350D02*
X8009640Y-12162960D01*
X7810250Y-11963570D01*
X7610860Y-12162960D01*
X7810250Y-12362350D01*
X7810250Y-14267350D02*
X8009640Y-14067960D01*
X7810250Y-13868570D01*
X7610860Y-14067960D01*
X7810250Y-14267350D01*
X7810250Y-16172350D02*
X8009640Y-15972960D01*
X7810250Y-15773570D01*
X7610860Y-15972960D01*
X7810250Y-16172350D01*
X7810250Y-18077350D02*
X8009640Y-17877960D01*
X7810250Y-17678570D01*
X7610860Y-17877960D01*
X7810250Y-18077350D01*
X9715250Y-10457350D02*
X9914640Y-10257960D01*
X9715250Y-10058570D01*
X9515860Y-10257960D01*
X9715250Y-10457350D01*
X9715250Y-12362350D02*
X9914640Y-12162960D01*
X9715250Y-11963570D01*
X9515860Y-12162960D01*
X9715250Y-12362350D01*
X9715250Y-14267350D02*
X9914640Y-14067960D01*
X9715250Y-13868570D01*
X9515860Y-14067960D01*
X9715250Y-14267350D01*
X9715250Y-16172350D02*
X9914640Y-15972960D01*
X9715250Y-15773570D01*
X9515860Y-15972960D01*
X9715250Y-16172350D01*
X9715250Y-18077350D02*
X9914640Y-17877960D01*
X9715250Y-17678570D01*
X9515860Y-17877960D01*
X9715250Y-18077350D01*
X11620250Y-10457350D02*
X11819640Y-10257960D01*
X11620250Y-10058570D01*
X11420860Y-10257960D01*
X11620250Y-10457350D01*
X11620250Y-12362350D02*
X11819640Y-12162960D01*
X11620250Y-11963570D01*
X11420860Y-12162960D01*
X11620250Y-12362350D01*
X11620250Y-14267350D02*
X11819640Y-14067960D01*
X11620250Y-13868570D01*
X11420860Y-14067960D01*
X11620250Y-14267350D01*
X11620250Y-16172350D02*
X11819640Y-15972960D01*
X11620250Y-15773570D01*
X11420860Y-15972960D01*
X11620250Y-16172350D01*
X11620250Y-18077350D02*
X11819640Y-17877960D01*
X11620250Y-17678570D01*
X11420860Y-17877960D01*
X11620250Y-18077350D01*
D11*
X4591027Y-20129444D02*
X4591027Y-19929444D01*
X4591027Y-19929444D02*
X4638646Y-19929444D01*
X4638646Y-19929444D02*
X4667217Y-19938968D01*
X4667217Y-19938968D02*
X4686265Y-19958015D01*
X4686265Y-19958015D02*
X4695789Y-19977063D01*
X4695789Y-19977063D02*
X4705313Y-20015158D01*
X4705313Y-20015158D02*
X4705313Y-20043730D01*
X4705313Y-20043730D02*
X4695789Y-20081825D01*
X4695789Y-20081825D02*
X4686265Y-20100872D01*
X4686265Y-20100872D02*
X4667217Y-20119920D01*
X4667217Y-20119920D02*
X4638646Y-20129444D01*
X4638646Y-20129444D02*
X4591027Y-20129444D01*
X4791027Y-20129444D02*
X4791027Y-19996110D01*
X4791027Y-20034206D02*
X4800551Y-20015158D01*
X4800551Y-20015158D02*
X4810074Y-20005634D01*
X4810074Y-20005634D02*
X4829122Y-19996110D01*
X4829122Y-19996110D02*
X4848170Y-19996110D01*
X4914836Y-20129444D02*
X4914836Y-19996110D01*
X4914836Y-19929444D02*
X4905313Y-19938968D01*
X4905313Y-19938968D02*
X4914836Y-19948491D01*
X4914836Y-19948491D02*
X4924360Y-19938968D01*
X4924360Y-19938968D02*
X4914836Y-19929444D01*
X4914836Y-19929444D02*
X4914836Y-19948491D01*
X5038646Y-20129444D02*
X5019598Y-20119920D01*
X5019598Y-20119920D02*
X5010074Y-20100872D01*
X5010074Y-20100872D02*
X5010074Y-19929444D01*
X5143408Y-20129444D02*
X5124360Y-20119920D01*
X5124360Y-20119920D02*
X5114836Y-20100872D01*
X5114836Y-20100872D02*
X5114836Y-19929444D01*
X5371979Y-20129444D02*
X5371979Y-19929444D01*
X5371979Y-19929444D02*
X5438646Y-20072301D01*
X5438646Y-20072301D02*
X5505313Y-19929444D01*
X5505313Y-19929444D02*
X5505313Y-20129444D01*
X5686265Y-20129444D02*
X5686265Y-20024682D01*
X5686265Y-20024682D02*
X5676741Y-20005634D01*
X5676741Y-20005634D02*
X5657693Y-19996110D01*
X5657693Y-19996110D02*
X5619598Y-19996110D01*
X5619598Y-19996110D02*
X5600551Y-20005634D01*
X5686265Y-20119920D02*
X5667217Y-20129444D01*
X5667217Y-20129444D02*
X5619598Y-20129444D01*
X5619598Y-20129444D02*
X5600551Y-20119920D01*
X5600551Y-20119920D02*
X5591027Y-20100872D01*
X5591027Y-20100872D02*
X5591027Y-20081825D01*
X5591027Y-20081825D02*
X5600551Y-20062777D01*
X5600551Y-20062777D02*
X5619598Y-20053253D01*
X5619598Y-20053253D02*
X5667217Y-20053253D01*
X5667217Y-20053253D02*
X5686265Y-20043730D01*
X5781503Y-19996110D02*
X5781503Y-20196110D01*
X5781503Y-20005634D02*
X5800551Y-19996110D01*
X5800551Y-19996110D02*
X5838646Y-19996110D01*
X5838646Y-19996110D02*
X5857693Y-20005634D01*
X5857693Y-20005634D02*
X5867217Y-20015158D01*
X5867217Y-20015158D02*
X5876741Y-20034206D01*
X5876741Y-20034206D02*
X5876741Y-20091349D01*
X5876741Y-20091349D02*
X5867217Y-20110396D01*
X5867217Y-20110396D02*
X5857693Y-20119920D01*
X5857693Y-20119920D02*
X5838646Y-20129444D01*
X5838646Y-20129444D02*
X5800551Y-20129444D01*
X5800551Y-20129444D02*
X5781503Y-20119920D01*
X5962455Y-20110396D02*
X5971979Y-20119920D01*
X5971979Y-20119920D02*
X5962455Y-20129444D01*
X5962455Y-20129444D02*
X5952932Y-20119920D01*
X5952932Y-20119920D02*
X5962455Y-20110396D01*
X5962455Y-20110396D02*
X5962455Y-20129444D01*
X5962455Y-20005634D02*
X5971979Y-20015158D01*
X5971979Y-20015158D02*
X5962455Y-20024682D01*
X5962455Y-20024682D02*
X5952932Y-20015158D01*
X5952932Y-20015158D02*
X5962455Y-20005634D01*
X5962455Y-20005634D02*
X5962455Y-20024682D01*
D12*
X4170250Y-20377960D02*
X4330250Y-20537960D01*
X4330250Y-20377960D02*
X4170250Y-20537960D01*
D11*
X4695789Y-20549444D02*
X4581503Y-20549444D01*
X4638646Y-20549444D02*
X4638646Y-20349444D01*
X4638646Y-20349444D02*
X4619598Y-20378015D01*
X4619598Y-20378015D02*
X4600551Y-20397063D01*
X4600551Y-20397063D02*
X4581503Y-20406587D01*
X4781503Y-20530396D02*
X4791027Y-20539920D01*
X4791027Y-20539920D02*
X4781503Y-20549444D01*
X4781503Y-20549444D02*
X4771979Y-20539920D01*
X4771979Y-20539920D02*
X4781503Y-20530396D01*
X4781503Y-20530396D02*
X4781503Y-20549444D01*
X4962455Y-20349444D02*
X4924360Y-20349444D01*
X4924360Y-20349444D02*
X4905313Y-20358968D01*
X4905313Y-20358968D02*
X4895789Y-20368491D01*
X4895789Y-20368491D02*
X4876741Y-20397063D01*
X4876741Y-20397063D02*
X4867217Y-20435158D01*
X4867217Y-20435158D02*
X4867217Y-20511349D01*
X4867217Y-20511349D02*
X4876741Y-20530396D01*
X4876741Y-20530396D02*
X4886265Y-20539920D01*
X4886265Y-20539920D02*
X4905313Y-20549444D01*
X4905313Y-20549444D02*
X4943408Y-20549444D01*
X4943408Y-20549444D02*
X4962455Y-20539920D01*
X4962455Y-20539920D02*
X4971979Y-20530396D01*
X4971979Y-20530396D02*
X4981503Y-20511349D01*
X4981503Y-20511349D02*
X4981503Y-20463730D01*
X4981503Y-20463730D02*
X4971979Y-20444682D01*
X4971979Y-20444682D02*
X4962455Y-20435158D01*
X4962455Y-20435158D02*
X4943408Y-20425634D01*
X4943408Y-20425634D02*
X4905313Y-20425634D01*
X4905313Y-20425634D02*
X4886265Y-20435158D01*
X4886265Y-20435158D02*
X4876741Y-20444682D01*
X4876741Y-20444682D02*
X4867217Y-20463730D01*
X5105313Y-20349444D02*
X5124360Y-20349444D01*
X5124360Y-20349444D02*
X5143408Y-20358968D01*
X5143408Y-20358968D02*
X5152932Y-20368491D01*
X5152932Y-20368491D02*
X5162455Y-20387539D01*
X5162455Y-20387539D02*
X5171979Y-20425634D01*
X5171979Y-20425634D02*
X5171979Y-20473253D01*
X5171979Y-20473253D02*
X5162455Y-20511349D01*
X5162455Y-20511349D02*
X5152932Y-20530396D01*
X5152932Y-20530396D02*
X5143408Y-20539920D01*
X5143408Y-20539920D02*
X5124360Y-20549444D01*
X5124360Y-20549444D02*
X5105313Y-20549444D01*
X5105313Y-20549444D02*
X5086265Y-20539920D01*
X5086265Y-20539920D02*
X5076741Y-20530396D01*
X5076741Y-20530396D02*
X5067217Y-20511349D01*
X5067217Y-20511349D02*
X5057694Y-20473253D01*
X5057694Y-20473253D02*
X5057694Y-20425634D01*
X5057694Y-20425634D02*
X5067217Y-20387539D01*
X5067217Y-20387539D02*
X5076741Y-20368491D01*
X5076741Y-20368491D02*
X5086265Y-20358968D01*
X5086265Y-20358968D02*
X5105313Y-20349444D01*
X5295789Y-20349444D02*
X5314836Y-20349444D01*
X5314836Y-20349444D02*
X5333884Y-20358968D01*
X5333884Y-20358968D02*
X5343408Y-20368491D01*
X5343408Y-20368491D02*
X5352932Y-20387539D01*
X5352932Y-20387539D02*
X5362455Y-20425634D01*
X5362455Y-20425634D02*
X5362455Y-20473253D01*
X5362455Y-20473253D02*
X5352932Y-20511349D01*
X5352932Y-20511349D02*
X5343408Y-20530396D01*
X5343408Y-20530396D02*
X5333884Y-20539920D01*
X5333884Y-20539920D02*
X5314836Y-20549444D01*
X5314836Y-20549444D02*
X5295789Y-20549444D01*
X5295789Y-20549444D02*
X5276741Y-20539920D01*
X5276741Y-20539920D02*
X5267217Y-20530396D01*
X5267217Y-20530396D02*
X5257694Y-20511349D01*
X5257694Y-20511349D02*
X5248170Y-20473253D01*
X5248170Y-20473253D02*
X5248170Y-20425634D01*
X5248170Y-20425634D02*
X5257694Y-20387539D01*
X5257694Y-20387539D02*
X5267217Y-20368491D01*
X5267217Y-20368491D02*
X5276741Y-20358968D01*
X5276741Y-20358968D02*
X5295789Y-20349444D01*
X5448170Y-20549444D02*
X5448170Y-20416110D01*
X5448170Y-20435158D02*
X5457694Y-20425634D01*
X5457694Y-20425634D02*
X5476741Y-20416110D01*
X5476741Y-20416110D02*
X5505313Y-20416110D01*
X5505313Y-20416110D02*
X5524360Y-20425634D01*
X5524360Y-20425634D02*
X5533884Y-20444682D01*
X5533884Y-20444682D02*
X5533884Y-20549444D01*
X5533884Y-20444682D02*
X5543408Y-20425634D01*
X5543408Y-20425634D02*
X5562455Y-20416110D01*
X5562455Y-20416110D02*
X5591027Y-20416110D01*
X5591027Y-20416110D02*
X5610074Y-20425634D01*
X5610074Y-20425634D02*
X5619598Y-20444682D01*
X5619598Y-20444682D02*
X5619598Y-20549444D01*
X5714836Y-20549444D02*
X5714836Y-20416110D01*
X5714836Y-20435158D02*
X5724360Y-20425634D01*
X5724360Y-20425634D02*
X5743408Y-20416110D01*
X5743408Y-20416110D02*
X5771979Y-20416110D01*
X5771979Y-20416110D02*
X5791027Y-20425634D01*
X5791027Y-20425634D02*
X5800551Y-20444682D01*
X5800551Y-20444682D02*
X5800551Y-20549444D01*
X5800551Y-20444682D02*
X5810074Y-20425634D01*
X5810074Y-20425634D02*
X5829122Y-20416110D01*
X5829122Y-20416110D02*
X5857693Y-20416110D01*
X5857693Y-20416110D02*
X5876741Y-20425634D01*
X5876741Y-20425634D02*
X5886265Y-20444682D01*
X5886265Y-20444682D02*
X5886265Y-20549444D01*
X6276741Y-20339920D02*
X6105313Y-20597063D01*
X6533884Y-20349444D02*
X6552932Y-20349444D01*
X6552932Y-20349444D02*
X6571979Y-20358968D01*
X6571979Y-20358968D02*
X6581503Y-20368491D01*
X6581503Y-20368491D02*
X6591027Y-20387539D01*
X6591027Y-20387539D02*
X6600551Y-20425634D01*
X6600551Y-20425634D02*
X6600551Y-20473253D01*
X6600551Y-20473253D02*
X6591027Y-20511349D01*
X6591027Y-20511349D02*
X6581503Y-20530396D01*
X6581503Y-20530396D02*
X6571979Y-20539920D01*
X6571979Y-20539920D02*
X6552932Y-20549444D01*
X6552932Y-20549444D02*
X6533884Y-20549444D01*
X6533884Y-20549444D02*
X6514836Y-20539920D01*
X6514836Y-20539920D02*
X6505313Y-20530396D01*
X6505313Y-20530396D02*
X6495789Y-20511349D01*
X6495789Y-20511349D02*
X6486265Y-20473253D01*
X6486265Y-20473253D02*
X6486265Y-20425634D01*
X6486265Y-20425634D02*
X6495789Y-20387539D01*
X6495789Y-20387539D02*
X6505313Y-20368491D01*
X6505313Y-20368491D02*
X6514836Y-20358968D01*
X6514836Y-20358968D02*
X6533884Y-20349444D01*
X6686265Y-20530396D02*
X6695789Y-20539920D01*
X6695789Y-20539920D02*
X6686265Y-20549444D01*
X6686265Y-20549444D02*
X6676741Y-20539920D01*
X6676741Y-20539920D02*
X6686265Y-20530396D01*
X6686265Y-20530396D02*
X6686265Y-20549444D01*
X6819598Y-20349444D02*
X6838646Y-20349444D01*
X6838646Y-20349444D02*
X6857694Y-20358968D01*
X6857694Y-20358968D02*
X6867217Y-20368491D01*
X6867217Y-20368491D02*
X6876741Y-20387539D01*
X6876741Y-20387539D02*
X6886265Y-20425634D01*
X6886265Y-20425634D02*
X6886265Y-20473253D01*
X6886265Y-20473253D02*
X6876741Y-20511349D01*
X6876741Y-20511349D02*
X6867217Y-20530396D01*
X6867217Y-20530396D02*
X6857694Y-20539920D01*
X6857694Y-20539920D02*
X6838646Y-20549444D01*
X6838646Y-20549444D02*
X6819598Y-20549444D01*
X6819598Y-20549444D02*
X6800551Y-20539920D01*
X6800551Y-20539920D02*
X6791027Y-20530396D01*
X6791027Y-20530396D02*
X6781503Y-20511349D01*
X6781503Y-20511349D02*
X6771979Y-20473253D01*
X6771979Y-20473253D02*
X6771979Y-20425634D01*
X6771979Y-20425634D02*
X6781503Y-20387539D01*
X6781503Y-20387539D02*
X6791027Y-20368491D01*
X6791027Y-20368491D02*
X6800551Y-20358968D01*
X6800551Y-20358968D02*
X6819598Y-20349444D01*
X7057694Y-20349444D02*
X7019598Y-20349444D01*
X7019598Y-20349444D02*
X7000551Y-20358968D01*
X7000551Y-20358968D02*
X6991027Y-20368491D01*
X6991027Y-20368491D02*
X6971979Y-20397063D01*
X6971979Y-20397063D02*
X6962456Y-20435158D01*
X6962456Y-20435158D02*
X6962456Y-20511349D01*
X6962456Y-20511349D02*
X6971979Y-20530396D01*
X6971979Y-20530396D02*
X6981503Y-20539920D01*
X6981503Y-20539920D02*
X7000551Y-20549444D01*
X7000551Y-20549444D02*
X7038646Y-20549444D01*
X7038646Y-20549444D02*
X7057694Y-20539920D01*
X7057694Y-20539920D02*
X7067217Y-20530396D01*
X7067217Y-20530396D02*
X7076741Y-20511349D01*
X7076741Y-20511349D02*
X7076741Y-20463730D01*
X7076741Y-20463730D02*
X7067217Y-20444682D01*
X7067217Y-20444682D02*
X7057694Y-20435158D01*
X7057694Y-20435158D02*
X7038646Y-20425634D01*
X7038646Y-20425634D02*
X7000551Y-20425634D01*
X7000551Y-20425634D02*
X6981503Y-20435158D01*
X6981503Y-20435158D02*
X6971979Y-20444682D01*
X6971979Y-20444682D02*
X6962456Y-20463730D01*
X7143408Y-20349444D02*
X7267217Y-20349444D01*
X7267217Y-20349444D02*
X7200551Y-20425634D01*
X7200551Y-20425634D02*
X7229122Y-20425634D01*
X7229122Y-20425634D02*
X7248170Y-20435158D01*
X7248170Y-20435158D02*
X7257694Y-20444682D01*
X7257694Y-20444682D02*
X7267217Y-20463730D01*
X7267217Y-20463730D02*
X7267217Y-20511349D01*
X7267217Y-20511349D02*
X7257694Y-20530396D01*
X7257694Y-20530396D02*
X7248170Y-20539920D01*
X7248170Y-20539920D02*
X7229122Y-20549444D01*
X7229122Y-20549444D02*
X7171979Y-20549444D01*
X7171979Y-20549444D02*
X7152932Y-20539920D01*
X7152932Y-20539920D02*
X7143408Y-20530396D01*
X7391027Y-20349444D02*
X7410075Y-20349444D01*
X7410075Y-20349444D02*
X7429122Y-20358968D01*
X7429122Y-20358968D02*
X7438646Y-20368491D01*
X7438646Y-20368491D02*
X7448170Y-20387539D01*
X7448170Y-20387539D02*
X7457694Y-20425634D01*
X7457694Y-20425634D02*
X7457694Y-20473253D01*
X7457694Y-20473253D02*
X7448170Y-20511349D01*
X7448170Y-20511349D02*
X7438646Y-20530396D01*
X7438646Y-20530396D02*
X7429122Y-20539920D01*
X7429122Y-20539920D02*
X7410075Y-20549444D01*
X7410075Y-20549444D02*
X7391027Y-20549444D01*
X7391027Y-20549444D02*
X7371979Y-20539920D01*
X7371979Y-20539920D02*
X7362456Y-20530396D01*
X7362456Y-20530396D02*
X7352932Y-20511349D01*
X7352932Y-20511349D02*
X7343408Y-20473253D01*
X7343408Y-20473253D02*
X7343408Y-20425634D01*
X7343408Y-20425634D02*
X7352932Y-20387539D01*
X7352932Y-20387539D02*
X7362456Y-20368491D01*
X7362456Y-20368491D02*
X7371979Y-20358968D01*
X7371979Y-20358968D02*
X7391027Y-20349444D01*
X7533884Y-20349444D02*
X7533884Y-20387539D01*
X7610075Y-20349444D02*
X7610075Y-20387539D01*
X7905313Y-20625634D02*
X7895789Y-20616110D01*
X7895789Y-20616110D02*
X7876741Y-20587539D01*
X7876741Y-20587539D02*
X7867218Y-20568491D01*
X7867218Y-20568491D02*
X7857694Y-20539920D01*
X7857694Y-20539920D02*
X7848170Y-20492301D01*
X7848170Y-20492301D02*
X7848170Y-20454206D01*
X7848170Y-20454206D02*
X7857694Y-20406587D01*
X7857694Y-20406587D02*
X7867218Y-20378015D01*
X7867218Y-20378015D02*
X7876741Y-20358968D01*
X7876741Y-20358968D02*
X7895789Y-20330396D01*
X7895789Y-20330396D02*
X7905313Y-20320872D01*
X7971979Y-20368491D02*
X7981503Y-20358968D01*
X7981503Y-20358968D02*
X8000551Y-20349444D01*
X8000551Y-20349444D02*
X8048170Y-20349444D01*
X8048170Y-20349444D02*
X8067218Y-20358968D01*
X8067218Y-20358968D02*
X8076741Y-20368491D01*
X8076741Y-20368491D02*
X8086265Y-20387539D01*
X8086265Y-20387539D02*
X8086265Y-20406587D01*
X8086265Y-20406587D02*
X8076741Y-20435158D01*
X8076741Y-20435158D02*
X7962456Y-20549444D01*
X7962456Y-20549444D02*
X8086265Y-20549444D01*
X8324360Y-20549444D02*
X8324360Y-20349444D01*
X8410075Y-20549444D02*
X8410075Y-20444682D01*
X8410075Y-20444682D02*
X8400551Y-20425634D01*
X8400551Y-20425634D02*
X8381503Y-20416110D01*
X8381503Y-20416110D02*
X8352932Y-20416110D01*
X8352932Y-20416110D02*
X8333884Y-20425634D01*
X8333884Y-20425634D02*
X8324360Y-20435158D01*
X8533884Y-20549444D02*
X8514837Y-20539920D01*
X8514837Y-20539920D02*
X8505313Y-20530396D01*
X8505313Y-20530396D02*
X8495789Y-20511349D01*
X8495789Y-20511349D02*
X8495789Y-20454206D01*
X8495789Y-20454206D02*
X8505313Y-20435158D01*
X8505313Y-20435158D02*
X8514837Y-20425634D01*
X8514837Y-20425634D02*
X8533884Y-20416110D01*
X8533884Y-20416110D02*
X8562456Y-20416110D01*
X8562456Y-20416110D02*
X8581503Y-20425634D01*
X8581503Y-20425634D02*
X8591027Y-20435158D01*
X8591027Y-20435158D02*
X8600551Y-20454206D01*
X8600551Y-20454206D02*
X8600551Y-20511349D01*
X8600551Y-20511349D02*
X8591027Y-20530396D01*
X8591027Y-20530396D02*
X8581503Y-20539920D01*
X8581503Y-20539920D02*
X8562456Y-20549444D01*
X8562456Y-20549444D02*
X8533884Y-20549444D01*
X8714837Y-20549444D02*
X8695789Y-20539920D01*
X8695789Y-20539920D02*
X8686265Y-20520872D01*
X8686265Y-20520872D02*
X8686265Y-20349444D01*
X8867218Y-20539920D02*
X8848170Y-20549444D01*
X8848170Y-20549444D02*
X8810075Y-20549444D01*
X8810075Y-20549444D02*
X8791027Y-20539920D01*
X8791027Y-20539920D02*
X8781503Y-20520872D01*
X8781503Y-20520872D02*
X8781503Y-20444682D01*
X8781503Y-20444682D02*
X8791027Y-20425634D01*
X8791027Y-20425634D02*
X8810075Y-20416110D01*
X8810075Y-20416110D02*
X8848170Y-20416110D01*
X8848170Y-20416110D02*
X8867218Y-20425634D01*
X8867218Y-20425634D02*
X8876742Y-20444682D01*
X8876742Y-20444682D02*
X8876742Y-20463730D01*
X8876742Y-20463730D02*
X8781503Y-20482777D01*
X8952932Y-20539920D02*
X8971980Y-20549444D01*
X8971980Y-20549444D02*
X9010075Y-20549444D01*
X9010075Y-20549444D02*
X9029123Y-20539920D01*
X9029123Y-20539920D02*
X9038646Y-20520872D01*
X9038646Y-20520872D02*
X9038646Y-20511349D01*
X9038646Y-20511349D02*
X9029123Y-20492301D01*
X9029123Y-20492301D02*
X9010075Y-20482777D01*
X9010075Y-20482777D02*
X8981503Y-20482777D01*
X8981503Y-20482777D02*
X8962456Y-20473253D01*
X8962456Y-20473253D02*
X8952932Y-20454206D01*
X8952932Y-20454206D02*
X8952932Y-20444682D01*
X8952932Y-20444682D02*
X8962456Y-20425634D01*
X8962456Y-20425634D02*
X8981503Y-20416110D01*
X8981503Y-20416110D02*
X9010075Y-20416110D01*
X9010075Y-20416110D02*
X9029123Y-20425634D01*
X9105313Y-20625634D02*
X9114837Y-20616110D01*
X9114837Y-20616110D02*
X9133884Y-20587539D01*
X9133884Y-20587539D02*
X9143408Y-20568491D01*
X9143408Y-20568491D02*
X9152932Y-20539920D01*
X9152932Y-20539920D02*
X9162456Y-20492301D01*
X9162456Y-20492301D02*
X9162456Y-20454206D01*
X9162456Y-20454206D02*
X9152932Y-20406587D01*
X9152932Y-20406587D02*
X9143408Y-20378015D01*
X9143408Y-20378015D02*
X9133884Y-20358968D01*
X9133884Y-20358968D02*
X9114837Y-20330396D01*
X9114837Y-20330396D02*
X9105313Y-20320872D01*
X9467218Y-20625634D02*
X9457694Y-20616110D01*
X9457694Y-20616110D02*
X9438646Y-20587539D01*
X9438646Y-20587539D02*
X9429123Y-20568491D01*
X9429123Y-20568491D02*
X9419599Y-20539920D01*
X9419599Y-20539920D02*
X9410075Y-20492301D01*
X9410075Y-20492301D02*
X9410075Y-20454206D01*
X9410075Y-20454206D02*
X9419599Y-20406587D01*
X9419599Y-20406587D02*
X9429123Y-20378015D01*
X9429123Y-20378015D02*
X9438646Y-20358968D01*
X9438646Y-20358968D02*
X9457694Y-20330396D01*
X9457694Y-20330396D02*
X9467218Y-20320872D01*
X9543408Y-20416110D02*
X9543408Y-20549444D01*
X9543408Y-20435158D02*
X9552932Y-20425634D01*
X9552932Y-20425634D02*
X9571980Y-20416110D01*
X9571980Y-20416110D02*
X9600551Y-20416110D01*
X9600551Y-20416110D02*
X9619599Y-20425634D01*
X9619599Y-20425634D02*
X9629123Y-20444682D01*
X9629123Y-20444682D02*
X9629123Y-20549444D01*
X9752932Y-20549444D02*
X9733884Y-20539920D01*
X9733884Y-20539920D02*
X9724361Y-20530396D01*
X9724361Y-20530396D02*
X9714837Y-20511349D01*
X9714837Y-20511349D02*
X9714837Y-20454206D01*
X9714837Y-20454206D02*
X9724361Y-20435158D01*
X9724361Y-20435158D02*
X9733884Y-20425634D01*
X9733884Y-20425634D02*
X9752932Y-20416110D01*
X9752932Y-20416110D02*
X9781504Y-20416110D01*
X9781504Y-20416110D02*
X9800551Y-20425634D01*
X9800551Y-20425634D02*
X9810075Y-20435158D01*
X9810075Y-20435158D02*
X9819599Y-20454206D01*
X9819599Y-20454206D02*
X9819599Y-20511349D01*
X9819599Y-20511349D02*
X9810075Y-20530396D01*
X9810075Y-20530396D02*
X9800551Y-20539920D01*
X9800551Y-20539920D02*
X9781504Y-20549444D01*
X9781504Y-20549444D02*
X9752932Y-20549444D01*
X9876742Y-20416110D02*
X9952932Y-20416110D01*
X9905313Y-20349444D02*
X9905313Y-20520872D01*
X9905313Y-20520872D02*
X9914837Y-20539920D01*
X9914837Y-20539920D02*
X9933884Y-20549444D01*
X9933884Y-20549444D02*
X9952932Y-20549444D01*
X10171980Y-20416110D02*
X10171980Y-20616110D01*
X10171980Y-20425634D02*
X10191027Y-20416110D01*
X10191027Y-20416110D02*
X10229123Y-20416110D01*
X10229123Y-20416110D02*
X10248170Y-20425634D01*
X10248170Y-20425634D02*
X10257694Y-20435158D01*
X10257694Y-20435158D02*
X10267218Y-20454206D01*
X10267218Y-20454206D02*
X10267218Y-20511349D01*
X10267218Y-20511349D02*
X10257694Y-20530396D01*
X10257694Y-20530396D02*
X10248170Y-20539920D01*
X10248170Y-20539920D02*
X10229123Y-20549444D01*
X10229123Y-20549444D02*
X10191027Y-20549444D01*
X10191027Y-20549444D02*
X10171980Y-20539920D01*
X10381504Y-20549444D02*
X10362456Y-20539920D01*
X10362456Y-20539920D02*
X10352932Y-20520872D01*
X10352932Y-20520872D02*
X10352932Y-20349444D01*
X10543408Y-20549444D02*
X10543408Y-20444682D01*
X10543408Y-20444682D02*
X10533885Y-20425634D01*
X10533885Y-20425634D02*
X10514837Y-20416110D01*
X10514837Y-20416110D02*
X10476742Y-20416110D01*
X10476742Y-20416110D02*
X10457694Y-20425634D01*
X10543408Y-20539920D02*
X10524361Y-20549444D01*
X10524361Y-20549444D02*
X10476742Y-20549444D01*
X10476742Y-20549444D02*
X10457694Y-20539920D01*
X10457694Y-20539920D02*
X10448170Y-20520872D01*
X10448170Y-20520872D02*
X10448170Y-20501825D01*
X10448170Y-20501825D02*
X10457694Y-20482777D01*
X10457694Y-20482777D02*
X10476742Y-20473253D01*
X10476742Y-20473253D02*
X10524361Y-20473253D01*
X10524361Y-20473253D02*
X10543408Y-20463730D01*
X10610075Y-20416110D02*
X10686265Y-20416110D01*
X10638646Y-20349444D02*
X10638646Y-20520872D01*
X10638646Y-20520872D02*
X10648170Y-20539920D01*
X10648170Y-20539920D02*
X10667218Y-20549444D01*
X10667218Y-20549444D02*
X10686265Y-20549444D01*
X10829123Y-20539920D02*
X10810075Y-20549444D01*
X10810075Y-20549444D02*
X10771980Y-20549444D01*
X10771980Y-20549444D02*
X10752932Y-20539920D01*
X10752932Y-20539920D02*
X10743408Y-20520872D01*
X10743408Y-20520872D02*
X10743408Y-20444682D01*
X10743408Y-20444682D02*
X10752932Y-20425634D01*
X10752932Y-20425634D02*
X10771980Y-20416110D01*
X10771980Y-20416110D02*
X10810075Y-20416110D01*
X10810075Y-20416110D02*
X10829123Y-20425634D01*
X10829123Y-20425634D02*
X10838646Y-20444682D01*
X10838646Y-20444682D02*
X10838646Y-20463730D01*
X10838646Y-20463730D02*
X10743408Y-20482777D01*
X11010075Y-20549444D02*
X11010075Y-20349444D01*
X11010075Y-20539920D02*
X10991027Y-20549444D01*
X10991027Y-20549444D02*
X10952932Y-20549444D01*
X10952932Y-20549444D02*
X10933885Y-20539920D01*
X10933885Y-20539920D02*
X10924361Y-20530396D01*
X10924361Y-20530396D02*
X10914837Y-20511349D01*
X10914837Y-20511349D02*
X10914837Y-20454206D01*
X10914837Y-20454206D02*
X10924361Y-20435158D01*
X10924361Y-20435158D02*
X10933885Y-20425634D01*
X10933885Y-20425634D02*
X10952932Y-20416110D01*
X10952932Y-20416110D02*
X10991027Y-20416110D01*
X10991027Y-20416110D02*
X11010075Y-20425634D01*
X11086266Y-20625634D02*
X11095789Y-20616110D01*
X11095789Y-20616110D02*
X11114837Y-20587539D01*
X11114837Y-20587539D02*
X11124361Y-20568491D01*
X11124361Y-20568491D02*
X11133885Y-20539920D01*
X11133885Y-20539920D02*
X11143408Y-20492301D01*
X11143408Y-20492301D02*
X11143408Y-20454206D01*
X11143408Y-20454206D02*
X11133885Y-20406587D01*
X11133885Y-20406587D02*
X11124361Y-20378015D01*
X11124361Y-20378015D02*
X11114837Y-20358968D01*
X11114837Y-20358968D02*
X11095789Y-20330396D01*
X11095789Y-20330396D02*
X11086266Y-20320872D01*
D13*
X4330250Y-20737960D02*
G75*
G02*
X4160070Y-20737960I-85090J0D01*
G01*
X4160070Y-20737960D02*
G75*
G02*
X4330250Y-20737960I85090J0D01*
G01*
D11*
X4695789Y-20829444D02*
X4581503Y-20829444D01*
X4638646Y-20829444D02*
X4638646Y-20629444D01*
X4638646Y-20629444D02*
X4619598Y-20658015D01*
X4619598Y-20658015D02*
X4600551Y-20677063D01*
X4600551Y-20677063D02*
X4581503Y-20686587D01*
X4781503Y-20810396D02*
X4791027Y-20819920D01*
X4791027Y-20819920D02*
X4781503Y-20829444D01*
X4781503Y-20829444D02*
X4771979Y-20819920D01*
X4771979Y-20819920D02*
X4781503Y-20810396D01*
X4781503Y-20810396D02*
X4781503Y-20829444D01*
X4857694Y-20629444D02*
X4991027Y-20629444D01*
X4991027Y-20629444D02*
X4905313Y-20829444D01*
X5105313Y-20629444D02*
X5124360Y-20629444D01*
X5124360Y-20629444D02*
X5143408Y-20638968D01*
X5143408Y-20638968D02*
X5152932Y-20648491D01*
X5152932Y-20648491D02*
X5162455Y-20667539D01*
X5162455Y-20667539D02*
X5171979Y-20705634D01*
X5171979Y-20705634D02*
X5171979Y-20753253D01*
X5171979Y-20753253D02*
X5162455Y-20791349D01*
X5162455Y-20791349D02*
X5152932Y-20810396D01*
X5152932Y-20810396D02*
X5143408Y-20819920D01*
X5143408Y-20819920D02*
X5124360Y-20829444D01*
X5124360Y-20829444D02*
X5105313Y-20829444D01*
X5105313Y-20829444D02*
X5086265Y-20819920D01*
X5086265Y-20819920D02*
X5076741Y-20810396D01*
X5076741Y-20810396D02*
X5067217Y-20791349D01*
X5067217Y-20791349D02*
X5057694Y-20753253D01*
X5057694Y-20753253D02*
X5057694Y-20705634D01*
X5057694Y-20705634D02*
X5067217Y-20667539D01*
X5067217Y-20667539D02*
X5076741Y-20648491D01*
X5076741Y-20648491D02*
X5086265Y-20638968D01*
X5086265Y-20638968D02*
X5105313Y-20629444D01*
X5248170Y-20648491D02*
X5257694Y-20638968D01*
X5257694Y-20638968D02*
X5276741Y-20629444D01*
X5276741Y-20629444D02*
X5324360Y-20629444D01*
X5324360Y-20629444D02*
X5343408Y-20638968D01*
X5343408Y-20638968D02*
X5352932Y-20648491D01*
X5352932Y-20648491D02*
X5362455Y-20667539D01*
X5362455Y-20667539D02*
X5362455Y-20686587D01*
X5362455Y-20686587D02*
X5352932Y-20715158D01*
X5352932Y-20715158D02*
X5238646Y-20829444D01*
X5238646Y-20829444D02*
X5362455Y-20829444D01*
X5448170Y-20829444D02*
X5448170Y-20696110D01*
X5448170Y-20715158D02*
X5457694Y-20705634D01*
X5457694Y-20705634D02*
X5476741Y-20696110D01*
X5476741Y-20696110D02*
X5505313Y-20696110D01*
X5505313Y-20696110D02*
X5524360Y-20705634D01*
X5524360Y-20705634D02*
X5533884Y-20724682D01*
X5533884Y-20724682D02*
X5533884Y-20829444D01*
X5533884Y-20724682D02*
X5543408Y-20705634D01*
X5543408Y-20705634D02*
X5562455Y-20696110D01*
X5562455Y-20696110D02*
X5591027Y-20696110D01*
X5591027Y-20696110D02*
X5610074Y-20705634D01*
X5610074Y-20705634D02*
X5619598Y-20724682D01*
X5619598Y-20724682D02*
X5619598Y-20829444D01*
X5714836Y-20829444D02*
X5714836Y-20696110D01*
X5714836Y-20715158D02*
X5724360Y-20705634D01*
X5724360Y-20705634D02*
X5743408Y-20696110D01*
X5743408Y-20696110D02*
X5771979Y-20696110D01*
X5771979Y-20696110D02*
X5791027Y-20705634D01*
X5791027Y-20705634D02*
X5800551Y-20724682D01*
X5800551Y-20724682D02*
X5800551Y-20829444D01*
X5800551Y-20724682D02*
X5810074Y-20705634D01*
X5810074Y-20705634D02*
X5829122Y-20696110D01*
X5829122Y-20696110D02*
X5857693Y-20696110D01*
X5857693Y-20696110D02*
X5876741Y-20705634D01*
X5876741Y-20705634D02*
X5886265Y-20724682D01*
X5886265Y-20724682D02*
X5886265Y-20829444D01*
X6276741Y-20619920D02*
X6105313Y-20877063D01*
X6533884Y-20629444D02*
X6552932Y-20629444D01*
X6552932Y-20629444D02*
X6571979Y-20638968D01*
X6571979Y-20638968D02*
X6581503Y-20648491D01*
X6581503Y-20648491D02*
X6591027Y-20667539D01*
X6591027Y-20667539D02*
X6600551Y-20705634D01*
X6600551Y-20705634D02*
X6600551Y-20753253D01*
X6600551Y-20753253D02*
X6591027Y-20791349D01*
X6591027Y-20791349D02*
X6581503Y-20810396D01*
X6581503Y-20810396D02*
X6571979Y-20819920D01*
X6571979Y-20819920D02*
X6552932Y-20829444D01*
X6552932Y-20829444D02*
X6533884Y-20829444D01*
X6533884Y-20829444D02*
X6514836Y-20819920D01*
X6514836Y-20819920D02*
X6505313Y-20810396D01*
X6505313Y-20810396D02*
X6495789Y-20791349D01*
X6495789Y-20791349D02*
X6486265Y-20753253D01*
X6486265Y-20753253D02*
X6486265Y-20705634D01*
X6486265Y-20705634D02*
X6495789Y-20667539D01*
X6495789Y-20667539D02*
X6505313Y-20648491D01*
X6505313Y-20648491D02*
X6514836Y-20638968D01*
X6514836Y-20638968D02*
X6533884Y-20629444D01*
X6686265Y-20810396D02*
X6695789Y-20819920D01*
X6695789Y-20819920D02*
X6686265Y-20829444D01*
X6686265Y-20829444D02*
X6676741Y-20819920D01*
X6676741Y-20819920D02*
X6686265Y-20810396D01*
X6686265Y-20810396D02*
X6686265Y-20829444D01*
X6819598Y-20629444D02*
X6838646Y-20629444D01*
X6838646Y-20629444D02*
X6857694Y-20638968D01*
X6857694Y-20638968D02*
X6867217Y-20648491D01*
X6867217Y-20648491D02*
X6876741Y-20667539D01*
X6876741Y-20667539D02*
X6886265Y-20705634D01*
X6886265Y-20705634D02*
X6886265Y-20753253D01*
X6886265Y-20753253D02*
X6876741Y-20791349D01*
X6876741Y-20791349D02*
X6867217Y-20810396D01*
X6867217Y-20810396D02*
X6857694Y-20819920D01*
X6857694Y-20819920D02*
X6838646Y-20829444D01*
X6838646Y-20829444D02*
X6819598Y-20829444D01*
X6819598Y-20829444D02*
X6800551Y-20819920D01*
X6800551Y-20819920D02*
X6791027Y-20810396D01*
X6791027Y-20810396D02*
X6781503Y-20791349D01*
X6781503Y-20791349D02*
X6771979Y-20753253D01*
X6771979Y-20753253D02*
X6771979Y-20705634D01*
X6771979Y-20705634D02*
X6781503Y-20667539D01*
X6781503Y-20667539D02*
X6791027Y-20648491D01*
X6791027Y-20648491D02*
X6800551Y-20638968D01*
X6800551Y-20638968D02*
X6819598Y-20629444D01*
X7057694Y-20629444D02*
X7019598Y-20629444D01*
X7019598Y-20629444D02*
X7000551Y-20638968D01*
X7000551Y-20638968D02*
X6991027Y-20648491D01*
X6991027Y-20648491D02*
X6971979Y-20677063D01*
X6971979Y-20677063D02*
X6962456Y-20715158D01*
X6962456Y-20715158D02*
X6962456Y-20791349D01*
X6962456Y-20791349D02*
X6971979Y-20810396D01*
X6971979Y-20810396D02*
X6981503Y-20819920D01*
X6981503Y-20819920D02*
X7000551Y-20829444D01*
X7000551Y-20829444D02*
X7038646Y-20829444D01*
X7038646Y-20829444D02*
X7057694Y-20819920D01*
X7057694Y-20819920D02*
X7067217Y-20810396D01*
X7067217Y-20810396D02*
X7076741Y-20791349D01*
X7076741Y-20791349D02*
X7076741Y-20743730D01*
X7076741Y-20743730D02*
X7067217Y-20724682D01*
X7067217Y-20724682D02*
X7057694Y-20715158D01*
X7057694Y-20715158D02*
X7038646Y-20705634D01*
X7038646Y-20705634D02*
X7000551Y-20705634D01*
X7000551Y-20705634D02*
X6981503Y-20715158D01*
X6981503Y-20715158D02*
X6971979Y-20724682D01*
X6971979Y-20724682D02*
X6962456Y-20743730D01*
X7143408Y-20629444D02*
X7276741Y-20629444D01*
X7276741Y-20629444D02*
X7191027Y-20829444D01*
X7391027Y-20629444D02*
X7410075Y-20629444D01*
X7410075Y-20629444D02*
X7429122Y-20638968D01*
X7429122Y-20638968D02*
X7438646Y-20648491D01*
X7438646Y-20648491D02*
X7448170Y-20667539D01*
X7448170Y-20667539D02*
X7457694Y-20705634D01*
X7457694Y-20705634D02*
X7457694Y-20753253D01*
X7457694Y-20753253D02*
X7448170Y-20791349D01*
X7448170Y-20791349D02*
X7438646Y-20810396D01*
X7438646Y-20810396D02*
X7429122Y-20819920D01*
X7429122Y-20819920D02*
X7410075Y-20829444D01*
X7410075Y-20829444D02*
X7391027Y-20829444D01*
X7391027Y-20829444D02*
X7371979Y-20819920D01*
X7371979Y-20819920D02*
X7362456Y-20810396D01*
X7362456Y-20810396D02*
X7352932Y-20791349D01*
X7352932Y-20791349D02*
X7343408Y-20753253D01*
X7343408Y-20753253D02*
X7343408Y-20705634D01*
X7343408Y-20705634D02*
X7352932Y-20667539D01*
X7352932Y-20667539D02*
X7362456Y-20648491D01*
X7362456Y-20648491D02*
X7371979Y-20638968D01*
X7371979Y-20638968D02*
X7391027Y-20629444D01*
X7533884Y-20629444D02*
X7533884Y-20667539D01*
X7610075Y-20629444D02*
X7610075Y-20667539D01*
X7905313Y-20905634D02*
X7895789Y-20896110D01*
X7895789Y-20896110D02*
X7876741Y-20867539D01*
X7876741Y-20867539D02*
X7867218Y-20848491D01*
X7867218Y-20848491D02*
X7857694Y-20819920D01*
X7857694Y-20819920D02*
X7848170Y-20772301D01*
X7848170Y-20772301D02*
X7848170Y-20734206D01*
X7848170Y-20734206D02*
X7857694Y-20686587D01*
X7857694Y-20686587D02*
X7867218Y-20658015D01*
X7867218Y-20658015D02*
X7876741Y-20638968D01*
X7876741Y-20638968D02*
X7895789Y-20610396D01*
X7895789Y-20610396D02*
X7905313Y-20600872D01*
X8067218Y-20696110D02*
X8067218Y-20829444D01*
X8019598Y-20619920D02*
X7971979Y-20762777D01*
X7971979Y-20762777D02*
X8095789Y-20762777D01*
X8257694Y-20696110D02*
X8257694Y-20829444D01*
X8210075Y-20619920D02*
X8162456Y-20762777D01*
X8162456Y-20762777D02*
X8286265Y-20762777D01*
X8514837Y-20829444D02*
X8514837Y-20629444D01*
X8600551Y-20829444D02*
X8600551Y-20724682D01*
X8600551Y-20724682D02*
X8591027Y-20705634D01*
X8591027Y-20705634D02*
X8571980Y-20696110D01*
X8571980Y-20696110D02*
X8543408Y-20696110D01*
X8543408Y-20696110D02*
X8524361Y-20705634D01*
X8524361Y-20705634D02*
X8514837Y-20715158D01*
X8724361Y-20829444D02*
X8705313Y-20819920D01*
X8705313Y-20819920D02*
X8695789Y-20810396D01*
X8695789Y-20810396D02*
X8686265Y-20791349D01*
X8686265Y-20791349D02*
X8686265Y-20734206D01*
X8686265Y-20734206D02*
X8695789Y-20715158D01*
X8695789Y-20715158D02*
X8705313Y-20705634D01*
X8705313Y-20705634D02*
X8724361Y-20696110D01*
X8724361Y-20696110D02*
X8752932Y-20696110D01*
X8752932Y-20696110D02*
X8771980Y-20705634D01*
X8771980Y-20705634D02*
X8781503Y-20715158D01*
X8781503Y-20715158D02*
X8791027Y-20734206D01*
X8791027Y-20734206D02*
X8791027Y-20791349D01*
X8791027Y-20791349D02*
X8781503Y-20810396D01*
X8781503Y-20810396D02*
X8771980Y-20819920D01*
X8771980Y-20819920D02*
X8752932Y-20829444D01*
X8752932Y-20829444D02*
X8724361Y-20829444D01*
X8905313Y-20829444D02*
X8886265Y-20819920D01*
X8886265Y-20819920D02*
X8876742Y-20800872D01*
X8876742Y-20800872D02*
X8876742Y-20629444D01*
X9057694Y-20819920D02*
X9038646Y-20829444D01*
X9038646Y-20829444D02*
X9000551Y-20829444D01*
X9000551Y-20829444D02*
X8981503Y-20819920D01*
X8981503Y-20819920D02*
X8971980Y-20800872D01*
X8971980Y-20800872D02*
X8971980Y-20724682D01*
X8971980Y-20724682D02*
X8981503Y-20705634D01*
X8981503Y-20705634D02*
X9000551Y-20696110D01*
X9000551Y-20696110D02*
X9038646Y-20696110D01*
X9038646Y-20696110D02*
X9057694Y-20705634D01*
X9057694Y-20705634D02*
X9067218Y-20724682D01*
X9067218Y-20724682D02*
X9067218Y-20743730D01*
X9067218Y-20743730D02*
X8971980Y-20762777D01*
X9143408Y-20819920D02*
X9162456Y-20829444D01*
X9162456Y-20829444D02*
X9200551Y-20829444D01*
X9200551Y-20829444D02*
X9219599Y-20819920D01*
X9219599Y-20819920D02*
X9229123Y-20800872D01*
X9229123Y-20800872D02*
X9229123Y-20791349D01*
X9229123Y-20791349D02*
X9219599Y-20772301D01*
X9219599Y-20772301D02*
X9200551Y-20762777D01*
X9200551Y-20762777D02*
X9171980Y-20762777D01*
X9171980Y-20762777D02*
X9152932Y-20753253D01*
X9152932Y-20753253D02*
X9143408Y-20734206D01*
X9143408Y-20734206D02*
X9143408Y-20724682D01*
X9143408Y-20724682D02*
X9152932Y-20705634D01*
X9152932Y-20705634D02*
X9171980Y-20696110D01*
X9171980Y-20696110D02*
X9200551Y-20696110D01*
X9200551Y-20696110D02*
X9219599Y-20705634D01*
X9295789Y-20905634D02*
X9305313Y-20896110D01*
X9305313Y-20896110D02*
X9324361Y-20867539D01*
X9324361Y-20867539D02*
X9333884Y-20848491D01*
X9333884Y-20848491D02*
X9343408Y-20819920D01*
X9343408Y-20819920D02*
X9352932Y-20772301D01*
X9352932Y-20772301D02*
X9352932Y-20734206D01*
X9352932Y-20734206D02*
X9343408Y-20686587D01*
X9343408Y-20686587D02*
X9333884Y-20658015D01*
X9333884Y-20658015D02*
X9324361Y-20638968D01*
X9324361Y-20638968D02*
X9305313Y-20610396D01*
X9305313Y-20610396D02*
X9295789Y-20600872D01*
X9657694Y-20905634D02*
X9648170Y-20896110D01*
X9648170Y-20896110D02*
X9629123Y-20867539D01*
X9629123Y-20867539D02*
X9619599Y-20848491D01*
X9619599Y-20848491D02*
X9610075Y-20819920D01*
X9610075Y-20819920D02*
X9600551Y-20772301D01*
X9600551Y-20772301D02*
X9600551Y-20734206D01*
X9600551Y-20734206D02*
X9610075Y-20686587D01*
X9610075Y-20686587D02*
X9619599Y-20658015D01*
X9619599Y-20658015D02*
X9629123Y-20638968D01*
X9629123Y-20638968D02*
X9648170Y-20610396D01*
X9648170Y-20610396D02*
X9657694Y-20600872D01*
X9733884Y-20696110D02*
X9733884Y-20829444D01*
X9733884Y-20715158D02*
X9743408Y-20705634D01*
X9743408Y-20705634D02*
X9762456Y-20696110D01*
X9762456Y-20696110D02*
X9791027Y-20696110D01*
X9791027Y-20696110D02*
X9810075Y-20705634D01*
X9810075Y-20705634D02*
X9819599Y-20724682D01*
X9819599Y-20724682D02*
X9819599Y-20829444D01*
X9943408Y-20829444D02*
X9924361Y-20819920D01*
X9924361Y-20819920D02*
X9914837Y-20810396D01*
X9914837Y-20810396D02*
X9905313Y-20791349D01*
X9905313Y-20791349D02*
X9905313Y-20734206D01*
X9905313Y-20734206D02*
X9914837Y-20715158D01*
X9914837Y-20715158D02*
X9924361Y-20705634D01*
X9924361Y-20705634D02*
X9943408Y-20696110D01*
X9943408Y-20696110D02*
X9971980Y-20696110D01*
X9971980Y-20696110D02*
X9991027Y-20705634D01*
X9991027Y-20705634D02*
X10000551Y-20715158D01*
X10000551Y-20715158D02*
X10010075Y-20734206D01*
X10010075Y-20734206D02*
X10010075Y-20791349D01*
X10010075Y-20791349D02*
X10000551Y-20810396D01*
X10000551Y-20810396D02*
X9991027Y-20819920D01*
X9991027Y-20819920D02*
X9971980Y-20829444D01*
X9971980Y-20829444D02*
X9943408Y-20829444D01*
X10067218Y-20696110D02*
X10143408Y-20696110D01*
X10095789Y-20629444D02*
X10095789Y-20800872D01*
X10095789Y-20800872D02*
X10105313Y-20819920D01*
X10105313Y-20819920D02*
X10124361Y-20829444D01*
X10124361Y-20829444D02*
X10143408Y-20829444D01*
X10362456Y-20696110D02*
X10362456Y-20896110D01*
X10362456Y-20705634D02*
X10381504Y-20696110D01*
X10381504Y-20696110D02*
X10419599Y-20696110D01*
X10419599Y-20696110D02*
X10438646Y-20705634D01*
X10438646Y-20705634D02*
X10448170Y-20715158D01*
X10448170Y-20715158D02*
X10457694Y-20734206D01*
X10457694Y-20734206D02*
X10457694Y-20791349D01*
X10457694Y-20791349D02*
X10448170Y-20810396D01*
X10448170Y-20810396D02*
X10438646Y-20819920D01*
X10438646Y-20819920D02*
X10419599Y-20829444D01*
X10419599Y-20829444D02*
X10381504Y-20829444D01*
X10381504Y-20829444D02*
X10362456Y-20819920D01*
X10571980Y-20829444D02*
X10552932Y-20819920D01*
X10552932Y-20819920D02*
X10543408Y-20800872D01*
X10543408Y-20800872D02*
X10543408Y-20629444D01*
X10733885Y-20829444D02*
X10733885Y-20724682D01*
X10733885Y-20724682D02*
X10724361Y-20705634D01*
X10724361Y-20705634D02*
X10705313Y-20696110D01*
X10705313Y-20696110D02*
X10667218Y-20696110D01*
X10667218Y-20696110D02*
X10648170Y-20705634D01*
X10733885Y-20819920D02*
X10714837Y-20829444D01*
X10714837Y-20829444D02*
X10667218Y-20829444D01*
X10667218Y-20829444D02*
X10648170Y-20819920D01*
X10648170Y-20819920D02*
X10638646Y-20800872D01*
X10638646Y-20800872D02*
X10638646Y-20781825D01*
X10638646Y-20781825D02*
X10648170Y-20762777D01*
X10648170Y-20762777D02*
X10667218Y-20753253D01*
X10667218Y-20753253D02*
X10714837Y-20753253D01*
X10714837Y-20753253D02*
X10733885Y-20743730D01*
X10800551Y-20696110D02*
X10876742Y-20696110D01*
X10829123Y-20629444D02*
X10829123Y-20800872D01*
X10829123Y-20800872D02*
X10838646Y-20819920D01*
X10838646Y-20819920D02*
X10857694Y-20829444D01*
X10857694Y-20829444D02*
X10876742Y-20829444D01*
X11019599Y-20819920D02*
X11000551Y-20829444D01*
X11000551Y-20829444D02*
X10962456Y-20829444D01*
X10962456Y-20829444D02*
X10943408Y-20819920D01*
X10943408Y-20819920D02*
X10933885Y-20800872D01*
X10933885Y-20800872D02*
X10933885Y-20724682D01*
X10933885Y-20724682D02*
X10943408Y-20705634D01*
X10943408Y-20705634D02*
X10962456Y-20696110D01*
X10962456Y-20696110D02*
X11000551Y-20696110D01*
X11000551Y-20696110D02*
X11019599Y-20705634D01*
X11019599Y-20705634D02*
X11029123Y-20724682D01*
X11029123Y-20724682D02*
X11029123Y-20743730D01*
X11029123Y-20743730D02*
X10933885Y-20762777D01*
X11200551Y-20829444D02*
X11200551Y-20629444D01*
X11200551Y-20819920D02*
X11181504Y-20829444D01*
X11181504Y-20829444D02*
X11143408Y-20829444D01*
X11143408Y-20829444D02*
X11124361Y-20819920D01*
X11124361Y-20819920D02*
X11114837Y-20810396D01*
X11114837Y-20810396D02*
X11105313Y-20791349D01*
X11105313Y-20791349D02*
X11105313Y-20734206D01*
X11105313Y-20734206D02*
X11114837Y-20715158D01*
X11114837Y-20715158D02*
X11124361Y-20705634D01*
X11124361Y-20705634D02*
X11143408Y-20696110D01*
X11143408Y-20696110D02*
X11181504Y-20696110D01*
X11181504Y-20696110D02*
X11200551Y-20705634D01*
X11276742Y-20905634D02*
X11286265Y-20896110D01*
X11286265Y-20896110D02*
X11305313Y-20867539D01*
X11305313Y-20867539D02*
X11314837Y-20848491D01*
X11314837Y-20848491D02*
X11324361Y-20819920D01*
X11324361Y-20819920D02*
X11333884Y-20772301D01*
X11333884Y-20772301D02*
X11333884Y-20734206D01*
X11333884Y-20734206D02*
X11324361Y-20686587D01*
X11324361Y-20686587D02*
X11314837Y-20658015D01*
X11314837Y-20658015D02*
X11305313Y-20638968D01*
X11305313Y-20638968D02*
X11286265Y-20610396D01*
X11286265Y-20610396D02*
X11276742Y-20600872D01*
X4230250Y-20928140D02*
X4230250Y-21128140D01*
X4130250Y-21028140D02*
X4330250Y-21028140D01*
X4581503Y-20938671D02*
X4591027Y-20929148D01*
X4591027Y-20929148D02*
X4610074Y-20919624D01*
X4610074Y-20919624D02*
X4657694Y-20919624D01*
X4657694Y-20919624D02*
X4676741Y-20929148D01*
X4676741Y-20929148D02*
X4686265Y-20938671D01*
X4686265Y-20938671D02*
X4695789Y-20957719D01*
X4695789Y-20957719D02*
X4695789Y-20976767D01*
X4695789Y-20976767D02*
X4686265Y-21005338D01*
X4686265Y-21005338D02*
X4571979Y-21119624D01*
X4571979Y-21119624D02*
X4695789Y-21119624D01*
X4781503Y-21100576D02*
X4791027Y-21110100D01*
X4791027Y-21110100D02*
X4781503Y-21119624D01*
X4781503Y-21119624D02*
X4771979Y-21110100D01*
X4771979Y-21110100D02*
X4781503Y-21100576D01*
X4781503Y-21100576D02*
X4781503Y-21119624D01*
X4867217Y-20938671D02*
X4876741Y-20929148D01*
X4876741Y-20929148D02*
X4895789Y-20919624D01*
X4895789Y-20919624D02*
X4943408Y-20919624D01*
X4943408Y-20919624D02*
X4962455Y-20929148D01*
X4962455Y-20929148D02*
X4971979Y-20938671D01*
X4971979Y-20938671D02*
X4981503Y-20957719D01*
X4981503Y-20957719D02*
X4981503Y-20976767D01*
X4981503Y-20976767D02*
X4971979Y-21005338D01*
X4971979Y-21005338D02*
X4857694Y-21119624D01*
X4857694Y-21119624D02*
X4981503Y-21119624D01*
X5105313Y-20919624D02*
X5124360Y-20919624D01*
X5124360Y-20919624D02*
X5143408Y-20929148D01*
X5143408Y-20929148D02*
X5152932Y-20938671D01*
X5152932Y-20938671D02*
X5162455Y-20957719D01*
X5162455Y-20957719D02*
X5171979Y-20995814D01*
X5171979Y-20995814D02*
X5171979Y-21043433D01*
X5171979Y-21043433D02*
X5162455Y-21081529D01*
X5162455Y-21081529D02*
X5152932Y-21100576D01*
X5152932Y-21100576D02*
X5143408Y-21110100D01*
X5143408Y-21110100D02*
X5124360Y-21119624D01*
X5124360Y-21119624D02*
X5105313Y-21119624D01*
X5105313Y-21119624D02*
X5086265Y-21110100D01*
X5086265Y-21110100D02*
X5076741Y-21100576D01*
X5076741Y-21100576D02*
X5067217Y-21081529D01*
X5067217Y-21081529D02*
X5057694Y-21043433D01*
X5057694Y-21043433D02*
X5057694Y-20995814D01*
X5057694Y-20995814D02*
X5067217Y-20957719D01*
X5067217Y-20957719D02*
X5076741Y-20938671D01*
X5076741Y-20938671D02*
X5086265Y-20929148D01*
X5086265Y-20929148D02*
X5105313Y-20919624D01*
X5295789Y-20919624D02*
X5314836Y-20919624D01*
X5314836Y-20919624D02*
X5333884Y-20929148D01*
X5333884Y-20929148D02*
X5343408Y-20938671D01*
X5343408Y-20938671D02*
X5352932Y-20957719D01*
X5352932Y-20957719D02*
X5362455Y-20995814D01*
X5362455Y-20995814D02*
X5362455Y-21043433D01*
X5362455Y-21043433D02*
X5352932Y-21081529D01*
X5352932Y-21081529D02*
X5343408Y-21100576D01*
X5343408Y-21100576D02*
X5333884Y-21110100D01*
X5333884Y-21110100D02*
X5314836Y-21119624D01*
X5314836Y-21119624D02*
X5295789Y-21119624D01*
X5295789Y-21119624D02*
X5276741Y-21110100D01*
X5276741Y-21110100D02*
X5267217Y-21100576D01*
X5267217Y-21100576D02*
X5257694Y-21081529D01*
X5257694Y-21081529D02*
X5248170Y-21043433D01*
X5248170Y-21043433D02*
X5248170Y-20995814D01*
X5248170Y-20995814D02*
X5257694Y-20957719D01*
X5257694Y-20957719D02*
X5267217Y-20938671D01*
X5267217Y-20938671D02*
X5276741Y-20929148D01*
X5276741Y-20929148D02*
X5295789Y-20919624D01*
X5448170Y-21119624D02*
X5448170Y-20986290D01*
X5448170Y-21005338D02*
X5457694Y-20995814D01*
X5457694Y-20995814D02*
X5476741Y-20986290D01*
X5476741Y-20986290D02*
X5505313Y-20986290D01*
X5505313Y-20986290D02*
X5524360Y-20995814D01*
X5524360Y-20995814D02*
X5533884Y-21014862D01*
X5533884Y-21014862D02*
X5533884Y-21119624D01*
X5533884Y-21014862D02*
X5543408Y-20995814D01*
X5543408Y-20995814D02*
X5562455Y-20986290D01*
X5562455Y-20986290D02*
X5591027Y-20986290D01*
X5591027Y-20986290D02*
X5610074Y-20995814D01*
X5610074Y-20995814D02*
X5619598Y-21014862D01*
X5619598Y-21014862D02*
X5619598Y-21119624D01*
X5714836Y-21119624D02*
X5714836Y-20986290D01*
X5714836Y-21005338D02*
X5724360Y-20995814D01*
X5724360Y-20995814D02*
X5743408Y-20986290D01*
X5743408Y-20986290D02*
X5771979Y-20986290D01*
X5771979Y-20986290D02*
X5791027Y-20995814D01*
X5791027Y-20995814D02*
X5800551Y-21014862D01*
X5800551Y-21014862D02*
X5800551Y-21119624D01*
X5800551Y-21014862D02*
X5810074Y-20995814D01*
X5810074Y-20995814D02*
X5829122Y-20986290D01*
X5829122Y-20986290D02*
X5857693Y-20986290D01*
X5857693Y-20986290D02*
X5876741Y-20995814D01*
X5876741Y-20995814D02*
X5886265Y-21014862D01*
X5886265Y-21014862D02*
X5886265Y-21119624D01*
X6276741Y-20910100D02*
X6105313Y-21167243D01*
X6533884Y-20919624D02*
X6552932Y-20919624D01*
X6552932Y-20919624D02*
X6571979Y-20929148D01*
X6571979Y-20929148D02*
X6581503Y-20938671D01*
X6581503Y-20938671D02*
X6591027Y-20957719D01*
X6591027Y-20957719D02*
X6600551Y-20995814D01*
X6600551Y-20995814D02*
X6600551Y-21043433D01*
X6600551Y-21043433D02*
X6591027Y-21081529D01*
X6591027Y-21081529D02*
X6581503Y-21100576D01*
X6581503Y-21100576D02*
X6571979Y-21110100D01*
X6571979Y-21110100D02*
X6552932Y-21119624D01*
X6552932Y-21119624D02*
X6533884Y-21119624D01*
X6533884Y-21119624D02*
X6514836Y-21110100D01*
X6514836Y-21110100D02*
X6505313Y-21100576D01*
X6505313Y-21100576D02*
X6495789Y-21081529D01*
X6495789Y-21081529D02*
X6486265Y-21043433D01*
X6486265Y-21043433D02*
X6486265Y-20995814D01*
X6486265Y-20995814D02*
X6495789Y-20957719D01*
X6495789Y-20957719D02*
X6505313Y-20938671D01*
X6505313Y-20938671D02*
X6514836Y-20929148D01*
X6514836Y-20929148D02*
X6533884Y-20919624D01*
X6686265Y-21100576D02*
X6695789Y-21110100D01*
X6695789Y-21110100D02*
X6686265Y-21119624D01*
X6686265Y-21119624D02*
X6676741Y-21110100D01*
X6676741Y-21110100D02*
X6686265Y-21100576D01*
X6686265Y-21100576D02*
X6686265Y-21119624D01*
X6819598Y-20919624D02*
X6838646Y-20919624D01*
X6838646Y-20919624D02*
X6857694Y-20929148D01*
X6857694Y-20929148D02*
X6867217Y-20938671D01*
X6867217Y-20938671D02*
X6876741Y-20957719D01*
X6876741Y-20957719D02*
X6886265Y-20995814D01*
X6886265Y-20995814D02*
X6886265Y-21043433D01*
X6886265Y-21043433D02*
X6876741Y-21081529D01*
X6876741Y-21081529D02*
X6867217Y-21100576D01*
X6867217Y-21100576D02*
X6857694Y-21110100D01*
X6857694Y-21110100D02*
X6838646Y-21119624D01*
X6838646Y-21119624D02*
X6819598Y-21119624D01*
X6819598Y-21119624D02*
X6800551Y-21110100D01*
X6800551Y-21110100D02*
X6791027Y-21100576D01*
X6791027Y-21100576D02*
X6781503Y-21081529D01*
X6781503Y-21081529D02*
X6771979Y-21043433D01*
X6771979Y-21043433D02*
X6771979Y-20995814D01*
X6771979Y-20995814D02*
X6781503Y-20957719D01*
X6781503Y-20957719D02*
X6791027Y-20938671D01*
X6791027Y-20938671D02*
X6800551Y-20929148D01*
X6800551Y-20929148D02*
X6819598Y-20919624D01*
X7000551Y-21005338D02*
X6981503Y-20995814D01*
X6981503Y-20995814D02*
X6971979Y-20986290D01*
X6971979Y-20986290D02*
X6962456Y-20967243D01*
X6962456Y-20967243D02*
X6962456Y-20957719D01*
X6962456Y-20957719D02*
X6971979Y-20938671D01*
X6971979Y-20938671D02*
X6981503Y-20929148D01*
X6981503Y-20929148D02*
X7000551Y-20919624D01*
X7000551Y-20919624D02*
X7038646Y-20919624D01*
X7038646Y-20919624D02*
X7057694Y-20929148D01*
X7057694Y-20929148D02*
X7067217Y-20938671D01*
X7067217Y-20938671D02*
X7076741Y-20957719D01*
X7076741Y-20957719D02*
X7076741Y-20967243D01*
X7076741Y-20967243D02*
X7067217Y-20986290D01*
X7067217Y-20986290D02*
X7057694Y-20995814D01*
X7057694Y-20995814D02*
X7038646Y-21005338D01*
X7038646Y-21005338D02*
X7000551Y-21005338D01*
X7000551Y-21005338D02*
X6981503Y-21014862D01*
X6981503Y-21014862D02*
X6971979Y-21024386D01*
X6971979Y-21024386D02*
X6962456Y-21043433D01*
X6962456Y-21043433D02*
X6962456Y-21081529D01*
X6962456Y-21081529D02*
X6971979Y-21100576D01*
X6971979Y-21100576D02*
X6981503Y-21110100D01*
X6981503Y-21110100D02*
X7000551Y-21119624D01*
X7000551Y-21119624D02*
X7038646Y-21119624D01*
X7038646Y-21119624D02*
X7057694Y-21110100D01*
X7057694Y-21110100D02*
X7067217Y-21100576D01*
X7067217Y-21100576D02*
X7076741Y-21081529D01*
X7076741Y-21081529D02*
X7076741Y-21043433D01*
X7076741Y-21043433D02*
X7067217Y-21024386D01*
X7067217Y-21024386D02*
X7057694Y-21014862D01*
X7057694Y-21014862D02*
X7038646Y-21005338D01*
X7248170Y-20919624D02*
X7210075Y-20919624D01*
X7210075Y-20919624D02*
X7191027Y-20929148D01*
X7191027Y-20929148D02*
X7181503Y-20938671D01*
X7181503Y-20938671D02*
X7162456Y-20967243D01*
X7162456Y-20967243D02*
X7152932Y-21005338D01*
X7152932Y-21005338D02*
X7152932Y-21081529D01*
X7152932Y-21081529D02*
X7162456Y-21100576D01*
X7162456Y-21100576D02*
X7171979Y-21110100D01*
X7171979Y-21110100D02*
X7191027Y-21119624D01*
X7191027Y-21119624D02*
X7229122Y-21119624D01*
X7229122Y-21119624D02*
X7248170Y-21110100D01*
X7248170Y-21110100D02*
X7257694Y-21100576D01*
X7257694Y-21100576D02*
X7267217Y-21081529D01*
X7267217Y-21081529D02*
X7267217Y-21033910D01*
X7267217Y-21033910D02*
X7257694Y-21014862D01*
X7257694Y-21014862D02*
X7248170Y-21005338D01*
X7248170Y-21005338D02*
X7229122Y-20995814D01*
X7229122Y-20995814D02*
X7191027Y-20995814D01*
X7191027Y-20995814D02*
X7171979Y-21005338D01*
X7171979Y-21005338D02*
X7162456Y-21014862D01*
X7162456Y-21014862D02*
X7152932Y-21033910D01*
X7438646Y-20919624D02*
X7400551Y-20919624D01*
X7400551Y-20919624D02*
X7381503Y-20929148D01*
X7381503Y-20929148D02*
X7371979Y-20938671D01*
X7371979Y-20938671D02*
X7352932Y-20967243D01*
X7352932Y-20967243D02*
X7343408Y-21005338D01*
X7343408Y-21005338D02*
X7343408Y-21081529D01*
X7343408Y-21081529D02*
X7352932Y-21100576D01*
X7352932Y-21100576D02*
X7362456Y-21110100D01*
X7362456Y-21110100D02*
X7381503Y-21119624D01*
X7381503Y-21119624D02*
X7419598Y-21119624D01*
X7419598Y-21119624D02*
X7438646Y-21110100D01*
X7438646Y-21110100D02*
X7448170Y-21100576D01*
X7448170Y-21100576D02*
X7457694Y-21081529D01*
X7457694Y-21081529D02*
X7457694Y-21033910D01*
X7457694Y-21033910D02*
X7448170Y-21014862D01*
X7448170Y-21014862D02*
X7438646Y-21005338D01*
X7438646Y-21005338D02*
X7419598Y-20995814D01*
X7419598Y-20995814D02*
X7381503Y-20995814D01*
X7381503Y-20995814D02*
X7362456Y-21005338D01*
X7362456Y-21005338D02*
X7352932Y-21014862D01*
X7352932Y-21014862D02*
X7343408Y-21033910D01*
X7533884Y-20919624D02*
X7533884Y-20957719D01*
X7610075Y-20919624D02*
X7610075Y-20957719D01*
X7905313Y-21195814D02*
X7895789Y-21186290D01*
X7895789Y-21186290D02*
X7876741Y-21157719D01*
X7876741Y-21157719D02*
X7867218Y-21138671D01*
X7867218Y-21138671D02*
X7857694Y-21110100D01*
X7857694Y-21110100D02*
X7848170Y-21062481D01*
X7848170Y-21062481D02*
X7848170Y-21024386D01*
X7848170Y-21024386D02*
X7857694Y-20976767D01*
X7857694Y-20976767D02*
X7867218Y-20948195D01*
X7867218Y-20948195D02*
X7876741Y-20929148D01*
X7876741Y-20929148D02*
X7895789Y-20900576D01*
X7895789Y-20900576D02*
X7905313Y-20891052D01*
X8067218Y-20919624D02*
X8029122Y-20919624D01*
X8029122Y-20919624D02*
X8010075Y-20929148D01*
X8010075Y-20929148D02*
X8000551Y-20938671D01*
X8000551Y-20938671D02*
X7981503Y-20967243D01*
X7981503Y-20967243D02*
X7971979Y-21005338D01*
X7971979Y-21005338D02*
X7971979Y-21081529D01*
X7971979Y-21081529D02*
X7981503Y-21100576D01*
X7981503Y-21100576D02*
X7991027Y-21110100D01*
X7991027Y-21110100D02*
X8010075Y-21119624D01*
X8010075Y-21119624D02*
X8048170Y-21119624D01*
X8048170Y-21119624D02*
X8067218Y-21110100D01*
X8067218Y-21110100D02*
X8076741Y-21100576D01*
X8076741Y-21100576D02*
X8086265Y-21081529D01*
X8086265Y-21081529D02*
X8086265Y-21033910D01*
X8086265Y-21033910D02*
X8076741Y-21014862D01*
X8076741Y-21014862D02*
X8067218Y-21005338D01*
X8067218Y-21005338D02*
X8048170Y-20995814D01*
X8048170Y-20995814D02*
X8010075Y-20995814D01*
X8010075Y-20995814D02*
X7991027Y-21005338D01*
X7991027Y-21005338D02*
X7981503Y-21014862D01*
X7981503Y-21014862D02*
X7971979Y-21033910D01*
X8324360Y-21119624D02*
X8324360Y-20919624D01*
X8410075Y-21119624D02*
X8410075Y-21014862D01*
X8410075Y-21014862D02*
X8400551Y-20995814D01*
X8400551Y-20995814D02*
X8381503Y-20986290D01*
X8381503Y-20986290D02*
X8352932Y-20986290D01*
X8352932Y-20986290D02*
X8333884Y-20995814D01*
X8333884Y-20995814D02*
X8324360Y-21005338D01*
X8533884Y-21119624D02*
X8514837Y-21110100D01*
X8514837Y-21110100D02*
X8505313Y-21100576D01*
X8505313Y-21100576D02*
X8495789Y-21081529D01*
X8495789Y-21081529D02*
X8495789Y-21024386D01*
X8495789Y-21024386D02*
X8505313Y-21005338D01*
X8505313Y-21005338D02*
X8514837Y-20995814D01*
X8514837Y-20995814D02*
X8533884Y-20986290D01*
X8533884Y-20986290D02*
X8562456Y-20986290D01*
X8562456Y-20986290D02*
X8581503Y-20995814D01*
X8581503Y-20995814D02*
X8591027Y-21005338D01*
X8591027Y-21005338D02*
X8600551Y-21024386D01*
X8600551Y-21024386D02*
X8600551Y-21081529D01*
X8600551Y-21081529D02*
X8591027Y-21100576D01*
X8591027Y-21100576D02*
X8581503Y-21110100D01*
X8581503Y-21110100D02*
X8562456Y-21119624D01*
X8562456Y-21119624D02*
X8533884Y-21119624D01*
X8714837Y-21119624D02*
X8695789Y-21110100D01*
X8695789Y-21110100D02*
X8686265Y-21091052D01*
X8686265Y-21091052D02*
X8686265Y-20919624D01*
X8867218Y-21110100D02*
X8848170Y-21119624D01*
X8848170Y-21119624D02*
X8810075Y-21119624D01*
X8810075Y-21119624D02*
X8791027Y-21110100D01*
X8791027Y-21110100D02*
X8781503Y-21091052D01*
X8781503Y-21091052D02*
X8781503Y-21014862D01*
X8781503Y-21014862D02*
X8791027Y-20995814D01*
X8791027Y-20995814D02*
X8810075Y-20986290D01*
X8810075Y-20986290D02*
X8848170Y-20986290D01*
X8848170Y-20986290D02*
X8867218Y-20995814D01*
X8867218Y-20995814D02*
X8876742Y-21014862D01*
X8876742Y-21014862D02*
X8876742Y-21033910D01*
X8876742Y-21033910D02*
X8781503Y-21052957D01*
X8952932Y-21110100D02*
X8971980Y-21119624D01*
X8971980Y-21119624D02*
X9010075Y-21119624D01*
X9010075Y-21119624D02*
X9029123Y-21110100D01*
X9029123Y-21110100D02*
X9038646Y-21091052D01*
X9038646Y-21091052D02*
X9038646Y-21081529D01*
X9038646Y-21081529D02*
X9029123Y-21062481D01*
X9029123Y-21062481D02*
X9010075Y-21052957D01*
X9010075Y-21052957D02*
X8981503Y-21052957D01*
X8981503Y-21052957D02*
X8962456Y-21043433D01*
X8962456Y-21043433D02*
X8952932Y-21024386D01*
X8952932Y-21024386D02*
X8952932Y-21014862D01*
X8952932Y-21014862D02*
X8962456Y-20995814D01*
X8962456Y-20995814D02*
X8981503Y-20986290D01*
X8981503Y-20986290D02*
X9010075Y-20986290D01*
X9010075Y-20986290D02*
X9029123Y-20995814D01*
X9105313Y-21195814D02*
X9114837Y-21186290D01*
X9114837Y-21186290D02*
X9133884Y-21157719D01*
X9133884Y-21157719D02*
X9143408Y-21138671D01*
X9143408Y-21138671D02*
X9152932Y-21110100D01*
X9152932Y-21110100D02*
X9162456Y-21062481D01*
X9162456Y-21062481D02*
X9162456Y-21024386D01*
X9162456Y-21024386D02*
X9152932Y-20976767D01*
X9152932Y-20976767D02*
X9143408Y-20948195D01*
X9143408Y-20948195D02*
X9133884Y-20929148D01*
X9133884Y-20929148D02*
X9114837Y-20900576D01*
X9114837Y-20900576D02*
X9105313Y-20891052D01*
X9467218Y-21195814D02*
X9457694Y-21186290D01*
X9457694Y-21186290D02*
X9438646Y-21157719D01*
X9438646Y-21157719D02*
X9429123Y-21138671D01*
X9429123Y-21138671D02*
X9419599Y-21110100D01*
X9419599Y-21110100D02*
X9410075Y-21062481D01*
X9410075Y-21062481D02*
X9410075Y-21024386D01*
X9410075Y-21024386D02*
X9419599Y-20976767D01*
X9419599Y-20976767D02*
X9429123Y-20948195D01*
X9429123Y-20948195D02*
X9438646Y-20929148D01*
X9438646Y-20929148D02*
X9457694Y-20900576D01*
X9457694Y-20900576D02*
X9467218Y-20891052D01*
X9543408Y-20986290D02*
X9543408Y-21119624D01*
X9543408Y-21005338D02*
X9552932Y-20995814D01*
X9552932Y-20995814D02*
X9571980Y-20986290D01*
X9571980Y-20986290D02*
X9600551Y-20986290D01*
X9600551Y-20986290D02*
X9619599Y-20995814D01*
X9619599Y-20995814D02*
X9629123Y-21014862D01*
X9629123Y-21014862D02*
X9629123Y-21119624D01*
X9752932Y-21119624D02*
X9733884Y-21110100D01*
X9733884Y-21110100D02*
X9724361Y-21100576D01*
X9724361Y-21100576D02*
X9714837Y-21081529D01*
X9714837Y-21081529D02*
X9714837Y-21024386D01*
X9714837Y-21024386D02*
X9724361Y-21005338D01*
X9724361Y-21005338D02*
X9733884Y-20995814D01*
X9733884Y-20995814D02*
X9752932Y-20986290D01*
X9752932Y-20986290D02*
X9781504Y-20986290D01*
X9781504Y-20986290D02*
X9800551Y-20995814D01*
X9800551Y-20995814D02*
X9810075Y-21005338D01*
X9810075Y-21005338D02*
X9819599Y-21024386D01*
X9819599Y-21024386D02*
X9819599Y-21081529D01*
X9819599Y-21081529D02*
X9810075Y-21100576D01*
X9810075Y-21100576D02*
X9800551Y-21110100D01*
X9800551Y-21110100D02*
X9781504Y-21119624D01*
X9781504Y-21119624D02*
X9752932Y-21119624D01*
X9876742Y-20986290D02*
X9952932Y-20986290D01*
X9905313Y-20919624D02*
X9905313Y-21091052D01*
X9905313Y-21091052D02*
X9914837Y-21110100D01*
X9914837Y-21110100D02*
X9933884Y-21119624D01*
X9933884Y-21119624D02*
X9952932Y-21119624D01*
X10171980Y-20986290D02*
X10171980Y-21186290D01*
X10171980Y-20995814D02*
X10191027Y-20986290D01*
X10191027Y-20986290D02*
X10229123Y-20986290D01*
X10229123Y-20986290D02*
X10248170Y-20995814D01*
X10248170Y-20995814D02*
X10257694Y-21005338D01*
X10257694Y-21005338D02*
X10267218Y-21024386D01*
X10267218Y-21024386D02*
X10267218Y-21081529D01*
X10267218Y-21081529D02*
X10257694Y-21100576D01*
X10257694Y-21100576D02*
X10248170Y-21110100D01*
X10248170Y-21110100D02*
X10229123Y-21119624D01*
X10229123Y-21119624D02*
X10191027Y-21119624D01*
X10191027Y-21119624D02*
X10171980Y-21110100D01*
X10381504Y-21119624D02*
X10362456Y-21110100D01*
X10362456Y-21110100D02*
X10352932Y-21091052D01*
X10352932Y-21091052D02*
X10352932Y-20919624D01*
X10543408Y-21119624D02*
X10543408Y-21014862D01*
X10543408Y-21014862D02*
X10533885Y-20995814D01*
X10533885Y-20995814D02*
X10514837Y-20986290D01*
X10514837Y-20986290D02*
X10476742Y-20986290D01*
X10476742Y-20986290D02*
X10457694Y-20995814D01*
X10543408Y-21110100D02*
X10524361Y-21119624D01*
X10524361Y-21119624D02*
X10476742Y-21119624D01*
X10476742Y-21119624D02*
X10457694Y-21110100D01*
X10457694Y-21110100D02*
X10448170Y-21091052D01*
X10448170Y-21091052D02*
X10448170Y-21072005D01*
X10448170Y-21072005D02*
X10457694Y-21052957D01*
X10457694Y-21052957D02*
X10476742Y-21043433D01*
X10476742Y-21043433D02*
X10524361Y-21043433D01*
X10524361Y-21043433D02*
X10543408Y-21033910D01*
X10610075Y-20986290D02*
X10686265Y-20986290D01*
X10638646Y-20919624D02*
X10638646Y-21091052D01*
X10638646Y-21091052D02*
X10648170Y-21110100D01*
X10648170Y-21110100D02*
X10667218Y-21119624D01*
X10667218Y-21119624D02*
X10686265Y-21119624D01*
X10829123Y-21110100D02*
X10810075Y-21119624D01*
X10810075Y-21119624D02*
X10771980Y-21119624D01*
X10771980Y-21119624D02*
X10752932Y-21110100D01*
X10752932Y-21110100D02*
X10743408Y-21091052D01*
X10743408Y-21091052D02*
X10743408Y-21014862D01*
X10743408Y-21014862D02*
X10752932Y-20995814D01*
X10752932Y-20995814D02*
X10771980Y-20986290D01*
X10771980Y-20986290D02*
X10810075Y-20986290D01*
X10810075Y-20986290D02*
X10829123Y-20995814D01*
X10829123Y-20995814D02*
X10838646Y-21014862D01*
X10838646Y-21014862D02*
X10838646Y-21033910D01*
X10838646Y-21033910D02*
X10743408Y-21052957D01*
X11010075Y-21119624D02*
X11010075Y-20919624D01*
X11010075Y-21110100D02*
X10991027Y-21119624D01*
X10991027Y-21119624D02*
X10952932Y-21119624D01*
X10952932Y-21119624D02*
X10933885Y-21110100D01*
X10933885Y-21110100D02*
X10924361Y-21100576D01*
X10924361Y-21100576D02*
X10914837Y-21081529D01*
X10914837Y-21081529D02*
X10914837Y-21024386D01*
X10914837Y-21024386D02*
X10924361Y-21005338D01*
X10924361Y-21005338D02*
X10933885Y-20995814D01*
X10933885Y-20995814D02*
X10952932Y-20986290D01*
X10952932Y-20986290D02*
X10991027Y-20986290D01*
X10991027Y-20986290D02*
X11010075Y-20995814D01*
X11086266Y-21195814D02*
X11095789Y-21186290D01*
X11095789Y-21186290D02*
X11114837Y-21157719D01*
X11114837Y-21157719D02*
X11124361Y-21138671D01*
X11124361Y-21138671D02*
X11133885Y-21110100D01*
X11133885Y-21110100D02*
X11143408Y-21062481D01*
X11143408Y-21062481D02*
X11143408Y-21024386D01*
X11143408Y-21024386D02*
X11133885Y-20976767D01*
X11133885Y-20976767D02*
X11124361Y-20948195D01*
X11124361Y-20948195D02*
X11114837Y-20929148D01*
X11114837Y-20929148D02*
X11095789Y-20900576D01*
X11095789Y-20900576D02*
X11086266Y-20891052D01*
X4300961Y-21418851D02*
X4300961Y-21277429D01*
X4159539Y-21277429D01*
X4159539Y-21418851D01*
X4300961Y-21418851D01*
X4571979Y-21239624D02*
X4695789Y-21239624D01*
X4695789Y-21239624D02*
X4629122Y-21315814D01*
X4629122Y-21315814D02*
X4657694Y-21315814D01*
X4657694Y-21315814D02*
X4676741Y-21325338D01*
X4676741Y-21325338D02*
X4686265Y-21334862D01*
X4686265Y-21334862D02*
X4695789Y-21353910D01*
X4695789Y-21353910D02*
X4695789Y-21401529D01*
X4695789Y-21401529D02*
X4686265Y-21420576D01*
X4686265Y-21420576D02*
X4676741Y-21430100D01*
X4676741Y-21430100D02*
X4657694Y-21439624D01*
X4657694Y-21439624D02*
X4600551Y-21439624D01*
X4600551Y-21439624D02*
X4581503Y-21430100D01*
X4581503Y-21430100D02*
X4571979Y-21420576D01*
X4781503Y-21420576D02*
X4791027Y-21430100D01*
X4791027Y-21430100D02*
X4781503Y-21439624D01*
X4781503Y-21439624D02*
X4771979Y-21430100D01*
X4771979Y-21430100D02*
X4781503Y-21420576D01*
X4781503Y-21420576D02*
X4781503Y-21439624D01*
X4914836Y-21239624D02*
X4933884Y-21239624D01*
X4933884Y-21239624D02*
X4952932Y-21249148D01*
X4952932Y-21249148D02*
X4962455Y-21258671D01*
X4962455Y-21258671D02*
X4971979Y-21277719D01*
X4971979Y-21277719D02*
X4981503Y-21315814D01*
X4981503Y-21315814D02*
X4981503Y-21363433D01*
X4981503Y-21363433D02*
X4971979Y-21401529D01*
X4971979Y-21401529D02*
X4962455Y-21420576D01*
X4962455Y-21420576D02*
X4952932Y-21430100D01*
X4952932Y-21430100D02*
X4933884Y-21439624D01*
X4933884Y-21439624D02*
X4914836Y-21439624D01*
X4914836Y-21439624D02*
X4895789Y-21430100D01*
X4895789Y-21430100D02*
X4886265Y-21420576D01*
X4886265Y-21420576D02*
X4876741Y-21401529D01*
X4876741Y-21401529D02*
X4867217Y-21363433D01*
X4867217Y-21363433D02*
X4867217Y-21315814D01*
X4867217Y-21315814D02*
X4876741Y-21277719D01*
X4876741Y-21277719D02*
X4886265Y-21258671D01*
X4886265Y-21258671D02*
X4895789Y-21249148D01*
X4895789Y-21249148D02*
X4914836Y-21239624D01*
X5105313Y-21239624D02*
X5124360Y-21239624D01*
X5124360Y-21239624D02*
X5143408Y-21249148D01*
X5143408Y-21249148D02*
X5152932Y-21258671D01*
X5152932Y-21258671D02*
X5162455Y-21277719D01*
X5162455Y-21277719D02*
X5171979Y-21315814D01*
X5171979Y-21315814D02*
X5171979Y-21363433D01*
X5171979Y-21363433D02*
X5162455Y-21401529D01*
X5162455Y-21401529D02*
X5152932Y-21420576D01*
X5152932Y-21420576D02*
X5143408Y-21430100D01*
X5143408Y-21430100D02*
X5124360Y-21439624D01*
X5124360Y-21439624D02*
X5105313Y-21439624D01*
X5105313Y-21439624D02*
X5086265Y-21430100D01*
X5086265Y-21430100D02*
X5076741Y-21420576D01*
X5076741Y-21420576D02*
X5067217Y-21401529D01*
X5067217Y-21401529D02*
X5057694Y-21363433D01*
X5057694Y-21363433D02*
X5057694Y-21315814D01*
X5057694Y-21315814D02*
X5067217Y-21277719D01*
X5067217Y-21277719D02*
X5076741Y-21258671D01*
X5076741Y-21258671D02*
X5086265Y-21249148D01*
X5086265Y-21249148D02*
X5105313Y-21239624D01*
X5295789Y-21239624D02*
X5314836Y-21239624D01*
X5314836Y-21239624D02*
X5333884Y-21249148D01*
X5333884Y-21249148D02*
X5343408Y-21258671D01*
X5343408Y-21258671D02*
X5352932Y-21277719D01*
X5352932Y-21277719D02*
X5362455Y-21315814D01*
X5362455Y-21315814D02*
X5362455Y-21363433D01*
X5362455Y-21363433D02*
X5352932Y-21401529D01*
X5352932Y-21401529D02*
X5343408Y-21420576D01*
X5343408Y-21420576D02*
X5333884Y-21430100D01*
X5333884Y-21430100D02*
X5314836Y-21439624D01*
X5314836Y-21439624D02*
X5295789Y-21439624D01*
X5295789Y-21439624D02*
X5276741Y-21430100D01*
X5276741Y-21430100D02*
X5267217Y-21420576D01*
X5267217Y-21420576D02*
X5257694Y-21401529D01*
X5257694Y-21401529D02*
X5248170Y-21363433D01*
X5248170Y-21363433D02*
X5248170Y-21315814D01*
X5248170Y-21315814D02*
X5257694Y-21277719D01*
X5257694Y-21277719D02*
X5267217Y-21258671D01*
X5267217Y-21258671D02*
X5276741Y-21249148D01*
X5276741Y-21249148D02*
X5295789Y-21239624D01*
X5448170Y-21439624D02*
X5448170Y-21306290D01*
X5448170Y-21325338D02*
X5457694Y-21315814D01*
X5457694Y-21315814D02*
X5476741Y-21306290D01*
X5476741Y-21306290D02*
X5505313Y-21306290D01*
X5505313Y-21306290D02*
X5524360Y-21315814D01*
X5524360Y-21315814D02*
X5533884Y-21334862D01*
X5533884Y-21334862D02*
X5533884Y-21439624D01*
X5533884Y-21334862D02*
X5543408Y-21315814D01*
X5543408Y-21315814D02*
X5562455Y-21306290D01*
X5562455Y-21306290D02*
X5591027Y-21306290D01*
X5591027Y-21306290D02*
X5610074Y-21315814D01*
X5610074Y-21315814D02*
X5619598Y-21334862D01*
X5619598Y-21334862D02*
X5619598Y-21439624D01*
X5714836Y-21439624D02*
X5714836Y-21306290D01*
X5714836Y-21325338D02*
X5724360Y-21315814D01*
X5724360Y-21315814D02*
X5743408Y-21306290D01*
X5743408Y-21306290D02*
X5771979Y-21306290D01*
X5771979Y-21306290D02*
X5791027Y-21315814D01*
X5791027Y-21315814D02*
X5800551Y-21334862D01*
X5800551Y-21334862D02*
X5800551Y-21439624D01*
X5800551Y-21334862D02*
X5810074Y-21315814D01*
X5810074Y-21315814D02*
X5829122Y-21306290D01*
X5829122Y-21306290D02*
X5857693Y-21306290D01*
X5857693Y-21306290D02*
X5876741Y-21315814D01*
X5876741Y-21315814D02*
X5886265Y-21334862D01*
X5886265Y-21334862D02*
X5886265Y-21439624D01*
X6276741Y-21230100D02*
X6105313Y-21487243D01*
X6533884Y-21239624D02*
X6552932Y-21239624D01*
X6552932Y-21239624D02*
X6571979Y-21249148D01*
X6571979Y-21249148D02*
X6581503Y-21258671D01*
X6581503Y-21258671D02*
X6591027Y-21277719D01*
X6591027Y-21277719D02*
X6600551Y-21315814D01*
X6600551Y-21315814D02*
X6600551Y-21363433D01*
X6600551Y-21363433D02*
X6591027Y-21401529D01*
X6591027Y-21401529D02*
X6581503Y-21420576D01*
X6581503Y-21420576D02*
X6571979Y-21430100D01*
X6571979Y-21430100D02*
X6552932Y-21439624D01*
X6552932Y-21439624D02*
X6533884Y-21439624D01*
X6533884Y-21439624D02*
X6514836Y-21430100D01*
X6514836Y-21430100D02*
X6505313Y-21420576D01*
X6505313Y-21420576D02*
X6495789Y-21401529D01*
X6495789Y-21401529D02*
X6486265Y-21363433D01*
X6486265Y-21363433D02*
X6486265Y-21315814D01*
X6486265Y-21315814D02*
X6495789Y-21277719D01*
X6495789Y-21277719D02*
X6505313Y-21258671D01*
X6505313Y-21258671D02*
X6514836Y-21249148D01*
X6514836Y-21249148D02*
X6533884Y-21239624D01*
X6686265Y-21420576D02*
X6695789Y-21430100D01*
X6695789Y-21430100D02*
X6686265Y-21439624D01*
X6686265Y-21439624D02*
X6676741Y-21430100D01*
X6676741Y-21430100D02*
X6686265Y-21420576D01*
X6686265Y-21420576D02*
X6686265Y-21439624D01*
X6886265Y-21439624D02*
X6771979Y-21439624D01*
X6829122Y-21439624D02*
X6829122Y-21239624D01*
X6829122Y-21239624D02*
X6810075Y-21268195D01*
X6810075Y-21268195D02*
X6791027Y-21287243D01*
X6791027Y-21287243D02*
X6771979Y-21296767D01*
X7076741Y-21439624D02*
X6962456Y-21439624D01*
X7019598Y-21439624D02*
X7019598Y-21239624D01*
X7019598Y-21239624D02*
X7000551Y-21268195D01*
X7000551Y-21268195D02*
X6981503Y-21287243D01*
X6981503Y-21287243D02*
X6962456Y-21296767D01*
X7191027Y-21325338D02*
X7171979Y-21315814D01*
X7171979Y-21315814D02*
X7162456Y-21306290D01*
X7162456Y-21306290D02*
X7152932Y-21287243D01*
X7152932Y-21287243D02*
X7152932Y-21277719D01*
X7152932Y-21277719D02*
X7162456Y-21258671D01*
X7162456Y-21258671D02*
X7171979Y-21249148D01*
X7171979Y-21249148D02*
X7191027Y-21239624D01*
X7191027Y-21239624D02*
X7229122Y-21239624D01*
X7229122Y-21239624D02*
X7248170Y-21249148D01*
X7248170Y-21249148D02*
X7257694Y-21258671D01*
X7257694Y-21258671D02*
X7267217Y-21277719D01*
X7267217Y-21277719D02*
X7267217Y-21287243D01*
X7267217Y-21287243D02*
X7257694Y-21306290D01*
X7257694Y-21306290D02*
X7248170Y-21315814D01*
X7248170Y-21315814D02*
X7229122Y-21325338D01*
X7229122Y-21325338D02*
X7191027Y-21325338D01*
X7191027Y-21325338D02*
X7171979Y-21334862D01*
X7171979Y-21334862D02*
X7162456Y-21344386D01*
X7162456Y-21344386D02*
X7152932Y-21363433D01*
X7152932Y-21363433D02*
X7152932Y-21401529D01*
X7152932Y-21401529D02*
X7162456Y-21420576D01*
X7162456Y-21420576D02*
X7171979Y-21430100D01*
X7171979Y-21430100D02*
X7191027Y-21439624D01*
X7191027Y-21439624D02*
X7229122Y-21439624D01*
X7229122Y-21439624D02*
X7248170Y-21430100D01*
X7248170Y-21430100D02*
X7257694Y-21420576D01*
X7257694Y-21420576D02*
X7267217Y-21401529D01*
X7267217Y-21401529D02*
X7267217Y-21363433D01*
X7267217Y-21363433D02*
X7257694Y-21344386D01*
X7257694Y-21344386D02*
X7248170Y-21334862D01*
X7248170Y-21334862D02*
X7229122Y-21325338D01*
X7457694Y-21439624D02*
X7343408Y-21439624D01*
X7400551Y-21439624D02*
X7400551Y-21239624D01*
X7400551Y-21239624D02*
X7381503Y-21268195D01*
X7381503Y-21268195D02*
X7362456Y-21287243D01*
X7362456Y-21287243D02*
X7343408Y-21296767D01*
X7533884Y-21239624D02*
X7533884Y-21277719D01*
X7610075Y-21239624D02*
X7610075Y-21277719D01*
X7905313Y-21515814D02*
X7895789Y-21506290D01*
X7895789Y-21506290D02*
X7876741Y-21477719D01*
X7876741Y-21477719D02*
X7867218Y-21458671D01*
X7867218Y-21458671D02*
X7857694Y-21430100D01*
X7857694Y-21430100D02*
X7848170Y-21382481D01*
X7848170Y-21382481D02*
X7848170Y-21344386D01*
X7848170Y-21344386D02*
X7857694Y-21296767D01*
X7857694Y-21296767D02*
X7867218Y-21268195D01*
X7867218Y-21268195D02*
X7876741Y-21249148D01*
X7876741Y-21249148D02*
X7895789Y-21220576D01*
X7895789Y-21220576D02*
X7905313Y-21211052D01*
X8067218Y-21306290D02*
X8067218Y-21439624D01*
X8019598Y-21230100D02*
X7971979Y-21372957D01*
X7971979Y-21372957D02*
X8095789Y-21372957D01*
X8257694Y-21306290D02*
X8257694Y-21439624D01*
X8210075Y-21230100D02*
X8162456Y-21372957D01*
X8162456Y-21372957D02*
X8286265Y-21372957D01*
X8514837Y-21439624D02*
X8514837Y-21239624D01*
X8600551Y-21439624D02*
X8600551Y-21334862D01*
X8600551Y-21334862D02*
X8591027Y-21315814D01*
X8591027Y-21315814D02*
X8571980Y-21306290D01*
X8571980Y-21306290D02*
X8543408Y-21306290D01*
X8543408Y-21306290D02*
X8524361Y-21315814D01*
X8524361Y-21315814D02*
X8514837Y-21325338D01*
X8724361Y-21439624D02*
X8705313Y-21430100D01*
X8705313Y-21430100D02*
X8695789Y-21420576D01*
X8695789Y-21420576D02*
X8686265Y-21401529D01*
X8686265Y-21401529D02*
X8686265Y-21344386D01*
X8686265Y-21344386D02*
X8695789Y-21325338D01*
X8695789Y-21325338D02*
X8705313Y-21315814D01*
X8705313Y-21315814D02*
X8724361Y-21306290D01*
X8724361Y-21306290D02*
X8752932Y-21306290D01*
X8752932Y-21306290D02*
X8771980Y-21315814D01*
X8771980Y-21315814D02*
X8781503Y-21325338D01*
X8781503Y-21325338D02*
X8791027Y-21344386D01*
X8791027Y-21344386D02*
X8791027Y-21401529D01*
X8791027Y-21401529D02*
X8781503Y-21420576D01*
X8781503Y-21420576D02*
X8771980Y-21430100D01*
X8771980Y-21430100D02*
X8752932Y-21439624D01*
X8752932Y-21439624D02*
X8724361Y-21439624D01*
X8905313Y-21439624D02*
X8886265Y-21430100D01*
X8886265Y-21430100D02*
X8876742Y-21411052D01*
X8876742Y-21411052D02*
X8876742Y-21239624D01*
X9057694Y-21430100D02*
X9038646Y-21439624D01*
X9038646Y-21439624D02*
X9000551Y-21439624D01*
X9000551Y-21439624D02*
X8981503Y-21430100D01*
X8981503Y-21430100D02*
X8971980Y-21411052D01*
X8971980Y-21411052D02*
X8971980Y-21334862D01*
X8971980Y-21334862D02*
X8981503Y-21315814D01*
X8981503Y-21315814D02*
X9000551Y-21306290D01*
X9000551Y-21306290D02*
X9038646Y-21306290D01*
X9038646Y-21306290D02*
X9057694Y-21315814D01*
X9057694Y-21315814D02*
X9067218Y-21334862D01*
X9067218Y-21334862D02*
X9067218Y-21353910D01*
X9067218Y-21353910D02*
X8971980Y-21372957D01*
X9143408Y-21430100D02*
X9162456Y-21439624D01*
X9162456Y-21439624D02*
X9200551Y-21439624D01*
X9200551Y-21439624D02*
X9219599Y-21430100D01*
X9219599Y-21430100D02*
X9229123Y-21411052D01*
X9229123Y-21411052D02*
X9229123Y-21401529D01*
X9229123Y-21401529D02*
X9219599Y-21382481D01*
X9219599Y-21382481D02*
X9200551Y-21372957D01*
X9200551Y-21372957D02*
X9171980Y-21372957D01*
X9171980Y-21372957D02*
X9152932Y-21363433D01*
X9152932Y-21363433D02*
X9143408Y-21344386D01*
X9143408Y-21344386D02*
X9143408Y-21334862D01*
X9143408Y-21334862D02*
X9152932Y-21315814D01*
X9152932Y-21315814D02*
X9171980Y-21306290D01*
X9171980Y-21306290D02*
X9200551Y-21306290D01*
X9200551Y-21306290D02*
X9219599Y-21315814D01*
X9295789Y-21515814D02*
X9305313Y-21506290D01*
X9305313Y-21506290D02*
X9324361Y-21477719D01*
X9324361Y-21477719D02*
X9333884Y-21458671D01*
X9333884Y-21458671D02*
X9343408Y-21430100D01*
X9343408Y-21430100D02*
X9352932Y-21382481D01*
X9352932Y-21382481D02*
X9352932Y-21344386D01*
X9352932Y-21344386D02*
X9343408Y-21296767D01*
X9343408Y-21296767D02*
X9333884Y-21268195D01*
X9333884Y-21268195D02*
X9324361Y-21249148D01*
X9324361Y-21249148D02*
X9305313Y-21220576D01*
X9305313Y-21220576D02*
X9295789Y-21211052D01*
X9657694Y-21515814D02*
X9648170Y-21506290D01*
X9648170Y-21506290D02*
X9629123Y-21477719D01*
X9629123Y-21477719D02*
X9619599Y-21458671D01*
X9619599Y-21458671D02*
X9610075Y-21430100D01*
X9610075Y-21430100D02*
X9600551Y-21382481D01*
X9600551Y-21382481D02*
X9600551Y-21344386D01*
X9600551Y-21344386D02*
X9610075Y-21296767D01*
X9610075Y-21296767D02*
X9619599Y-21268195D01*
X9619599Y-21268195D02*
X9629123Y-21249148D01*
X9629123Y-21249148D02*
X9648170Y-21220576D01*
X9648170Y-21220576D02*
X9657694Y-21211052D01*
X9733884Y-21306290D02*
X9733884Y-21439624D01*
X9733884Y-21325338D02*
X9743408Y-21315814D01*
X9743408Y-21315814D02*
X9762456Y-21306290D01*
X9762456Y-21306290D02*
X9791027Y-21306290D01*
X9791027Y-21306290D02*
X9810075Y-21315814D01*
X9810075Y-21315814D02*
X9819599Y-21334862D01*
X9819599Y-21334862D02*
X9819599Y-21439624D01*
X9943408Y-21439624D02*
X9924361Y-21430100D01*
X9924361Y-21430100D02*
X9914837Y-21420576D01*
X9914837Y-21420576D02*
X9905313Y-21401529D01*
X9905313Y-21401529D02*
X9905313Y-21344386D01*
X9905313Y-21344386D02*
X9914837Y-21325338D01*
X9914837Y-21325338D02*
X9924361Y-21315814D01*
X9924361Y-21315814D02*
X9943408Y-21306290D01*
X9943408Y-21306290D02*
X9971980Y-21306290D01*
X9971980Y-21306290D02*
X9991027Y-21315814D01*
X9991027Y-21315814D02*
X10000551Y-21325338D01*
X10000551Y-21325338D02*
X10010075Y-21344386D01*
X10010075Y-21344386D02*
X10010075Y-21401529D01*
X10010075Y-21401529D02*
X10000551Y-21420576D01*
X10000551Y-21420576D02*
X9991027Y-21430100D01*
X9991027Y-21430100D02*
X9971980Y-21439624D01*
X9971980Y-21439624D02*
X9943408Y-21439624D01*
X10067218Y-21306290D02*
X10143408Y-21306290D01*
X10095789Y-21239624D02*
X10095789Y-21411052D01*
X10095789Y-21411052D02*
X10105313Y-21430100D01*
X10105313Y-21430100D02*
X10124361Y-21439624D01*
X10124361Y-21439624D02*
X10143408Y-21439624D01*
X10362456Y-21306290D02*
X10362456Y-21506290D01*
X10362456Y-21315814D02*
X10381504Y-21306290D01*
X10381504Y-21306290D02*
X10419599Y-21306290D01*
X10419599Y-21306290D02*
X10438646Y-21315814D01*
X10438646Y-21315814D02*
X10448170Y-21325338D01*
X10448170Y-21325338D02*
X10457694Y-21344386D01*
X10457694Y-21344386D02*
X10457694Y-21401529D01*
X10457694Y-21401529D02*
X10448170Y-21420576D01*
X10448170Y-21420576D02*
X10438646Y-21430100D01*
X10438646Y-21430100D02*
X10419599Y-21439624D01*
X10419599Y-21439624D02*
X10381504Y-21439624D01*
X10381504Y-21439624D02*
X10362456Y-21430100D01*
X10571980Y-21439624D02*
X10552932Y-21430100D01*
X10552932Y-21430100D02*
X10543408Y-21411052D01*
X10543408Y-21411052D02*
X10543408Y-21239624D01*
X10733885Y-21439624D02*
X10733885Y-21334862D01*
X10733885Y-21334862D02*
X10724361Y-21315814D01*
X10724361Y-21315814D02*
X10705313Y-21306290D01*
X10705313Y-21306290D02*
X10667218Y-21306290D01*
X10667218Y-21306290D02*
X10648170Y-21315814D01*
X10733885Y-21430100D02*
X10714837Y-21439624D01*
X10714837Y-21439624D02*
X10667218Y-21439624D01*
X10667218Y-21439624D02*
X10648170Y-21430100D01*
X10648170Y-21430100D02*
X10638646Y-21411052D01*
X10638646Y-21411052D02*
X10638646Y-21392005D01*
X10638646Y-21392005D02*
X10648170Y-21372957D01*
X10648170Y-21372957D02*
X10667218Y-21363433D01*
X10667218Y-21363433D02*
X10714837Y-21363433D01*
X10714837Y-21363433D02*
X10733885Y-21353910D01*
X10800551Y-21306290D02*
X10876742Y-21306290D01*
X10829123Y-21239624D02*
X10829123Y-21411052D01*
X10829123Y-21411052D02*
X10838646Y-21430100D01*
X10838646Y-21430100D02*
X10857694Y-21439624D01*
X10857694Y-21439624D02*
X10876742Y-21439624D01*
X11019599Y-21430100D02*
X11000551Y-21439624D01*
X11000551Y-21439624D02*
X10962456Y-21439624D01*
X10962456Y-21439624D02*
X10943408Y-21430100D01*
X10943408Y-21430100D02*
X10933885Y-21411052D01*
X10933885Y-21411052D02*
X10933885Y-21334862D01*
X10933885Y-21334862D02*
X10943408Y-21315814D01*
X10943408Y-21315814D02*
X10962456Y-21306290D01*
X10962456Y-21306290D02*
X11000551Y-21306290D01*
X11000551Y-21306290D02*
X11019599Y-21315814D01*
X11019599Y-21315814D02*
X11029123Y-21334862D01*
X11029123Y-21334862D02*
X11029123Y-21353910D01*
X11029123Y-21353910D02*
X10933885Y-21372957D01*
X11200551Y-21439624D02*
X11200551Y-21239624D01*
X11200551Y-21430100D02*
X11181504Y-21439624D01*
X11181504Y-21439624D02*
X11143408Y-21439624D01*
X11143408Y-21439624D02*
X11124361Y-21430100D01*
X11124361Y-21430100D02*
X11114837Y-21420576D01*
X11114837Y-21420576D02*
X11105313Y-21401529D01*
X11105313Y-21401529D02*
X11105313Y-21344386D01*
X11105313Y-21344386D02*
X11114837Y-21325338D01*
X11114837Y-21325338D02*
X11124361Y-21315814D01*
X11124361Y-21315814D02*
X11143408Y-21306290D01*
X11143408Y-21306290D02*
X11181504Y-21306290D01*
X11181504Y-21306290D02*
X11200551Y-21315814D01*
X11276742Y-21515814D02*
X11286265Y-21506290D01*
X11286265Y-21506290D02*
X11305313Y-21477719D01*
X11305313Y-21477719D02*
X11314837Y-21458671D01*
X11314837Y-21458671D02*
X11324361Y-21430100D01*
X11324361Y-21430100D02*
X11333884Y-21382481D01*
X11333884Y-21382481D02*
X11333884Y-21344386D01*
X11333884Y-21344386D02*
X11324361Y-21296767D01*
X11324361Y-21296767D02*
X11314837Y-21268195D01*
X11314837Y-21268195D02*
X11305313Y-21249148D01*
X11305313Y-21249148D02*
X11286265Y-21220576D01*
X11286265Y-21220576D02*
X11276742Y-21211052D01*
X4230250Y-21768140D02*
X4330250Y-21668140D01*
X4230250Y-21568140D01*
X4130250Y-21668140D01*
X4230250Y-21768140D01*
X4571979Y-21559624D02*
X4695789Y-21559624D01*
X4695789Y-21559624D02*
X4629122Y-21635814D01*
X4629122Y-21635814D02*
X4657694Y-21635814D01*
X4657694Y-21635814D02*
X4676741Y-21645338D01*
X4676741Y-21645338D02*
X4686265Y-21654862D01*
X4686265Y-21654862D02*
X4695789Y-21673910D01*
X4695789Y-21673910D02*
X4695789Y-21721529D01*
X4695789Y-21721529D02*
X4686265Y-21740576D01*
X4686265Y-21740576D02*
X4676741Y-21750100D01*
X4676741Y-21750100D02*
X4657694Y-21759624D01*
X4657694Y-21759624D02*
X4600551Y-21759624D01*
X4600551Y-21759624D02*
X4581503Y-21750100D01*
X4581503Y-21750100D02*
X4571979Y-21740576D01*
X4781503Y-21740576D02*
X4791027Y-21750100D01*
X4791027Y-21750100D02*
X4781503Y-21759624D01*
X4781503Y-21759624D02*
X4771979Y-21750100D01*
X4771979Y-21750100D02*
X4781503Y-21740576D01*
X4781503Y-21740576D02*
X4781503Y-21759624D01*
X4886265Y-21759624D02*
X4924360Y-21759624D01*
X4924360Y-21759624D02*
X4943408Y-21750100D01*
X4943408Y-21750100D02*
X4952932Y-21740576D01*
X4952932Y-21740576D02*
X4971979Y-21712005D01*
X4971979Y-21712005D02*
X4981503Y-21673910D01*
X4981503Y-21673910D02*
X4981503Y-21597719D01*
X4981503Y-21597719D02*
X4971979Y-21578671D01*
X4971979Y-21578671D02*
X4962455Y-21569148D01*
X4962455Y-21569148D02*
X4943408Y-21559624D01*
X4943408Y-21559624D02*
X4905313Y-21559624D01*
X4905313Y-21559624D02*
X4886265Y-21569148D01*
X4886265Y-21569148D02*
X4876741Y-21578671D01*
X4876741Y-21578671D02*
X4867217Y-21597719D01*
X4867217Y-21597719D02*
X4867217Y-21645338D01*
X4867217Y-21645338D02*
X4876741Y-21664386D01*
X4876741Y-21664386D02*
X4886265Y-21673910D01*
X4886265Y-21673910D02*
X4905313Y-21683433D01*
X4905313Y-21683433D02*
X4943408Y-21683433D01*
X4943408Y-21683433D02*
X4962455Y-21673910D01*
X4962455Y-21673910D02*
X4971979Y-21664386D01*
X4971979Y-21664386D02*
X4981503Y-21645338D01*
X5095789Y-21645338D02*
X5076741Y-21635814D01*
X5076741Y-21635814D02*
X5067217Y-21626290D01*
X5067217Y-21626290D02*
X5057694Y-21607243D01*
X5057694Y-21607243D02*
X5057694Y-21597719D01*
X5057694Y-21597719D02*
X5067217Y-21578671D01*
X5067217Y-21578671D02*
X5076741Y-21569148D01*
X5076741Y-21569148D02*
X5095789Y-21559624D01*
X5095789Y-21559624D02*
X5133884Y-21559624D01*
X5133884Y-21559624D02*
X5152932Y-21569148D01*
X5152932Y-21569148D02*
X5162455Y-21578671D01*
X5162455Y-21578671D02*
X5171979Y-21597719D01*
X5171979Y-21597719D02*
X5171979Y-21607243D01*
X5171979Y-21607243D02*
X5162455Y-21626290D01*
X5162455Y-21626290D02*
X5152932Y-21635814D01*
X5152932Y-21635814D02*
X5133884Y-21645338D01*
X5133884Y-21645338D02*
X5095789Y-21645338D01*
X5095789Y-21645338D02*
X5076741Y-21654862D01*
X5076741Y-21654862D02*
X5067217Y-21664386D01*
X5067217Y-21664386D02*
X5057694Y-21683433D01*
X5057694Y-21683433D02*
X5057694Y-21721529D01*
X5057694Y-21721529D02*
X5067217Y-21740576D01*
X5067217Y-21740576D02*
X5076741Y-21750100D01*
X5076741Y-21750100D02*
X5095789Y-21759624D01*
X5095789Y-21759624D02*
X5133884Y-21759624D01*
X5133884Y-21759624D02*
X5152932Y-21750100D01*
X5152932Y-21750100D02*
X5162455Y-21740576D01*
X5162455Y-21740576D02*
X5171979Y-21721529D01*
X5171979Y-21721529D02*
X5171979Y-21683433D01*
X5171979Y-21683433D02*
X5162455Y-21664386D01*
X5162455Y-21664386D02*
X5152932Y-21654862D01*
X5152932Y-21654862D02*
X5133884Y-21645338D01*
X5286265Y-21645338D02*
X5267217Y-21635814D01*
X5267217Y-21635814D02*
X5257694Y-21626290D01*
X5257694Y-21626290D02*
X5248170Y-21607243D01*
X5248170Y-21607243D02*
X5248170Y-21597719D01*
X5248170Y-21597719D02*
X5257694Y-21578671D01*
X5257694Y-21578671D02*
X5267217Y-21569148D01*
X5267217Y-21569148D02*
X5286265Y-21559624D01*
X5286265Y-21559624D02*
X5324360Y-21559624D01*
X5324360Y-21559624D02*
X5343408Y-21569148D01*
X5343408Y-21569148D02*
X5352932Y-21578671D01*
X5352932Y-21578671D02*
X5362455Y-21597719D01*
X5362455Y-21597719D02*
X5362455Y-21607243D01*
X5362455Y-21607243D02*
X5352932Y-21626290D01*
X5352932Y-21626290D02*
X5343408Y-21635814D01*
X5343408Y-21635814D02*
X5324360Y-21645338D01*
X5324360Y-21645338D02*
X5286265Y-21645338D01*
X5286265Y-21645338D02*
X5267217Y-21654862D01*
X5267217Y-21654862D02*
X5257694Y-21664386D01*
X5257694Y-21664386D02*
X5248170Y-21683433D01*
X5248170Y-21683433D02*
X5248170Y-21721529D01*
X5248170Y-21721529D02*
X5257694Y-21740576D01*
X5257694Y-21740576D02*
X5267217Y-21750100D01*
X5267217Y-21750100D02*
X5286265Y-21759624D01*
X5286265Y-21759624D02*
X5324360Y-21759624D01*
X5324360Y-21759624D02*
X5343408Y-21750100D01*
X5343408Y-21750100D02*
X5352932Y-21740576D01*
X5352932Y-21740576D02*
X5362455Y-21721529D01*
X5362455Y-21721529D02*
X5362455Y-21683433D01*
X5362455Y-21683433D02*
X5352932Y-21664386D01*
X5352932Y-21664386D02*
X5343408Y-21654862D01*
X5343408Y-21654862D02*
X5324360Y-21645338D01*
X5448170Y-21759624D02*
X5448170Y-21626290D01*
X5448170Y-21645338D02*
X5457694Y-21635814D01*
X5457694Y-21635814D02*
X5476741Y-21626290D01*
X5476741Y-21626290D02*
X5505313Y-21626290D01*
X5505313Y-21626290D02*
X5524360Y-21635814D01*
X5524360Y-21635814D02*
X5533884Y-21654862D01*
X5533884Y-21654862D02*
X5533884Y-21759624D01*
X5533884Y-21654862D02*
X5543408Y-21635814D01*
X5543408Y-21635814D02*
X5562455Y-21626290D01*
X5562455Y-21626290D02*
X5591027Y-21626290D01*
X5591027Y-21626290D02*
X5610074Y-21635814D01*
X5610074Y-21635814D02*
X5619598Y-21654862D01*
X5619598Y-21654862D02*
X5619598Y-21759624D01*
X5714836Y-21759624D02*
X5714836Y-21626290D01*
X5714836Y-21645338D02*
X5724360Y-21635814D01*
X5724360Y-21635814D02*
X5743408Y-21626290D01*
X5743408Y-21626290D02*
X5771979Y-21626290D01*
X5771979Y-21626290D02*
X5791027Y-21635814D01*
X5791027Y-21635814D02*
X5800551Y-21654862D01*
X5800551Y-21654862D02*
X5800551Y-21759624D01*
X5800551Y-21654862D02*
X5810074Y-21635814D01*
X5810074Y-21635814D02*
X5829122Y-21626290D01*
X5829122Y-21626290D02*
X5857693Y-21626290D01*
X5857693Y-21626290D02*
X5876741Y-21635814D01*
X5876741Y-21635814D02*
X5886265Y-21654862D01*
X5886265Y-21654862D02*
X5886265Y-21759624D01*
X6276741Y-21550100D02*
X6105313Y-21807243D01*
X6533884Y-21559624D02*
X6552932Y-21559624D01*
X6552932Y-21559624D02*
X6571979Y-21569148D01*
X6571979Y-21569148D02*
X6581503Y-21578671D01*
X6581503Y-21578671D02*
X6591027Y-21597719D01*
X6591027Y-21597719D02*
X6600551Y-21635814D01*
X6600551Y-21635814D02*
X6600551Y-21683433D01*
X6600551Y-21683433D02*
X6591027Y-21721529D01*
X6591027Y-21721529D02*
X6581503Y-21740576D01*
X6581503Y-21740576D02*
X6571979Y-21750100D01*
X6571979Y-21750100D02*
X6552932Y-21759624D01*
X6552932Y-21759624D02*
X6533884Y-21759624D01*
X6533884Y-21759624D02*
X6514836Y-21750100D01*
X6514836Y-21750100D02*
X6505313Y-21740576D01*
X6505313Y-21740576D02*
X6495789Y-21721529D01*
X6495789Y-21721529D02*
X6486265Y-21683433D01*
X6486265Y-21683433D02*
X6486265Y-21635814D01*
X6486265Y-21635814D02*
X6495789Y-21597719D01*
X6495789Y-21597719D02*
X6505313Y-21578671D01*
X6505313Y-21578671D02*
X6514836Y-21569148D01*
X6514836Y-21569148D02*
X6533884Y-21559624D01*
X6686265Y-21740576D02*
X6695789Y-21750100D01*
X6695789Y-21750100D02*
X6686265Y-21759624D01*
X6686265Y-21759624D02*
X6676741Y-21750100D01*
X6676741Y-21750100D02*
X6686265Y-21740576D01*
X6686265Y-21740576D02*
X6686265Y-21759624D01*
X6886265Y-21759624D02*
X6771979Y-21759624D01*
X6829122Y-21759624D02*
X6829122Y-21559624D01*
X6829122Y-21559624D02*
X6810075Y-21588195D01*
X6810075Y-21588195D02*
X6791027Y-21607243D01*
X6791027Y-21607243D02*
X6771979Y-21616767D01*
X7067217Y-21559624D02*
X6971979Y-21559624D01*
X6971979Y-21559624D02*
X6962456Y-21654862D01*
X6962456Y-21654862D02*
X6971979Y-21645338D01*
X6971979Y-21645338D02*
X6991027Y-21635814D01*
X6991027Y-21635814D02*
X7038646Y-21635814D01*
X7038646Y-21635814D02*
X7057694Y-21645338D01*
X7057694Y-21645338D02*
X7067217Y-21654862D01*
X7067217Y-21654862D02*
X7076741Y-21673910D01*
X7076741Y-21673910D02*
X7076741Y-21721529D01*
X7076741Y-21721529D02*
X7067217Y-21740576D01*
X7067217Y-21740576D02*
X7057694Y-21750100D01*
X7057694Y-21750100D02*
X7038646Y-21759624D01*
X7038646Y-21759624D02*
X6991027Y-21759624D01*
X6991027Y-21759624D02*
X6971979Y-21750100D01*
X6971979Y-21750100D02*
X6962456Y-21740576D01*
X7143408Y-21559624D02*
X7276741Y-21559624D01*
X7276741Y-21559624D02*
X7191027Y-21759624D01*
X7391027Y-21559624D02*
X7410075Y-21559624D01*
X7410075Y-21559624D02*
X7429122Y-21569148D01*
X7429122Y-21569148D02*
X7438646Y-21578671D01*
X7438646Y-21578671D02*
X7448170Y-21597719D01*
X7448170Y-21597719D02*
X7457694Y-21635814D01*
X7457694Y-21635814D02*
X7457694Y-21683433D01*
X7457694Y-21683433D02*
X7448170Y-21721529D01*
X7448170Y-21721529D02*
X7438646Y-21740576D01*
X7438646Y-21740576D02*
X7429122Y-21750100D01*
X7429122Y-21750100D02*
X7410075Y-21759624D01*
X7410075Y-21759624D02*
X7391027Y-21759624D01*
X7391027Y-21759624D02*
X7371979Y-21750100D01*
X7371979Y-21750100D02*
X7362456Y-21740576D01*
X7362456Y-21740576D02*
X7352932Y-21721529D01*
X7352932Y-21721529D02*
X7343408Y-21683433D01*
X7343408Y-21683433D02*
X7343408Y-21635814D01*
X7343408Y-21635814D02*
X7352932Y-21597719D01*
X7352932Y-21597719D02*
X7362456Y-21578671D01*
X7362456Y-21578671D02*
X7371979Y-21569148D01*
X7371979Y-21569148D02*
X7391027Y-21559624D01*
X7533884Y-21559624D02*
X7533884Y-21597719D01*
X7610075Y-21559624D02*
X7610075Y-21597719D01*
X7905313Y-21835814D02*
X7895789Y-21826290D01*
X7895789Y-21826290D02*
X7876741Y-21797719D01*
X7876741Y-21797719D02*
X7867218Y-21778671D01*
X7867218Y-21778671D02*
X7857694Y-21750100D01*
X7857694Y-21750100D02*
X7848170Y-21702481D01*
X7848170Y-21702481D02*
X7848170Y-21664386D01*
X7848170Y-21664386D02*
X7857694Y-21616767D01*
X7857694Y-21616767D02*
X7867218Y-21588195D01*
X7867218Y-21588195D02*
X7876741Y-21569148D01*
X7876741Y-21569148D02*
X7895789Y-21540576D01*
X7895789Y-21540576D02*
X7905313Y-21531052D01*
X7971979Y-21578671D02*
X7981503Y-21569148D01*
X7981503Y-21569148D02*
X8000551Y-21559624D01*
X8000551Y-21559624D02*
X8048170Y-21559624D01*
X8048170Y-21559624D02*
X8067218Y-21569148D01*
X8067218Y-21569148D02*
X8076741Y-21578671D01*
X8076741Y-21578671D02*
X8086265Y-21597719D01*
X8086265Y-21597719D02*
X8086265Y-21616767D01*
X8086265Y-21616767D02*
X8076741Y-21645338D01*
X8076741Y-21645338D02*
X7962456Y-21759624D01*
X7962456Y-21759624D02*
X8086265Y-21759624D01*
X8162456Y-21578671D02*
X8171979Y-21569148D01*
X8171979Y-21569148D02*
X8191027Y-21559624D01*
X8191027Y-21559624D02*
X8238646Y-21559624D01*
X8238646Y-21559624D02*
X8257694Y-21569148D01*
X8257694Y-21569148D02*
X8267218Y-21578671D01*
X8267218Y-21578671D02*
X8276741Y-21597719D01*
X8276741Y-21597719D02*
X8276741Y-21616767D01*
X8276741Y-21616767D02*
X8267218Y-21645338D01*
X8267218Y-21645338D02*
X8152932Y-21759624D01*
X8152932Y-21759624D02*
X8276741Y-21759624D01*
X8514837Y-21759624D02*
X8514837Y-21559624D01*
X8600551Y-21759624D02*
X8600551Y-21654862D01*
X8600551Y-21654862D02*
X8591027Y-21635814D01*
X8591027Y-21635814D02*
X8571980Y-21626290D01*
X8571980Y-21626290D02*
X8543408Y-21626290D01*
X8543408Y-21626290D02*
X8524361Y-21635814D01*
X8524361Y-21635814D02*
X8514837Y-21645338D01*
X8724361Y-21759624D02*
X8705313Y-21750100D01*
X8705313Y-21750100D02*
X8695789Y-21740576D01*
X8695789Y-21740576D02*
X8686265Y-21721529D01*
X8686265Y-21721529D02*
X8686265Y-21664386D01*
X8686265Y-21664386D02*
X8695789Y-21645338D01*
X8695789Y-21645338D02*
X8705313Y-21635814D01*
X8705313Y-21635814D02*
X8724361Y-21626290D01*
X8724361Y-21626290D02*
X8752932Y-21626290D01*
X8752932Y-21626290D02*
X8771980Y-21635814D01*
X8771980Y-21635814D02*
X8781503Y-21645338D01*
X8781503Y-21645338D02*
X8791027Y-21664386D01*
X8791027Y-21664386D02*
X8791027Y-21721529D01*
X8791027Y-21721529D02*
X8781503Y-21740576D01*
X8781503Y-21740576D02*
X8771980Y-21750100D01*
X8771980Y-21750100D02*
X8752932Y-21759624D01*
X8752932Y-21759624D02*
X8724361Y-21759624D01*
X8905313Y-21759624D02*
X8886265Y-21750100D01*
X8886265Y-21750100D02*
X8876742Y-21731052D01*
X8876742Y-21731052D02*
X8876742Y-21559624D01*
X9057694Y-21750100D02*
X9038646Y-21759624D01*
X9038646Y-21759624D02*
X9000551Y-21759624D01*
X9000551Y-21759624D02*
X8981503Y-21750100D01*
X8981503Y-21750100D02*
X8971980Y-21731052D01*
X8971980Y-21731052D02*
X8971980Y-21654862D01*
X8971980Y-21654862D02*
X8981503Y-21635814D01*
X8981503Y-21635814D02*
X9000551Y-21626290D01*
X9000551Y-21626290D02*
X9038646Y-21626290D01*
X9038646Y-21626290D02*
X9057694Y-21635814D01*
X9057694Y-21635814D02*
X9067218Y-21654862D01*
X9067218Y-21654862D02*
X9067218Y-21673910D01*
X9067218Y-21673910D02*
X8971980Y-21692957D01*
X9143408Y-21750100D02*
X9162456Y-21759624D01*
X9162456Y-21759624D02*
X9200551Y-21759624D01*
X9200551Y-21759624D02*
X9219599Y-21750100D01*
X9219599Y-21750100D02*
X9229123Y-21731052D01*
X9229123Y-21731052D02*
X9229123Y-21721529D01*
X9229123Y-21721529D02*
X9219599Y-21702481D01*
X9219599Y-21702481D02*
X9200551Y-21692957D01*
X9200551Y-21692957D02*
X9171980Y-21692957D01*
X9171980Y-21692957D02*
X9152932Y-21683433D01*
X9152932Y-21683433D02*
X9143408Y-21664386D01*
X9143408Y-21664386D02*
X9143408Y-21654862D01*
X9143408Y-21654862D02*
X9152932Y-21635814D01*
X9152932Y-21635814D02*
X9171980Y-21626290D01*
X9171980Y-21626290D02*
X9200551Y-21626290D01*
X9200551Y-21626290D02*
X9219599Y-21635814D01*
X9295789Y-21835814D02*
X9305313Y-21826290D01*
X9305313Y-21826290D02*
X9324361Y-21797719D01*
X9324361Y-21797719D02*
X9333884Y-21778671D01*
X9333884Y-21778671D02*
X9343408Y-21750100D01*
X9343408Y-21750100D02*
X9352932Y-21702481D01*
X9352932Y-21702481D02*
X9352932Y-21664386D01*
X9352932Y-21664386D02*
X9343408Y-21616767D01*
X9343408Y-21616767D02*
X9333884Y-21588195D01*
X9333884Y-21588195D02*
X9324361Y-21569148D01*
X9324361Y-21569148D02*
X9305313Y-21540576D01*
X9305313Y-21540576D02*
X9295789Y-21531052D01*
X9657694Y-21835814D02*
X9648170Y-21826290D01*
X9648170Y-21826290D02*
X9629123Y-21797719D01*
X9629123Y-21797719D02*
X9619599Y-21778671D01*
X9619599Y-21778671D02*
X9610075Y-21750100D01*
X9610075Y-21750100D02*
X9600551Y-21702481D01*
X9600551Y-21702481D02*
X9600551Y-21664386D01*
X9600551Y-21664386D02*
X9610075Y-21616767D01*
X9610075Y-21616767D02*
X9619599Y-21588195D01*
X9619599Y-21588195D02*
X9629123Y-21569148D01*
X9629123Y-21569148D02*
X9648170Y-21540576D01*
X9648170Y-21540576D02*
X9657694Y-21531052D01*
X9733884Y-21626290D02*
X9733884Y-21759624D01*
X9733884Y-21645338D02*
X9743408Y-21635814D01*
X9743408Y-21635814D02*
X9762456Y-21626290D01*
X9762456Y-21626290D02*
X9791027Y-21626290D01*
X9791027Y-21626290D02*
X9810075Y-21635814D01*
X9810075Y-21635814D02*
X9819599Y-21654862D01*
X9819599Y-21654862D02*
X9819599Y-21759624D01*
X9943408Y-21759624D02*
X9924361Y-21750100D01*
X9924361Y-21750100D02*
X9914837Y-21740576D01*
X9914837Y-21740576D02*
X9905313Y-21721529D01*
X9905313Y-21721529D02*
X9905313Y-21664386D01*
X9905313Y-21664386D02*
X9914837Y-21645338D01*
X9914837Y-21645338D02*
X9924361Y-21635814D01*
X9924361Y-21635814D02*
X9943408Y-21626290D01*
X9943408Y-21626290D02*
X9971980Y-21626290D01*
X9971980Y-21626290D02*
X9991027Y-21635814D01*
X9991027Y-21635814D02*
X10000551Y-21645338D01*
X10000551Y-21645338D02*
X10010075Y-21664386D01*
X10010075Y-21664386D02*
X10010075Y-21721529D01*
X10010075Y-21721529D02*
X10000551Y-21740576D01*
X10000551Y-21740576D02*
X9991027Y-21750100D01*
X9991027Y-21750100D02*
X9971980Y-21759624D01*
X9971980Y-21759624D02*
X9943408Y-21759624D01*
X10067218Y-21626290D02*
X10143408Y-21626290D01*
X10095789Y-21559624D02*
X10095789Y-21731052D01*
X10095789Y-21731052D02*
X10105313Y-21750100D01*
X10105313Y-21750100D02*
X10124361Y-21759624D01*
X10124361Y-21759624D02*
X10143408Y-21759624D01*
X10362456Y-21626290D02*
X10362456Y-21826290D01*
X10362456Y-21635814D02*
X10381504Y-21626290D01*
X10381504Y-21626290D02*
X10419599Y-21626290D01*
X10419599Y-21626290D02*
X10438646Y-21635814D01*
X10438646Y-21635814D02*
X10448170Y-21645338D01*
X10448170Y-21645338D02*
X10457694Y-21664386D01*
X10457694Y-21664386D02*
X10457694Y-21721529D01*
X10457694Y-21721529D02*
X10448170Y-21740576D01*
X10448170Y-21740576D02*
X10438646Y-21750100D01*
X10438646Y-21750100D02*
X10419599Y-21759624D01*
X10419599Y-21759624D02*
X10381504Y-21759624D01*
X10381504Y-21759624D02*
X10362456Y-21750100D01*
X10571980Y-21759624D02*
X10552932Y-21750100D01*
X10552932Y-21750100D02*
X10543408Y-21731052D01*
X10543408Y-21731052D02*
X10543408Y-21559624D01*
X10733885Y-21759624D02*
X10733885Y-21654862D01*
X10733885Y-21654862D02*
X10724361Y-21635814D01*
X10724361Y-21635814D02*
X10705313Y-21626290D01*
X10705313Y-21626290D02*
X10667218Y-21626290D01*
X10667218Y-21626290D02*
X10648170Y-21635814D01*
X10733885Y-21750100D02*
X10714837Y-21759624D01*
X10714837Y-21759624D02*
X10667218Y-21759624D01*
X10667218Y-21759624D02*
X10648170Y-21750100D01*
X10648170Y-21750100D02*
X10638646Y-21731052D01*
X10638646Y-21731052D02*
X10638646Y-21712005D01*
X10638646Y-21712005D02*
X10648170Y-21692957D01*
X10648170Y-21692957D02*
X10667218Y-21683433D01*
X10667218Y-21683433D02*
X10714837Y-21683433D01*
X10714837Y-21683433D02*
X10733885Y-21673910D01*
X10800551Y-21626290D02*
X10876742Y-21626290D01*
X10829123Y-21559624D02*
X10829123Y-21731052D01*
X10829123Y-21731052D02*
X10838646Y-21750100D01*
X10838646Y-21750100D02*
X10857694Y-21759624D01*
X10857694Y-21759624D02*
X10876742Y-21759624D01*
X11019599Y-21750100D02*
X11000551Y-21759624D01*
X11000551Y-21759624D02*
X10962456Y-21759624D01*
X10962456Y-21759624D02*
X10943408Y-21750100D01*
X10943408Y-21750100D02*
X10933885Y-21731052D01*
X10933885Y-21731052D02*
X10933885Y-21654862D01*
X10933885Y-21654862D02*
X10943408Y-21635814D01*
X10943408Y-21635814D02*
X10962456Y-21626290D01*
X10962456Y-21626290D02*
X11000551Y-21626290D01*
X11000551Y-21626290D02*
X11019599Y-21635814D01*
X11019599Y-21635814D02*
X11029123Y-21654862D01*
X11029123Y-21654862D02*
X11029123Y-21673910D01*
X11029123Y-21673910D02*
X10933885Y-21692957D01*
X11200551Y-21759624D02*
X11200551Y-21559624D01*
X11200551Y-21750100D02*
X11181504Y-21759624D01*
X11181504Y-21759624D02*
X11143408Y-21759624D01*
X11143408Y-21759624D02*
X11124361Y-21750100D01*
X11124361Y-21750100D02*
X11114837Y-21740576D01*
X11114837Y-21740576D02*
X11105313Y-21721529D01*
X11105313Y-21721529D02*
X11105313Y-21664386D01*
X11105313Y-21664386D02*
X11114837Y-21645338D01*
X11114837Y-21645338D02*
X11124361Y-21635814D01*
X11124361Y-21635814D02*
X11143408Y-21626290D01*
X11143408Y-21626290D02*
X11181504Y-21626290D01*
X11181504Y-21626290D02*
X11200551Y-21635814D01*
X11276742Y-21835814D02*
X11286265Y-21826290D01*
X11286265Y-21826290D02*
X11305313Y-21797719D01*
X11305313Y-21797719D02*
X11314837Y-21778671D01*
X11314837Y-21778671D02*
X11324361Y-21750100D01*
X11324361Y-21750100D02*
X11333884Y-21702481D01*
X11333884Y-21702481D02*
X11333884Y-21664386D01*
X11333884Y-21664386D02*
X11324361Y-21616767D01*
X11324361Y-21616767D02*
X11314837Y-21588195D01*
X11314837Y-21588195D02*
X11305313Y-21569148D01*
X11305313Y-21569148D02*
X11286265Y-21540576D01*
X11286265Y-21540576D02*
X11276742Y-21531052D01*
M02*
