%TF.GenerationSoftware,KiCad,Pcbnew,8.0.3*%
%TF.CreationDate,2024-07-24T12:49:44+02:00*%
%TF.ProjectId,programmable,70726f67-7261-46d6-9d61-626c652e6b69,rev?*%
%TF.SameCoordinates,Original*%
%TF.FileFunction,Soldermask,Bot*%
%TF.FilePolarity,Negative*%
%FSLAX46Y46*%
G04 Gerber Fmt 4.6, Leading zero omitted, Abs format (unit mm)*
G04 Created by KiCad (PCBNEW 8.0.3) date 2024-07-24 12:49:44*
%MOMM*%
%LPD*%
G01*
G04 APERTURE LIST*
G04 Aperture macros list*
%AMRoundRect*
0 Rectangle with rounded corners*
0 $1 Rounding radius*
0 $2 $3 $4 $5 $6 $7 $8 $9 X,Y pos of 4 corners*
0 Add a 4 corners polygon primitive as box body*
4,1,4,$2,$3,$4,$5,$6,$7,$8,$9,$2,$3,0*
0 Add four circle primitives for the rounded corners*
1,1,$1+$1,$2,$3*
1,1,$1+$1,$4,$5*
1,1,$1+$1,$6,$7*
1,1,$1+$1,$8,$9*
0 Add four rect primitives between the rounded corners*
20,1,$1+$1,$2,$3,$4,$5,0*
20,1,$1+$1,$4,$5,$6,$7,0*
20,1,$1+$1,$6,$7,$8,$9,0*
20,1,$1+$1,$8,$9,$2,$3,0*%
G04 Aperture macros list end*
%ADD10C,2.200000*%
%ADD11R,1.905000X1.905000*%
%ADD12C,1.905000*%
%ADD13C,1.701800*%
%ADD14C,3.000000*%
%ADD15C,3.987800*%
%ADD16RoundRect,0.200000X-1.075000X-1.050000X1.075000X-1.050000X1.075000X1.050000X-1.075000X1.050000X0*%
%ADD17R,1.200000X1.200000*%
%ADD18RoundRect,0.237500X-0.237500X0.250000X-0.237500X-0.250000X0.237500X-0.250000X0.237500X0.250000X0*%
%ADD19C,1.600000*%
%ADD20O,1.600000X1.600000*%
%ADD21R,2.500000X1.200000*%
%ADD22O,1.700000X1.700000*%
%ADD23R,3.500000X1.700000*%
%ADD24R,1.700000X1.700000*%
%ADD25R,1.700000X3.500000*%
G04 APERTURE END LIST*
D10*
%TO.C,REF\u002A\u002A*%
X88327500Y-85254600D03*
%TD*%
%TO.C,REF\u002A\u002A*%
X47327500Y-131254600D03*
%TD*%
%TO.C,REF\u002A\u002A*%
X128327500Y-194254600D03*
%TD*%
%TO.C,REF\u002A\u002A*%
X47327500Y-194254600D03*
%TD*%
%TO.C,REF\u002A\u002A*%
X128327500Y-60254600D03*
%TD*%
%TO.C,REF\u002A\u002A*%
X47327500Y-34254600D03*
%TD*%
D11*
%TO.C,LED20*%
X95882500Y-164809600D03*
D12*
X98422500Y-164809600D03*
%TD*%
D13*
%TO.C,S16*%
X111122500Y-140679600D03*
D14*
X112392500Y-138139600D03*
D15*
X116202500Y-140679600D03*
D14*
X118742500Y-135599600D03*
D13*
X121282500Y-140679600D03*
D16*
X109117500Y-138139600D03*
X122044500Y-135599600D03*
%TD*%
D11*
%TO.C,LED1*%
X57782500Y-183859600D03*
D12*
X60322500Y-183859600D03*
%TD*%
D11*
%TO.C,LED22*%
X76832500Y-69559600D03*
D12*
X79372500Y-69559600D03*
%TD*%
D13*
%TO.C,S6*%
X111122500Y-102579600D03*
D14*
X112392500Y-100039600D03*
D15*
X116202500Y-102579600D03*
D14*
X118742500Y-97499600D03*
D13*
X121282500Y-102579600D03*
D16*
X109117500Y-100039600D03*
X122044500Y-97499600D03*
%TD*%
D11*
%TO.C,LED18*%
X57782500Y-164809600D03*
D12*
X60322500Y-164809600D03*
%TD*%
D13*
%TO.C,S22*%
X111122500Y-178779600D03*
D14*
X112392500Y-176239600D03*
D15*
X116202500Y-178779600D03*
D14*
X118742500Y-173699600D03*
D13*
X121282500Y-178779600D03*
D16*
X109117500Y-176239600D03*
X122044500Y-173699600D03*
%TD*%
D11*
%TO.C,LED13*%
X57782500Y-145759600D03*
D12*
X60322500Y-145759600D03*
%TD*%
D11*
%TO.C,LED21*%
X114932500Y-164809600D03*
D12*
X117472500Y-164809600D03*
%TD*%
D13*
%TO.C,S18*%
X53972500Y-159729600D03*
D14*
X55242500Y-157189600D03*
D15*
X59052500Y-159729600D03*
D14*
X61592500Y-154649600D03*
D13*
X64132500Y-159729600D03*
D16*
X51967500Y-157189600D03*
X64894500Y-154649600D03*
%TD*%
D11*
%TO.C,LED16*%
X114932500Y-145759600D03*
D12*
X117472500Y-145759600D03*
%TD*%
D13*
%TO.C,S17*%
X92072500Y-178779600D03*
D14*
X93342500Y-176239600D03*
D15*
X97152500Y-178779600D03*
D14*
X99692500Y-173699600D03*
D13*
X102232500Y-178779600D03*
D16*
X90067500Y-176239600D03*
X102994500Y-173699600D03*
%TD*%
D11*
%TO.C,LED5*%
X95882500Y-107659600D03*
D12*
X98422500Y-107659600D03*
%TD*%
D13*
%TO.C,S19*%
X73022500Y-159729600D03*
D14*
X74292500Y-157189600D03*
D15*
X78102500Y-159729600D03*
D14*
X80642500Y-154649600D03*
D13*
X83182500Y-159729600D03*
D16*
X71017500Y-157189600D03*
X83944500Y-154649600D03*
%TD*%
D13*
%TO.C,S4*%
X73022500Y-102579600D03*
D14*
X74292500Y-100039600D03*
D15*
X78102500Y-102579600D03*
D14*
X80642500Y-97499600D03*
D13*
X83182500Y-102579600D03*
D16*
X71017500Y-100039600D03*
X83944500Y-97499600D03*
%TD*%
D13*
%TO.C,S21*%
X111122500Y-159729600D03*
D14*
X112392500Y-157189600D03*
D15*
X116202500Y-159729600D03*
D14*
X118742500Y-154649600D03*
D13*
X121282500Y-159729600D03*
D16*
X109117500Y-157189600D03*
X122044500Y-154649600D03*
%TD*%
D13*
%TO.C,S14*%
X73022500Y-140679600D03*
D14*
X74292500Y-138139600D03*
D15*
X78102500Y-140679600D03*
D14*
X80642500Y-135599600D03*
D13*
X83182500Y-140679600D03*
D16*
X71017500Y-138139600D03*
X83944500Y-135599600D03*
%TD*%
D11*
%TO.C,LED11*%
X114932500Y-126709600D03*
D12*
X117472500Y-126709600D03*
%TD*%
D13*
%TO.C,S9*%
X73022500Y-121629600D03*
D14*
X74292500Y-119089600D03*
D15*
X78102500Y-121629600D03*
D14*
X80642500Y-116549600D03*
D13*
X83182500Y-121629600D03*
D16*
X71017500Y-119089600D03*
X83944500Y-116549600D03*
%TD*%
D11*
%TO.C,LED12*%
X95882500Y-183859600D03*
D12*
X98422500Y-183859600D03*
%TD*%
D13*
%TO.C,S3*%
X53972500Y-102579600D03*
D14*
X55242500Y-100039600D03*
D15*
X59052500Y-102579600D03*
D14*
X61592500Y-97499600D03*
D13*
X64132500Y-102579600D03*
D16*
X51967500Y-100039600D03*
X64894500Y-97499600D03*
%TD*%
D11*
%TO.C,LED19*%
X76832500Y-164809600D03*
D12*
X79372500Y-164809600D03*
%TD*%
D11*
%TO.C,LED2*%
X57782500Y-69559600D03*
D12*
X60322500Y-69559600D03*
%TD*%
D11*
%TO.C,LED10*%
X95882500Y-126709600D03*
D12*
X98422500Y-126709600D03*
%TD*%
D11*
%TO.C,LED8*%
X57782500Y-126709600D03*
D12*
X60322500Y-126709600D03*
%TD*%
D13*
%TO.C,S1*%
X53972500Y-64479600D03*
D14*
X55242500Y-61939600D03*
D15*
X59052500Y-64479600D03*
D14*
X61592500Y-59399600D03*
D13*
X64132500Y-64479600D03*
D16*
X51967500Y-61939600D03*
X64894500Y-59399600D03*
%TD*%
D11*
%TO.C,LED3*%
X114932500Y-107659600D03*
D12*
X117472500Y-107659600D03*
%TD*%
D13*
%TO.C,S8*%
X53972500Y-121629600D03*
D14*
X55242500Y-119089600D03*
D15*
X59052500Y-121629600D03*
D14*
X61592500Y-116549600D03*
D13*
X64132500Y-121629600D03*
D16*
X51967500Y-119089600D03*
X64894500Y-116549600D03*
%TD*%
D11*
%TO.C,LED9*%
X76832500Y-126709600D03*
D12*
X79372500Y-126709600D03*
%TD*%
D11*
%TO.C,LED6*%
X76832500Y-107659600D03*
D12*
X79372500Y-107659600D03*
%TD*%
D13*
%TO.C,S5*%
X92072500Y-102579600D03*
D14*
X93342500Y-100039600D03*
D15*
X97152500Y-102579600D03*
D14*
X99692500Y-97499600D03*
D13*
X102232500Y-102579600D03*
D16*
X90067500Y-100039600D03*
X102994500Y-97499600D03*
%TD*%
D13*
%TO.C,S11*%
X111122500Y-121629600D03*
D14*
X112392500Y-119089600D03*
D15*
X116202500Y-121629600D03*
D14*
X118742500Y-116549600D03*
D13*
X121282500Y-121629600D03*
D16*
X109117500Y-119089600D03*
X122044500Y-116549600D03*
%TD*%
D11*
%TO.C,LED15*%
X95882500Y-145759600D03*
D12*
X98422500Y-145759600D03*
%TD*%
D13*
%TO.C,S15*%
X92072500Y-140679600D03*
D14*
X93342500Y-138139600D03*
D15*
X97152500Y-140679600D03*
D14*
X99692500Y-135599600D03*
D13*
X102232500Y-140679600D03*
D16*
X90067500Y-138139600D03*
X102994500Y-135599600D03*
%TD*%
D11*
%TO.C,LED14*%
X76832500Y-145759600D03*
D12*
X79372500Y-145759600D03*
%TD*%
D13*
%TO.C,S2*%
X73022500Y-64479600D03*
D14*
X74292500Y-61939600D03*
D15*
X78102500Y-64479600D03*
D14*
X80642500Y-59399600D03*
D13*
X83182500Y-64479600D03*
D16*
X71017500Y-61939600D03*
X83944500Y-59399600D03*
%TD*%
D13*
%TO.C,S10*%
X92072500Y-121629600D03*
D14*
X93342500Y-119089600D03*
D15*
X97152500Y-121629600D03*
D14*
X99692500Y-116549600D03*
D13*
X102232500Y-121629600D03*
D16*
X90067500Y-119089600D03*
X102994500Y-116549600D03*
%TD*%
D13*
%TO.C,S13*%
X53972500Y-140679600D03*
D14*
X55242500Y-138139600D03*
D15*
X59052500Y-140679600D03*
D14*
X61592500Y-135599600D03*
D13*
X64132500Y-140679600D03*
D16*
X51967500Y-138139600D03*
X64894500Y-135599600D03*
%TD*%
D13*
%TO.C,S12*%
X73022500Y-178779600D03*
D14*
X74292500Y-176239600D03*
D15*
X78102500Y-178779600D03*
D14*
X80642500Y-173699600D03*
D13*
X83182500Y-178779600D03*
D16*
X71017500Y-176239600D03*
X83944500Y-173699600D03*
%TD*%
D11*
%TO.C,LED7*%
X57782500Y-107659600D03*
D12*
X60322500Y-107659600D03*
%TD*%
D13*
%TO.C,S7*%
X53972500Y-178779600D03*
D14*
X55242500Y-176239600D03*
D15*
X59052500Y-178779600D03*
D14*
X61592500Y-173699600D03*
D13*
X64132500Y-178779600D03*
D16*
X51967500Y-176239600D03*
X64894500Y-173699600D03*
%TD*%
D11*
%TO.C,LED17*%
X114932500Y-183859600D03*
D12*
X117472500Y-183859600D03*
%TD*%
D11*
%TO.C,LED4*%
X76832500Y-183859600D03*
D12*
X79372500Y-183859600D03*
%TD*%
D13*
%TO.C,S20*%
X92072500Y-159729600D03*
D14*
X93342500Y-157189600D03*
D15*
X97152500Y-159729600D03*
D14*
X99692500Y-154649600D03*
D13*
X102232500Y-159729600D03*
D16*
X90067500Y-157189600D03*
X102994500Y-154649600D03*
%TD*%
D17*
%TO.C,D21*%
X122252500Y-165869600D03*
X122252500Y-163069600D03*
%TD*%
D18*
%TO.C,R5*%
X90882500Y-107017100D03*
X90882500Y-108842100D03*
%TD*%
%TO.C,R13*%
X52782500Y-145117100D03*
X52782500Y-146942100D03*
%TD*%
D17*
%TO.C,D19*%
X84152500Y-165869600D03*
X84152500Y-163069600D03*
%TD*%
%TO.C,D3*%
X65102500Y-108719600D03*
X65102500Y-105919600D03*
%TD*%
%TO.C,D16*%
X122252500Y-146819600D03*
X122252500Y-144019600D03*
%TD*%
%TO.C,D6*%
X122252500Y-108719600D03*
X122252500Y-105919600D03*
%TD*%
D18*
%TO.C,R22*%
X71832500Y-68917100D03*
X71832500Y-70742100D03*
%TD*%
%TO.C,R11*%
X111552500Y-125954600D03*
X111552500Y-127779600D03*
%TD*%
%TO.C,R15*%
X90882500Y-145117100D03*
X90882500Y-146942100D03*
%TD*%
D17*
%TO.C,D12*%
X103202500Y-184919600D03*
X103202500Y-182119600D03*
%TD*%
%TO.C,D11*%
X122252500Y-127769600D03*
X122252500Y-124969600D03*
%TD*%
D19*
%TO.C,R23*%
X121017500Y-55444600D03*
D20*
X121017500Y-45284600D03*
%TD*%
D17*
%TO.C,D14*%
X84152500Y-146819600D03*
X84152500Y-144019600D03*
%TD*%
D19*
%TO.C,J1*%
X124547500Y-32374600D03*
X124547500Y-39374600D03*
D21*
X121297500Y-36974600D03*
X121297500Y-40974600D03*
X121297500Y-33974600D03*
X127797500Y-42074600D03*
%TD*%
D18*
%TO.C,R20*%
X90882500Y-164167100D03*
X90882500Y-165992100D03*
%TD*%
D17*
%TO.C,D13*%
X65102500Y-146819600D03*
X65102500Y-144019600D03*
%TD*%
D18*
%TO.C,R19*%
X71832500Y-164167100D03*
X71832500Y-165992100D03*
%TD*%
%TO.C,R3*%
X111552500Y-106454600D03*
X111552500Y-108279600D03*
%TD*%
%TO.C,R2*%
X52782500Y-68917100D03*
X52782500Y-70742100D03*
%TD*%
D17*
%TO.C,D10*%
X103202500Y-127769600D03*
X103202500Y-124969600D03*
%TD*%
D18*
%TO.C,R18*%
X52782500Y-164167100D03*
X52782500Y-165992100D03*
%TD*%
%TO.C,R8*%
X52782500Y-126067100D03*
X52782500Y-127892100D03*
%TD*%
%TO.C,R6*%
X71832500Y-107017100D03*
X71832500Y-108842100D03*
%TD*%
D17*
%TO.C,D20*%
X103202500Y-165869600D03*
X103202500Y-163069600D03*
%TD*%
%TO.C,D15*%
X103052500Y-146679600D03*
X103052500Y-143879600D03*
%TD*%
D18*
%TO.C,R9*%
X71832500Y-126067100D03*
X71832500Y-127892100D03*
%TD*%
%TO.C,R1*%
X52782500Y-183217100D03*
X52782500Y-185042100D03*
%TD*%
%TO.C,R17*%
X109932500Y-183217100D03*
X109932500Y-185042100D03*
%TD*%
D17*
%TO.C,D9*%
X84152500Y-127769600D03*
X84152500Y-124969600D03*
%TD*%
%TO.C,D7*%
X84152500Y-184919600D03*
X84152500Y-182119600D03*
%TD*%
D18*
%TO.C,R4*%
X71832500Y-183217100D03*
X71832500Y-185042100D03*
%TD*%
D17*
%TO.C,D2*%
X65102500Y-184919600D03*
X65102500Y-182119600D03*
%TD*%
%TO.C,D5*%
X103202500Y-108719600D03*
X103202500Y-105919600D03*
%TD*%
D18*
%TO.C,R21*%
X109932500Y-164167100D03*
X109932500Y-165992100D03*
%TD*%
%TO.C,R16*%
X109932500Y-145117100D03*
X109932500Y-146942100D03*
%TD*%
D17*
%TO.C,D17*%
X122252500Y-184919600D03*
X122252500Y-182119600D03*
%TD*%
D18*
%TO.C,R14*%
X71832500Y-145117100D03*
X71832500Y-146942100D03*
%TD*%
D17*
%TO.C,D1*%
X65102500Y-70619600D03*
X65102500Y-67819600D03*
%TD*%
D18*
%TO.C,R7*%
X52782500Y-107017100D03*
X52782500Y-108842100D03*
%TD*%
D17*
%TO.C,D4*%
X84152500Y-108719600D03*
X84152500Y-105919600D03*
%TD*%
%TO.C,D8*%
X65102500Y-127769600D03*
X65102500Y-124969600D03*
%TD*%
D22*
%TO.C,U1*%
X114517500Y-38424600D03*
D23*
X115417500Y-38424600D03*
D22*
X114517500Y-40964600D03*
D23*
X115417500Y-40964600D03*
D24*
X114517500Y-43504600D03*
D23*
X115417500Y-43504600D03*
D22*
X114517500Y-46044600D03*
D23*
X115417500Y-46044600D03*
D22*
X114517500Y-48584600D03*
D23*
X115417500Y-48584600D03*
D22*
X114517500Y-51124600D03*
D23*
X115417500Y-51124600D03*
D22*
X114517500Y-53664600D03*
D23*
X115417500Y-53664600D03*
D24*
X114517500Y-56204600D03*
D23*
X115417500Y-56204600D03*
D22*
X114517500Y-58744600D03*
D23*
X115417500Y-58744600D03*
D22*
X114517500Y-61284600D03*
D23*
X115417500Y-61284600D03*
D22*
X114517500Y-63824600D03*
D23*
X115417500Y-63824600D03*
D22*
X114517500Y-66364600D03*
D23*
X115417500Y-66364600D03*
D24*
X114517500Y-68904600D03*
D23*
X115417500Y-68904600D03*
D22*
X114517500Y-71444600D03*
D23*
X115417500Y-71444600D03*
D22*
X114517500Y-73984600D03*
D23*
X115417500Y-73984600D03*
D22*
X114517500Y-76524600D03*
D23*
X115417500Y-76524600D03*
D22*
X114517500Y-79064600D03*
D23*
X115417500Y-79064600D03*
D24*
X114517500Y-81604600D03*
D23*
X115417500Y-81604600D03*
D22*
X114517500Y-84144600D03*
D23*
X115417500Y-84144600D03*
D22*
X114517500Y-86684600D03*
D23*
X115417500Y-86684600D03*
D22*
X96737500Y-86684600D03*
D23*
X95837500Y-86684600D03*
D22*
X96737500Y-84144600D03*
D23*
X95837500Y-84144600D03*
D24*
X96737500Y-81604600D03*
D23*
X95837500Y-81604600D03*
D22*
X96737500Y-79064600D03*
D23*
X95837500Y-79064600D03*
D22*
X96737500Y-76524600D03*
D23*
X95837500Y-76524600D03*
D22*
X96737500Y-73984600D03*
D23*
X95837500Y-73984600D03*
D22*
X96737500Y-71444600D03*
D23*
X95837500Y-71444600D03*
D24*
X96737500Y-68904600D03*
D23*
X95837500Y-68904600D03*
D22*
X96737500Y-66364600D03*
D23*
X95837500Y-66364600D03*
D22*
X96737500Y-63824600D03*
D23*
X95837500Y-63824600D03*
D22*
X96737500Y-61284600D03*
D23*
X95837500Y-61284600D03*
D22*
X96737500Y-58744600D03*
D23*
X95837500Y-58744600D03*
D24*
X96737500Y-56204600D03*
D23*
X95837500Y-56204600D03*
D22*
X96737500Y-53664600D03*
D23*
X95837500Y-53664600D03*
D22*
X96737500Y-51124600D03*
D23*
X95837500Y-51124600D03*
D22*
X96737500Y-48584600D03*
D23*
X95837500Y-48584600D03*
D22*
X96737500Y-46044600D03*
D23*
X95837500Y-46044600D03*
D24*
X96737500Y-43504600D03*
D23*
X95837500Y-43504600D03*
D22*
X96737500Y-40964600D03*
D23*
X95837500Y-40964600D03*
D22*
X96737500Y-38424600D03*
D23*
X95837500Y-38424600D03*
D22*
X108167500Y-86454600D03*
D25*
X108167500Y-87354600D03*
D24*
X105627500Y-86454600D03*
D25*
X105627500Y-87354600D03*
D22*
X103087500Y-86454600D03*
D25*
X103087500Y-87354600D03*
%TD*%
D19*
%TO.C,R24*%
X126777500Y-55444600D03*
D20*
X126777500Y-45284600D03*
%TD*%
D17*
%TO.C,D18*%
X65102500Y-165869600D03*
X65102500Y-163069600D03*
%TD*%
D18*
%TO.C,R10*%
X90882500Y-126067100D03*
X90882500Y-127892100D03*
%TD*%
%TO.C,R12*%
X90882500Y-183217100D03*
X90882500Y-185042100D03*
%TD*%
M02*
