solid OpenSCAD_Model
  facet normal 0.923878 0.382455 0.0133557
    outer loop
      vertex 9.82843 9.26792 16.2223
      vertex 10.5858 8.00488 0
      vertex 9.82843 9.83442 0
    endloop
  endfacet
  facet normal 0.923877 0.382456 0.0133557
    outer loop
      vertex 10.5858 8.00488 0
      vertex 9.82843 9.26792 16.2223
      vertex 10.5858 7.44061 16.1585
    endloop
  endfacet
  facet normal -0.92388 0.38245 0.0133555
    outer loop
      vertex 3 7.00427 0
      vertex 4.17157 9.26792 16.2223
      vertex 4.17157 9.83442 0
    endloop
  endfacet
  facet normal -0.92388 0.38245 0.0133555
    outer loop
      vertex 4.17157 9.26792 16.2223
      vertex 3 7.00427 0
      vertex 3 6.44122 16.1236
    endloop
  endfacet
  facet normal 0.382665 0.923324 0.0322435
    outer loop
      vertex 8 10.5922 0
      vertex 9.82843 9.26792 16.2223
      vertex 9.82843 9.83442 0
    endloop
  endfacet
  facet normal 0.382676 0.92332 0.0322419
    outer loop
      vertex 9.82843 9.26792 16.2223
      vertex 8 10.5922 0
      vertex 8 10.0248 16.2488
    endloop
  endfacet
  facet normal -0.382676 0.92332 0.0322419
    outer loop
      vertex 6 10.5922 0
      vertex 4.17157 9.26792 16.2223
      vertex 6 10.0248 16.2488
    endloop
  endfacet
  facet normal -0.382665 0.923324 0.0322435
    outer loop
      vertex 4.17157 9.26792 16.2223
      vertex 6 10.5922 0
      vertex 4.17157 9.83442 0
    endloop
  endfacet
  facet normal 0.382684 -0.923317 -0.0322433
    outer loop
      vertex 9.82843 4.17412 0
      vertex 7 2.44365 15.984
      vertex 7 3.00183 0
    endloop
  endfacet
  facet normal 0.382683 -0.923317 -0.0322434
    outer loop
      vertex 7 2.44365 15.984
      vertex 9.82843 4.17412 0
      vertex 9.82843 3.61451 16.0249
    endloop
  endfacet
  facet normal -0.92388 -0.38245 -0.0133555
    outer loop
      vertex 4.17157 4.17412 0
      vertex 3 6.44122 16.1236
      vertex 3 7.00427 0
    endloop
  endfacet
  facet normal -0.92388 -0.382449 -0.0133556
    outer loop
      vertex 3 6.44122 16.1236
      vertex 4.17157 4.17412 0
      vertex 4.17157 3.61451 16.0249
    endloop
  endfacet
  facet normal 0.923878 -0.382455 -0.0133556
    outer loop
      vertex 10.5858 5.44183 16.0887
      vertex 9.82843 4.17412 0
      vertex 10.5858 6.00366 0
    endloop
  endfacet
  facet normal 0.923878 -0.382454 -0.0133558
    outer loop
      vertex 9.82843 4.17412 0
      vertex 10.5858 5.44183 16.0887
      vertex 9.82843 3.61451 16.0249
    endloop
  endfacet
  facet normal -0.382683 -0.923317 -0.0322434
    outer loop
      vertex 4.17157 4.17412 0
      vertex 7 2.44365 15.984
      vertex 4.17157 3.61451 16.0249
    endloop
  endfacet
  facet normal -0.382684 -0.923317 -0.0322433
    outer loop
      vertex 7 2.44365 15.984
      vertex 4.17157 4.17412 0
      vertex 7 3.00183 0
    endloop
  endfacet
  facet normal 0 -0.0347616 0.999396
    outer loop
      vertex 6 10.0248 16.2488
      vertex 8 10.0248 16.2488
      vertex 8 10.4388 16.2632
    endloop
  endfacet
  facet normal 0 -0.0347616 0.999396
    outer loop
      vertex 6 10.0248 16.2488
      vertex 8 10.4388 16.2632
      vertex 6 10.4388 16.2632
    endloop
  endfacet
  facet normal 0 -0.034928 0.99939
    outer loop
      vertex 8 10.0248 16.2488
      vertex 6 10.0248 16.2488
      vertex 7 8.26511 16.1873
    endloop
  endfacet
  facet normal 4.40656e-05 -0.034903 0.999391
    outer loop
      vertex 6 10.0248 16.2488
      vertex 5.70953 7.7309 16.1687
      vertex 7 8.26511 16.1873
    endloop
  endfacet
  facet normal -4.08021e-05 -0.0348923 0.999391
    outer loop
      vertex 4.17157 9.26792 16.2223
      vertex 5.70953 7.7309 16.1687
      vertex 6 10.0248 16.2488
    endloop
  endfacet
  facet normal -6.86746e-05 -0.0349201 0.99939
    outer loop
      vertex 5.70953 7.7309 16.1687
      vertex 4.17157 9.26792 16.2223
      vertex 5.175 6.44122 16.1236
    endloop
  endfacet
  facet normal 0 -0.0349 0.999391
    outer loop
      vertex 10.5858 7.44061 16.1585
      vertex 11 5.44183 16.0887
      vertex 11 7.44061 16.1585
    endloop
  endfacet
  facet normal 0 -0.0349 0.999391
    outer loop
      vertex 10.5858 7.44061 16.1585
      vertex 10.5858 5.44183 16.0887
      vertex 11 5.44183 16.0887
    endloop
  endfacet
  facet normal 2.96869e-05 -0.0348812 0.999391
    outer loop
      vertex 8.29047 7.7309 16.1687
      vertex 10.5858 7.44061 16.1585
      vertex 9.82843 9.26792 16.2223
    endloop
  endfacet
  facet normal 0 -0.0349 0.999391
    outer loop
      vertex 10.5858 7.44061 16.1585
      vertex 8.825 6.44122 16.1236
      vertex 10.5858 5.44183 16.0887
    endloop
  endfacet
  facet normal 1.34071e-05 -0.0348764 0.999392
    outer loop
      vertex 8.29047 5.15153 16.0786
      vertex 10.5858 5.44183 16.0887
      vertex 8.825 6.44122 16.1236
    endloop
  endfacet
  facet normal 2.23234e-05 -0.0349393 0.999389
    outer loop
      vertex 10.5858 7.44061 16.1585
      vertex 8.29047 7.7309 16.1687
      vertex 8.825 6.44122 16.1236
    endloop
  endfacet
  facet normal 4.08021e-05 -0.0348923 0.999391
    outer loop
      vertex 8 10.0248 16.2488
      vertex 8.29047 7.7309 16.1687
      vertex 9.82843 9.26792 16.2223
    endloop
  endfacet
  facet normal -4.40656e-05 -0.034903 0.999391
    outer loop
      vertex 8.29047 7.7309 16.1687
      vertex 8 10.0248 16.2488
      vertex 7 8.26511 16.1873
    endloop
  endfacet
  facet normal 1.63969e-05 -0.0349 0.999391
    outer loop
      vertex 10.5858 5.44183 16.0887
      vertex 8.29047 5.15153 16.0786
      vertex 9.82843 3.61451 16.0249
    endloop
  endfacet
  facet normal -1.9857e-05 -0.0349363 0.99939
    outer loop
      vertex 7 4.61733 16.0599
      vertex 9.82843 3.61451 16.0249
      vertex 8.29047 5.15153 16.0786
    endloop
  endfacet
  facet normal -5.72803e-06 -0.0348965 0.999391
    outer loop
      vertex 7 4.61733 16.0599
      vertex 7 2.44365 15.984
      vertex 9.82843 3.61451 16.0249
    endloop
  endfacet
  facet normal 3.63534e-05 -0.0348965 0.999391
    outer loop
      vertex 5.70953 5.15153 16.0786
      vertex 7 2.44365 15.984
      vertex 7 4.61733 16.0599
    endloop
  endfacet
  facet normal -1.79849e-06 -0.0349146 0.99939
    outer loop
      vertex 5.70953 5.15153 16.0786
      vertex 4.17157 3.61451 16.0249
      vertex 7 2.44365 15.984
    endloop
  endfacet
  facet normal -3.22266e-05 -0.0348842 0.999391
    outer loop
      vertex 5.175 6.44122 16.1236
      vertex 4.17157 3.61451 16.0249
      vertex 5.70953 5.15153 16.0786
    endloop
  endfacet
  facet normal 0 -0.0348958 0.999391
    outer loop
      vertex 3 6.44122 16.1236
      vertex 5.175 6.44122 16.1236
      vertex 4.17157 9.26792 16.2223
    endloop
  endfacet
  facet normal 0 -0.0348957 0.999391
    outer loop
      vertex 5.175 6.44122 16.1236
      vertex 3 6.44122 16.1236
      vertex 4.17157 3.61451 16.0249
    endloop
  endfacet
  facet normal -0 0.999391 0.0348997
    outer loop
      vertex 10.5858 8.00488 0
      vertex 11 7.44061 16.1585
      vertex 15.0421 8.00488 0
    endloop
  endfacet
  facet normal 0 0.999391 0.0348997
    outer loop
      vertex 11 7.44061 16.1585
      vertex 10.5858 8.00488 0
      vertex 10.5858 7.44061 16.1585
    endloop
  endfacet
  facet normal 0.970142 -0.00848357 0.242388
    outer loop
      vertex 11 7.44061 16.1585
      vertex 15.0246 6.00366 0
      vertex 15.0421 8.00488 0
    endloop
  endfacet
  facet normal 0.970143 -0.00846445 0.242386
    outer loop
      vertex 15.0246 6.00366 0
      vertex 11 7.44061 16.1585
      vertex 11 5.44183 16.0887
    endloop
  endfacet
  facet normal 0 -0.999391 -0.0348995
    outer loop
      vertex 10.5858 6.00366 0
      vertex 11 5.44183 16.0887
      vertex 10.5858 5.44183 16.0887
    endloop
  endfacet
  facet normal 0 -0.999391 -0.0348995
    outer loop
      vertex 11 5.44183 16.0887
      vertex 10.5858 6.00366 0
      vertex 15.0246 6.00366 0
    endloop
  endfacet
  facet normal 0 0.961088 0.276244
    outer loop
      vertex 8 15.1133 0
      vertex 6 10.4388 16.2632
      vertex 8 10.4388 16.2632
    endloop
  endfacet
  facet normal 0 0.961088 0.276244
    outer loop
      vertex 6 10.4388 16.2632
      vertex 8 15.1133 0
      vertex 6 15.1133 0
    endloop
  endfacet
  facet normal -1 0 0
    outer loop
      vertex 6 10.5922 0
      vertex 6 10.4388 16.2632
      vertex 6 15.1133 0
    endloop
  endfacet
  facet normal -1 0 -0
    outer loop
      vertex 6 10.4388 16.2632
      vertex 6 10.5922 0
      vertex 6 10.0248 16.2488
    endloop
  endfacet
  facet normal 1 0 0
    outer loop
      vertex 8 10.4388 16.2632
      vertex 8 10.5922 0
      vertex 8 15.1133 0
    endloop
  endfacet
  facet normal 1 0 0
    outer loop
      vertex 8 10.5922 0
      vertex 8 10.4388 16.2632
      vertex 8 10.0248 16.2488
    endloop
  endfacet
  facet normal 0.923911 0.382373 0.0133574
    outer loop
      vertex 9.82843 162.812 21.5842
      vertex 10.5858 161.736 0
      vertex 9.82843 163.566 0
    endloop
  endfacet
  facet normal 0.923854 0.382511 0.0133485
    outer loop
      vertex 10.5858 161.736 0
      vertex 9.82843 162.812 21.5842
      vertex 10.5858 160.985 21.5204
    endloop
  endfacet
  facet normal -0.92392 0.382352 0.0133567
    outer loop
      vertex 3 160.735 0
      vertex 4.17157 162.812 21.5842
      vertex 4.17157 163.566 0
    endloop
  endfacet
  facet normal -0.923894 0.382416 0.0133491
    outer loop
      vertex 4.17157 162.812 21.5842
      vertex 3 160.735 0
      vertex 3 159.985 21.4855
    endloop
  endfacet
  facet normal 0.382603 0.92335 0.0322553
    outer loop
      vertex 7 164.738 0
      vertex 9.82843 162.812 21.5842
      vertex 9.82843 163.566 0
    endloop
  endfacet
  facet normal 0.382722 0.923301 0.0322353
    outer loop
      vertex 9.82843 162.812 21.5842
      vertex 7 164.738 0
      vertex 7 163.983 21.6251
    endloop
  endfacet
  facet normal 1.86409e-05 -0.0349523 0.999389
    outer loop
      vertex 5.70953 158.695 21.4405
      vertex 6 156.402 21.3603
      vertex 7 158.161 21.4218
    endloop
  endfacet
  facet normal -3.84718e-05 -0.0348784 0.999392
    outer loop
      vertex 4.17157 157.158 21.3868
      vertex 5.70953 158.695 21.4405
      vertex 5.175 159.985 21.4855
    endloop
  endfacet
  facet normal 0 -0.0348921 0.999391
    outer loop
      vertex 3 159.985 21.4855
      vertex 5.175 159.985 21.4855
      vertex 4.17157 162.812 21.5842
    endloop
  endfacet
  facet normal 0 -0.0348921 0.999391
    outer loop
      vertex 4.17157 157.158 21.3868
      vertex 5.175 159.985 21.4855
      vertex 3 159.985 21.4855
    endloop
  endfacet
  facet normal 3.3531e-05 -0.0349504 0.999389
    outer loop
      vertex 5.70953 158.695 21.4405
      vertex 4.17157 157.158 21.3868
      vertex 6 156.402 21.3603
    endloop
  endfacet
  facet normal 0 -0.0348962 0.999391
    outer loop
      vertex 10.5858 160.985 21.5204
      vertex 11 158.986 21.4506
      vertex 11 160.985 21.5204
    endloop
  endfacet
  facet normal 0 -0.0348962 0.999391
    outer loop
      vertex 10.5858 160.985 21.5204
      vertex 10.5858 158.986 21.4506
      vertex 11 158.986 21.4506
    endloop
  endfacet
  facet normal -1.23983e-05 -0.0349045 0.999391
    outer loop
      vertex 8.29047 161.275 21.5305
      vertex 10.5858 160.985 21.5204
      vertex 9.82843 162.812 21.5842
    endloop
  endfacet
  facet normal 9.90919e-06 -0.0348962 0.999391
    outer loop
      vertex 10.5858 160.985 21.5204
      vertex 8.825 159.985 21.4855
      vertex 10.5858 158.986 21.4506
    endloop
  endfacet
  facet normal 2.35115e-05 -0.0348722 0.999392
    outer loop
      vertex 8.29047 158.695 21.4405
      vertex 10.5858 158.986 21.4506
      vertex 8.825 159.985 21.4855
    endloop
  endfacet
  facet normal -7.47951e-06 -0.0348656 0.999392
    outer loop
      vertex 10.5858 160.985 21.5204
      vertex 8.29047 161.275 21.5305
      vertex 8.825 159.985 21.4855
    endloop
  endfacet
  facet normal -3.15345e-06 -0.0349137 0.99939
    outer loop
      vertex 7 163.983 21.6251
      vertex 8.29047 161.275 21.5305
      vertex 9.82843 162.812 21.5842
    endloop
  endfacet
  facet normal 4.38873e-05 -0.0348913 0.999391
    outer loop
      vertex 7 163.983 21.6251
      vertex 7 161.809 21.5492
      vertex 8.29047 161.275 21.5305
    endloop
  endfacet
  facet normal -4.38873e-05 -0.0348913 0.999391
    outer loop
      vertex 7 163.983 21.6251
      vertex 5.70953 161.275 21.5305
      vertex 7 161.809 21.5492
    endloop
  endfacet
  facet normal 3.84718e-05 -0.0348784 0.999392
    outer loop
      vertex 5.70953 161.275 21.5305
      vertex 4.17157 162.812 21.5842
      vertex 5.175 159.985 21.4855
    endloop
  endfacet
  facet normal 3.15345e-06 -0.0349137 0.99939
    outer loop
      vertex 4.17157 162.812 21.5842
      vertex 5.70953 161.275 21.5305
      vertex 7 163.983 21.6251
    endloop
  endfacet
  facet normal 2.58931e-05 -0.034891 0.999391
    outer loop
      vertex 10.5858 158.986 21.4506
      vertex 8.29047 158.695 21.4405
      vertex 9.82843 157.158 21.3868
    endloop
  endfacet
  facet normal -3.3531e-05 -0.0349504 0.999389
    outer loop
      vertex 8.29047 158.695 21.4405
      vertex 8 156.402 21.3603
      vertex 9.82843 157.158 21.3868
    endloop
  endfacet
  facet normal -1.86409e-05 -0.0349523 0.999389
    outer loop
      vertex 7 158.161 21.4218
      vertex 8 156.402 21.3603
      vertex 8.29047 158.695 21.4405
    endloop
  endfacet
  facet normal 0 -0.0349417 0.999389
    outer loop
      vertex 6 156.402 21.3603
      vertex 8 156.402 21.3603
      vertex 7 158.161 21.4218
    endloop
  endfacet
  facet normal 0 -0.0347616 0.999396
    outer loop
      vertex 8 156.402 21.3603
      vertex 6 156.402 21.3603
      vertex 8 155.988 21.3459
    endloop
  endfacet
  facet normal 0 -0.0347616 0.999396
    outer loop
      vertex 8 155.988 21.3459
      vertex 6 156.402 21.3603
      vertex 6 155.988 21.3459
    endloop
  endfacet
  facet normal -0.382722 0.923301 0.0322353
    outer loop
      vertex 7 164.738 0
      vertex 4.17157 162.812 21.5842
      vertex 7 163.983 21.6251
    endloop
  endfacet
  facet normal -0.382603 0.92335 0.0322553
    outer loop
      vertex 4.17157 162.812 21.5842
      vertex 7 164.738 0
      vertex 4.17157 163.566 0
    endloop
  endfacet
  facet normal 0.382761 -0.923286 -0.0322022
    outer loop
      vertex 9.82843 157.905 0
      vertex 8 156.402 21.3603
      vertex 8 157.147 0
    endloop
  endfacet
  facet normal 0.382297 -0.923476 -0.0322553
    outer loop
      vertex 8 156.402 21.3603
      vertex 9.82843 157.905 0
      vertex 9.82843 157.158 21.3868
    endloop
  endfacet
  facet normal -0.923873 -0.382467 -0.0133509
    outer loop
      vertex 4.17157 157.905 0
      vertex 3 159.985 21.4855
      vertex 3 160.735 0
    endloop
  endfacet
  facet normal -0.923894 -0.382415 -0.013357
    outer loop
      vertex 3 159.985 21.4855
      vertex 4.17157 157.905 0
      vertex 4.17157 157.158 21.3868
    endloop
  endfacet
  facet normal -0.382297 -0.923476 -0.0322553
    outer loop
      vertex 4.17157 157.905 0
      vertex 6 156.402 21.3603
      vertex 4.17157 157.158 21.3868
    endloop
  endfacet
  facet normal -0.382761 -0.923286 -0.0322022
    outer loop
      vertex 6 156.402 21.3603
      vertex 4.17157 157.905 0
      vertex 6 157.147 0
    endloop
  endfacet
  facet normal 0.923912 -0.382373 -0.0133515
    outer loop
      vertex 10.5858 158.986 21.4506
      vertex 9.82843 157.905 0
      vertex 10.5858 159.735 0
    endloop
  endfacet
  facet normal 0.923928 -0.382332 -0.0133541
    outer loop
      vertex 9.82843 157.905 0
      vertex 10.5858 158.986 21.4506
      vertex 9.82843 157.158 21.3868
    endloop
  endfacet
  facet normal -0 0.999392 0.0348759
    outer loop
      vertex 10.5858 161.736 0
      vertex 11 160.985 21.5204
      vertex 16.3834 161.736 0
    endloop
  endfacet
  facet normal 0 0.999392 0.0348759
    outer loop
      vertex 11 160.985 21.5204
      vertex 10.5858 161.736 0
      vertex 10.5858 160.985 21.5204
    endloop
  endfacet
  facet normal 0.970142 -0.0084845 0.242388
    outer loop
      vertex 11 160.985 21.5204
      vertex 16.3659 159.735 0
      vertex 16.3834 161.736 0
    endloop
  endfacet
  facet normal 0.970143 -0.00846354 0.242387
    outer loop
      vertex 16.3659 159.735 0
      vertex 11 160.985 21.5204
      vertex 11 158.986 21.4506
    endloop
  endfacet
  facet normal 0 -0.999391 -0.0348962
    outer loop
      vertex 10.5858 159.735 0
      vertex 11 158.986 21.4506
      vertex 10.5858 158.986 21.4506
    endloop
  endfacet
  facet normal 0 -0.999391 -0.0348962
    outer loop
      vertex 11 158.986 21.4506
      vertex 10.5858 159.735 0
      vertex 16.3659 159.735 0
    endloop
  endfacet
  facet normal 1 -0 0
    outer loop
      vertex 8 155.988 21.3459
      vertex 8 157.147 0
      vertex 8 156.402 21.3603
    endloop
  endfacet
  facet normal 1 0 0
    outer loop
      vertex 8 157.147 0
      vertex 8 155.988 21.3459
      vertex 8 151.436 0
    endloop
  endfacet
  facet normal 0 -0.97801 0.20856
    outer loop
      vertex 6 151.436 0
      vertex 8 155.988 21.3459
      vertex 6 155.988 21.3459
    endloop
  endfacet
  facet normal 0 -0.97801 0.20856
    outer loop
      vertex 8 155.988 21.3459
      vertex 6 151.436 0
      vertex 8 151.436 0
    endloop
  endfacet
  facet normal -1 0 0
    outer loop
      vertex 6 157.147 0
      vertex 6 155.988 21.3459
      vertex 6 156.402 21.3603
    endloop
  endfacet
  facet normal -1 0 -0
    outer loop
      vertex 6 155.988 21.3459
      vertex 6 157.147 0
      vertex 6 151.436 0
    endloop
  endfacet
  facet normal 0.923917 0.38236 0.013357
    outer loop
      vertex 92.0284 162.812 21.5842
      vertex 93.2 160.735 0
      vertex 92.0284 163.566 0
    endloop
  endfacet
  facet normal 0.923891 0.382424 0.0133494
    outer loop
      vertex 93.2 160.735 0
      vertex 92.0284 162.812 21.5842
      vertex 93.2 159.985 21.4855
    endloop
  endfacet
  facet normal -0.923906 0.382386 0.0133579
    outer loop
      vertex 85.6142 161.736 0
      vertex 86.3716 162.812 21.5842
      vertex 86.3716 163.566 0
    endloop
  endfacet
  facet normal -0.923849 0.382524 0.013349
    outer loop
      vertex 86.3716 162.812 21.5842
      vertex 85.6142 161.736 0
      vertex 85.6142 160.985 21.5204
    endloop
  endfacet
  facet normal 0.382606 0.923348 0.0322553
    outer loop
      vertex 89.2 164.738 0
      vertex 92.0284 162.812 21.5842
      vertex 92.0284 163.566 0
    endloop
  endfacet
  facet normal 0.382726 0.923299 0.0322353
    outer loop
      vertex 92.0284 162.812 21.5842
      vertex 89.2 164.738 0
      vertex 89.2 163.983 21.6251
    endloop
  endfacet
  facet normal 1.86406e-05 -0.0349523 0.999389
    outer loop
      vertex 87.9095 158.695 21.4405
      vertex 88.2 156.402 21.3603
      vertex 89.2 158.161 21.4218
    endloop
  endfacet
  facet normal -2.35118e-05 -0.0348722 0.999392
    outer loop
      vertex 85.6142 158.986 21.4506
      vertex 87.9095 158.695 21.4405
      vertex 87.375 159.985 21.4855
    endloop
  endfacet
  facet normal 7.47959e-06 -0.0348656 0.999392
    outer loop
      vertex 87.9095 161.275 21.5305
      vertex 85.6142 160.985 21.5204
      vertex 87.375 159.985 21.4855
    endloop
  endfacet
  facet normal -9.90919e-06 -0.0348962 0.999391
    outer loop
      vertex 85.6142 158.986 21.4506
      vertex 87.375 159.985 21.4855
      vertex 85.6142 160.985 21.5204
    endloop
  endfacet
  facet normal -2.58935e-05 -0.034891 0.999391
    outer loop
      vertex 87.9095 158.695 21.4405
      vertex 85.6142 158.986 21.4506
      vertex 86.3716 157.158 21.3868
    endloop
  endfacet
  facet normal 3.35318e-05 -0.0349504 0.999389
    outer loop
      vertex 87.9095 158.695 21.4405
      vertex 86.3716 157.158 21.3868
      vertex 88.2 156.402 21.3603
    endloop
  endfacet
  facet normal 0 -0.0348962 0.999391
    outer loop
      vertex 85.2 160.985 21.5204
      vertex 85.6142 158.986 21.4506
      vertex 85.6142 160.985 21.5204
    endloop
  endfacet
  facet normal 0 -0.0348962 0.999391
    outer loop
      vertex 85.6142 158.986 21.4506
      vertex 85.2 160.985 21.5204
      vertex 85.2 158.986 21.4506
    endloop
  endfacet
  facet normal 0 -0.0348921 0.999391
    outer loop
      vertex 91.025 159.985 21.4855
      vertex 93.2 159.985 21.4855
      vertex 92.0284 162.812 21.5842
    endloop
  endfacet
  facet normal 0 -0.0348921 0.999391
    outer loop
      vertex 93.2 159.985 21.4855
      vertex 91.025 159.985 21.4855
      vertex 92.0284 157.158 21.3868
    endloop
  endfacet
  facet normal -3.84735e-05 -0.0348784 0.999392
    outer loop
      vertex 92.0284 162.812 21.5842
      vertex 90.4905 161.275 21.5305
      vertex 91.025 159.985 21.4855
    endloop
  endfacet
  facet normal -3.15351e-06 -0.0349137 0.99939
    outer loop
      vertex 89.2 163.983 21.6251
      vertex 90.4905 161.275 21.5305
      vertex 92.0284 162.812 21.5842
    endloop
  endfacet
  facet normal 4.38863e-05 -0.0348913 0.999391
    outer loop
      vertex 89.2 163.983 21.6251
      vertex 89.2 161.809 21.5492
      vertex 90.4905 161.275 21.5305
    endloop
  endfacet
  facet normal -4.38863e-05 -0.0348913 0.999391
    outer loop
      vertex 89.2 163.983 21.6251
      vertex 87.9095 161.275 21.5305
      vertex 89.2 161.809 21.5492
    endloop
  endfacet
  facet normal 1.23985e-05 -0.0349045 0.999391
    outer loop
      vertex 85.6142 160.985 21.5204
      vertex 87.9095 161.275 21.5305
      vertex 86.3716 162.812 21.5842
    endloop
  endfacet
  facet normal 3.15351e-06 -0.0349137 0.99939
    outer loop
      vertex 86.3716 162.812 21.5842
      vertex 87.9095 161.275 21.5305
      vertex 89.2 163.983 21.6251
    endloop
  endfacet
  facet normal 3.84735e-05 -0.0348784 0.999392
    outer loop
      vertex 90.4905 158.695 21.4405
      vertex 92.0284 157.158 21.3868
      vertex 91.025 159.985 21.4855
    endloop
  endfacet
  facet normal -3.35318e-05 -0.0349504 0.999389
    outer loop
      vertex 90.4905 158.695 21.4405
      vertex 90.2 156.402 21.3603
      vertex 92.0284 157.158 21.3868
    endloop
  endfacet
  facet normal -1.86406e-05 -0.0349523 0.999389
    outer loop
      vertex 89.2 158.161 21.4218
      vertex 90.2 156.402 21.3603
      vertex 90.4905 158.695 21.4405
    endloop
  endfacet
  facet normal 0 -0.0349417 0.999389
    outer loop
      vertex 88.2 156.402 21.3603
      vertex 90.2 156.402 21.3603
      vertex 89.2 158.161 21.4218
    endloop
  endfacet
  facet normal 0 -0.0347616 0.999396
    outer loop
      vertex 90.2 156.402 21.3603
      vertex 88.2 156.402 21.3603
      vertex 90.2 155.988 21.3459
    endloop
  endfacet
  facet normal 0 -0.0347616 0.999396
    outer loop
      vertex 90.2 155.988 21.3459
      vertex 88.2 156.402 21.3603
      vertex 88.2 155.988 21.3459
    endloop
  endfacet
  facet normal -0.382726 0.923299 0.0322353
    outer loop
      vertex 89.2 164.738 0
      vertex 86.3716 162.812 21.5842
      vertex 89.2 163.983 21.6251
    endloop
  endfacet
  facet normal -0.382606 0.923348 0.0322553
    outer loop
      vertex 86.3716 162.812 21.5842
      vertex 89.2 164.738 0
      vertex 86.3716 163.566 0
    endloop
  endfacet
  facet normal 0.382766 -0.923284 -0.0322021
    outer loop
      vertex 92.0284 157.905 0
      vertex 90.2 156.402 21.3603
      vertex 90.2 157.147 0
    endloop
  endfacet
  facet normal 0.382302 -0.923474 -0.0322552
    outer loop
      vertex 90.2 156.402 21.3603
      vertex 92.0284 157.905 0
      vertex 92.0284 157.158 21.3868
    endloop
  endfacet
  facet normal -0.923906 -0.382386 -0.0133519
    outer loop
      vertex 86.3716 157.905 0
      vertex 85.6142 158.986 21.4506
      vertex 85.6142 159.735 0
    endloop
  endfacet
  facet normal -0.923923 -0.382345 -0.0133546
    outer loop
      vertex 85.6142 158.986 21.4506
      vertex 86.3716 157.905 0
      vertex 86.3716 157.158 21.3868
    endloop
  endfacet
  facet normal 0.923869 -0.382475 -0.0133512
    outer loop
      vertex 93.2 159.985 21.4855
      vertex 92.0284 157.905 0
      vertex 93.2 160.735 0
    endloop
  endfacet
  facet normal 0.923891 -0.382424 -0.0133573
    outer loop
      vertex 92.0284 157.905 0
      vertex 93.2 159.985 21.4855
      vertex 92.0284 157.158 21.3868
    endloop
  endfacet
  facet normal -0.382302 -0.923474 -0.0322552
    outer loop
      vertex 86.3716 157.905 0
      vertex 88.2 156.402 21.3603
      vertex 86.3716 157.158 21.3868
    endloop
  endfacet
  facet normal -0.382766 -0.923284 -0.0322021
    outer loop
      vertex 88.2 156.402 21.3603
      vertex 86.3716 157.905 0
      vertex 88.2 157.147 0
    endloop
  endfacet
  facet normal -0 -0.999391 -0.0348962
    outer loop
      vertex 85.6142 159.735 0
      vertex 85.2 158.986 21.4506
      vertex 79.8341 159.735 0
    endloop
  endfacet
  facet normal 0 -0.999391 -0.0348962
    outer loop
      vertex 85.2 158.986 21.4506
      vertex 85.6142 159.735 0
      vertex 85.6142 158.986 21.4506
    endloop
  endfacet
  facet normal -0.970142 -0.0084845 0.242388
    outer loop
      vertex 79.8341 159.735 0
      vertex 85.2 160.985 21.5204
      vertex 79.8166 161.736 0
    endloop
  endfacet
  facet normal -0.970143 -0.00846354 0.242387
    outer loop
      vertex 85.2 160.985 21.5204
      vertex 79.8341 159.735 0
      vertex 85.2 158.986 21.4506
    endloop
  endfacet
  facet normal 0 0.999392 0.0348759
    outer loop
      vertex 85.6142 161.736 0
      vertex 85.2 160.985 21.5204
      vertex 85.6142 160.985 21.5204
    endloop
  endfacet
  facet normal 0 0.999392 0.0348759
    outer loop
      vertex 85.2 160.985 21.5204
      vertex 85.6142 161.736 0
      vertex 79.8166 161.736 0
    endloop
  endfacet
  facet normal 1 -0 0
    outer loop
      vertex 90.2 155.988 21.3459
      vertex 90.2 157.147 0
      vertex 90.2 156.402 21.3603
    endloop
  endfacet
  facet normal 1 0 0
    outer loop
      vertex 90.2 157.147 0
      vertex 90.2 155.988 21.3459
      vertex 90.2 151.436 0
    endloop
  endfacet
  facet normal 0 -0.97801 0.20856
    outer loop
      vertex 88.2 151.436 0
      vertex 90.2 155.988 21.3459
      vertex 88.2 155.988 21.3459
    endloop
  endfacet
  facet normal 0 -0.97801 0.20856
    outer loop
      vertex 90.2 155.988 21.3459
      vertex 88.2 151.436 0
      vertex 90.2 151.436 0
    endloop
  endfacet
  facet normal -1 0 0
    outer loop
      vertex 88.2 157.147 0
      vertex 88.2 155.988 21.3459
      vertex 88.2 156.402 21.3603
    endloop
  endfacet
  facet normal -1 0 -0
    outer loop
      vertex 88.2 155.988 21.3459
      vertex 88.2 157.147 0
      vertex 88.2 151.436 0
    endloop
  endfacet
  facet normal 0.923876 0.382458 0.0133558
    outer loop
      vertex 92.0284 9.26792 16.2223
      vertex 93.2 7.00427 0
      vertex 92.0284 9.83442 0
    endloop
  endfacet
  facet normal 0.923876 0.382458 0.0133558
    outer loop
      vertex 93.2 7.00427 0
      vertex 92.0284 9.26792 16.2223
      vertex 93.2 6.44122 16.1236
    endloop
  endfacet
  facet normal -0.923872 0.382468 0.0133562
    outer loop
      vertex 85.6142 8.00488 0
      vertex 86.3716 9.26792 16.2223
      vertex 86.3716 9.83442 0
    endloop
  endfacet
  facet normal -0.923872 0.382469 0.0133562
    outer loop
      vertex 86.3716 9.26792 16.2223
      vertex 85.6142 8.00488 0
      vertex 85.6142 7.44061 16.1585
    endloop
  endfacet
  facet normal 0.382671 0.923322 0.0322434
    outer loop
      vertex 90.2 10.5922 0
      vertex 92.0284 9.26792 16.2223
      vertex 92.0284 9.83442 0
    endloop
  endfacet
  facet normal 0.382682 0.923318 0.0322418
    outer loop
      vertex 92.0284 9.26792 16.2223
      vertex 90.2 10.5922 0
      vertex 90.2 10.0248 16.2488
    endloop
  endfacet
  facet normal 0 -0.0347616 0.999396
    outer loop
      vertex 88.2 10.0248 16.2488
      vertex 90.2 10.0248 16.2488
      vertex 90.2 10.4388 16.2632
    endloop
  endfacet
  facet normal 0 -0.0347616 0.999396
    outer loop
      vertex 88.2 10.0248 16.2488
      vertex 90.2 10.4388 16.2632
      vertex 88.2 10.4388 16.2632
    endloop
  endfacet
  facet normal 0 -0.034928 0.99939
    outer loop
      vertex 90.2 10.0248 16.2488
      vertex 88.2 10.0248 16.2488
      vertex 89.2 8.26511 16.1873
    endloop
  endfacet
  facet normal 4.40648e-05 -0.034903 0.999391
    outer loop
      vertex 88.2 10.0248 16.2488
      vertex 87.9095 7.7309 16.1687
      vertex 89.2 8.26511 16.1873
    endloop
  endfacet
  facet normal -4.0803e-05 -0.0348923 0.999391
    outer loop
      vertex 86.3716 9.26792 16.2223
      vertex 87.9095 7.7309 16.1687
      vertex 88.2 10.0248 16.2488
    endloop
  endfacet
  facet normal -2.96873e-05 -0.0348812 0.999391
    outer loop
      vertex 85.6142 7.44061 16.1585
      vertex 87.9095 7.7309 16.1687
      vertex 86.3716 9.26792 16.2223
    endloop
  endfacet
  facet normal 0 -0.0348958 0.999391
    outer loop
      vertex 91.025 6.44122 16.1236
      vertex 93.2 6.44122 16.1236
      vertex 92.0284 9.26792 16.2223
    endloop
  endfacet
  facet normal 0 -0.0348957 0.999391
    outer loop
      vertex 93.2 6.44122 16.1236
      vertex 91.025 6.44122 16.1236
      vertex 92.0284 3.61451 16.0249
    endloop
  endfacet
  facet normal 6.86777e-05 -0.0349201 0.99939
    outer loop
      vertex 92.0284 9.26792 16.2223
      vertex 90.4905 7.7309 16.1687
      vertex 91.025 6.44122 16.1236
    endloop
  endfacet
  facet normal 4.0803e-05 -0.0348923 0.999391
    outer loop
      vertex 90.2 10.0248 16.2488
      vertex 90.4905 7.7309 16.1687
      vertex 92.0284 9.26792 16.2223
    endloop
  endfacet
  facet normal -4.40648e-05 -0.034903 0.999391
    outer loop
      vertex 90.4905 7.7309 16.1687
      vertex 90.2 10.0248 16.2488
      vertex 89.2 8.26511 16.1873
    endloop
  endfacet
  facet normal 3.2228e-05 -0.0348842 0.999391
    outer loop
      vertex 90.4905 5.15153 16.0786
      vertex 92.0284 3.61451 16.0249
      vertex 91.025 6.44122 16.1236
    endloop
  endfacet
  facet normal -1.98569e-05 -0.0349363 0.99939
    outer loop
      vertex 89.2 4.61733 16.0599
      vertex 92.0284 3.61451 16.0249
      vertex 90.4905 5.15153 16.0786
    endloop
  endfacet
  facet normal -5.7281e-06 -0.0348965 0.999391
    outer loop
      vertex 89.2 4.61733 16.0599
      vertex 89.2 2.44365 15.984
      vertex 92.0284 3.61451 16.0249
    endloop
  endfacet
  facet normal 3.63526e-05 -0.0348965 0.999391
    outer loop
      vertex 87.9095 5.15153 16.0786
      vertex 89.2 2.44365 15.984
      vertex 89.2 4.61733 16.0599
    endloop
  endfacet
  facet normal -1.79852e-06 -0.0349146 0.99939
    outer loop
      vertex 87.9095 5.15153 16.0786
      vertex 86.3716 3.61451 16.0249
      vertex 89.2 2.44365 15.984
    endloop
  endfacet
  facet normal -1.34072e-05 -0.0348764 0.999392
    outer loop
      vertex 85.6142 5.44183 16.0887
      vertex 87.9095 5.15153 16.0786
      vertex 87.375 6.44122 16.1236
    endloop
  endfacet
  facet normal -2.23236e-05 -0.0349393 0.999389
    outer loop
      vertex 87.9095 7.7309 16.1687
      vertex 85.6142 7.44061 16.1585
      vertex 87.375 6.44122 16.1236
    endloop
  endfacet
  facet normal 0 -0.0349 0.999391
    outer loop
      vertex 85.6142 5.44183 16.0887
      vertex 87.375 6.44122 16.1236
      vertex 85.6142 7.44061 16.1585
    endloop
  endfacet
  facet normal -1.63971e-05 -0.0349 0.999391
    outer loop
      vertex 87.9095 5.15153 16.0786
      vertex 85.6142 5.44183 16.0887
      vertex 86.3716 3.61451 16.0249
    endloop
  endfacet
  facet normal 0 -0.0349 0.999391
    outer loop
      vertex 85.2 7.44061 16.1585
      vertex 85.6142 5.44183 16.0887
      vertex 85.6142 7.44061 16.1585
    endloop
  endfacet
  facet normal 0 -0.0349 0.999391
    outer loop
      vertex 85.6142 5.44183 16.0887
      vertex 85.2 7.44061 16.1585
      vertex 85.2 5.44183 16.0887
    endloop
  endfacet
  facet normal -0.382682 0.923318 0.0322418
    outer loop
      vertex 88.2 10.5922 0
      vertex 86.3716 9.26792 16.2223
      vertex 88.2 10.0248 16.2488
    endloop
  endfacet
  facet normal -0.382671 0.923322 0.0322434
    outer loop
      vertex 86.3716 9.26792 16.2223
      vertex 88.2 10.5922 0
      vertex 86.3716 9.83442 0
    endloop
  endfacet
  facet normal 0.382687 -0.923315 -0.0322432
    outer loop
      vertex 92.0284 4.17412 0
      vertex 89.2 2.44365 15.984
      vertex 89.2 3.00183 0
    endloop
  endfacet
  facet normal 0.382687 -0.923315 -0.0322433
    outer loop
      vertex 89.2 2.44365 15.984
      vertex 92.0284 4.17412 0
      vertex 92.0284 3.61451 16.0249
    endloop
  endfacet
  facet normal -0.923872 -0.382468 -0.0133561
    outer loop
      vertex 86.3716 4.17412 0
      vertex 85.6142 5.44183 16.0887
      vertex 85.6142 6.00366 0
    endloop
  endfacet
  facet normal -0.923873 -0.382467 -0.0133562
    outer loop
      vertex 85.6142 5.44183 16.0887
      vertex 86.3716 4.17412 0
      vertex 86.3716 3.61451 16.0249
    endloop
  endfacet
  facet normal 0.923876 -0.382458 -0.0133558
    outer loop
      vertex 93.2 6.44122 16.1236
      vertex 92.0284 4.17412 0
      vertex 93.2 7.00427 0
    endloop
  endfacet
  facet normal 0.923877 -0.382457 -0.0133559
    outer loop
      vertex 92.0284 4.17412 0
      vertex 93.2 6.44122 16.1236
      vertex 92.0284 3.61451 16.0249
    endloop
  endfacet
  facet normal -0.382687 -0.923315 -0.0322433
    outer loop
      vertex 86.3716 4.17412 0
      vertex 89.2 2.44365 15.984
      vertex 86.3716 3.61451 16.0249
    endloop
  endfacet
  facet normal -0.382687 -0.923315 -0.0322432
    outer loop
      vertex 89.2 2.44365 15.984
      vertex 86.3716 4.17412 0
      vertex 89.2 3.00183 0
    endloop
  endfacet
  facet normal -0 -0.999391 -0.0348995
    outer loop
      vertex 85.6142 6.00366 0
      vertex 85.2 5.44183 16.0887
      vertex 81.1754 6.00366 0
    endloop
  endfacet
  facet normal 0 -0.999391 -0.0348995
    outer loop
      vertex 85.2 5.44183 16.0887
      vertex 85.6142 6.00366 0
      vertex 85.6142 5.44183 16.0887
    endloop
  endfacet
  facet normal -0.970142 -0.00848357 0.242388
    outer loop
      vertex 81.1754 6.00366 0
      vertex 85.2 7.44061 16.1585
      vertex 81.1579 8.00488 0
    endloop
  endfacet
  facet normal -0.970143 -0.00846445 0.242386
    outer loop
      vertex 85.2 7.44061 16.1585
      vertex 81.1754 6.00366 0
      vertex 85.2 5.44183 16.0887
    endloop
  endfacet
  facet normal 0 0.999391 0.0348997
    outer loop
      vertex 85.6142 8.00488 0
      vertex 85.2 7.44061 16.1585
      vertex 85.6142 7.44061 16.1585
    endloop
  endfacet
  facet normal 0 0.999391 0.0348997
    outer loop
      vertex 85.2 7.44061 16.1585
      vertex 85.6142 8.00488 0
      vertex 81.1579 8.00488 0
    endloop
  endfacet
  facet normal -1 0 0
    outer loop
      vertex 88.2 10.5922 0
      vertex 88.2 10.4388 16.2632
      vertex 88.2 15.1133 0
    endloop
  endfacet
  facet normal -1 0 -0
    outer loop
      vertex 88.2 10.4388 16.2632
      vertex 88.2 10.5922 0
      vertex 88.2 10.0248 16.2488
    endloop
  endfacet
  facet normal 0 0.961088 0.276244
    outer loop
      vertex 90.2 15.1133 0
      vertex 88.2 10.4388 16.2632
      vertex 90.2 10.4388 16.2632
    endloop
  endfacet
  facet normal 0 0.961088 0.276244
    outer loop
      vertex 88.2 10.4388 16.2632
      vertex 90.2 15.1133 0
      vertex 88.2 15.1133 0
    endloop
  endfacet
  facet normal 1 0 0
    outer loop
      vertex 90.2 10.4388 16.2632
      vertex 90.2 10.5922 0
      vertex 90.2 15.1133 0
    endloop
  endfacet
  facet normal 1 0 0
    outer loop
      vertex 90.2 10.5922 0
      vertex 90.2 10.4388 16.2632
      vertex 90.2 10.0248 16.2488
    endloop
  endfacet
  facet normal -0.923879 -0.382452 -0.0133554
    outer loop
      vertex 8.825 7.03919 -1
      vertex 8.29047 7.7309 16.1687
      vertex 8.29047 8.33044 -1
    endloop
  endfacet
  facet normal -0.923879 -0.382451 -0.0133555
    outer loop
      vertex 8.29047 7.7309 16.1687
      vertex 8.825 7.03919 -1
      vertex 8.825 6.44122 16.1236
    endloop
  endfacet
  facet normal 0.923879 -0.382452 -0.0133554
    outer loop
      vertex 5.70953 7.7309 16.1687
      vertex 5.175 7.03919 -1
      vertex 5.70953 8.33044 -1
    endloop
  endfacet
  facet normal 0.923879 -0.382451 -0.0133555
    outer loop
      vertex 5.175 7.03919 -1
      vertex 5.70953 7.7309 16.1687
      vertex 5.175 6.44122 16.1236
    endloop
  endfacet
  facet normal -0.382686 -0.923316 -0.0322427
    outer loop
      vertex 7 8.8653 -1
      vertex 8.29047 7.7309 16.1687
      vertex 7 8.26511 16.1873
    endloop
  endfacet
  facet normal -0.382686 -0.923316 -0.0322427
    outer loop
      vertex 8.29047 7.7309 16.1687
      vertex 7 8.8653 -1
      vertex 8.29047 8.33044 -1
    endloop
  endfacet
  facet normal 0.382686 -0.923316 -0.0322427
    outer loop
      vertex 7 8.8653 -1
      vertex 5.70953 7.7309 16.1687
      vertex 5.70953 8.33044 -1
    endloop
  endfacet
  facet normal 0.382686 -0.923316 -0.0322427
    outer loop
      vertex 5.70953 7.7309 16.1687
      vertex 7 8.8653 -1
      vertex 7 8.26511 16.1873
    endloop
  endfacet
  facet normal -0.382682 0.923317 0.0322431
    outer loop
      vertex 8.29047 5.74793 -1
      vertex 7 4.61733 16.0599
      vertex 8.29047 5.15153 16.0786
    endloop
  endfacet
  facet normal -0.38268 0.923318 0.0322433
    outer loop
      vertex 7 4.61733 16.0599
      vertex 8.29047 5.74793 -1
      vertex 7 5.21308 -1
    endloop
  endfacet
  facet normal 0.92388 0.382449 0.0133554
    outer loop
      vertex 5.175 6.44122 16.1236
      vertex 5.70953 5.74793 -1
      vertex 5.175 7.03919 -1
    endloop
  endfacet
  facet normal 0.92388 0.382449 0.0133555
    outer loop
      vertex 5.70953 5.74793 -1
      vertex 5.175 6.44122 16.1236
      vertex 5.70953 5.15153 16.0786
    endloop
  endfacet
  facet normal 0.38268 0.923318 0.0322433
    outer loop
      vertex 5.70953 5.74793 -1
      vertex 7 4.61733 16.0599
      vertex 7 5.21308 -1
    endloop
  endfacet
  facet normal 0.382682 0.923317 0.0322431
    outer loop
      vertex 7 4.61733 16.0599
      vertex 5.70953 5.74793 -1
      vertex 5.70953 5.15153 16.0786
    endloop
  endfacet
  facet normal -0.92388 0.382449 0.0133554
    outer loop
      vertex 8.29047 5.74793 -1
      vertex 8.825 6.44122 16.1236
      vertex 8.825 7.03919 -1
    endloop
  endfacet
  facet normal -0.92388 0.382449 0.0133555
    outer loop
      vertex 8.825 6.44122 16.1236
      vertex 8.29047 5.74793 -1
      vertex 8.29047 5.15153 16.0786
    endloop
  endfacet
  facet normal -0.923957 -0.382262 -0.0133526
    outer loop
      vertex 8.825 160.77 -1
      vertex 8.29047 161.275 21.5305
      vertex 8.29047 162.062 -1
    endloop
  endfacet
  facet normal -0.923913 -0.382371 -0.0133491
    outer loop
      vertex 8.29047 161.275 21.5305
      vertex 8.825 160.77 -1
      vertex 8.825 159.985 21.4855
    endloop
  endfacet
  facet normal 0.38216 -0.923533 -0.0322594
    outer loop
      vertex 7 162.596 -1
      vertex 5.70953 161.275 21.5305
      vertex 5.70953 162.062 -1
    endloop
  endfacet
  facet normal 0.382559 -0.923369 -0.0322269
    outer loop
      vertex 5.70953 161.275 21.5305
      vertex 7 162.596 -1
      vertex 7 161.809 21.5492
    endloop
  endfacet
  facet normal -0.382559 -0.923369 -0.0322269
    outer loop
      vertex 7 162.596 -1
      vertex 8.29047 161.275 21.5305
      vertex 7 161.809 21.5492
    endloop
  endfacet
  facet normal -0.38216 -0.923533 -0.0322594
    outer loop
      vertex 8.29047 161.275 21.5305
      vertex 7 162.596 -1
      vertex 8.29047 162.062 -1
    endloop
  endfacet
  facet normal 0.923957 -0.382262 -0.0133526
    outer loop
      vertex 5.70953 161.275 21.5305
      vertex 5.175 160.77 -1
      vertex 5.70953 162.062 -1
    endloop
  endfacet
  facet normal 0.923913 -0.382371 -0.0133491
    outer loop
      vertex 5.175 160.77 -1
      vertex 5.70953 161.275 21.5305
      vertex 5.175 159.985 21.4855
    endloop
  endfacet
  facet normal -0.923853 0.382515 0.0133541
    outer loop
      vertex 8.29047 159.479 -1
      vertex 8.825 159.985 21.4855
      vertex 8.825 160.77 -1
    endloop
  endfacet
  facet normal -0.923913 0.38237 0.0133588
    outer loop
      vertex 8.825 159.985 21.4855
      vertex 8.29047 159.479 -1
      vertex 8.29047 158.695 21.4405
    endloop
  endfacet
  facet normal 0.382771 0.92328 0.0322422
    outer loop
      vertex 5.70953 159.479 -1
      vertex 7 158.161 21.4218
      vertex 7 158.944 -1
    endloop
  endfacet
  facet normal 0.382559 0.923368 0.0322595
    outer loop
      vertex 7 158.161 21.4218
      vertex 5.70953 159.479 -1
      vertex 5.70953 158.695 21.4405
    endloop
  endfacet
  facet normal 0.923853 0.382515 0.0133541
    outer loop
      vertex 5.175 159.985 21.4855
      vertex 5.70953 159.479 -1
      vertex 5.175 160.77 -1
    endloop
  endfacet
  facet normal 0.923913 0.38237 0.0133588
    outer loop
      vertex 5.70953 159.479 -1
      vertex 5.175 159.985 21.4855
      vertex 5.70953 158.695 21.4405
    endloop
  endfacet
  facet normal -0.382559 0.923368 0.0322595
    outer loop
      vertex 8.29047 159.479 -1
      vertex 7 158.161 21.4218
      vertex 8.29047 158.695 21.4405
    endloop
  endfacet
  facet normal -0.382771 0.92328 0.0322422
    outer loop
      vertex 7 158.161 21.4218
      vertex 8.29047 159.479 -1
      vertex 7 158.944 -1
    endloop
  endfacet
  facet normal -0.923965 -0.382244 -0.0133519
    outer loop
      vertex 91.025 160.77 -1
      vertex 90.4905 161.275 21.5305
      vertex 90.4905 162.062 -1
    endloop
  endfacet
  facet normal -0.92392 -0.382352 -0.0133485
    outer loop
      vertex 90.4905 161.275 21.5305
      vertex 91.025 160.77 -1
      vertex 91.025 159.985 21.4855
    endloop
  endfacet
  facet normal 0.382153 -0.923536 -0.0322595
    outer loop
      vertex 89.2 162.596 -1
      vertex 87.9095 161.275 21.5305
      vertex 87.9095 162.062 -1
    endloop
  endfacet
  facet normal 0.382552 -0.923372 -0.032227
    outer loop
      vertex 87.9095 161.275 21.5305
      vertex 89.2 162.596 -1
      vertex 89.2 161.809 21.5492
    endloop
  endfacet
  facet normal -0.382552 -0.923372 -0.032227
    outer loop
      vertex 89.2 162.596 -1
      vertex 90.4905 161.275 21.5305
      vertex 89.2 161.809 21.5492
    endloop
  endfacet
  facet normal -0.382153 -0.923536 -0.0322595
    outer loop
      vertex 90.4905 161.275 21.5305
      vertex 89.2 162.596 -1
      vertex 90.4905 162.062 -1
    endloop
  endfacet
  facet normal 0.923965 -0.382244 -0.0133519
    outer loop
      vertex 87.9095 161.275 21.5305
      vertex 87.375 160.77 -1
      vertex 87.9095 162.062 -1
    endloop
  endfacet
  facet normal 0.92392 -0.382352 -0.0133485
    outer loop
      vertex 87.375 160.77 -1
      vertex 87.9095 161.275 21.5305
      vertex 87.375 159.985 21.4855
    endloop
  endfacet
  facet normal -0.92386 0.382497 0.0133535
    outer loop
      vertex 90.4905 159.479 -1
      vertex 91.025 159.985 21.4855
      vertex 91.025 160.77 -1
    endloop
  endfacet
  facet normal -0.92392 0.382352 0.0133582
    outer loop
      vertex 91.025 159.985 21.4855
      vertex 90.4905 159.479 -1
      vertex 90.4905 158.695 21.4405
    endloop
  endfacet
  facet normal 0.382764 0.923283 0.0322423
    outer loop
      vertex 87.9095 159.479 -1
      vertex 89.2 158.161 21.4218
      vertex 89.2 158.944 -1
    endloop
  endfacet
  facet normal 0.382552 0.923371 0.0322596
    outer loop
      vertex 89.2 158.161 21.4218
      vertex 87.9095 159.479 -1
      vertex 87.9095 158.695 21.4405
    endloop
  endfacet
  facet normal 0.92386 0.382497 0.0133535
    outer loop
      vertex 87.375 159.985 21.4855
      vertex 87.9095 159.479 -1
      vertex 87.375 160.77 -1
    endloop
  endfacet
  facet normal 0.92392 0.382352 0.0133582
    outer loop
      vertex 87.9095 159.479 -1
      vertex 87.375 159.985 21.4855
      vertex 87.9095 158.695 21.4405
    endloop
  endfacet
  facet normal -0.382552 0.923371 0.0322596
    outer loop
      vertex 90.4905 159.479 -1
      vertex 89.2 158.161 21.4218
      vertex 90.4905 158.695 21.4405
    endloop
  endfacet
  facet normal -0.382764 0.923283 0.0322423
    outer loop
      vertex 89.2 158.161 21.4218
      vertex 90.4905 159.479 -1
      vertex 89.2 158.944 -1
    endloop
  endfacet
  facet normal -0.923886 -0.382434 -0.0133548
    outer loop
      vertex 91.025 7.03919 -1
      vertex 90.4905 7.7309 16.1687
      vertex 90.4905 8.33044 -1
    endloop
  endfacet
  facet normal -0.923887 -0.382432 -0.0133548
    outer loop
      vertex 90.4905 7.7309 16.1687
      vertex 91.025 7.03919 -1
      vertex 91.025 6.44122 16.1236
    endloop
  endfacet
  facet normal 0.923888 0.382431 0.0133548
    outer loop
      vertex 87.375 6.44122 16.1236
      vertex 87.9095 5.74793 -1
      vertex 87.375 7.03919 -1
    endloop
  endfacet
  facet normal 0.923888 0.382431 0.0133548
    outer loop
      vertex 87.9095 5.74793 -1
      vertex 87.375 6.44122 16.1236
      vertex 87.9095 5.15153 16.0786
    endloop
  endfacet
  facet normal 0.382678 -0.923319 -0.0322428
    outer loop
      vertex 89.2 8.8653 -1
      vertex 87.9095 7.7309 16.1687
      vertex 87.9095 8.33044 -1
    endloop
  endfacet
  facet normal 0.382678 -0.923319 -0.0322428
    outer loop
      vertex 87.9095 7.7309 16.1687
      vertex 89.2 8.8653 -1
      vertex 89.2 8.26511 16.1873
    endloop
  endfacet
  facet normal -0.382678 -0.923319 -0.0322428
    outer loop
      vertex 89.2 8.8653 -1
      vertex 90.4905 7.7309 16.1687
      vertex 89.2 8.26511 16.1873
    endloop
  endfacet
  facet normal -0.382678 -0.923319 -0.0322428
    outer loop
      vertex 90.4905 7.7309 16.1687
      vertex 89.2 8.8653 -1
      vertex 90.4905 8.33044 -1
    endloop
  endfacet
  facet normal 0.923886 -0.382434 -0.0133548
    outer loop
      vertex 87.9095 7.7309 16.1687
      vertex 87.375 7.03919 -1
      vertex 87.9095 8.33044 -1
    endloop
  endfacet
  facet normal 0.923887 -0.382432 -0.0133548
    outer loop
      vertex 87.375 7.03919 -1
      vertex 87.9095 7.7309 16.1687
      vertex 87.375 6.44122 16.1236
    endloop
  endfacet
  facet normal -0.382674 0.923321 0.0322432
    outer loop
      vertex 90.4905 5.74793 -1
      vertex 89.2 4.61733 16.0599
      vertex 90.4905 5.15153 16.0786
    endloop
  endfacet
  facet normal -0.382672 0.923321 0.0322434
    outer loop
      vertex 89.2 4.61733 16.0599
      vertex 90.4905 5.74793 -1
      vertex 89.2 5.21308 -1
    endloop
  endfacet
  facet normal 0.382672 0.923321 0.0322434
    outer loop
      vertex 87.9095 5.74793 -1
      vertex 89.2 4.61733 16.0599
      vertex 89.2 5.21308 -1
    endloop
  endfacet
  facet normal 0.382674 0.923321 0.0322432
    outer loop
      vertex 89.2 4.61733 16.0599
      vertex 87.9095 5.74793 -1
      vertex 87.9095 5.15153 16.0786
    endloop
  endfacet
  facet normal -0.923888 0.382431 0.0133548
    outer loop
      vertex 90.4905 5.74793 -1
      vertex 91.025 6.44122 16.1236
      vertex 91.025 7.03919 -1
    endloop
  endfacet
  facet normal -0.923888 0.382431 0.0133548
    outer loop
      vertex 91.025 6.44122 16.1236
      vertex 90.4905 5.74793 -1
      vertex 90.4905 5.15153 16.0786
    endloop
  endfacet
  facet normal 0 0 -1
    outer loop
      vertex 8.29047 159.479 -1
      vertex 87.9095 159.479 -1
      vertex 8.29047 8.33044 -1
    endloop
  endfacet
  facet normal 0 0 -1
    outer loop
      vertex 87.9095 159.479 -1
      vertex 8.29047 159.479 -1
      vertex 8.825 160.77 -1
    endloop
  endfacet
  facet normal 0 0 -1
    outer loop
      vertex 7 8.8653 -1
      vertex 8.29047 159.479 -1
      vertex 8.29047 8.33044 -1
    endloop
  endfacet
  facet normal 0 0 -1
    outer loop
      vertex 7 8.8653 -1
      vertex 7 158.944 -1
      vertex 8.29047 159.479 -1
    endloop
  endfacet
  facet normal 0 0 -1
    outer loop
      vertex 5.70953 8.33044 -1
      vertex 7 158.944 -1
      vertex 7 8.8653 -1
    endloop
  endfacet
  facet normal 0 0 -1
    outer loop
      vertex 5.70953 8.33044 -1
      vertex 5.70953 159.479 -1
      vertex 7 158.944 -1
    endloop
  endfacet
  facet normal 0 0 -1
    outer loop
      vertex 0 4.03736 -1
      vertex 5.70953 8.33044 -1
      vertex 5.175 7.03919 -1
    endloop
  endfacet
  facet normal -0 0 -1
    outer loop
      vertex 5.70953 8.33044 -1
      vertex 0 4.03736 -1
      vertex 5.70953 159.479 -1
    endloop
  endfacet
  facet normal 0 0 -1
    outer loop
      vertex 90.4905 159.479 -1
      vertex 96.2 163.772 -1
      vertex 90.4905 8.33044 -1
    endloop
  endfacet
  facet normal 0 0 -1
    outer loop
      vertex 96.2 163.772 -1
      vertex 90.4905 159.479 -1
      vertex 91.025 160.77 -1
    endloop
  endfacet
  facet normal 0 0 -1
    outer loop
      vertex 89.2 8.8653 -1
      vertex 90.4905 159.479 -1
      vertex 90.4905 8.33044 -1
    endloop
  endfacet
  facet normal 0 0 -1
    outer loop
      vertex 89.2 8.8653 -1
      vertex 89.2 158.944 -1
      vertex 90.4905 159.479 -1
    endloop
  endfacet
  facet normal 0 0 -1
    outer loop
      vertex 87.9095 8.33044 -1
      vertex 89.2 158.944 -1
      vertex 89.2 8.8653 -1
    endloop
  endfacet
  facet normal 0 0 -1
    outer loop
      vertex 87.9095 8.33044 -1
      vertex 87.9095 159.479 -1
      vertex 89.2 158.944 -1
    endloop
  endfacet
  facet normal 0 0 -1
    outer loop
      vertex 8.825 7.03919 -1
      vertex 87.9095 8.33044 -1
      vertex 87.375 7.03919 -1
    endloop
  endfacet
  facet normal 0 0 -1
    outer loop
      vertex 8.29047 8.33044 -1
      vertex 87.9095 8.33044 -1
      vertex 8.825 7.03919 -1
    endloop
  endfacet
  facet normal 0 0 -1
    outer loop
      vertex 94.296 0.903632 -1
      vertex 96.2 4.03736 -1
      vertex 95.0284 1.20721 -1
    endloop
  endfacet
  facet normal 0 0 -1
    outer loop
      vertex 90.4905 8.33044 -1
      vertex 96.2 4.03736 -1
      vertex 91.025 7.03919 -1
    endloop
  endfacet
  facet normal -0 0 -1
    outer loop
      vertex 96.2 4.03736 -1
      vertex 94.296 0.903632 -1
      vertex 90.4905 5.74793 -1
    endloop
  endfacet
  facet normal 0 0 -1
    outer loop
      vertex 90.4905 5.74793 -1
      vertex 94.296 0.903632 -1
      vertex 92.2 0.0349214 -1
    endloop
  endfacet
  facet normal 0 0 -1
    outer loop
      vertex 96.2 4.03736 -1
      vertex 90.4905 8.33044 -1
      vertex 96.2 163.772 -1
    endloop
  endfacet
  facet normal 0 0 -1
    outer loop
      vertex 90.4905 162.062 -1
      vertex 96.2 163.772 -1
      vertex 91.025 160.77 -1
    endloop
  endfacet
  facet normal 0 0 -1
    outer loop
      vertex 96.2 4.03736 -1
      vertex 90.4905 5.74793 -1
      vertex 91.025 7.03919 -1
    endloop
  endfacet
  facet normal 0 0 -1
    outer loop
      vertex 92.2 0.0349214 -1
      vertex 89.2 5.21308 -1
      vertex 90.4905 5.74793 -1
    endloop
  endfacet
  facet normal 0 0 -1
    outer loop
      vertex 92.2 0.0349214 -1
      vertex 87.9095 5.74793 -1
      vertex 89.2 5.21308 -1
    endloop
  endfacet
  facet normal 0 0 -1
    outer loop
      vertex 87.9095 8.33044 -1
      vertex 8.29047 8.33044 -1
      vertex 87.9095 159.479 -1
    endloop
  endfacet
  facet normal 0 0 -1
    outer loop
      vertex 87.9095 5.74793 -1
      vertex 8.825 7.03919 -1
      vertex 87.375 7.03919 -1
    endloop
  endfacet
  facet normal 0 0 -1
    outer loop
      vertex 8.29047 5.74793 -1
      vertex 87.9095 5.74793 -1
      vertex 92.2 0.0349214 -1
    endloop
  endfacet
  facet normal 0 0 -1
    outer loop
      vertex 87.9095 5.74793 -1
      vertex 8.29047 5.74793 -1
      vertex 8.825 7.03919 -1
    endloop
  endfacet
  facet normal 0 0 -1
    outer loop
      vertex 4 0.0349214 -1
      vertex 8.29047 5.74793 -1
      vertex 92.2 0.0349214 -1
    endloop
  endfacet
  facet normal 0 0 -1
    outer loop
      vertex 0 4.03736 -1
      vertex 5.70953 5.74793 -1
      vertex 1.90402 0.903632 -1
    endloop
  endfacet
  facet normal 0 0 -1
    outer loop
      vertex 1.90402 0.903632 -1
      vertex 5.70953 5.74793 -1
      vertex 4 0.0349214 -1
    endloop
  endfacet
  facet normal -0 0 -1
    outer loop
      vertex 7 5.21308 -1
      vertex 4 0.0349214 -1
      vertex 5.70953 5.74793 -1
    endloop
  endfacet
  facet normal 0 0 -1
    outer loop
      vertex 8.29047 5.74793 -1
      vertex 4 0.0349214 -1
      vertex 7 5.21308 -1
    endloop
  endfacet
  facet normal -0 0 -1
    outer loop
      vertex 96.2 163.772 -1
      vertex 90.4905 162.062 -1
      vertex 95.0284 166.602 -1
    endloop
  endfacet
  facet normal -0 0 -1
    outer loop
      vertex 95.0284 166.602 -1
      vertex 90.4905 162.062 -1
      vertex 92.2 167.775 -1
    endloop
  endfacet
  facet normal 0 0 -1
    outer loop
      vertex 89.2 162.596 -1
      vertex 92.2 167.775 -1
      vertex 90.4905 162.062 -1
    endloop
  endfacet
  facet normal 0 0 -1
    outer loop
      vertex 87.9095 162.062 -1
      vertex 92.2 167.775 -1
      vertex 89.2 162.596 -1
    endloop
  endfacet
  facet normal 0 0 -1
    outer loop
      vertex 87.9095 159.479 -1
      vertex 8.825 160.77 -1
      vertex 87.375 160.77 -1
    endloop
  endfacet
  facet normal 0 0 -1
    outer loop
      vertex 87.375 160.77 -1
      vertex 8.825 160.77 -1
      vertex 87.9095 162.062 -1
    endloop
  endfacet
  facet normal 0 0 -1
    outer loop
      vertex 8.29047 162.062 -1
      vertex 87.9095 162.062 -1
      vertex 8.825 160.77 -1
    endloop
  endfacet
  facet normal 0 0 -1
    outer loop
      vertex 87.9095 162.062 -1
      vertex 8.29047 162.062 -1
      vertex 92.2 167.775 -1
    endloop
  endfacet
  facet normal 0 0 -1
    outer loop
      vertex 4 167.775 -1
      vertex 8.29047 162.062 -1
      vertex 7 162.596 -1
    endloop
  endfacet
  facet normal 0 0 -1
    outer loop
      vertex 8.29047 162.062 -1
      vertex 4 167.775 -1
      vertex 92.2 167.775 -1
    endloop
  endfacet
  facet normal 0 0 -1
    outer loop
      vertex 5.70953 162.062 -1
      vertex 4 167.775 -1
      vertex 7 162.596 -1
    endloop
  endfacet
  facet normal 0 0 -1
    outer loop
      vertex 0 163.772 -1
      vertex 5.70953 162.062 -1
      vertex 5.175 160.77 -1
    endloop
  endfacet
  facet normal 0 0 -1
    outer loop
      vertex 0 163.772 -1
      vertex 5.70953 159.479 -1
      vertex 0 4.03736 -1
    endloop
  endfacet
  facet normal -0 0 -1
    outer loop
      vertex 5.70953 5.74793 -1
      vertex 0 4.03736 -1
      vertex 5.175 7.03919 -1
    endloop
  endfacet
  facet normal 0 0 -1
    outer loop
      vertex 0 4.03736 -1
      vertex 1.90402 0.903632 -1
      vertex 1.17157 1.20721 -1
    endloop
  endfacet
  facet normal 0 0 -1
    outer loop
      vertex 5.70953 159.479 -1
      vertex 0 163.772 -1
      vertex 5.175 160.77 -1
    endloop
  endfacet
  facet normal 0 0 -1
    outer loop
      vertex 5.70953 162.062 -1
      vertex 0 163.772 -1
      vertex 1.17157 166.602 -1
    endloop
  endfacet
  facet normal 0 0 -1
    outer loop
      vertex 5.70953 162.062 -1
      vertex 1.17157 166.602 -1
      vertex 4 167.775 -1
    endloop
  endfacet
  facet normal 0 0 1
    outer loop
      vertex 4.17157 157.905 0
      vertex 6 151.436 0
      vertex 6 157.147 0
    endloop
  endfacet
  facet normal 0 0 1
    outer loop
      vertex 0 163.737 0
      vertex 6 151.436 0
      vertex 4.17157 157.905 0
    endloop
  endfacet
  facet normal 0 0 1
    outer loop
      vertex 0 4.00244 0
      vertex 6 151.436 0
      vertex 0 163.737 0
    endloop
  endfacet
  facet normal 0 0 1
    outer loop
      vertex 6 15.1133 0
      vertex 4.17157 9.83442 0
      vertex 6 10.5922 0
    endloop
  endfacet
  facet normal 0 0 1
    outer loop
      vertex 0 163.737 0
      vertex 4.17157 157.905 0
      vertex 3 160.735 0
    endloop
  endfacet
  facet normal 0 0 1
    outer loop
      vertex 6 151.436 0
      vertex 0 4.00244 0
      vertex 6 15.1133 0
    endloop
  endfacet
  facet normal -0 0 1
    outer loop
      vertex 6 151.436 0
      vertex 8 15.1133 0
      vertex 8 151.436 0
    endloop
  endfacet
  facet normal 0 0 1
    outer loop
      vertex 8 15.1133 0
      vertex 6 151.436 0
      vertex 6 15.1133 0
    endloop
  endfacet
  facet normal 0 0 1
    outer loop
      vertex 9.82843 157.905 0
      vertex 16.3659 159.735 0
      vertex 10.5858 159.735 0
    endloop
  endfacet
  facet normal 0 0 1
    outer loop
      vertex 16.3659 159.735 0
      vertex 8 151.436 0
      vertex 15.0421 8.00488 0
    endloop
  endfacet
  facet normal 0 0 1
    outer loop
      vertex 16.3659 159.735 0
      vertex 9.82843 157.905 0
      vertex 8 151.436 0
    endloop
  endfacet
  facet normal -0 0 1
    outer loop
      vertex 8 15.1133 0
      vertex 15.0421 8.00488 0
      vertex 8 151.436 0
    endloop
  endfacet
  facet normal 0 0 1
    outer loop
      vertex 8 151.436 0
      vertex 9.82843 157.905 0
      vertex 8 157.147 0
    endloop
  endfacet
  facet normal -0 -0 1
    outer loop
      vertex 9.82843 9.83442 0
      vertex 15.0421 8.00488 0
      vertex 8 15.1133 0
    endloop
  endfacet
  facet normal 0 0 1
    outer loop
      vertex 15.0421 8.00488 0
      vertex 9.82843 9.83442 0
      vertex 10.5858 8.00488 0
    endloop
  endfacet
  facet normal 0 0 1
    outer loop
      vertex 9.82843 9.83442 0
      vertex 8 15.1133 0
      vertex 8 10.5922 0
    endloop
  endfacet
  facet normal 0 0 1
    outer loop
      vertex 86.3716 157.905 0
      vertex 88.2 151.436 0
      vertex 88.2 157.147 0
    endloop
  endfacet
  facet normal -0 0 1
    outer loop
      vertex 16.3659 159.735 0
      vertex 88.2 151.436 0
      vertex 79.8341 159.735 0
    endloop
  endfacet
  facet normal 0 0 1
    outer loop
      vertex 88.2 151.436 0
      vertex 86.3716 157.905 0
      vertex 79.8341 159.735 0
    endloop
  endfacet
  facet normal 0 0 1
    outer loop
      vertex 88.2 151.436 0
      vertex 16.3659 159.735 0
      vertex 88.2 15.1133 0
    endloop
  endfacet
  facet normal -0 0 1
    outer loop
      vertex 79.8341 159.735 0
      vertex 86.3716 157.905 0
      vertex 85.6142 159.735 0
    endloop
  endfacet
  facet normal 0 0 1
    outer loop
      vertex 88.2 15.1133 0
      vertex 86.3716 9.83442 0
      vertex 88.2 10.5922 0
    endloop
  endfacet
  facet normal 0 0 1
    outer loop
      vertex 86.3716 9.83442 0
      vertex 81.1579 8.00488 0
      vertex 85.6142 8.00488 0
    endloop
  endfacet
  facet normal 0 0 1
    outer loop
      vertex 88.2 15.1133 0
      vertex 81.1579 8.00488 0
      vertex 86.3716 9.83442 0
    endloop
  endfacet
  facet normal -0 0 1
    outer loop
      vertex 88.2 151.436 0
      vertex 90.2 15.1133 0
      vertex 90.2 151.436 0
    endloop
  endfacet
  facet normal 0 0 1
    outer loop
      vertex 90.2 15.1133 0
      vertex 88.2 151.436 0
      vertex 88.2 15.1133 0
    endloop
  endfacet
  facet normal 0 0 1
    outer loop
      vertex 96.2 163.737 0
      vertex 90.2 151.436 0
      vertex 96.2 4.00244 0
    endloop
  endfacet
  facet normal -0 0 1
    outer loop
      vertex 90.2 15.1133 0
      vertex 96.2 4.00244 0
      vertex 90.2 151.436 0
    endloop
  endfacet
  facet normal 0 0 1
    outer loop
      vertex 90.2 151.436 0
      vertex 92.0284 157.905 0
      vertex 90.2 157.147 0
    endloop
  endfacet
  facet normal -0 -0 1
    outer loop
      vertex 92.0284 9.83442 0
      vertex 96.2 4.00244 0
      vertex 90.2 15.1133 0
    endloop
  endfacet
  facet normal 0 0 1
    outer loop
      vertex 96.2 4.00244 0
      vertex 92.0284 9.83442 0
      vertex 93.2 7.00427 0
    endloop
  endfacet
  facet normal 0 0 1
    outer loop
      vertex 92.0284 9.83442 0
      vertex 90.2 15.1133 0
      vertex 90.2 10.5922 0
    endloop
  endfacet
  facet normal 0 0 1
    outer loop
      vertex 92.0284 163.566 0
      vertex 96.2 163.737 0
      vertex 95.0284 166.567 0
    endloop
  endfacet
  facet normal 0 0 1
    outer loop
      vertex 92.0284 157.905 0
      vertex 96.2 163.737 0
      vertex 93.2 160.735 0
    endloop
  endfacet
  facet normal -0 0 1
    outer loop
      vertex 92.0284 4.17412 0
      vertex 96.2 4.00244 0
      vertex 93.2 7.00427 0
    endloop
  endfacet
  facet normal 0 0 1
    outer loop
      vertex 90.2 151.436 0
      vertex 96.2 163.737 0
      vertex 92.0284 157.905 0
    endloop
  endfacet
  facet normal 0 0 1
    outer loop
      vertex 92.0284 163.566 0
      vertex 95.0284 166.567 0
      vertex 92.2 167.74 0
    endloop
  endfacet
  facet normal 0 0 1
    outer loop
      vertex 96.2 163.737 0
      vertex 92.0284 163.566 0
      vertex 93.2 160.735 0
    endloop
  endfacet
  facet normal 0 0 1
    outer loop
      vertex 92.2 167.74 0
      vertex 89.2 164.738 0
      vertex 92.0284 163.566 0
    endloop
  endfacet
  facet normal 0 0 1
    outer loop
      vertex 92.2 167.74 0
      vertex 86.3716 163.566 0
      vertex 89.2 164.738 0
    endloop
  endfacet
  facet normal 0 0 1
    outer loop
      vertex 86.3716 163.566 0
      vertex 79.8166 161.736 0
      vertex 85.6142 161.736 0
    endloop
  endfacet
  facet normal 0 0 1
    outer loop
      vertex 92.2 167.74 0
      vertex 79.8166 161.736 0
      vertex 86.3716 163.566 0
    endloop
  endfacet
  facet normal 0 0 1
    outer loop
      vertex 92.2 167.74 0
      vertex 16.3834 161.736 0
      vertex 79.8166 161.736 0
    endloop
  endfacet
  facet normal -0 0 1
    outer loop
      vertex 4 167.74 0
      vertex 16.3834 161.736 0
      vertex 92.2 167.74 0
    endloop
  endfacet
  facet normal 0 0 1
    outer loop
      vertex 16.3834 161.736 0
      vertex 9.82843 163.566 0
      vertex 10.5858 161.736 0
    endloop
  endfacet
  facet normal 0 0 1
    outer loop
      vertex 16.3834 161.736 0
      vertex 4 167.74 0
      vertex 9.82843 163.566 0
    endloop
  endfacet
  facet normal 0 0 1
    outer loop
      vertex 9.82843 163.566 0
      vertex 4 167.74 0
      vertex 7 164.738 0
    endloop
  endfacet
  facet normal 0 0 1
    outer loop
      vertex 4 167.74 0
      vertex 4.17157 163.566 0
      vertex 7 164.738 0
    endloop
  endfacet
  facet normal -0 0 1
    outer loop
      vertex 1.17157 166.567 0
      vertex 4.17157 163.566 0
      vertex 4 167.74 0
    endloop
  endfacet
  facet normal 0 0 1
    outer loop
      vertex 4.17157 9.83442 0
      vertex 0 4.00244 0
      vertex 3 7.00427 0
    endloop
  endfacet
  facet normal -0 0 1
    outer loop
      vertex 0 163.737 0
      vertex 4.17157 163.566 0
      vertex 1.17157 166.567 0
    endloop
  endfacet
  facet normal 0 0 1
    outer loop
      vertex 4.17157 163.566 0
      vertex 0 163.737 0
      vertex 3 160.735 0
    endloop
  endfacet
  facet normal 0 0 1
    outer loop
      vertex 6 15.1133 0
      vertex 0 4.00244 0
      vertex 4.17157 9.83442 0
    endloop
  endfacet
  facet normal 0 0 1
    outer loop
      vertex 3 7.00427 0
      vertex 0 4.00244 0
      vertex 1.86277 0.885812 0
    endloop
  endfacet
  facet normal 0 0 1
    outer loop
      vertex 1.86277 0.885812 0
      vertex 0 4.00244 0
      vertex 1.17157 1.17229 0
    endloop
  endfacet
  facet normal 0 0 1
    outer loop
      vertex 96.2 4.00244 0
      vertex 92.0284 4.17412 0
      vertex 95.0284 1.17229 0
    endloop
  endfacet
  facet normal 0 0 1
    outer loop
      vertex 95.0284 1.17229 0
      vertex 92.0284 4.17412 0
      vertex 94.3372 0.885812 0
    endloop
  endfacet
  facet normal 0 0 1
    outer loop
      vertex 94.3372 0.885812 0
      vertex 92.0284 4.17412 0
      vertex 92.2 6.53453e-07 0
    endloop
  endfacet
  facet normal -0 0 1
    outer loop
      vertex 89.2 3.00183 0
      vertex 92.2 6.53453e-07 0
      vertex 92.0284 4.17412 0
    endloop
  endfacet
  facet normal 0 0 1
    outer loop
      vertex 86.3716 4.17412 0
      vertex 92.2 6.53453e-07 0
      vertex 89.2 3.00183 0
    endloop
  endfacet
  facet normal -0 0 1
    outer loop
      vertex 81.1754 6.00366 0
      vertex 86.3716 4.17412 0
      vertex 85.6142 6.00366 0
    endloop
  endfacet
  facet normal 0 0 1
    outer loop
      vertex 81.1754 6.00366 0
      vertex 92.2 6.53453e-07 0
      vertex 86.3716 4.17412 0
    endloop
  endfacet
  facet normal 0 0 1
    outer loop
      vertex 16.3659 159.735 0
      vertex 79.8341 159.735 0
      vertex 79.8166 161.736 0
    endloop
  endfacet
  facet normal 0 0 1
    outer loop
      vertex 16.3659 159.735 0
      vertex 79.8166 161.736 0
      vertex 16.3834 161.736 0
    endloop
  endfacet
  facet normal 0 0 1
    outer loop
      vertex 15.0421 8.00488 0
      vertex 88.2 15.1133 0
      vertex 16.3659 159.735 0
    endloop
  endfacet
  facet normal 0 0 1
    outer loop
      vertex 88.2 15.1133 0
      vertex 15.0421 8.00488 0
      vertex 81.1579 8.00488 0
    endloop
  endfacet
  facet normal 0 0 1
    outer loop
      vertex 81.1579 8.00488 0
      vertex 15.0421 8.00488 0
      vertex 81.1754 6.00366 0
    endloop
  endfacet
  facet normal 0 0 1
    outer loop
      vertex 15.0246 6.00366 0
      vertex 81.1754 6.00366 0
      vertex 15.0421 8.00488 0
    endloop
  endfacet
  facet normal 0 0 1
    outer loop
      vertex 81.1754 6.00366 0
      vertex 15.0246 6.00366 0
      vertex 92.2 6.53453e-07 0
    endloop
  endfacet
  facet normal 0 0 1
    outer loop
      vertex 9.82843 4.17412 0
      vertex 15.0246 6.00366 0
      vertex 10.5858 6.00366 0
    endloop
  endfacet
  facet normal 0 0 1
    outer loop
      vertex 4 6.53453e-07 0
      vertex 15.0246 6.00366 0
      vertex 9.82843 4.17412 0
    endloop
  endfacet
  facet normal 0 0 1
    outer loop
      vertex 4 6.53453e-07 0
      vertex 9.82843 4.17412 0
      vertex 7 3.00183 0
    endloop
  endfacet
  facet normal 0 0 1
    outer loop
      vertex 15.0246 6.00366 0
      vertex 4 6.53453e-07 0
      vertex 92.2 6.53453e-07 0
    endloop
  endfacet
  facet normal 0 0 1
    outer loop
      vertex 4.17157 4.17412 0
      vertex 4 6.53453e-07 0
      vertex 7 3.00183 0
    endloop
  endfacet
  facet normal 0 0 1
    outer loop
      vertex 1.86277 0.885812 0
      vertex 4.17157 4.17412 0
      vertex 3 7.00427 0
    endloop
  endfacet
  facet normal 0 0 1
    outer loop
      vertex 4.17157 4.17412 0
      vertex 1.86277 0.885812 0
      vertex 4 6.53453e-07 0
    endloop
  endfacet
  facet normal -0.923872 0.382467 0.0133863
    outer loop
      vertex 0 163.772 -1
      vertex 1.17157 166.567 0
      vertex 1.17157 166.602 -1
    endloop
  endfacet
  facet normal -0.923872 0.382467 0.0133863
    outer loop
      vertex 1.17157 166.567 0
      vertex 0 163.772 -1
      vertex 0 163.737 0
    endloop
  endfacet
  facet normal 0.382884 0.923231 0.0323131
    outer loop
      vertex 95.0284 166.602 -1
      vertex 92.2 167.74 0
      vertex 95.0284 166.567 0
    endloop
  endfacet
  facet normal 0.382884 0.923231 0.0323131
    outer loop
      vertex 92.2 167.74 0
      vertex 95.0284 166.602 -1
      vertex 92.2 167.775 -1
    endloop
  endfacet
  facet normal 0 0.999388 0.0349786
    outer loop
      vertex 92.2 167.775 -1
      vertex 4 167.74 0
      vertex 92.2 167.74 0
    endloop
  endfacet
  facet normal 0 0.999388 0.0349786
    outer loop
      vertex 4 167.74 0
      vertex 92.2 167.775 -1
      vertex 4 167.775 -1
    endloop
  endfacet
  facet normal -1 0 0
    outer loop
      vertex 0 4.03736 -1
      vertex 0 163.737 0
      vertex 0 163.772 -1
    endloop
  endfacet
  facet normal -1 -0 0
    outer loop
      vertex 0 163.737 0
      vertex 0 4.03736 -1
      vertex 0 4.00244 0
    endloop
  endfacet
  facet normal -0.382684 -0.923317 -0.0322392
    outer loop
      vertex 1.90402 0.903632 -1
      vertex 4 6.53453e-07 0
      vertex 1.86277 0.885812 0
    endloop
  endfacet
  facet normal -0.382683 -0.923317 -0.0322429
    outer loop
      vertex 4 6.53453e-07 0
      vertex 1.90402 0.903632 -1
      vertex 4 0.0349214 -1
    endloop
  endfacet
  facet normal -0.382881 0.923232 0.0323131
    outer loop
      vertex 4 167.775 -1
      vertex 1.17157 166.567 0
      vertex 4 167.74 0
    endloop
  endfacet
  facet normal -0.382881 0.923232 0.0323131
    outer loop
      vertex 1.17157 166.567 0
      vertex 4 167.775 -1
      vertex 1.17157 166.602 -1
    endloop
  endfacet
  facet normal 0.923876 -0.382458 -0.0133554
    outer loop
      vertex 96.2 4.00244 0
      vertex 95.0284 1.20721 -1
      vertex 96.2 4.03736 -1
    endloop
  endfacet
  facet normal 0.923876 -0.382458 -0.0133554
    outer loop
      vertex 95.0284 1.20721 -1
      vertex 96.2 4.00244 0
      vertex 95.0284 1.17229 0
    endloop
  endfacet
  facet normal -0.92388 -0.38245 -0.0133551
    outer loop
      vertex 1.17157 1.20721 -1
      vertex 0 4.00244 0
      vertex 0 4.03736 -1
    endloop
  endfacet
  facet normal -0.92388 -0.38245 -0.0133551
    outer loop
      vertex 0 4.00244 0
      vertex 1.17157 1.20721 -1
      vertex 1.17157 1.17229 0
    endloop
  endfacet
  facet normal -0.382682 -0.923317 -0.0322422
    outer loop
      vertex 1.17157 1.20721 -1
      vertex 1.86277 0.885812 0
      vertex 1.17157 1.17229 0
    endloop
  endfacet
  facet normal -0.382686 -0.923316 -0.0322393
    outer loop
      vertex 1.86277 0.885812 0
      vertex 1.17157 1.20721 -1
      vertex 1.90402 0.903632 -1
    endloop
  endfacet
  facet normal 0 -0.999391 -0.0348995
    outer loop
      vertex 4 0.0349214 -1
      vertex 92.2 6.53453e-07 0
      vertex 4 6.53453e-07 0
    endloop
  endfacet
  facet normal 0 -0.999391 -0.0348995
    outer loop
      vertex 92.2 6.53453e-07 0
      vertex 4 0.0349214 -1
      vertex 92.2 0.0349214 -1
    endloop
  endfacet
  facet normal 0.923869 0.382475 0.0133866
    outer loop
      vertex 95.0284 166.567 0
      vertex 96.2 163.772 -1
      vertex 95.0284 166.602 -1
    endloop
  endfacet
  facet normal 0.923869 0.382475 0.0133866
    outer loop
      vertex 96.2 163.772 -1
      vertex 95.0284 166.567 0
      vertex 96.2 163.737 0
    endloop
  endfacet
  facet normal 1 0 0
    outer loop
      vertex 96.2 163.737 0
      vertex 96.2 4.03736 -1
      vertex 96.2 163.772 -1
    endloop
  endfacet
  facet normal 1 0 -0
    outer loop
      vertex 96.2 4.03736 -1
      vertex 96.2 163.737 0
      vertex 96.2 4.00244 0
    endloop
  endfacet
  facet normal 0.382709 -0.923307 -0.0322209
    outer loop
      vertex 95.0284 1.20721 -1
      vertex 94.3372 0.885812 0
      vertex 94.296 0.903632 -1
    endloop
  endfacet
  facet normal 0.382682 -0.923317 -0.0322422
    outer loop
      vertex 94.3372 0.885812 0
      vertex 95.0284 1.20721 -1
      vertex 95.0284 1.17229 0
    endloop
  endfacet
  facet normal 0.38268 -0.923318 -0.032243
    outer loop
      vertex 94.296 0.903632 -1
      vertex 92.2 6.53453e-07 0
      vertex 92.2 0.0349214 -1
    endloop
  endfacet
  facet normal 0.382689 -0.923315 -0.0322203
    outer loop
      vertex 92.2 6.53453e-07 0
      vertex 94.296 0.903632 -1
      vertex 94.3372 0.885812 0
    endloop
  endfacet
endsolid OpenSCAD_Model
