G04 #@! TF.GenerationSoftware,KiCad,Pcbnew,7.0.6*
G04 #@! TF.CreationDate,2023-11-12T21:08:56+01:00*
G04 #@! TF.ProjectId,main,6d61696e-2e6b-4696-9361-645f70636258,rev?*
G04 #@! TF.SameCoordinates,Original*
G04 #@! TF.FileFunction,Legend,Top*
G04 #@! TF.FilePolarity,Positive*
%FSLAX46Y46*%
G04 Gerber Fmt 4.6, Leading zero omitted, Abs format (unit mm)*
G04 Created by KiCad (PCBNEW 7.0.6) date 2023-11-12 21:08:56*
%MOMM*%
%LPD*%
G01*
G04 APERTURE LIST*
%ADD10C,0.150000*%
%ADD11C,2.200000*%
%ADD12C,1.701800*%
%ADD13C,3.000000*%
%ADD14C,3.987800*%
%ADD15C,3.048000*%
%ADD16C,1.600000*%
%ADD17O,1.700000X1.700000*%
%ADD18R,1.700000X1.700000*%
G04 APERTURE END LIST*
D10*
X33064166Y-53584819D02*
X32730833Y-53108628D01*
X32492738Y-53584819D02*
X32492738Y-52584819D01*
X32492738Y-52584819D02*
X32873690Y-52584819D01*
X32873690Y-52584819D02*
X32968928Y-52632438D01*
X32968928Y-52632438D02*
X33016547Y-52680057D01*
X33016547Y-52680057D02*
X33064166Y-52775295D01*
X33064166Y-52775295D02*
X33064166Y-52918152D01*
X33064166Y-52918152D02*
X33016547Y-53013390D01*
X33016547Y-53013390D02*
X32968928Y-53061009D01*
X32968928Y-53061009D02*
X32873690Y-53108628D01*
X32873690Y-53108628D02*
X32492738Y-53108628D01*
X33492738Y-53061009D02*
X33826071Y-53061009D01*
X33968928Y-53584819D02*
X33492738Y-53584819D01*
X33492738Y-53584819D02*
X33492738Y-52584819D01*
X33492738Y-52584819D02*
X33968928Y-52584819D01*
X34730833Y-53061009D02*
X34397500Y-53061009D01*
X34397500Y-53584819D02*
X34397500Y-52584819D01*
X34397500Y-52584819D02*
X34873690Y-52584819D01*
X35397500Y-52584819D02*
X35397500Y-52822914D01*
X35159405Y-52727676D02*
X35397500Y-52822914D01*
X35397500Y-52822914D02*
X35635595Y-52727676D01*
X35254643Y-53013390D02*
X35397500Y-52822914D01*
X35397500Y-52822914D02*
X35540357Y-53013390D01*
X36159405Y-52584819D02*
X36159405Y-52822914D01*
X35921310Y-52727676D02*
X36159405Y-52822914D01*
X36159405Y-52822914D02*
X36397500Y-52727676D01*
X36016548Y-53013390D02*
X36159405Y-52822914D01*
X36159405Y-52822914D02*
X36302262Y-53013390D01*
X220064166Y-164584819D02*
X219730833Y-164108628D01*
X219492738Y-164584819D02*
X219492738Y-163584819D01*
X219492738Y-163584819D02*
X219873690Y-163584819D01*
X219873690Y-163584819D02*
X219968928Y-163632438D01*
X219968928Y-163632438D02*
X220016547Y-163680057D01*
X220016547Y-163680057D02*
X220064166Y-163775295D01*
X220064166Y-163775295D02*
X220064166Y-163918152D01*
X220064166Y-163918152D02*
X220016547Y-164013390D01*
X220016547Y-164013390D02*
X219968928Y-164061009D01*
X219968928Y-164061009D02*
X219873690Y-164108628D01*
X219873690Y-164108628D02*
X219492738Y-164108628D01*
X220492738Y-164061009D02*
X220826071Y-164061009D01*
X220968928Y-164584819D02*
X220492738Y-164584819D01*
X220492738Y-164584819D02*
X220492738Y-163584819D01*
X220492738Y-163584819D02*
X220968928Y-163584819D01*
X221730833Y-164061009D02*
X221397500Y-164061009D01*
X221397500Y-164584819D02*
X221397500Y-163584819D01*
X221397500Y-163584819D02*
X221873690Y-163584819D01*
X222397500Y-163584819D02*
X222397500Y-163822914D01*
X222159405Y-163727676D02*
X222397500Y-163822914D01*
X222397500Y-163822914D02*
X222635595Y-163727676D01*
X222254643Y-164013390D02*
X222397500Y-163822914D01*
X222397500Y-163822914D02*
X222540357Y-164013390D01*
X223159405Y-163584819D02*
X223159405Y-163822914D01*
X222921310Y-163727676D02*
X223159405Y-163822914D01*
X223159405Y-163822914D02*
X223397500Y-163727676D01*
X223016548Y-164013390D02*
X223159405Y-163822914D01*
X223159405Y-163822914D02*
X223302262Y-164013390D01*
X242564166Y-53584819D02*
X242230833Y-53108628D01*
X241992738Y-53584819D02*
X241992738Y-52584819D01*
X241992738Y-52584819D02*
X242373690Y-52584819D01*
X242373690Y-52584819D02*
X242468928Y-52632438D01*
X242468928Y-52632438D02*
X242516547Y-52680057D01*
X242516547Y-52680057D02*
X242564166Y-52775295D01*
X242564166Y-52775295D02*
X242564166Y-52918152D01*
X242564166Y-52918152D02*
X242516547Y-53013390D01*
X242516547Y-53013390D02*
X242468928Y-53061009D01*
X242468928Y-53061009D02*
X242373690Y-53108628D01*
X242373690Y-53108628D02*
X241992738Y-53108628D01*
X242992738Y-53061009D02*
X243326071Y-53061009D01*
X243468928Y-53584819D02*
X242992738Y-53584819D01*
X242992738Y-53584819D02*
X242992738Y-52584819D01*
X242992738Y-52584819D02*
X243468928Y-52584819D01*
X244230833Y-53061009D02*
X243897500Y-53061009D01*
X243897500Y-53584819D02*
X243897500Y-52584819D01*
X243897500Y-52584819D02*
X244373690Y-52584819D01*
X244897500Y-52584819D02*
X244897500Y-52822914D01*
X244659405Y-52727676D02*
X244897500Y-52822914D01*
X244897500Y-52822914D02*
X245135595Y-52727676D01*
X244754643Y-53013390D02*
X244897500Y-52822914D01*
X244897500Y-52822914D02*
X245040357Y-53013390D01*
X245659405Y-52584819D02*
X245659405Y-52822914D01*
X245421310Y-52727676D02*
X245659405Y-52822914D01*
X245659405Y-52822914D02*
X245897500Y-52727676D01*
X245516548Y-53013390D02*
X245659405Y-52822914D01*
X245659405Y-52822914D02*
X245802262Y-53013390D01*
X55064166Y-164584819D02*
X54730833Y-164108628D01*
X54492738Y-164584819D02*
X54492738Y-163584819D01*
X54492738Y-163584819D02*
X54873690Y-163584819D01*
X54873690Y-163584819D02*
X54968928Y-163632438D01*
X54968928Y-163632438D02*
X55016547Y-163680057D01*
X55016547Y-163680057D02*
X55064166Y-163775295D01*
X55064166Y-163775295D02*
X55064166Y-163918152D01*
X55064166Y-163918152D02*
X55016547Y-164013390D01*
X55016547Y-164013390D02*
X54968928Y-164061009D01*
X54968928Y-164061009D02*
X54873690Y-164108628D01*
X54873690Y-164108628D02*
X54492738Y-164108628D01*
X55492738Y-164061009D02*
X55826071Y-164061009D01*
X55968928Y-164584819D02*
X55492738Y-164584819D01*
X55492738Y-164584819D02*
X55492738Y-163584819D01*
X55492738Y-163584819D02*
X55968928Y-163584819D01*
X56730833Y-164061009D02*
X56397500Y-164061009D01*
X56397500Y-164584819D02*
X56397500Y-163584819D01*
X56397500Y-163584819D02*
X56873690Y-163584819D01*
X57397500Y-163584819D02*
X57397500Y-163822914D01*
X57159405Y-163727676D02*
X57397500Y-163822914D01*
X57397500Y-163822914D02*
X57635595Y-163727676D01*
X57254643Y-164013390D02*
X57397500Y-163822914D01*
X57397500Y-163822914D02*
X57540357Y-164013390D01*
X58159405Y-163584819D02*
X58159405Y-163822914D01*
X57921310Y-163727676D02*
X58159405Y-163822914D01*
X58159405Y-163822914D02*
X58397500Y-163727676D01*
X58016548Y-164013390D02*
X58159405Y-163822914D01*
X58159405Y-163822914D02*
X58302262Y-164013390D01*
X106064166Y-164584819D02*
X105730833Y-164108628D01*
X105492738Y-164584819D02*
X105492738Y-163584819D01*
X105492738Y-163584819D02*
X105873690Y-163584819D01*
X105873690Y-163584819D02*
X105968928Y-163632438D01*
X105968928Y-163632438D02*
X106016547Y-163680057D01*
X106016547Y-163680057D02*
X106064166Y-163775295D01*
X106064166Y-163775295D02*
X106064166Y-163918152D01*
X106064166Y-163918152D02*
X106016547Y-164013390D01*
X106016547Y-164013390D02*
X105968928Y-164061009D01*
X105968928Y-164061009D02*
X105873690Y-164108628D01*
X105873690Y-164108628D02*
X105492738Y-164108628D01*
X106492738Y-164061009D02*
X106826071Y-164061009D01*
X106968928Y-164584819D02*
X106492738Y-164584819D01*
X106492738Y-164584819D02*
X106492738Y-163584819D01*
X106492738Y-163584819D02*
X106968928Y-163584819D01*
X107730833Y-164061009D02*
X107397500Y-164061009D01*
X107397500Y-164584819D02*
X107397500Y-163584819D01*
X107397500Y-163584819D02*
X107873690Y-163584819D01*
X108397500Y-163584819D02*
X108397500Y-163822914D01*
X108159405Y-163727676D02*
X108397500Y-163822914D01*
X108397500Y-163822914D02*
X108635595Y-163727676D01*
X108254643Y-164013390D02*
X108397500Y-163822914D01*
X108397500Y-163822914D02*
X108540357Y-164013390D01*
X109159405Y-163584819D02*
X109159405Y-163822914D01*
X108921310Y-163727676D02*
X109159405Y-163822914D01*
X109159405Y-163822914D02*
X109397500Y-163727676D01*
X109016548Y-164013390D02*
X109159405Y-163822914D01*
X109159405Y-163822914D02*
X109302262Y-164013390D01*
X364064166Y-54584819D02*
X363730833Y-54108628D01*
X363492738Y-54584819D02*
X363492738Y-53584819D01*
X363492738Y-53584819D02*
X363873690Y-53584819D01*
X363873690Y-53584819D02*
X363968928Y-53632438D01*
X363968928Y-53632438D02*
X364016547Y-53680057D01*
X364016547Y-53680057D02*
X364064166Y-53775295D01*
X364064166Y-53775295D02*
X364064166Y-53918152D01*
X364064166Y-53918152D02*
X364016547Y-54013390D01*
X364016547Y-54013390D02*
X363968928Y-54061009D01*
X363968928Y-54061009D02*
X363873690Y-54108628D01*
X363873690Y-54108628D02*
X363492738Y-54108628D01*
X364492738Y-54061009D02*
X364826071Y-54061009D01*
X364968928Y-54584819D02*
X364492738Y-54584819D01*
X364492738Y-54584819D02*
X364492738Y-53584819D01*
X364492738Y-53584819D02*
X364968928Y-53584819D01*
X365730833Y-54061009D02*
X365397500Y-54061009D01*
X365397500Y-54584819D02*
X365397500Y-53584819D01*
X365397500Y-53584819D02*
X365873690Y-53584819D01*
X366397500Y-53584819D02*
X366397500Y-53822914D01*
X366159405Y-53727676D02*
X366397500Y-53822914D01*
X366397500Y-53822914D02*
X366635595Y-53727676D01*
X366254643Y-54013390D02*
X366397500Y-53822914D01*
X366397500Y-53822914D02*
X366540357Y-54013390D01*
X367159405Y-53584819D02*
X367159405Y-53822914D01*
X366921310Y-53727676D02*
X367159405Y-53822914D01*
X367159405Y-53822914D02*
X367397500Y-53727676D01*
X367016548Y-54013390D02*
X367159405Y-53822914D01*
X367159405Y-53822914D02*
X367302262Y-54013390D01*
X296064166Y-163584819D02*
X295730833Y-163108628D01*
X295492738Y-163584819D02*
X295492738Y-162584819D01*
X295492738Y-162584819D02*
X295873690Y-162584819D01*
X295873690Y-162584819D02*
X295968928Y-162632438D01*
X295968928Y-162632438D02*
X296016547Y-162680057D01*
X296016547Y-162680057D02*
X296064166Y-162775295D01*
X296064166Y-162775295D02*
X296064166Y-162918152D01*
X296064166Y-162918152D02*
X296016547Y-163013390D01*
X296016547Y-163013390D02*
X295968928Y-163061009D01*
X295968928Y-163061009D02*
X295873690Y-163108628D01*
X295873690Y-163108628D02*
X295492738Y-163108628D01*
X296492738Y-163061009D02*
X296826071Y-163061009D01*
X296968928Y-163584819D02*
X296492738Y-163584819D01*
X296492738Y-163584819D02*
X296492738Y-162584819D01*
X296492738Y-162584819D02*
X296968928Y-162584819D01*
X297730833Y-163061009D02*
X297397500Y-163061009D01*
X297397500Y-163584819D02*
X297397500Y-162584819D01*
X297397500Y-162584819D02*
X297873690Y-162584819D01*
X298397500Y-162584819D02*
X298397500Y-162822914D01*
X298159405Y-162727676D02*
X298397500Y-162822914D01*
X298397500Y-162822914D02*
X298635595Y-162727676D01*
X298254643Y-163013390D02*
X298397500Y-162822914D01*
X298397500Y-162822914D02*
X298540357Y-163013390D01*
X299159405Y-162584819D02*
X299159405Y-162822914D01*
X298921310Y-162727676D02*
X299159405Y-162822914D01*
X299159405Y-162822914D02*
X299397500Y-162727676D01*
X299016548Y-163013390D02*
X299159405Y-162822914D01*
X299159405Y-162822914D02*
X299302262Y-163013390D01*
X389064166Y-27584819D02*
X388730833Y-27108628D01*
X388492738Y-27584819D02*
X388492738Y-26584819D01*
X388492738Y-26584819D02*
X388873690Y-26584819D01*
X388873690Y-26584819D02*
X388968928Y-26632438D01*
X388968928Y-26632438D02*
X389016547Y-26680057D01*
X389016547Y-26680057D02*
X389064166Y-26775295D01*
X389064166Y-26775295D02*
X389064166Y-26918152D01*
X389064166Y-26918152D02*
X389016547Y-27013390D01*
X389016547Y-27013390D02*
X388968928Y-27061009D01*
X388968928Y-27061009D02*
X388873690Y-27108628D01*
X388873690Y-27108628D02*
X388492738Y-27108628D01*
X389492738Y-27061009D02*
X389826071Y-27061009D01*
X389968928Y-27584819D02*
X389492738Y-27584819D01*
X389492738Y-27584819D02*
X389492738Y-26584819D01*
X389492738Y-26584819D02*
X389968928Y-26584819D01*
X390730833Y-27061009D02*
X390397500Y-27061009D01*
X390397500Y-27584819D02*
X390397500Y-26584819D01*
X390397500Y-26584819D02*
X390873690Y-26584819D01*
X391397500Y-26584819D02*
X391397500Y-26822914D01*
X391159405Y-26727676D02*
X391397500Y-26822914D01*
X391397500Y-26822914D02*
X391635595Y-26727676D01*
X391254643Y-27013390D02*
X391397500Y-26822914D01*
X391397500Y-26822914D02*
X391540357Y-27013390D01*
X392159405Y-26584819D02*
X392159405Y-26822914D01*
X391921310Y-26727676D02*
X392159405Y-26822914D01*
X392159405Y-26822914D02*
X392397500Y-26727676D01*
X392016548Y-27013390D02*
X392159405Y-26822914D01*
X392159405Y-26822914D02*
X392302262Y-27013390D01*
X161064166Y-125584819D02*
X160730833Y-125108628D01*
X160492738Y-125584819D02*
X160492738Y-124584819D01*
X160492738Y-124584819D02*
X160873690Y-124584819D01*
X160873690Y-124584819D02*
X160968928Y-124632438D01*
X160968928Y-124632438D02*
X161016547Y-124680057D01*
X161016547Y-124680057D02*
X161064166Y-124775295D01*
X161064166Y-124775295D02*
X161064166Y-124918152D01*
X161064166Y-124918152D02*
X161016547Y-125013390D01*
X161016547Y-125013390D02*
X160968928Y-125061009D01*
X160968928Y-125061009D02*
X160873690Y-125108628D01*
X160873690Y-125108628D02*
X160492738Y-125108628D01*
X161492738Y-125061009D02*
X161826071Y-125061009D01*
X161968928Y-125584819D02*
X161492738Y-125584819D01*
X161492738Y-125584819D02*
X161492738Y-124584819D01*
X161492738Y-124584819D02*
X161968928Y-124584819D01*
X162730833Y-125061009D02*
X162397500Y-125061009D01*
X162397500Y-125584819D02*
X162397500Y-124584819D01*
X162397500Y-124584819D02*
X162873690Y-124584819D01*
X163397500Y-124584819D02*
X163397500Y-124822914D01*
X163159405Y-124727676D02*
X163397500Y-124822914D01*
X163397500Y-124822914D02*
X163635595Y-124727676D01*
X163254643Y-125013390D02*
X163397500Y-124822914D01*
X163397500Y-124822914D02*
X163540357Y-125013390D01*
X164159405Y-124584819D02*
X164159405Y-124822914D01*
X163921310Y-124727676D02*
X164159405Y-124822914D01*
X164159405Y-124822914D02*
X164397500Y-124727676D01*
X164016548Y-125013390D02*
X164159405Y-124822914D01*
X164159405Y-124822914D02*
X164302262Y-125013390D01*
X388064166Y-185584819D02*
X387730833Y-185108628D01*
X387492738Y-185584819D02*
X387492738Y-184584819D01*
X387492738Y-184584819D02*
X387873690Y-184584819D01*
X387873690Y-184584819D02*
X387968928Y-184632438D01*
X387968928Y-184632438D02*
X388016547Y-184680057D01*
X388016547Y-184680057D02*
X388064166Y-184775295D01*
X388064166Y-184775295D02*
X388064166Y-184918152D01*
X388064166Y-184918152D02*
X388016547Y-185013390D01*
X388016547Y-185013390D02*
X387968928Y-185061009D01*
X387968928Y-185061009D02*
X387873690Y-185108628D01*
X387873690Y-185108628D02*
X387492738Y-185108628D01*
X388492738Y-185061009D02*
X388826071Y-185061009D01*
X388968928Y-185584819D02*
X388492738Y-185584819D01*
X388492738Y-185584819D02*
X388492738Y-184584819D01*
X388492738Y-184584819D02*
X388968928Y-184584819D01*
X389730833Y-185061009D02*
X389397500Y-185061009D01*
X389397500Y-185584819D02*
X389397500Y-184584819D01*
X389397500Y-184584819D02*
X389873690Y-184584819D01*
X390397500Y-184584819D02*
X390397500Y-184822914D01*
X390159405Y-184727676D02*
X390397500Y-184822914D01*
X390397500Y-184822914D02*
X390635595Y-184727676D01*
X390254643Y-185013390D02*
X390397500Y-184822914D01*
X390397500Y-184822914D02*
X390540357Y-185013390D01*
X391159405Y-184584819D02*
X391159405Y-184822914D01*
X390921310Y-184727676D02*
X391159405Y-184822914D01*
X391159405Y-184822914D02*
X391397500Y-184727676D01*
X391016548Y-185013390D02*
X391159405Y-184822914D01*
X391159405Y-184822914D02*
X391302262Y-185013390D01*
X80064166Y-106584819D02*
X79730833Y-106108628D01*
X79492738Y-106584819D02*
X79492738Y-105584819D01*
X79492738Y-105584819D02*
X79873690Y-105584819D01*
X79873690Y-105584819D02*
X79968928Y-105632438D01*
X79968928Y-105632438D02*
X80016547Y-105680057D01*
X80016547Y-105680057D02*
X80064166Y-105775295D01*
X80064166Y-105775295D02*
X80064166Y-105918152D01*
X80064166Y-105918152D02*
X80016547Y-106013390D01*
X80016547Y-106013390D02*
X79968928Y-106061009D01*
X79968928Y-106061009D02*
X79873690Y-106108628D01*
X79873690Y-106108628D02*
X79492738Y-106108628D01*
X80492738Y-106061009D02*
X80826071Y-106061009D01*
X80968928Y-106584819D02*
X80492738Y-106584819D01*
X80492738Y-106584819D02*
X80492738Y-105584819D01*
X80492738Y-105584819D02*
X80968928Y-105584819D01*
X81730833Y-106061009D02*
X81397500Y-106061009D01*
X81397500Y-106584819D02*
X81397500Y-105584819D01*
X81397500Y-105584819D02*
X81873690Y-105584819D01*
X82397500Y-105584819D02*
X82397500Y-105822914D01*
X82159405Y-105727676D02*
X82397500Y-105822914D01*
X82397500Y-105822914D02*
X82635595Y-105727676D01*
X82254643Y-106013390D02*
X82397500Y-105822914D01*
X82397500Y-105822914D02*
X82540357Y-106013390D01*
X83159405Y-105584819D02*
X83159405Y-105822914D01*
X82921310Y-105727676D02*
X83159405Y-105822914D01*
X83159405Y-105822914D02*
X83397500Y-105727676D01*
X83016548Y-106013390D02*
X83159405Y-105822914D01*
X83159405Y-105822914D02*
X83302262Y-106013390D01*
X157064166Y-53084819D02*
X156730833Y-52608628D01*
X156492738Y-53084819D02*
X156492738Y-52084819D01*
X156492738Y-52084819D02*
X156873690Y-52084819D01*
X156873690Y-52084819D02*
X156968928Y-52132438D01*
X156968928Y-52132438D02*
X157016547Y-52180057D01*
X157016547Y-52180057D02*
X157064166Y-52275295D01*
X157064166Y-52275295D02*
X157064166Y-52418152D01*
X157064166Y-52418152D02*
X157016547Y-52513390D01*
X157016547Y-52513390D02*
X156968928Y-52561009D01*
X156968928Y-52561009D02*
X156873690Y-52608628D01*
X156873690Y-52608628D02*
X156492738Y-52608628D01*
X157492738Y-52561009D02*
X157826071Y-52561009D01*
X157968928Y-53084819D02*
X157492738Y-53084819D01*
X157492738Y-53084819D02*
X157492738Y-52084819D01*
X157492738Y-52084819D02*
X157968928Y-52084819D01*
X158730833Y-52561009D02*
X158397500Y-52561009D01*
X158397500Y-53084819D02*
X158397500Y-52084819D01*
X158397500Y-52084819D02*
X158873690Y-52084819D01*
X159397500Y-52084819D02*
X159397500Y-52322914D01*
X159159405Y-52227676D02*
X159397500Y-52322914D01*
X159397500Y-52322914D02*
X159635595Y-52227676D01*
X159254643Y-52513390D02*
X159397500Y-52322914D01*
X159397500Y-52322914D02*
X159540357Y-52513390D01*
X160159405Y-52084819D02*
X160159405Y-52322914D01*
X159921310Y-52227676D02*
X160159405Y-52322914D01*
X160159405Y-52322914D02*
X160397500Y-52227676D01*
X160016548Y-52513390D02*
X160159405Y-52322914D01*
X160159405Y-52322914D02*
X160302262Y-52513390D01*
X364564166Y-106584819D02*
X364230833Y-106108628D01*
X363992738Y-106584819D02*
X363992738Y-105584819D01*
X363992738Y-105584819D02*
X364373690Y-105584819D01*
X364373690Y-105584819D02*
X364468928Y-105632438D01*
X364468928Y-105632438D02*
X364516547Y-105680057D01*
X364516547Y-105680057D02*
X364564166Y-105775295D01*
X364564166Y-105775295D02*
X364564166Y-105918152D01*
X364564166Y-105918152D02*
X364516547Y-106013390D01*
X364516547Y-106013390D02*
X364468928Y-106061009D01*
X364468928Y-106061009D02*
X364373690Y-106108628D01*
X364373690Y-106108628D02*
X363992738Y-106108628D01*
X364992738Y-106061009D02*
X365326071Y-106061009D01*
X365468928Y-106584819D02*
X364992738Y-106584819D01*
X364992738Y-106584819D02*
X364992738Y-105584819D01*
X364992738Y-105584819D02*
X365468928Y-105584819D01*
X366230833Y-106061009D02*
X365897500Y-106061009D01*
X365897500Y-106584819D02*
X365897500Y-105584819D01*
X365897500Y-105584819D02*
X366373690Y-105584819D01*
X366897500Y-105584819D02*
X366897500Y-105822914D01*
X366659405Y-105727676D02*
X366897500Y-105822914D01*
X366897500Y-105822914D02*
X367135595Y-105727676D01*
X366754643Y-106013390D02*
X366897500Y-105822914D01*
X366897500Y-105822914D02*
X367040357Y-106013390D01*
X367659405Y-105584819D02*
X367659405Y-105822914D01*
X367421310Y-105727676D02*
X367659405Y-105822914D01*
X367659405Y-105822914D02*
X367897500Y-105727676D01*
X367516548Y-106013390D02*
X367659405Y-105822914D01*
X367659405Y-105822914D02*
X367802262Y-106013390D01*
X31064166Y-27584819D02*
X30730833Y-27108628D01*
X30492738Y-27584819D02*
X30492738Y-26584819D01*
X30492738Y-26584819D02*
X30873690Y-26584819D01*
X30873690Y-26584819D02*
X30968928Y-26632438D01*
X30968928Y-26632438D02*
X31016547Y-26680057D01*
X31016547Y-26680057D02*
X31064166Y-26775295D01*
X31064166Y-26775295D02*
X31064166Y-26918152D01*
X31064166Y-26918152D02*
X31016547Y-27013390D01*
X31016547Y-27013390D02*
X30968928Y-27061009D01*
X30968928Y-27061009D02*
X30873690Y-27108628D01*
X30873690Y-27108628D02*
X30492738Y-27108628D01*
X31492738Y-27061009D02*
X31826071Y-27061009D01*
X31968928Y-27584819D02*
X31492738Y-27584819D01*
X31492738Y-27584819D02*
X31492738Y-26584819D01*
X31492738Y-26584819D02*
X31968928Y-26584819D01*
X32730833Y-27061009D02*
X32397500Y-27061009D01*
X32397500Y-27584819D02*
X32397500Y-26584819D01*
X32397500Y-26584819D02*
X32873690Y-26584819D01*
X33397500Y-26584819D02*
X33397500Y-26822914D01*
X33159405Y-26727676D02*
X33397500Y-26822914D01*
X33397500Y-26822914D02*
X33635595Y-26727676D01*
X33254643Y-27013390D02*
X33397500Y-26822914D01*
X33397500Y-26822914D02*
X33540357Y-27013390D01*
X34159405Y-26584819D02*
X34159405Y-26822914D01*
X33921310Y-26727676D02*
X34159405Y-26822914D01*
X34159405Y-26822914D02*
X34397500Y-26727676D01*
X34016548Y-27013390D02*
X34159405Y-26822914D01*
X34159405Y-26822914D02*
X34302262Y-27013390D01*
X367064166Y-163584819D02*
X366730833Y-163108628D01*
X366492738Y-163584819D02*
X366492738Y-162584819D01*
X366492738Y-162584819D02*
X366873690Y-162584819D01*
X366873690Y-162584819D02*
X366968928Y-162632438D01*
X366968928Y-162632438D02*
X367016547Y-162680057D01*
X367016547Y-162680057D02*
X367064166Y-162775295D01*
X367064166Y-162775295D02*
X367064166Y-162918152D01*
X367064166Y-162918152D02*
X367016547Y-163013390D01*
X367016547Y-163013390D02*
X366968928Y-163061009D01*
X366968928Y-163061009D02*
X366873690Y-163108628D01*
X366873690Y-163108628D02*
X366492738Y-163108628D01*
X367492738Y-163061009D02*
X367826071Y-163061009D01*
X367968928Y-163584819D02*
X367492738Y-163584819D01*
X367492738Y-163584819D02*
X367492738Y-162584819D01*
X367492738Y-162584819D02*
X367968928Y-162584819D01*
X368730833Y-163061009D02*
X368397500Y-163061009D01*
X368397500Y-163584819D02*
X368397500Y-162584819D01*
X368397500Y-162584819D02*
X368873690Y-162584819D01*
X369397500Y-162584819D02*
X369397500Y-162822914D01*
X369159405Y-162727676D02*
X369397500Y-162822914D01*
X369397500Y-162822914D02*
X369635595Y-162727676D01*
X369254643Y-163013390D02*
X369397500Y-162822914D01*
X369397500Y-162822914D02*
X369540357Y-163013390D01*
X370159405Y-162584819D02*
X370159405Y-162822914D01*
X369921310Y-162727676D02*
X370159405Y-162822914D01*
X370159405Y-162822914D02*
X370397500Y-162727676D01*
X370016548Y-163013390D02*
X370159405Y-162822914D01*
X370159405Y-162822914D02*
X370302262Y-163013390D01*
X29064166Y-185584819D02*
X28730833Y-185108628D01*
X28492738Y-185584819D02*
X28492738Y-184584819D01*
X28492738Y-184584819D02*
X28873690Y-184584819D01*
X28873690Y-184584819D02*
X28968928Y-184632438D01*
X28968928Y-184632438D02*
X29016547Y-184680057D01*
X29016547Y-184680057D02*
X29064166Y-184775295D01*
X29064166Y-184775295D02*
X29064166Y-184918152D01*
X29064166Y-184918152D02*
X29016547Y-185013390D01*
X29016547Y-185013390D02*
X28968928Y-185061009D01*
X28968928Y-185061009D02*
X28873690Y-185108628D01*
X28873690Y-185108628D02*
X28492738Y-185108628D01*
X29492738Y-185061009D02*
X29826071Y-185061009D01*
X29968928Y-185584819D02*
X29492738Y-185584819D01*
X29492738Y-185584819D02*
X29492738Y-184584819D01*
X29492738Y-184584819D02*
X29968928Y-184584819D01*
X30730833Y-185061009D02*
X30397500Y-185061009D01*
X30397500Y-185584819D02*
X30397500Y-184584819D01*
X30397500Y-184584819D02*
X30873690Y-184584819D01*
X31397500Y-184584819D02*
X31397500Y-184822914D01*
X31159405Y-184727676D02*
X31397500Y-184822914D01*
X31397500Y-184822914D02*
X31635595Y-184727676D01*
X31254643Y-185013390D02*
X31397500Y-184822914D01*
X31397500Y-184822914D02*
X31540357Y-185013390D01*
X32159405Y-184584819D02*
X32159405Y-184822914D01*
X31921310Y-184727676D02*
X32159405Y-184822914D01*
X32159405Y-184822914D02*
X32397500Y-184727676D01*
X32016548Y-185013390D02*
X32159405Y-184822914D01*
X32159405Y-184822914D02*
X32302262Y-185013390D01*
X232564166Y-106584819D02*
X232230833Y-106108628D01*
X231992738Y-106584819D02*
X231992738Y-105584819D01*
X231992738Y-105584819D02*
X232373690Y-105584819D01*
X232373690Y-105584819D02*
X232468928Y-105632438D01*
X232468928Y-105632438D02*
X232516547Y-105680057D01*
X232516547Y-105680057D02*
X232564166Y-105775295D01*
X232564166Y-105775295D02*
X232564166Y-105918152D01*
X232564166Y-105918152D02*
X232516547Y-106013390D01*
X232516547Y-106013390D02*
X232468928Y-106061009D01*
X232468928Y-106061009D02*
X232373690Y-106108628D01*
X232373690Y-106108628D02*
X231992738Y-106108628D01*
X232992738Y-106061009D02*
X233326071Y-106061009D01*
X233468928Y-106584819D02*
X232992738Y-106584819D01*
X232992738Y-106584819D02*
X232992738Y-105584819D01*
X232992738Y-105584819D02*
X233468928Y-105584819D01*
X234230833Y-106061009D02*
X233897500Y-106061009D01*
X233897500Y-106584819D02*
X233897500Y-105584819D01*
X233897500Y-105584819D02*
X234373690Y-105584819D01*
X234897500Y-105584819D02*
X234897500Y-105822914D01*
X234659405Y-105727676D02*
X234897500Y-105822914D01*
X234897500Y-105822914D02*
X235135595Y-105727676D01*
X234754643Y-106013390D02*
X234897500Y-105822914D01*
X234897500Y-105822914D02*
X235040357Y-106013390D01*
X235659405Y-105584819D02*
X235659405Y-105822914D01*
X235421310Y-105727676D02*
X235659405Y-105822914D01*
X235659405Y-105822914D02*
X235897500Y-105727676D01*
X235516548Y-106013390D02*
X235659405Y-105822914D01*
X235659405Y-105822914D02*
X235802262Y-106013390D01*
X342217890Y-35159523D02*
X342179795Y-35235713D01*
X342179795Y-35235713D02*
X342179795Y-35349999D01*
X342179795Y-35349999D02*
X342217890Y-35464285D01*
X342217890Y-35464285D02*
X342294080Y-35540475D01*
X342294080Y-35540475D02*
X342370271Y-35578570D01*
X342370271Y-35578570D02*
X342522652Y-35616666D01*
X342522652Y-35616666D02*
X342636938Y-35616666D01*
X342636938Y-35616666D02*
X342789319Y-35578570D01*
X342789319Y-35578570D02*
X342865509Y-35540475D01*
X342865509Y-35540475D02*
X342941700Y-35464285D01*
X342941700Y-35464285D02*
X342979795Y-35349999D01*
X342979795Y-35349999D02*
X342979795Y-35273808D01*
X342979795Y-35273808D02*
X342941700Y-35159523D01*
X342941700Y-35159523D02*
X342903604Y-35121427D01*
X342903604Y-35121427D02*
X342636938Y-35121427D01*
X342636938Y-35121427D02*
X342636938Y-35273808D01*
X342979795Y-34778570D02*
X342179795Y-34778570D01*
X342179795Y-34778570D02*
X342979795Y-34321427D01*
X342979795Y-34321427D02*
X342179795Y-34321427D01*
X342979795Y-33940475D02*
X342179795Y-33940475D01*
X342179795Y-33940475D02*
X342179795Y-33749999D01*
X342179795Y-33749999D02*
X342217890Y-33635713D01*
X342217890Y-33635713D02*
X342294080Y-33559523D01*
X342294080Y-33559523D02*
X342370271Y-33521428D01*
X342370271Y-33521428D02*
X342522652Y-33483332D01*
X342522652Y-33483332D02*
X342636938Y-33483332D01*
X342636938Y-33483332D02*
X342789319Y-33521428D01*
X342789319Y-33521428D02*
X342865509Y-33559523D01*
X342865509Y-33559523D02*
X342941700Y-33635713D01*
X342941700Y-33635713D02*
X342979795Y-33749999D01*
X342979795Y-33749999D02*
X342979795Y-33940475D01*
X365039795Y-37476190D02*
X365039795Y-36980952D01*
X365039795Y-36980952D02*
X365344557Y-37247618D01*
X365344557Y-37247618D02*
X365344557Y-37133333D01*
X365344557Y-37133333D02*
X365382652Y-37057142D01*
X365382652Y-37057142D02*
X365420747Y-37019047D01*
X365420747Y-37019047D02*
X365496938Y-36980952D01*
X365496938Y-36980952D02*
X365687414Y-36980952D01*
X365687414Y-36980952D02*
X365763604Y-37019047D01*
X365763604Y-37019047D02*
X365801700Y-37057142D01*
X365801700Y-37057142D02*
X365839795Y-37133333D01*
X365839795Y-37133333D02*
X365839795Y-37361904D01*
X365839795Y-37361904D02*
X365801700Y-37438095D01*
X365801700Y-37438095D02*
X365763604Y-37476190D01*
X365039795Y-36752380D02*
X365839795Y-36485713D01*
X365839795Y-36485713D02*
X365039795Y-36219047D01*
X365039795Y-36028571D02*
X365039795Y-35533333D01*
X365039795Y-35533333D02*
X365344557Y-35799999D01*
X365344557Y-35799999D02*
X365344557Y-35685714D01*
X365344557Y-35685714D02*
X365382652Y-35609523D01*
X365382652Y-35609523D02*
X365420747Y-35571428D01*
X365420747Y-35571428D02*
X365496938Y-35533333D01*
X365496938Y-35533333D02*
X365687414Y-35533333D01*
X365687414Y-35533333D02*
X365763604Y-35571428D01*
X365763604Y-35571428D02*
X365801700Y-35609523D01*
X365801700Y-35609523D02*
X365839795Y-35685714D01*
X365839795Y-35685714D02*
X365839795Y-35914285D01*
X365839795Y-35914285D02*
X365801700Y-35990476D01*
X365801700Y-35990476D02*
X365763604Y-36028571D01*
X365915985Y-35380952D02*
X365915985Y-34771428D01*
X365420747Y-34580951D02*
X365420747Y-34314285D01*
X365839795Y-34199999D02*
X365839795Y-34580951D01*
X365839795Y-34580951D02*
X365039795Y-34580951D01*
X365039795Y-34580951D02*
X365039795Y-34199999D01*
X365839795Y-33857141D02*
X365039795Y-33857141D01*
X365039795Y-33857141D02*
X365839795Y-33399998D01*
X365839795Y-33399998D02*
X365039795Y-33399998D01*
X324437890Y-47082381D02*
X324399795Y-47158571D01*
X324399795Y-47158571D02*
X324399795Y-47272857D01*
X324399795Y-47272857D02*
X324437890Y-47387143D01*
X324437890Y-47387143D02*
X324514080Y-47463333D01*
X324514080Y-47463333D02*
X324590271Y-47501428D01*
X324590271Y-47501428D02*
X324742652Y-47539524D01*
X324742652Y-47539524D02*
X324856938Y-47539524D01*
X324856938Y-47539524D02*
X325009319Y-47501428D01*
X325009319Y-47501428D02*
X325085509Y-47463333D01*
X325085509Y-47463333D02*
X325161700Y-47387143D01*
X325161700Y-47387143D02*
X325199795Y-47272857D01*
X325199795Y-47272857D02*
X325199795Y-47196666D01*
X325199795Y-47196666D02*
X325161700Y-47082381D01*
X325161700Y-47082381D02*
X325123604Y-47044285D01*
X325123604Y-47044285D02*
X324856938Y-47044285D01*
X324856938Y-47044285D02*
X324856938Y-47196666D01*
X325199795Y-46701428D02*
X324399795Y-46701428D01*
X324399795Y-46701428D02*
X324399795Y-46396666D01*
X324399795Y-46396666D02*
X324437890Y-46320476D01*
X324437890Y-46320476D02*
X324475985Y-46282381D01*
X324475985Y-46282381D02*
X324552176Y-46244285D01*
X324552176Y-46244285D02*
X324666461Y-46244285D01*
X324666461Y-46244285D02*
X324742652Y-46282381D01*
X324742652Y-46282381D02*
X324780747Y-46320476D01*
X324780747Y-46320476D02*
X324818842Y-46396666D01*
X324818842Y-46396666D02*
X324818842Y-46701428D01*
X325199795Y-45482381D02*
X325199795Y-45939524D01*
X325199795Y-45710952D02*
X324399795Y-45710952D01*
X324399795Y-45710952D02*
X324514080Y-45787143D01*
X324514080Y-45787143D02*
X324590271Y-45863333D01*
X324590271Y-45863333D02*
X324628366Y-45939524D01*
X324399795Y-44758571D02*
X324399795Y-45139523D01*
X324399795Y-45139523D02*
X324780747Y-45177619D01*
X324780747Y-45177619D02*
X324742652Y-45139523D01*
X324742652Y-45139523D02*
X324704557Y-45063333D01*
X324704557Y-45063333D02*
X324704557Y-44872857D01*
X324704557Y-44872857D02*
X324742652Y-44796666D01*
X324742652Y-44796666D02*
X324780747Y-44758571D01*
X324780747Y-44758571D02*
X324856938Y-44720476D01*
X324856938Y-44720476D02*
X325047414Y-44720476D01*
X325047414Y-44720476D02*
X325123604Y-44758571D01*
X325123604Y-44758571D02*
X325161700Y-44796666D01*
X325161700Y-44796666D02*
X325199795Y-44872857D01*
X325199795Y-44872857D02*
X325199795Y-45063333D01*
X325199795Y-45063333D02*
X325161700Y-45139523D01*
X325161700Y-45139523D02*
X325123604Y-45177619D01*
X344757890Y-35852381D02*
X344719795Y-35928571D01*
X344719795Y-35928571D02*
X344719795Y-36042857D01*
X344719795Y-36042857D02*
X344757890Y-36157143D01*
X344757890Y-36157143D02*
X344834080Y-36233333D01*
X344834080Y-36233333D02*
X344910271Y-36271428D01*
X344910271Y-36271428D02*
X345062652Y-36309524D01*
X345062652Y-36309524D02*
X345176938Y-36309524D01*
X345176938Y-36309524D02*
X345329319Y-36271428D01*
X345329319Y-36271428D02*
X345405509Y-36233333D01*
X345405509Y-36233333D02*
X345481700Y-36157143D01*
X345481700Y-36157143D02*
X345519795Y-36042857D01*
X345519795Y-36042857D02*
X345519795Y-35966666D01*
X345519795Y-35966666D02*
X345481700Y-35852381D01*
X345481700Y-35852381D02*
X345443604Y-35814285D01*
X345443604Y-35814285D02*
X345176938Y-35814285D01*
X345176938Y-35814285D02*
X345176938Y-35966666D01*
X345519795Y-35471428D02*
X344719795Y-35471428D01*
X344719795Y-35471428D02*
X344719795Y-35166666D01*
X344719795Y-35166666D02*
X344757890Y-35090476D01*
X344757890Y-35090476D02*
X344795985Y-35052381D01*
X344795985Y-35052381D02*
X344872176Y-35014285D01*
X344872176Y-35014285D02*
X344986461Y-35014285D01*
X344986461Y-35014285D02*
X345062652Y-35052381D01*
X345062652Y-35052381D02*
X345100747Y-35090476D01*
X345100747Y-35090476D02*
X345138842Y-35166666D01*
X345138842Y-35166666D02*
X345138842Y-35471428D01*
X344795985Y-34709524D02*
X344757890Y-34671428D01*
X344757890Y-34671428D02*
X344719795Y-34595238D01*
X344719795Y-34595238D02*
X344719795Y-34404762D01*
X344719795Y-34404762D02*
X344757890Y-34328571D01*
X344757890Y-34328571D02*
X344795985Y-34290476D01*
X344795985Y-34290476D02*
X344872176Y-34252381D01*
X344872176Y-34252381D02*
X344948366Y-34252381D01*
X344948366Y-34252381D02*
X345062652Y-34290476D01*
X345062652Y-34290476D02*
X345519795Y-34747619D01*
X345519795Y-34747619D02*
X345519795Y-34252381D01*
X344795985Y-33947619D02*
X344757890Y-33909523D01*
X344757890Y-33909523D02*
X344719795Y-33833333D01*
X344719795Y-33833333D02*
X344719795Y-33642857D01*
X344719795Y-33642857D02*
X344757890Y-33566666D01*
X344757890Y-33566666D02*
X344795985Y-33528571D01*
X344795985Y-33528571D02*
X344872176Y-33490476D01*
X344872176Y-33490476D02*
X344948366Y-33490476D01*
X344948366Y-33490476D02*
X345062652Y-33528571D01*
X345062652Y-33528571D02*
X345519795Y-33985714D01*
X345519795Y-33985714D02*
X345519795Y-33490476D01*
X327357976Y-40040390D02*
X327281786Y-40002295D01*
X327281786Y-40002295D02*
X327167500Y-40002295D01*
X327167500Y-40002295D02*
X327053214Y-40040390D01*
X327053214Y-40040390D02*
X326977024Y-40116580D01*
X326977024Y-40116580D02*
X326938929Y-40192771D01*
X326938929Y-40192771D02*
X326900833Y-40345152D01*
X326900833Y-40345152D02*
X326900833Y-40459438D01*
X326900833Y-40459438D02*
X326938929Y-40611819D01*
X326938929Y-40611819D02*
X326977024Y-40688009D01*
X326977024Y-40688009D02*
X327053214Y-40764200D01*
X327053214Y-40764200D02*
X327167500Y-40802295D01*
X327167500Y-40802295D02*
X327243691Y-40802295D01*
X327243691Y-40802295D02*
X327357976Y-40764200D01*
X327357976Y-40764200D02*
X327396072Y-40726104D01*
X327396072Y-40726104D02*
X327396072Y-40459438D01*
X327396072Y-40459438D02*
X327243691Y-40459438D01*
X327738929Y-40802295D02*
X327738929Y-40002295D01*
X327738929Y-40002295D02*
X328196072Y-40802295D01*
X328196072Y-40802295D02*
X328196072Y-40002295D01*
X328577024Y-40802295D02*
X328577024Y-40002295D01*
X328577024Y-40002295D02*
X328767500Y-40002295D01*
X328767500Y-40002295D02*
X328881786Y-40040390D01*
X328881786Y-40040390D02*
X328957976Y-40116580D01*
X328957976Y-40116580D02*
X328996071Y-40192771D01*
X328996071Y-40192771D02*
X329034167Y-40345152D01*
X329034167Y-40345152D02*
X329034167Y-40459438D01*
X329034167Y-40459438D02*
X328996071Y-40611819D01*
X328996071Y-40611819D02*
X328957976Y-40688009D01*
X328957976Y-40688009D02*
X328881786Y-40764200D01*
X328881786Y-40764200D02*
X328767500Y-40802295D01*
X328767500Y-40802295D02*
X328577024Y-40802295D01*
X329517890Y-35159523D02*
X329479795Y-35235713D01*
X329479795Y-35235713D02*
X329479795Y-35349999D01*
X329479795Y-35349999D02*
X329517890Y-35464285D01*
X329517890Y-35464285D02*
X329594080Y-35540475D01*
X329594080Y-35540475D02*
X329670271Y-35578570D01*
X329670271Y-35578570D02*
X329822652Y-35616666D01*
X329822652Y-35616666D02*
X329936938Y-35616666D01*
X329936938Y-35616666D02*
X330089319Y-35578570D01*
X330089319Y-35578570D02*
X330165509Y-35540475D01*
X330165509Y-35540475D02*
X330241700Y-35464285D01*
X330241700Y-35464285D02*
X330279795Y-35349999D01*
X330279795Y-35349999D02*
X330279795Y-35273808D01*
X330279795Y-35273808D02*
X330241700Y-35159523D01*
X330241700Y-35159523D02*
X330203604Y-35121427D01*
X330203604Y-35121427D02*
X329936938Y-35121427D01*
X329936938Y-35121427D02*
X329936938Y-35273808D01*
X330279795Y-34778570D02*
X329479795Y-34778570D01*
X329479795Y-34778570D02*
X330279795Y-34321427D01*
X330279795Y-34321427D02*
X329479795Y-34321427D01*
X330279795Y-33940475D02*
X329479795Y-33940475D01*
X329479795Y-33940475D02*
X329479795Y-33749999D01*
X329479795Y-33749999D02*
X329517890Y-33635713D01*
X329517890Y-33635713D02*
X329594080Y-33559523D01*
X329594080Y-33559523D02*
X329670271Y-33521428D01*
X329670271Y-33521428D02*
X329822652Y-33483332D01*
X329822652Y-33483332D02*
X329936938Y-33483332D01*
X329936938Y-33483332D02*
X330089319Y-33521428D01*
X330089319Y-33521428D02*
X330165509Y-33559523D01*
X330165509Y-33559523D02*
X330241700Y-33635713D01*
X330241700Y-33635713D02*
X330279795Y-33749999D01*
X330279795Y-33749999D02*
X330279795Y-33940475D01*
X337137890Y-35852381D02*
X337099795Y-35928571D01*
X337099795Y-35928571D02*
X337099795Y-36042857D01*
X337099795Y-36042857D02*
X337137890Y-36157143D01*
X337137890Y-36157143D02*
X337214080Y-36233333D01*
X337214080Y-36233333D02*
X337290271Y-36271428D01*
X337290271Y-36271428D02*
X337442652Y-36309524D01*
X337442652Y-36309524D02*
X337556938Y-36309524D01*
X337556938Y-36309524D02*
X337709319Y-36271428D01*
X337709319Y-36271428D02*
X337785509Y-36233333D01*
X337785509Y-36233333D02*
X337861700Y-36157143D01*
X337861700Y-36157143D02*
X337899795Y-36042857D01*
X337899795Y-36042857D02*
X337899795Y-35966666D01*
X337899795Y-35966666D02*
X337861700Y-35852381D01*
X337861700Y-35852381D02*
X337823604Y-35814285D01*
X337823604Y-35814285D02*
X337556938Y-35814285D01*
X337556938Y-35814285D02*
X337556938Y-35966666D01*
X337899795Y-35471428D02*
X337099795Y-35471428D01*
X337099795Y-35471428D02*
X337099795Y-35166666D01*
X337099795Y-35166666D02*
X337137890Y-35090476D01*
X337137890Y-35090476D02*
X337175985Y-35052381D01*
X337175985Y-35052381D02*
X337252176Y-35014285D01*
X337252176Y-35014285D02*
X337366461Y-35014285D01*
X337366461Y-35014285D02*
X337442652Y-35052381D01*
X337442652Y-35052381D02*
X337480747Y-35090476D01*
X337480747Y-35090476D02*
X337518842Y-35166666D01*
X337518842Y-35166666D02*
X337518842Y-35471428D01*
X337175985Y-34709524D02*
X337137890Y-34671428D01*
X337137890Y-34671428D02*
X337099795Y-34595238D01*
X337099795Y-34595238D02*
X337099795Y-34404762D01*
X337099795Y-34404762D02*
X337137890Y-34328571D01*
X337137890Y-34328571D02*
X337175985Y-34290476D01*
X337175985Y-34290476D02*
X337252176Y-34252381D01*
X337252176Y-34252381D02*
X337328366Y-34252381D01*
X337328366Y-34252381D02*
X337442652Y-34290476D01*
X337442652Y-34290476D02*
X337899795Y-34747619D01*
X337899795Y-34747619D02*
X337899795Y-34252381D01*
X337099795Y-33757142D02*
X337099795Y-33680952D01*
X337099795Y-33680952D02*
X337137890Y-33604761D01*
X337137890Y-33604761D02*
X337175985Y-33566666D01*
X337175985Y-33566666D02*
X337252176Y-33528571D01*
X337252176Y-33528571D02*
X337404557Y-33490476D01*
X337404557Y-33490476D02*
X337595033Y-33490476D01*
X337595033Y-33490476D02*
X337747414Y-33528571D01*
X337747414Y-33528571D02*
X337823604Y-33566666D01*
X337823604Y-33566666D02*
X337861700Y-33604761D01*
X337861700Y-33604761D02*
X337899795Y-33680952D01*
X337899795Y-33680952D02*
X337899795Y-33757142D01*
X337899795Y-33757142D02*
X337861700Y-33833333D01*
X337861700Y-33833333D02*
X337823604Y-33871428D01*
X337823604Y-33871428D02*
X337747414Y-33909523D01*
X337747414Y-33909523D02*
X337595033Y-33947619D01*
X337595033Y-33947619D02*
X337404557Y-33947619D01*
X337404557Y-33947619D02*
X337252176Y-33909523D01*
X337252176Y-33909523D02*
X337175985Y-33871428D01*
X337175985Y-33871428D02*
X337137890Y-33833333D01*
X337137890Y-33833333D02*
X337099795Y-33757142D01*
X370119795Y-36021428D02*
X370919795Y-35754761D01*
X370919795Y-35754761D02*
X370119795Y-35488095D01*
X370881700Y-35259524D02*
X370919795Y-35145238D01*
X370919795Y-35145238D02*
X370919795Y-34954762D01*
X370919795Y-34954762D02*
X370881700Y-34878571D01*
X370881700Y-34878571D02*
X370843604Y-34840476D01*
X370843604Y-34840476D02*
X370767414Y-34802381D01*
X370767414Y-34802381D02*
X370691223Y-34802381D01*
X370691223Y-34802381D02*
X370615033Y-34840476D01*
X370615033Y-34840476D02*
X370576938Y-34878571D01*
X370576938Y-34878571D02*
X370538842Y-34954762D01*
X370538842Y-34954762D02*
X370500747Y-35107143D01*
X370500747Y-35107143D02*
X370462652Y-35183333D01*
X370462652Y-35183333D02*
X370424557Y-35221428D01*
X370424557Y-35221428D02*
X370348366Y-35259524D01*
X370348366Y-35259524D02*
X370272176Y-35259524D01*
X370272176Y-35259524D02*
X370195985Y-35221428D01*
X370195985Y-35221428D02*
X370157890Y-35183333D01*
X370157890Y-35183333D02*
X370119795Y-35107143D01*
X370119795Y-35107143D02*
X370119795Y-34916666D01*
X370119795Y-34916666D02*
X370157890Y-34802381D01*
X370538842Y-34307142D02*
X370919795Y-34307142D01*
X370119795Y-34573809D02*
X370538842Y-34307142D01*
X370538842Y-34307142D02*
X370119795Y-34040476D01*
X370881700Y-33811905D02*
X370919795Y-33697619D01*
X370919795Y-33697619D02*
X370919795Y-33507143D01*
X370919795Y-33507143D02*
X370881700Y-33430952D01*
X370881700Y-33430952D02*
X370843604Y-33392857D01*
X370843604Y-33392857D02*
X370767414Y-33354762D01*
X370767414Y-33354762D02*
X370691223Y-33354762D01*
X370691223Y-33354762D02*
X370615033Y-33392857D01*
X370615033Y-33392857D02*
X370576938Y-33430952D01*
X370576938Y-33430952D02*
X370538842Y-33507143D01*
X370538842Y-33507143D02*
X370500747Y-33659524D01*
X370500747Y-33659524D02*
X370462652Y-33735714D01*
X370462652Y-33735714D02*
X370424557Y-33773809D01*
X370424557Y-33773809D02*
X370348366Y-33811905D01*
X370348366Y-33811905D02*
X370272176Y-33811905D01*
X370272176Y-33811905D02*
X370195985Y-33773809D01*
X370195985Y-33773809D02*
X370157890Y-33735714D01*
X370157890Y-33735714D02*
X370119795Y-33659524D01*
X370119795Y-33659524D02*
X370119795Y-33469047D01*
X370119795Y-33469047D02*
X370157890Y-33354762D01*
X357457890Y-47051428D02*
X357419795Y-47127618D01*
X357419795Y-47127618D02*
X357419795Y-47241904D01*
X357419795Y-47241904D02*
X357457890Y-47356190D01*
X357457890Y-47356190D02*
X357534080Y-47432380D01*
X357534080Y-47432380D02*
X357610271Y-47470475D01*
X357610271Y-47470475D02*
X357762652Y-47508571D01*
X357762652Y-47508571D02*
X357876938Y-47508571D01*
X357876938Y-47508571D02*
X358029319Y-47470475D01*
X358029319Y-47470475D02*
X358105509Y-47432380D01*
X358105509Y-47432380D02*
X358181700Y-47356190D01*
X358181700Y-47356190D02*
X358219795Y-47241904D01*
X358219795Y-47241904D02*
X358219795Y-47165713D01*
X358219795Y-47165713D02*
X358181700Y-47051428D01*
X358181700Y-47051428D02*
X358143604Y-47013332D01*
X358143604Y-47013332D02*
X357876938Y-47013332D01*
X357876938Y-47013332D02*
X357876938Y-47165713D01*
X358219795Y-46670475D02*
X357419795Y-46670475D01*
X357419795Y-46670475D02*
X357419795Y-46365713D01*
X357419795Y-46365713D02*
X357457890Y-46289523D01*
X357457890Y-46289523D02*
X357495985Y-46251428D01*
X357495985Y-46251428D02*
X357572176Y-46213332D01*
X357572176Y-46213332D02*
X357686461Y-46213332D01*
X357686461Y-46213332D02*
X357762652Y-46251428D01*
X357762652Y-46251428D02*
X357800747Y-46289523D01*
X357800747Y-46289523D02*
X357838842Y-46365713D01*
X357838842Y-46365713D02*
X357838842Y-46670475D01*
X357419795Y-45489523D02*
X357419795Y-45870475D01*
X357419795Y-45870475D02*
X357800747Y-45908571D01*
X357800747Y-45908571D02*
X357762652Y-45870475D01*
X357762652Y-45870475D02*
X357724557Y-45794285D01*
X357724557Y-45794285D02*
X357724557Y-45603809D01*
X357724557Y-45603809D02*
X357762652Y-45527618D01*
X357762652Y-45527618D02*
X357800747Y-45489523D01*
X357800747Y-45489523D02*
X357876938Y-45451428D01*
X357876938Y-45451428D02*
X358067414Y-45451428D01*
X358067414Y-45451428D02*
X358143604Y-45489523D01*
X358143604Y-45489523D02*
X358181700Y-45527618D01*
X358181700Y-45527618D02*
X358219795Y-45603809D01*
X358219795Y-45603809D02*
X358219795Y-45794285D01*
X358219795Y-45794285D02*
X358181700Y-45870475D01*
X358181700Y-45870475D02*
X358143604Y-45908571D01*
X334597890Y-47082381D02*
X334559795Y-47158571D01*
X334559795Y-47158571D02*
X334559795Y-47272857D01*
X334559795Y-47272857D02*
X334597890Y-47387143D01*
X334597890Y-47387143D02*
X334674080Y-47463333D01*
X334674080Y-47463333D02*
X334750271Y-47501428D01*
X334750271Y-47501428D02*
X334902652Y-47539524D01*
X334902652Y-47539524D02*
X335016938Y-47539524D01*
X335016938Y-47539524D02*
X335169319Y-47501428D01*
X335169319Y-47501428D02*
X335245509Y-47463333D01*
X335245509Y-47463333D02*
X335321700Y-47387143D01*
X335321700Y-47387143D02*
X335359795Y-47272857D01*
X335359795Y-47272857D02*
X335359795Y-47196666D01*
X335359795Y-47196666D02*
X335321700Y-47082381D01*
X335321700Y-47082381D02*
X335283604Y-47044285D01*
X335283604Y-47044285D02*
X335016938Y-47044285D01*
X335016938Y-47044285D02*
X335016938Y-47196666D01*
X335359795Y-46701428D02*
X334559795Y-46701428D01*
X334559795Y-46701428D02*
X334559795Y-46396666D01*
X334559795Y-46396666D02*
X334597890Y-46320476D01*
X334597890Y-46320476D02*
X334635985Y-46282381D01*
X334635985Y-46282381D02*
X334712176Y-46244285D01*
X334712176Y-46244285D02*
X334826461Y-46244285D01*
X334826461Y-46244285D02*
X334902652Y-46282381D01*
X334902652Y-46282381D02*
X334940747Y-46320476D01*
X334940747Y-46320476D02*
X334978842Y-46396666D01*
X334978842Y-46396666D02*
X334978842Y-46701428D01*
X335359795Y-45482381D02*
X335359795Y-45939524D01*
X335359795Y-45710952D02*
X334559795Y-45710952D01*
X334559795Y-45710952D02*
X334674080Y-45787143D01*
X334674080Y-45787143D02*
X334750271Y-45863333D01*
X334750271Y-45863333D02*
X334788366Y-45939524D01*
X334635985Y-45177619D02*
X334597890Y-45139523D01*
X334597890Y-45139523D02*
X334559795Y-45063333D01*
X334559795Y-45063333D02*
X334559795Y-44872857D01*
X334559795Y-44872857D02*
X334597890Y-44796666D01*
X334597890Y-44796666D02*
X334635985Y-44758571D01*
X334635985Y-44758571D02*
X334712176Y-44720476D01*
X334712176Y-44720476D02*
X334788366Y-44720476D01*
X334788366Y-44720476D02*
X334902652Y-44758571D01*
X334902652Y-44758571D02*
X335359795Y-45215714D01*
X335359795Y-45215714D02*
X335359795Y-44720476D01*
X357457890Y-35852381D02*
X357419795Y-35928571D01*
X357419795Y-35928571D02*
X357419795Y-36042857D01*
X357419795Y-36042857D02*
X357457890Y-36157143D01*
X357457890Y-36157143D02*
X357534080Y-36233333D01*
X357534080Y-36233333D02*
X357610271Y-36271428D01*
X357610271Y-36271428D02*
X357762652Y-36309524D01*
X357762652Y-36309524D02*
X357876938Y-36309524D01*
X357876938Y-36309524D02*
X358029319Y-36271428D01*
X358029319Y-36271428D02*
X358105509Y-36233333D01*
X358105509Y-36233333D02*
X358181700Y-36157143D01*
X358181700Y-36157143D02*
X358219795Y-36042857D01*
X358219795Y-36042857D02*
X358219795Y-35966666D01*
X358219795Y-35966666D02*
X358181700Y-35852381D01*
X358181700Y-35852381D02*
X358143604Y-35814285D01*
X358143604Y-35814285D02*
X357876938Y-35814285D01*
X357876938Y-35814285D02*
X357876938Y-35966666D01*
X358219795Y-35471428D02*
X357419795Y-35471428D01*
X357419795Y-35471428D02*
X357419795Y-35166666D01*
X357419795Y-35166666D02*
X357457890Y-35090476D01*
X357457890Y-35090476D02*
X357495985Y-35052381D01*
X357495985Y-35052381D02*
X357572176Y-35014285D01*
X357572176Y-35014285D02*
X357686461Y-35014285D01*
X357686461Y-35014285D02*
X357762652Y-35052381D01*
X357762652Y-35052381D02*
X357800747Y-35090476D01*
X357800747Y-35090476D02*
X357838842Y-35166666D01*
X357838842Y-35166666D02*
X357838842Y-35471428D01*
X357495985Y-34709524D02*
X357457890Y-34671428D01*
X357457890Y-34671428D02*
X357419795Y-34595238D01*
X357419795Y-34595238D02*
X357419795Y-34404762D01*
X357419795Y-34404762D02*
X357457890Y-34328571D01*
X357457890Y-34328571D02*
X357495985Y-34290476D01*
X357495985Y-34290476D02*
X357572176Y-34252381D01*
X357572176Y-34252381D02*
X357648366Y-34252381D01*
X357648366Y-34252381D02*
X357762652Y-34290476D01*
X357762652Y-34290476D02*
X358219795Y-34747619D01*
X358219795Y-34747619D02*
X358219795Y-34252381D01*
X357762652Y-33795238D02*
X357724557Y-33871428D01*
X357724557Y-33871428D02*
X357686461Y-33909523D01*
X357686461Y-33909523D02*
X357610271Y-33947619D01*
X357610271Y-33947619D02*
X357572176Y-33947619D01*
X357572176Y-33947619D02*
X357495985Y-33909523D01*
X357495985Y-33909523D02*
X357457890Y-33871428D01*
X357457890Y-33871428D02*
X357419795Y-33795238D01*
X357419795Y-33795238D02*
X357419795Y-33642857D01*
X357419795Y-33642857D02*
X357457890Y-33566666D01*
X357457890Y-33566666D02*
X357495985Y-33528571D01*
X357495985Y-33528571D02*
X357572176Y-33490476D01*
X357572176Y-33490476D02*
X357610271Y-33490476D01*
X357610271Y-33490476D02*
X357686461Y-33528571D01*
X357686461Y-33528571D02*
X357724557Y-33566666D01*
X357724557Y-33566666D02*
X357762652Y-33642857D01*
X357762652Y-33642857D02*
X357762652Y-33795238D01*
X357762652Y-33795238D02*
X357800747Y-33871428D01*
X357800747Y-33871428D02*
X357838842Y-33909523D01*
X357838842Y-33909523D02*
X357915033Y-33947619D01*
X357915033Y-33947619D02*
X358067414Y-33947619D01*
X358067414Y-33947619D02*
X358143604Y-33909523D01*
X358143604Y-33909523D02*
X358181700Y-33871428D01*
X358181700Y-33871428D02*
X358219795Y-33795238D01*
X358219795Y-33795238D02*
X358219795Y-33642857D01*
X358219795Y-33642857D02*
X358181700Y-33566666D01*
X358181700Y-33566666D02*
X358143604Y-33528571D01*
X358143604Y-33528571D02*
X358067414Y-33490476D01*
X358067414Y-33490476D02*
X357915033Y-33490476D01*
X357915033Y-33490476D02*
X357838842Y-33528571D01*
X357838842Y-33528571D02*
X357800747Y-33566666D01*
X357800747Y-33566666D02*
X357762652Y-33642857D01*
X344757890Y-47051428D02*
X344719795Y-47127618D01*
X344719795Y-47127618D02*
X344719795Y-47241904D01*
X344719795Y-47241904D02*
X344757890Y-47356190D01*
X344757890Y-47356190D02*
X344834080Y-47432380D01*
X344834080Y-47432380D02*
X344910271Y-47470475D01*
X344910271Y-47470475D02*
X345062652Y-47508571D01*
X345062652Y-47508571D02*
X345176938Y-47508571D01*
X345176938Y-47508571D02*
X345329319Y-47470475D01*
X345329319Y-47470475D02*
X345405509Y-47432380D01*
X345405509Y-47432380D02*
X345481700Y-47356190D01*
X345481700Y-47356190D02*
X345519795Y-47241904D01*
X345519795Y-47241904D02*
X345519795Y-47165713D01*
X345519795Y-47165713D02*
X345481700Y-47051428D01*
X345481700Y-47051428D02*
X345443604Y-47013332D01*
X345443604Y-47013332D02*
X345176938Y-47013332D01*
X345176938Y-47013332D02*
X345176938Y-47165713D01*
X345519795Y-46670475D02*
X344719795Y-46670475D01*
X344719795Y-46670475D02*
X344719795Y-46365713D01*
X344719795Y-46365713D02*
X344757890Y-46289523D01*
X344757890Y-46289523D02*
X344795985Y-46251428D01*
X344795985Y-46251428D02*
X344872176Y-46213332D01*
X344872176Y-46213332D02*
X344986461Y-46213332D01*
X344986461Y-46213332D02*
X345062652Y-46251428D01*
X345062652Y-46251428D02*
X345100747Y-46289523D01*
X345100747Y-46289523D02*
X345138842Y-46365713D01*
X345138842Y-46365713D02*
X345138842Y-46670475D01*
X345519795Y-45832380D02*
X345519795Y-45679999D01*
X345519795Y-45679999D02*
X345481700Y-45603809D01*
X345481700Y-45603809D02*
X345443604Y-45565713D01*
X345443604Y-45565713D02*
X345329319Y-45489523D01*
X345329319Y-45489523D02*
X345176938Y-45451428D01*
X345176938Y-45451428D02*
X344872176Y-45451428D01*
X344872176Y-45451428D02*
X344795985Y-45489523D01*
X344795985Y-45489523D02*
X344757890Y-45527618D01*
X344757890Y-45527618D02*
X344719795Y-45603809D01*
X344719795Y-45603809D02*
X344719795Y-45756190D01*
X344719795Y-45756190D02*
X344757890Y-45832380D01*
X344757890Y-45832380D02*
X344795985Y-45870475D01*
X344795985Y-45870475D02*
X344872176Y-45908571D01*
X344872176Y-45908571D02*
X345062652Y-45908571D01*
X345062652Y-45908571D02*
X345138842Y-45870475D01*
X345138842Y-45870475D02*
X345176938Y-45832380D01*
X345176938Y-45832380D02*
X345215033Y-45756190D01*
X345215033Y-45756190D02*
X345215033Y-45603809D01*
X345215033Y-45603809D02*
X345176938Y-45527618D01*
X345176938Y-45527618D02*
X345138842Y-45489523D01*
X345138842Y-45489523D02*
X345062652Y-45451428D01*
X362499795Y-35390476D02*
X362499795Y-34895238D01*
X362499795Y-34895238D02*
X362804557Y-35161904D01*
X362804557Y-35161904D02*
X362804557Y-35047619D01*
X362804557Y-35047619D02*
X362842652Y-34971428D01*
X362842652Y-34971428D02*
X362880747Y-34933333D01*
X362880747Y-34933333D02*
X362956938Y-34895238D01*
X362956938Y-34895238D02*
X363147414Y-34895238D01*
X363147414Y-34895238D02*
X363223604Y-34933333D01*
X363223604Y-34933333D02*
X363261700Y-34971428D01*
X363261700Y-34971428D02*
X363299795Y-35047619D01*
X363299795Y-35047619D02*
X363299795Y-35276190D01*
X363299795Y-35276190D02*
X363261700Y-35352381D01*
X363261700Y-35352381D02*
X363223604Y-35390476D01*
X362499795Y-34666666D02*
X363299795Y-34399999D01*
X363299795Y-34399999D02*
X362499795Y-34133333D01*
X362499795Y-33942857D02*
X362499795Y-33447619D01*
X362499795Y-33447619D02*
X362804557Y-33714285D01*
X362804557Y-33714285D02*
X362804557Y-33600000D01*
X362804557Y-33600000D02*
X362842652Y-33523809D01*
X362842652Y-33523809D02*
X362880747Y-33485714D01*
X362880747Y-33485714D02*
X362956938Y-33447619D01*
X362956938Y-33447619D02*
X363147414Y-33447619D01*
X363147414Y-33447619D02*
X363223604Y-33485714D01*
X363223604Y-33485714D02*
X363261700Y-33523809D01*
X363261700Y-33523809D02*
X363299795Y-33600000D01*
X363299795Y-33600000D02*
X363299795Y-33828571D01*
X363299795Y-33828571D02*
X363261700Y-33904762D01*
X363261700Y-33904762D02*
X363223604Y-33942857D01*
X332057890Y-35852381D02*
X332019795Y-35928571D01*
X332019795Y-35928571D02*
X332019795Y-36042857D01*
X332019795Y-36042857D02*
X332057890Y-36157143D01*
X332057890Y-36157143D02*
X332134080Y-36233333D01*
X332134080Y-36233333D02*
X332210271Y-36271428D01*
X332210271Y-36271428D02*
X332362652Y-36309524D01*
X332362652Y-36309524D02*
X332476938Y-36309524D01*
X332476938Y-36309524D02*
X332629319Y-36271428D01*
X332629319Y-36271428D02*
X332705509Y-36233333D01*
X332705509Y-36233333D02*
X332781700Y-36157143D01*
X332781700Y-36157143D02*
X332819795Y-36042857D01*
X332819795Y-36042857D02*
X332819795Y-35966666D01*
X332819795Y-35966666D02*
X332781700Y-35852381D01*
X332781700Y-35852381D02*
X332743604Y-35814285D01*
X332743604Y-35814285D02*
X332476938Y-35814285D01*
X332476938Y-35814285D02*
X332476938Y-35966666D01*
X332819795Y-35471428D02*
X332019795Y-35471428D01*
X332019795Y-35471428D02*
X332019795Y-35166666D01*
X332019795Y-35166666D02*
X332057890Y-35090476D01*
X332057890Y-35090476D02*
X332095985Y-35052381D01*
X332095985Y-35052381D02*
X332172176Y-35014285D01*
X332172176Y-35014285D02*
X332286461Y-35014285D01*
X332286461Y-35014285D02*
X332362652Y-35052381D01*
X332362652Y-35052381D02*
X332400747Y-35090476D01*
X332400747Y-35090476D02*
X332438842Y-35166666D01*
X332438842Y-35166666D02*
X332438842Y-35471428D01*
X332819795Y-34252381D02*
X332819795Y-34709524D01*
X332819795Y-34480952D02*
X332019795Y-34480952D01*
X332019795Y-34480952D02*
X332134080Y-34557143D01*
X332134080Y-34557143D02*
X332210271Y-34633333D01*
X332210271Y-34633333D02*
X332248366Y-34709524D01*
X332362652Y-33795238D02*
X332324557Y-33871428D01*
X332324557Y-33871428D02*
X332286461Y-33909523D01*
X332286461Y-33909523D02*
X332210271Y-33947619D01*
X332210271Y-33947619D02*
X332172176Y-33947619D01*
X332172176Y-33947619D02*
X332095985Y-33909523D01*
X332095985Y-33909523D02*
X332057890Y-33871428D01*
X332057890Y-33871428D02*
X332019795Y-33795238D01*
X332019795Y-33795238D02*
X332019795Y-33642857D01*
X332019795Y-33642857D02*
X332057890Y-33566666D01*
X332057890Y-33566666D02*
X332095985Y-33528571D01*
X332095985Y-33528571D02*
X332172176Y-33490476D01*
X332172176Y-33490476D02*
X332210271Y-33490476D01*
X332210271Y-33490476D02*
X332286461Y-33528571D01*
X332286461Y-33528571D02*
X332324557Y-33566666D01*
X332324557Y-33566666D02*
X332362652Y-33642857D01*
X332362652Y-33642857D02*
X332362652Y-33795238D01*
X332362652Y-33795238D02*
X332400747Y-33871428D01*
X332400747Y-33871428D02*
X332438842Y-33909523D01*
X332438842Y-33909523D02*
X332515033Y-33947619D01*
X332515033Y-33947619D02*
X332667414Y-33947619D01*
X332667414Y-33947619D02*
X332743604Y-33909523D01*
X332743604Y-33909523D02*
X332781700Y-33871428D01*
X332781700Y-33871428D02*
X332819795Y-33795238D01*
X332819795Y-33795238D02*
X332819795Y-33642857D01*
X332819795Y-33642857D02*
X332781700Y-33566666D01*
X332781700Y-33566666D02*
X332743604Y-33528571D01*
X332743604Y-33528571D02*
X332667414Y-33490476D01*
X332667414Y-33490476D02*
X332515033Y-33490476D01*
X332515033Y-33490476D02*
X332438842Y-33528571D01*
X332438842Y-33528571D02*
X332400747Y-33566666D01*
X332400747Y-33566666D02*
X332362652Y-33642857D01*
X339677890Y-47082381D02*
X339639795Y-47158571D01*
X339639795Y-47158571D02*
X339639795Y-47272857D01*
X339639795Y-47272857D02*
X339677890Y-47387143D01*
X339677890Y-47387143D02*
X339754080Y-47463333D01*
X339754080Y-47463333D02*
X339830271Y-47501428D01*
X339830271Y-47501428D02*
X339982652Y-47539524D01*
X339982652Y-47539524D02*
X340096938Y-47539524D01*
X340096938Y-47539524D02*
X340249319Y-47501428D01*
X340249319Y-47501428D02*
X340325509Y-47463333D01*
X340325509Y-47463333D02*
X340401700Y-47387143D01*
X340401700Y-47387143D02*
X340439795Y-47272857D01*
X340439795Y-47272857D02*
X340439795Y-47196666D01*
X340439795Y-47196666D02*
X340401700Y-47082381D01*
X340401700Y-47082381D02*
X340363604Y-47044285D01*
X340363604Y-47044285D02*
X340096938Y-47044285D01*
X340096938Y-47044285D02*
X340096938Y-47196666D01*
X340439795Y-46701428D02*
X339639795Y-46701428D01*
X339639795Y-46701428D02*
X339639795Y-46396666D01*
X339639795Y-46396666D02*
X339677890Y-46320476D01*
X339677890Y-46320476D02*
X339715985Y-46282381D01*
X339715985Y-46282381D02*
X339792176Y-46244285D01*
X339792176Y-46244285D02*
X339906461Y-46244285D01*
X339906461Y-46244285D02*
X339982652Y-46282381D01*
X339982652Y-46282381D02*
X340020747Y-46320476D01*
X340020747Y-46320476D02*
X340058842Y-46396666D01*
X340058842Y-46396666D02*
X340058842Y-46701428D01*
X340439795Y-45482381D02*
X340439795Y-45939524D01*
X340439795Y-45710952D02*
X339639795Y-45710952D01*
X339639795Y-45710952D02*
X339754080Y-45787143D01*
X339754080Y-45787143D02*
X339830271Y-45863333D01*
X339830271Y-45863333D02*
X339868366Y-45939524D01*
X339639795Y-44987142D02*
X339639795Y-44910952D01*
X339639795Y-44910952D02*
X339677890Y-44834761D01*
X339677890Y-44834761D02*
X339715985Y-44796666D01*
X339715985Y-44796666D02*
X339792176Y-44758571D01*
X339792176Y-44758571D02*
X339944557Y-44720476D01*
X339944557Y-44720476D02*
X340135033Y-44720476D01*
X340135033Y-44720476D02*
X340287414Y-44758571D01*
X340287414Y-44758571D02*
X340363604Y-44796666D01*
X340363604Y-44796666D02*
X340401700Y-44834761D01*
X340401700Y-44834761D02*
X340439795Y-44910952D01*
X340439795Y-44910952D02*
X340439795Y-44987142D01*
X340439795Y-44987142D02*
X340401700Y-45063333D01*
X340401700Y-45063333D02*
X340363604Y-45101428D01*
X340363604Y-45101428D02*
X340287414Y-45139523D01*
X340287414Y-45139523D02*
X340135033Y-45177619D01*
X340135033Y-45177619D02*
X339944557Y-45177619D01*
X339944557Y-45177619D02*
X339792176Y-45139523D01*
X339792176Y-45139523D02*
X339715985Y-45101428D01*
X339715985Y-45101428D02*
X339677890Y-45063333D01*
X339677890Y-45063333D02*
X339639795Y-44987142D01*
X355451223Y-36309523D02*
X355451223Y-35928570D01*
X355679795Y-36385713D02*
X354879795Y-36119046D01*
X354879795Y-36119046D02*
X355679795Y-35852380D01*
X354917890Y-35166666D02*
X354879795Y-35242856D01*
X354879795Y-35242856D02*
X354879795Y-35357142D01*
X354879795Y-35357142D02*
X354917890Y-35471428D01*
X354917890Y-35471428D02*
X354994080Y-35547618D01*
X354994080Y-35547618D02*
X355070271Y-35585713D01*
X355070271Y-35585713D02*
X355222652Y-35623809D01*
X355222652Y-35623809D02*
X355336938Y-35623809D01*
X355336938Y-35623809D02*
X355489319Y-35585713D01*
X355489319Y-35585713D02*
X355565509Y-35547618D01*
X355565509Y-35547618D02*
X355641700Y-35471428D01*
X355641700Y-35471428D02*
X355679795Y-35357142D01*
X355679795Y-35357142D02*
X355679795Y-35280951D01*
X355679795Y-35280951D02*
X355641700Y-35166666D01*
X355641700Y-35166666D02*
X355603604Y-35128570D01*
X355603604Y-35128570D02*
X355336938Y-35128570D01*
X355336938Y-35128570D02*
X355336938Y-35280951D01*
X355679795Y-34785713D02*
X354879795Y-34785713D01*
X354879795Y-34785713D02*
X355679795Y-34328570D01*
X355679795Y-34328570D02*
X354879795Y-34328570D01*
X355679795Y-33947618D02*
X354879795Y-33947618D01*
X354879795Y-33947618D02*
X354879795Y-33757142D01*
X354879795Y-33757142D02*
X354917890Y-33642856D01*
X354917890Y-33642856D02*
X354994080Y-33566666D01*
X354994080Y-33566666D02*
X355070271Y-33528571D01*
X355070271Y-33528571D02*
X355222652Y-33490475D01*
X355222652Y-33490475D02*
X355336938Y-33490475D01*
X355336938Y-33490475D02*
X355489319Y-33528571D01*
X355489319Y-33528571D02*
X355565509Y-33566666D01*
X355565509Y-33566666D02*
X355641700Y-33642856D01*
X355641700Y-33642856D02*
X355679795Y-33757142D01*
X355679795Y-33757142D02*
X355679795Y-33947618D01*
X354917890Y-47089523D02*
X354879795Y-47165713D01*
X354879795Y-47165713D02*
X354879795Y-47279999D01*
X354879795Y-47279999D02*
X354917890Y-47394285D01*
X354917890Y-47394285D02*
X354994080Y-47470475D01*
X354994080Y-47470475D02*
X355070271Y-47508570D01*
X355070271Y-47508570D02*
X355222652Y-47546666D01*
X355222652Y-47546666D02*
X355336938Y-47546666D01*
X355336938Y-47546666D02*
X355489319Y-47508570D01*
X355489319Y-47508570D02*
X355565509Y-47470475D01*
X355565509Y-47470475D02*
X355641700Y-47394285D01*
X355641700Y-47394285D02*
X355679795Y-47279999D01*
X355679795Y-47279999D02*
X355679795Y-47203808D01*
X355679795Y-47203808D02*
X355641700Y-47089523D01*
X355641700Y-47089523D02*
X355603604Y-47051427D01*
X355603604Y-47051427D02*
X355336938Y-47051427D01*
X355336938Y-47051427D02*
X355336938Y-47203808D01*
X355679795Y-46708570D02*
X354879795Y-46708570D01*
X354879795Y-46708570D02*
X355679795Y-46251427D01*
X355679795Y-46251427D02*
X354879795Y-46251427D01*
X355679795Y-45870475D02*
X354879795Y-45870475D01*
X354879795Y-45870475D02*
X354879795Y-45679999D01*
X354879795Y-45679999D02*
X354917890Y-45565713D01*
X354917890Y-45565713D02*
X354994080Y-45489523D01*
X354994080Y-45489523D02*
X355070271Y-45451428D01*
X355070271Y-45451428D02*
X355222652Y-45413332D01*
X355222652Y-45413332D02*
X355336938Y-45413332D01*
X355336938Y-45413332D02*
X355489319Y-45451428D01*
X355489319Y-45451428D02*
X355565509Y-45489523D01*
X355565509Y-45489523D02*
X355641700Y-45565713D01*
X355641700Y-45565713D02*
X355679795Y-45679999D01*
X355679795Y-45679999D02*
X355679795Y-45870475D01*
X349837890Y-35852381D02*
X349799795Y-35928571D01*
X349799795Y-35928571D02*
X349799795Y-36042857D01*
X349799795Y-36042857D02*
X349837890Y-36157143D01*
X349837890Y-36157143D02*
X349914080Y-36233333D01*
X349914080Y-36233333D02*
X349990271Y-36271428D01*
X349990271Y-36271428D02*
X350142652Y-36309524D01*
X350142652Y-36309524D02*
X350256938Y-36309524D01*
X350256938Y-36309524D02*
X350409319Y-36271428D01*
X350409319Y-36271428D02*
X350485509Y-36233333D01*
X350485509Y-36233333D02*
X350561700Y-36157143D01*
X350561700Y-36157143D02*
X350599795Y-36042857D01*
X350599795Y-36042857D02*
X350599795Y-35966666D01*
X350599795Y-35966666D02*
X350561700Y-35852381D01*
X350561700Y-35852381D02*
X350523604Y-35814285D01*
X350523604Y-35814285D02*
X350256938Y-35814285D01*
X350256938Y-35814285D02*
X350256938Y-35966666D01*
X350599795Y-35471428D02*
X349799795Y-35471428D01*
X349799795Y-35471428D02*
X349799795Y-35166666D01*
X349799795Y-35166666D02*
X349837890Y-35090476D01*
X349837890Y-35090476D02*
X349875985Y-35052381D01*
X349875985Y-35052381D02*
X349952176Y-35014285D01*
X349952176Y-35014285D02*
X350066461Y-35014285D01*
X350066461Y-35014285D02*
X350142652Y-35052381D01*
X350142652Y-35052381D02*
X350180747Y-35090476D01*
X350180747Y-35090476D02*
X350218842Y-35166666D01*
X350218842Y-35166666D02*
X350218842Y-35471428D01*
X349875985Y-34709524D02*
X349837890Y-34671428D01*
X349837890Y-34671428D02*
X349799795Y-34595238D01*
X349799795Y-34595238D02*
X349799795Y-34404762D01*
X349799795Y-34404762D02*
X349837890Y-34328571D01*
X349837890Y-34328571D02*
X349875985Y-34290476D01*
X349875985Y-34290476D02*
X349952176Y-34252381D01*
X349952176Y-34252381D02*
X350028366Y-34252381D01*
X350028366Y-34252381D02*
X350142652Y-34290476D01*
X350142652Y-34290476D02*
X350599795Y-34747619D01*
X350599795Y-34747619D02*
X350599795Y-34252381D01*
X349799795Y-33566666D02*
X349799795Y-33719047D01*
X349799795Y-33719047D02*
X349837890Y-33795238D01*
X349837890Y-33795238D02*
X349875985Y-33833333D01*
X349875985Y-33833333D02*
X349990271Y-33909523D01*
X349990271Y-33909523D02*
X350142652Y-33947619D01*
X350142652Y-33947619D02*
X350447414Y-33947619D01*
X350447414Y-33947619D02*
X350523604Y-33909523D01*
X350523604Y-33909523D02*
X350561700Y-33871428D01*
X350561700Y-33871428D02*
X350599795Y-33795238D01*
X350599795Y-33795238D02*
X350599795Y-33642857D01*
X350599795Y-33642857D02*
X350561700Y-33566666D01*
X350561700Y-33566666D02*
X350523604Y-33528571D01*
X350523604Y-33528571D02*
X350447414Y-33490476D01*
X350447414Y-33490476D02*
X350256938Y-33490476D01*
X350256938Y-33490476D02*
X350180747Y-33528571D01*
X350180747Y-33528571D02*
X350142652Y-33566666D01*
X350142652Y-33566666D02*
X350104557Y-33642857D01*
X350104557Y-33642857D02*
X350104557Y-33795238D01*
X350104557Y-33795238D02*
X350142652Y-33871428D01*
X350142652Y-33871428D02*
X350180747Y-33909523D01*
X350180747Y-33909523D02*
X350256938Y-33947619D01*
X372697890Y-47051428D02*
X372659795Y-47127618D01*
X372659795Y-47127618D02*
X372659795Y-47241904D01*
X372659795Y-47241904D02*
X372697890Y-47356190D01*
X372697890Y-47356190D02*
X372774080Y-47432380D01*
X372774080Y-47432380D02*
X372850271Y-47470475D01*
X372850271Y-47470475D02*
X373002652Y-47508571D01*
X373002652Y-47508571D02*
X373116938Y-47508571D01*
X373116938Y-47508571D02*
X373269319Y-47470475D01*
X373269319Y-47470475D02*
X373345509Y-47432380D01*
X373345509Y-47432380D02*
X373421700Y-47356190D01*
X373421700Y-47356190D02*
X373459795Y-47241904D01*
X373459795Y-47241904D02*
X373459795Y-47165713D01*
X373459795Y-47165713D02*
X373421700Y-47051428D01*
X373421700Y-47051428D02*
X373383604Y-47013332D01*
X373383604Y-47013332D02*
X373116938Y-47013332D01*
X373116938Y-47013332D02*
X373116938Y-47165713D01*
X373459795Y-46670475D02*
X372659795Y-46670475D01*
X372659795Y-46670475D02*
X372659795Y-46365713D01*
X372659795Y-46365713D02*
X372697890Y-46289523D01*
X372697890Y-46289523D02*
X372735985Y-46251428D01*
X372735985Y-46251428D02*
X372812176Y-46213332D01*
X372812176Y-46213332D02*
X372926461Y-46213332D01*
X372926461Y-46213332D02*
X373002652Y-46251428D01*
X373002652Y-46251428D02*
X373040747Y-46289523D01*
X373040747Y-46289523D02*
X373078842Y-46365713D01*
X373078842Y-46365713D02*
X373078842Y-46670475D01*
X372659795Y-45718094D02*
X372659795Y-45641904D01*
X372659795Y-45641904D02*
X372697890Y-45565713D01*
X372697890Y-45565713D02*
X372735985Y-45527618D01*
X372735985Y-45527618D02*
X372812176Y-45489523D01*
X372812176Y-45489523D02*
X372964557Y-45451428D01*
X372964557Y-45451428D02*
X373155033Y-45451428D01*
X373155033Y-45451428D02*
X373307414Y-45489523D01*
X373307414Y-45489523D02*
X373383604Y-45527618D01*
X373383604Y-45527618D02*
X373421700Y-45565713D01*
X373421700Y-45565713D02*
X373459795Y-45641904D01*
X373459795Y-45641904D02*
X373459795Y-45718094D01*
X373459795Y-45718094D02*
X373421700Y-45794285D01*
X373421700Y-45794285D02*
X373383604Y-45832380D01*
X373383604Y-45832380D02*
X373307414Y-45870475D01*
X373307414Y-45870475D02*
X373155033Y-45908571D01*
X373155033Y-45908571D02*
X372964557Y-45908571D01*
X372964557Y-45908571D02*
X372812176Y-45870475D01*
X372812176Y-45870475D02*
X372735985Y-45832380D01*
X372735985Y-45832380D02*
X372697890Y-45794285D01*
X372697890Y-45794285D02*
X372659795Y-45718094D01*
X324437890Y-35852381D02*
X324399795Y-35928571D01*
X324399795Y-35928571D02*
X324399795Y-36042857D01*
X324399795Y-36042857D02*
X324437890Y-36157143D01*
X324437890Y-36157143D02*
X324514080Y-36233333D01*
X324514080Y-36233333D02*
X324590271Y-36271428D01*
X324590271Y-36271428D02*
X324742652Y-36309524D01*
X324742652Y-36309524D02*
X324856938Y-36309524D01*
X324856938Y-36309524D02*
X325009319Y-36271428D01*
X325009319Y-36271428D02*
X325085509Y-36233333D01*
X325085509Y-36233333D02*
X325161700Y-36157143D01*
X325161700Y-36157143D02*
X325199795Y-36042857D01*
X325199795Y-36042857D02*
X325199795Y-35966666D01*
X325199795Y-35966666D02*
X325161700Y-35852381D01*
X325161700Y-35852381D02*
X325123604Y-35814285D01*
X325123604Y-35814285D02*
X324856938Y-35814285D01*
X324856938Y-35814285D02*
X324856938Y-35966666D01*
X325199795Y-35471428D02*
X324399795Y-35471428D01*
X324399795Y-35471428D02*
X324399795Y-35166666D01*
X324399795Y-35166666D02*
X324437890Y-35090476D01*
X324437890Y-35090476D02*
X324475985Y-35052381D01*
X324475985Y-35052381D02*
X324552176Y-35014285D01*
X324552176Y-35014285D02*
X324666461Y-35014285D01*
X324666461Y-35014285D02*
X324742652Y-35052381D01*
X324742652Y-35052381D02*
X324780747Y-35090476D01*
X324780747Y-35090476D02*
X324818842Y-35166666D01*
X324818842Y-35166666D02*
X324818842Y-35471428D01*
X325199795Y-34252381D02*
X325199795Y-34709524D01*
X325199795Y-34480952D02*
X324399795Y-34480952D01*
X324399795Y-34480952D02*
X324514080Y-34557143D01*
X324514080Y-34557143D02*
X324590271Y-34633333D01*
X324590271Y-34633333D02*
X324628366Y-34709524D01*
X324399795Y-33566666D02*
X324399795Y-33719047D01*
X324399795Y-33719047D02*
X324437890Y-33795238D01*
X324437890Y-33795238D02*
X324475985Y-33833333D01*
X324475985Y-33833333D02*
X324590271Y-33909523D01*
X324590271Y-33909523D02*
X324742652Y-33947619D01*
X324742652Y-33947619D02*
X325047414Y-33947619D01*
X325047414Y-33947619D02*
X325123604Y-33909523D01*
X325123604Y-33909523D02*
X325161700Y-33871428D01*
X325161700Y-33871428D02*
X325199795Y-33795238D01*
X325199795Y-33795238D02*
X325199795Y-33642857D01*
X325199795Y-33642857D02*
X325161700Y-33566666D01*
X325161700Y-33566666D02*
X325123604Y-33528571D01*
X325123604Y-33528571D02*
X325047414Y-33490476D01*
X325047414Y-33490476D02*
X324856938Y-33490476D01*
X324856938Y-33490476D02*
X324780747Y-33528571D01*
X324780747Y-33528571D02*
X324742652Y-33566666D01*
X324742652Y-33566666D02*
X324704557Y-33642857D01*
X324704557Y-33642857D02*
X324704557Y-33795238D01*
X324704557Y-33795238D02*
X324742652Y-33871428D01*
X324742652Y-33871428D02*
X324780747Y-33909523D01*
X324780747Y-33909523D02*
X324856938Y-33947619D01*
X352377890Y-47051428D02*
X352339795Y-47127618D01*
X352339795Y-47127618D02*
X352339795Y-47241904D01*
X352339795Y-47241904D02*
X352377890Y-47356190D01*
X352377890Y-47356190D02*
X352454080Y-47432380D01*
X352454080Y-47432380D02*
X352530271Y-47470475D01*
X352530271Y-47470475D02*
X352682652Y-47508571D01*
X352682652Y-47508571D02*
X352796938Y-47508571D01*
X352796938Y-47508571D02*
X352949319Y-47470475D01*
X352949319Y-47470475D02*
X353025509Y-47432380D01*
X353025509Y-47432380D02*
X353101700Y-47356190D01*
X353101700Y-47356190D02*
X353139795Y-47241904D01*
X353139795Y-47241904D02*
X353139795Y-47165713D01*
X353139795Y-47165713D02*
X353101700Y-47051428D01*
X353101700Y-47051428D02*
X353063604Y-47013332D01*
X353063604Y-47013332D02*
X352796938Y-47013332D01*
X352796938Y-47013332D02*
X352796938Y-47165713D01*
X353139795Y-46670475D02*
X352339795Y-46670475D01*
X352339795Y-46670475D02*
X352339795Y-46365713D01*
X352339795Y-46365713D02*
X352377890Y-46289523D01*
X352377890Y-46289523D02*
X352415985Y-46251428D01*
X352415985Y-46251428D02*
X352492176Y-46213332D01*
X352492176Y-46213332D02*
X352606461Y-46213332D01*
X352606461Y-46213332D02*
X352682652Y-46251428D01*
X352682652Y-46251428D02*
X352720747Y-46289523D01*
X352720747Y-46289523D02*
X352758842Y-46365713D01*
X352758842Y-46365713D02*
X352758842Y-46670475D01*
X352339795Y-45527618D02*
X352339795Y-45679999D01*
X352339795Y-45679999D02*
X352377890Y-45756190D01*
X352377890Y-45756190D02*
X352415985Y-45794285D01*
X352415985Y-45794285D02*
X352530271Y-45870475D01*
X352530271Y-45870475D02*
X352682652Y-45908571D01*
X352682652Y-45908571D02*
X352987414Y-45908571D01*
X352987414Y-45908571D02*
X353063604Y-45870475D01*
X353063604Y-45870475D02*
X353101700Y-45832380D01*
X353101700Y-45832380D02*
X353139795Y-45756190D01*
X353139795Y-45756190D02*
X353139795Y-45603809D01*
X353139795Y-45603809D02*
X353101700Y-45527618D01*
X353101700Y-45527618D02*
X353063604Y-45489523D01*
X353063604Y-45489523D02*
X352987414Y-45451428D01*
X352987414Y-45451428D02*
X352796938Y-45451428D01*
X352796938Y-45451428D02*
X352720747Y-45489523D01*
X352720747Y-45489523D02*
X352682652Y-45527618D01*
X352682652Y-45527618D02*
X352644557Y-45603809D01*
X352644557Y-45603809D02*
X352644557Y-45756190D01*
X352644557Y-45756190D02*
X352682652Y-45832380D01*
X352682652Y-45832380D02*
X352720747Y-45870475D01*
X352720747Y-45870475D02*
X352796938Y-45908571D01*
X334597890Y-35852381D02*
X334559795Y-35928571D01*
X334559795Y-35928571D02*
X334559795Y-36042857D01*
X334559795Y-36042857D02*
X334597890Y-36157143D01*
X334597890Y-36157143D02*
X334674080Y-36233333D01*
X334674080Y-36233333D02*
X334750271Y-36271428D01*
X334750271Y-36271428D02*
X334902652Y-36309524D01*
X334902652Y-36309524D02*
X335016938Y-36309524D01*
X335016938Y-36309524D02*
X335169319Y-36271428D01*
X335169319Y-36271428D02*
X335245509Y-36233333D01*
X335245509Y-36233333D02*
X335321700Y-36157143D01*
X335321700Y-36157143D02*
X335359795Y-36042857D01*
X335359795Y-36042857D02*
X335359795Y-35966666D01*
X335359795Y-35966666D02*
X335321700Y-35852381D01*
X335321700Y-35852381D02*
X335283604Y-35814285D01*
X335283604Y-35814285D02*
X335016938Y-35814285D01*
X335016938Y-35814285D02*
X335016938Y-35966666D01*
X335359795Y-35471428D02*
X334559795Y-35471428D01*
X334559795Y-35471428D02*
X334559795Y-35166666D01*
X334559795Y-35166666D02*
X334597890Y-35090476D01*
X334597890Y-35090476D02*
X334635985Y-35052381D01*
X334635985Y-35052381D02*
X334712176Y-35014285D01*
X334712176Y-35014285D02*
X334826461Y-35014285D01*
X334826461Y-35014285D02*
X334902652Y-35052381D01*
X334902652Y-35052381D02*
X334940747Y-35090476D01*
X334940747Y-35090476D02*
X334978842Y-35166666D01*
X334978842Y-35166666D02*
X334978842Y-35471428D01*
X335359795Y-34252381D02*
X335359795Y-34709524D01*
X335359795Y-34480952D02*
X334559795Y-34480952D01*
X334559795Y-34480952D02*
X334674080Y-34557143D01*
X334674080Y-34557143D02*
X334750271Y-34633333D01*
X334750271Y-34633333D02*
X334788366Y-34709524D01*
X335359795Y-33871428D02*
X335359795Y-33719047D01*
X335359795Y-33719047D02*
X335321700Y-33642857D01*
X335321700Y-33642857D02*
X335283604Y-33604761D01*
X335283604Y-33604761D02*
X335169319Y-33528571D01*
X335169319Y-33528571D02*
X335016938Y-33490476D01*
X335016938Y-33490476D02*
X334712176Y-33490476D01*
X334712176Y-33490476D02*
X334635985Y-33528571D01*
X334635985Y-33528571D02*
X334597890Y-33566666D01*
X334597890Y-33566666D02*
X334559795Y-33642857D01*
X334559795Y-33642857D02*
X334559795Y-33795238D01*
X334559795Y-33795238D02*
X334597890Y-33871428D01*
X334597890Y-33871428D02*
X334635985Y-33909523D01*
X334635985Y-33909523D02*
X334712176Y-33947619D01*
X334712176Y-33947619D02*
X334902652Y-33947619D01*
X334902652Y-33947619D02*
X334978842Y-33909523D01*
X334978842Y-33909523D02*
X335016938Y-33871428D01*
X335016938Y-33871428D02*
X335055033Y-33795238D01*
X335055033Y-33795238D02*
X335055033Y-33642857D01*
X335055033Y-33642857D02*
X335016938Y-33566666D01*
X335016938Y-33566666D02*
X334978842Y-33528571D01*
X334978842Y-33528571D02*
X334902652Y-33490476D01*
X329517890Y-47089523D02*
X329479795Y-47165713D01*
X329479795Y-47165713D02*
X329479795Y-47279999D01*
X329479795Y-47279999D02*
X329517890Y-47394285D01*
X329517890Y-47394285D02*
X329594080Y-47470475D01*
X329594080Y-47470475D02*
X329670271Y-47508570D01*
X329670271Y-47508570D02*
X329822652Y-47546666D01*
X329822652Y-47546666D02*
X329936938Y-47546666D01*
X329936938Y-47546666D02*
X330089319Y-47508570D01*
X330089319Y-47508570D02*
X330165509Y-47470475D01*
X330165509Y-47470475D02*
X330241700Y-47394285D01*
X330241700Y-47394285D02*
X330279795Y-47279999D01*
X330279795Y-47279999D02*
X330279795Y-47203808D01*
X330279795Y-47203808D02*
X330241700Y-47089523D01*
X330241700Y-47089523D02*
X330203604Y-47051427D01*
X330203604Y-47051427D02*
X329936938Y-47051427D01*
X329936938Y-47051427D02*
X329936938Y-47203808D01*
X330279795Y-46708570D02*
X329479795Y-46708570D01*
X329479795Y-46708570D02*
X330279795Y-46251427D01*
X330279795Y-46251427D02*
X329479795Y-46251427D01*
X330279795Y-45870475D02*
X329479795Y-45870475D01*
X329479795Y-45870475D02*
X329479795Y-45679999D01*
X329479795Y-45679999D02*
X329517890Y-45565713D01*
X329517890Y-45565713D02*
X329594080Y-45489523D01*
X329594080Y-45489523D02*
X329670271Y-45451428D01*
X329670271Y-45451428D02*
X329822652Y-45413332D01*
X329822652Y-45413332D02*
X329936938Y-45413332D01*
X329936938Y-45413332D02*
X330089319Y-45451428D01*
X330089319Y-45451428D02*
X330165509Y-45489523D01*
X330165509Y-45489523D02*
X330241700Y-45565713D01*
X330241700Y-45565713D02*
X330279795Y-45679999D01*
X330279795Y-45679999D02*
X330279795Y-45870475D01*
X337137890Y-47082381D02*
X337099795Y-47158571D01*
X337099795Y-47158571D02*
X337099795Y-47272857D01*
X337099795Y-47272857D02*
X337137890Y-47387143D01*
X337137890Y-47387143D02*
X337214080Y-47463333D01*
X337214080Y-47463333D02*
X337290271Y-47501428D01*
X337290271Y-47501428D02*
X337442652Y-47539524D01*
X337442652Y-47539524D02*
X337556938Y-47539524D01*
X337556938Y-47539524D02*
X337709319Y-47501428D01*
X337709319Y-47501428D02*
X337785509Y-47463333D01*
X337785509Y-47463333D02*
X337861700Y-47387143D01*
X337861700Y-47387143D02*
X337899795Y-47272857D01*
X337899795Y-47272857D02*
X337899795Y-47196666D01*
X337899795Y-47196666D02*
X337861700Y-47082381D01*
X337861700Y-47082381D02*
X337823604Y-47044285D01*
X337823604Y-47044285D02*
X337556938Y-47044285D01*
X337556938Y-47044285D02*
X337556938Y-47196666D01*
X337899795Y-46701428D02*
X337099795Y-46701428D01*
X337099795Y-46701428D02*
X337099795Y-46396666D01*
X337099795Y-46396666D02*
X337137890Y-46320476D01*
X337137890Y-46320476D02*
X337175985Y-46282381D01*
X337175985Y-46282381D02*
X337252176Y-46244285D01*
X337252176Y-46244285D02*
X337366461Y-46244285D01*
X337366461Y-46244285D02*
X337442652Y-46282381D01*
X337442652Y-46282381D02*
X337480747Y-46320476D01*
X337480747Y-46320476D02*
X337518842Y-46396666D01*
X337518842Y-46396666D02*
X337518842Y-46701428D01*
X337899795Y-45482381D02*
X337899795Y-45939524D01*
X337899795Y-45710952D02*
X337099795Y-45710952D01*
X337099795Y-45710952D02*
X337214080Y-45787143D01*
X337214080Y-45787143D02*
X337290271Y-45863333D01*
X337290271Y-45863333D02*
X337328366Y-45939524D01*
X337899795Y-44720476D02*
X337899795Y-45177619D01*
X337899795Y-44949047D02*
X337099795Y-44949047D01*
X337099795Y-44949047D02*
X337214080Y-45025238D01*
X337214080Y-45025238D02*
X337290271Y-45101428D01*
X337290271Y-45101428D02*
X337328366Y-45177619D01*
X359997890Y-47051428D02*
X359959795Y-47127618D01*
X359959795Y-47127618D02*
X359959795Y-47241904D01*
X359959795Y-47241904D02*
X359997890Y-47356190D01*
X359997890Y-47356190D02*
X360074080Y-47432380D01*
X360074080Y-47432380D02*
X360150271Y-47470475D01*
X360150271Y-47470475D02*
X360302652Y-47508571D01*
X360302652Y-47508571D02*
X360416938Y-47508571D01*
X360416938Y-47508571D02*
X360569319Y-47470475D01*
X360569319Y-47470475D02*
X360645509Y-47432380D01*
X360645509Y-47432380D02*
X360721700Y-47356190D01*
X360721700Y-47356190D02*
X360759795Y-47241904D01*
X360759795Y-47241904D02*
X360759795Y-47165713D01*
X360759795Y-47165713D02*
X360721700Y-47051428D01*
X360721700Y-47051428D02*
X360683604Y-47013332D01*
X360683604Y-47013332D02*
X360416938Y-47013332D01*
X360416938Y-47013332D02*
X360416938Y-47165713D01*
X360759795Y-46670475D02*
X359959795Y-46670475D01*
X359959795Y-46670475D02*
X359959795Y-46365713D01*
X359959795Y-46365713D02*
X359997890Y-46289523D01*
X359997890Y-46289523D02*
X360035985Y-46251428D01*
X360035985Y-46251428D02*
X360112176Y-46213332D01*
X360112176Y-46213332D02*
X360226461Y-46213332D01*
X360226461Y-46213332D02*
X360302652Y-46251428D01*
X360302652Y-46251428D02*
X360340747Y-46289523D01*
X360340747Y-46289523D02*
X360378842Y-46365713D01*
X360378842Y-46365713D02*
X360378842Y-46670475D01*
X360226461Y-45527618D02*
X360759795Y-45527618D01*
X359921700Y-45718094D02*
X360493128Y-45908571D01*
X360493128Y-45908571D02*
X360493128Y-45413332D01*
X332057890Y-47082381D02*
X332019795Y-47158571D01*
X332019795Y-47158571D02*
X332019795Y-47272857D01*
X332019795Y-47272857D02*
X332057890Y-47387143D01*
X332057890Y-47387143D02*
X332134080Y-47463333D01*
X332134080Y-47463333D02*
X332210271Y-47501428D01*
X332210271Y-47501428D02*
X332362652Y-47539524D01*
X332362652Y-47539524D02*
X332476938Y-47539524D01*
X332476938Y-47539524D02*
X332629319Y-47501428D01*
X332629319Y-47501428D02*
X332705509Y-47463333D01*
X332705509Y-47463333D02*
X332781700Y-47387143D01*
X332781700Y-47387143D02*
X332819795Y-47272857D01*
X332819795Y-47272857D02*
X332819795Y-47196666D01*
X332819795Y-47196666D02*
X332781700Y-47082381D01*
X332781700Y-47082381D02*
X332743604Y-47044285D01*
X332743604Y-47044285D02*
X332476938Y-47044285D01*
X332476938Y-47044285D02*
X332476938Y-47196666D01*
X332819795Y-46701428D02*
X332019795Y-46701428D01*
X332019795Y-46701428D02*
X332019795Y-46396666D01*
X332019795Y-46396666D02*
X332057890Y-46320476D01*
X332057890Y-46320476D02*
X332095985Y-46282381D01*
X332095985Y-46282381D02*
X332172176Y-46244285D01*
X332172176Y-46244285D02*
X332286461Y-46244285D01*
X332286461Y-46244285D02*
X332362652Y-46282381D01*
X332362652Y-46282381D02*
X332400747Y-46320476D01*
X332400747Y-46320476D02*
X332438842Y-46396666D01*
X332438842Y-46396666D02*
X332438842Y-46701428D01*
X332819795Y-45482381D02*
X332819795Y-45939524D01*
X332819795Y-45710952D02*
X332019795Y-45710952D01*
X332019795Y-45710952D02*
X332134080Y-45787143D01*
X332134080Y-45787143D02*
X332210271Y-45863333D01*
X332210271Y-45863333D02*
X332248366Y-45939524D01*
X332019795Y-45215714D02*
X332019795Y-44720476D01*
X332019795Y-44720476D02*
X332324557Y-44987142D01*
X332324557Y-44987142D02*
X332324557Y-44872857D01*
X332324557Y-44872857D02*
X332362652Y-44796666D01*
X332362652Y-44796666D02*
X332400747Y-44758571D01*
X332400747Y-44758571D02*
X332476938Y-44720476D01*
X332476938Y-44720476D02*
X332667414Y-44720476D01*
X332667414Y-44720476D02*
X332743604Y-44758571D01*
X332743604Y-44758571D02*
X332781700Y-44796666D01*
X332781700Y-44796666D02*
X332819795Y-44872857D01*
X332819795Y-44872857D02*
X332819795Y-45101428D01*
X332819795Y-45101428D02*
X332781700Y-45177619D01*
X332781700Y-45177619D02*
X332743604Y-45215714D01*
X326907975Y-43304200D02*
X327022261Y-43342295D01*
X327022261Y-43342295D02*
X327212737Y-43342295D01*
X327212737Y-43342295D02*
X327288928Y-43304200D01*
X327288928Y-43304200D02*
X327327023Y-43266104D01*
X327327023Y-43266104D02*
X327365118Y-43189914D01*
X327365118Y-43189914D02*
X327365118Y-43113723D01*
X327365118Y-43113723D02*
X327327023Y-43037533D01*
X327327023Y-43037533D02*
X327288928Y-42999438D01*
X327288928Y-42999438D02*
X327212737Y-42961342D01*
X327212737Y-42961342D02*
X327060356Y-42923247D01*
X327060356Y-42923247D02*
X326984166Y-42885152D01*
X326984166Y-42885152D02*
X326946071Y-42847057D01*
X326946071Y-42847057D02*
X326907975Y-42770866D01*
X326907975Y-42770866D02*
X326907975Y-42694676D01*
X326907975Y-42694676D02*
X326946071Y-42618485D01*
X326946071Y-42618485D02*
X326984166Y-42580390D01*
X326984166Y-42580390D02*
X327060356Y-42542295D01*
X327060356Y-42542295D02*
X327250833Y-42542295D01*
X327250833Y-42542295D02*
X327365118Y-42580390D01*
X327631785Y-42542295D02*
X327822261Y-43342295D01*
X327822261Y-43342295D02*
X327974642Y-42770866D01*
X327974642Y-42770866D02*
X328127023Y-43342295D01*
X328127023Y-43342295D02*
X328317500Y-42542295D01*
X329079405Y-43266104D02*
X329041309Y-43304200D01*
X329041309Y-43304200D02*
X328927024Y-43342295D01*
X328927024Y-43342295D02*
X328850833Y-43342295D01*
X328850833Y-43342295D02*
X328736547Y-43304200D01*
X328736547Y-43304200D02*
X328660357Y-43228009D01*
X328660357Y-43228009D02*
X328622262Y-43151819D01*
X328622262Y-43151819D02*
X328584166Y-42999438D01*
X328584166Y-42999438D02*
X328584166Y-42885152D01*
X328584166Y-42885152D02*
X328622262Y-42732771D01*
X328622262Y-42732771D02*
X328660357Y-42656580D01*
X328660357Y-42656580D02*
X328736547Y-42580390D01*
X328736547Y-42580390D02*
X328850833Y-42542295D01*
X328850833Y-42542295D02*
X328927024Y-42542295D01*
X328927024Y-42542295D02*
X329041309Y-42580390D01*
X329041309Y-42580390D02*
X329079405Y-42618485D01*
X329803214Y-43342295D02*
X329422262Y-43342295D01*
X329422262Y-43342295D02*
X329422262Y-42542295D01*
X330069881Y-43342295D02*
X330069881Y-42542295D01*
X330527024Y-43342295D02*
X330184166Y-42885152D01*
X330527024Y-42542295D02*
X330069881Y-42999438D01*
X372659795Y-36116666D02*
X373459795Y-35849999D01*
X373459795Y-35849999D02*
X372659795Y-35583333D01*
X373040747Y-35050000D02*
X373078842Y-34935714D01*
X373078842Y-34935714D02*
X373116938Y-34897619D01*
X373116938Y-34897619D02*
X373193128Y-34859523D01*
X373193128Y-34859523D02*
X373307414Y-34859523D01*
X373307414Y-34859523D02*
X373383604Y-34897619D01*
X373383604Y-34897619D02*
X373421700Y-34935714D01*
X373421700Y-34935714D02*
X373459795Y-35011904D01*
X373459795Y-35011904D02*
X373459795Y-35316666D01*
X373459795Y-35316666D02*
X372659795Y-35316666D01*
X372659795Y-35316666D02*
X372659795Y-35050000D01*
X372659795Y-35050000D02*
X372697890Y-34973809D01*
X372697890Y-34973809D02*
X372735985Y-34935714D01*
X372735985Y-34935714D02*
X372812176Y-34897619D01*
X372812176Y-34897619D02*
X372888366Y-34897619D01*
X372888366Y-34897619D02*
X372964557Y-34935714D01*
X372964557Y-34935714D02*
X373002652Y-34973809D01*
X373002652Y-34973809D02*
X373040747Y-35050000D01*
X373040747Y-35050000D02*
X373040747Y-35316666D01*
X372659795Y-34516666D02*
X373307414Y-34516666D01*
X373307414Y-34516666D02*
X373383604Y-34478571D01*
X373383604Y-34478571D02*
X373421700Y-34440476D01*
X373421700Y-34440476D02*
X373459795Y-34364285D01*
X373459795Y-34364285D02*
X373459795Y-34211904D01*
X373459795Y-34211904D02*
X373421700Y-34135714D01*
X373421700Y-34135714D02*
X373383604Y-34097619D01*
X373383604Y-34097619D02*
X373307414Y-34059523D01*
X373307414Y-34059523D02*
X372659795Y-34059523D01*
X373421700Y-33716667D02*
X373459795Y-33602381D01*
X373459795Y-33602381D02*
X373459795Y-33411905D01*
X373459795Y-33411905D02*
X373421700Y-33335714D01*
X373421700Y-33335714D02*
X373383604Y-33297619D01*
X373383604Y-33297619D02*
X373307414Y-33259524D01*
X373307414Y-33259524D02*
X373231223Y-33259524D01*
X373231223Y-33259524D02*
X373155033Y-33297619D01*
X373155033Y-33297619D02*
X373116938Y-33335714D01*
X373116938Y-33335714D02*
X373078842Y-33411905D01*
X373078842Y-33411905D02*
X373040747Y-33564286D01*
X373040747Y-33564286D02*
X373002652Y-33640476D01*
X373002652Y-33640476D02*
X372964557Y-33678571D01*
X372964557Y-33678571D02*
X372888366Y-33716667D01*
X372888366Y-33716667D02*
X372812176Y-33716667D01*
X372812176Y-33716667D02*
X372735985Y-33678571D01*
X372735985Y-33678571D02*
X372697890Y-33640476D01*
X372697890Y-33640476D02*
X372659795Y-33564286D01*
X372659795Y-33564286D02*
X372659795Y-33373809D01*
X372659795Y-33373809D02*
X372697890Y-33259524D01*
X360531223Y-38892857D02*
X360531223Y-38511904D01*
X360759795Y-38969047D02*
X359959795Y-38702380D01*
X359959795Y-38702380D02*
X360759795Y-38435714D01*
X360759795Y-38169047D02*
X359959795Y-38169047D01*
X359959795Y-38169047D02*
X359959795Y-37978571D01*
X359959795Y-37978571D02*
X359997890Y-37864285D01*
X359997890Y-37864285D02*
X360074080Y-37788095D01*
X360074080Y-37788095D02*
X360150271Y-37750000D01*
X360150271Y-37750000D02*
X360302652Y-37711904D01*
X360302652Y-37711904D02*
X360416938Y-37711904D01*
X360416938Y-37711904D02*
X360569319Y-37750000D01*
X360569319Y-37750000D02*
X360645509Y-37788095D01*
X360645509Y-37788095D02*
X360721700Y-37864285D01*
X360721700Y-37864285D02*
X360759795Y-37978571D01*
X360759795Y-37978571D02*
X360759795Y-38169047D01*
X360683604Y-36911904D02*
X360721700Y-36950000D01*
X360721700Y-36950000D02*
X360759795Y-37064285D01*
X360759795Y-37064285D02*
X360759795Y-37140476D01*
X360759795Y-37140476D02*
X360721700Y-37254762D01*
X360721700Y-37254762D02*
X360645509Y-37330952D01*
X360645509Y-37330952D02*
X360569319Y-37369047D01*
X360569319Y-37369047D02*
X360416938Y-37407143D01*
X360416938Y-37407143D02*
X360302652Y-37407143D01*
X360302652Y-37407143D02*
X360150271Y-37369047D01*
X360150271Y-37369047D02*
X360074080Y-37330952D01*
X360074080Y-37330952D02*
X359997890Y-37254762D01*
X359997890Y-37254762D02*
X359959795Y-37140476D01*
X359959795Y-37140476D02*
X359959795Y-37064285D01*
X359959795Y-37064285D02*
X359997890Y-36950000D01*
X359997890Y-36950000D02*
X360035985Y-36911904D01*
X360835985Y-36759524D02*
X360835985Y-36150000D01*
X359959795Y-36073809D02*
X360759795Y-35807142D01*
X360759795Y-35807142D02*
X359959795Y-35540476D01*
X360759795Y-34816666D02*
X360378842Y-35083333D01*
X360759795Y-35273809D02*
X359959795Y-35273809D01*
X359959795Y-35273809D02*
X359959795Y-34969047D01*
X359959795Y-34969047D02*
X359997890Y-34892857D01*
X359997890Y-34892857D02*
X360035985Y-34854762D01*
X360035985Y-34854762D02*
X360112176Y-34816666D01*
X360112176Y-34816666D02*
X360226461Y-34816666D01*
X360226461Y-34816666D02*
X360302652Y-34854762D01*
X360302652Y-34854762D02*
X360340747Y-34892857D01*
X360340747Y-34892857D02*
X360378842Y-34969047D01*
X360378842Y-34969047D02*
X360378842Y-35273809D01*
X360340747Y-34473809D02*
X360340747Y-34207143D01*
X360759795Y-34092857D02*
X360759795Y-34473809D01*
X360759795Y-34473809D02*
X359959795Y-34473809D01*
X359959795Y-34473809D02*
X359959795Y-34092857D01*
X360340747Y-33483333D02*
X360340747Y-33749999D01*
X360759795Y-33749999D02*
X359959795Y-33749999D01*
X359959795Y-33749999D02*
X359959795Y-33369047D01*
X367617890Y-35009523D02*
X367579795Y-35085713D01*
X367579795Y-35085713D02*
X367579795Y-35199999D01*
X367579795Y-35199999D02*
X367617890Y-35314285D01*
X367617890Y-35314285D02*
X367694080Y-35390475D01*
X367694080Y-35390475D02*
X367770271Y-35428570D01*
X367770271Y-35428570D02*
X367922652Y-35466666D01*
X367922652Y-35466666D02*
X368036938Y-35466666D01*
X368036938Y-35466666D02*
X368189319Y-35428570D01*
X368189319Y-35428570D02*
X368265509Y-35390475D01*
X368265509Y-35390475D02*
X368341700Y-35314285D01*
X368341700Y-35314285D02*
X368379795Y-35199999D01*
X368379795Y-35199999D02*
X368379795Y-35123808D01*
X368379795Y-35123808D02*
X368341700Y-35009523D01*
X368341700Y-35009523D02*
X368303604Y-34971427D01*
X368303604Y-34971427D02*
X368036938Y-34971427D01*
X368036938Y-34971427D02*
X368036938Y-35123808D01*
X368379795Y-34628570D02*
X367579795Y-34628570D01*
X367579795Y-34628570D02*
X368379795Y-34171427D01*
X368379795Y-34171427D02*
X367579795Y-34171427D01*
X368379795Y-33790475D02*
X367579795Y-33790475D01*
X367579795Y-33790475D02*
X367579795Y-33599999D01*
X367579795Y-33599999D02*
X367617890Y-33485713D01*
X367617890Y-33485713D02*
X367694080Y-33409523D01*
X367694080Y-33409523D02*
X367770271Y-33371428D01*
X367770271Y-33371428D02*
X367922652Y-33333332D01*
X367922652Y-33333332D02*
X368036938Y-33333332D01*
X368036938Y-33333332D02*
X368189319Y-33371428D01*
X368189319Y-33371428D02*
X368265509Y-33409523D01*
X368265509Y-33409523D02*
X368341700Y-33485713D01*
X368341700Y-33485713D02*
X368379795Y-33599999D01*
X368379795Y-33599999D02*
X368379795Y-33790475D01*
X339667890Y-35852381D02*
X339629795Y-35928571D01*
X339629795Y-35928571D02*
X339629795Y-36042857D01*
X339629795Y-36042857D02*
X339667890Y-36157143D01*
X339667890Y-36157143D02*
X339744080Y-36233333D01*
X339744080Y-36233333D02*
X339820271Y-36271428D01*
X339820271Y-36271428D02*
X339972652Y-36309524D01*
X339972652Y-36309524D02*
X340086938Y-36309524D01*
X340086938Y-36309524D02*
X340239319Y-36271428D01*
X340239319Y-36271428D02*
X340315509Y-36233333D01*
X340315509Y-36233333D02*
X340391700Y-36157143D01*
X340391700Y-36157143D02*
X340429795Y-36042857D01*
X340429795Y-36042857D02*
X340429795Y-35966666D01*
X340429795Y-35966666D02*
X340391700Y-35852381D01*
X340391700Y-35852381D02*
X340353604Y-35814285D01*
X340353604Y-35814285D02*
X340086938Y-35814285D01*
X340086938Y-35814285D02*
X340086938Y-35966666D01*
X340429795Y-35471428D02*
X339629795Y-35471428D01*
X339629795Y-35471428D02*
X339629795Y-35166666D01*
X339629795Y-35166666D02*
X339667890Y-35090476D01*
X339667890Y-35090476D02*
X339705985Y-35052381D01*
X339705985Y-35052381D02*
X339782176Y-35014285D01*
X339782176Y-35014285D02*
X339896461Y-35014285D01*
X339896461Y-35014285D02*
X339972652Y-35052381D01*
X339972652Y-35052381D02*
X340010747Y-35090476D01*
X340010747Y-35090476D02*
X340048842Y-35166666D01*
X340048842Y-35166666D02*
X340048842Y-35471428D01*
X339705985Y-34709524D02*
X339667890Y-34671428D01*
X339667890Y-34671428D02*
X339629795Y-34595238D01*
X339629795Y-34595238D02*
X339629795Y-34404762D01*
X339629795Y-34404762D02*
X339667890Y-34328571D01*
X339667890Y-34328571D02*
X339705985Y-34290476D01*
X339705985Y-34290476D02*
X339782176Y-34252381D01*
X339782176Y-34252381D02*
X339858366Y-34252381D01*
X339858366Y-34252381D02*
X339972652Y-34290476D01*
X339972652Y-34290476D02*
X340429795Y-34747619D01*
X340429795Y-34747619D02*
X340429795Y-34252381D01*
X340429795Y-33490476D02*
X340429795Y-33947619D01*
X340429795Y-33719047D02*
X339629795Y-33719047D01*
X339629795Y-33719047D02*
X339744080Y-33795238D01*
X339744080Y-33795238D02*
X339820271Y-33871428D01*
X339820271Y-33871428D02*
X339858366Y-33947619D01*
X342217890Y-47089523D02*
X342179795Y-47165713D01*
X342179795Y-47165713D02*
X342179795Y-47279999D01*
X342179795Y-47279999D02*
X342217890Y-47394285D01*
X342217890Y-47394285D02*
X342294080Y-47470475D01*
X342294080Y-47470475D02*
X342370271Y-47508570D01*
X342370271Y-47508570D02*
X342522652Y-47546666D01*
X342522652Y-47546666D02*
X342636938Y-47546666D01*
X342636938Y-47546666D02*
X342789319Y-47508570D01*
X342789319Y-47508570D02*
X342865509Y-47470475D01*
X342865509Y-47470475D02*
X342941700Y-47394285D01*
X342941700Y-47394285D02*
X342979795Y-47279999D01*
X342979795Y-47279999D02*
X342979795Y-47203808D01*
X342979795Y-47203808D02*
X342941700Y-47089523D01*
X342941700Y-47089523D02*
X342903604Y-47051427D01*
X342903604Y-47051427D02*
X342636938Y-47051427D01*
X342636938Y-47051427D02*
X342636938Y-47203808D01*
X342979795Y-46708570D02*
X342179795Y-46708570D01*
X342179795Y-46708570D02*
X342979795Y-46251427D01*
X342979795Y-46251427D02*
X342179795Y-46251427D01*
X342979795Y-45870475D02*
X342179795Y-45870475D01*
X342179795Y-45870475D02*
X342179795Y-45679999D01*
X342179795Y-45679999D02*
X342217890Y-45565713D01*
X342217890Y-45565713D02*
X342294080Y-45489523D01*
X342294080Y-45489523D02*
X342370271Y-45451428D01*
X342370271Y-45451428D02*
X342522652Y-45413332D01*
X342522652Y-45413332D02*
X342636938Y-45413332D01*
X342636938Y-45413332D02*
X342789319Y-45451428D01*
X342789319Y-45451428D02*
X342865509Y-45489523D01*
X342865509Y-45489523D02*
X342941700Y-45565713D01*
X342941700Y-45565713D02*
X342979795Y-45679999D01*
X342979795Y-45679999D02*
X342979795Y-45870475D01*
X327022261Y-38224200D02*
X327136547Y-38262295D01*
X327136547Y-38262295D02*
X327327023Y-38262295D01*
X327327023Y-38262295D02*
X327403214Y-38224200D01*
X327403214Y-38224200D02*
X327441309Y-38186104D01*
X327441309Y-38186104D02*
X327479404Y-38109914D01*
X327479404Y-38109914D02*
X327479404Y-38033723D01*
X327479404Y-38033723D02*
X327441309Y-37957533D01*
X327441309Y-37957533D02*
X327403214Y-37919438D01*
X327403214Y-37919438D02*
X327327023Y-37881342D01*
X327327023Y-37881342D02*
X327174642Y-37843247D01*
X327174642Y-37843247D02*
X327098452Y-37805152D01*
X327098452Y-37805152D02*
X327060357Y-37767057D01*
X327060357Y-37767057D02*
X327022261Y-37690866D01*
X327022261Y-37690866D02*
X327022261Y-37614676D01*
X327022261Y-37614676D02*
X327060357Y-37538485D01*
X327060357Y-37538485D02*
X327098452Y-37500390D01*
X327098452Y-37500390D02*
X327174642Y-37462295D01*
X327174642Y-37462295D02*
X327365119Y-37462295D01*
X327365119Y-37462295D02*
X327479404Y-37500390D01*
X327746071Y-37462295D02*
X327936547Y-38262295D01*
X327936547Y-38262295D02*
X328088928Y-37690866D01*
X328088928Y-37690866D02*
X328241309Y-38262295D01*
X328241309Y-38262295D02*
X328431786Y-37462295D01*
X328736548Y-38262295D02*
X328736548Y-37462295D01*
X328736548Y-37462295D02*
X328927024Y-37462295D01*
X328927024Y-37462295D02*
X329041310Y-37500390D01*
X329041310Y-37500390D02*
X329117500Y-37576580D01*
X329117500Y-37576580D02*
X329155595Y-37652771D01*
X329155595Y-37652771D02*
X329193691Y-37805152D01*
X329193691Y-37805152D02*
X329193691Y-37919438D01*
X329193691Y-37919438D02*
X329155595Y-38071819D01*
X329155595Y-38071819D02*
X329117500Y-38148009D01*
X329117500Y-38148009D02*
X329041310Y-38224200D01*
X329041310Y-38224200D02*
X328927024Y-38262295D01*
X328927024Y-38262295D02*
X328736548Y-38262295D01*
X329536548Y-38262295D02*
X329536548Y-37462295D01*
X330069881Y-37462295D02*
X330222262Y-37462295D01*
X330222262Y-37462295D02*
X330298452Y-37500390D01*
X330298452Y-37500390D02*
X330374643Y-37576580D01*
X330374643Y-37576580D02*
X330412738Y-37728961D01*
X330412738Y-37728961D02*
X330412738Y-37995628D01*
X330412738Y-37995628D02*
X330374643Y-38148009D01*
X330374643Y-38148009D02*
X330298452Y-38224200D01*
X330298452Y-38224200D02*
X330222262Y-38262295D01*
X330222262Y-38262295D02*
X330069881Y-38262295D01*
X330069881Y-38262295D02*
X329993690Y-38224200D01*
X329993690Y-38224200D02*
X329917500Y-38148009D01*
X329917500Y-38148009D02*
X329879404Y-37995628D01*
X329879404Y-37995628D02*
X329879404Y-37728961D01*
X329879404Y-37728961D02*
X329917500Y-37576580D01*
X329917500Y-37576580D02*
X329993690Y-37500390D01*
X329993690Y-37500390D02*
X330069881Y-37462295D01*
X349867890Y-47051428D02*
X349829795Y-47127618D01*
X349829795Y-47127618D02*
X349829795Y-47241904D01*
X349829795Y-47241904D02*
X349867890Y-47356190D01*
X349867890Y-47356190D02*
X349944080Y-47432380D01*
X349944080Y-47432380D02*
X350020271Y-47470475D01*
X350020271Y-47470475D02*
X350172652Y-47508571D01*
X350172652Y-47508571D02*
X350286938Y-47508571D01*
X350286938Y-47508571D02*
X350439319Y-47470475D01*
X350439319Y-47470475D02*
X350515509Y-47432380D01*
X350515509Y-47432380D02*
X350591700Y-47356190D01*
X350591700Y-47356190D02*
X350629795Y-47241904D01*
X350629795Y-47241904D02*
X350629795Y-47165713D01*
X350629795Y-47165713D02*
X350591700Y-47051428D01*
X350591700Y-47051428D02*
X350553604Y-47013332D01*
X350553604Y-47013332D02*
X350286938Y-47013332D01*
X350286938Y-47013332D02*
X350286938Y-47165713D01*
X350629795Y-46670475D02*
X349829795Y-46670475D01*
X349829795Y-46670475D02*
X349829795Y-46365713D01*
X349829795Y-46365713D02*
X349867890Y-46289523D01*
X349867890Y-46289523D02*
X349905985Y-46251428D01*
X349905985Y-46251428D02*
X349982176Y-46213332D01*
X349982176Y-46213332D02*
X350096461Y-46213332D01*
X350096461Y-46213332D02*
X350172652Y-46251428D01*
X350172652Y-46251428D02*
X350210747Y-46289523D01*
X350210747Y-46289523D02*
X350248842Y-46365713D01*
X350248842Y-46365713D02*
X350248842Y-46670475D01*
X349829795Y-45946666D02*
X349829795Y-45413332D01*
X349829795Y-45413332D02*
X350629795Y-45756190D01*
X352367890Y-35852381D02*
X352329795Y-35928571D01*
X352329795Y-35928571D02*
X352329795Y-36042857D01*
X352329795Y-36042857D02*
X352367890Y-36157143D01*
X352367890Y-36157143D02*
X352444080Y-36233333D01*
X352444080Y-36233333D02*
X352520271Y-36271428D01*
X352520271Y-36271428D02*
X352672652Y-36309524D01*
X352672652Y-36309524D02*
X352786938Y-36309524D01*
X352786938Y-36309524D02*
X352939319Y-36271428D01*
X352939319Y-36271428D02*
X353015509Y-36233333D01*
X353015509Y-36233333D02*
X353091700Y-36157143D01*
X353091700Y-36157143D02*
X353129795Y-36042857D01*
X353129795Y-36042857D02*
X353129795Y-35966666D01*
X353129795Y-35966666D02*
X353091700Y-35852381D01*
X353091700Y-35852381D02*
X353053604Y-35814285D01*
X353053604Y-35814285D02*
X352786938Y-35814285D01*
X352786938Y-35814285D02*
X352786938Y-35966666D01*
X353129795Y-35471428D02*
X352329795Y-35471428D01*
X352329795Y-35471428D02*
X352329795Y-35166666D01*
X352329795Y-35166666D02*
X352367890Y-35090476D01*
X352367890Y-35090476D02*
X352405985Y-35052381D01*
X352405985Y-35052381D02*
X352482176Y-35014285D01*
X352482176Y-35014285D02*
X352596461Y-35014285D01*
X352596461Y-35014285D02*
X352672652Y-35052381D01*
X352672652Y-35052381D02*
X352710747Y-35090476D01*
X352710747Y-35090476D02*
X352748842Y-35166666D01*
X352748842Y-35166666D02*
X352748842Y-35471428D01*
X352405985Y-34709524D02*
X352367890Y-34671428D01*
X352367890Y-34671428D02*
X352329795Y-34595238D01*
X352329795Y-34595238D02*
X352329795Y-34404762D01*
X352329795Y-34404762D02*
X352367890Y-34328571D01*
X352367890Y-34328571D02*
X352405985Y-34290476D01*
X352405985Y-34290476D02*
X352482176Y-34252381D01*
X352482176Y-34252381D02*
X352558366Y-34252381D01*
X352558366Y-34252381D02*
X352672652Y-34290476D01*
X352672652Y-34290476D02*
X353129795Y-34747619D01*
X353129795Y-34747619D02*
X353129795Y-34252381D01*
X352329795Y-33985714D02*
X352329795Y-33452380D01*
X352329795Y-33452380D02*
X353129795Y-33795238D01*
X370167890Y-47051428D02*
X370129795Y-47127618D01*
X370129795Y-47127618D02*
X370129795Y-47241904D01*
X370129795Y-47241904D02*
X370167890Y-47356190D01*
X370167890Y-47356190D02*
X370244080Y-47432380D01*
X370244080Y-47432380D02*
X370320271Y-47470475D01*
X370320271Y-47470475D02*
X370472652Y-47508571D01*
X370472652Y-47508571D02*
X370586938Y-47508571D01*
X370586938Y-47508571D02*
X370739319Y-47470475D01*
X370739319Y-47470475D02*
X370815509Y-47432380D01*
X370815509Y-47432380D02*
X370891700Y-47356190D01*
X370891700Y-47356190D02*
X370929795Y-47241904D01*
X370929795Y-47241904D02*
X370929795Y-47165713D01*
X370929795Y-47165713D02*
X370891700Y-47051428D01*
X370891700Y-47051428D02*
X370853604Y-47013332D01*
X370853604Y-47013332D02*
X370586938Y-47013332D01*
X370586938Y-47013332D02*
X370586938Y-47165713D01*
X370929795Y-46670475D02*
X370129795Y-46670475D01*
X370129795Y-46670475D02*
X370129795Y-46365713D01*
X370129795Y-46365713D02*
X370167890Y-46289523D01*
X370167890Y-46289523D02*
X370205985Y-46251428D01*
X370205985Y-46251428D02*
X370282176Y-46213332D01*
X370282176Y-46213332D02*
X370396461Y-46213332D01*
X370396461Y-46213332D02*
X370472652Y-46251428D01*
X370472652Y-46251428D02*
X370510747Y-46289523D01*
X370510747Y-46289523D02*
X370548842Y-46365713D01*
X370548842Y-46365713D02*
X370548842Y-46670475D01*
X370929795Y-45451428D02*
X370929795Y-45908571D01*
X370929795Y-45679999D02*
X370129795Y-45679999D01*
X370129795Y-45679999D02*
X370244080Y-45756190D01*
X370244080Y-45756190D02*
X370320271Y-45832380D01*
X370320271Y-45832380D02*
X370358366Y-45908571D01*
X367617890Y-47089523D02*
X367579795Y-47165713D01*
X367579795Y-47165713D02*
X367579795Y-47279999D01*
X367579795Y-47279999D02*
X367617890Y-47394285D01*
X367617890Y-47394285D02*
X367694080Y-47470475D01*
X367694080Y-47470475D02*
X367770271Y-47508570D01*
X367770271Y-47508570D02*
X367922652Y-47546666D01*
X367922652Y-47546666D02*
X368036938Y-47546666D01*
X368036938Y-47546666D02*
X368189319Y-47508570D01*
X368189319Y-47508570D02*
X368265509Y-47470475D01*
X368265509Y-47470475D02*
X368341700Y-47394285D01*
X368341700Y-47394285D02*
X368379795Y-47279999D01*
X368379795Y-47279999D02*
X368379795Y-47203808D01*
X368379795Y-47203808D02*
X368341700Y-47089523D01*
X368341700Y-47089523D02*
X368303604Y-47051427D01*
X368303604Y-47051427D02*
X368036938Y-47051427D01*
X368036938Y-47051427D02*
X368036938Y-47203808D01*
X368379795Y-46708570D02*
X367579795Y-46708570D01*
X367579795Y-46708570D02*
X368379795Y-46251427D01*
X368379795Y-46251427D02*
X367579795Y-46251427D01*
X368379795Y-45870475D02*
X367579795Y-45870475D01*
X367579795Y-45870475D02*
X367579795Y-45679999D01*
X367579795Y-45679999D02*
X367617890Y-45565713D01*
X367617890Y-45565713D02*
X367694080Y-45489523D01*
X367694080Y-45489523D02*
X367770271Y-45451428D01*
X367770271Y-45451428D02*
X367922652Y-45413332D01*
X367922652Y-45413332D02*
X368036938Y-45413332D01*
X368036938Y-45413332D02*
X368189319Y-45451428D01*
X368189319Y-45451428D02*
X368265509Y-45489523D01*
X368265509Y-45489523D02*
X368341700Y-45565713D01*
X368341700Y-45565713D02*
X368379795Y-45679999D01*
X368379795Y-45679999D02*
X368379795Y-45870475D01*
X348059795Y-35140475D02*
X347678842Y-35407142D01*
X348059795Y-35597618D02*
X347259795Y-35597618D01*
X347259795Y-35597618D02*
X347259795Y-35292856D01*
X347259795Y-35292856D02*
X347297890Y-35216666D01*
X347297890Y-35216666D02*
X347335985Y-35178571D01*
X347335985Y-35178571D02*
X347412176Y-35140475D01*
X347412176Y-35140475D02*
X347526461Y-35140475D01*
X347526461Y-35140475D02*
X347602652Y-35178571D01*
X347602652Y-35178571D02*
X347640747Y-35216666D01*
X347640747Y-35216666D02*
X347678842Y-35292856D01*
X347678842Y-35292856D02*
X347678842Y-35597618D01*
X347259795Y-34797618D02*
X347907414Y-34797618D01*
X347907414Y-34797618D02*
X347983604Y-34759523D01*
X347983604Y-34759523D02*
X348021700Y-34721428D01*
X348021700Y-34721428D02*
X348059795Y-34645237D01*
X348059795Y-34645237D02*
X348059795Y-34492856D01*
X348059795Y-34492856D02*
X348021700Y-34416666D01*
X348021700Y-34416666D02*
X347983604Y-34378571D01*
X347983604Y-34378571D02*
X347907414Y-34340475D01*
X347907414Y-34340475D02*
X347259795Y-34340475D01*
X348059795Y-33959523D02*
X347259795Y-33959523D01*
X347259795Y-33959523D02*
X348059795Y-33502380D01*
X348059795Y-33502380D02*
X347259795Y-33502380D01*
X365077890Y-47051428D02*
X365039795Y-47127618D01*
X365039795Y-47127618D02*
X365039795Y-47241904D01*
X365039795Y-47241904D02*
X365077890Y-47356190D01*
X365077890Y-47356190D02*
X365154080Y-47432380D01*
X365154080Y-47432380D02*
X365230271Y-47470475D01*
X365230271Y-47470475D02*
X365382652Y-47508571D01*
X365382652Y-47508571D02*
X365496938Y-47508571D01*
X365496938Y-47508571D02*
X365649319Y-47470475D01*
X365649319Y-47470475D02*
X365725509Y-47432380D01*
X365725509Y-47432380D02*
X365801700Y-47356190D01*
X365801700Y-47356190D02*
X365839795Y-47241904D01*
X365839795Y-47241904D02*
X365839795Y-47165713D01*
X365839795Y-47165713D02*
X365801700Y-47051428D01*
X365801700Y-47051428D02*
X365763604Y-47013332D01*
X365763604Y-47013332D02*
X365496938Y-47013332D01*
X365496938Y-47013332D02*
X365496938Y-47165713D01*
X365839795Y-46670475D02*
X365039795Y-46670475D01*
X365039795Y-46670475D02*
X365039795Y-46365713D01*
X365039795Y-46365713D02*
X365077890Y-46289523D01*
X365077890Y-46289523D02*
X365115985Y-46251428D01*
X365115985Y-46251428D02*
X365192176Y-46213332D01*
X365192176Y-46213332D02*
X365306461Y-46213332D01*
X365306461Y-46213332D02*
X365382652Y-46251428D01*
X365382652Y-46251428D02*
X365420747Y-46289523D01*
X365420747Y-46289523D02*
X365458842Y-46365713D01*
X365458842Y-46365713D02*
X365458842Y-46670475D01*
X365115985Y-45908571D02*
X365077890Y-45870475D01*
X365077890Y-45870475D02*
X365039795Y-45794285D01*
X365039795Y-45794285D02*
X365039795Y-45603809D01*
X365039795Y-45603809D02*
X365077890Y-45527618D01*
X365077890Y-45527618D02*
X365115985Y-45489523D01*
X365115985Y-45489523D02*
X365192176Y-45451428D01*
X365192176Y-45451428D02*
X365268366Y-45451428D01*
X365268366Y-45451428D02*
X365382652Y-45489523D01*
X365382652Y-45489523D02*
X365839795Y-45946666D01*
X365839795Y-45946666D02*
X365839795Y-45451428D01*
X347297890Y-47051428D02*
X347259795Y-47127618D01*
X347259795Y-47127618D02*
X347259795Y-47241904D01*
X347259795Y-47241904D02*
X347297890Y-47356190D01*
X347297890Y-47356190D02*
X347374080Y-47432380D01*
X347374080Y-47432380D02*
X347450271Y-47470475D01*
X347450271Y-47470475D02*
X347602652Y-47508571D01*
X347602652Y-47508571D02*
X347716938Y-47508571D01*
X347716938Y-47508571D02*
X347869319Y-47470475D01*
X347869319Y-47470475D02*
X347945509Y-47432380D01*
X347945509Y-47432380D02*
X348021700Y-47356190D01*
X348021700Y-47356190D02*
X348059795Y-47241904D01*
X348059795Y-47241904D02*
X348059795Y-47165713D01*
X348059795Y-47165713D02*
X348021700Y-47051428D01*
X348021700Y-47051428D02*
X347983604Y-47013332D01*
X347983604Y-47013332D02*
X347716938Y-47013332D01*
X347716938Y-47013332D02*
X347716938Y-47165713D01*
X348059795Y-46670475D02*
X347259795Y-46670475D01*
X347259795Y-46670475D02*
X347259795Y-46365713D01*
X347259795Y-46365713D02*
X347297890Y-46289523D01*
X347297890Y-46289523D02*
X347335985Y-46251428D01*
X347335985Y-46251428D02*
X347412176Y-46213332D01*
X347412176Y-46213332D02*
X347526461Y-46213332D01*
X347526461Y-46213332D02*
X347602652Y-46251428D01*
X347602652Y-46251428D02*
X347640747Y-46289523D01*
X347640747Y-46289523D02*
X347678842Y-46365713D01*
X347678842Y-46365713D02*
X347678842Y-46670475D01*
X347602652Y-45756190D02*
X347564557Y-45832380D01*
X347564557Y-45832380D02*
X347526461Y-45870475D01*
X347526461Y-45870475D02*
X347450271Y-45908571D01*
X347450271Y-45908571D02*
X347412176Y-45908571D01*
X347412176Y-45908571D02*
X347335985Y-45870475D01*
X347335985Y-45870475D02*
X347297890Y-45832380D01*
X347297890Y-45832380D02*
X347259795Y-45756190D01*
X347259795Y-45756190D02*
X347259795Y-45603809D01*
X347259795Y-45603809D02*
X347297890Y-45527618D01*
X347297890Y-45527618D02*
X347335985Y-45489523D01*
X347335985Y-45489523D02*
X347412176Y-45451428D01*
X347412176Y-45451428D02*
X347450271Y-45451428D01*
X347450271Y-45451428D02*
X347526461Y-45489523D01*
X347526461Y-45489523D02*
X347564557Y-45527618D01*
X347564557Y-45527618D02*
X347602652Y-45603809D01*
X347602652Y-45603809D02*
X347602652Y-45756190D01*
X347602652Y-45756190D02*
X347640747Y-45832380D01*
X347640747Y-45832380D02*
X347678842Y-45870475D01*
X347678842Y-45870475D02*
X347755033Y-45908571D01*
X347755033Y-45908571D02*
X347907414Y-45908571D01*
X347907414Y-45908571D02*
X347983604Y-45870475D01*
X347983604Y-45870475D02*
X348021700Y-45832380D01*
X348021700Y-45832380D02*
X348059795Y-45756190D01*
X348059795Y-45756190D02*
X348059795Y-45603809D01*
X348059795Y-45603809D02*
X348021700Y-45527618D01*
X348021700Y-45527618D02*
X347983604Y-45489523D01*
X347983604Y-45489523D02*
X347907414Y-45451428D01*
X347907414Y-45451428D02*
X347755033Y-45451428D01*
X347755033Y-45451428D02*
X347678842Y-45489523D01*
X347678842Y-45489523D02*
X347640747Y-45527618D01*
X347640747Y-45527618D02*
X347602652Y-45603809D01*
X362537890Y-47051428D02*
X362499795Y-47127618D01*
X362499795Y-47127618D02*
X362499795Y-47241904D01*
X362499795Y-47241904D02*
X362537890Y-47356190D01*
X362537890Y-47356190D02*
X362614080Y-47432380D01*
X362614080Y-47432380D02*
X362690271Y-47470475D01*
X362690271Y-47470475D02*
X362842652Y-47508571D01*
X362842652Y-47508571D02*
X362956938Y-47508571D01*
X362956938Y-47508571D02*
X363109319Y-47470475D01*
X363109319Y-47470475D02*
X363185509Y-47432380D01*
X363185509Y-47432380D02*
X363261700Y-47356190D01*
X363261700Y-47356190D02*
X363299795Y-47241904D01*
X363299795Y-47241904D02*
X363299795Y-47165713D01*
X363299795Y-47165713D02*
X363261700Y-47051428D01*
X363261700Y-47051428D02*
X363223604Y-47013332D01*
X363223604Y-47013332D02*
X362956938Y-47013332D01*
X362956938Y-47013332D02*
X362956938Y-47165713D01*
X363299795Y-46670475D02*
X362499795Y-46670475D01*
X362499795Y-46670475D02*
X362499795Y-46365713D01*
X362499795Y-46365713D02*
X362537890Y-46289523D01*
X362537890Y-46289523D02*
X362575985Y-46251428D01*
X362575985Y-46251428D02*
X362652176Y-46213332D01*
X362652176Y-46213332D02*
X362766461Y-46213332D01*
X362766461Y-46213332D02*
X362842652Y-46251428D01*
X362842652Y-46251428D02*
X362880747Y-46289523D01*
X362880747Y-46289523D02*
X362918842Y-46365713D01*
X362918842Y-46365713D02*
X362918842Y-46670475D01*
X362499795Y-45946666D02*
X362499795Y-45451428D01*
X362499795Y-45451428D02*
X362804557Y-45718094D01*
X362804557Y-45718094D02*
X362804557Y-45603809D01*
X362804557Y-45603809D02*
X362842652Y-45527618D01*
X362842652Y-45527618D02*
X362880747Y-45489523D01*
X362880747Y-45489523D02*
X362956938Y-45451428D01*
X362956938Y-45451428D02*
X363147414Y-45451428D01*
X363147414Y-45451428D02*
X363223604Y-45489523D01*
X363223604Y-45489523D02*
X363261700Y-45527618D01*
X363261700Y-45527618D02*
X363299795Y-45603809D01*
X363299795Y-45603809D02*
X363299795Y-45832380D01*
X363299795Y-45832380D02*
X363261700Y-45908571D01*
X363261700Y-45908571D02*
X363223604Y-45946666D01*
X326977890Y-47082381D02*
X326939795Y-47158571D01*
X326939795Y-47158571D02*
X326939795Y-47272857D01*
X326939795Y-47272857D02*
X326977890Y-47387143D01*
X326977890Y-47387143D02*
X327054080Y-47463333D01*
X327054080Y-47463333D02*
X327130271Y-47501428D01*
X327130271Y-47501428D02*
X327282652Y-47539524D01*
X327282652Y-47539524D02*
X327396938Y-47539524D01*
X327396938Y-47539524D02*
X327549319Y-47501428D01*
X327549319Y-47501428D02*
X327625509Y-47463333D01*
X327625509Y-47463333D02*
X327701700Y-47387143D01*
X327701700Y-47387143D02*
X327739795Y-47272857D01*
X327739795Y-47272857D02*
X327739795Y-47196666D01*
X327739795Y-47196666D02*
X327701700Y-47082381D01*
X327701700Y-47082381D02*
X327663604Y-47044285D01*
X327663604Y-47044285D02*
X327396938Y-47044285D01*
X327396938Y-47044285D02*
X327396938Y-47196666D01*
X327739795Y-46701428D02*
X326939795Y-46701428D01*
X326939795Y-46701428D02*
X326939795Y-46396666D01*
X326939795Y-46396666D02*
X326977890Y-46320476D01*
X326977890Y-46320476D02*
X327015985Y-46282381D01*
X327015985Y-46282381D02*
X327092176Y-46244285D01*
X327092176Y-46244285D02*
X327206461Y-46244285D01*
X327206461Y-46244285D02*
X327282652Y-46282381D01*
X327282652Y-46282381D02*
X327320747Y-46320476D01*
X327320747Y-46320476D02*
X327358842Y-46396666D01*
X327358842Y-46396666D02*
X327358842Y-46701428D01*
X327739795Y-45482381D02*
X327739795Y-45939524D01*
X327739795Y-45710952D02*
X326939795Y-45710952D01*
X326939795Y-45710952D02*
X327054080Y-45787143D01*
X327054080Y-45787143D02*
X327130271Y-45863333D01*
X327130271Y-45863333D02*
X327168366Y-45939524D01*
X327206461Y-44796666D02*
X327739795Y-44796666D01*
X326901700Y-44987142D02*
X327473128Y-45177619D01*
X327473128Y-45177619D02*
X327473128Y-44682380D01*
X326977890Y-35852381D02*
X326939795Y-35928571D01*
X326939795Y-35928571D02*
X326939795Y-36042857D01*
X326939795Y-36042857D02*
X326977890Y-36157143D01*
X326977890Y-36157143D02*
X327054080Y-36233333D01*
X327054080Y-36233333D02*
X327130271Y-36271428D01*
X327130271Y-36271428D02*
X327282652Y-36309524D01*
X327282652Y-36309524D02*
X327396938Y-36309524D01*
X327396938Y-36309524D02*
X327549319Y-36271428D01*
X327549319Y-36271428D02*
X327625509Y-36233333D01*
X327625509Y-36233333D02*
X327701700Y-36157143D01*
X327701700Y-36157143D02*
X327739795Y-36042857D01*
X327739795Y-36042857D02*
X327739795Y-35966666D01*
X327739795Y-35966666D02*
X327701700Y-35852381D01*
X327701700Y-35852381D02*
X327663604Y-35814285D01*
X327663604Y-35814285D02*
X327396938Y-35814285D01*
X327396938Y-35814285D02*
X327396938Y-35966666D01*
X327739795Y-35471428D02*
X326939795Y-35471428D01*
X326939795Y-35471428D02*
X326939795Y-35166666D01*
X326939795Y-35166666D02*
X326977890Y-35090476D01*
X326977890Y-35090476D02*
X327015985Y-35052381D01*
X327015985Y-35052381D02*
X327092176Y-35014285D01*
X327092176Y-35014285D02*
X327206461Y-35014285D01*
X327206461Y-35014285D02*
X327282652Y-35052381D01*
X327282652Y-35052381D02*
X327320747Y-35090476D01*
X327320747Y-35090476D02*
X327358842Y-35166666D01*
X327358842Y-35166666D02*
X327358842Y-35471428D01*
X327739795Y-34252381D02*
X327739795Y-34709524D01*
X327739795Y-34480952D02*
X326939795Y-34480952D01*
X326939795Y-34480952D02*
X327054080Y-34557143D01*
X327054080Y-34557143D02*
X327130271Y-34633333D01*
X327130271Y-34633333D02*
X327168366Y-34709524D01*
X326939795Y-33985714D02*
X326939795Y-33452380D01*
X326939795Y-33452380D02*
X327739795Y-33795238D01*
X323467500Y-50940000D02*
X323467500Y-29940000D01*
X374467500Y-50940000D02*
X323467500Y-50940000D01*
X371800500Y-32947000D02*
X374467500Y-32947000D01*
X371800500Y-29940000D02*
X371800500Y-32947000D01*
X374467500Y-29940000D02*
X374467500Y-50940000D01*
X374467500Y-29940000D02*
X323467500Y-29940000D01*
%LPC*%
D11*
X34397500Y-56330000D03*
X221397500Y-167330000D03*
D12*
X170180000Y-97790000D03*
D13*
X171450000Y-95250000D03*
D14*
X175260000Y-97790000D03*
D13*
X177800000Y-92710000D03*
D12*
X180340000Y-97790000D03*
X217805000Y-116840000D03*
D13*
X219075000Y-114300000D03*
D14*
X222885000Y-116840000D03*
D13*
X225425000Y-111760000D03*
D12*
X227965000Y-116840000D03*
D11*
X243897500Y-56330000D03*
D12*
X74930000Y-45115000D03*
D13*
X76200000Y-42575000D03*
D14*
X80010000Y-45115000D03*
D13*
X82550000Y-40035000D03*
D12*
X85090000Y-45115000D03*
X352224000Y-154940000D03*
D13*
X353494000Y-152400000D03*
D14*
X357304000Y-154940000D03*
D13*
X359844000Y-149860000D03*
D12*
X362384000Y-154940000D03*
X241617500Y-135890000D03*
D13*
X242887500Y-133350000D03*
D14*
X246697500Y-135890000D03*
D13*
X249237500Y-130810000D03*
D12*
X251777500Y-135890000D03*
X179705000Y-64165000D03*
D13*
X180975000Y-61625000D03*
D14*
X184785000Y-64165000D03*
D13*
X187325000Y-59085000D03*
D12*
X189865000Y-64165000D03*
D11*
X56397500Y-167330000D03*
D12*
X136842500Y-154940000D03*
D13*
X138112500Y-152400000D03*
D14*
X141922500Y-154940000D03*
D13*
X144462500Y-149860000D03*
D12*
X147002500Y-154940000D03*
X349843000Y-64165000D03*
D13*
X351113000Y-61625000D03*
D14*
X354923000Y-64165000D03*
D13*
X357463000Y-59085000D03*
D12*
X360003000Y-64165000D03*
X160655000Y-45115000D03*
D13*
X161925000Y-42575000D03*
D14*
X165735000Y-45115000D03*
D13*
X168275000Y-40035000D03*
D12*
X170815000Y-45115000D03*
X217805000Y-45115000D03*
D13*
X219075000Y-42575000D03*
D14*
X222885000Y-45115000D03*
D13*
X225425000Y-40035000D03*
D12*
X227965000Y-45115000D03*
X296386250Y-154940000D03*
D13*
X297656250Y-152400000D03*
D14*
X301466250Y-154940000D03*
D13*
X304006250Y-149860000D03*
D12*
X306546250Y-154940000D03*
X213042500Y-154940000D03*
D13*
X214312500Y-152400000D03*
D14*
X218122500Y-154940000D03*
D13*
X220662500Y-149860000D03*
D12*
X223202500Y-154940000D03*
X141605000Y-116840000D03*
D13*
X142875000Y-114300000D03*
D14*
X146685000Y-116840000D03*
D13*
X149225000Y-111760000D03*
D12*
X151765000Y-116840000D03*
X179705000Y-45115000D03*
D13*
X180975000Y-42575000D03*
D14*
X184785000Y-45115000D03*
D13*
X187325000Y-40035000D03*
D12*
X189865000Y-45115000D03*
X198755000Y-64165000D03*
D13*
X200025000Y-61625000D03*
D14*
X203835000Y-64165000D03*
D13*
X206375000Y-59085000D03*
D12*
X208915000Y-64165000D03*
X127317500Y-135890000D03*
D13*
X128587500Y-133350000D03*
D14*
X132397500Y-135890000D03*
D13*
X134937500Y-130810000D03*
D12*
X137477500Y-135890000D03*
X333174000Y-173990000D03*
D13*
X334444000Y-171450000D03*
D14*
X338254000Y-173990000D03*
D13*
X340794000Y-168910000D03*
D12*
X343334000Y-173990000D03*
X93980000Y-45115000D03*
D13*
X95250000Y-42575000D03*
D14*
X99060000Y-45115000D03*
D13*
X101600000Y-40035000D03*
D12*
X104140000Y-45115000D03*
X122555000Y-116840000D03*
D13*
X123825000Y-114300000D03*
D14*
X127635000Y-116840000D03*
D13*
X130175000Y-111760000D03*
D12*
X132715000Y-116840000D03*
D11*
X107397500Y-167330000D03*
X365397500Y-57330000D03*
D15*
X175260000Y-167005000D03*
D14*
X175260000Y-182245000D03*
D12*
X189230000Y-173990000D03*
D13*
X190500000Y-171450000D03*
D14*
X194310000Y-173990000D03*
D13*
X196850000Y-168910000D03*
D12*
X199390000Y-173990000D03*
D15*
X213360000Y-167005000D03*
D14*
X213360000Y-182245000D03*
D12*
X265430000Y-97790000D03*
D13*
X266700000Y-95250000D03*
D14*
X270510000Y-97790000D03*
D13*
X273050000Y-92710000D03*
D12*
X275590000Y-97790000D03*
X113030000Y-45115000D03*
D13*
X114300000Y-42575000D03*
D14*
X118110000Y-45115000D03*
D13*
X120650000Y-40035000D03*
D12*
X123190000Y-45115000D03*
X160655000Y-116840000D03*
D13*
X161925000Y-114300000D03*
D14*
X165735000Y-116840000D03*
D13*
X168275000Y-111760000D03*
D12*
X170815000Y-116840000D03*
X63023750Y-173990000D03*
D13*
X64293750Y-171450000D03*
D14*
X68103750Y-173990000D03*
D13*
X70643750Y-168910000D03*
D12*
X73183750Y-173990000D03*
X93980000Y-64165000D03*
D13*
X95250000Y-61625000D03*
D14*
X99060000Y-64165000D03*
D13*
X101600000Y-59085000D03*
D12*
X104140000Y-64165000D03*
X232092500Y-154940000D03*
D13*
X233362500Y-152400000D03*
D14*
X237172500Y-154940000D03*
D13*
X239712500Y-149860000D03*
D12*
X242252500Y-154940000D03*
X165417500Y-135890000D03*
D13*
X166687500Y-133350000D03*
D14*
X170497500Y-135890000D03*
D13*
X173037500Y-130810000D03*
D12*
X175577500Y-135890000D03*
D15*
X113347500Y-167005000D03*
D14*
X113347500Y-182245000D03*
D12*
X127317500Y-173990000D03*
D13*
X128587500Y-171450000D03*
D14*
X132397500Y-173990000D03*
D13*
X134937500Y-168910000D03*
D12*
X137477500Y-173990000D03*
D15*
X151447500Y-167005000D03*
D14*
X151447500Y-182245000D03*
D12*
X74930000Y-64165000D03*
D13*
X76200000Y-61625000D03*
D14*
X80010000Y-64165000D03*
D13*
X82550000Y-59085000D03*
D12*
X85090000Y-64165000D03*
X70167500Y-135890000D03*
D13*
X71437500Y-133350000D03*
D14*
X75247500Y-135890000D03*
D13*
X77787500Y-130810000D03*
D12*
X80327500Y-135890000D03*
X265430000Y-64165000D03*
D13*
X266700000Y-61625000D03*
D14*
X270510000Y-64165000D03*
D13*
X273050000Y-59085000D03*
D12*
X275590000Y-64165000D03*
D11*
X297397500Y-166330000D03*
D12*
X222567500Y-135890000D03*
D13*
X223837500Y-133350000D03*
D14*
X227647500Y-135890000D03*
D13*
X230187500Y-130810000D03*
D12*
X232727500Y-135890000D03*
X79692500Y-154940000D03*
D13*
X80962500Y-152400000D03*
D14*
X84772500Y-154940000D03*
D13*
X87312500Y-149860000D03*
D12*
X89852500Y-154940000D03*
X251142500Y-154940000D03*
D13*
X252412500Y-152400000D03*
D14*
X256222500Y-154940000D03*
D13*
X258762500Y-149860000D03*
D12*
X261302500Y-154940000D03*
X246380000Y-45115000D03*
D13*
X247650000Y-42575000D03*
D14*
X251460000Y-45115000D03*
D13*
X254000000Y-40035000D03*
D12*
X256540000Y-45115000D03*
X217805000Y-64165000D03*
D13*
X219075000Y-61625000D03*
D14*
X222885000Y-64165000D03*
D13*
X225425000Y-59085000D03*
D12*
X227965000Y-64165000D03*
X265430000Y-45115000D03*
D13*
X266700000Y-42575000D03*
D14*
X270510000Y-45115000D03*
D13*
X273050000Y-40035000D03*
D12*
X275590000Y-45115000D03*
X330793000Y-116840000D03*
D13*
X332063000Y-114300000D03*
D14*
X335873000Y-116840000D03*
D13*
X338413000Y-111760000D03*
D12*
X340953000Y-116840000D03*
X277336250Y-173990000D03*
D13*
X278606250Y-171450000D03*
D14*
X282416250Y-173990000D03*
D13*
X284956250Y-168910000D03*
D12*
X287496250Y-173990000D03*
X368893000Y-97790000D03*
D13*
X370163000Y-95250000D03*
D14*
X373973000Y-97790000D03*
D13*
X376513000Y-92710000D03*
D12*
X379053000Y-97790000D03*
X349843000Y-97790000D03*
D13*
X351113000Y-95250000D03*
D14*
X354923000Y-97790000D03*
D13*
X357463000Y-92710000D03*
D12*
X360003000Y-97790000D03*
X86836250Y-173990000D03*
D13*
X88106250Y-171450000D03*
D14*
X91916250Y-173990000D03*
D13*
X94456250Y-168910000D03*
D12*
X96996250Y-173990000D03*
X55880000Y-97790000D03*
D13*
X57150000Y-95250000D03*
D14*
X60960000Y-97790000D03*
D13*
X63500000Y-92710000D03*
D12*
X66040000Y-97790000D03*
X255905000Y-116840000D03*
D13*
X257175000Y-114300000D03*
D14*
X260985000Y-116840000D03*
D13*
X263525000Y-111760000D03*
D12*
X266065000Y-116840000D03*
X160655000Y-64165000D03*
D13*
X161925000Y-61625000D03*
D14*
X165735000Y-64165000D03*
D13*
X168275000Y-59085000D03*
D12*
X170815000Y-64165000D03*
X65405000Y-116840000D03*
D13*
X66675000Y-114300000D03*
D14*
X70485000Y-116840000D03*
D13*
X73025000Y-111760000D03*
D12*
X75565000Y-116840000D03*
X132080000Y-64165000D03*
D13*
X133350000Y-61625000D03*
D14*
X137160000Y-64165000D03*
D13*
X139700000Y-59085000D03*
D12*
X142240000Y-64165000D03*
X198755000Y-116840000D03*
D13*
X200025000Y-114300000D03*
D14*
X203835000Y-116840000D03*
D13*
X206375000Y-111760000D03*
D12*
X208915000Y-116840000D03*
X301148750Y-173990000D03*
D13*
X302418750Y-171450000D03*
D14*
X306228750Y-173990000D03*
D13*
X308768750Y-168910000D03*
D12*
X311308750Y-173990000D03*
X349843000Y-116840000D03*
D13*
X351113000Y-114300000D03*
D14*
X354923000Y-116840000D03*
D13*
X357463000Y-111760000D03*
D12*
X360003000Y-116840000D03*
X132080000Y-97790000D03*
D13*
X133350000Y-95250000D03*
D14*
X137160000Y-97790000D03*
D13*
X139700000Y-92710000D03*
D12*
X142240000Y-97790000D03*
D11*
X390397500Y-30330000D03*
D12*
X246380000Y-64165000D03*
D13*
X247650000Y-61625000D03*
D14*
X251460000Y-64165000D03*
D13*
X254000000Y-59085000D03*
D12*
X256540000Y-64165000D03*
X368893000Y-116840000D03*
D13*
X370163000Y-114300000D03*
D14*
X373973000Y-116840000D03*
D13*
X376513000Y-111760000D03*
D12*
X379053000Y-116840000D03*
D11*
X162397500Y-128330000D03*
D15*
X41878250Y-147955000D03*
D14*
X41878250Y-163195000D03*
D12*
X48736250Y-154940000D03*
D13*
X50006250Y-152400000D03*
D14*
X53816250Y-154940000D03*
D13*
X56356250Y-149860000D03*
D12*
X58896250Y-154940000D03*
D15*
X65754250Y-147955000D03*
D14*
X65754250Y-163195000D03*
D12*
X330793000Y-97790000D03*
D13*
X332063000Y-95250000D03*
D14*
X335873000Y-97790000D03*
D13*
X338413000Y-92710000D03*
D12*
X340953000Y-97790000D03*
X89217500Y-135890000D03*
D13*
X90487500Y-133350000D03*
D14*
X94297500Y-135890000D03*
D13*
X96837500Y-130810000D03*
D12*
X99377500Y-135890000D03*
X279717500Y-135890000D03*
D13*
X280987500Y-133350000D03*
D14*
X284797500Y-135890000D03*
D13*
X287337500Y-130810000D03*
D12*
X289877500Y-135890000D03*
X184467500Y-135890000D03*
D13*
X185737500Y-133350000D03*
D14*
X189547500Y-135890000D03*
D13*
X192087500Y-130810000D03*
D12*
X194627500Y-135890000D03*
X352224000Y-173990000D03*
D13*
X353494000Y-171450000D03*
D14*
X357304000Y-173990000D03*
D13*
X359844000Y-168910000D03*
D12*
X362384000Y-173990000D03*
D11*
X389397500Y-188330000D03*
D12*
X193992500Y-154940000D03*
D13*
X195262500Y-152400000D03*
D14*
X199072500Y-154940000D03*
D13*
X201612500Y-149860000D03*
D12*
X204152500Y-154940000D03*
X43973750Y-135890000D03*
D13*
X45243750Y-133350000D03*
D14*
X49053750Y-135890000D03*
D13*
X51593750Y-130810000D03*
D12*
X54133750Y-135890000D03*
D15*
X287147000Y-90805000D03*
D14*
X287147000Y-106045000D03*
D12*
X294005000Y-97790000D03*
D13*
X295275000Y-95250000D03*
D14*
X299085000Y-97790000D03*
D13*
X301625000Y-92710000D03*
D12*
X304165000Y-97790000D03*
D15*
X311023000Y-90805000D03*
D14*
X311023000Y-106045000D03*
D12*
X155892500Y-154940000D03*
D13*
X157162500Y-152400000D03*
D14*
X160972500Y-154940000D03*
D13*
X163512500Y-149860000D03*
D12*
X166052500Y-154940000D03*
X229711250Y-173990000D03*
D13*
X230981250Y-171450000D03*
D14*
X234791250Y-173990000D03*
D13*
X237331250Y-168910000D03*
D12*
X239871250Y-173990000D03*
X284480000Y-45115000D03*
D13*
X285750000Y-42575000D03*
D14*
X289560000Y-45115000D03*
D13*
X292100000Y-40035000D03*
D12*
X294640000Y-45115000D03*
D14*
X297973750Y-114427000D03*
X297973750Y-138303000D03*
D12*
X301148750Y-126365000D03*
D13*
X302418750Y-123825000D03*
D14*
X306228750Y-126365000D03*
D13*
X308768750Y-121285000D03*
D12*
X311308750Y-126365000D03*
D15*
X313213750Y-114427000D03*
X313213750Y-138303000D03*
D11*
X81397500Y-109330000D03*
D12*
X151130000Y-97790000D03*
D13*
X152400000Y-95250000D03*
D14*
X156210000Y-97790000D03*
D13*
X158750000Y-92710000D03*
D12*
X161290000Y-97790000D03*
X117792500Y-154940000D03*
D13*
X119062500Y-152400000D03*
D14*
X122872500Y-154940000D03*
D13*
X125412500Y-149860000D03*
D12*
X127952500Y-154940000D03*
X203517500Y-135890000D03*
D13*
X204787500Y-133350000D03*
D14*
X208597500Y-135890000D03*
D13*
X211137500Y-130810000D03*
D12*
X213677500Y-135890000D03*
X84455000Y-116840000D03*
D13*
X85725000Y-114300000D03*
D14*
X89535000Y-116840000D03*
D13*
X92075000Y-111760000D03*
D12*
X94615000Y-116840000D03*
X93980000Y-97790000D03*
D13*
X95250000Y-95250000D03*
D14*
X99060000Y-97790000D03*
D13*
X101600000Y-92710000D03*
D12*
X104140000Y-97790000D03*
X179705000Y-116840000D03*
D13*
X180975000Y-114300000D03*
D14*
X184785000Y-116840000D03*
D13*
X187325000Y-111760000D03*
D12*
X189865000Y-116840000D03*
X132080000Y-45115000D03*
D13*
X133350000Y-42575000D03*
D14*
X137160000Y-45115000D03*
D13*
X139700000Y-40035000D03*
D12*
X142240000Y-45115000D03*
X236855000Y-116840000D03*
D13*
X238125000Y-114300000D03*
D14*
X241935000Y-116840000D03*
D13*
X244475000Y-111760000D03*
D12*
X247015000Y-116840000D03*
X198755000Y-45115000D03*
D13*
X200025000Y-42575000D03*
D14*
X203835000Y-45115000D03*
D13*
X206375000Y-40035000D03*
D12*
X208915000Y-45115000D03*
X368893000Y-64165000D03*
D13*
X370163000Y-61625000D03*
D14*
X373973000Y-64165000D03*
D13*
X376513000Y-59085000D03*
D12*
X379053000Y-64165000D03*
X36830000Y-97790000D03*
D13*
X38100000Y-95250000D03*
D14*
X41910000Y-97790000D03*
D13*
X44450000Y-92710000D03*
D12*
X46990000Y-97790000D03*
X303530000Y-64165000D03*
D13*
X304800000Y-61625000D03*
D14*
X308610000Y-64165000D03*
D13*
X311150000Y-59085000D03*
D12*
X313690000Y-64165000D03*
X270192500Y-154940000D03*
D13*
X271462500Y-152400000D03*
D14*
X275272500Y-154940000D03*
D13*
X277812500Y-149860000D03*
D12*
X280352500Y-154940000D03*
X246380000Y-97790000D03*
D13*
X247650000Y-95250000D03*
D14*
X251460000Y-97790000D03*
D13*
X254000000Y-92710000D03*
D12*
X256540000Y-97790000D03*
D11*
X158397500Y-55830000D03*
D12*
X274955000Y-116840000D03*
D13*
X276225000Y-114300000D03*
D14*
X280035000Y-116840000D03*
D13*
X282575000Y-111760000D03*
D12*
X285115000Y-116840000D03*
X174942500Y-154940000D03*
D13*
X176212500Y-152400000D03*
D14*
X180022500Y-154940000D03*
D13*
X182562500Y-149860000D03*
D12*
X185102500Y-154940000D03*
X189230000Y-97790000D03*
D13*
X190500000Y-95250000D03*
D14*
X194310000Y-97790000D03*
D13*
X196850000Y-92710000D03*
D12*
X199390000Y-97790000D03*
X39211250Y-173990000D03*
D13*
X40481250Y-171450000D03*
D14*
X44291250Y-173990000D03*
D13*
X46831250Y-168910000D03*
D12*
X49371250Y-173990000D03*
X303530000Y-45115000D03*
D13*
X304800000Y-42575000D03*
D14*
X308610000Y-45115000D03*
D13*
X311150000Y-40035000D03*
D12*
X313690000Y-45115000D03*
X284480000Y-64165000D03*
D13*
X285750000Y-61625000D03*
D14*
X289560000Y-64165000D03*
D13*
X292100000Y-59085000D03*
D12*
X294640000Y-64165000D03*
X98742500Y-154940000D03*
D13*
X100012500Y-152400000D03*
D14*
X103822500Y-154940000D03*
D13*
X106362500Y-149860000D03*
D12*
X108902500Y-154940000D03*
X74930000Y-97790000D03*
D13*
X76200000Y-95250000D03*
D14*
X80010000Y-97790000D03*
D13*
X82550000Y-92710000D03*
D12*
X85090000Y-97790000D03*
X108267500Y-135890000D03*
D13*
X109537500Y-133350000D03*
D14*
X113347500Y-135890000D03*
D13*
X115887500Y-130810000D03*
D12*
X118427500Y-135890000D03*
X371274000Y-173990000D03*
D13*
X372544000Y-171450000D03*
D14*
X376354000Y-173990000D03*
D13*
X378894000Y-168910000D03*
D12*
X381434000Y-173990000D03*
D11*
X365897500Y-109330000D03*
D12*
X330793000Y-64165000D03*
D13*
X332063000Y-61625000D03*
D14*
X335873000Y-64165000D03*
D13*
X338413000Y-59085000D03*
D12*
X340953000Y-64165000D03*
D11*
X32397500Y-30330000D03*
D12*
X253523750Y-173990000D03*
D13*
X254793750Y-171450000D03*
D14*
X258603750Y-173990000D03*
D13*
X261143750Y-168910000D03*
D12*
X263683750Y-173990000D03*
D11*
X368397500Y-166330000D03*
X30397500Y-188330000D03*
D12*
X113030000Y-97790000D03*
D13*
X114300000Y-95250000D03*
D14*
X118110000Y-97790000D03*
D13*
X120650000Y-92710000D03*
D12*
X123190000Y-97790000D03*
X227330000Y-97790000D03*
D13*
X228600000Y-95250000D03*
D14*
X232410000Y-97790000D03*
D13*
X234950000Y-92710000D03*
D12*
X237490000Y-97790000D03*
X260667500Y-135890000D03*
D13*
X261937500Y-133350000D03*
D14*
X265747500Y-135890000D03*
D13*
X268287500Y-130810000D03*
D12*
X270827500Y-135890000D03*
X41592500Y-116840000D03*
D13*
X42862500Y-114300000D03*
D14*
X46672500Y-116840000D03*
D13*
X49212500Y-111760000D03*
D12*
X51752500Y-116840000D03*
X146367500Y-135890000D03*
D13*
X147637500Y-133350000D03*
D14*
X151447500Y-135890000D03*
D13*
X153987500Y-130810000D03*
D12*
X156527500Y-135890000D03*
X103505000Y-116840000D03*
D13*
X104775000Y-114300000D03*
D14*
X108585000Y-116840000D03*
D13*
X111125000Y-111760000D03*
D12*
X113665000Y-116840000D03*
X36830000Y-64165000D03*
D13*
X38100000Y-61625000D03*
D14*
X41910000Y-64165000D03*
D13*
X44450000Y-59085000D03*
D12*
X46990000Y-64165000D03*
X113030000Y-64165000D03*
D13*
X114300000Y-61625000D03*
D14*
X118110000Y-64165000D03*
D13*
X120650000Y-59085000D03*
D12*
X123190000Y-64165000D03*
X208280000Y-97790000D03*
D13*
X209550000Y-95250000D03*
D14*
X213360000Y-97790000D03*
D13*
X215900000Y-92710000D03*
D12*
X218440000Y-97790000D03*
D11*
X233897500Y-109330000D03*
D16*
X380397500Y-27580000D03*
X380397500Y-34580000D03*
D17*
X373097500Y-49330000D03*
X370557500Y-49330000D03*
D18*
X368017500Y-49330000D03*
D17*
X365477500Y-49330000D03*
X362937500Y-49330000D03*
X360397500Y-49330000D03*
X357857500Y-49330000D03*
D18*
X355317500Y-49330000D03*
D17*
X352777500Y-49330000D03*
X350237500Y-49330000D03*
X347697500Y-49330000D03*
X345157500Y-49330000D03*
D18*
X342617500Y-49330000D03*
D17*
X340077500Y-49330000D03*
X337537500Y-49330000D03*
X334997500Y-49330000D03*
X332457500Y-49330000D03*
D18*
X329917500Y-49330000D03*
D17*
X327377500Y-49330000D03*
X324837500Y-49330000D03*
X324837500Y-31550000D03*
X327377500Y-31550000D03*
D18*
X329917500Y-31550000D03*
D17*
X332457500Y-31550000D03*
X334997500Y-31550000D03*
X337537500Y-31550000D03*
X340077500Y-31550000D03*
D18*
X342617500Y-31550000D03*
D17*
X345157500Y-31550000D03*
X347697500Y-31550000D03*
X350237500Y-31550000D03*
X352777500Y-31550000D03*
D18*
X355317500Y-31550000D03*
D17*
X357857500Y-31550000D03*
X360397500Y-31550000D03*
X362937500Y-31550000D03*
X365477500Y-31550000D03*
D18*
X368017500Y-31550000D03*
D17*
X370557500Y-31550000D03*
X373097500Y-31550000D03*
X325067500Y-42980000D03*
D18*
X325067500Y-40440000D03*
D17*
X325067500Y-37900000D03*
D16*
X61397500Y-27580000D03*
X61397500Y-34580000D03*
%LPD*%
M02*
