M48
; DRILL file {KiCad 7.0.6} date Sun Nov 12 21:12:42 2023
; FORMAT={-:-/ absolute / metric / decimal}
; #@! TF.CreationDate,2023-11-12T21:12:42+01:00
; #@! TF.GenerationSoftware,Kicad,Pcbnew,7.0.6
; #@! TF.FileFunction,Plated,1,4,PTH
FMAT,2
METRIC
; #@! TA.AperFunction,Plated,PTH,ViaDrill
T1C0.400
; #@! TA.AperFunction,Plated,PTH,ComponentDrill
T2C1.020
; #@! TA.AperFunction,Plated,PTH,ComponentDrill
T3C1.360
%
G90
G05
T1
X34.398Y-67.33
X34.398Y-100.33
X37.398Y-176.33
X39.398Y-119.33
X42.398Y-138.33
X45.398Y-157.33
X53.398Y-91.33
X53.398Y-98.33
X55.398Y-100.33
X60.397Y-114.33
X61.397Y-37.33
X61.397Y-176.33
X62.397Y-168.33
X63.397Y-119.33
X65.397Y-133.33
X67.397Y-138.33
X68.397Y-35.33
X69.397Y-34.605
X71.397Y-65.33
X72.397Y-98.33
X73.397Y-48.33
X73.397Y-58.33
X73.397Y-88.33
X74.397Y-67.33
X74.397Y-90.33
X74.397Y-100.33
X75.397Y-152.33
X77.397Y-157.33
X80.397Y-114.33
X82.397Y-119.33
X84.397Y-81.33
X84.397Y-133.33
X84.397Y-176.33
X85.397Y-168.33
X86.397Y-138.33
X90.397Y-46.33
X90.397Y-65.33
X91.397Y-90.33
X91.397Y-99.33
X92.397Y-48.33
X93.397Y-67.33
X93.397Y-100.33
X94.397Y-57.33
X94.397Y-152.33
X96.397Y-157.33
X99.397Y-79.33
X99.397Y-114.33
X101.397Y-119.33
X103.397Y-133.33
X108.397Y-138.33
X109.397Y-47.33
X110.397Y-65.33
X110.397Y-99.33
X111.397Y-48.33
X111.397Y-58.33
X111.397Y-91.33
X112.397Y-67.33
X112.397Y-100.33
X113.397Y-152.33
X118.397Y-114.33
X118.397Y-157.33
X120.397Y-119.33
X122.397Y-171.33
X123.397Y-133.33
X124.397Y-176.33
X127.397Y-138.33
X128.398Y-89.33
X129.398Y-46.33
X129.398Y-65.33
X129.398Y-90.33
X129.398Y-99.33
X130.398Y-48.33
X131.398Y-57.33
X131.398Y-67.33
X131.398Y-74.33
X131.398Y-100.33
X132.398Y-89.33
X132.398Y-152.33
X137.398Y-114.33
X137.398Y-157.33
X139.397Y-119.33
X142.397Y-133.33
X146.397Y-138.33
X148.397Y-99.33
X150.397Y-90.33
X150.397Y-100.33
X151.397Y-152.33
X156.397Y-114.33
X156.397Y-157.33
X158.397Y-45.33
X158.397Y-65.33
X158.397Y-119.33
X159.397Y-48.33
X159.397Y-67.33
X160.397Y-85.33
X161.397Y-133.33
X163.397Y-58.33
X165.397Y-95.33
X165.397Y-138.33
X169.397Y-100.33
X170.397Y-152.33
X174.397Y-157.33
X175.397Y-114.33
X176.397Y-46.33
X176.397Y-65.33
X177.397Y-119.33
X178.397Y-48.33
X178.397Y-67.33
X179.397Y-57.33
X179.397Y-83.33
X180.397Y-133.33
X184.397Y-95.33
X184.397Y-138.33
X184.397Y-171.33
X186.397Y-100.33
X186.397Y-176.33
X189.397Y-152.33
X193.397Y-157.33
X194.397Y-62.33
X194.397Y-114.33
X196.397Y-46.33
X196.397Y-119.33
X197.397Y-48.33
X198.397Y-67.33
X199.397Y-133.33
X203.397Y-95.33
X203.397Y-138.33
X204.397Y-146.33
X205.397Y-100.33
X208.397Y-152.33
X212.397Y-157.33
X213.397Y-43.33
X213.397Y-61.33
X213.397Y-114.33
X215.397Y-119.33
X216.397Y-48.33
X217.397Y-67.33
X218.397Y-133.33
X219.397Y-146.33
X221.897Y-56.33
X222.397Y-95.33
X222.397Y-138.33
X224.397Y-100.33
X225.397Y-171.33
X227.397Y-152.33
X227.397Y-176.33
X229.397Y-127.33
X230.897Y-68.83
X231.397Y-157.33
X232.397Y-114.33
X234.397Y-119.33
X234.397Y-127.33
X234.897Y-33.33
X234.897Y-38.33
X234.897Y-51.83
X235.897Y-33.33
X235.897Y-38.33
X235.897Y-51.83
X235.897Y-64.33
X235.897Y-71.33
X235.897Y-86.33
X236.897Y-33.33
X236.897Y-38.33
X236.897Y-51.83
X236.897Y-63.33
X236.897Y-71.33
X236.897Y-84.605
X237.397Y-133.33
X237.885Y-62.818
X237.897Y-33.33
X237.897Y-38.33
X237.897Y-51.83
X237.897Y-71.33
X237.897Y-82.33
X240.397Y-103.33
X240.897Y-86.33
X241.397Y-42.33
X241.397Y-138.33
X242.397Y-84.605
X243.397Y-82.33
X244.397Y-59.33
X244.397Y-91.33
X244.397Y-100.33
X245.397Y-48.33
X245.397Y-67.33
X246.397Y-152.33
X248.397Y-77.33
X249.397Y-171.33
X249.897Y-122.83
X250.397Y-157.33
X251.397Y-176.33
X253.397Y-125.605
X254.397Y-111.33
X254.397Y-119.33
X254.397Y-141.83
X255.397Y-75.33
X255.397Y-128.83
X257.397Y-136.33
X259.397Y-74.33
X260.397Y-138.33
X261.397Y-45.33
X263.397Y-58.33
X263.397Y-88.33
X263.397Y-100.33
X264.397Y-48.33
X264.397Y-67.33
X264.397Y-162.33
X265.397Y-152.33
X269.397Y-157.33
X272.397Y-110.33
X272.397Y-171.33
X273.397Y-119.33
X275.397Y-176.33
X276.397Y-87.33
X277.397Y-130.33
X280.397Y-138.33
X281.397Y-45.33
X282.897Y-59.33
X283.397Y-48.33
X283.397Y-67.33
X284.397Y-160.33
X288.397Y-149.33
X291.397Y-100.33
X291.397Y-152.33
X292.397Y-88.33
X294.397Y-126.33
X295.397Y-157.33
X296.397Y-88.33
X296.397Y-171.33
X298.397Y-128.33
X299.397Y-61.33
X299.397Y-85.33
X299.397Y-176.33
X300.397Y-87.33
X300.897Y-55.33
X301.397Y-46.33
X301.397Y-129.33
X302.397Y-48.33
X302.397Y-67.33
X304.397Y-53.605
X304.397Y-110.33
X314.885Y-52.842
X316.397Y-50.83
X317.397Y-37.83
X317.885Y-36.842
X319.397Y-50.83
X319.897Y-45.83
X320.622Y-44.83
X320.673Y-50.818
X320.897Y-52.83
X322.397Y-45.83
X322.897Y-44.83
X324.397Y-103.33
X326.397Y-114.33
X327.397Y-64.33
X329.397Y-67.33
X330.397Y-167.33
X331.397Y-83.33
X331.397Y-100.33
X331.397Y-119.33
X332.397Y-81.33
X332.397Y-176.33
X333.897Y-54.605
X334.397Y-56.33
X336.397Y-54.554
X337.897Y-52.605
X340.397Y-126.33
X340.425Y-52.605
X342.397Y-54.554
X342.397Y-77.33
X342.397Y-79.33
X343.897Y-56.33
X344.897Y-56.33
X345.397Y-70.83
X345.397Y-73.33
X345.897Y-54.605
X345.897Y-56.33
X345.897Y-66.33
X346.397Y-77.33
X346.397Y-79.33
X346.397Y-110.33
X346.397Y-152.33
X347.397Y-64.33
X347.397Y-67.33
X347.897Y-54.606
X349.397Y-168.33
X350.397Y-100.33
X350.397Y-119.33
X351.397Y-157.33
X351.397Y-176.33
X352.397Y-54.605
X352.397Y-56.33
X353.897Y-52.605
X357.397Y-71.605
X360.897Y-77.33
X361.397Y-182.33
X363.397Y-123.33
X366.397Y-64.33
X366.397Y-118.33
X366.397Y-128.33
X367.397Y-67.33
X367.397Y-184.33
X369.397Y-100.33
X369.397Y-119.33
X370.397Y-176.33
X373.897Y-27.83
X374.897Y-34.33
X383.397Y-45.83
X383.897Y-44.33
X384.397Y-163.33
X385.397Y-102.33
X387.897Y-162.33
T2
X324.837Y-31.55
X324.837Y-49.33
X325.067Y-37.9
X325.067Y-40.44
X325.067Y-42.98
X327.377Y-31.55
X327.377Y-49.33
X329.917Y-31.55
X329.917Y-49.33
X332.457Y-31.55
X332.457Y-49.33
X334.998Y-31.55
X334.998Y-49.33
X337.537Y-31.55
X337.537Y-49.33
X340.077Y-31.55
X340.077Y-49.33
X342.618Y-31.55
X342.618Y-49.33
X345.157Y-31.55
X345.157Y-49.33
X347.697Y-31.55
X347.697Y-49.33
X350.238Y-31.55
X350.238Y-49.33
X352.777Y-31.55
X352.777Y-49.33
X355.317Y-31.55
X355.317Y-49.33
X357.857Y-31.55
X357.857Y-49.33
X360.397Y-31.55
X360.397Y-49.33
X362.938Y-31.55
X362.938Y-49.33
X365.477Y-31.55
X365.477Y-49.33
X368.017Y-31.55
X368.017Y-49.33
X370.558Y-31.55
X370.558Y-49.33
X373.097Y-31.55
X373.097Y-49.33
T3
X40.64Y-69.245
X40.64Y-102.87
X43.021Y-179.07
X43.18Y-69.245
X43.18Y-102.87
X45.402Y-121.92
X45.561Y-179.07
X47.784Y-140.97
X47.942Y-121.92
X50.324Y-140.97
X52.546Y-160.02
X55.086Y-160.02
X59.69Y-102.87
X62.23Y-102.87
X66.834Y-179.07
X69.215Y-121.92
X69.374Y-179.07
X71.755Y-121.92
X73.977Y-140.97
X76.517Y-140.97
X78.74Y-50.195
X78.74Y-69.245
X78.74Y-102.87
X81.28Y-50.195
X81.28Y-69.245
X81.28Y-102.87
X83.502Y-160.02
X86.042Y-160.02
X88.265Y-121.92
X90.646Y-179.07
X90.805Y-121.92
X93.027Y-140.97
X93.186Y-179.07
X95.567Y-140.97
X97.79Y-50.195
X97.79Y-69.245
X97.79Y-102.87
X100.33Y-50.195
X100.33Y-69.245
X100.33Y-102.87
X102.552Y-160.02
X105.093Y-160.02
X107.315Y-121.92
X109.855Y-121.92
X112.078Y-140.97
X114.617Y-140.97
X116.84Y-50.195
X116.84Y-69.245
X116.84Y-102.87
X119.38Y-50.195
X119.38Y-69.245
X119.38Y-102.87
X121.602Y-160.02
X124.142Y-160.02
X126.365Y-121.92
X128.905Y-121.92
X131.127Y-140.97
X131.127Y-179.07
X133.667Y-140.97
X133.667Y-179.07
X135.89Y-50.195
X135.89Y-69.245
X135.89Y-102.87
X138.43Y-50.195
X138.43Y-69.245
X138.43Y-102.87
X140.653Y-160.02
X143.192Y-160.02
X145.415Y-121.92
X147.955Y-121.92
X150.177Y-140.97
X152.718Y-140.97
X154.94Y-102.87
X157.48Y-102.87
X159.702Y-160.02
X162.243Y-160.02
X164.465Y-50.195
X164.465Y-69.245
X164.465Y-121.92
X167.005Y-50.195
X167.005Y-69.245
X167.005Y-121.92
X169.227Y-140.97
X171.767Y-140.97
X173.99Y-102.87
X176.53Y-102.87
X178.752Y-160.02
X181.292Y-160.02
X183.515Y-50.195
X183.515Y-69.245
X183.515Y-121.92
X186.055Y-50.195
X186.055Y-69.245
X186.055Y-121.92
X188.278Y-140.97
X190.817Y-140.97
X193.04Y-102.87
X193.04Y-179.07
X195.58Y-102.87
X195.58Y-179.07
X197.802Y-160.02
X200.343Y-160.02
X202.565Y-50.195
X202.565Y-69.245
X202.565Y-121.92
X205.105Y-50.195
X205.105Y-69.245
X205.105Y-121.92
X207.327Y-140.97
X209.867Y-140.97
X212.09Y-102.87
X214.63Y-102.87
X216.852Y-160.02
X219.392Y-160.02
X221.615Y-50.195
X221.615Y-69.245
X221.615Y-121.92
X224.155Y-50.195
X224.155Y-69.245
X224.155Y-121.92
X226.377Y-140.97
X228.917Y-140.97
X231.14Y-102.87
X233.521Y-179.07
X233.68Y-102.87
X235.903Y-160.02
X236.061Y-179.07
X238.442Y-160.02
X240.665Y-121.92
X243.205Y-121.92
X245.427Y-140.97
X247.968Y-140.97
X250.19Y-50.195
X250.19Y-69.245
X250.19Y-102.87
X252.73Y-50.195
X252.73Y-69.245
X252.73Y-102.87
X254.952Y-160.02
X257.334Y-179.07
X257.493Y-160.02
X259.715Y-121.92
X259.874Y-179.07
X262.255Y-121.92
X264.477Y-140.97
X267.017Y-140.97
X269.24Y-50.195
X269.24Y-69.245
X269.24Y-102.87
X271.78Y-50.195
X271.78Y-69.245
X271.78Y-102.87
X274.002Y-160.02
X276.542Y-160.02
X278.765Y-121.92
X281.146Y-179.07
X281.305Y-121.92
X283.527Y-140.97
X283.686Y-179.07
X286.067Y-140.97
X288.29Y-50.195
X288.29Y-69.245
X290.83Y-50.195
X290.83Y-69.245
X297.815Y-102.87
X300.196Y-160.02
X300.355Y-102.87
X302.736Y-160.02
X304.959Y-131.445
X304.959Y-179.07
X307.34Y-50.195
X307.34Y-69.245
X307.499Y-131.445
X307.499Y-179.07
X309.88Y-50.195
X309.88Y-69.245
X334.603Y-69.245
X334.603Y-102.87
X334.603Y-121.92
X336.984Y-179.07
X337.143Y-69.245
X337.143Y-102.87
X337.143Y-121.92
X339.524Y-179.07
X353.653Y-69.245
X353.653Y-102.87
X353.653Y-121.92
X356.034Y-160.02
X356.034Y-179.07
X356.193Y-69.245
X356.193Y-102.87
X356.193Y-121.92
X358.574Y-160.02
X358.574Y-179.07
X372.703Y-69.245
X372.703Y-102.87
X372.703Y-121.92
X375.084Y-179.07
X375.243Y-69.245
X375.243Y-102.87
X375.243Y-121.92
X377.624Y-179.07
T0
M30
