G04 #@! TF.GenerationSoftware,KiCad,Pcbnew,7.0.6*
G04 #@! TF.CreationDate,2023-11-12T21:08:56+01:00*
G04 #@! TF.ProjectId,main,6d61696e-2e6b-4696-9361-645f70636258,rev?*
G04 #@! TF.SameCoordinates,Original*
G04 #@! TF.FileFunction,Paste,Bot*
G04 #@! TF.FilePolarity,Positive*
%FSLAX46Y46*%
G04 Gerber Fmt 4.6, Leading zero omitted, Abs format (unit mm)*
G04 Created by KiCad (PCBNEW 7.0.6) date 2023-11-12 21:08:56*
%MOMM*%
%LPD*%
G01*
G04 APERTURE LIST*
G04 Aperture macros list*
%AMRoundRect*
0 Rectangle with rounded corners*
0 $1 Rounding radius*
0 $2 $3 $4 $5 $6 $7 $8 $9 X,Y pos of 4 corners*
0 Add a 4 corners polygon primitive as box body*
4,1,4,$2,$3,$4,$5,$6,$7,$8,$9,$2,$3,0*
0 Add four circle primitives for the rounded corners*
1,1,$1+$1,$2,$3*
1,1,$1+$1,$4,$5*
1,1,$1+$1,$6,$7*
1,1,$1+$1,$8,$9*
0 Add four rect primitives between the rounded corners*
20,1,$1+$1,$2,$3,$4,$5,0*
20,1,$1+$1,$4,$5,$6,$7,0*
20,1,$1+$1,$6,$7,$8,$9,0*
20,1,$1+$1,$8,$9,$2,$3,0*%
G04 Aperture macros list end*
%ADD10RoundRect,0.200000X-1.075000X-1.050000X1.075000X-1.050000X1.075000X1.050000X-1.075000X1.050000X0*%
%ADD11RoundRect,0.237500X0.237500X-0.250000X0.237500X0.250000X-0.237500X0.250000X-0.237500X-0.250000X0*%
%ADD12R,1.200000X1.200000*%
%ADD13R,2.500000X1.200000*%
G04 APERTURE END LIST*
D10*
X168175000Y-95250000D03*
X181102000Y-92710000D03*
X215800000Y-114300000D03*
X228727000Y-111760000D03*
X72925000Y-42575000D03*
X85852000Y-40035000D03*
X350219000Y-152400000D03*
X363146000Y-149860000D03*
X239612500Y-133350000D03*
X252539500Y-130810000D03*
X177700000Y-61625000D03*
X190627000Y-59085000D03*
X134837500Y-152400000D03*
X147764500Y-149860000D03*
X347838000Y-61625000D03*
X360765000Y-59085000D03*
X158650000Y-42575000D03*
X171577000Y-40035000D03*
X215800000Y-42575000D03*
X228727000Y-40035000D03*
X294381250Y-152400000D03*
X307308250Y-149860000D03*
X211037500Y-152400000D03*
X223964500Y-149860000D03*
X139600000Y-114300000D03*
X152527000Y-111760000D03*
X177700000Y-42575000D03*
X190627000Y-40035000D03*
X196750000Y-61625000D03*
X209677000Y-59085000D03*
X125312500Y-133350000D03*
X138239500Y-130810000D03*
X331169000Y-171450000D03*
X344096000Y-168910000D03*
X91975000Y-42575000D03*
X104902000Y-40035000D03*
X120550000Y-114300000D03*
X133477000Y-111760000D03*
X187225000Y-171450000D03*
X200152000Y-168910000D03*
X263425000Y-95250000D03*
X276352000Y-92710000D03*
X111025000Y-42575000D03*
X123952000Y-40035000D03*
X158650000Y-114300000D03*
X171577000Y-111760000D03*
X61018750Y-171450000D03*
X73945750Y-168910000D03*
X91975000Y-61625000D03*
X104902000Y-59085000D03*
X230087500Y-152400000D03*
X243014500Y-149860000D03*
X163412500Y-133350000D03*
X176339500Y-130810000D03*
X125312500Y-171450000D03*
X138239500Y-168910000D03*
X72925000Y-61625000D03*
X85852000Y-59085000D03*
X68162500Y-133350000D03*
X81089500Y-130810000D03*
X263425000Y-61625000D03*
X276352000Y-59085000D03*
X220562500Y-133350000D03*
X233489500Y-130810000D03*
X77687500Y-152400000D03*
X90614500Y-149860000D03*
X249137500Y-152400000D03*
X262064500Y-149860000D03*
X244375000Y-42575000D03*
X257302000Y-40035000D03*
X215800000Y-61625000D03*
X228727000Y-59085000D03*
X263425000Y-42575000D03*
X276352000Y-40035000D03*
X328788000Y-114300000D03*
X341715000Y-111760000D03*
X275331250Y-171450000D03*
X288258250Y-168910000D03*
X366888000Y-95250000D03*
X379815000Y-92710000D03*
X347838000Y-95250000D03*
X360765000Y-92710000D03*
X84831250Y-171450000D03*
X97758250Y-168910000D03*
X53875000Y-95250000D03*
X66802000Y-92710000D03*
X253900000Y-114300000D03*
X266827000Y-111760000D03*
X158650000Y-61625000D03*
X171577000Y-59085000D03*
X63400000Y-114300000D03*
X76327000Y-111760000D03*
X130075000Y-61625000D03*
X143002000Y-59085000D03*
X196750000Y-114300000D03*
X209677000Y-111760000D03*
X299143750Y-171450000D03*
X312070750Y-168910000D03*
X347838000Y-114300000D03*
X360765000Y-111760000D03*
X130075000Y-95250000D03*
X143002000Y-92710000D03*
X244375000Y-61625000D03*
X257302000Y-59085000D03*
X366888000Y-114300000D03*
X379815000Y-111760000D03*
X46731250Y-152400000D03*
X59658250Y-149860000D03*
X328788000Y-95250000D03*
X341715000Y-92710000D03*
X87212500Y-133350000D03*
X100139500Y-130810000D03*
X277712500Y-133350000D03*
X290639500Y-130810000D03*
X182462500Y-133350000D03*
X195389500Y-130810000D03*
X350219000Y-171450000D03*
X363146000Y-168910000D03*
X191987500Y-152400000D03*
X204914500Y-149860000D03*
X41968750Y-133350000D03*
X54895750Y-130810000D03*
X292000000Y-95250000D03*
X304927000Y-92710000D03*
X153887500Y-152400000D03*
X166814500Y-149860000D03*
X227706250Y-171450000D03*
X240633250Y-168910000D03*
X282475000Y-42575000D03*
X295402000Y-40035000D03*
X299143750Y-123825000D03*
X312070750Y-121285000D03*
X149125000Y-95250000D03*
X162052000Y-92710000D03*
X115787500Y-152400000D03*
X128714500Y-149860000D03*
X201512500Y-133350000D03*
X214439500Y-130810000D03*
X82450000Y-114300000D03*
X95377000Y-111760000D03*
X91975000Y-95250000D03*
X104902000Y-92710000D03*
X177700000Y-114300000D03*
X190627000Y-111760000D03*
X130075000Y-42575000D03*
X143002000Y-40035000D03*
X234850000Y-114300000D03*
X247777000Y-111760000D03*
X196750000Y-42575000D03*
X209677000Y-40035000D03*
X366888000Y-61625000D03*
X379815000Y-59085000D03*
X34825000Y-95250000D03*
X47752000Y-92710000D03*
X301525000Y-61625000D03*
X314452000Y-59085000D03*
X268187500Y-152400000D03*
X281114500Y-149860000D03*
X244375000Y-95250000D03*
X257302000Y-92710000D03*
X272950000Y-114300000D03*
X285877000Y-111760000D03*
X172937500Y-152400000D03*
X185864500Y-149860000D03*
X187225000Y-95250000D03*
X200152000Y-92710000D03*
X37206250Y-171450000D03*
X50133250Y-168910000D03*
X301525000Y-42575000D03*
X314452000Y-40035000D03*
X282475000Y-61625000D03*
X295402000Y-59085000D03*
X96737500Y-152400000D03*
X109664500Y-149860000D03*
X72925000Y-95250000D03*
X85852000Y-92710000D03*
X106262500Y-133350000D03*
X119189500Y-130810000D03*
X369269000Y-171450000D03*
X382196000Y-168910000D03*
X328788000Y-61625000D03*
X341715000Y-59085000D03*
X251518750Y-171450000D03*
X264445750Y-168910000D03*
X111025000Y-95250000D03*
X123952000Y-92710000D03*
X225325000Y-95250000D03*
X238252000Y-92710000D03*
X258662500Y-133350000D03*
X271589500Y-130810000D03*
X39587500Y-114300000D03*
X52514500Y-111760000D03*
X144362500Y-133350000D03*
X157289500Y-130810000D03*
X101500000Y-114300000D03*
X114427000Y-111760000D03*
X34825000Y-61625000D03*
X47752000Y-59085000D03*
X111025000Y-61625000D03*
X123952000Y-59085000D03*
X206275000Y-95250000D03*
X219202000Y-92710000D03*
D11*
X35640000Y-70427500D03*
X35640000Y-68602500D03*
X116602500Y-161202500D03*
X116602500Y-159377500D03*
D12*
X257510000Y-103930000D03*
X257510000Y-101130000D03*
X307516250Y-161080000D03*
X307516250Y-158280000D03*
X190835000Y-51255000D03*
X190835000Y-48455000D03*
D11*
X216615000Y-70427500D03*
X216615000Y-68602500D03*
X348653000Y-123102500D03*
X348653000Y-121277500D03*
D12*
X360973000Y-103930000D03*
X360973000Y-101130000D03*
D11*
X130890000Y-104052500D03*
X130890000Y-102227500D03*
X130890000Y-51377500D03*
X130890000Y-49552500D03*
D12*
X288466250Y-180130000D03*
X288466250Y-177330000D03*
D11*
X370084000Y-180252500D03*
X370084000Y-178427500D03*
D12*
X133685000Y-122980000D03*
X133685000Y-120180000D03*
D13*
X377147500Y-32180000D03*
X377147500Y-36180000D03*
X377147500Y-29180000D03*
X383647500Y-37280000D03*
D11*
X73740000Y-51377500D03*
X73740000Y-49552500D03*
D12*
X341923000Y-103930000D03*
X341923000Y-101130000D03*
D11*
X235665000Y-123102500D03*
X235665000Y-121277500D03*
X149940000Y-104052500D03*
X149940000Y-102227500D03*
X111840000Y-104052500D03*
X111840000Y-102227500D03*
X240427500Y-142152500D03*
X240427500Y-140327500D03*
D12*
X228935000Y-51255000D03*
X228935000Y-48455000D03*
D11*
X245190000Y-104052500D03*
X245190000Y-102227500D03*
D12*
X167022500Y-161080000D03*
X167022500Y-158280000D03*
X109872500Y-161080000D03*
X109872500Y-158280000D03*
D11*
X264240000Y-51377500D03*
X264240000Y-49552500D03*
X216615000Y-51377500D03*
X216615000Y-49552500D03*
X178515000Y-123102500D03*
X178515000Y-121277500D03*
D12*
X124160000Y-70305000D03*
X124160000Y-67505000D03*
D11*
X47546250Y-161202500D03*
X47546250Y-159377500D03*
X168990000Y-104052500D03*
X168990000Y-102227500D03*
D12*
X360973000Y-122980000D03*
X360973000Y-120180000D03*
X143210000Y-51255000D03*
X143210000Y-48455000D03*
D11*
X351034000Y-180252500D03*
X351034000Y-178427500D03*
X299958750Y-180252500D03*
X299958750Y-178427500D03*
D12*
X105110000Y-103930000D03*
X105110000Y-101130000D03*
X74153750Y-180130000D03*
X74153750Y-177330000D03*
X190835000Y-122980000D03*
X190835000Y-120180000D03*
D11*
X259477500Y-142152500D03*
X259477500Y-140327500D03*
X367703000Y-123102500D03*
X367703000Y-121277500D03*
X348653000Y-70427500D03*
X348653000Y-68602500D03*
X230902500Y-161202500D03*
X230902500Y-159377500D03*
X329603000Y-123102500D03*
X329603000Y-121277500D03*
X329603000Y-70427500D03*
X329603000Y-68602500D03*
D12*
X76535000Y-122980000D03*
X76535000Y-120180000D03*
D11*
X211852500Y-161202500D03*
X211852500Y-159377500D03*
X348653000Y-104052500D03*
X348653000Y-102227500D03*
D12*
X314660000Y-70305000D03*
X314660000Y-67505000D03*
D11*
X252333750Y-180252500D03*
X252333750Y-178427500D03*
D12*
X171785000Y-51255000D03*
X171785000Y-48455000D03*
X312278750Y-132505000D03*
X312278750Y-129705000D03*
D11*
X159465000Y-51377500D03*
X159465000Y-49552500D03*
D12*
X257510000Y-70305000D03*
X257510000Y-67505000D03*
X228935000Y-122980000D03*
X228935000Y-120180000D03*
D11*
X78502500Y-161202500D03*
X78502500Y-159377500D03*
X178515000Y-70427500D03*
X178515000Y-68602500D03*
D12*
X276560000Y-70305000D03*
X276560000Y-67505000D03*
D11*
X126127500Y-142152500D03*
X126127500Y-140327500D03*
D12*
X363354000Y-180130000D03*
X363354000Y-177330000D03*
D11*
X183277500Y-142152500D03*
X183277500Y-140327500D03*
X249952500Y-161202500D03*
X249952500Y-159377500D03*
D12*
X105110000Y-70305000D03*
X105110000Y-67505000D03*
X47960000Y-70305000D03*
X47960000Y-67505000D03*
X224172500Y-161080000D03*
X224172500Y-158280000D03*
X233697500Y-142030000D03*
X233697500Y-139230000D03*
D11*
X88027500Y-142152500D03*
X88027500Y-140327500D03*
X92790000Y-70427500D03*
X92790000Y-68602500D03*
X107077500Y-142152500D03*
X107077500Y-140327500D03*
X367703000Y-70427500D03*
X367703000Y-68602500D03*
X283290000Y-51377500D03*
X283290000Y-49552500D03*
X202327500Y-142152500D03*
X202327500Y-140327500D03*
D12*
X55103750Y-142030000D03*
X55103750Y-139230000D03*
D11*
X61833750Y-180252500D03*
X61833750Y-178427500D03*
X130890000Y-70427500D03*
X130890000Y-68602500D03*
D12*
X267035000Y-122980000D03*
X267035000Y-120180000D03*
X52722500Y-122980000D03*
X52722500Y-120180000D03*
D11*
X264240000Y-70427500D03*
X264240000Y-68602500D03*
X302340000Y-51377500D03*
X302340000Y-49552500D03*
X64215000Y-123102500D03*
X64215000Y-121277500D03*
D12*
X147972500Y-161080000D03*
X147972500Y-158280000D03*
D11*
X197565000Y-70427500D03*
X197565000Y-68602500D03*
X68977500Y-142152500D03*
X68977500Y-140327500D03*
D12*
X138447500Y-180130000D03*
X138447500Y-177330000D03*
D11*
X197565000Y-123102500D03*
X197565000Y-121277500D03*
X126127500Y-180252500D03*
X126127500Y-178427500D03*
D12*
X276560000Y-103930000D03*
X276560000Y-101130000D03*
X271797500Y-142030000D03*
X271797500Y-139230000D03*
D11*
X111840000Y-70427500D03*
X111840000Y-68602500D03*
X331984000Y-180252500D03*
X331984000Y-178427500D03*
D12*
X143210000Y-103930000D03*
X143210000Y-101130000D03*
D11*
X283290000Y-70427500D03*
X283290000Y-68602500D03*
X73740000Y-104052500D03*
X73740000Y-102227500D03*
X188040000Y-180252500D03*
X188040000Y-178427500D03*
X164227500Y-142152500D03*
X164227500Y-140327500D03*
D12*
X363354000Y-161080000D03*
X363354000Y-158280000D03*
D11*
X140415000Y-123102500D03*
X140415000Y-121277500D03*
X121365000Y-123102500D03*
X121365000Y-121277500D03*
D12*
X228935000Y-70305000D03*
X228935000Y-67505000D03*
D11*
X226140000Y-104052500D03*
X226140000Y-102227500D03*
D12*
X295610000Y-70305000D03*
X295610000Y-67505000D03*
X138447500Y-142030000D03*
X138447500Y-139230000D03*
X205122500Y-161080000D03*
X205122500Y-158280000D03*
X281322500Y-161080000D03*
X281322500Y-158280000D03*
X90822500Y-161080000D03*
X90822500Y-158280000D03*
X344304000Y-180130000D03*
X344304000Y-177330000D03*
D11*
X154702500Y-161202500D03*
X154702500Y-159377500D03*
D12*
X290847500Y-142030000D03*
X290847500Y-139230000D03*
D11*
X295196250Y-161202500D03*
X295196250Y-159377500D03*
D12*
X190835000Y-70305000D03*
X190835000Y-67505000D03*
X100347500Y-142030000D03*
X100347500Y-139230000D03*
X214647500Y-142030000D03*
X214647500Y-139230000D03*
X209885000Y-51255000D03*
X209885000Y-48455000D03*
D11*
X273765000Y-123102500D03*
X273765000Y-121277500D03*
X197565000Y-51377500D03*
X197565000Y-49552500D03*
D12*
X286085000Y-122980000D03*
X286085000Y-120180000D03*
D11*
X173752500Y-161202500D03*
X173752500Y-159377500D03*
D12*
X157497500Y-142030000D03*
X157497500Y-139230000D03*
X380023000Y-70305000D03*
X380023000Y-67505000D03*
D11*
X85646250Y-180252500D03*
X85646250Y-178427500D03*
D12*
X238460000Y-103930000D03*
X238460000Y-101130000D03*
D11*
X145177500Y-142152500D03*
X145177500Y-140327500D03*
X188040000Y-104052500D03*
X188040000Y-102227500D03*
D12*
X314660000Y-51255000D03*
X314660000Y-48455000D03*
X341923000Y-70305000D03*
X341923000Y-67505000D03*
D11*
X92790000Y-51377500D03*
X92790000Y-49552500D03*
X192802500Y-161202500D03*
X192802500Y-159377500D03*
D12*
X252747500Y-142040000D03*
X252747500Y-139240000D03*
X276560000Y-51255000D03*
X276560000Y-48455000D03*
X171785000Y-70305000D03*
X171785000Y-67505000D03*
D11*
X216615000Y-123102500D03*
X216615000Y-121277500D03*
X54690000Y-104052500D03*
X54690000Y-102227500D03*
X221377500Y-142152500D03*
X221377500Y-140327500D03*
D12*
X86060000Y-103930000D03*
X86060000Y-101130000D03*
X240841250Y-180130000D03*
X240841250Y-177330000D03*
X124160000Y-103930000D03*
X124160000Y-101130000D03*
D11*
X111840000Y-51377500D03*
X111840000Y-49552500D03*
X97552500Y-161202500D03*
X97552500Y-159377500D03*
D12*
X67010000Y-103930000D03*
X67010000Y-101130000D03*
X209885000Y-122980000D03*
X209885000Y-120180000D03*
D11*
X245190000Y-70427500D03*
X245190000Y-68602500D03*
D12*
X47960000Y-103930000D03*
X47960000Y-101130000D03*
X295610000Y-51255000D03*
X295610000Y-48455000D03*
X95585000Y-122980000D03*
X95585000Y-120180000D03*
D11*
X207090000Y-104052500D03*
X207090000Y-102227500D03*
X302340000Y-70427500D03*
X302340000Y-68602500D03*
D12*
X143210000Y-70305000D03*
X143210000Y-67505000D03*
X382404000Y-180130000D03*
X382404000Y-177330000D03*
X86060000Y-70305000D03*
X86060000Y-67505000D03*
D13*
X58147500Y-32180000D03*
X58147500Y-36180000D03*
X58147500Y-29180000D03*
X64647500Y-37280000D03*
D12*
X312278750Y-180130000D03*
X312278750Y-177330000D03*
D11*
X351034000Y-161202500D03*
X351034000Y-159377500D03*
D12*
X380023000Y-122980000D03*
X380023000Y-120180000D03*
D11*
X278527500Y-142152500D03*
X278527500Y-140327500D03*
D12*
X176547500Y-142030000D03*
X176547500Y-139230000D03*
D11*
X228521250Y-180252500D03*
X228521250Y-178427500D03*
D12*
X264653750Y-180130000D03*
X264653750Y-177330000D03*
X200360000Y-103930000D03*
X200360000Y-101130000D03*
X97966250Y-180130000D03*
X97966250Y-177330000D03*
X209885000Y-70305000D03*
X209885000Y-67505000D03*
D11*
X92790000Y-104052500D03*
X92790000Y-102227500D03*
X83265000Y-123102500D03*
X83265000Y-121277500D03*
D12*
X243280000Y-161140000D03*
X243280000Y-158340000D03*
X152735000Y-122980000D03*
X152735000Y-120180000D03*
D11*
X135652500Y-161202500D03*
X135652500Y-159377500D03*
X102315000Y-123102500D03*
X102315000Y-121277500D03*
X269002500Y-161202500D03*
X269002500Y-159377500D03*
D12*
X86060000Y-51255000D03*
X86060000Y-48455000D03*
X181310000Y-103930000D03*
X181310000Y-101130000D03*
X257510000Y-51255000D03*
X257510000Y-48455000D03*
X128922500Y-161080000D03*
X128922500Y-158280000D03*
X119397500Y-142030000D03*
X119397500Y-139230000D03*
X247985000Y-122980000D03*
X247985000Y-120180000D03*
D11*
X73740000Y-70427500D03*
X73740000Y-68602500D03*
X38021250Y-180252500D03*
X38021250Y-178427500D03*
D12*
X360973000Y-70305000D03*
X360973000Y-67505000D03*
D11*
X178515000Y-51377500D03*
X178515000Y-49552500D03*
D12*
X162260000Y-103930000D03*
X162260000Y-101130000D03*
D11*
X42783750Y-142152500D03*
X42783750Y-140327500D03*
D12*
X50341250Y-180130000D03*
X50341250Y-177330000D03*
D11*
X292815000Y-104052500D03*
X292815000Y-102227500D03*
X40402500Y-123102500D03*
X40402500Y-121277500D03*
D12*
X200360000Y-180130000D03*
X200360000Y-177330000D03*
X305135000Y-103930000D03*
X305135000Y-101130000D03*
D11*
X299958750Y-132627500D03*
X299958750Y-130802500D03*
D12*
X105110000Y-51255000D03*
X105110000Y-48455000D03*
X195597500Y-142030000D03*
X195597500Y-139230000D03*
X219410000Y-103930000D03*
X219410000Y-101130000D03*
D11*
X159465000Y-70427500D03*
X159465000Y-68602500D03*
D12*
X81297500Y-142030000D03*
X81297500Y-139230000D03*
X114635000Y-122980000D03*
X114635000Y-120180000D03*
D11*
X35640000Y-104052500D03*
X35640000Y-102227500D03*
D12*
X380023000Y-103930000D03*
X380023000Y-101130000D03*
X171785000Y-122980000D03*
X171785000Y-120180000D03*
D11*
X367703000Y-104052500D03*
X367703000Y-102227500D03*
D12*
X341923000Y-122980000D03*
X341923000Y-120180000D03*
X124160000Y-51255000D03*
X124160000Y-48455000D03*
D11*
X276146250Y-180252500D03*
X276146250Y-178427500D03*
X159465000Y-123102500D03*
X159465000Y-121277500D03*
X264240000Y-104052500D03*
X264240000Y-102227500D03*
X245190000Y-51377500D03*
X245190000Y-49552500D03*
X254715000Y-123102500D03*
X254715000Y-121277500D03*
D12*
X262272500Y-161080000D03*
X262272500Y-158280000D03*
X186072500Y-161080000D03*
X186072500Y-158280000D03*
X59866250Y-161080000D03*
X59866250Y-158280000D03*
D11*
X329603000Y-104052500D03*
X329603000Y-102227500D03*
M02*
