G04 #@! TF.GenerationSoftware,KiCad,Pcbnew,7.0.6*
G04 #@! TF.CreationDate,2023-11-12T21:08:56+01:00*
G04 #@! TF.ProjectId,main,6d61696e-2e6b-4696-9361-645f70636258,rev?*
G04 #@! TF.SameCoordinates,Original*
G04 #@! TF.FileFunction,Soldermask,Top*
G04 #@! TF.FilePolarity,Negative*
%FSLAX46Y46*%
G04 Gerber Fmt 4.6, Leading zero omitted, Abs format (unit mm)*
G04 Created by KiCad (PCBNEW 7.0.6) date 2023-11-12 21:08:56*
%MOMM*%
%LPD*%
G01*
G04 APERTURE LIST*
%ADD10C,2.200000*%
%ADD11C,1.701800*%
%ADD12C,3.000000*%
%ADD13C,3.987800*%
%ADD14C,3.048000*%
%ADD15C,1.600000*%
%ADD16O,1.700000X1.700000*%
%ADD17R,1.700000X1.700000*%
G04 APERTURE END LIST*
D10*
X34397500Y-56330000D03*
X221397500Y-167330000D03*
D11*
X170180000Y-97790000D03*
D12*
X171450000Y-95250000D03*
D13*
X175260000Y-97790000D03*
D12*
X177800000Y-92710000D03*
D11*
X180340000Y-97790000D03*
X217805000Y-116840000D03*
D12*
X219075000Y-114300000D03*
D13*
X222885000Y-116840000D03*
D12*
X225425000Y-111760000D03*
D11*
X227965000Y-116840000D03*
D10*
X243897500Y-56330000D03*
D11*
X74930000Y-45115000D03*
D12*
X76200000Y-42575000D03*
D13*
X80010000Y-45115000D03*
D12*
X82550000Y-40035000D03*
D11*
X85090000Y-45115000D03*
X352224000Y-154940000D03*
D12*
X353494000Y-152400000D03*
D13*
X357304000Y-154940000D03*
D12*
X359844000Y-149860000D03*
D11*
X362384000Y-154940000D03*
X241617500Y-135890000D03*
D12*
X242887500Y-133350000D03*
D13*
X246697500Y-135890000D03*
D12*
X249237500Y-130810000D03*
D11*
X251777500Y-135890000D03*
X179705000Y-64165000D03*
D12*
X180975000Y-61625000D03*
D13*
X184785000Y-64165000D03*
D12*
X187325000Y-59085000D03*
D11*
X189865000Y-64165000D03*
D10*
X56397500Y-167330000D03*
D11*
X136842500Y-154940000D03*
D12*
X138112500Y-152400000D03*
D13*
X141922500Y-154940000D03*
D12*
X144462500Y-149860000D03*
D11*
X147002500Y-154940000D03*
X349843000Y-64165000D03*
D12*
X351113000Y-61625000D03*
D13*
X354923000Y-64165000D03*
D12*
X357463000Y-59085000D03*
D11*
X360003000Y-64165000D03*
X160655000Y-45115000D03*
D12*
X161925000Y-42575000D03*
D13*
X165735000Y-45115000D03*
D12*
X168275000Y-40035000D03*
D11*
X170815000Y-45115000D03*
X217805000Y-45115000D03*
D12*
X219075000Y-42575000D03*
D13*
X222885000Y-45115000D03*
D12*
X225425000Y-40035000D03*
D11*
X227965000Y-45115000D03*
X296386250Y-154940000D03*
D12*
X297656250Y-152400000D03*
D13*
X301466250Y-154940000D03*
D12*
X304006250Y-149860000D03*
D11*
X306546250Y-154940000D03*
X213042500Y-154940000D03*
D12*
X214312500Y-152400000D03*
D13*
X218122500Y-154940000D03*
D12*
X220662500Y-149860000D03*
D11*
X223202500Y-154940000D03*
X141605000Y-116840000D03*
D12*
X142875000Y-114300000D03*
D13*
X146685000Y-116840000D03*
D12*
X149225000Y-111760000D03*
D11*
X151765000Y-116840000D03*
X179705000Y-45115000D03*
D12*
X180975000Y-42575000D03*
D13*
X184785000Y-45115000D03*
D12*
X187325000Y-40035000D03*
D11*
X189865000Y-45115000D03*
X198755000Y-64165000D03*
D12*
X200025000Y-61625000D03*
D13*
X203835000Y-64165000D03*
D12*
X206375000Y-59085000D03*
D11*
X208915000Y-64165000D03*
X127317500Y-135890000D03*
D12*
X128587500Y-133350000D03*
D13*
X132397500Y-135890000D03*
D12*
X134937500Y-130810000D03*
D11*
X137477500Y-135890000D03*
X333174000Y-173990000D03*
D12*
X334444000Y-171450000D03*
D13*
X338254000Y-173990000D03*
D12*
X340794000Y-168910000D03*
D11*
X343334000Y-173990000D03*
X93980000Y-45115000D03*
D12*
X95250000Y-42575000D03*
D13*
X99060000Y-45115000D03*
D12*
X101600000Y-40035000D03*
D11*
X104140000Y-45115000D03*
X122555000Y-116840000D03*
D12*
X123825000Y-114300000D03*
D13*
X127635000Y-116840000D03*
D12*
X130175000Y-111760000D03*
D11*
X132715000Y-116840000D03*
D10*
X107397500Y-167330000D03*
X365397500Y-57330000D03*
D14*
X175260000Y-167005000D03*
D13*
X175260000Y-182245000D03*
D11*
X189230000Y-173990000D03*
D12*
X190500000Y-171450000D03*
D13*
X194310000Y-173990000D03*
D12*
X196850000Y-168910000D03*
D11*
X199390000Y-173990000D03*
D14*
X213360000Y-167005000D03*
D13*
X213360000Y-182245000D03*
D11*
X265430000Y-97790000D03*
D12*
X266700000Y-95250000D03*
D13*
X270510000Y-97790000D03*
D12*
X273050000Y-92710000D03*
D11*
X275590000Y-97790000D03*
X113030000Y-45115000D03*
D12*
X114300000Y-42575000D03*
D13*
X118110000Y-45115000D03*
D12*
X120650000Y-40035000D03*
D11*
X123190000Y-45115000D03*
X160655000Y-116840000D03*
D12*
X161925000Y-114300000D03*
D13*
X165735000Y-116840000D03*
D12*
X168275000Y-111760000D03*
D11*
X170815000Y-116840000D03*
X63023750Y-173990000D03*
D12*
X64293750Y-171450000D03*
D13*
X68103750Y-173990000D03*
D12*
X70643750Y-168910000D03*
D11*
X73183750Y-173990000D03*
X93980000Y-64165000D03*
D12*
X95250000Y-61625000D03*
D13*
X99060000Y-64165000D03*
D12*
X101600000Y-59085000D03*
D11*
X104140000Y-64165000D03*
X232092500Y-154940000D03*
D12*
X233362500Y-152400000D03*
D13*
X237172500Y-154940000D03*
D12*
X239712500Y-149860000D03*
D11*
X242252500Y-154940000D03*
X165417500Y-135890000D03*
D12*
X166687500Y-133350000D03*
D13*
X170497500Y-135890000D03*
D12*
X173037500Y-130810000D03*
D11*
X175577500Y-135890000D03*
D14*
X113347500Y-167005000D03*
D13*
X113347500Y-182245000D03*
D11*
X127317500Y-173990000D03*
D12*
X128587500Y-171450000D03*
D13*
X132397500Y-173990000D03*
D12*
X134937500Y-168910000D03*
D11*
X137477500Y-173990000D03*
D14*
X151447500Y-167005000D03*
D13*
X151447500Y-182245000D03*
D11*
X74930000Y-64165000D03*
D12*
X76200000Y-61625000D03*
D13*
X80010000Y-64165000D03*
D12*
X82550000Y-59085000D03*
D11*
X85090000Y-64165000D03*
X70167500Y-135890000D03*
D12*
X71437500Y-133350000D03*
D13*
X75247500Y-135890000D03*
D12*
X77787500Y-130810000D03*
D11*
X80327500Y-135890000D03*
X265430000Y-64165000D03*
D12*
X266700000Y-61625000D03*
D13*
X270510000Y-64165000D03*
D12*
X273050000Y-59085000D03*
D11*
X275590000Y-64165000D03*
D10*
X297397500Y-166330000D03*
D11*
X222567500Y-135890000D03*
D12*
X223837500Y-133350000D03*
D13*
X227647500Y-135890000D03*
D12*
X230187500Y-130810000D03*
D11*
X232727500Y-135890000D03*
X79692500Y-154940000D03*
D12*
X80962500Y-152400000D03*
D13*
X84772500Y-154940000D03*
D12*
X87312500Y-149860000D03*
D11*
X89852500Y-154940000D03*
X251142500Y-154940000D03*
D12*
X252412500Y-152400000D03*
D13*
X256222500Y-154940000D03*
D12*
X258762500Y-149860000D03*
D11*
X261302500Y-154940000D03*
X246380000Y-45115000D03*
D12*
X247650000Y-42575000D03*
D13*
X251460000Y-45115000D03*
D12*
X254000000Y-40035000D03*
D11*
X256540000Y-45115000D03*
X217805000Y-64165000D03*
D12*
X219075000Y-61625000D03*
D13*
X222885000Y-64165000D03*
D12*
X225425000Y-59085000D03*
D11*
X227965000Y-64165000D03*
X265430000Y-45115000D03*
D12*
X266700000Y-42575000D03*
D13*
X270510000Y-45115000D03*
D12*
X273050000Y-40035000D03*
D11*
X275590000Y-45115000D03*
X330793000Y-116840000D03*
D12*
X332063000Y-114300000D03*
D13*
X335873000Y-116840000D03*
D12*
X338413000Y-111760000D03*
D11*
X340953000Y-116840000D03*
X277336250Y-173990000D03*
D12*
X278606250Y-171450000D03*
D13*
X282416250Y-173990000D03*
D12*
X284956250Y-168910000D03*
D11*
X287496250Y-173990000D03*
X368893000Y-97790000D03*
D12*
X370163000Y-95250000D03*
D13*
X373973000Y-97790000D03*
D12*
X376513000Y-92710000D03*
D11*
X379053000Y-97790000D03*
X349843000Y-97790000D03*
D12*
X351113000Y-95250000D03*
D13*
X354923000Y-97790000D03*
D12*
X357463000Y-92710000D03*
D11*
X360003000Y-97790000D03*
X86836250Y-173990000D03*
D12*
X88106250Y-171450000D03*
D13*
X91916250Y-173990000D03*
D12*
X94456250Y-168910000D03*
D11*
X96996250Y-173990000D03*
X55880000Y-97790000D03*
D12*
X57150000Y-95250000D03*
D13*
X60960000Y-97790000D03*
D12*
X63500000Y-92710000D03*
D11*
X66040000Y-97790000D03*
X255905000Y-116840000D03*
D12*
X257175000Y-114300000D03*
D13*
X260985000Y-116840000D03*
D12*
X263525000Y-111760000D03*
D11*
X266065000Y-116840000D03*
X160655000Y-64165000D03*
D12*
X161925000Y-61625000D03*
D13*
X165735000Y-64165000D03*
D12*
X168275000Y-59085000D03*
D11*
X170815000Y-64165000D03*
X65405000Y-116840000D03*
D12*
X66675000Y-114300000D03*
D13*
X70485000Y-116840000D03*
D12*
X73025000Y-111760000D03*
D11*
X75565000Y-116840000D03*
X132080000Y-64165000D03*
D12*
X133350000Y-61625000D03*
D13*
X137160000Y-64165000D03*
D12*
X139700000Y-59085000D03*
D11*
X142240000Y-64165000D03*
X198755000Y-116840000D03*
D12*
X200025000Y-114300000D03*
D13*
X203835000Y-116840000D03*
D12*
X206375000Y-111760000D03*
D11*
X208915000Y-116840000D03*
X301148750Y-173990000D03*
D12*
X302418750Y-171450000D03*
D13*
X306228750Y-173990000D03*
D12*
X308768750Y-168910000D03*
D11*
X311308750Y-173990000D03*
X349843000Y-116840000D03*
D12*
X351113000Y-114300000D03*
D13*
X354923000Y-116840000D03*
D12*
X357463000Y-111760000D03*
D11*
X360003000Y-116840000D03*
X132080000Y-97790000D03*
D12*
X133350000Y-95250000D03*
D13*
X137160000Y-97790000D03*
D12*
X139700000Y-92710000D03*
D11*
X142240000Y-97790000D03*
D10*
X390397500Y-30330000D03*
D11*
X246380000Y-64165000D03*
D12*
X247650000Y-61625000D03*
D13*
X251460000Y-64165000D03*
D12*
X254000000Y-59085000D03*
D11*
X256540000Y-64165000D03*
X368893000Y-116840000D03*
D12*
X370163000Y-114300000D03*
D13*
X373973000Y-116840000D03*
D12*
X376513000Y-111760000D03*
D11*
X379053000Y-116840000D03*
D10*
X162397500Y-128330000D03*
D14*
X41878250Y-147955000D03*
D13*
X41878250Y-163195000D03*
D11*
X48736250Y-154940000D03*
D12*
X50006250Y-152400000D03*
D13*
X53816250Y-154940000D03*
D12*
X56356250Y-149860000D03*
D11*
X58896250Y-154940000D03*
D14*
X65754250Y-147955000D03*
D13*
X65754250Y-163195000D03*
D11*
X330793000Y-97790000D03*
D12*
X332063000Y-95250000D03*
D13*
X335873000Y-97790000D03*
D12*
X338413000Y-92710000D03*
D11*
X340953000Y-97790000D03*
X89217500Y-135890000D03*
D12*
X90487500Y-133350000D03*
D13*
X94297500Y-135890000D03*
D12*
X96837500Y-130810000D03*
D11*
X99377500Y-135890000D03*
X279717500Y-135890000D03*
D12*
X280987500Y-133350000D03*
D13*
X284797500Y-135890000D03*
D12*
X287337500Y-130810000D03*
D11*
X289877500Y-135890000D03*
X184467500Y-135890000D03*
D12*
X185737500Y-133350000D03*
D13*
X189547500Y-135890000D03*
D12*
X192087500Y-130810000D03*
D11*
X194627500Y-135890000D03*
X352224000Y-173990000D03*
D12*
X353494000Y-171450000D03*
D13*
X357304000Y-173990000D03*
D12*
X359844000Y-168910000D03*
D11*
X362384000Y-173990000D03*
D10*
X389397500Y-188330000D03*
D11*
X193992500Y-154940000D03*
D12*
X195262500Y-152400000D03*
D13*
X199072500Y-154940000D03*
D12*
X201612500Y-149860000D03*
D11*
X204152500Y-154940000D03*
X43973750Y-135890000D03*
D12*
X45243750Y-133350000D03*
D13*
X49053750Y-135890000D03*
D12*
X51593750Y-130810000D03*
D11*
X54133750Y-135890000D03*
D14*
X287147000Y-90805000D03*
D13*
X287147000Y-106045000D03*
D11*
X294005000Y-97790000D03*
D12*
X295275000Y-95250000D03*
D13*
X299085000Y-97790000D03*
D12*
X301625000Y-92710000D03*
D11*
X304165000Y-97790000D03*
D14*
X311023000Y-90805000D03*
D13*
X311023000Y-106045000D03*
D11*
X155892500Y-154940000D03*
D12*
X157162500Y-152400000D03*
D13*
X160972500Y-154940000D03*
D12*
X163512500Y-149860000D03*
D11*
X166052500Y-154940000D03*
X229711250Y-173990000D03*
D12*
X230981250Y-171450000D03*
D13*
X234791250Y-173990000D03*
D12*
X237331250Y-168910000D03*
D11*
X239871250Y-173990000D03*
X284480000Y-45115000D03*
D12*
X285750000Y-42575000D03*
D13*
X289560000Y-45115000D03*
D12*
X292100000Y-40035000D03*
D11*
X294640000Y-45115000D03*
D13*
X297973750Y-114427000D03*
X297973750Y-138303000D03*
D11*
X301148750Y-126365000D03*
D12*
X302418750Y-123825000D03*
D13*
X306228750Y-126365000D03*
D12*
X308768750Y-121285000D03*
D11*
X311308750Y-126365000D03*
D14*
X313213750Y-114427000D03*
X313213750Y-138303000D03*
D10*
X81397500Y-109330000D03*
D11*
X151130000Y-97790000D03*
D12*
X152400000Y-95250000D03*
D13*
X156210000Y-97790000D03*
D12*
X158750000Y-92710000D03*
D11*
X161290000Y-97790000D03*
X117792500Y-154940000D03*
D12*
X119062500Y-152400000D03*
D13*
X122872500Y-154940000D03*
D12*
X125412500Y-149860000D03*
D11*
X127952500Y-154940000D03*
X203517500Y-135890000D03*
D12*
X204787500Y-133350000D03*
D13*
X208597500Y-135890000D03*
D12*
X211137500Y-130810000D03*
D11*
X213677500Y-135890000D03*
X84455000Y-116840000D03*
D12*
X85725000Y-114300000D03*
D13*
X89535000Y-116840000D03*
D12*
X92075000Y-111760000D03*
D11*
X94615000Y-116840000D03*
X93980000Y-97790000D03*
D12*
X95250000Y-95250000D03*
D13*
X99060000Y-97790000D03*
D12*
X101600000Y-92710000D03*
D11*
X104140000Y-97790000D03*
X179705000Y-116840000D03*
D12*
X180975000Y-114300000D03*
D13*
X184785000Y-116840000D03*
D12*
X187325000Y-111760000D03*
D11*
X189865000Y-116840000D03*
X132080000Y-45115000D03*
D12*
X133350000Y-42575000D03*
D13*
X137160000Y-45115000D03*
D12*
X139700000Y-40035000D03*
D11*
X142240000Y-45115000D03*
X236855000Y-116840000D03*
D12*
X238125000Y-114300000D03*
D13*
X241935000Y-116840000D03*
D12*
X244475000Y-111760000D03*
D11*
X247015000Y-116840000D03*
X198755000Y-45115000D03*
D12*
X200025000Y-42575000D03*
D13*
X203835000Y-45115000D03*
D12*
X206375000Y-40035000D03*
D11*
X208915000Y-45115000D03*
X368893000Y-64165000D03*
D12*
X370163000Y-61625000D03*
D13*
X373973000Y-64165000D03*
D12*
X376513000Y-59085000D03*
D11*
X379053000Y-64165000D03*
X36830000Y-97790000D03*
D12*
X38100000Y-95250000D03*
D13*
X41910000Y-97790000D03*
D12*
X44450000Y-92710000D03*
D11*
X46990000Y-97790000D03*
X303530000Y-64165000D03*
D12*
X304800000Y-61625000D03*
D13*
X308610000Y-64165000D03*
D12*
X311150000Y-59085000D03*
D11*
X313690000Y-64165000D03*
X270192500Y-154940000D03*
D12*
X271462500Y-152400000D03*
D13*
X275272500Y-154940000D03*
D12*
X277812500Y-149860000D03*
D11*
X280352500Y-154940000D03*
X246380000Y-97790000D03*
D12*
X247650000Y-95250000D03*
D13*
X251460000Y-97790000D03*
D12*
X254000000Y-92710000D03*
D11*
X256540000Y-97790000D03*
D10*
X158397500Y-55830000D03*
D11*
X274955000Y-116840000D03*
D12*
X276225000Y-114300000D03*
D13*
X280035000Y-116840000D03*
D12*
X282575000Y-111760000D03*
D11*
X285115000Y-116840000D03*
X174942500Y-154940000D03*
D12*
X176212500Y-152400000D03*
D13*
X180022500Y-154940000D03*
D12*
X182562500Y-149860000D03*
D11*
X185102500Y-154940000D03*
X189230000Y-97790000D03*
D12*
X190500000Y-95250000D03*
D13*
X194310000Y-97790000D03*
D12*
X196850000Y-92710000D03*
D11*
X199390000Y-97790000D03*
X39211250Y-173990000D03*
D12*
X40481250Y-171450000D03*
D13*
X44291250Y-173990000D03*
D12*
X46831250Y-168910000D03*
D11*
X49371250Y-173990000D03*
X303530000Y-45115000D03*
D12*
X304800000Y-42575000D03*
D13*
X308610000Y-45115000D03*
D12*
X311150000Y-40035000D03*
D11*
X313690000Y-45115000D03*
X284480000Y-64165000D03*
D12*
X285750000Y-61625000D03*
D13*
X289560000Y-64165000D03*
D12*
X292100000Y-59085000D03*
D11*
X294640000Y-64165000D03*
X98742500Y-154940000D03*
D12*
X100012500Y-152400000D03*
D13*
X103822500Y-154940000D03*
D12*
X106362500Y-149860000D03*
D11*
X108902500Y-154940000D03*
X74930000Y-97790000D03*
D12*
X76200000Y-95250000D03*
D13*
X80010000Y-97790000D03*
D12*
X82550000Y-92710000D03*
D11*
X85090000Y-97790000D03*
X108267500Y-135890000D03*
D12*
X109537500Y-133350000D03*
D13*
X113347500Y-135890000D03*
D12*
X115887500Y-130810000D03*
D11*
X118427500Y-135890000D03*
X371274000Y-173990000D03*
D12*
X372544000Y-171450000D03*
D13*
X376354000Y-173990000D03*
D12*
X378894000Y-168910000D03*
D11*
X381434000Y-173990000D03*
D10*
X365897500Y-109330000D03*
D11*
X330793000Y-64165000D03*
D12*
X332063000Y-61625000D03*
D13*
X335873000Y-64165000D03*
D12*
X338413000Y-59085000D03*
D11*
X340953000Y-64165000D03*
D10*
X32397500Y-30330000D03*
D11*
X253523750Y-173990000D03*
D12*
X254793750Y-171450000D03*
D13*
X258603750Y-173990000D03*
D12*
X261143750Y-168910000D03*
D11*
X263683750Y-173990000D03*
D10*
X368397500Y-166330000D03*
X30397500Y-188330000D03*
D11*
X113030000Y-97790000D03*
D12*
X114300000Y-95250000D03*
D13*
X118110000Y-97790000D03*
D12*
X120650000Y-92710000D03*
D11*
X123190000Y-97790000D03*
X227330000Y-97790000D03*
D12*
X228600000Y-95250000D03*
D13*
X232410000Y-97790000D03*
D12*
X234950000Y-92710000D03*
D11*
X237490000Y-97790000D03*
X260667500Y-135890000D03*
D12*
X261937500Y-133350000D03*
D13*
X265747500Y-135890000D03*
D12*
X268287500Y-130810000D03*
D11*
X270827500Y-135890000D03*
X41592500Y-116840000D03*
D12*
X42862500Y-114300000D03*
D13*
X46672500Y-116840000D03*
D12*
X49212500Y-111760000D03*
D11*
X51752500Y-116840000D03*
X146367500Y-135890000D03*
D12*
X147637500Y-133350000D03*
D13*
X151447500Y-135890000D03*
D12*
X153987500Y-130810000D03*
D11*
X156527500Y-135890000D03*
X103505000Y-116840000D03*
D12*
X104775000Y-114300000D03*
D13*
X108585000Y-116840000D03*
D12*
X111125000Y-111760000D03*
D11*
X113665000Y-116840000D03*
X36830000Y-64165000D03*
D12*
X38100000Y-61625000D03*
D13*
X41910000Y-64165000D03*
D12*
X44450000Y-59085000D03*
D11*
X46990000Y-64165000D03*
X113030000Y-64165000D03*
D12*
X114300000Y-61625000D03*
D13*
X118110000Y-64165000D03*
D12*
X120650000Y-59085000D03*
D11*
X123190000Y-64165000D03*
X208280000Y-97790000D03*
D12*
X209550000Y-95250000D03*
D13*
X213360000Y-97790000D03*
D12*
X215900000Y-92710000D03*
D11*
X218440000Y-97790000D03*
D10*
X233897500Y-109330000D03*
D15*
X380397500Y-27580000D03*
X380397500Y-34580000D03*
D16*
X373097500Y-49330000D03*
X370557500Y-49330000D03*
D17*
X368017500Y-49330000D03*
D16*
X365477500Y-49330000D03*
X362937500Y-49330000D03*
X360397500Y-49330000D03*
X357857500Y-49330000D03*
D17*
X355317500Y-49330000D03*
D16*
X352777500Y-49330000D03*
X350237500Y-49330000D03*
X347697500Y-49330000D03*
X345157500Y-49330000D03*
D17*
X342617500Y-49330000D03*
D16*
X340077500Y-49330000D03*
X337537500Y-49330000D03*
X334997500Y-49330000D03*
X332457500Y-49330000D03*
D17*
X329917500Y-49330000D03*
D16*
X327377500Y-49330000D03*
X324837500Y-49330000D03*
X324837500Y-31550000D03*
X327377500Y-31550000D03*
D17*
X329917500Y-31550000D03*
D16*
X332457500Y-31550000D03*
X334997500Y-31550000D03*
X337537500Y-31550000D03*
X340077500Y-31550000D03*
D17*
X342617500Y-31550000D03*
D16*
X345157500Y-31550000D03*
X347697500Y-31550000D03*
X350237500Y-31550000D03*
X352777500Y-31550000D03*
D17*
X355317500Y-31550000D03*
D16*
X357857500Y-31550000D03*
X360397500Y-31550000D03*
X362937500Y-31550000D03*
X365477500Y-31550000D03*
D17*
X368017500Y-31550000D03*
D16*
X370557500Y-31550000D03*
X373097500Y-31550000D03*
X325067500Y-42980000D03*
D17*
X325067500Y-40440000D03*
D16*
X325067500Y-37900000D03*
D15*
X61397500Y-27580000D03*
X61397500Y-34580000D03*
M02*
