M48
; DRILL file {KiCad 7.0.6} date Sun Nov 12 21:12:42 2023
; FORMAT={-:-/ absolute / metric / decimal}
; #@! TF.CreationDate,2023-11-12T21:12:42+01:00
; #@! TF.GenerationSoftware,Kicad,Pcbnew,7.0.6
; #@! TF.FileFunction,NonPlated,1,4,NPTH
FMAT,2
METRIC
; #@! TA.AperFunction,NonPlated,NPTH,ComponentDrill
T1C1.600
; #@! TA.AperFunction,NonPlated,NPTH,ComponentDrill
T2C1.702
; #@! TA.AperFunction,NonPlated,NPTH,ComponentDrill
T3C2.200
; #@! TA.AperFunction,NonPlated,NPTH,ComponentDrill
T4C3.000
; #@! TA.AperFunction,NonPlated,NPTH,ComponentDrill
T5C3.048
; #@! TA.AperFunction,NonPlated,NPTH,ComponentDrill
T6C3.988
%
G90
G05
T1
X61.397Y-27.58
X61.397Y-34.58
X380.397Y-27.58
X380.397Y-34.58
T2
X36.83Y-64.165
X36.83Y-97.79
X39.211Y-173.99
X41.593Y-116.84
X43.974Y-135.89
X46.99Y-64.165
X46.99Y-97.79
X48.736Y-154.94
X49.371Y-173.99
X51.752Y-116.84
X54.134Y-135.89
X55.88Y-97.79
X58.896Y-154.94
X63.024Y-173.99
X65.405Y-116.84
X66.04Y-97.79
X70.167Y-135.89
X73.184Y-173.99
X74.93Y-45.115
X74.93Y-64.165
X74.93Y-97.79
X75.565Y-116.84
X79.692Y-154.94
X80.328Y-135.89
X84.455Y-116.84
X85.09Y-45.115
X85.09Y-64.165
X85.09Y-97.79
X86.836Y-173.99
X89.218Y-135.89
X89.852Y-154.94
X93.98Y-45.115
X93.98Y-64.165
X93.98Y-97.79
X94.615Y-116.84
X96.996Y-173.99
X98.742Y-154.94
X99.377Y-135.89
X103.505Y-116.84
X104.14Y-45.115
X104.14Y-64.165
X104.14Y-97.79
X108.267Y-135.89
X108.902Y-154.94
X113.03Y-45.115
X113.03Y-64.165
X113.03Y-97.79
X113.665Y-116.84
X117.792Y-154.94
X118.427Y-135.89
X122.555Y-116.84
X123.19Y-45.115
X123.19Y-64.165
X123.19Y-97.79
X127.317Y-135.89
X127.317Y-173.99
X127.953Y-154.94
X132.08Y-45.115
X132.08Y-64.165
X132.08Y-97.79
X132.715Y-116.84
X136.843Y-154.94
X137.477Y-135.89
X137.477Y-173.99
X141.605Y-116.84
X142.24Y-45.115
X142.24Y-64.165
X142.24Y-97.79
X146.368Y-135.89
X147.002Y-154.94
X151.13Y-97.79
X151.765Y-116.84
X155.892Y-154.94
X156.528Y-135.89
X160.655Y-45.115
X160.655Y-64.165
X160.655Y-116.84
X161.29Y-97.79
X165.417Y-135.89
X166.052Y-154.94
X170.18Y-97.79
X170.815Y-45.115
X170.815Y-64.165
X170.815Y-116.84
X174.942Y-154.94
X175.577Y-135.89
X179.705Y-45.115
X179.705Y-64.165
X179.705Y-116.84
X180.34Y-97.79
X184.468Y-135.89
X185.102Y-154.94
X189.23Y-97.79
X189.23Y-173.99
X189.865Y-45.115
X189.865Y-64.165
X189.865Y-116.84
X193.992Y-154.94
X194.627Y-135.89
X198.755Y-45.115
X198.755Y-64.165
X198.755Y-116.84
X199.39Y-97.79
X199.39Y-173.99
X203.517Y-135.89
X204.153Y-154.94
X208.28Y-97.79
X208.915Y-45.115
X208.915Y-64.165
X208.915Y-116.84
X213.042Y-154.94
X213.677Y-135.89
X217.805Y-45.115
X217.805Y-64.165
X217.805Y-116.84
X218.44Y-97.79
X222.567Y-135.89
X223.202Y-154.94
X227.33Y-97.79
X227.965Y-45.115
X227.965Y-64.165
X227.965Y-116.84
X229.711Y-173.99
X232.093Y-154.94
X232.727Y-135.89
X236.855Y-116.84
X237.49Y-97.79
X239.871Y-173.99
X241.617Y-135.89
X242.252Y-154.94
X246.38Y-45.115
X246.38Y-64.165
X246.38Y-97.79
X247.015Y-116.84
X251.142Y-154.94
X251.777Y-135.89
X253.524Y-173.99
X255.905Y-116.84
X256.54Y-45.115
X256.54Y-64.165
X256.54Y-97.79
X260.667Y-135.89
X261.303Y-154.94
X263.684Y-173.99
X265.43Y-45.115
X265.43Y-64.165
X265.43Y-97.79
X266.065Y-116.84
X270.192Y-154.94
X270.827Y-135.89
X274.955Y-116.84
X275.59Y-45.115
X275.59Y-64.165
X275.59Y-97.79
X277.336Y-173.99
X279.717Y-135.89
X280.352Y-154.94
X284.48Y-45.115
X284.48Y-64.165
X285.115Y-116.84
X287.496Y-173.99
X289.877Y-135.89
X294.005Y-97.79
X294.64Y-45.115
X294.64Y-64.165
X296.386Y-154.94
X301.149Y-126.365
X301.149Y-173.99
X303.53Y-45.115
X303.53Y-64.165
X304.165Y-97.79
X306.546Y-154.94
X311.309Y-126.365
X311.309Y-173.99
X313.69Y-45.115
X313.69Y-64.165
X330.793Y-64.165
X330.793Y-97.79
X330.793Y-116.84
X333.174Y-173.99
X340.953Y-64.165
X340.953Y-97.79
X340.953Y-116.84
X343.334Y-173.99
X349.843Y-64.165
X349.843Y-97.79
X349.843Y-116.84
X352.224Y-154.94
X352.224Y-173.99
X360.003Y-64.165
X360.003Y-97.79
X360.003Y-116.84
X362.384Y-154.94
X362.384Y-173.99
X368.893Y-64.165
X368.893Y-97.79
X368.893Y-116.84
X371.274Y-173.99
X379.053Y-64.165
X379.053Y-97.79
X379.053Y-116.84
X381.434Y-173.99
T3
X30.397Y-188.33
X32.398Y-30.33
X34.398Y-56.33
X56.398Y-167.33
X81.397Y-109.33
X107.397Y-167.33
X158.397Y-55.83
X162.397Y-128.33
X221.397Y-167.33
X233.897Y-109.33
X243.897Y-56.33
X297.397Y-166.33
X365.397Y-57.33
X365.897Y-109.33
X368.397Y-166.33
X389.397Y-188.33
X390.397Y-30.33
T4
X38.1Y-61.625
X38.1Y-95.25
X40.481Y-171.45
X42.862Y-114.3
X44.45Y-59.085
X44.45Y-92.71
X45.244Y-133.35
X46.831Y-168.91
X49.212Y-111.76
X50.006Y-152.4
X51.594Y-130.81
X56.356Y-149.86
X57.15Y-95.25
X63.5Y-92.71
X64.294Y-171.45
X66.675Y-114.3
X70.644Y-168.91
X71.438Y-133.35
X73.025Y-111.76
X76.2Y-42.575
X76.2Y-61.625
X76.2Y-95.25
X77.787Y-130.81
X80.962Y-152.4
X82.55Y-40.035
X82.55Y-59.085
X82.55Y-92.71
X85.725Y-114.3
X87.312Y-149.86
X88.106Y-171.45
X90.487Y-133.35
X92.075Y-111.76
X94.456Y-168.91
X95.25Y-42.575
X95.25Y-61.625
X95.25Y-95.25
X96.837Y-130.81
X100.012Y-152.4
X101.6Y-40.035
X101.6Y-59.085
X101.6Y-92.71
X104.775Y-114.3
X106.362Y-149.86
X109.537Y-133.35
X111.125Y-111.76
X114.3Y-42.575
X114.3Y-61.625
X114.3Y-95.25
X115.887Y-130.81
X119.062Y-152.4
X120.65Y-40.035
X120.65Y-59.085
X120.65Y-92.71
X123.825Y-114.3
X125.412Y-149.86
X128.588Y-133.35
X128.588Y-171.45
X130.175Y-111.76
X133.35Y-42.575
X133.35Y-61.625
X133.35Y-95.25
X134.938Y-130.81
X134.938Y-168.91
X138.112Y-152.4
X139.7Y-40.035
X139.7Y-59.085
X139.7Y-92.71
X142.875Y-114.3
X144.463Y-149.86
X147.637Y-133.35
X149.225Y-111.76
X152.4Y-95.25
X153.987Y-130.81
X157.162Y-152.4
X158.75Y-92.71
X161.925Y-42.575
X161.925Y-61.625
X161.925Y-114.3
X163.512Y-149.86
X166.688Y-133.35
X168.275Y-40.035
X168.275Y-59.085
X168.275Y-111.76
X171.45Y-95.25
X173.037Y-130.81
X176.213Y-152.4
X177.8Y-92.71
X180.975Y-42.575
X180.975Y-61.625
X180.975Y-114.3
X182.562Y-149.86
X185.737Y-133.35
X187.325Y-40.035
X187.325Y-59.085
X187.325Y-111.76
X190.5Y-95.25
X190.5Y-171.45
X192.087Y-130.81
X195.262Y-152.4
X196.85Y-92.71
X196.85Y-168.91
X200.025Y-42.575
X200.025Y-61.625
X200.025Y-114.3
X201.612Y-149.86
X204.787Y-133.35
X206.375Y-40.035
X206.375Y-59.085
X206.375Y-111.76
X209.55Y-95.25
X211.137Y-130.81
X214.312Y-152.4
X215.9Y-92.71
X219.075Y-42.575
X219.075Y-61.625
X219.075Y-114.3
X220.662Y-149.86
X223.837Y-133.35
X225.425Y-40.035
X225.425Y-59.085
X225.425Y-111.76
X228.6Y-95.25
X230.188Y-130.81
X230.981Y-171.45
X233.362Y-152.4
X234.95Y-92.71
X237.331Y-168.91
X238.125Y-114.3
X239.712Y-149.86
X242.887Y-133.35
X244.475Y-111.76
X247.65Y-42.575
X247.65Y-61.625
X247.65Y-95.25
X249.237Y-130.81
X252.412Y-152.4
X254.0Y-40.035
X254.0Y-59.085
X254.0Y-92.71
X254.794Y-171.45
X257.175Y-114.3
X258.762Y-149.86
X261.144Y-168.91
X261.938Y-133.35
X263.525Y-111.76
X266.7Y-42.575
X266.7Y-61.625
X266.7Y-95.25
X268.287Y-130.81
X271.462Y-152.4
X273.05Y-40.035
X273.05Y-59.085
X273.05Y-92.71
X276.225Y-114.3
X277.812Y-149.86
X278.606Y-171.45
X280.988Y-133.35
X282.575Y-111.76
X284.956Y-168.91
X285.75Y-42.575
X285.75Y-61.625
X287.337Y-130.81
X292.1Y-40.035
X292.1Y-59.085
X295.275Y-95.25
X297.656Y-152.4
X301.625Y-92.71
X302.419Y-123.825
X302.419Y-171.45
X304.006Y-149.86
X304.8Y-42.575
X304.8Y-61.625
X308.769Y-121.285
X308.769Y-168.91
X311.15Y-40.035
X311.15Y-59.085
X332.063Y-61.625
X332.063Y-95.25
X332.063Y-114.3
X334.444Y-171.45
X338.413Y-59.085
X338.413Y-92.71
X338.413Y-111.76
X340.794Y-168.91
X351.113Y-61.625
X351.113Y-95.25
X351.113Y-114.3
X353.494Y-152.4
X353.494Y-171.45
X357.463Y-59.085
X357.463Y-92.71
X357.463Y-111.76
X359.844Y-149.86
X359.844Y-168.91
X370.163Y-61.625
X370.163Y-95.25
X370.163Y-114.3
X372.544Y-171.45
X376.513Y-59.085
X376.513Y-92.71
X376.513Y-111.76
X378.894Y-168.91
T5
X41.878Y-147.955
X65.754Y-147.955
X113.347Y-167.005
X151.447Y-167.005
X175.26Y-167.005
X213.36Y-167.005
X287.147Y-90.805
X311.023Y-90.805
X313.214Y-114.427
X313.214Y-138.303
T6
X41.878Y-163.195
X41.91Y-64.165
X41.91Y-97.79
X44.291Y-173.99
X46.672Y-116.84
X49.054Y-135.89
X53.816Y-154.94
X60.96Y-97.79
X65.754Y-163.195
X68.104Y-173.99
X70.485Y-116.84
X75.248Y-135.89
X80.01Y-45.115
X80.01Y-64.165
X80.01Y-97.79
X84.772Y-154.94
X89.535Y-116.84
X91.916Y-173.99
X94.297Y-135.89
X99.06Y-45.115
X99.06Y-64.165
X99.06Y-97.79
X103.822Y-154.94
X108.585Y-116.84
X113.347Y-135.89
X113.347Y-182.245
X118.11Y-45.115
X118.11Y-64.165
X118.11Y-97.79
X122.872Y-154.94
X127.635Y-116.84
X132.398Y-135.89
X132.398Y-173.99
X137.16Y-45.115
X137.16Y-64.165
X137.16Y-97.79
X141.922Y-154.94
X146.685Y-116.84
X151.447Y-135.89
X151.447Y-182.245
X156.21Y-97.79
X160.972Y-154.94
X165.735Y-45.115
X165.735Y-64.165
X165.735Y-116.84
X170.498Y-135.89
X175.26Y-97.79
X175.26Y-182.245
X180.022Y-154.94
X184.785Y-45.115
X184.785Y-64.165
X184.785Y-116.84
X189.547Y-135.89
X194.31Y-97.79
X194.31Y-173.99
X199.072Y-154.94
X203.835Y-45.115
X203.835Y-64.165
X203.835Y-116.84
X208.597Y-135.89
X213.36Y-97.79
X213.36Y-182.245
X218.123Y-154.94
X222.885Y-45.115
X222.885Y-64.165
X222.885Y-116.84
X227.647Y-135.89
X232.41Y-97.79
X234.791Y-173.99
X237.172Y-154.94
X241.935Y-116.84
X246.697Y-135.89
X251.46Y-45.115
X251.46Y-64.165
X251.46Y-97.79
X256.222Y-154.94
X258.604Y-173.99
X260.985Y-116.84
X265.748Y-135.89
X270.51Y-45.115
X270.51Y-64.165
X270.51Y-97.79
X275.272Y-154.94
X280.035Y-116.84
X282.416Y-173.99
X284.798Y-135.89
X287.147Y-106.045
X289.56Y-45.115
X289.56Y-64.165
X297.974Y-114.427
X297.974Y-138.303
X299.085Y-97.79
X301.466Y-154.94
X306.229Y-126.365
X306.229Y-173.99
X308.61Y-45.115
X308.61Y-64.165
X311.023Y-106.045
X335.873Y-64.165
X335.873Y-97.79
X335.873Y-116.84
X338.254Y-173.99
X354.923Y-64.165
X354.923Y-97.79
X354.923Y-116.84
X357.304Y-154.94
X357.304Y-173.99
X373.973Y-64.165
X373.973Y-97.79
X373.973Y-116.84
X376.354Y-173.99
T0
M30
