solid OpenSCAD_Model
  facet normal 0.923878 0.382455 0.0133557
    outer loop
      vertex 9.82843 9.26792 16.2223
      vertex 10.5858 8.00488 0
      vertex 9.82843 9.83442 0
    endloop
  endfacet
  facet normal 0.923877 0.382456 0.0133557
    outer loop
      vertex 10.5858 8.00488 0
      vertex 9.82843 9.26792 16.2223
      vertex 10.5858 7.44061 16.1585
    endloop
  endfacet
  facet normal -0.92388 0.38245 0.0133555
    outer loop
      vertex 3 7.00427 0
      vertex 4.17157 9.26792 16.2223
      vertex 4.17157 9.83442 0
    endloop
  endfacet
  facet normal -0.92388 0.38245 0.0133555
    outer loop
      vertex 4.17157 9.26792 16.2223
      vertex 3 7.00427 0
      vertex 3 6.44122 16.1236
    endloop
  endfacet
  facet normal 0.382665 0.923324 0.0322435
    outer loop
      vertex 8 10.5922 0
      vertex 9.82843 9.26792 16.2223
      vertex 9.82843 9.83442 0
    endloop
  endfacet
  facet normal 0.382676 0.92332 0.0322419
    outer loop
      vertex 9.82843 9.26792 16.2223
      vertex 8 10.5922 0
      vertex 8 10.0248 16.2488
    endloop
  endfacet
  facet normal -0.382676 0.92332 0.0322419
    outer loop
      vertex 6 10.5922 0
      vertex 4.17157 9.26792 16.2223
      vertex 6 10.0248 16.2488
    endloop
  endfacet
  facet normal -0.382665 0.923324 0.0322435
    outer loop
      vertex 4.17157 9.26792 16.2223
      vertex 6 10.5922 0
      vertex 4.17157 9.83442 0
    endloop
  endfacet
  facet normal 0.382684 -0.923317 -0.0322433
    outer loop
      vertex 9.82843 4.17412 0
      vertex 7 2.44365 15.984
      vertex 7 3.00183 0
    endloop
  endfacet
  facet normal 0.382683 -0.923317 -0.0322434
    outer loop
      vertex 7 2.44365 15.984
      vertex 9.82843 4.17412 0
      vertex 9.82843 3.61451 16.0249
    endloop
  endfacet
  facet normal -0.92388 -0.38245 -0.0133555
    outer loop
      vertex 4.17157 4.17412 0
      vertex 3 6.44122 16.1236
      vertex 3 7.00427 0
    endloop
  endfacet
  facet normal -0.92388 -0.382449 -0.0133556
    outer loop
      vertex 3 6.44122 16.1236
      vertex 4.17157 4.17412 0
      vertex 4.17157 3.61451 16.0249
    endloop
  endfacet
  facet normal 0.923878 -0.382455 -0.0133556
    outer loop
      vertex 10.5858 5.44183 16.0887
      vertex 9.82843 4.17412 0
      vertex 10.5858 6.00366 0
    endloop
  endfacet
  facet normal 0.923878 -0.382454 -0.0133558
    outer loop
      vertex 9.82843 4.17412 0
      vertex 10.5858 5.44183 16.0887
      vertex 9.82843 3.61451 16.0249
    endloop
  endfacet
  facet normal -0.382683 -0.923317 -0.0322434
    outer loop
      vertex 4.17157 4.17412 0
      vertex 7 2.44365 15.984
      vertex 4.17157 3.61451 16.0249
    endloop
  endfacet
  facet normal -0.382684 -0.923317 -0.0322433
    outer loop
      vertex 7 2.44365 15.984
      vertex 4.17157 4.17412 0
      vertex 7 3.00183 0
    endloop
  endfacet
  facet normal 0 -0.0347616 0.999396
    outer loop
      vertex 6 10.0248 16.2488
      vertex 8 10.0248 16.2488
      vertex 8 10.4388 16.2632
    endloop
  endfacet
  facet normal 0 -0.0347616 0.999396
    outer loop
      vertex 6 10.0248 16.2488
      vertex 8 10.4388 16.2632
      vertex 6 10.4388 16.2632
    endloop
  endfacet
  facet normal 0 -0.034928 0.99939
    outer loop
      vertex 8 10.0248 16.2488
      vertex 6 10.0248 16.2488
      vertex 7 8.26511 16.1873
    endloop
  endfacet
  facet normal 4.40656e-05 -0.034903 0.999391
    outer loop
      vertex 6 10.0248 16.2488
      vertex 5.70953 7.7309 16.1687
      vertex 7 8.26511 16.1873
    endloop
  endfacet
  facet normal -4.08021e-05 -0.0348923 0.999391
    outer loop
      vertex 4.17157 9.26792 16.2223
      vertex 5.70953 7.7309 16.1687
      vertex 6 10.0248 16.2488
    endloop
  endfacet
  facet normal -6.86746e-05 -0.0349201 0.99939
    outer loop
      vertex 5.70953 7.7309 16.1687
      vertex 4.17157 9.26792 16.2223
      vertex 5.175 6.44122 16.1236
    endloop
  endfacet
  facet normal 0 -0.0349 0.999391
    outer loop
      vertex 10.5858 7.44061 16.1585
      vertex 11 5.44183 16.0887
      vertex 11 7.44061 16.1585
    endloop
  endfacet
  facet normal 0 -0.0349 0.999391
    outer loop
      vertex 10.5858 7.44061 16.1585
      vertex 10.5858 5.44183 16.0887
      vertex 11 5.44183 16.0887
    endloop
  endfacet
  facet normal 2.96869e-05 -0.0348812 0.999391
    outer loop
      vertex 8.29047 7.7309 16.1687
      vertex 10.5858 7.44061 16.1585
      vertex 9.82843 9.26792 16.2223
    endloop
  endfacet
  facet normal 0 -0.0349 0.999391
    outer loop
      vertex 10.5858 7.44061 16.1585
      vertex 8.825 6.44122 16.1236
      vertex 10.5858 5.44183 16.0887
    endloop
  endfacet
  facet normal 1.34071e-05 -0.0348764 0.999392
    outer loop
      vertex 8.29047 5.15153 16.0786
      vertex 10.5858 5.44183 16.0887
      vertex 8.825 6.44122 16.1236
    endloop
  endfacet
  facet normal 2.23234e-05 -0.0349393 0.999389
    outer loop
      vertex 10.5858 7.44061 16.1585
      vertex 8.29047 7.7309 16.1687
      vertex 8.825 6.44122 16.1236
    endloop
  endfacet
  facet normal 4.08021e-05 -0.0348923 0.999391
    outer loop
      vertex 8 10.0248 16.2488
      vertex 8.29047 7.7309 16.1687
      vertex 9.82843 9.26792 16.2223
    endloop
  endfacet
  facet normal -4.40656e-05 -0.034903 0.999391
    outer loop
      vertex 8.29047 7.7309 16.1687
      vertex 8 10.0248 16.2488
      vertex 7 8.26511 16.1873
    endloop
  endfacet
  facet normal 1.63969e-05 -0.0349 0.999391
    outer loop
      vertex 10.5858 5.44183 16.0887
      vertex 8.29047 5.15153 16.0786
      vertex 9.82843 3.61451 16.0249
    endloop
  endfacet
  facet normal -1.9857e-05 -0.0349363 0.99939
    outer loop
      vertex 7 4.61733 16.0599
      vertex 9.82843 3.61451 16.0249
      vertex 8.29047 5.15153 16.0786
    endloop
  endfacet
  facet normal -5.72803e-06 -0.0348965 0.999391
    outer loop
      vertex 7 4.61733 16.0599
      vertex 7 2.44365 15.984
      vertex 9.82843 3.61451 16.0249
    endloop
  endfacet
  facet normal 3.63534e-05 -0.0348965 0.999391
    outer loop
      vertex 5.70953 5.15153 16.0786
      vertex 7 2.44365 15.984
      vertex 7 4.61733 16.0599
    endloop
  endfacet
  facet normal -1.79849e-06 -0.0349146 0.99939
    outer loop
      vertex 5.70953 5.15153 16.0786
      vertex 4.17157 3.61451 16.0249
      vertex 7 2.44365 15.984
    endloop
  endfacet
  facet normal -3.22266e-05 -0.0348842 0.999391
    outer loop
      vertex 5.175 6.44122 16.1236
      vertex 4.17157 3.61451 16.0249
      vertex 5.70953 5.15153 16.0786
    endloop
  endfacet
  facet normal 0 -0.0348958 0.999391
    outer loop
      vertex 3 6.44122 16.1236
      vertex 5.175 6.44122 16.1236
      vertex 4.17157 9.26792 16.2223
    endloop
  endfacet
  facet normal 0 -0.0348957 0.999391
    outer loop
      vertex 5.175 6.44122 16.1236
      vertex 3 6.44122 16.1236
      vertex 4.17157 3.61451 16.0249
    endloop
  endfacet
  facet normal 0.970142 -0.00848357 0.242388
    outer loop
      vertex 11 7.44061 16.1585
      vertex 15.0246 6.00366 0
      vertex 15.0421 8.00488 0
    endloop
  endfacet
  facet normal 0.970143 -0.00846445 0.242386
    outer loop
      vertex 15.0246 6.00366 0
      vertex 11 7.44061 16.1585
      vertex 11 5.44183 16.0887
    endloop
  endfacet
  facet normal -0 0.999391 0.0348997
    outer loop
      vertex 10.5858 8.00488 0
      vertex 11 7.44061 16.1585
      vertex 15.0421 8.00488 0
    endloop
  endfacet
  facet normal 0 0.999391 0.0348997
    outer loop
      vertex 11 7.44061 16.1585
      vertex 10.5858 8.00488 0
      vertex 10.5858 7.44061 16.1585
    endloop
  endfacet
  facet normal 0 -0.999391 -0.0348995
    outer loop
      vertex 10.5858 6.00366 0
      vertex 11 5.44183 16.0887
      vertex 10.5858 5.44183 16.0887
    endloop
  endfacet
  facet normal 0 -0.999391 -0.0348995
    outer loop
      vertex 11 5.44183 16.0887
      vertex 10.5858 6.00366 0
      vertex 15.0246 6.00366 0
    endloop
  endfacet
  facet normal 0 0.961088 0.276244
    outer loop
      vertex 8 15.1133 0
      vertex 6 10.4388 16.2632
      vertex 8 10.4388 16.2632
    endloop
  endfacet
  facet normal 0 0.961088 0.276244
    outer loop
      vertex 6 10.4388 16.2632
      vertex 8 15.1133 0
      vertex 6 15.1133 0
    endloop
  endfacet
  facet normal -1 0 0
    outer loop
      vertex 6 10.5922 0
      vertex 6 10.4388 16.2632
      vertex 6 15.1133 0
    endloop
  endfacet
  facet normal -1 0 -0
    outer loop
      vertex 6 10.4388 16.2632
      vertex 6 10.5922 0
      vertex 6 10.0248 16.2488
    endloop
  endfacet
  facet normal 1 0 0
    outer loop
      vertex 8 10.4388 16.2632
      vertex 8 10.5922 0
      vertex 8 15.1133 0
    endloop
  endfacet
  facet normal 1 0 0
    outer loop
      vertex 8 10.5922 0
      vertex 8 10.4388 16.2632
      vertex 8 10.0248 16.2488
    endloop
  endfacet
  facet normal 0.923911 0.382373 0.0133574
    outer loop
      vertex 9.82843 162.812 21.5842
      vertex 10.5858 161.736 0
      vertex 9.82843 163.566 0
    endloop
  endfacet
  facet normal 0.923854 0.382511 0.0133485
    outer loop
      vertex 10.5858 161.736 0
      vertex 9.82843 162.812 21.5842
      vertex 10.5858 160.985 21.5204
    endloop
  endfacet
  facet normal -0.92392 0.382352 0.0133567
    outer loop
      vertex 3 160.735 0
      vertex 4.17157 162.812 21.5842
      vertex 4.17157 163.566 0
    endloop
  endfacet
  facet normal -0.923894 0.382416 0.0133491
    outer loop
      vertex 4.17157 162.812 21.5842
      vertex 3 160.735 0
      vertex 3 159.985 21.4855
    endloop
  endfacet
  facet normal 0.382603 0.92335 0.0322553
    outer loop
      vertex 7 164.738 0
      vertex 9.82843 162.812 21.5842
      vertex 9.82843 163.566 0
    endloop
  endfacet
  facet normal 0.382722 0.923301 0.0322353
    outer loop
      vertex 9.82843 162.812 21.5842
      vertex 7 164.738 0
      vertex 7 163.983 21.6251
    endloop
  endfacet
  facet normal 1.86409e-05 -0.0349523 0.999389
    outer loop
      vertex 5.70953 158.695 21.4405
      vertex 6 156.402 21.3603
      vertex 7 158.161 21.4218
    endloop
  endfacet
  facet normal -3.84718e-05 -0.0348784 0.999392
    outer loop
      vertex 4.17157 157.158 21.3868
      vertex 5.70953 158.695 21.4405
      vertex 5.175 159.985 21.4855
    endloop
  endfacet
  facet normal 0 -0.0348921 0.999391
    outer loop
      vertex 3 159.985 21.4855
      vertex 5.175 159.985 21.4855
      vertex 4.17157 162.812 21.5842
    endloop
  endfacet
  facet normal 0 -0.0348921 0.999391
    outer loop
      vertex 4.17157 157.158 21.3868
      vertex 5.175 159.985 21.4855
      vertex 3 159.985 21.4855
    endloop
  endfacet
  facet normal 3.3531e-05 -0.0349504 0.999389
    outer loop
      vertex 5.70953 158.695 21.4405
      vertex 4.17157 157.158 21.3868
      vertex 6 156.402 21.3603
    endloop
  endfacet
  facet normal 0 -0.0348962 0.999391
    outer loop
      vertex 10.5858 160.985 21.5204
      vertex 11 158.986 21.4506
      vertex 11 160.985 21.5204
    endloop
  endfacet
  facet normal 0 -0.0348962 0.999391
    outer loop
      vertex 10.5858 160.985 21.5204
      vertex 10.5858 158.986 21.4506
      vertex 11 158.986 21.4506
    endloop
  endfacet
  facet normal -1.23983e-05 -0.0349045 0.999391
    outer loop
      vertex 8.29047 161.275 21.5305
      vertex 10.5858 160.985 21.5204
      vertex 9.82843 162.812 21.5842
    endloop
  endfacet
  facet normal 9.90919e-06 -0.0348962 0.999391
    outer loop
      vertex 10.5858 160.985 21.5204
      vertex 8.825 159.985 21.4855
      vertex 10.5858 158.986 21.4506
    endloop
  endfacet
  facet normal 2.35115e-05 -0.0348722 0.999392
    outer loop
      vertex 8.29047 158.695 21.4405
      vertex 10.5858 158.986 21.4506
      vertex 8.825 159.985 21.4855
    endloop
  endfacet
  facet normal -7.47951e-06 -0.0348656 0.999392
    outer loop
      vertex 10.5858 160.985 21.5204
      vertex 8.29047 161.275 21.5305
      vertex 8.825 159.985 21.4855
    endloop
  endfacet
  facet normal -3.15345e-06 -0.0349137 0.99939
    outer loop
      vertex 7 163.983 21.6251
      vertex 8.29047 161.275 21.5305
      vertex 9.82843 162.812 21.5842
    endloop
  endfacet
  facet normal 4.38873e-05 -0.0348913 0.999391
    outer loop
      vertex 7 163.983 21.6251
      vertex 7 161.809 21.5492
      vertex 8.29047 161.275 21.5305
    endloop
  endfacet
  facet normal -4.38873e-05 -0.0348913 0.999391
    outer loop
      vertex 7 163.983 21.6251
      vertex 5.70953 161.275 21.5305
      vertex 7 161.809 21.5492
    endloop
  endfacet
  facet normal 3.84718e-05 -0.0348784 0.999392
    outer loop
      vertex 5.70953 161.275 21.5305
      vertex 4.17157 162.812 21.5842
      vertex 5.175 159.985 21.4855
    endloop
  endfacet
  facet normal 3.15345e-06 -0.0349137 0.99939
    outer loop
      vertex 4.17157 162.812 21.5842
      vertex 5.70953 161.275 21.5305
      vertex 7 163.983 21.6251
    endloop
  endfacet
  facet normal 2.58931e-05 -0.034891 0.999391
    outer loop
      vertex 10.5858 158.986 21.4506
      vertex 8.29047 158.695 21.4405
      vertex 9.82843 157.158 21.3868
    endloop
  endfacet
  facet normal -3.3531e-05 -0.0349504 0.999389
    outer loop
      vertex 8.29047 158.695 21.4405
      vertex 8 156.402 21.3603
      vertex 9.82843 157.158 21.3868
    endloop
  endfacet
  facet normal -1.86409e-05 -0.0349523 0.999389
    outer loop
      vertex 7 158.161 21.4218
      vertex 8 156.402 21.3603
      vertex 8.29047 158.695 21.4405
    endloop
  endfacet
  facet normal 0 -0.0349417 0.999389
    outer loop
      vertex 6 156.402 21.3603
      vertex 8 156.402 21.3603
      vertex 7 158.161 21.4218
    endloop
  endfacet
  facet normal 0 -0.0347616 0.999396
    outer loop
      vertex 8 156.402 21.3603
      vertex 6 156.402 21.3603
      vertex 8 155.988 21.3459
    endloop
  endfacet
  facet normal 0 -0.0347616 0.999396
    outer loop
      vertex 8 155.988 21.3459
      vertex 6 156.402 21.3603
      vertex 6 155.988 21.3459
    endloop
  endfacet
  facet normal -0.382722 0.923301 0.0322353
    outer loop
      vertex 7 164.738 0
      vertex 4.17157 162.812 21.5842
      vertex 7 163.983 21.6251
    endloop
  endfacet
  facet normal -0.382603 0.92335 0.0322553
    outer loop
      vertex 4.17157 162.812 21.5842
      vertex 7 164.738 0
      vertex 4.17157 163.566 0
    endloop
  endfacet
  facet normal 0.382761 -0.923286 -0.0322022
    outer loop
      vertex 9.82843 157.905 0
      vertex 8 156.402 21.3603
      vertex 8 157.147 0
    endloop
  endfacet
  facet normal 0.382297 -0.923476 -0.0322553
    outer loop
      vertex 8 156.402 21.3603
      vertex 9.82843 157.905 0
      vertex 9.82843 157.158 21.3868
    endloop
  endfacet
  facet normal -0.923873 -0.382467 -0.0133509
    outer loop
      vertex 4.17157 157.905 0
      vertex 3 159.985 21.4855
      vertex 3 160.735 0
    endloop
  endfacet
  facet normal -0.923894 -0.382415 -0.013357
    outer loop
      vertex 3 159.985 21.4855
      vertex 4.17157 157.905 0
      vertex 4.17157 157.158 21.3868
    endloop
  endfacet
  facet normal 0.923912 -0.382373 -0.0133515
    outer loop
      vertex 10.5858 158.986 21.4506
      vertex 9.82843 157.905 0
      vertex 10.5858 159.735 0
    endloop
  endfacet
  facet normal 0.923928 -0.382332 -0.0133541
    outer loop
      vertex 9.82843 157.905 0
      vertex 10.5858 158.986 21.4506
      vertex 9.82843 157.158 21.3868
    endloop
  endfacet
  facet normal -0.382297 -0.923476 -0.0322553
    outer loop
      vertex 4.17157 157.905 0
      vertex 6 156.402 21.3603
      vertex 4.17157 157.158 21.3868
    endloop
  endfacet
  facet normal -0.382761 -0.923286 -0.0322022
    outer loop
      vertex 6 156.402 21.3603
      vertex 4.17157 157.905 0
      vertex 6 157.147 0
    endloop
  endfacet
  facet normal 0.970142 -0.0084845 0.242388
    outer loop
      vertex 11 160.985 21.5204
      vertex 16.3659 159.735 0
      vertex 16.3834 161.736 0
    endloop
  endfacet
  facet normal 0.970143 -0.00846354 0.242387
    outer loop
      vertex 16.3659 159.735 0
      vertex 11 160.985 21.5204
      vertex 11 158.986 21.4506
    endloop
  endfacet
  facet normal -0 0.999392 0.0348759
    outer loop
      vertex 10.5858 161.736 0
      vertex 11 160.985 21.5204
      vertex 16.3834 161.736 0
    endloop
  endfacet
  facet normal 0 0.999392 0.0348759
    outer loop
      vertex 11 160.985 21.5204
      vertex 10.5858 161.736 0
      vertex 10.5858 160.985 21.5204
    endloop
  endfacet
  facet normal 0 -0.999391 -0.0348962
    outer loop
      vertex 10.5858 159.735 0
      vertex 11 158.986 21.4506
      vertex 10.5858 158.986 21.4506
    endloop
  endfacet
  facet normal 0 -0.999391 -0.0348962
    outer loop
      vertex 11 158.986 21.4506
      vertex 10.5858 159.735 0
      vertex 16.3659 159.735 0
    endloop
  endfacet
  facet normal 1 -0 0
    outer loop
      vertex 8 155.988 21.3459
      vertex 8 157.147 0
      vertex 8 156.402 21.3603
    endloop
  endfacet
  facet normal 1 0 0
    outer loop
      vertex 8 157.147 0
      vertex 8 155.988 21.3459
      vertex 8 151.436 0
    endloop
  endfacet
  facet normal 0 -0.97801 0.20856
    outer loop
      vertex 6 151.436 0
      vertex 8 155.988 21.3459
      vertex 6 155.988 21.3459
    endloop
  endfacet
  facet normal 0 -0.97801 0.20856
    outer loop
      vertex 8 155.988 21.3459
      vertex 6 151.436 0
      vertex 8 151.436 0
    endloop
  endfacet
  facet normal -1 0 0
    outer loop
      vertex 6 157.147 0
      vertex 6 155.988 21.3459
      vertex 6 156.402 21.3603
    endloop
  endfacet
  facet normal -1 0 -0
    outer loop
      vertex 6 155.988 21.3459
      vertex 6 157.147 0
      vertex 6 151.436 0
    endloop
  endfacet
  facet normal -0.923879 -0.382452 -0.0133554
    outer loop
      vertex 8.825 7.03919 -1
      vertex 8.29047 7.7309 16.1687
      vertex 8.29047 8.33044 -1
    endloop
  endfacet
  facet normal -0.923879 -0.382451 -0.0133555
    outer loop
      vertex 8.29047 7.7309 16.1687
      vertex 8.825 7.03919 -1
      vertex 8.825 6.44122 16.1236
    endloop
  endfacet
  facet normal 0.923879 -0.382452 -0.0133554
    outer loop
      vertex 5.70953 7.7309 16.1687
      vertex 5.175 7.03919 -1
      vertex 5.70953 8.33044 -1
    endloop
  endfacet
  facet normal 0.923879 -0.382451 -0.0133555
    outer loop
      vertex 5.175 7.03919 -1
      vertex 5.70953 7.7309 16.1687
      vertex 5.175 6.44122 16.1236
    endloop
  endfacet
  facet normal -0.382686 -0.923316 -0.0322427
    outer loop
      vertex 7 8.8653 -1
      vertex 8.29047 7.7309 16.1687
      vertex 7 8.26511 16.1873
    endloop
  endfacet
  facet normal -0.382686 -0.923316 -0.0322427
    outer loop
      vertex 8.29047 7.7309 16.1687
      vertex 7 8.8653 -1
      vertex 8.29047 8.33044 -1
    endloop
  endfacet
  facet normal 0.382686 -0.923316 -0.0322427
    outer loop
      vertex 7 8.8653 -1
      vertex 5.70953 7.7309 16.1687
      vertex 5.70953 8.33044 -1
    endloop
  endfacet
  facet normal 0.382686 -0.923316 -0.0322427
    outer loop
      vertex 5.70953 7.7309 16.1687
      vertex 7 8.8653 -1
      vertex 7 8.26511 16.1873
    endloop
  endfacet
  facet normal -0.382682 0.923317 0.0322431
    outer loop
      vertex 8.29047 5.74793 -1
      vertex 7 4.61733 16.0599
      vertex 8.29047 5.15153 16.0786
    endloop
  endfacet
  facet normal -0.38268 0.923318 0.0322433
    outer loop
      vertex 7 4.61733 16.0599
      vertex 8.29047 5.74793 -1
      vertex 7 5.21308 -1
    endloop
  endfacet
  facet normal 0.92388 0.382449 0.0133554
    outer loop
      vertex 5.175 6.44122 16.1236
      vertex 5.70953 5.74793 -1
      vertex 5.175 7.03919 -1
    endloop
  endfacet
  facet normal 0.92388 0.382449 0.0133555
    outer loop
      vertex 5.70953 5.74793 -1
      vertex 5.175 6.44122 16.1236
      vertex 5.70953 5.15153 16.0786
    endloop
  endfacet
  facet normal -0.92388 0.382449 0.0133554
    outer loop
      vertex 8.29047 5.74793 -1
      vertex 8.825 6.44122 16.1236
      vertex 8.825 7.03919 -1
    endloop
  endfacet
  facet normal -0.92388 0.382449 0.0133555
    outer loop
      vertex 8.825 6.44122 16.1236
      vertex 8.29047 5.74793 -1
      vertex 8.29047 5.15153 16.0786
    endloop
  endfacet
  facet normal 0.38268 0.923318 0.0322433
    outer loop
      vertex 5.70953 5.74793 -1
      vertex 7 4.61733 16.0599
      vertex 7 5.21308 -1
    endloop
  endfacet
  facet normal 0.382682 0.923317 0.0322431
    outer loop
      vertex 7 4.61733 16.0599
      vertex 5.70953 5.74793 -1
      vertex 5.70953 5.15153 16.0786
    endloop
  endfacet
  facet normal -0.923957 -0.382262 -0.0133526
    outer loop
      vertex 8.825 160.77 -1
      vertex 8.29047 161.275 21.5305
      vertex 8.29047 162.062 -1
    endloop
  endfacet
  facet normal -0.923913 -0.382371 -0.0133491
    outer loop
      vertex 8.29047 161.275 21.5305
      vertex 8.825 160.77 -1
      vertex 8.825 159.985 21.4855
    endloop
  endfacet
  facet normal 0.38216 -0.923533 -0.0322594
    outer loop
      vertex 7 162.596 -1
      vertex 5.70953 161.275 21.5305
      vertex 5.70953 162.062 -1
    endloop
  endfacet
  facet normal 0.382559 -0.923369 -0.0322269
    outer loop
      vertex 5.70953 161.275 21.5305
      vertex 7 162.596 -1
      vertex 7 161.809 21.5492
    endloop
  endfacet
  facet normal -0.382559 -0.923369 -0.0322269
    outer loop
      vertex 7 162.596 -1
      vertex 8.29047 161.275 21.5305
      vertex 7 161.809 21.5492
    endloop
  endfacet
  facet normal -0.38216 -0.923533 -0.0322594
    outer loop
      vertex 8.29047 161.275 21.5305
      vertex 7 162.596 -1
      vertex 8.29047 162.062 -1
    endloop
  endfacet
  facet normal 0.923957 -0.382262 -0.0133526
    outer loop
      vertex 5.70953 161.275 21.5305
      vertex 5.175 160.77 -1
      vertex 5.70953 162.062 -1
    endloop
  endfacet
  facet normal 0.923913 -0.382371 -0.0133491
    outer loop
      vertex 5.175 160.77 -1
      vertex 5.70953 161.275 21.5305
      vertex 5.175 159.985 21.4855
    endloop
  endfacet
  facet normal -0.923853 0.382515 0.0133541
    outer loop
      vertex 8.29047 159.479 -1
      vertex 8.825 159.985 21.4855
      vertex 8.825 160.77 -1
    endloop
  endfacet
  facet normal -0.923913 0.38237 0.0133588
    outer loop
      vertex 8.825 159.985 21.4855
      vertex 8.29047 159.479 -1
      vertex 8.29047 158.695 21.4405
    endloop
  endfacet
  facet normal 0.382771 0.92328 0.0322422
    outer loop
      vertex 5.70953 159.479 -1
      vertex 7 158.161 21.4218
      vertex 7 158.944 -1
    endloop
  endfacet
  facet normal 0.382559 0.923368 0.0322595
    outer loop
      vertex 7 158.161 21.4218
      vertex 5.70953 159.479 -1
      vertex 5.70953 158.695 21.4405
    endloop
  endfacet
  facet normal 0.923853 0.382515 0.0133541
    outer loop
      vertex 5.175 159.985 21.4855
      vertex 5.70953 159.479 -1
      vertex 5.175 160.77 -1
    endloop
  endfacet
  facet normal 0.923913 0.38237 0.0133588
    outer loop
      vertex 5.70953 159.479 -1
      vertex 5.175 159.985 21.4855
      vertex 5.70953 158.695 21.4405
    endloop
  endfacet
  facet normal -0.382559 0.923368 0.0322595
    outer loop
      vertex 8.29047 159.479 -1
      vertex 7 158.161 21.4218
      vertex 8.29047 158.695 21.4405
    endloop
  endfacet
  facet normal -0.382771 0.92328 0.0322422
    outer loop
      vertex 7 158.161 21.4218
      vertex 8.29047 159.479 -1
      vertex 7 158.944 -1
    endloop
  endfacet
  facet normal 0 0 -1
    outer loop
      vertex 8.29047 159.479 -1
      vertex 183.831 167.775 -1
      vertex 8.29047 8.33044 -1
    endloop
  endfacet
  facet normal 0 0 -1
    outer loop
      vertex 183.831 167.775 -1
      vertex 8.29047 159.479 -1
      vertex 8.825 160.77 -1
    endloop
  endfacet
  facet normal 0 0 -1
    outer loop
      vertex 7 8.8653 -1
      vertex 8.29047 159.479 -1
      vertex 8.29047 8.33044 -1
    endloop
  endfacet
  facet normal 0 0 -1
    outer loop
      vertex 7 8.8653 -1
      vertex 7 158.944 -1
      vertex 8.29047 159.479 -1
    endloop
  endfacet
  facet normal 0 0 -1
    outer loop
      vertex 5.70953 8.33044 -1
      vertex 7 158.944 -1
      vertex 7 8.8653 -1
    endloop
  endfacet
  facet normal 0 0 -1
    outer loop
      vertex 5.70953 8.33044 -1
      vertex 5.70953 159.479 -1
      vertex 7 158.944 -1
    endloop
  endfacet
  facet normal 0 0 -1
    outer loop
      vertex 0 4.03736 -1
      vertex 5.70953 8.33044 -1
      vertex 5.175 7.03919 -1
    endloop
  endfacet
  facet normal -0 0 -1
    outer loop
      vertex 5.70953 8.33044 -1
      vertex 0 4.03736 -1
      vertex 5.70953 159.479 -1
    endloop
  endfacet
  facet normal 0 0 -1
    outer loop
      vertex 8.29047 8.33044 -1
      vertex 183.831 0.0349214 -1
      vertex 8.825 7.03919 -1
    endloop
  endfacet
  facet normal 0 0 -1
    outer loop
      vertex 183.831 0.0349214 -1
      vertex 8.29047 5.74793 -1
      vertex 8.825 7.03919 -1
    endloop
  endfacet
  facet normal 0 0 -1
    outer loop
      vertex 4 0.0349214 -1
      vertex 8.29047 5.74793 -1
      vertex 183.831 0.0349214 -1
    endloop
  endfacet
  facet normal 0 0 -1
    outer loop
      vertex 0 4.03736 -1
      vertex 5.70953 5.74793 -1
      vertex 1.90402 0.903632 -1
    endloop
  endfacet
  facet normal 0 0 -1
    outer loop
      vertex 1.90402 0.903632 -1
      vertex 5.70953 5.74793 -1
      vertex 4 0.0349214 -1
    endloop
  endfacet
  facet normal -0 0 -1
    outer loop
      vertex 7 5.21308 -1
      vertex 4 0.0349214 -1
      vertex 5.70953 5.74793 -1
    endloop
  endfacet
  facet normal 0 0 -1
    outer loop
      vertex 8.29047 5.74793 -1
      vertex 4 0.0349214 -1
      vertex 7 5.21308 -1
    endloop
  endfacet
  facet normal 0 0 -1
    outer loop
      vertex 183.831 0.0349214 -1
      vertex 8.29047 8.33044 -1
      vertex 183.831 167.775 -1
    endloop
  endfacet
  facet normal 0 0 -1
    outer loop
      vertex 8.29047 162.062 -1
      vertex 183.831 167.775 -1
      vertex 8.825 160.77 -1
    endloop
  endfacet
  facet normal 0 0 -1
    outer loop
      vertex 4 167.775 -1
      vertex 8.29047 162.062 -1
      vertex 7 162.596 -1
    endloop
  endfacet
  facet normal 0 0 -1
    outer loop
      vertex 8.29047 162.062 -1
      vertex 4 167.775 -1
      vertex 183.831 167.775 -1
    endloop
  endfacet
  facet normal 0 0 -1
    outer loop
      vertex 5.70953 162.062 -1
      vertex 4 167.775 -1
      vertex 7 162.596 -1
    endloop
  endfacet
  facet normal 0 0 -1
    outer loop
      vertex 0 163.772 -1
      vertex 5.70953 162.062 -1
      vertex 5.175 160.77 -1
    endloop
  endfacet
  facet normal 0 0 -1
    outer loop
      vertex 0 163.772 -1
      vertex 5.70953 159.479 -1
      vertex 0 4.03736 -1
    endloop
  endfacet
  facet normal -0 0 -1
    outer loop
      vertex 5.70953 5.74793 -1
      vertex 0 4.03736 -1
      vertex 5.175 7.03919 -1
    endloop
  endfacet
  facet normal 0 0 -1
    outer loop
      vertex 0 4.03736 -1
      vertex 1.90402 0.903632 -1
      vertex 1.17157 1.20721 -1
    endloop
  endfacet
  facet normal 0 0 -1
    outer loop
      vertex 5.70953 159.479 -1
      vertex 0 163.772 -1
      vertex 5.175 160.77 -1
    endloop
  endfacet
  facet normal 0 0 -1
    outer loop
      vertex 5.70953 162.062 -1
      vertex 0 163.772 -1
      vertex 1.17157 166.602 -1
    endloop
  endfacet
  facet normal 0 0 -1
    outer loop
      vertex 5.70953 162.062 -1
      vertex 1.17157 166.602 -1
      vertex 4 167.775 -1
    endloop
  endfacet
  facet normal 0 0 1
    outer loop
      vertex 4.17157 157.905 0
      vertex 6 151.436 0
      vertex 6 157.147 0
    endloop
  endfacet
  facet normal 0 0 1
    outer loop
      vertex 0 163.737 0
      vertex 6 151.436 0
      vertex 4.17157 157.905 0
    endloop
  endfacet
  facet normal 0 0 1
    outer loop
      vertex 0 4.00244 0
      vertex 6 151.436 0
      vertex 0 163.737 0
    endloop
  endfacet
  facet normal 0 0 1
    outer loop
      vertex 6 15.1133 0
      vertex 4.17157 9.83442 0
      vertex 6 10.5922 0
    endloop
  endfacet
  facet normal 0 0 1
    outer loop
      vertex 0 163.737 0
      vertex 4.17157 157.905 0
      vertex 3 160.735 0
    endloop
  endfacet
  facet normal 0 0 1
    outer loop
      vertex 6 151.436 0
      vertex 0 4.00244 0
      vertex 6 15.1133 0
    endloop
  endfacet
  facet normal -0 0 1
    outer loop
      vertex 6 151.436 0
      vertex 8 15.1133 0
      vertex 8 151.436 0
    endloop
  endfacet
  facet normal 0 0 1
    outer loop
      vertex 8 15.1133 0
      vertex 6 151.436 0
      vertex 6 15.1133 0
    endloop
  endfacet
  facet normal 0 0 1
    outer loop
      vertex 9.82843 157.905 0
      vertex 16.3659 159.735 0
      vertex 10.5858 159.735 0
    endloop
  endfacet
  facet normal 0 0 1
    outer loop
      vertex 16.3659 159.735 0
      vertex 8 151.436 0
      vertex 15.0421 8.00488 0
    endloop
  endfacet
  facet normal 0 0 1
    outer loop
      vertex 16.3659 159.735 0
      vertex 9.82843 157.905 0
      vertex 8 151.436 0
    endloop
  endfacet
  facet normal -0 0 1
    outer loop
      vertex 8 15.1133 0
      vertex 15.0421 8.00488 0
      vertex 8 151.436 0
    endloop
  endfacet
  facet normal 0 0 1
    outer loop
      vertex 8 151.436 0
      vertex 9.82843 157.905 0
      vertex 8 157.147 0
    endloop
  endfacet
  facet normal -0 -0 1
    outer loop
      vertex 9.82843 9.83442 0
      vertex 15.0421 8.00488 0
      vertex 8 15.1133 0
    endloop
  endfacet
  facet normal 0 0 1
    outer loop
      vertex 15.0421 8.00488 0
      vertex 9.82843 9.83442 0
      vertex 10.5858 8.00488 0
    endloop
  endfacet
  facet normal 0 0 1
    outer loop
      vertex 9.82843 9.83442 0
      vertex 8 15.1133 0
      vertex 8 10.5922 0
    endloop
  endfacet
  facet normal 0 0 1
    outer loop
      vertex 16.3659 159.735 0
      vertex 183.831 167.74 0
      vertex 16.3834 161.736 0
    endloop
  endfacet
  facet normal -0 0 1
    outer loop
      vertex 4 167.74 0
      vertex 16.3834 161.736 0
      vertex 183.831 167.74 0
    endloop
  endfacet
  facet normal 0 0 1
    outer loop
      vertex 16.3834 161.736 0
      vertex 9.82843 163.566 0
      vertex 10.5858 161.736 0
    endloop
  endfacet
  facet normal 0 0 1
    outer loop
      vertex 16.3834 161.736 0
      vertex 4 167.74 0
      vertex 9.82843 163.566 0
    endloop
  endfacet
  facet normal 0 0 1
    outer loop
      vertex 9.82843 163.566 0
      vertex 4 167.74 0
      vertex 7 164.738 0
    endloop
  endfacet
  facet normal 0 0 1
    outer loop
      vertex 4 167.74 0
      vertex 4.17157 163.566 0
      vertex 7 164.738 0
    endloop
  endfacet
  facet normal -0 0 1
    outer loop
      vertex 1.17157 166.567 0
      vertex 4.17157 163.566 0
      vertex 4 167.74 0
    endloop
  endfacet
  facet normal 0 0 1
    outer loop
      vertex 4.17157 9.83442 0
      vertex 0 4.00244 0
      vertex 3 7.00427 0
    endloop
  endfacet
  facet normal -0 0 1
    outer loop
      vertex 0 163.737 0
      vertex 4.17157 163.566 0
      vertex 1.17157 166.567 0
    endloop
  endfacet
  facet normal 0 0 1
    outer loop
      vertex 4.17157 163.566 0
      vertex 0 163.737 0
      vertex 3 160.735 0
    endloop
  endfacet
  facet normal 0 0 1
    outer loop
      vertex 6 15.1133 0
      vertex 0 4.00244 0
      vertex 4.17157 9.83442 0
    endloop
  endfacet
  facet normal 0 0 1
    outer loop
      vertex 3 7.00427 0
      vertex 0 4.00244 0
      vertex 1.86277 0.885812 0
    endloop
  endfacet
  facet normal 0 0 1
    outer loop
      vertex 1.86277 0.885812 0
      vertex 0 4.00244 0
      vertex 1.17157 1.17229 0
    endloop
  endfacet
  facet normal 0 0 1
    outer loop
      vertex 183.831 167.74 0
      vertex 16.3659 159.735 0
      vertex 183.831 6.53453e-07 0
    endloop
  endfacet
  facet normal -0 0 1
    outer loop
      vertex 15.0421 8.00488 0
      vertex 183.831 6.53453e-07 0
      vertex 16.3659 159.735 0
    endloop
  endfacet
  facet normal -0 0 1
    outer loop
      vertex 15.0246 6.00366 0
      vertex 183.831 6.53453e-07 0
      vertex 15.0421 8.00488 0
    endloop
  endfacet
  facet normal 0 0 1
    outer loop
      vertex 9.82843 4.17412 0
      vertex 15.0246 6.00366 0
      vertex 10.5858 6.00366 0
    endloop
  endfacet
  facet normal 0 0 1
    outer loop
      vertex 4 6.53453e-07 0
      vertex 15.0246 6.00366 0
      vertex 9.82843 4.17412 0
    endloop
  endfacet
  facet normal 0 0 1
    outer loop
      vertex 4 6.53453e-07 0
      vertex 9.82843 4.17412 0
      vertex 7 3.00183 0
    endloop
  endfacet
  facet normal 0 0 1
    outer loop
      vertex 15.0246 6.00366 0
      vertex 4 6.53453e-07 0
      vertex 183.831 6.53453e-07 0
    endloop
  endfacet
  facet normal 0 0 1
    outer loop
      vertex 4.17157 4.17412 0
      vertex 4 6.53453e-07 0
      vertex 7 3.00183 0
    endloop
  endfacet
  facet normal 0 0 1
    outer loop
      vertex 1.86277 0.885812 0
      vertex 4.17157 4.17412 0
      vertex 3 7.00427 0
    endloop
  endfacet
  facet normal 0 0 1
    outer loop
      vertex 4.17157 4.17412 0
      vertex 1.86277 0.885812 0
      vertex 4 6.53453e-07 0
    endloop
  endfacet
  facet normal -0.382881 0.923232 0.0323131
    outer loop
      vertex 4 167.775 -1
      vertex 1.17157 166.567 0
      vertex 4 167.74 0
    endloop
  endfacet
  facet normal -0.382881 0.923232 0.0323131
    outer loop
      vertex 1.17157 166.567 0
      vertex 4 167.775 -1
      vertex 1.17157 166.602 -1
    endloop
  endfacet
  facet normal -0.382682 -0.923317 -0.0322422
    outer loop
      vertex 1.17157 1.20721 -1
      vertex 1.86277 0.885812 0
      vertex 1.17157 1.17229 0
    endloop
  endfacet
  facet normal -0.382686 -0.923316 -0.0322393
    outer loop
      vertex 1.86277 0.885812 0
      vertex 1.17157 1.20721 -1
      vertex 1.90402 0.903632 -1
    endloop
  endfacet
  facet normal -0.382684 -0.923317 -0.0322392
    outer loop
      vertex 1.90402 0.903632 -1
      vertex 4 6.53453e-07 0
      vertex 1.86277 0.885812 0
    endloop
  endfacet
  facet normal -0.382683 -0.923317 -0.0322429
    outer loop
      vertex 4 6.53453e-07 0
      vertex 1.90402 0.903632 -1
      vertex 4 0.0349214 -1
    endloop
  endfacet
  facet normal 0 -0.999391 -0.0348995
    outer loop
      vertex 4 0.0349214 -1
      vertex 183.831 6.53453e-07 0
      vertex 4 6.53453e-07 0
    endloop
  endfacet
  facet normal 0 -0.999391 -0.0348995
    outer loop
      vertex 183.831 6.53453e-07 0
      vertex 4 0.0349214 -1
      vertex 183.831 0.0349214 -1
    endloop
  endfacet
  facet normal -0.923872 0.382467 0.0133863
    outer loop
      vertex 0 163.772 -1
      vertex 1.17157 166.567 0
      vertex 1.17157 166.602 -1
    endloop
  endfacet
  facet normal -0.923872 0.382467 0.0133863
    outer loop
      vertex 1.17157 166.567 0
      vertex 0 163.772 -1
      vertex 0 163.737 0
    endloop
  endfacet
  facet normal -0.92388 -0.38245 -0.0133551
    outer loop
      vertex 1.17157 1.20721 -1
      vertex 0 4.00244 0
      vertex 0 4.03736 -1
    endloop
  endfacet
  facet normal -0.92388 -0.38245 -0.0133551
    outer loop
      vertex 0 4.00244 0
      vertex 1.17157 1.20721 -1
      vertex 1.17157 1.17229 0
    endloop
  endfacet
  facet normal -1 0 0
    outer loop
      vertex 0 4.03736 -1
      vertex 0 163.737 0
      vertex 0 163.772 -1
    endloop
  endfacet
  facet normal -1 -0 0
    outer loop
      vertex 0 163.737 0
      vertex 0 4.03736 -1
      vertex 0 4.00244 0
    endloop
  endfacet
  facet normal 0 0.999388 0.0349786
    outer loop
      vertex 183.831 167.775 -1
      vertex 4 167.74 0
      vertex 183.831 167.74 0
    endloop
  endfacet
  facet normal 0 0.999388 0.0349786
    outer loop
      vertex 4 167.74 0
      vertex 183.831 167.775 -1
      vertex 4 167.775 -1
    endloop
  endfacet
  facet normal 1 0 0
    outer loop
      vertex 183.831 167.74 0
      vertex 183.831 0.0349214 -1
      vertex 183.831 167.775 -1
    endloop
  endfacet
  facet normal 1 0 -0
    outer loop
      vertex 183.831 0.0349214 -1
      vertex 183.831 167.74 0
      vertex 183.831 6.53453e-07 0
    endloop
  endfacet
endsolid OpenSCAD_Model
